<svg xmlns="http://www.w3.org/2000/svg" viewBox="0 0 645 567"><g id="Layer_2" data-name="Layer 2"><g id="Layer_1-2" data-name="Layer 1"><path d="M.09,566.91Q.09,285.75,0,4.59C0,.84.84,0,4.59,0Q322.5.17,640.41,0c3.75,0,4.59.84,4.59,4.59q-.16,278.91,0,557.82c0,3.74-.84,4.59-4.59,4.59Q320.25,566.84.09,566.91Z" style="fill:#fefefe"/><path d="M91,215.81a25.87,25.87,0,0,0,2.22-9.36c1.09-8.82,6.07-16,9.83-23.74,4.75-5.41,8.85-11.43,14.44-16.1a8.59,8.59,0,0,1,2.31-1.55c4.3-3,8.67-5.83,11.88-10.08,6.53-4.26,14.23-5.74,21.23-8.89,3.6-1.62,6.73,1.48,9.85,3.1,5.62,3.71,11.92,6.19,17.14,10.72,5.77,5,8.21,10.93,7.71,18.33-1.31,4.28-2.55,8.52-7.14,10.7-2.05,1-4.1,1.73-6.16.83-7.25-3.18-14.78-3.67-22.52-2.78a5.85,5.85,0,0,1-3.39-.44c-1.34-1.28-.47-2.45.18-3.64a6.42,6.42,0,0,1,2.66-1.65c1.91-.6,3.9-.43,5.84-.66,1.94,0,3.12-1.63,4.74-2.33,1.48-.42,3-.79,3.41-2.61.79-5.61-1.81-9.82-5.68-13.4a10.67,10.67,0,0,1-2.12-2c-1.82-2.89-3-1.67-4,.61-.43,3.1.87,3.69,3.49,2.4,3.59,2.57,3.15,6-1.21,9.37a18.56,18.56,0,0,1-6.5-1.66c-1.46-.7-3-1.2-4.51-1.84a7,7,0,0,0-5.56-.39c-.81.23-1.63.42-2.43.67-.78.4-1.35.89-.43,1.68s1.6,1.5,1.19,2.78a10.32,10.32,0,0,1-4.15,3.24c-.87.63-2-2.21-2.76.23-.5.66-1,1.79-1.75,1.62-4.91-1.16-5.61,2.19-6.06,5.61-.43,3.21-.92,6.26-4.66,7.68,3.29,1.86,5-1,7.22-2.1.8-.47,1.63-.88,2.46-1.29,4.39-2.19,9.28-2.14,11.75.1-.16,1.63-1.48,2.25-2.72,2.55-5.86,1.42-10.65,5-15.69,8-4.39,2.58-7.18,7.22-10.84,10.8-1.63.87-2.67-.41-3.87-1.08-1.66-1.2-.36-2.38,0-3.58a6.43,6.43,0,0,0,.06-1.32,3.27,3.27,0,0,1,1.28-3c3.84-3.06,2.51-7.51,3.11-9.72.28,3.18-.82,5-5.31,6.65a20.14,20.14,0,0,0-2.84.66c.33.39.86.47,1.27.77,1,2.26-1.56,3.29-1.74,5.14-3.81,1-1.55,4.09-2.72,6.83,2.71-1,4.59-2.07,6.65-2.6,1.58,1,2.5,2.74,1.08,4.05-2,1.87-1.2,4.21-1.84,6.27-.67,4.76-4.31,7.75-6.83,11.41-2.1.88-3.94.93-5-1.57A3.7,3.7,0,0,1,94.1,226c2.87-4.42,2.87-4.42-2.17-6.2C90.15,218.79,90.36,217.35,91,215.81Z" style="fill:#030202"/><path d="M91,215.81c.11,1.45-.06,3.08,2.08,3.21,2.7,3.2-.24,6.51.2,9.75.09.66-.1-.12.15.46.32.74.41-.18.66-.21,1.09,1.63,2.7,1.27,4.26,1.09.8,1.21.3,2.32-.27,3.42a28.25,28.25,0,0,0-2.49,4.38,40.31,40.31,0,0,0-1.9,17.53c.44,4.69-.32,9.47.34,14.22,1.22,8.88.79,18,4.94,26.37a1,1,0,0,1,.15.47c-.15,9.76,7.24,15.58,11.9,22.83,2.34,6.11,8.49,8,13,11.76h-.07c4.21,2.32,8.95,3.44,13.12,5.84l1,.17c5.9,3.7,12.62,4.76,19.28,6l11.58-1.2c4.8-.68,7.82-4.93,12.35-6.17a3.1,3.1,0,0,1,1.42,0c1.86,1.41,1.13,2.92.19,4.45a12.28,12.28,0,0,1-1.39,1.58c-2.71,2.62-4.89,6-9.2,6.3-1.28.68-2.56,1.37-3.79,2.15-9.87,4.43-19.09,1.13-28.28-2.38l.07,0c-4.06-2.7-9.41-2.45-13.2-5.77l-.22-.3-.36.07c-2.07-.94-3.46-3-5.72-3.58-9.13-4.85-16.69-11.38-21.48-20.68-1.57-3.07-4.83-5.19-5-9l.15-.31-.24-.24c-.62-.77-1.24-1.55-1.79-2.38-1.25-6.06-3.67-11.78-5.16-17.77l0,.06c-3-3.59-1.23-8-1.86-12-1.41-8.77-1.61-17.69-1.86-26.59A65,65,0,0,1,87.06,227C88.85,223.45,88,219,91,215.81Z" style="fill:#050404"/><path d="M311,282h2c3.42,1.15,1.13,4.18,2,6.16a35.58,35.58,0,0,1-1.14,5.21c-1.25,5-1.29,10.23-3.06,15.12-.53,1.12-1.5,2-1.95,3.14a22.79,22.79,0,0,0-1.51,7.73,22.92,22.92,0,0,1-4.83,15.17c-2.1,1.26-2-.32-2-1.62-.36,1.07-.71,2.34-2.14,2.15a5.74,5.74,0,0,1-4.79-3.71c-2.74-7.39-3.2-14.74.15-22.08,2-4.56,2.55-9.75,6.13-13.59,3.25-.82,4.56-2.95,4.19-6.22a8.17,8.17,0,0,1,.59-1.23C305.27,284.63,308.53,283.72,311,282Z" style="fill:#fcfcfb"/><path d="M381.89,265.13c2.08-4.52,9.8-5.5,12.89-1.29,2.5,3.41,5,3,8.56,1.05-1.54,7.1,4.1,7,8.08,8.11,2,.59,2.34,2.83,4.7,3.23.45-1.15-1.27-2.49.37-3.88,2.34-2,2.24.26,3,1.12,1.76-2.24,4.31-4.24,5.12-6.79,1.48-4.68,1.05-4.8,5.83-4.22.44.05.92-.31,1.39-.48a2,2,0,0,1,.68,1.15,8.79,8.79,0,0,1-.71,3.35,5.71,5.71,0,0,1-.64,1.19c-1.71,2-3.77,3.73-4.63,6.34a6.29,6.29,0,0,1-1.29,1.57,12.42,12.42,0,0,1-1,.87c-3.36,5-2.62,9.9.24,14.78,1.68,2,2.23,4.92,5,6,1.65,1.05,4.29.88,4.53,3.66a3.3,3.3,0,0,1-4,1.34,14.19,14.19,0,0,0-7.51-.9c-1.51.31-1.95-.89-2.52-1.9a2.51,2.51,0,0,0-.66-.86c.14.46.49.82.63,1.28.24.8-.29,1.63-.8,1.53-3.27-.65-3.81,3.22-6.35,3.68a3.53,3.53,0,0,1-.76-1.22c.9-8.57-4.11-15.79-5.46-23.84-.34-2-1.8-3.5-3.05-5-2.06-2.52-4.31-4.78-7.68-5.48-2.87-2-5.13-5.28-9.36-4.24-1.35,0-2.67.61-4.05.23Z" style="fill:#fbfafa"/><path d="M533.26,340.87c-2.57-.58-5.73.12-5.36-4.67.14-1.75-2.84-4.76-6.3.78,1.76-7-2.42-11.88.28-17.05-5.24-.54-6-1.66-4.1-5.71-1.09-1.33-1.6.36-2.4.49s-1.82.46-3.11.8l3.35,3.94a6,6,0,0,1-4.92.25c-2.54-1.06-4.54-5.74-7.79-.8a1.88,1.88,0,0,1-2.54-.79c-.49-1.72.33-4.4-3.17-2.41-.84.48,0-4.09-2.76-2.08a4.93,4.93,0,0,1-4.52,1.16c-.11-1.15,2.08-.65,1.28-2.54-3.12,1.56-6.62,3.79-8.73-1.44-.19-.46-1.87,0-2,1.36A11.43,11.43,0,0,1,478,318c-1.6.43-2.29-.83-3.18-1.72-1.44-2.31-1-4.58.17-6.82,3.33-4.72,7.93-2.55,12.19-2.27,1.13.39,1.2,1.89,2.37,2.26,8.92.31,17.8-.41,26.7-.45a11.45,11.45,0,0,1,3.74,0,2.08,2.08,0,0,0,2,1c3.78.9,5.35,3.5,5.46,7.18.07,2,.14,4,1.24,5.72,1.3,2.52.25,5.41,1.25,8,0,3.15,2.2,5.37,3.54,7.94A2.42,2.42,0,0,1,533.26,340.87Z" style="fill:#fbfbfb"/><path d="M364.76,311c-2.58-2.74-5.18,1.66-7.76,0a3.29,3.29,0,0,1-1-2.83,20.22,20.22,0,0,1,2-5.78,6.3,6.3,0,0,1,.9-1.22c1.5-1.12,1.76-2.71,1.72-4.43-.21-8.81,1.09-17.86-3.9-26a9.4,9.4,0,0,1-.66-1.87c-.13-3-3.32-4.71-3.13-7.81.18-.76,1-2.09,1.22-1.53,1.74,4.14,5.08,2.48,7.89,2.4,3.37-.1,5,1.15,3.19,4.34-1.94,3.39,1.1,5.34,1.87,7.86.42,1.37,2,.24,2.63-.78,1.3-2.27,3.21-1.84,5.18-1.39,1.37,3.26-.75,5.74-1.89,8.44a6.91,6.91,0,0,0-2.16,4.52,41.48,41.48,0,0,0-1.57,12.68,8.67,8.67,0,0,1-1.21,5.2,10.31,10.31,0,0,1-.92,1.25C365.44,306.07,367.28,309.31,364.76,311Z" style="fill:#fbfaf9"/><path d="M286.07,327c-1.92-2.77-.83-6-1.29-8.94-.28-1.79.81-4.53-2.6-5.06-.05,3,2.16,6.2-1.59,8.94,1.4-5.9-3.31-3.8-5.57-4.93-.52-1.45.76-2.16,1.3-3.17a6.86,6.86,0,0,0,1.35-4.17c-.15-5.94,2.26-11.25,4.07-16.71a8,8,0,0,1,.73-1.18,37,37,0,0,0,3.92-6.17c1.08-1.82,1.78-3.86,3.15-5.51a4.4,4.4,0,0,1,2-1.11,5.62,5.62,0,0,1,4.72.86,9,9,0,0,1-.08,9.5c-5.09,7.34-6.6,15.72-8.23,24.14-.95,2.74-.46,5.59-.61,8.38C287.29,323.65,287.56,325.54,286.07,327Z" style="fill:#f9f8f7"/><path d="M454,278c-.28-.38-.89-.87-.81-1.13.88-2.7.36-5.81-2.26-5.93-2.83-.13-7.05-1.51-8.71,2.27-1,2.18-2.61,1.13-4.09,1.93,1.58,1.61,5.43,1.57,3.41,5.32-2-2.84-3.76-3.85-5.72.2-1.23,2.55-4.67,3.45-5.79,6.34-2.83-.47-2-2.69-2.16-4.45a35,35,0,0,0,.93-5.28,6,6,0,0,1,.65-2.11c2.38-2.21,5.41-3.65,7.53-6.18a7.32,7.32,0,0,1,1.14-.8c2-1.14,4.4-1.21,6.31-2.55a6.33,6.33,0,0,1,1.33-.52c3.42-.67,6.11.71,8.49,3,.5.49,1,1,1.41,1.55.61.59,1.28,1.23,2.13.57s.54-1.49.18-2.27c-1-2.19-2.88-3.62-4.52-5.26-2.53-3.14-6-3.18-9.58-2.95a2.16,2.16,0,0,1-1-.89c-.87-2.54.63-5.4,2-6,2.69-1,6.27-1.34,8.67,1.05,1.93,1.92,3.07,2.92,4.72-.09a1.87,1.87,0,0,1,3-.3c1.29,1.31.25,2.63-.83,3.31-1.92,1.21-3.76,2.32-3.87,5,1.74,1.81,1.45-2.1,3-.77a4.77,4.77,0,0,0,.79,4.72c2.61,3.11,2.49,5.42-1.15,8C457.49,275,454.87,275.58,454,278Z" style="fill:#faf9f8"/><path d="M548.93,281c-1.61.16-1.83,2.67-4.08,2.13-1.66-.4-.85,1.29-.71,1.93.64,2.84,2.76,3.84,5.55,3.74-.83,2.95-2.81,2-4.49,1.65-3.31-.65-5.29.42-6.35,3.81s-3.62,6.73.35,10.11c.54.46,0,2.58-.5,3.78-1.59,4.18-2,8.3.63,12.75-1.74.44-2.05-2.19-3.68-.82a22.64,22.64,0,0,1,2.88,10.45c0,2.74-.72,6.39.87,9.4.89,1.7-.37,1.41-1.38,1.06-2.23-1.94-.63-5.21-2.54-7.25a28.32,28.32,0,0,0-1.68-2.38,6,6,0,0,1-1-2.85,93.56,93.56,0,0,0-2.83-19.44c-1.72-6.8.74-13.29,2.94-19.68,1.51-2.39,3.73-4.14,5.62-6.19,3-2.25,5.86-5.21,10.26-3.57A1,1,0,0,1,548.93,281Z" style="fill:#fafaf9"/><path d="M269.13,300.23c-.45-2.23-.83-4.48-1.41-6.68-.21-.79-1-1.45-1.89-.65-.71.65-.48,1,.33,1.75,2,1.91-.39,3.49-1.14,5-1,2-2.06.64-2.92-.43-1.14,2.59-4.78.07-5.83,2.85l-.66-.45a5.13,5.13,0,0,1,.41-5.94,7.84,7.84,0,0,0,3.2-4.75c1.51-3.3,2.68-6.75,4.4-9.95a7.37,7.37,0,0,1,8.71-4c3.83.81,4.53,4,4.81,7.21.37,4.18-1.4,7.7-3.93,10.89C271.57,296.56,271.82,299.56,269.13,300.23Z" style="fill:#faf9fa"/><path d="M372,280.06c1-2.68,2-5.37,2.92-8.06l2-3.07a8.47,8.47,0,0,1,1.89-1.89c2.74-1.84,5.23,1.08,7.91.41,2.07.72,5.3-.6,5.64,3.17-1,1.78-2.81,1.62-4.4,1.45a5.05,5.05,0,0,0-5.78,3.53,14.17,14.17,0,0,1-2.83,5.07c-3.51,4.78-4.15,10.37-4.53,16-.64,2.09-.9,4.36-2.68,5.94-1.68,1.41-1.7,3.22-1.55,5.23.13,1.7.66,3.52-.44,5.14-1,.63-2.1-1.05-3.13.06-2.21-3.41-.28-6.9-.21-10.35,1.8-4.21.56-8.77,1.5-13.07.41-1.91,1.06-3.77,1.6-5.66C370.78,282.75,370.85,281.13,372,280.06Z" style="fill:#130d0d"/><path d="M409.85,333.11a16.29,16.29,0,0,1-1.39-2.6c-.2-.59-.65-1.68-.79-1.38-2.1,4.49-3.85-.57-5.81-.16a62.56,62.56,0,0,1-7,.71,1.85,1.85,0,0,1-.26-1.84,10.16,10.16,0,0,1,2.08-2.54,8.61,8.61,0,0,1,1.59-1.22c5-1.62,5.93-6.28,7.74-10.28a4.12,4.12,0,0,1,1.86-2.09,3.9,3.9,0,0,1,2.72.61c5.75,2.57,6,5.59-.14,12.07,5.22-1.36,7.39,1.47,9.9,4.31,1.87,2.13,4.25,4.51,7.94,2.17,2.58-1.64,4.7-.26,6,2.37-.24,1.47-1.38,2-2.55,2.59-3.48,1.13-7,1.9-10.67,1.15-2.41-.71-3.79-2.84-5.78-4.12a6.42,6.42,0,0,1-.93-.95c-1.41-2.15-2.51-1.4-3.49.39A2.49,2.49,0,0,1,409.85,333.11Z" style="fill:#faf9f7"/><path d="M461,295c-.51,1.22-4.42,2.5.12,3.65,2,.5,1.42,3.61,3.82,4,1.33.19,1.78,3.28,3.86,1.25.57-.57-.07-2.27-1.2-3.56-.75-.85,0-1.5.39-2.12,1.11-1.81,3.28-2.07,4.87-3.19a2.5,2.5,0,0,1,1,2c-1.09,5.77-3.19,11.38-2.72,17.4.19,1.16.56,2.28.85,3.43a41.49,41.49,0,0,0,1.78,6.05,7,7,0,0,1,.26,1.44,3.09,3.09,0,0,1-1,2.68c-1.32-1.3-3-.12-4.5-.59,1-6.67-.79-9.11-5.41-7.39-1.45-1.19-1.31-2.87-1.39-4.48a17.06,17.06,0,0,1,.31-3.71c.92-3.32-.82-5.88-2.46-8.46-.66-1.12-1.45-2.16-2.1-3.28-.61-1.33-1.1-2.78-2.95-2.82a27.12,27.12,0,0,1-2.71-.35,7.49,7.49,0,0,1-1.38-.47c-1.64-1.15-3.68-1.07-5.47-1.72-1.55-.56-3.7-.28-4.18-2.6C446.14,290.54,457.25,292.11,461,295Z" style="fill:#faf9f8"/><path d="M243,336a8.75,8.75,0,0,0-1.87-.31c-1.88,4.85-6.29,2.62-9.2,2.61-4.61,0-9.4,2.87-13.92-.3.67-3.06,4.27-.77,5.41-3,2.31-1.75,5.32-2,7.71-3.55.53-.36,1.06-.71,1.6-1a7.85,7.85,0,0,0,3-3.23c2.79-3.71,4.62-8.37,9.67-9.87,2.54.3,1.94,2.21,2,3.8,0,3-.55,6,1.17,8.75.8,1.43,2.32,2.46,2.5,4.26-1.37,3.06-3.71,2.33-5.32.75C243.37,332.53,243.34,334.23,243,336Z" style="fill:#f9f9f9"/><path d="M110.7,320.12c-2.08-.43-2.64-2.27-3.6-3.8-2-3.19-3.5-6.77-6.47-9.26-3.18-2.66-1.22-6.66-2.6-9.64-5.33-11.52-5-24.05-5.53-36.12-.32-7.84-1.64-16.52,2.66-24.17.48-.82.89-1.76,2.13-1.07a1.6,1.6,0,0,1-.22,2c-3.66,4.88-3.41,10.81-2.37,16s-1.12,9.83.09,15c1.24,5.3,1.86,10.87,2.85,16.31a9,9,0,0,1,.16,3.88c-.56,1.91-.3,2.83,1.58,3.92,3.57,2.08,3.52,3.52,1.51,7.46a2.76,2.76,0,0,0,1.54,3.81c2.62,1.28,6.63,2,4.11,6.9-.62,1.21,1.39,1.25,2.52.76h0c1,2.68,3.9,4.61,3,8A.78.78,0,0,1,110.7,320.12Z" style="fill:#f8f8f8"/><path d="M94.24,308.55a64.86,64.86,0,0,1,7.79,11.3c4.37,8.11,12,12.68,19.16,17.79.5.52.45,1-.15,1.35-4.26.74-8-1.48-12.09-2-2-.24-1.29-1.67-1.4-2.59-.68-5.47-1-5.75-6.07-5-.87.13-1-.34-1.43-.9a20.64,20.64,0,0,0-2.84-3.34c-2-1.78-4.67-2.95-2.5-6.56C96.67,315.39,92.62,312,94.24,308.55Z" style="fill:#faf9f9"/><path d="M548.93,281c0-.38,0-.75,0-1.13-.08-.87.45-1.32,1.14-1.67,6.47-1.2,12.93-4.21,19.25.43,1.09-2.31.29-3.72-.51-5.13-1.83-2.48-4.49-3-7.3-3.18-2.08-.14-4.24.29-6.19-.85l-.46-.58c1.34-2,2.91-4.86,4.34-5.69,3.21-1.86,7.17-.41,9.74,2.48a50.76,50.76,0,0,0,5.81,6c1.69,1.37,2,3.86,1.29,6.25-.7,2.2-1.9,3.48-4.37,3.3-.62-.05-1.48.62-1.88.38-6.7-4.05-13.38-.29-20.06-.05C549.45,281.59,549.19,281.2,548.93,281Z" style="fill:#fbfafa"/><path d="M195.2,312.6l.14-.35-.27-.26a7.44,7.44,0,0,1-.17-6c.91-4.65.47-9.32.23-14-1-4.67,1.55-7.74,4.74-10.52a1.87,1.87,0,0,1,1.36.59c-3.48,7.8-2.87,16.21-3.31,24.41a15.82,15.82,0,0,0,7.14,14.45c3.23.15,6.12,1.1,8.16,3.78,1,1.3,2.42,1.56,3.85,1.9a3.7,3.7,0,0,1,1.67,2.2,2.59,2.59,0,0,0,1.49,1.82c1.27.48,3.38.52,2.66,2.72-.64,2-2.39,2.6-4.4,2.54-2.63-.08-4.42-2.26-6.9-2.69C202.21,329.46,198.48,321.21,195.2,312.6Z" style="fill:#110d0e"/><path d="M109.87,209.92c3.7-4.9,7.55-9.33,13-12.83,5.2-3.35,11-4.89,16.16-8.08,2.4-2.86,5.56-3.4,9-3,9.16-.71,18.21-.89,27,2.74,3.21,1.33,8.82-2.55,9.89-6.41a10.77,10.77,0,0,1,1.92-4.47l.59.57c-.14,1.84.72,3.8-.62,5.51l.07-.1c-4.07,7.27-8.3,8.89-15.81,6a40.34,40.34,0,0,0-27.12-.09c-3.46,2.38-7.72,3-11.32,5.06l-.36-.1-.23.29c-5.65,4.06-12,7.17-17.18,11.82l.06,0c-1.51,1.62-2.22,4.15-5,4.35a1,1,0,0,1-.27-.83C109.75,210.07,109.8,209.92,109.87,209.92Z" style="fill:#100f0f"/><path d="M294.87,331.71a3.77,3.77,0,0,0,4.23,2.34c1.73-.19-.75-2.05.27-3,2.46.39.95,3.17,2.64,3.9.06.18.13.35.2.52,0,.34-.85,1.35.49.59a4,4,0,0,1,1.31-.45,2.07,2.07,0,0,1,1.3.55c1.12,1.66.85,3.44.51,5.24-1,3.9.15,8.13-1.84,11.88-1.38,2.72.43,6.18-2,8.66a5.55,5.55,0,0,1-.9.3c-1.81-3.69-4.51-7-2.9-11.75.79-2.36,3.78,0,3.81-2.54,1.43-2.11,2-4.91-.46-5.8-1.84-.67-3.76,2-5.57,3.37s-3.07,5.86-7,2.91c.69-1,2.89-.09,2.8-1.92-.1-2-1.65-.79-2.61-1a1.45,1.45,0,0,1-1-2.28c2.17-2-.28-3.57-.21-5.32,2.19-.73,3.15,1.46,4.79,2,1,.37,2.1,1.41,3.1.24.78-.91-.07-1.8-.55-2.64C294.27,335.72,291.45,334,294.87,331.71Z" style="fill:#faf9f8"/><path d="M523.12,292.37c-3.63-6-3.34-12.67-1.79-19,.73-2.93,1.4-5-1-7,1.26-1.64,3,1,3.17-.38.67-5,3.5-.81,5.17-1.28.85-.25,2.51,1.61,1.85,2.36-2.55,2.86.52,4.31,1.1,6.41,1,3.66,3,2.42,5.09,1.37l.43.6c-.54,2.68-2.62,4.06-4.64,5.49-5.08,2.09-4.42-2.28-5.42-4.8-.52-.94-.06-2.37-2.26-3.18.15,5.12.54,10,.16,14.76C524.87,289.5,525.52,291.56,523.12,292.37Z" style="fill:#fbfafa"/><path d="M475.75,316.05,478,318c.34.66.67,1.33,1,2,1.11.88.79,3.2,3,3-1.05,4.39,0,7.77,4.55,9.49.29.11.45.51.73.66,2.51,1.36,3.68-4.79,5.89-1.46,1.32,2,1.88,4.06,4.67,4.07.14,0,.28-.15.42-.23,1.41-1.89-3-1.23-1.37-3.1a2.1,2.1,0,0,1,1.84-.18c1.68.61,1.29,2.12,1.14,3.38-.35,2.92-1.87,5.43.2,8.8,1.71,2.77-1.52,4.23-6.41,2.39-1.15-1.56-.69-3.45-1.09-5.16-.48-2.07-.86-4.29-3.78-4.17-3.05-1.71-6.27-3.2-8.32-6.26a20.6,20.6,0,0,0-4.12-6.39,14.17,14.17,0,0,1-1.53-5.05A4.73,4.73,0,0,1,475.75,316.05Z" style="fill:#faf9f9"/><path d="M329,330.85c-2,2.75-3.52,6-8.19,4.4-2.33-.83-2.31,2.86-4.67,3.66-2.55.86-2.7,5.31-6,6.45-.13,0-.88,2.38.65,2.63,4.55.75,4.9,4.73,4.08,7.29-1.49,4.69-5,1.56-7.74.7-1.27-1-1.2-2.38-1-3.78.67-2.85,1.6-5.64,1.7-8.62.11-3.26,2.52-5.17,4.49-7.32C317,331.8,322.47,329.8,329,330.85Z" style="fill:#f9f9f7"/><path d="M97.07,238,97,235.77a2,2,0,0,1,.24-2.67l1.14-3c1.82-3.67,5.4-6.39,5.83-10.81,1.78-2.54,1.77-6.24,5-7.82a1.26,1.26,0,0,1,1,.81c.57,3.34-.73,6.44-1.55,9.5-.7,2.56-.94,6.58-5.57,5.26-1.37-.39-1.37.69-1.54,1.28-.41,1.43.67,1.69,1.73,1.65,3.7-.14,5.5-2.61,6.7-5.69.45-1.15-.46-2.66.84-3.7,1.4,8.12-.22,10.12-8.61,10.56-1.24.07-2.48,0-2.58,1.57,0,.83-.45,1.92,1,2.38,2.71.83,2.89,2.34.24,3.41-2,.79-.86,4.21-3.86,3.87C95.58,241,98.88,239.42,97.07,238Z" style="fill:#f9f9f9"/><path d="M445,341c-1.72,2.31-4.85,3.07-6,6.27-.69,1.88-3.25,0-4.06-.59-3.25-2.53-5.8.12-8.53.74-1.63.37-11,0-11.95-1.18-1.5-1.93-.4-4.13-.46-6.21a2,2,0,0,1,1.27-.56c2.17.33,3.54,2.4,5.76,2.62,5.51.95,10.43-1.91,15.71-2.4C439.5,339.84,442.48,338.85,445,341Z" style="fill:#faf9f9"/><path d="M294.87,331.71c-2.05,2-.25,3.27,1,4.45,1.89,1.77,3.05,4,1.37,6-1.84,2.23-3.33-.85-5.06-1.26-4-3.55-5.43-8.27-6-13.36l.14-.31-.22-.28c.41-4.73-1.83-9.6.79-14.21,1.72,1.33,1.46,3.28,1.41,5a39.59,39.59,0,0,0,2.31,14.12c-.3-6.12-1.42-11.35-.67-16.6.39-2.74.42-5.79,3.88-6.85a2.14,2.14,0,0,1,1.34.55C291.48,316.55,292.14,324.12,294.87,331.71Z" style="fill:#423c39"/><path d="M491,269.9c-.25-2.81-4.89-4.13-2.32-8.14.16,3.33,1.2,5.2,4.78,3.67,1.46-.63,2.74,1,4.16,1.29s3.23.79,3.67-1.22c.21-1-1.41-2.26,1-2.73,2.68-.51,1,2.56,2.66,2.72,2.06-.22-1.15-3.37,1.44-3,1.56.22,1.66,1.77,1.3,3.25a2.12,2.12,0,0,0,.41,1.77c3,2.55,1.69,6.29,3.09,9.25-2.37-3.8-4.14,1.06-6.06.26-2-1.57-1.06-5.24-4.28-5.91a8.29,8.29,0,0,1-1.12-.64,4.67,4.67,0,0,0-4.6-1c-.39.14-.79.25-1.18.38C492.93,270.05,492,270.71,491,269.9Z" style="fill:#fbfafa"/><path d="M311,282l-6.2,6.79c-1.68-2.9-1.59-6.47-3.5-9.28-1.55-3.12-4.52-5.19-6.08-8.32-.73-1.47-2.11-1.27-3.45-.81-1.57.54-3.16,1-4.71-.1A1.13,1.13,0,0,1,287,269c2.09.39,3.43-1.08,5-2,1-1.51,2-1.49,3.05,0,1.7.13,2.42,1.17,3.08,2.7,1.09,2.52,2.22,5,6.14,3.39,1.42-.59,3.71.73,5.53,1.37.42.15.57,1.08.85,1.64-4.6.13.84,6.37-3.89,6.53Z" style="fill:#f9f8f8"/><path d="M195.2,312.6c3.09,4.92,6.09,9.89,9.29,14.74a12.39,12.39,0,0,0,7.1,4.84c3.56,3.15,8.06,3.14,12.4,3.65-1.19,2.92-4.2.82-6,2.15h-1c-.63,0-.72-.6-1.05-.93-2,.28-4.24-4.43-6.16.55-.27.71-1.09-3.22-3.3-3.23.37-5.95-2-.9-3.68-.37.91-4.82-.62-7.8-5.19-9.19-.81-.25-5.24-1.9-1.06-4.62,1.07-.69-.06-2.16-.57-3.14C195.28,315.63,193.89,314.38,195.2,312.6Z" style="fill:#f7f6f7"/><path d="M536.73,274.9c.28-1-2.28-1.58-.12-3.12,1.92-1.36,5.33-2.47,3.52-6.3-.32-.68.78-1.28,1.68-1.44,3.46-.62,6.87-1.19,10.14.89.82.52,1.22.28.46,1.43-2.58,3.85,1.09,2.15,2.41,2.53l.21.26c-.58,2.52-2.73,2-4.39,2.11a13.46,13.46,0,0,0-5.74,1.26c-2,.78-3.67,2.22-5.69,3a2.46,2.46,0,0,1-2.06-.26A2.06,2.06,0,0,0,536.73,274.9Z" style="fill:#fbfafa"/><path d="M162.08,149.94c-4.45-3.05-8.36-3.75-14-1-5.19,2.51-11,4-16.1,7.08-4.09,3.31-7.91,7-12.29,9.91L118.06,167a2.38,2.38,0,0,1-2.83.38c9-9.4,19.19-16.69,32.14-19.72,3.55-.83,6.62-4.17,10.68-1.69a5.16,5.16,0,0,1,4,1.06c1.73,1.75,5,1.27,6,4.07C165.67,152.69,164,150.9,162.08,149.94Z" style="fill:#f3f3f2"/><path d="M479,276c4.34.07,3.11-3.8,4.4-6.12,1.85-.26,2.5,2.46,4.48,2.12.69,3.58-3.55,4.51-4,7.47-2.48,3.59-4.6,7.41-6.91,11.11-1.14,1.08-1.85,2.79-3.83,2.67-.77-3.08,1.83-6.37-.69-9.44-.47-.56.62-2.44,1.3-2.33C478.33,282.27,477.92,278.49,479,276Z" style="fill:#fbfafa"/><path d="M87.06,227c.71,3.29-.73,6.28-1.78,9.13-1.72,4.69-1.23,9.4-1.18,14.13a218.38,218.38,0,0,0,2.4,28c.45,3.21-.26,6.5.72,9.67-2.27-.52-3.09-1.05-2.57-4.13.73-4.39-.11-9.1-.68-13.63a137.18,137.18,0,0,1,.1-35.47C84.44,231.91,85,229.14,87.06,227Z" style="fill:#f6f5f5"/><path d="M249,282c-.63-5.61,2.16-10.45,3.37-15.65.65-2.79,1.77-2.1,3.75-1.95,2.91.22,5.79,3.7,9,0,1-1.19,11,2.82,12,4.4l-.51.56c-6-1-12.09.32-18.05-.79-2.6-.48-3.62.53-4.16,2.85-.76,3.34-.45,6.95-2.5,10A2.7,2.7,0,0,1,249,282Z" style="fill:#f9f9f9"/><path d="M307,351.89c0,1.36.09,2.73.14,4.09-.23,9.67-.36,19.33-.74,29-.12,3,.5,6.22-1.43,9a.84.84,0,0,1-1.19-.09c-1.39-4.4.54-8.8,0-13.19-.18-1.49.8-3.4-1.38-4.26a1.88,1.88,0,0,1-1-.89,2.34,2.34,0,0,1,.51-2.56c.06-1.66.13-3.33.19-5a2,2,0,0,1-.06-3c0-1-.05-2-.07-3,.81-3-.66-6.15,1-9l.56.54A3.38,3.38,0,0,1,304,355c-.06,2.74.51,5.47.32,8.21.11,1.47-.15,3,.78,4.28a11,11,0,0,1-.4-3.49c0-1.4,0-2.81-.1-4.21-.15-3.23-1.92-6.87,2.27-9,.34.23.47.47.39.73S307.08,351.89,307,351.89Z" style="fill:#38352f"/><path d="M162.08,149.94c2.11-.22,3.79,1.7,6,1.18l.94.11A32.63,32.63,0,0,1,177,156l.22.33.38-.08c2.81,1,4,3.56,5.38,5.87l0,0c3.8,1.39,4.37,4.75,4.94,8.11l-.06-.06c1,1.68,1,3.68,1.5,5.52.39,1.44.31,3.1-2.07,2.67l-.45-.42c-.19-13.77-9.67-19.9-20.51-24.89C164.71,152.23,162.81,151.94,162.08,149.94Z" style="fill:#100f0f"/><path d="M483,298.89c6.45.24,12.61,2.87,19.19,2.13,3.6-.41,7.27.42,10.87-.83a3.46,3.46,0,0,1,4.58,1.93c.47,1.48,3.54,3.09.45,5l-.65-.17c-1.34-.81-1.5-2.79-3.22-3.22-5.27-.91-10.44.7-15.68.51-2.12-.08-4.26.27-6.35-.39-3.05-2.47-7.81-1.05-10.43-4.54A.76.76,0,0,1,483,298.89Z" style="fill:#f4f2f1"/><path d="M169.05,349l3-2.16c5,1.15,7-2.33,8.93-5.86l1.08-1c1.77-1.4,3.16-2.8-.07-4.12h0a3.45,3.45,0,0,1-3.72.49c-1-3.06,2.29-1,2.78-2.35,1.83-1.49,3.18-.57,3.91,1.12,1,2.24,2.69,4.16,2.82,6.75-1.19,2.37-3.73,2.25-5.75,3.11l-1.95,2a2.66,2.66,0,0,1-2.14,1.81H178A15.44,15.44,0,0,1,169.05,349Z" style="fill:#958f8e"/><path d="M301.94,373l.09,3c2.06,2.71,1.17,5.8,1.13,8.78a10.28,10.28,0,0,1-.32,1.56c-1,2.67,0,5.74-1.64,8.28-1.53,1.56-.08,4.82-3.13,5.51-.83-8.15,2.61-16,1.62-24.21l-2.88,2C297.9,374.7,298.15,372,301.94,373Z" style="fill:#faf9f8"/><path d="M314.08,288.18c-1.2-1.91.83-4.39-1.08-6.18.95-3.37-.36-7.13,3.33-10.16,1.32-1.09,1.13-2.22,3.31-1.36,1.33.52,2.27-1.54,3.36-2.47h0l.88,0a1.8,1.8,0,0,1,.69,1.14,3.26,3.26,0,0,1-.29,1.34c-1.83,2.57-4.51,4.45-6,7.32a6,6,0,0,0-1.51,5.79C317.2,285.64,317.13,287.91,314.08,288.18Z" style="fill:#f9f8f8"/><path d="M104,183c-4,7.61-8.38,15.08-10.82,23.43-.84-10.62,5.05-18.5,10.73-26.48a2,2,0,0,1,.77,1.13A2.52,2.52,0,0,1,104,183Z" style="fill:#f6f7f5"/><path d="M445,341l-9.08,0c.38-2.6,2.61-1.87,4.19-2.29,2.94-.79,6.28-.25,8.69-2.71a48.16,48.16,0,0,0,3.48-3.52A5.18,5.18,0,0,1,455,330.3,2.09,2.09,0,0,1,457,331c2.6,2.58.94,4.38-1.22,5.89C452.51,339.16,448.57,339.65,445,341Z" style="fill:#f7f5f1"/><path d="M371,324.13l-.89-2.14c-.75-1.12-1.93-2.06-1.49-3.67a1.3,1.3,0,0,1,1.13-.64c1.94.47,3,2,4,3.5,4.53,6.89,7.64,7.9,15.23,5,.92-.35,1.84-.89,2.65.2a5.58,5.58,0,0,1,.43,3.87,4.51,4.51,0,0,1-.67,1.54c-4.17.69-8.33,1.44-12.23-1l.09,0C376.32,328.73,373.08,327.11,371,324.13Z" style="fill:#1e1a17"/><path d="M287,269l.05,1.17a3.29,3.29,0,0,1-3.65,3.65A6.22,6.22,0,0,1,277,269l.16-.2c2.66-.38,4.21-2.47,5.95-4.14,1.22-1.16,2.27-2.24,4.32-2.27C287.07,264.68,284.24,266.76,287,269Z" style="fill:#f9f9f9"/><path d="M169.05,349l8.93-.16c-2.09,2.75-5.77-.3-7.94,2.15-1.39,1.7-3.39.38-5,1l-1,.08c-.77,1.06-2.12.21-3,.93l-1,.08c-3.28,1.95-6.17.53-9-1.06l-3-1a2.22,2.22,0,0,1-3-.07c-1-2.06-4.94.46-4.88-3.18a45,45,0,0,1,5.82,1.15C153.7,351.5,161.36,352.35,169.05,349Z" style="fill:#f2f2f2"/><path d="M199.9,282c-3.39,2.49-3.59,6.51-4.77,10.06-4.6-4.53-5.21-6-4.57-11.45,2,0,2.09,1.72,2.38,3,.23,1,.13,1.82,1.59,1.88a1.69,1.69,0,0,0,1.93-2.16c-.61-3.05,1.91-3.83,3.47-5.32a2.24,2.24,0,0,1,.89,1.22A2.6,2.6,0,0,1,199.9,282Z" style="fill:#f9f8f9"/><path d="M199.9,282l.24-2.69c.79-1.34,1.16-2.89,2.07-4.18l0,.08a8.08,8.08,0,0,1,3.64-5.2c.4-.39.79-.78,1.18-1.18a13.81,13.81,0,0,1,4.23-3.64l-.05.05c1.73-3.14,4.25-2.75,6.94-1.55.62,2.37,3.95,2.7,4.07,5.44a2.4,2.4,0,0,1-2,.54c-2.25-.17-3.75-3.5-6.2-2-3.32,2.07-6.62,4.33-8.59,7.93-1.25,2.28-2,4.91-4.37,6.4Z" style="fill:#1a1718"/><path d="M183,162.08c-2.32-1.47-4.59-3-5.38-5.87,1.38-.83,2.53-3.08,4.42-.66.85,1.08,1.93.88,3.15.64s2.75-.6,3.53.92a2.54,2.54,0,0,1-.34,2.81c-1,1.26-2.18,1.24-3.5.41C182.22,158.65,183.41,161.24,183,162.08Z" style="fill:#fafafa"/><path d="M523.12,292.37a43.54,43.54,0,0,0,.43-15.93c-.34-2.15-.83-4.94,2-5.19,2.63-.23,2.26,2.66,2.54,4.54a3.11,3.11,0,0,1,.16,2.08c-.42.83-2.69-.75-2,1.51,1.21,3.9,0,7.76-.18,11.64a6.33,6.33,0,0,1-1.87,4,1.22,1.22,0,0,1-1.43-.12C522.91,294.08,523,293.22,523.12,292.37Z" style="fill:#46453c"/><path d="M114.88,206.89c4.12-6.27,10.4-9.4,17.18-11.82-1.68,3.05-5.46,4.34-6.57,8-.22.73-2.81-2.44-4.42-.08a5.81,5.81,0,0,1-4,4Z" style="fill:#f7f7f6"/><path d="M329,330.85c-5.49,1.62-11.64,1.53-16,6.12a.74.74,0,0,1-1.18-.06c.22-5.55,4.58-5.81,8.46-6.37,1.48-.22,2.17-.35,1.61-1.94.65-1.07,1.78-2.08,2.8-1.76,3.39,1.05,6.92-.47,10.24.82A.87.87,0,0,1,335,329Z" style="fill:#2f2b25"/><path d="M165.05,352c1.4-1.64,3.31-.75,5-1a5.91,5.91,0,0,1,.27,5.7c-.9,2.19-1.49,3.52-3.21.54-.22-.36-2.26-2.88-2.36.54a1,1,0,0,1-1.74.86,5,5,0,0,1-1.41-2.47c-.22-.77.53-1.11,1.24-1.11,2.11,0,4.16-1,6.94.4C168.6,352.45,166.27,353.08,165.05,352Z" style="fill:#fbf9fa"/><path d="M221.94,269c-.87-2.09-3.94-2.27-4.22-4.87A1.58,1.58,0,0,1,220,264c.1.84.36,2,1.17,1.94,6.22-.23,7.61,4.86,10,8.87l-.45.55a2.48,2.48,0,0,1-2,0c-2.07-1.45-3.86-3.29-6.09-4.53A1.62,1.62,0,0,1,221.94,269Z" style="fill:#f3f2f1"/><path d="M379.08,330.8c4-.13,7.94,1.4,12,.28A1.26,1.26,0,0,1,393,331c-2.16,5-7.07,2.21-10.55,3.52-.86.32-2.31.17-3.32,1.18C378,333.72,380.46,332.29,379.08,330.8Z" style="fill:#f8f7f7"/><path d="M256.27,302.09q-.52,14.55-1,29.08l-.83-.31c-2.29-2.35-2.64-5.41-2.22-8.31a111.63,111.63,0,0,0,1.52-16.72c0-1.56,0-3.42,2.13-4Z" style="fill:#f2f1f1"/><path d="M386,268c-2.41,2.2-4.76-2.24-7.17-.07-.68-1.57.06-2.35,1.51-2.74l1.57-.06-.08.08c1.72.76,2.91-.28,4.12-1.22,4.8-1.38,7.25,2.21,10.18,4.8l-.42.55C392.31,270,389.58,265.8,386,268Z" style="fill:#262220"/><path d="M303.93,393.86l1,.09a57.08,57.08,0,0,0-.71,16.14c.17,1.68,1.11,3.65-1.2,4.75a7.5,7.5,0,0,1-4.51-4.09,8.71,8.71,0,0,1,.21-2.79,1.93,1.93,0,0,1,1.26-.37c1.86.27,1.64-1.13,1.68-2.19.12-2.44-.11-4.89.12-7.32C302,396.48,301.34,394.31,303.93,393.86Z" style="fill:#43413f"/><path d="M353,261.1c1.35,2.31,4,3.87,4,7a1.68,1.68,0,0,1-1.14.5,2.22,2.22,0,0,1-1.12-.54c-.8-1.16-1.15-2.63-2.42-3.47-.7-.5-1.42-1-2.13-1.43-4.82-2.05-9.49.71-14.24.44a5.8,5.8,0,0,1-1.49.15c-.8-.13-1.51-.34-1.64-1.3,2-3.75,5.88-.8,8.54-2.28C345.14,260.82,349.23,258.82,353,261.1Z" style="fill:#8a8585"/><path d="M93.32,305.91a1.55,1.55,0,0,1,.83,2.09c-7.92-2.76-8.48-4-5.09-11,3.06.59,2.29,3.51,3.1,5.39C92.63,303.48,91.88,305.05,93.32,305.91Z" style="fill:#f7f6f6"/><path d="M171.09,189.91c6.64,1.58,12-.21,15.81-6,.56,4.81-3.44,6.46-6.49,7.6C177.58,192.53,173.61,193.75,171.09,189.91Z" style="fill:#efedee"/><path d="M151,352l9,1.06c-.4,2-1.63,2.62-3.57,2.16-1-.24-2.09-.43-1.68,1.26s-.09,2.12-1.74,1.6c-1.21-.38-2.45-.8-1.26-2.23C153.29,354.09,150.65,353.41,151,352Z" style="fill:#fbf9fa"/><path d="M335,329l-.1-1c-.27-2,1.22-2.52,2.61-3.13,2.46-.61,4.13-2.52,6.17-3.82,1.33-.84,2.5-2.29,4.34-1.11C345.66,325.84,340.51,327.69,335,329Z" style="fill:#f2f1f0"/><path d="M269.13,300.23c1.05-1.74.86-4.12,2.76-5.43,2.08,2.3.47,4.69.06,7-.71,4-1.25,7.86,2.28,10.93a2.45,2.45,0,0,1,0,2.35c-1.8,1.3-3.11.55-4.25-1L268.92,312a28.77,28.77,0,0,1,.11-11A.48.48,0,0,0,269.13,300.23Z" style="fill:#3a2f30"/><path d="M104,183l.08-1.85A19.15,19.15,0,0,1,110,173l0-.06a12.28,12.28,0,0,1,4.82-4.9.45.45,0,0,0,.41-.62l2.83-.38Z" style="fill:#181818"/><path d="M157.3,343.09c-7-.12-13.72-1.19-19.28-6Z" style="fill:#ececeb"/><path d="M348,319.92c-3.93,1-5.92,5.23-10,6,1-5.36,6.26-6.69,9.48-9.93,1.36-1.38,3-3.33,5.55-2.18.5,2.8-1.13,4.14-3.44,5Z" style="fill:#2a2322"/><path d="M110.7,320.12l1.37-.15c1.85,1.49,2.72,3.95,5,5h0c1.8,2.61,5.69,2.85,6.94,6.1C118.59,328.61,113.28,326,110.7,320.12Z" style="fill:#f4f4f5"/><path d="M492,280.22c-2.87,4.62-5.37,9.53-9.85,12.93l-.52-.47c.41-4.91,4.15-8,6.56-11.76.67-.95,1.23-2,2.56-2.2A1.61,1.61,0,0,1,492,280.22Z" style="fill:#f5f5f3"/><path d="M187.94,170.17c-1.6-2.73-2.71-5.76-4.94-8.11,2.28-.8,4,2.23,6.39.86.75,1.48,1.67,3.08.4,4.58C189.07,168.35,188,168.9,187.94,170.17Z" style="fill:#fafafa"/><path d="M368.74,318.22l1.32,3.77c-5.54-1.83-4.86-6.67-5.3-11,.82-2.6-.94-5.63,1.31-8,.32.58.82,1.22.7,1.83C365.81,309.56,367.13,313.9,368.74,318.22Z" style="fill:#f4f3f2"/><path d="M93.32,305.91c-2.28-.45-1.71-2.16-1.89-3.76-.22-1.87-.65-3.87-2.37-5.15-.72-2.14-.57-4.72-3-6h0l1.13-3.15C89.37,293.82,93,299.29,93.32,305.91Z" style="fill:#f6f5f5"/><path d="M450.48,349c-1.55,0-3.23-.24-3.15-2.2a3,3,0,0,1,2.7-3.06c2.19-.09,2.37,2,2.69,3.45S451.69,348.92,450.48,349Z" style="fill:#faf9f9"/><path d="M488.68,336.7c2.55-1.8,3.35.29,4.33,2,1.54,2.61,1.24,5.37.6,8.15H491c-2-.2-2.56-1.8-3.34-3.22a1.21,1.21,0,0,1,.66-1.08c3.25,0,3.49-1.44,1.78-3.78C489.57,338.1,488.83,337.61,488.68,336.7Z" style="fill:#62605e"/><path d="M182,345c1.25-2.27,3.83-2.09,5.75-3.11,1.91.61,1.79,1.87,1.34,3.5-.63,2.24-2.12.58-3.11.92C184.19,346.89,183.28,345.52,182,345Z" style="fill:#f8f5f5"/><path d="M492,280.22c-.46-.12-1.09,0-1-.8-.86-.81-.63-1.63,0-2.46,2.19-.49,3.74-2,5.24-3.51,2-.71,3.8-.57,5,1.51a1.27,1.27,0,0,1-.38,1.3C497.36,276.57,494.86,278.83,492,280.22Z" style="fill:#7d7a74"/><path d="M527.84,323c-1.33-.51-1.5-1.56-1.4-2.82.34-4.19-.83-7.74-4.49-10.18l1.11-1.3c3.61.48,4.77,3.29,5.91,6.15C529.2,317.64,530.13,320.54,527.84,323Z" style="fill:#f4f2f1"/><path d="M429,282c.33,1.67-.67,3.6,1,5,2.41,3.49,7,2.68,10,5.05-1.3,1.34-3,1.21-4.61,1.23a6.7,6.7,0,0,1-3.8-1.16c-1.56-1.36-3.44-2.43-4.34-4.45a6.45,6.45,0,0,1,.34-5.46A1,1,0,0,1,429,282Z" style="fill:#e8e6e6"/><path d="M462.92,314.9c0,1.7.07,3.41.11,5.12q0,3,0,6c.64,1.33.16,2.67,0,4-1.8.14-3.42,1.43-5.34.82-.07-1.91,1.32-3.21,2-4.8,1.4-2.11.76-4.52,1.05-6.79C460.9,317.54,460.3,315.35,462.92,314.9Z" style="fill:#f7f5f1"/><path d="M414.85,340H414c-5.8.33-4-3.88-4.1-6.9l.21-.19c1.66-.47,2.5.77,3.51,1.67a7.38,7.38,0,0,1,2,4.31A1.62,1.62,0,0,1,414.85,340Z" style="fill:#faf9f7"/><path d="M487.81,343.14l3.2,3.68c-3.21,2-3.09,2-3.54-.68-.28-1.65-2-1.48-3.17-1.63-3.9-.48-.39-1.72-.32-2.59A3,3,0,0,1,487.81,343.14Z" style="fill:#f7f6f6"/><path d="M435,292l5,.08a.45.45,0,0,0,.74.08c3.33,1.74,7.44,1.28,10.52,3.72-1.31,1.6-3.05,1.39-4.8,1.15-2.65-.83-5.37-1.47-8-2.34C437,294.2,434.94,294.36,435,292Z" style="fill:#2e2827"/><path d="M127.05,342.05c4.33,2.07,9.58,2.05,13.2,5.77-3.8-1-7.61-2-11.39-3.09A2.63,2.63,0,0,1,127.05,342.05Z" style="fill:#f2f2f2"/><path d="M238,286c1.1,2.76,5.09,3.6,4.85,7.26a2.93,2.93,0,0,1-2.35-.85,18.3,18.3,0,0,1-1.46-1.32,62.74,62.74,0,0,1-5.71-6.47,3.85,3.85,0,0,1-.66-2.64,2.14,2.14,0,0,1,1.5-1.35L236.1,283C237.31,283.62,237.58,284.86,238,286Z" style="fill:#e3e1e2"/><path d="M483.08,279c.11-3.34,4.25-3.95,4.75-7a5.53,5.53,0,0,1,3.12-2.1l3-.94C492,274.08,487.91,277,483.08,279Z" style="fill:#34312a"/><path d="M472.94,328c0-1,0-1.94,0-2.91,3.82-1.12,2.78,2.16,3.5,3.85-.73,2.58,2.09,4.22,1.8,6.69l-.43.49C474.48,334.43,472.65,331.85,472.94,328Z" style="fill:#f6f4f2"/><path d="M132.65,194.88A20.32,20.32,0,0,1,144,189.82c-.7,4-5.06,2.49-7.16,4.59C136,195.18,134.07,194.76,132.65,194.88Z" style="fill:#f7f7f6"/><path d="M137.05,336.92c-4.72-1.15-9.3-2.65-13.12-5.84C128.63,332.3,133.55,333,137.05,336.92Z" style="fill:#ececeb"/><path d="M527.86,314.16a13.78,13.78,0,0,0-4.8-5.47c-1.92-1.93-.28-4.58-1.35-6.68a1.09,1.09,0,0,1,.23-1.22l.67-.12.61.29a4.36,4.36,0,0,1,.74,1.12c1,2.15.88,4.75,2.77,6.52a6.64,6.64,0,0,1,2,3.65A2.22,2.22,0,0,1,527.86,314.16Z" style="fill:#474441"/><path d="M114.82,168a15.45,15.45,0,0,1-4.82,4.9,7.71,7.71,0,0,0,0-1C109.48,166.18,109.48,166.18,114.82,168Z" style="fill:#f4f4f4"/><path d="M110.09,211.1c1.77-1.25,2.18-4,4.85-4.26.77,3.85.18,6.52-4.72,5.45L110,212c-.23-.21-.3-.42-.2-.61S110,211.1,110.09,211.1Z" style="fill:#f9f9f9"/><path d="M286.15,327.57c1.81,4.54,3,9.38,6,13.36L288,338C287.73,334.45,284.47,331.46,286.15,327.57Z" style="fill:#f9f8f7"/><path d="M177,156c-3.47-.24-5.76-2.49-8.06-4.73C172.93,150.65,175.51,152.42,177,156Z" style="fill:#fafafa"/><path d="M178.23,336.14l3.73-.3c-4.13,2.52-7.76,6.11-13.08,6.05,2.14-2,5.45-2.13,7.29-4.6C176.51,336.28,177.4,336.25,178.23,336.14Z" style="fill:#2d2526"/><path d="M110,173l-5.84,8.19c0-.4-.11-.8-.17-1.2-.13-2.37,3-3.38,2.08-6.64C105.44,171.3,108.56,173.35,110,173Z" style="fill:#f4f4f4"/><path d="M349.59,318.83c1.07-1.62,2.15-3.23,3.22-4.84a2.2,2.2,0,0,1,.28-2.63c1.34-1.05,1.43-3.62,3.92-3.28,0,1,0,1.94,0,2.92a2.16,2.16,0,0,0-1,2c-1,2.23-1.95,4.47-4,6Z" style="fill:#f2f1f0"/><path d="M536,333c3,2.07,1.25,5.38,2.06,8-1.67,3.18-3.19.55-4.76-.12l-.45-1.82C537.05,338.67,533.93,334.48,536,333Z" style="fill:#8c8986"/><path d="M323,268c-2.25,0-4.7.47-6.24-1.86-1.05-1.6-.15-2.7,1.83-4.36-2.2,5.53,4.19,3,4.41,6.21Z" style="fill:#f9f8f8"/><path d="M485.14,261.35c.63,2.74-.64,4.81,1.85,6.24-2.35.4-4,1-4.75-.77C481.25,264.31,483.91,263.76,485.14,261.35Z" style="fill:#fbfafa"/><path d="M187.31,178.3c3.21-2.52-.34-5.51.57-8.19,4.21,5,1.31,9.38-1,13.85Z" style="fill:#efedee"/><path d="M245,299c.93.25,2,.79,2-.94,0-2-.12-3.92-.19-5.88l.66-.39c2.23,1.14,2.29,3.2,2.28,5.29-.27,1.29-.37,2.6-.66,3.88-.56,2.39-1.92,2.86-4,1.57a2.59,2.59,0,0,1-.79-1.34A2.46,2.46,0,0,1,245,299Z" style="fill:#e3e1e2"/><path d="M299.2,407.9l-.29,3.16c-.4.35-.68.25-.84-.24V400.1c1.55-1.66-.26-4.53,2.11-5.9a4.28,4.28,0,0,1,1.06,2.94,15.46,15.46,0,0,1-.35,4C300,403.29,300.84,405.9,299.2,407.9Z" style="fill:#8f8e8d"/><path d="M432,262.92a6,6,0,0,0-.08-.94c2.62-4.66,7.2-2.47,11-3.12l.25.31C440.18,262.83,435.9,262.4,432,262.92Z" style="fill:#faf9f8"/><path d="M220,264l-2.32.13c-2.45-1.31-4.5-.14-6.55,1.05C212.1,261.12,215.41,260.68,220,264Z" style="fill:#f5f3f3"/><path d="M500.91,270c4.29.59,4.41,3.68,4.19,7-1.73,1.36-3,.08-4.36-.75l.51-.64c1.46-1.56-.07-2.53-.72-3.69A1.78,1.78,0,0,1,500.91,270Z" style="fill:#7d7a74"/><path d="M298.07,410.82a3.1,3.1,0,0,0,.84.24l4.13,3.78c-2.29,2.08-2.27,2.08-2.85-.28C299.84,413.12,297.77,412.64,298.07,410.82Z" style="fill:#f5f4f3"/><path d="M371,324.13c3.26,1.6,5.7,4.19,8.22,6.69C375.74,329.45,372.09,328.34,371,324.13Z" style="fill:#f4f3f2"/><path d="M341.27,260.14c-2.45,1.91-6.57-1.15-8.32,2.81a1.8,1.8,0,0,1-2.52,1.38l-.38-.54C332.52,258.68,337.11,260.06,341.27,260.14Z" style="fill:#efeded"/><path d="M249,282l2.05-1c.67,4.31-1.39,7.65-3.86,10.83l-.43.33C245.53,288.35,248.38,285.43,249,282Z" style="fill:#e3e1e2"/><path d="M464.67,297.63c1.84-3.24,4-4.59,6.29-6.14C470.12,294.77,470.12,294.77,464.67,297.63Z" style="fill:#faf9f8"/><path d="M117.06,207a10.15,10.15,0,0,1,4-4c1.79,1.33-.37,2.66,0,4h0C119.73,206.67,118.39,208.82,117.06,207Z" style="fill:#f9f9f9"/><path d="M460.7,274.31c1.26.29,2,.77,1.58,1.76s.17,2.71-1.85,2.14c-.73-.21-2.14-.24-1.88-1.1C458.89,276,460,275.13,460.7,274.31Z" style="fill:#faf9f8"/><path d="M352,319c.33-2.67,2.62-4,4-6C355.12,315.31,357.16,319.56,352,319Z" style="fill:#fbfaf9"/><path d="M520,337.34c2.42.34,4.41.62,4.83-2.3,1.49,1.95,1.29,3.45.12,4C523.48,339.81,521.85,339.12,520,337.34Z" style="fill:#fbfbfb"/><path d="M176,336c-3.09-1-3.09-1-1.69-4.68,2.2,1,1.56,3,1.69,4.68Z" style="fill:#f6f6f6"/><path d="M194.9,306c.06,2,.11,4,.17,6-2.14-.28-.32-4.18-3.47-3.75-.57.08,0-1.08.17-1.66C192.48,304.5,194.1,307.51,194.9,306Z" style="fill:#f7f6f7"/><path d="M251.05,334.12,248,331.24a1.39,1.39,0,0,1,1-.77,18.43,18.43,0,0,0,5.83.38l.38.32C254.49,333.08,253.85,335.12,251.05,334.12Z" style="fill:#f2f1f1"/><path d="M234.18,280.64l-.64,1.35a1.1,1.1,0,0,1-1.18-.61c-.45-2.08-1.57-4-1.46-6.23l.3-.33c1.78-.1,4.14-1,3,2.52C233.83,278.33,234.16,279.54,234.18,280.64Z" style="fill:#f4f4f4"/><path d="M117.06,325a2.32,2.32,0,0,1,.18-.46c.74-1.24-.75-3.49,1.8-3.92.82-.14,1.48.21,1.4.9-.23,1.94-1.16,3.38-3.38,3.48Z" style="fill:#f4f4f5"/><path d="M270,314.08c1.4.1,2.4,1.85,4,.94a2.11,2.11,0,0,1,2.92-.2c-.64.73-1.29,1.45-1.93,2.17C272.79,317,270.33,317.36,270,314.08Z" style="fill:#eeeced"/><path d="M465.52,291.68c-.57,2.53-1,4.19-3.12,4.54-.28,0-1-.69-1-1C461.77,293.5,463.13,292.68,465.52,291.68Z" style="fill:#faf9f8"/><path d="M473.08,293.25l2.92-3.1c1.24,3.28,1,5.92-3,6.85l-.15-2Z" style="fill:#383536"/><path d="M269,301c-.26,3.66-.78,7.32-.11,11A13.16,13.16,0,0,1,269,301Z" style="fill:#faf9fa"/><path d="M242.93,335.8c1.68.85,3.79.46,4.69,2.42.09.19-.61,1.07-.83,1C244.94,338.9,243.4,338.09,242.93,335.8Z" style="fill:#f9f9f9"/><path d="M121,339l.15-1.35c2.12.95,4.39,1.69,5.28,4.18C123.94,342.25,122.57,340.46,121,339Z" style="fill:#f2f2f2"/><path d="M178.71,145.82c1.57,2,1.64,3.36,1.33,4.78,0,.09-1,.21-1.26,0C177.57,149.33,178.07,148,178.71,145.82Z" style="fill:#fafafa"/><path d="M522.05,301c-.11.35-.22.69-.34,1-3.33-2.13-2.09-4.09.22-6C523.45,297.62,523.27,299.28,522.05,301Z" style="fill:#f4f2f1"/><path d="M295,267a3,3,0,0,0-3.05,0c.15-1.75,2.09-2.67,1.28-5.25C295.68,263.71,294.72,265.46,295,267Z" style="fill:#f9f9f9"/><path d="M460.21,327.22c-.23,1.66-1.83,2.31-2.6,3.58l-.37,0L457,331l-2-.13a1.32,1.32,0,0,1-.11-1.29c1.21-1.37,2.34-2.85,4.34-3.14A1.42,1.42,0,0,1,460.21,327.22Z" style="fill:#564e49"/><path d="M211.22,265.14c-.66,2.09-2.45,2.86-4.23,3.64C206.85,265.76,209.11,265.54,211.22,265.14Z" style="fill:#f5f3f3"/><path d="M121.06,207c2.45,3.11-.55,3.34-2.47,5-.38-2.87,2.87-3,2.47-5Z" style="fill:#f9f9f9"/><path d="M328.35,265.15l1.7-1.36a.6.6,0,0,1-.11.56,1.53,1.53,0,0,1,.44,1.83,5.66,5.66,0,0,1-1.22,1.69c-1.27,1.05-2.46,2.42-4.35,1.2C324.73,266.63,326.6,266,328.35,265.15Z" style="fill:#312d2d"/><path d="M487.81,343.14,484,341.92a3,3,0,0,0-1.93-2,.73.73,0,0,1-.35-.75c.05-.28.12-.42.2-.42a2.61,2.61,0,0,1,1.34-.36c1.91.45,3.22,1.82,4.64,3a1.54,1.54,0,0,1,.29,1.3Z" style="fill:#62605e"/><path d="M205.81,270c-1.21,1.74-2.43,3.47-3.64,5.2C202.24,272.63,202.19,270,205.81,270Z" style="fill:#f5f3f3"/><path d="M474.66,277.86c1.21-2.37,1.9-3.5,3.44-3.42.28,0,.53.7.79,1.08Z" style="fill:#fbfafa"/><path d="M178.23,336.14l-2.06,1.15L176,336h0c.94-2.45,2.86-2.48,5-2C180.75,335.55,178.57,334.66,178.23,336.14Z" style="fill:#f6f6f6"/><path d="M256.51,337.71c-.34.61-.29,1.76-1.41,1.51a2.15,2.15,0,0,1-1.32-1.28c-.34-1.17.82-1.22,1.5-1.38S256.42,336.93,256.51,337.71Z" style="fill:#f2f1f1"/><path d="M482.07,338.94l0,1c-2.47-.09-3.64-1.64-4.25-3.82.13-.11.25-.23.37-.35C480.48,335.59,481.72,336.7,482.07,338.94Z" style="fill:#f6f4f2"/><path d="M463,330a3.26,3.26,0,0,1,0-4C466.47,327.33,463.68,328.65,463,330Z" style="fill:#faf9f8"/><path d="M482,323c-3.1,1.1-2.41-1.58-3-3C480.31,320.63,482.62,320.32,482,323Z" style="fill:#fbfbfb"/><path d="M453.92,278a5.28,5.28,0,0,1,4.54,1.79C456.25,280,454.56,280.7,453.92,278Z" style="fill:#faf9f8"/><path d="M328.35,265.15l-3.52,3.76c-.29.45-.57.47-.86,0,0-.32-.05-.64-.09-.95C324.52,265.68,326.19,265,328.35,265.15Z" style="fill:#efeded"/><path d="M172.41,145.68a2.59,2.59,0,0,1,1.88,2.77,1.59,1.59,0,0,1-1.17.34C171.76,148.22,172,147.11,172.41,145.68Z" style="fill:#fafafa"/><path d="M489.58,318.38a1.25,1.25,0,0,1-1.28-1.17,1,1,0,0,1,1.26-1,1.37,1.37,0,0,1,1,.8A1.16,1.16,0,0,1,489.58,318.38Z" style="fill:#fbfbfb"/><path d="M238,286c-.63-1-1.27-2-1.91-3.05.89,0,2.19-.37,2.57.07C239.51,284,238.34,285,238,286Z" style="fill:#f4f4f4"/><path d="M393,331l-1.94.09V330c1-1.52,2-3,4.16-2l-.34,1.61Z" style="fill:#585352"/><path d="M276.32,264.36l-5.83-2.22C273.81,261.27,275,262.37,276.32,264.36Z" style="fill:#f9f9f9"/><path d="M86.07,291c-.32,1.14,1.26,2.1.34,3.2-.14.16-1.37-.2-1.66-.62-1-1.49.38-2,1.32-2.58Z" style="fill:#f6f5f5"/><path d="M241,292l1.82,1.32c.38,1.24.76,2.49,1.15,3.74l-.72.18C241.08,296.07,239.7,294.6,241,292Z" style="fill:#3c383a"/><path d="M483,298.89l-1.14.13c-3.12-2-2.74-4.09-.15-6.22l.42.34C481.88,295.14,481.75,297.12,483,298.89Z" style="fill:#f5f5f3"/><path d="M522.05,301l-.12-5,.87-1.06h1.1a5.51,5.51,0,0,1-1,6.1Z" style="fill:#26211f"/><path d="M276.05,264.09h3.87c0,.33.07.72-.07.83C278.19,266.28,276.91,265.91,276.05,264.09Z" style="fill:#f9f9f9"/><path d="M296.88,262.71c.26.31.71.62.82,1a1.13,1.13,0,0,1-.89,1.47c-.2,0-.68-.57-.74-.92C296,263.7,295.89,263,296.88,262.71Z" style="fill:#f9f9f9"/><path d="M162,147.05a6.5,6.5,0,0,1-4-1.06C160,144.15,161.05,145.41,162,147.05Z" style="fill:#fafafa"/><path d="M380.32,265.19l-1.51,2.74-1.84,1C377.32,267,377.53,264.94,380.32,265.19Z" style="fill:#dedddb"/><path d="M104.74,334.11a1.93,1.93,0,0,1-1.24-2.31c0-.14.65-.38.79-.28C105.27,332.2,105.2,333.11,104.74,334.11Z" style="fill:#faf9f9"/><path d="M245,299l0,2c-3-.46-3.32-1.78-1.22-3.86L244,297C245,297.34,244.5,298.41,245,299Z" style="fill:#3c383a"/><path d="M302.07,365l.06,3c-.95-.09-1.93-.27-1.95-1.47S301.1,365.08,302.07,365Z" style="fill:#faf9f8"/><path d="M145.69,355.77a3.39,3.39,0,0,1-3.12-2.34C144.23,353.18,144.86,354.2,145.69,355.77Z" style="fill:#fbf9fa"/><path d="M519.94,309c-1.06.49-2.09,1.12-3.35.85-.55-1.33-.64-2.49,1.07-3l.42.26Z" style="fill:#f4f2f1"/><path d="M145.06,351l3,.07c-.16.79-.28,1.65-1.31,1.75C145.43,352.93,145.19,352,145.06,351Z" style="fill:#fbf9fa"/><path d="M483.19,319c-.29-.4-.75-.79-.69-1.05a1.29,1.29,0,0,1,.93-.74c.68-.05,1.24.36,1,1.11C484.34,318.58,483.71,318.7,483.19,319Z" style="fill:#fbfbfb"/><path d="M109.06,312c.15-1,.32-2.06,1.74-1.47a1.33,1.33,0,0,1,.63,1.12c-.53,1.45-1.51.62-2.37.35Z" style="fill:#f8f8f8"/><path d="M216,337.05,217,338c-.16.95-.37,2.23-1.64,1.5C213.45,338.36,215.89,337.91,216,337.05Z" style="fill:#f9f9f9"/><path d="M385.21,338.86a1.25,1.25,0,0,1-1.56.78c-.39-.14-.94-.71-.88-1,.16-.79,1-.65,1.56-.63S385.31,338.17,385.21,338.86Z" style="fill:#f8f7f7"/><path d="M236,278.6a6.44,6.44,0,0,1,1.22,1.41c.29.68-.36.89-.77.62a5.34,5.34,0,0,1-1.15-1.45S235.71,278.87,236,278.6Z" style="fill:#f4f4f4"/><path d="M141.77,197.47a7.34,7.34,0,0,1-1.69.52c-.57,0-1.45.15-1.24-.9a.9.9,0,0,1,.74-.51A15.88,15.88,0,0,1,141.77,197.47Z" style="fill:#f7f7f6"/><path d="M302.82,348.48l-4.31-1.73C300.66,345.38,301.18,347.05,302.82,348.48Z" style="fill:#faf9f8"/><path d="M177.91,348.81a2.59,2.59,0,0,1,2.14-1.81c.21.73.95,1.49.07,2.2S178.62,349.11,177.91,348.81Z" style="fill:#f8f5f5"/><path d="M202.21,275.08c.12,1.8-.88,3-2.07,4.18l-.21-1.29C200.68,277,200.82,275.55,202.21,275.08Z" style="fill:#f5f3f3"/><path d="M131.75,202.23l-.22,1.08a9.46,9.46,0,0,1-1.52-.95c-.33-.32-.44-1,.21-1S131.28,202,131.75,202.23Z" style="fill:#f7f7f6"/><path d="M161.06,353c.74-1.16,1.9-1,3-.93C163.75,354.59,162.32,353.51,161.06,353Z" style="fill:#fbf9fa"/><path d="M105.3,169.15a6.13,6.13,0,0,1-.66-1.43.88.88,0,0,1,1.07-1.09,1.27,1.27,0,0,1,.79,1C106.5,167.92,106,168.26,105.3,169.15Z" style="fill:#f4f4f4"/><path d="M95.93,327.61l-.84,1c-.29-.29-.76-.54-.83-.87s.34-.66.53-1Z" style="fill:#faf9f9"/><path d="M111.7,302.25c-.33.46-.5,1-.83,1.11a.88.88,0,0,1-1.27-.88,1.31,1.31,0,0,1,.87-.9C110.79,301.52,111.2,302,111.7,302.25Z" style="fill:#f8f8f8"/><path d="M188.09,333.6a5.84,5.84,0,0,1,1.18,1.43c.25.66-.42.83-.8.55a6.87,6.87,0,0,1-1.15-1.44Z" style="fill:#f6f6f6"/><path d="M155,172.06c3.53-3.19,3.93-6.39,1-8,0-2.8-3.06-1.48-4-3,2.55-5.9,2.33-5.51,6.87-1.1,1.29,1.25,1.54,7.08,6.11,3.68,0,0,.87.7.8.91-1,3.49-.55,6.54,2.41,8.93L166.05,176a2.55,2.55,0,0,1-2.11.63c-1.69-.47-3.43-.89-3.35-3.21.41-1.14,1.8-2.21.27-3.54-.37.89.29,1.9-.29,2.75-.84,1.39.43,2.51.51,3.78a4,4,0,0,1-.77,2.72c-1.46.94-2.75.38-4-.44-1.69-1.5-.23-3.8-1.37-5.45A1.62,1.62,0,0,1,155,172.06Z" style="fill:#1a1919"/><path d="M126.06,191c-2,1.13-3.37,3.3-5.77,3.75-1.78.34-3.42-.28-4-2.08-.64-2,.66-2.68,2.44-2.68,2.11,0,1.85-1.63,2.43-3,1.08-2.51-1.28-6.31,3.21-7.72,1.53-.48-1.89-2.15-1-3.3,2.63-2.56,4.2,5.37,6.71,0,2.88,5,2.61,5.68-2.68,6.15-1.54.14-2.77.45-1.68,2.4C127.24,186.66,126.77,188.84,126.06,191Z" style="fill:#070707"/><path d="M148.06,186l-9,3c-2.51-.89-8.48-.33-11,1a1.4,1.4,0,0,1-.36-1.25c.49-2.63,4.21-2.53,4.5-5.33.2-.64.44-1.26.69-1.87a4.72,4.72,0,0,1,1.56-2.2,4,4,0,0,1,1.92-.75,2.88,2.88,0,0,1,2.25,1.47c.68,2.57,2.12,3.83,4.87,2.83,1.86-.08,3.73-1.24,5.56.1Z" style="fill:#0c0a09"/><path d="M105.06,197c5-.24,5.19-3.66,4.7-7.39-.15-1.2-1.47-2.85.51-3.27,2.17-.45,1,1.79,1.51,2.58,2.63,4-1.86,7.55-.42,11.48.46,1.24-1.4,1.44-2.54,1.64-2.35.42-1.15,1.81-.76,3-2.12,1.81-3.61-.38-5.37-.84l-.63-.16c-1.89-2.61,2.19-2.24,2-4A5.58,5.58,0,0,1,105.06,197Z" style="fill:#080708"/><path d="M149.05,183c-2,.32-3.89,1.36-6,1-1.25-2.66,1.74-5.24.13-7.88-1.81-.8-1.28.72-1.48,1.51-.38,2.08-1.79,2.58-3.65,2.39l-2-1c-.38-2,1-3.46,1.48-5.21.81-2.26-3.39-3.24-1.47-5.78l2.95,0c1.73,2,3.74,3.5,6.53,3.57,1.63.88,1.65,2.62,2.2,4.08a33.66,33.66,0,0,0,1,3.71,6.24,6.24,0,0,0,2,2.16l.33.51A2.07,2.07,0,0,1,149.05,183Z" style="fill:#151214"/><path d="M108.06,206c-.6,1-2.16,1.46-2,3h0c-.93,2.19-4.16,1.83-4.94,4.49-.15.51-2.83-.4-2.77-1.8.12-2.42.5-4.79.46-7.27,0-2.2,2.36,1.9,3.24-.42h0C104.25,204.12,105.91,205.79,108.06,206Z" style="fill:#080608"/><path d="M134.05,182l-1,1c-.83,2.68-2.71,3.77-5.42,3.63-.83-.59-1.27-1.8-2.58-1.64-1.38-.13-2.24-.81-1.73-2.24s2.43-2.75,3.4-2.33c7.69,3.31,2.28-3,3.34-4.42,1.47-1.14,2.07.38,3,1l.5.47C134.69,178.89,132.8,180.63,134.05,182Z" style="fill:#1a1a1a"/><path d="M94.08,229c-.12,1.23.29,2.68-1.28,3.27-1.29-4.45.51-8.83.27-13.27,2.24-.19,4,.69,4.7,2.79s-.6,3.18-2.42,4.15C94.6,226.36,94.48,228,94.08,229Z" style="fill:#0c0a0c"/><path d="M145.05,172c-3.82,1.37-5.51-.46-6-4,2-1.84,4-.85,6.05,0C145.75,169.36,147.41,170.7,145.05,172Z" style="fill:#322f30"/><path d="M156.05,178l4,1c.46,1.76-1.76,1.72-2,3h-7l0,0a1.77,1.77,0,0,1-.46-1.85,3.33,3.33,0,0,1,1.88-1.75,7.4,7.4,0,0,1,1.81-.39A8.24,8.24,0,0,1,156.05,178Z" style="fill:#151214"/><path d="M119.74,165.89C123.4,162,127,158.08,132,156,129,160.63,124.71,163.67,119.74,165.89Z" style="fill:#181818"/><path d="M152,161c1,0,1.93,0,2.89-.11,4.38-.39,2.34,1.5,1.12,3.1l-1.88,2.72C153.37,164.72,151.79,163.28,152,161Z" style="fill:#1f1f1f"/><path d="M110.09,211.1a.84.84,0,0,1-.06.89c-3.79,1-3.09,5.53-5.86,7.31.48-2.13,0-4.5,2.07-6.2,1.52-1.24.43-2.73-.17-4.07h0l3.81.9C109.94,210.32,110,210.71,110.09,211.1Z" style="fill:#0e090a"/><path d="M117.29,184.94c-2.5,0-1.66-1.95-2-2.95s0-2.45,1.66-2.3c1.86.17,2.26,1.75,2.42,3.25C119.53,184.65,117.64,184.11,117.29,184.94Z" style="fill:#070707"/><path d="M138.05,174.05a4.93,4.93,0,0,1-2,5l-1,1c-1.08-.71-.93-2.24-2-3l0,0c.91-1.57,2-2.9,4-3C137.39,173.56,137.73,173.54,138.05,174.05Z" style="fill:#1a1a1a"/><path d="M138.48,163.08c-1.56-.2-3.37.4-3.7-1.71-.09-.62,1.19-1.33,1.34-1,1.29,3.31,4.39-2.08,5.13,1C141.7,163.26,139.49,162.8,138.48,163.08Z" style="fill:#09090a"/><path d="M145.05,172c1-1.33,0-2.67,0-4l4.05,1.94c0,.19,0,.39,0,.58a10.84,10.84,0,0,1-.41,2.33c-.41,1.13-.58,2.38-1.66,3.16C145.43,175.18,146.67,172.89,145.05,172Z" style="fill:#211e1f"/><path d="M138.05,174.05l-1,0c-.28-.56-.47-1.53-.87-1.63-5.44-1.36-1.91-2.86-.11-4.35C136.08,170.26,138.67,171.62,138.05,174.05Z" style="fill:#0d0d0d"/><path d="M175.78,180.85c-.32,1.39-1,2-2.09,2-1.27,0-1.58-.87-1.55-1.93s.6-1.81,1.8-1.67A2.26,2.26,0,0,1,175.78,180.85Z" style="fill:#09080a"/><path d="M158,182c-.15-1.55,1.4-2,2-3v-3c.89-.81,1.9-.49,2.89-.3,1,1.46-.08,2.33-.89,3.3C160.83,180.2,159.74,181.51,158,182Z" style="fill:#0e090a"/><path d="M105.06,197c.8,1.38.6,2.42-1,3l-3.46-.23C101.62,197.67,103.34,197.34,105.06,197Z" style="fill:#111110"/><path d="M125.06,185c1.08-.51,2-.76,2,1,1.35.67,1.29,1.8,1,3v1l-2,1C124.4,189.25,126.71,186.81,125.06,185Z" style="fill:#070707"/><path d="M162.05,179c.33-1,.66-2,1-3,.33-.4.66-.38,1,0h2C166.35,179.23,164.18,179.11,162.05,179Z" style="fill:#0c090a"/><path d="M155,172.06c0,.33,0,.65,0,1l-.51.44c-2.78.4-5.73,1.07-5.51-3.39l.08-.12C151.06,170.75,153.35,170.55,155,172.06Z" style="fill:#211e1f"/><path d="M108.06,206c-2.37.44-4.22-.66-6-2,2.52-2.82,3.7,2.4,6,1Z" style="fill:#0f0e0f"/><path d="M115.6,200.33c-.29.15-.66.5-1.06.53s-1-.26-.65-.9a1.25,1.25,0,0,1,.77-.55C115.18,199.3,115.6,199.49,115.6,200.33Z" style="fill:#080708"/><path d="M181,341c-1.16,5.7-4,7.59-8.93,5.86C176.28,346.82,177.86,342.74,181,341Z" style="fill:#302e2c"/><path d="M182,335.83c1.35-1.37,2-.4,2.33.83.42,1.8.05,3.26-2.26,3.29C182.65,338.57,183.82,337.17,182,335.83Z" style="fill:#2d2526"/><path d="M97.2,233.1,97,235.77l-1.8,1.36C95.25,235.49,95.53,233.94,97.2,233.1Z" style="fill:#565454"/><path d="M310,308.86c1.34-5.23.8-10.81,3-15.89,1.69-3.59,4.61-6.77,3.26-11.33-.5-1.71,1-3,2-4.32a7.16,7.16,0,0,1,3.18-3.78,4.09,4.09,0,0,1,3.33.73,3,3,0,0,1,.87,1,9.61,9.61,0,0,1,.42,2.6c2.57,4.14-.7,6.49-2.81,9.21-4.79,4.88-5.75,11.25-6.83,17.56a15.91,15.91,0,0,1-.65,3.87,4,4,0,0,1-1.4,1.46,4.11,4.11,0,0,0-1.64,2.63,15.38,15.38,0,0,0-.36,4.69,44.17,44.17,0,0,1,0,6c-.49,3.53,1.2,4.75,4.38,4.74,2.61,2.85,2.61,2.85-2.45,4-1.63.44-3.77-.06-4.33,2.36.09,4.38-2.18,8.37-2.06,12.76,0,.76-.16,2-1.57,2-2-1.72-.95-4.06-1.21-6.13,1.73-4-.94-7.64-.84-11.5a6.76,6.76,0,0,1,2.09-2.62c1.92-2.26,1.27-5,1.32-7.56C307.69,317,308,312.78,310,308.86Z" style="fill:#100b0b"/><path d="M302,278.94c2.6,2.81,2.81,6.3,2.76,9.85h0c-1.23,2.46-1.41,5.51-4.09,7.12-2.88,3.95-3.92,8.68-5.62,13.12l-1.27-.12c-2.05-3-1.1-6,.3-8.9a37.75,37.75,0,0,1,3.71-6.45c2.65-3.44,4.37-7,3.22-11.45A3,3,0,0,1,302,278.94Z" style="fill:#343331"/><path d="M306.66,329.86,305,331.17c-1.31,1.37.1,3.24-.86,4.68l-.37.21c-1,.3-1.39-.4-1.8-1.08h0c1.11-5.4,5.18-9.94,4.16-16.08A12.28,12.28,0,0,1,308,311C308.71,317.36,309.65,323.75,306.66,329.86Z" style="fill:#faf9f8"/><path d="M319,277c-3.13,4.07-1,9.6-3.9,13.83-.64.94-.77,2.07-2.18,2.11l1.15-4.79c2-1.16,2.54-2.8,1.63-5-1.13-2.69-.23-4.75,2.11-6.31C318.27,276.42,318.66,276.45,319,277Z" style="fill:#171010"/><path d="M306.66,329.86c1.54-6.22,1-12.57,1.31-18.87.42-.94.56-2.13,2-2.13-.45,5.67-1.25,11.31-1,17A3.73,3.73,0,0,1,306.66,329.86Z" style="fill:#191515"/><path d="M300.75,295.91c1.49-2.3,2-5.13,4.09-7.11a3.71,3.71,0,0,0,0,1.45C306.71,294.5,304.67,295.88,300.75,295.91Z" style="fill:#f9f8f8"/><path d="M310.31,286.45c-.1,1.51.86,3.19-.83,4.12-.35.19-1.87-.72-1.92-1.21C307.4,287.6,309.15,287.31,310.31,286.45Z" style="fill:#f9f8f8"/><path d="M434.23,333.08c-2.81-1.9-5.34-2.84-7.91.68-1.09,1.5-2.38,1.57-1.39-1.1.37-1-1.23-.68-1.88-.63-2,.14-3-.82-3.83-2.47-2.13-4.39-5.33-6-10.17-3.43,1.36-2,.16-5.25,3.87-5.7.5-.06.81-2.85,1-4.4.24-2.28-1.64-1.34-2.71-1.71-.52-.19-.84-.93-1.26-1.42-.78-3.44.81-5.86,3.35-7.89.85-2.83.72-6.95,5.72-3.86.41-2.44-2-2.76-2.49-5.55,5.32,5.3,11.35,5.65,17.55,5.29l.65.05c1.48.54,3,.05,4.54.25a5.93,5.93,0,0,1,1.3.4c3,1.57,6.35,1.62,9.57,2.13,5.55.88,6.49,2.19,5.06,7.74-.27,1.05.25,1.93.39,2.89a4,4,0,0,1-.07,1.33c-.94,1.5-1,3.3-1.71,4.9-1,1.41-1.48,3.33-3.62,3.54-.36-.26-.74-.53-1.1-.83a10.39,10.39,0,0,0,1.09.87,2,2,0,0,1,.25,1.88,4.41,4.41,0,0,1-1.31,1.62,24.27,24.27,0,0,1-7.91,4.34A10,10,0,0,1,434.23,333.08Z" style="fill:#fefefe"/><path d="M430.09,275.3l-.17,1.68c-1,1.11-.81,2.72-1.71,3.86-1.12,1.73-1,3.7-.82,5.58.28,2.95-1,3.82-3.69,3.24-1.36-.67-1.43-2-1.68-3.27q-.09-3,0-6a4.39,4.39,0,0,1,.28-1.34,27.47,27.47,0,0,0,2.55-4.36l.68-.91c.94-.16,1.13-1.19,1.85-1.6.49-1,3.49,0,2-2.52.28-1.05,1.13-1.81,1.44-2.84l-.06.05c1.44-2.51,2.73-5.17,6.25-5.15,1.91,1.63,1.91,1.63,0,2.54,1.17.92,4.71-1.61,3.66,2.52-.74.95-2,1.34-2.67,2.36l0-.06C435.25,270.94,432.83,273.32,430.09,275.3Z" style="fill:#0f0a0b"/><path d="M408.4,312.16c-.46.61-.91,1.23-1.36,1.85-1.37.65-2.37,0-3.26-.95-.77-2.94,2.35-4,3.46-5.73,4.57-7.16,2.92-13.32-1-19.68,0-4.39-2.23-8.24-3-12.44a2.39,2.39,0,0,1,.8-1.32c2.4,2.71,4.45,5.49,4.72,9.37.16,2.25.51,4.92,1.82,6.57,3.48,4.38,2.26,9.22,2.29,14C411.88,306.87,411.13,310,408.4,312.16Z" style="fill:#2f2726"/><path d="M440,302l-.39-.22-.41.14c-1.57-1.06-3.73.77-5.15-1.05l0,0-5.16-2.74a.93.93,0,0,1-.26-.84c.06-.28.13-.43.2-.43a4,4,0,0,1,2.78,0,20.07,20.07,0,0,0,5.42,1,19,19,0,0,1,3.42.85c1.57.51,3.13,1,4.72,1.47,1.85.68,3.82.44,5.73.71a8.52,8.52,0,0,1,1.5.32c4.65.89,6.89,3.73,6.79,8.44a6.37,6.37,0,0,1-.48,2.39,2.43,2.43,0,0,1-1.15,1.11,1.31,1.31,0,0,1-1.25-.82c0-6.44-.48-6.73-6.8-8.07C446.34,303.6,442.91,303.74,440,302Z" style="fill:#393228"/><path d="M436.8,262.2c-2.76.59-4,3.11-6,4.71.39-1.33.77-2.66,1.16-4,3.28-2.5,7.55-2.11,11.13-3.75,4.06-.68,8.22-1.71,10.82,3,.39.51.29.9-.3,1.16C448.16,260.52,442.35,263.42,436.8,262.2Z" style="fill:#332b28"/><path d="M422.9,286.16c0,1.07-.11,2.2,1,2.9a1.93,1.93,0,0,1,.53,2.5l-.5.49c-4.57-6-4.53-13.08.1-16.9,1.11,1.71-.45,2.64-1.11,3.83l0,0A12.11,12.11,0,0,0,422.9,286.16Z" style="fill:#4e494a"/><path d="M404,273.89l-.21,1.17a11.08,11.08,0,0,1-7.92-5.83,2.58,2.58,0,0,0,.22-.44A8.57,8.57,0,0,1,404,273.89Z" style="fill:#221c1a"/><path d="M408.4,312.16q2.22-4.17,4.45-8.35l.42,1.2q-1.66,3.94-3.34,7.89Z" style="fill:#d4cecd"/><path d="M427.93,273l-2.39.84a12.41,12.41,0,0,1,5.31-7c.36,1.23-.48,2.12-.9,3.13A26.12,26.12,0,0,1,427.93,273Z" style="fill:#262222"/><path d="M429,297l-.1,1.16c-3.31-.69-3.34-4-5-6.1l.42-.43a2.32,2.32,0,0,1,2.46.8C427.87,293.78,429.83,294.72,429,297Z" style="fill:#4f4b49"/><path d="M422.91,279l1.11-3.83a1.68,1.68,0,0,1,.84-.42C426.2,277.06,424.7,278.09,422.91,279Z" style="fill:#140d0f"/><path d="M385.93,264c-.74,2.52-2.09,3-4.12,1.22Z" style="fill:#dedddb"/><path d="M492.2,302.89c7.11-.65,14.3.13,21.38-1.18a2.28,2.28,0,0,1,2.52,1.18c.46,5.17-.6,6-5.25,6.7-5.84.86-11.7-.3-17.52.8-1.66.32-3.63.63-5.31-.48-.71-.47-.4-1.05-.17-1.63-.48-.91-1.63-1.42-1.65-2.63a3.36,3.36,0,0,1,2.85-3.48A6.06,6.06,0,0,1,492.2,302.89Z" style="fill:#160f0f"/><path d="M527.86,314.16c0-.75.11-1.5.16-2.24,2.63.25,1.48,3.51,3.44,4.3,1.66,4.09,1.72,8.49,2.47,12.76l.88,2.2c0,2.14-.72,4.11-3,4.15-2.69.05-1.95-2.83-2.83-4.35-2.3-2.39-.1-5.42-1.14-8C527.85,320.05,527.85,317.1,527.86,314.16Z" style="fill:#393330"/><path d="M488,309.91c7.33-.32,14.65-.62,22-1,3.77-.19,6.23-1.84,6.11-6,1.65.86.95,2.66,1.57,3.93l-1.08,3c-3.62,2.4-7.71.43-11.52.76-5.06.44-10.36,1-15.55.37C489,310.91,488.52,310.28,488,309.91Z" style="fill:#887f81"/><path d="M529,331c1.78,4.83,3.78,3.34,5.83.2,1,.18.93,1.08,1.15,1.78.23,1.27.47,2.53.68,3.8s.5,2.43-.44,3.25c-1.44,1.24-2.17-.9-3.39-1A9.65,9.65,0,0,1,529,331Z" style="fill:#685e58"/><path d="M487,306l.9,2.29c-4,.65-8.63-3.06-12.1,1.65a.88.88,0,0,1-1.33-.54c-.24-3.9,2.07-5.4,5.48-5.31C482.34,304.15,484.89,304.3,487,306Z" style="fill:#1e1a19"/><path d="M474.87,309.72a3.42,3.42,0,0,1,.88.21c-1.07,2-1.6,4.08,0,6.12-.21,1.32,1,2.59.14,3.94-2.82-.43-2.67-3-3.59-4.86C472.48,313,470.3,309.75,474.87,309.72Z" style="fill:#453f38"/><path d="M329,267l1.11-1c.9-2.14,3.62-1.51,4.84-3.16l0,.06c5.46-.29,10.92-1,16.39,0l1.78.94c.95,1.25,1,3,2.17,4.11a.89.89,0,0,1,.65.3c1.65,3,2.87,6.14,4.3,9.2.68,1.45,2.16,3.12.64,5-2.3,2.07-.3,4.06.11,6.09.1,3,0,5.91.06,8.85,0,1.89-.23,3.6-1.95,4.75a.91.91,0,0,1-.32.83,3.82,3.82,0,0,1-3.61.95,3.06,3.06,0,0,1-1.34-.74c-1.1-2.1.52-3.84.79-5.76.24-1.67,0-3.42.82-5a1.6,1.6,0,0,1,1.1-.73,1.33,1.33,0,0,1,1.07.77c.37-.6-.26-.84-.48-1.19a8.51,8.51,0,0,1-.9-1.65c-.43-1.58-.55-3.2-.92-4.79,1.19-6.13.6-11.59-5.67-14.89-4.56-3.26-8.74-3.49-13-.32-2.67,2-5.86,3.13-8.44,5.26A2.25,2.25,0,0,1,325,275h0a4.25,4.25,0,0,1-1.63-2.9,2.56,2.56,0,0,1,.48-1.24A7.66,7.66,0,0,0,329,267Z" style="fill:#110b0a"/><path d="M360,282.05c1-3.44-1.59-5.9-2.66-8.71-.64-1.69-1.51-3.24-1.48-5.1l1-.17c6.37,9.51,4.93,20.24,4.77,30.76,0,1.68-.17,3.47-2.64,3.28,1.77-4.92.64-10,.87-15C358.75,285.38,359.19,283.71,360,282.05Z" style="fill:#383233"/><path d="M368.74,318.22c-4.63-4.41-2.2-10.06-2.67-15.2a3.58,3.58,0,0,1,.79-.3,5.89,5.89,0,0,1,.69,5.2c-.64,1.7-1.1,3.51.42,5.09a3.87,3.87,0,0,1,.9,1c.49,1.25,1.19,2.5.3,3.86Z" style="fill:#1e1a17"/><path d="M355,303l3.69-.1L357,308.08c-1.35,1-1.3,3.15-3,3.89-1.57-1.29-2.16-2.84-.81-4.56C354.21,306.09,354.27,304.43,355,303Z" style="fill:#322c2b"/><path d="M372,280.06c-.23,1.56-.56,3.05-2.06,3.93A3.59,3.59,0,0,1,372,280.06Z" style="fill:#534c4f"/><path d="M302,278.94c2.78,7.9-1.29,13.8-5.74,19.57-2.4,3.11-2.33,6.77-2.44,10.41-4.62,4.89-2.67,10.86-2.43,16.44.14,3.33.76,6.59-.35,10.41-4.2-7.61-4.13-15.32-4.22-23,1.33-8.28,2.62-16.47,8-23.49a9.72,9.72,0,0,0,1-9.09c-.25-.38-.5-.75-.77-1.12-2.83-3.68-3.54-3.71-6-.27a1.74,1.74,0,0,1-1.66.6,1.61,1.61,0,0,0,1.66-.57c.57-.74,1.12-1.52,2.17-.66a1.58,1.58,0,0,1-.29,1.92l-1,.91c-5.32,2-7.38,6.23-7.81,11.55-1.11,5.46-4.12,10.35-4.56,16.05A5.16,5.16,0,0,1,274,313c-3.59.1-3.69-2.47-4-5-.53-4.56,1.82-8.69,1.85-13.15,2.82-3.45,4.42-7.28,3.68-11.83-.37-2.24-.25-5-3.41-5.23-3-.23-6-.06-7.48,3.38-1.54,3.64-3.1,7.27-4.64,10.9-1.2,1.18-1.42,3.1-3,4-2,1.64-1.19,3.84-1.17,5.88-.31,9.67-4.2,19.21-1,29-1.88,2.06-3.76,2.4-5.66,0-4.8-4.24-2.17-9.24-1.45-14.05a9.91,9.91,0,0,0,.92-4.52c0-2.41,0-4.82-.07-7.23.56-2.7-.67-5.47.35-8.15,0-1.89-1-3.43-1.7-5.09.29-4,3.21-7,3.86-10.83s1.56-7.59,2.32-11.38c.56-2.78,1.79-4.36,4.76-2.6a8.3,8.3,0,0,0,6.26.71c4.38-1,8.48-.05,12.58,1.26.69.4,1.64.64,2,1.24,2.77,4.21,5.39,3.24,8-.08a11.45,11.45,0,0,0,3.38-.6c3.13-1.6,5.45-2,6.59,2.36C297.78,274.78,302,275.38,302,278.94Z" style="fill:#060404"/><path d="M274,313c3.81-6.6,4.68-14.31,8-21.11a.76.76,0,0,1,1.1.2c-1.12,6.76-5,12.93-4.22,20.1.17,1.47-1.26,1.77-1.92,2.64L274,315C274,314.35,274,313.67,274,313Z" style="fill:#706b67"/><path d="M283.09,292.08l-1.1-.2c.11-1.28.75-2.84.24-3.8-2.07-4,.27-4.73,3.34-5.4A31.7,31.7,0,0,0,290,281a12,12,0,0,1-2.92,5c-1.79,1.69-2.65,4-4.05,6Z" style="fill:#171311"/><path d="M283,292c.51-2.57,1.28-5,4.05-6C285.77,288.06,285.9,291.05,283,292Z" style="fill:#4f4b48"/><path d="M296,279l-.1,1.2-4.9-.1V278C293.07,276.38,294.69,277,296,279Z" style="fill:#1a1718"/><path d="M436.8,262.2c3.5-.62,7-1.11,10.48-1.88,2.9-.63,4.26,2,6.51,2.71a10.12,10.12,0,0,1,3.7,3.14c.89,1,1.57,2.23.7,3.55s-2.21,1.09-3.46.42l-.84-1c-1.2-2.52-3.25-3.69-5.93-4.45-1.87-.52-2.13.63-2.87,1.51l.08-.07c-1.75.32-3.3,2-5.28.8l.37-1.37A3.91,3.91,0,0,1,436.8,262.2Z" style="fill:#302821"/><path d="M454.73,270.14c2.71-.18,4.45-.87,2-3.77-1-1.12-1.95-2.23-2.92-3.34a3,3,0,0,1,.11-.9c2.52,1.22,4.06,3.4,5.45,5.67,1,1.71.58,3.18-1.25,4.13C456.1,273,454.93,272.48,454.73,270.14Z" style="fill:#55504c"/><path d="M445.09,266.24c.82-1.34-.51-2.34-.71-4.15,3.58,2.31,8.8,1.45,9.51,7.09C451.34,267.06,448.86,264.71,445.09,266.24Z" style="fill:#332b28"/><path d="M430.09,275.3c2.28-2.57,4.32-5.45,8-6.18C436.05,272,433.7,274.45,430.09,275.3Z" style="fill:#262222"/><path d="M439.89,267c1.8,0,3.39-1.39,5.28-.8-1.78,2.38-4.76,1.92-7.09,3A2.82,2.82,0,0,1,439.89,267Z" style="fill:#332b28"/><path d="M427.94,280a3,3,0,0,1,2-3c.84,1.9-.59,3.36-.95,5a7.72,7.72,0,0,1-1,.05A1.44,1.44,0,0,1,427.94,280Z" style="fill:#635e5e"/><path d="M533.93,329c-2-4.13-1.58-8.8-3-13-1.7-3.31-3.21-6.66-2.89-10.53.64-1.92.57-4,.9-5.91.69-2.07.57-4.31,1.32-6.37,1-1.6-.21-5.43,3.91-4.05-2.34,7.66-4.24,15.13-2.19,23.44C533.24,317.78,535,323.3,533.93,329Z" style="fill:#474441"/><path d="M549.93,279l-1,.87c-4-.23-6.88,2-9.79,4.21a.81.81,0,0,1-1.32-.05c.09-4.28,3.86-5.23,6.62-6.57,4.81-2.35,9.83-4.8,15.52-2.76a1.45,1.45,0,0,1,.13,1.46C556.8,277.57,553.34,278.17,549.93,279Z" style="fill:#1b1714"/><path d="M537.92,284l1.18.13-5,5c-3.67,0-1.29,3.82-3.14,5-1.57-1.45-1.34-3.26-1-5.09A12.88,12.88,0,0,1,537.92,284Z" style="fill:#2c2b26"/><path d="M257,296c1-1.35,1.15-3.3,3-4C259.87,294,259.53,295.82,257,296Z" style="fill:#a2a0a1"/><path d="M378.91,279.93l2.17-4.71c3.84-3.8,8-5.14,12.93-1.9,1.52,1,3.45,1.21,5.07,2.07,3.45,3.31,5.75,7.17,5.73,12.12-.61,1.41-.66,4-2.77,3.23s-4.5-2.66-3.77-5.71c.56-2.32.56-4.25-1.65-5.67-.85-.54-1.8-1.24-2.74-.64-4.56,2.93-9.65,1-14.45,1.67Z" style="fill:#f9f8f8"/><path d="M395.89,269.23l7.92,5.83c1.9,4.11,4.13,8.14,3.15,12.95l-.68.18c-3.36-3.37-3.06-8.76-6.63-12-2.59-1.7-6.91-.9-7.67-5.26-.69-3.65-4.67-.56-6-2.92,1-3.21,3.15-2.13,5.12-1.25C392.74,267.48,394.3,268.4,395.89,269.23Z" style="fill:#120d0b"/><path d="M371.32,302.11c2.17-1.09,1.3-3.67,2.56-5.21l.55.43a16.22,16.22,0,0,1,1.17,9.19c-.36,2.17,0,4.39,2.65,5.19,1.55.46,4,.68,3.58,2.64-.58,2.86-2.87-.6-3.95.18,3.29,2.14,6.58,4.25,9,7.48-4,1.58-10.11.14-12.94-3.34C369.94,313.72,369.15,308.12,371.32,302.11Z" style="fill:#faf9f9"/><path d="M371.32,302.11c-.11,3.45-.6,6.9.35,10.33a12.68,12.68,0,0,0,15.51,8.77l.35-.64c1.47-.95,2.93-1.88,4.65-.52-.19,3.06-2.69,3.53-4.86,4.07-7.33,1.85-13.7-1.43-17.9-9a2.26,2.26,0,0,1,.47-2.06C370.67,309.42,366.94,305.24,371.32,302.11Z" style="fill:#1e1a17"/><path d="M392,270.92c1.95,2.9,5.34,3.43,8.13,4.95-.34.59-.76.66-1.26.19a15.76,15.76,0,0,1-6.8-2.7c-4-3-7.4.59-11,1.86C382.72,268.73,387.93,271.3,392,270.92Z" style="fill:#262220"/><path d="M373.88,296.9c-.33-6.25.32-12.21,5-17l.25.25c.6,5-.08,7.1-3.49,10.43-.08.08-.32,0-.48,0a3.69,3.69,0,0,1,.69,1.23c.27,2,1.11,4.29-1.81,5.23Z" style="fill:#f9f8f8"/><path d="M369.89,313l.13,2c-1.13.58-1.47-.41-2-1,0-.32,0-.65,0-1C368.63,309.62,369.25,313.43,369.89,313Z" style="fill:#070200"/><path d="M415,339l-2.21-3.74c-.16-1.47-2.44-2.79-.55-4.36,1.16-1,2.06.22,2.88,1l0-.05c1.62,1.43,3,3.11,5,4.08,4,1.11,7.71-.85,11.58-1,2.39-1.15,4.28-.21,6,1.42,1.19.67,2.94.46,3.48,2.17-6.84,1.64-13.26,5.39-20.68,4.06C418.09,342.22,417.14,339.68,415,339Z" style="fill:#2e2822"/><path d="M398.1,325.32l-1,.72c-2.43-.12-2.43-.12-1.62-4.51,2.77-2.25,4.47-6.1,8.85-6,1,3.13-.45,5.43-2.79,7.2C400.41,323.59,398.91,324,398.1,325.32Z" style="fill:#332b27"/><path d="M437,337c-1.74-.77-3-2.69-5.31-2.12l2.56-1.79c2-1.62,4.8-.34,6.73-2.05,1.76-.86,3.64-.6,5.5-.55,1.08,3.56-2.23,2.14-3.46,3.07-.43.16-.87.28-1.31.4-1.87.22-2.76,1.86-4.09,2.86Z" style="fill:#37312c"/><path d="M396,322c1.12.72.81,1.52.15,2.38-1,1.34,0,1.53,1,1.68l-1.92,2L391,330l-.06-4C392.16,324.06,393.16,321.89,396,322Z" style="fill:#38322f"/><path d="M398.1,325.32c.84-3.43,5.85-3.56,6-7.59,0-.6.53-1.17-.09-1.74a2,2,0,0,1,0-3l3,1C405.24,318.72,404,323.85,398.1,325.32Z" style="fill:#3b2f30"/><path d="M415.13,331.87c-5.36-2.07-1.33,2.39-2.33,3.35l-2.74-2.3c.32-1.42-.52-3.45,2-3.67C414,329.07,415.2,329.73,415.13,331.87Z" style="fill:#605c56"/><path d="M420.09,335.9c-2.61-.19-4-1.94-5-4.08C417.53,332.24,418.67,334.25,420.09,335.9Z" style="fill:#605c56"/><path d="M474.87,309.72c-3.15.81-1.05,3.59-2,5.23a2,2,0,0,1-2.9,0c-.75-6.28.64-12.21,3-18,2.49-1.63,2.73-4.25,3-6.85,2.37-3.71,3.64-8.11,7.08-11.13L493.93,269h0c2.27-.8,4.43-.83,6.35.89a.54.54,0,0,1,.65.18c.09.59.17,1.18.26,1.76-.83,2.91-3.57.23-4.89,1.67-1.71.85-2,3.49-4.33,3.53a2.65,2.65,0,0,0-1,2.42l-1.83,1.63c-3.58,3-5.4,7.26-8.09,10.89-3.15,4.23-1,8.22,4.18,9.41,1.25.28,3.51-1.06,3.8,1.64a3,3,0,0,0-2,3c-1.81-.1-3.74.17-5.4-.38C477.48,304.25,475.71,306.1,474.87,309.72Z" style="fill:#0f0909"/><path d="M470,315l2.9,0q1.48,2.52,3,5c.22,1.63,2.17,2.85,1.14,4.78,1.94,1.66,2.29,4.38,4.07,6.16l7.58,5.77,2.31,1.24c1.11,3-.07,4.27-3.12,4.13-2.24-.2-3.28-2.17-4.88-3.33a19.79,19.79,0,0,1-7.32-8.64c-2.18-1,.56-4.65-2.74-5a2.25,2.25,0,0,1,0-1c-.58-2-.81-4.23-2-6.1C470.26,317.1,469.5,316.23,470,315Z" style="fill:#2d2722"/><path d="M452,302a6.56,6.56,0,0,0-.88-.09,5.27,5.27,0,0,1-.94-.82c-.75-1.42-2.13-1.88-3.53-2.3a3.13,3.13,0,0,1-1.93-1.85c.13-.73.26-1.46,1.28-.84l5.26-.23a.73.73,0,0,1,.74.2c1.37.85,3,.69,4.47,1.36a2.4,2.4,0,0,1,1,2.39,3.83,3.83,0,0,1,.08,1.39C456,303.79,453.85,301.91,452,302Z" style="fill:#0f0808"/><path d="M462.92,314.9c-1.5,2.32-1,5-1.18,7.48-.14,1.73.13,3.59-1.53,4.84l-.51-.48a2.83,2.83,0,0,1-.37-2,9.71,9.71,0,0,0,0-4.82c-.57-2.48-1-5-.16-7.49a3.17,3.17,0,0,1,2.36-1.91A2,2,0,0,1,463,311C463,312.3,463,313.6,462.92,314.9Z" style="fill:#564e49"/><path d="M463,311l-1.16-.18c-1.4-.44-1.93-1.67-2.56-2.81-.44-1.48-1.13-2.95-.13-4.47a1.88,1.88,0,0,1,1.05-.76C462.12,305.19,463.94,307.63,463,311Z" style="fill:#393228"/><path d="M470.93,318c2,1.61,2.31,3.75,2,6.1C472.1,322.11,470.61,320.34,470.93,318Z" style="fill:#453f38"/><path d="M457,300c-.3-.7-.6-1.4-.91-2.1-.72-.45-1.74-.74-1.08-1.95,2.44.22,3.34,1.67,3.17,4A.78.78,0,0,1,457,300Z" style="fill:#4e4a49"/><path d="M455,295.93l1.08,1.95a5.16,5.16,0,0,1-4.1-1.83Z" style="fill:#272121"/><path d="M457,300l1.18-.07,2.05,2.88-.42.33c-1.68.28-2.21-1-2.8-2.13Z" style="fill:#393228"/><path d="M233.12,331.24c-.07.51-.25.89-.87.83-1.72.44-3.36,1.11-5.07,1.59-3.7,1-4.6-.14-3-3.53,2.2-1.81,5.11-2.54,7.09-4.67,2.05-1.86,3.14-4.64,5.7-6a4.18,4.18,0,0,1,1.4-.26c1.75.29,2.29,1.11,1.27,2.73s-1.95,3.46-3.12,5.07C235.37,328.42,234.6,330.11,233.12,331.24Z" style="fill:#201c1a"/><path d="M236,327l3.11-5.56c.69-1.24-.24-1.29-1-1.42-.14-2.59,2.74-3.17,3.44-5.2a35.07,35.07,0,0,0,2.8-3.63c.78-1.37.42-3.2,1.75-4.34,1.6-.07,1.77,1.15,2.07,2.27.28,1.4.08,3,1.74,3.82a5.17,5.17,0,0,1-.89,4.19c-1.38,0-2.82-.18-4,.82-3.95,2.58-5.83,6.91-8.76,10.35A.76.76,0,0,1,236,327Z" style="fill:#343230"/><path d="M225,330c-1,2-2,4,1.88,3,1.75-.43,3.56-.62,5.34-.92-2.28,2.31-5.8,1.87-8.26,3.76-4.9,1.39-9.06.25-12.4-3.65,1.91-.56,3,1,4.35,1.74,2.93,1.51,3.36,1.44,6.42-1.12-.69-2.09-6.15.94-4.33-3.81,2.41-.38,4.88-.33,7.26-.91A1.52,1.52,0,0,1,225,330Z" style="fill:#262224"/><path d="M244.92,317.91c1.14-1.24,2-3.88,4-.82-2.45,4.65-2.57,9.25.25,13.8l-1.19.35c-2.58-2.71-2-6-2-9.34C246,320.6,247.72,318.54,244.92,317.91Z" style="fill:#bdbbbc"/><path d="M236,327c.07.44.13.87.2,1.3a4.68,4.68,0,0,1-3,3Z" style="fill:#2c2923"/><path d="M543.8,271.91c3.24-3,7.71-1,11.23-2.76a87.13,87.13,0,0,1,8.86.14c2.46.27,4.85,1.14,6,3.75.79,1.71,1.17,3.69-.16,5s-3-.15-4.5-.74a1.43,1.43,0,0,1-.51-1.25c-.08-1.15,3.34-.63,1.31-2.73a28.66,28.66,0,0,1-2.83-1.26c-2.16-.95-4.28.38-6.42.16-.7.05-1.4.05-2.1.05a17.09,17.09,0,0,0-5.78.57,8.4,8.4,0,0,1-3.08.2A2.93,2.93,0,0,1,543.8,271.91Z" style="fill:#554e4a"/><path d="M564.67,276.31c5,2.51,5,2.51,5.22-3.27,1.37,1.21,1.17,3,1.64,4.57.6,1.94-1,3.41-2.39,2.34-6.3-5-12.81-1-19.21-.95,3-2.13,6.63-2.07,10-3.06C561.58,274.83,563.22,274.4,564.67,276.31Z" style="fill:#a29b95"/><path d="M201,282a30.26,30.26,0,0,1,12.18-15.68c3.84-2.66,4.45,2.07,6.82,2.7a8.5,8.5,0,0,1-1.83,2.61,3,3,0,0,1-2.43.86c-4.89-2.66-2.6,1.88-3.35,3.36.55,3.43-1.52,5.38-4,7.1-3.46,3.33-2.85,7.85-3.52,12a15.24,15.24,0,0,0-.57,5,16.13,16.13,0,0,1-.41,3.67,40.7,40.7,0,0,1-1.21,4.08c-1.15,1.64-1.83,3.38-1.12,5.41.16.4.29.81.43,1.21.85,2.28,2.83,3.94,3.4,6.36a1.48,1.48,0,0,1-.35,1.24c-6.47-2.08-8.42-8.31-8.48-13.29-.07-6.09-.24-12.46.92-18.62A18.16,18.16,0,0,1,201,282Z" style="fill:#0a0809"/><path d="M225.07,328.05c-2,2.7-4.51,2-7,.94-.34-.64-.68-1.27-1-1.9,1.39-1.79,4-1.94,5.27-3.88,3-1.44,4.95-4.59,8.39-5.37,1.18.81.83,2.39,1.69,3.37a4.3,4.3,0,0,1-1.65,3.53C228.81,325.82,227.82,328.43,225.07,328.05Z" style="fill:#161413"/><path d="M223,323.87c-1.2,2.56-3.54,3-6,3.21-1.7,1-3.23.73-4.22-.95-1.76-3-4.57-3.85-7.71-4.19,0-.32,0-.64,0-.95a6.57,6.57,0,0,1,.59-4.8c2.89-1,2.9,2.31,4.63,3,.53.43,1,.89,1.52,1.37,2.06,2,3.65,5,7.36,3.47C220.39,323.71,221.65,322.84,223,323.87Z" style="fill:#262224"/><path d="M303,353c1.65-3.95.3-8.34,1.87-12.3.82.64.59,1.56.64,2.41a55.16,55.16,0,0,0,.15,5.89c.29,2-.15,3.59-2.3,4.26Z" style="fill:#38352f"/><path d="M305.25,343.2c-.13-.85-.27-1.69-.4-2.54-.62-1.55.7-3.36-.67-4.81.47-1.53-1.67-3.53.86-4.68.36,3.91,1.45,7.76.92,11.75l-.25.39Z" style="fill:#35312c"/><path d="M302,335l1.8,1.08c-1,1.4-2.57,2.15-3.6.79S302,336.22,302,335Z" style="fill:#fcfcfb"/><path d="M545.92,272.13l2.9-.2c1.92-1.07,4.2.3,6.11-.89l2,0c2.3,1.88,4.62-1.13,6.92,0,.74,1.06,2,1,3,1.2,1.29,2.14.55,3.15-1.81,3.25-1.65-.14-3.35.35-5-.37-8.45.28-16.37,1.93-22.18,8.84-2.3,1.38-3.78,4.17-6.95,4.06-1.61,2.49-1.24,5.75-3.11,8.14-.48.75-.94,1.53-1.37,2.32-.93,1.19-1.36,3.1-3.55,2.53l0,0c.05-2.08-.06-4.19,1-6.1.42-1.33.83-2.66,1.25-4,.69-1.6-.2-3.6,1.28-5a31.92,31.92,0,0,0,2.12-3c.68-.8,1.83-.76,2.58-1.45.48-.61,1.24-.93,1.72-1.55l4.3-4.66,1.7-.28C541.26,274.16,543.41,272.71,545.92,272.13Z" style="fill:#0e0b09"/><path d="M532.85,279.91,532,282c-2,.59-3.94,1.32-4.87-1.47a3,3,0,0,1,.61-2.45l.42-2.3C529.48,277.4,527.76,282.59,532.85,279.91Z" style="fill:#77746f"/><path d="M481.1,330.93c-3.24-.81-2.72-4.11-4.07-6.16C479.3,326.21,480.94,328.08,481.1,330.93Z" style="fill:#393431"/><path d="M306.92,348.9Q308,341.43,309,334c1-.57,1.57,0,2.17.67.41.69.15,1.62.76,2.25l1,.08c-4.93,3.8-3.43,10.18-6,14.92l-.1-1.09A1.36,1.36,0,0,1,306.92,348.9Z" style="fill:#34302e"/><path d="M419.78,342.06c7.55,1.18,14.17-2.49,21.19-4.08,1-1.3,2.52-1.58,3.95-2,1.7-.23,3.4-1.24,5.08.05-1.47,4.94-6.12,2.35-9.1,3.77-1.5.72-3.61-.45-5,1.18-5.28,1.12-10.36,3.63-16,2.17a.66.66,0,0,1-.3-.67C419.64,342.19,419.7,342.06,419.78,342.06Z" style="fill:#37312c"/><path d="M419.78,342.06c0,.35.07.7.11,1.05-2.38.11-3.1-2.49-5-3.1,0-.35.11-.7.16-1.05C417.58,338.49,418.51,340.54,419.78,342.06Z" style="fill:#79726b"/><path d="M500.26,269.86l-6.35-.89C496.2,268,498.57,266.49,500.26,269.86Z" style="fill:#34312a"/><path d="M545.92,272.13c-2.09,1.62-4.26,3-7.07,2.84a12.68,12.68,0,0,1,4.95-3.06Z" style="fill:#1b1714"/><path d="M299.88,400.64l.27-3.71c2-3.48,1.93-7.27,1.72-11.08l0,.07c1.67-3.17-.22-6.76,1.14-10,1.4-2.73,1.9-1.5,2,.51a88.16,88.16,0,0,1-1,17.4c-2,4.45-.55,9.16-1.05,13.72-.12,1.09.25,2.61-1.42,2.66-1.25,0-1.36-1.22-1.5-2.21A14.91,14.91,0,0,1,299.88,400.64Z" style="fill:#1f1e1c"/><path d="M306.92,348.9l0,1.9c-1.85,2.49-2.45,5.14-1,8-.74,1.73-.22,3.54-.38,5.31.25,2.28-.54,4.62.47,6.84-1.13,1.12-1.68.55-1.87-.71-.31-2.1-.56-4.21-.84-6.32a36.73,36.73,0,0,0,0-10,2.09,2.09,0,0,1,.1-.75c3.07-2.88,1.19-6.7,1.92-10a1.82,1.82,0,0,1,.71-.28C306.37,344.9,305.21,347.13,306.92,348.9Z" style="fill:#191515"/><path d="M303.23,354a14.15,14.15,0,0,1,0,10Q303.25,359,303.23,354Z" style="fill:#292622"/><path d="M303,376c-.51,3.31,1.25,6.88-1.14,10L302,376C302.35,376,302.67,376,303,376Z" style="fill:#292622"/><path d="M306,371c-1.81-2.15-.6-4.69-.92-7,.34-.45.62-.41.84.11C305.91,366.37,305.93,368.68,306,371Z" style="fill:#292622"/><path d="M305.88,364.06A6,6,0,0,0,305,364c.14-1.72-.52-3.58.83-5.11C305.87,360.58,305.87,362.32,305.88,364.06Z" style="fill:#35312c"/><path d="M489,303c-.59-.81-1.32-.58-2.18-.5-3.27.33-6.09-1-7.36-3.9a6.9,6.9,0,0,1,1.88-8.54c3-2.61,3.3-7.61,7.77-9l-7.4,11.75c-1.39,2.11-1.93,4.2.15,6.22,1.35,2.39,3.88.85,5.73,1.7,1.55.71,3.7.09,4.62,2.17Z" style="fill:#1e1a19"/><path d="M301.87,385.85a9.64,9.64,0,0,1-1.72,11.08l0-2.73C302.6,391.79,300.48,388.47,301.87,385.85Z" style="fill:#292622"/><path d="M324.15,271.07a5.34,5.34,0,0,0-.2.88,3.12,3.12,0,0,1-2,2,6,6,0,0,0-3,3l-1.19-.12c1.21-3.06,3.74-5,6.05-7.13a1,1,0,0,1,.41.81C324.27,270.91,324.23,271.07,324.15,271.07Z" style="fill:#312d2d"/><path d="M324.15,271.07c-.09-.43-.19-.86-.28-1.29a2.74,2.74,0,0,1,.1-.86,8.23,8.23,0,0,1,.86,0c1.89.46,2.75-1.33,4.15-1.93C328.24,269.37,327.58,271.86,324.15,271.07Z" style="fill:#171010"/><path d="M450,336l-5.08,1c-1.93-.62-.87-3.46-2.95-4,1.08-1.9,4,.08,4.88-2.3-.42-1.84.89-2.72,2-3.7.36-.38.72-.76,1.07-1.15,1.7-1,1.34-4.23,4.28-3.83a3.05,3.05,0,0,1,.39,2.73c-.65,1.55-1.91,2.66-2.86,4-2.65,2.3.1,3.06,1.22,4.28Z" style="fill:#322929"/><path d="M453,333c-1.6-.06-3.56,0-4.2-1.6s1.42-2.26,2.21-3.38a4,4,0,0,1,4.08.71A.88.88,0,0,1,455,330a4.13,4.13,0,0,0,0,.93Z" style="fill:#211817"/><path d="M404.05,313c0,1,0,2,0,3-3.47.94-5,4.54-8.05,6-1.88,1.06-2.7,3.45-5,4-6.59,5.88-13.15,4-18.19-4.14a30.69,30.69,0,0,0-3.61-4c-.39-1.29-.77-2.59-1.16-3.88l2,1c3.84,5.12,8.29,9.27,15.32,8.44,2.54-.3,5.29-.73,6.6-3.57.74-3.19,4-4.26,5.61-6.71,3.18-3.36,4.32-7.82,6.35-11.79.9-1.78,1.48-3.71,2.86-5.22,2.17-2.66-1.9-5.5.23-8.16l0,0c5.62,6.44,5.29,10.87,1.83,18.77C407.55,309.63,404.93,310.49,404.05,313Z" style="fill:#110a0b"/><path d="M218,271a1.85,1.85,0,0,1,2-2h1.91l1.09,1a2,2,0,0,1,.46,1.27,5.15,5.15,0,0,1-.18,2.41c-1.38,2.82-4,3.09-6.19,1.86C213.93,273.77,218.58,272.74,218,271Z" style="fill:#191617"/><path d="M527.69,278.09l.09,1.84c-.72,1.16,0,2.29.08,3.43a3.15,3.15,0,0,1-.92,2.62l-1.79,5a91.29,91.29,0,0,0-.21-16.1C527.49,275,526.57,277.3,527.69,278.09Z" style="fill:#181413"/><path d="M355,303c.74,1.48,1.68,3.27-.16,4.32-2.38,1.36-1,3-.88,4.61l-1.18,2c-5.7,3-10.4,7.3-14.81,11.94L334.87,328c-4.17,1.9-8.71-1-12.88,1-1.13.77-1.86.44-2.25-.83.59-1.84,2.24-2.32,3.79-2.77a49.4,49.4,0,0,0,11.56-5.3c3.65-.93,6.46-2.86,7.85-6.51a14.07,14.07,0,0,1,4.12-4.33c1.43-.8,1.79-2.24,2.17-3.67a4.72,4.72,0,0,1,3.44-3.13,1.85,1.85,0,0,1,1.25.55Z" style="fill:#292221"/><path d="M319.9,328.15,322,329c2.79,4-1.88,2.67-2.43,2.7-3.7.22-6.22,1.8-7.63,5.2-1.91.19-1.39-.86-1-1.87-.71-2,1-2.86,2-4,1.09,0,2.19,0,3.28-.07.68,0,1.35-.38,1.16-1.05-.12-.41-.94-.61-1.45-.9C316.8,326.36,318.29,326.94,319.9,328.15Z" style="fill:#1a1613"/><path d="M223,271.09l0-1.06a16.08,16.08,0,0,1,6.08,4.79,1,1,0,0,1,0,1.31C225.81,276,223.59,274.53,223,271.09Z" style="fill:#1a1718"/><path d="M229,276l.14-1.2,1.79.33c1.36,1.71,2.4,3.54,2.15,5.85-2.82.4-3-2.27-4.24-3.68A1.37,1.37,0,0,1,229,276Z" style="fill:#2c2729"/><path d="M299.88,400.64c0,2.46.05,4.93.08,7.39l-.76-.13C299.18,405.46,298.7,403,299.88,400.64Z" style="fill:#292622"/><path d="M351.28,262.89c-5.46,2.23-10.93-.18-16.39,0C340.35,262.31,345.81,259.57,351.28,262.89Z" style="fill:#171010"/><path d="M334.93,262.85c-.64,2.54-3.34,1.94-4.84,3.16l-.15-1.66,3-1.4Z" style="fill:#171010"/><path d="M355.23,267.94c-1.67-.87-2.1-2.4-2.17-4.11C354.81,264.66,355.11,266.25,355.23,267.94Z" style="fill:#171010"/><path d="M487.87,342.07c1.81-.8,3.47-1.71,3.12-4.13,1.12,1.59,2.47,3.51,1.46,5.22-1.14,1.91-2.82-.25-4.28-.41A1.44,1.44,0,0,1,487.87,342.07Z" style="fill:#403a38"/><path d="M495.94,273c1.45-1.66,3.67,0,5.23-1.2,1.64.19,2.74,1.05,2.62,2.76s-1.48,1.19-2.54,1.06c-1.38-1.79-3.21-2-5.24-1.51a.7.7,0,0,1-.3-.73C495.78,273.12,495.86,273,495.94,273Z" style="fill:#34312a"/><path d="M495.94,273c0,.37.05.74.07,1.11-.49,2.17-1.2,4-4.06,2.89C493.85,276.23,493.46,273.19,495.94,273Z" style="fill:#221b19"/><path d="M447,298c2.17-.12,3.88.39,4,3a8.34,8.34,0,0,1-6,0L440,300c-.94-3-3.92-3-6.15-4.09-2.48-1.22-5.34-1.43-7.72-2.89l-1.78-1.35c-.15-.85-.3-1.71-.44-2.56,1.66-.12,3.28,0,2.76-2.69a7.88,7.88,0,0,1,1.28-6.37c0,.69.05,1.37.07,2.06-.68,1.9-.31,3.8.05,5.7.37,2.09,2.17,2.54,3.74,3.25.78,1.22,2.12.61,3.16,1,3.28,2.4,7.87,1.3,11,4.11-.32.29-.63.59-.94.89C444.9,298.76,445.91,298.43,447,298Z" style="fill:#272121"/><path d="M431.8,291c-2.31.14-4.27-.12-3.74-3.25Q429.94,289.38,431.8,291Z" style="fill:#2e2827"/><path d="M229,276c.06.31.1.63.13.94.89,1.05-3,.9-.56,2.57,1.41,1,3,2.23,3.49,3.93.49,1.88,1.41.15,2,.54l6,7.09c-.06,2.88,1.71,5.55,1,8.5-.58,1.45-.16,2.85.24,4.25.52,2.41-.09,4.78-.29,7.17a5.13,5.13,0,0,1-.48,1.25,23.74,23.74,0,0,1-2.11,2.58c-1.64,2.05-3.67,3.78-5,6.11a1.13,1.13,0,0,1-1.23.12c-2.67-.17-.76-2.2-1.31-3.22l.15-.69c5-5.47,5.07-12.15,4.57-19a5.31,5.31,0,0,0-1.93-3.85,16.2,16.2,0,0,0-2.87-1.55c-1.41-.74-2.22-2.1-3.29-3.2-.9-1-1.86-1.9-2.74-2.91a12.38,12.38,0,0,1-.83-1.08c-3.93-4.66-6.39-5.39-12-3.45a5.36,5.36,0,0,1-2.84.52,2,2,0,0,1-1.09-.85c1.82-1.52,4.45-2.64,3-5.84,1.44-1.61,2.55-3.62,5-4l2-1c1.39,1.68.17,2.73-1.1,3.73,3.43.88,5.74.18,6.07-3.65C224.32,273.54,227,274.38,229,276Z" style="fill:#0d090b"/><path d="M240,299.93c.72-2.95-2.1-5.89,0-8.84L241,292a7.7,7.7,0,0,0,2.7,5.18c-.66,1.62-.75,3.07,1.22,3.86a1.37,1.37,0,0,1,.24.83c.37.76,1.39,1.15,1.22,2.2a3.61,3.61,0,0,1-1.37,2.26,2.24,2.24,0,0,1-1.33-.06C241.65,304.61,240.9,302.22,240,299.93Z" style="fill:#332e30"/><path d="M234,284c-.86-.39-.82,4.59-2.57.29-1.18-2.88-5.27-4-5.57-7.79,1.17-1.12,1.92,2.1,3.22.46,2.58.12,1.61,3.71,4,4,.17.33.33.66.49,1C233.7,282.66,233.86,283.33,234,284Z" style="fill:#1a1718"/><path d="M475.67,330.1l7.32,8.64a9.4,9.4,0,0,0-.92.2l-3.9-3.17C477.7,333.72,475.09,332.61,475.67,330.1Z" style="fill:#403a38"/><path d="M522.94,301c1.58-.43,1.76-2.24,3-3,.82,1,2.08.21,3,.74a2,2,0,0,1,.48,1.29c-.18,1.68.43,3.42-.44,5-.16,3.78,1.35,7.26,1.91,10.9-3.86.73-.57-3.64-2.87-4-.69-1-1.38-2-2.08-2.93-1.76-2,.44-5.7-3-7A6.54,6.54,0,0,1,522.94,301Z" style="fill:#181413"/><path d="M523,302c5.88.25,2.61,4.4,3,7C523,307.47,524.19,304.22,523,302Z" style="fill:#26211f"/><path d="M245.91,304.05c-.23-.74-.47-1.48-.71-2.23,1.74.65,3.18.93,2.92-1.82-.1-1-.56-2.34.81-3.06l.93,8c-.68,1.53-.09,3.17-.41,4.71-.46,2.27-1.39,1.68-2.33.25-.12-1.11-.09-2.27-1-3.14S245.5,305,245.91,304.05Z" style="fill:#7e7d7e"/><path d="M455,330c0-.32,0-.64,0-1-.67-1.25-.14-2.37.38-3.5a4.32,4.32,0,0,1,4.67-1.74.86.86,0,0,1,0,1.32c-.11.56-.21,1.11-.32,1.67Z" style="fill:#322929"/><path d="M147.05,176a6.86,6.86,0,0,1,1-4c2.23.94,4.4,2.33,7,1.05l.05-.05c4,.93.52,3.36,1,5l-1,.94c-.68-.72-1.34-.88-2,.05l-2,1a2.17,2.17,0,0,1-3,0C146.6,179,147.21,177.42,147.05,176Z" style="fill:#2a2628"/><path d="M160.05,173a6.38,6.38,0,0,0-1.59-4.55c3.53-1.2,4.45,1.45,5.07,3.29.5,1.47-1.49,1.08-2.49,1.28A.57.57,0,0,1,160.05,173Z" style="fill:#242424"/><path d="M160.05,173l1,0c-.16,2.16,2.32,1.66,3,3h-4C160.38,175,158.89,174,160.05,173Z" style="fill:#151214"/><path d="M138.05,180c.69-1.31,3.18-.82,3-3l.45-.43a8,8,0,0,0,2-1.27l.52-.31c2.42,3.3-.22,6-1,9C138.44,186.38,138,183.51,138.05,180Z" style="fill:#1c1a1b"/><path d="M128.06,189l-1-3c2.65.33,4.35-1.26,6-3C134.18,187.36,129.45,186.81,128.06,189Z" style="fill:#0f0f0e"/><path d="M133.07,177.06c2,.07,2,1.53,2,3a2.13,2.13,0,0,0-1,2C132.39,180.63,133.28,178.73,133.07,177.06Z" style="fill:#222"/><path d="M141.05,177c-.88-.7-1.32-1.66-.4-2.44a2.24,2.24,0,0,1,3.41.43h0c-.76,1-2.23,1-3,2Z" style="fill:#1c1a1b"/><path d="M148.05,180h3l0,2C149.57,182.05,148.15,182.05,148.05,180Z" style="fill:#1d1a1b"/><path d="M153.05,179c-.42-1.06-1-2.44.72-2.57S154.84,178,155,179Z" style="fill:#353134"/><path d="M155,173.09c-2.66,1.94-4.91,1.14-7-1.05a2,2,0,0,1,1-1.95C149.82,173.46,152.89,172.32,155,173.09Z" style="fill:#353233"/><path d="M325,275c4.38-2.54,8.66-5.27,13.17-7.55,4.09-2.08,8.23-2.06,11.84,1.35a2.21,2.21,0,0,1-1.09,1c-.66.1.18.21-.47.14-7-.74-12.39,2.09-16.7,7.39-2.4-1.51-4.46.94-6.77.6C325,277,325,276,325,275Z" style="fill:#171010"/><path d="M319.9,328.15c-1.38-.09-2.83-.52-3.91.82-4,1-5-1.3-5-4.68L311,317c1.11-1.53-.09-3.46.85-5,.22-1.08-.19-2.5,1.5-2.78,1.63,2.84.78,5.92.87,8.9a9.58,9.58,0,0,1-.25,1.5c-1.3,6.07-1.06,6.28,4.87,5.29a33.35,33.35,0,0,0,12.5-4.27c1.37-.86,2.84-1.75,4.6-.89a.82.82,0,0,1,.27.82c-.08.28-.17.42-.25.42C331.21,324.67,325.24,325.71,319.9,328.15Z" style="fill:#2f2b25"/><path d="M325,277.94a10.87,10.87,0,0,0,2.22-1.72c1.92-2.43,2.83-.72,3.83.81,1.31,4.21-3.32,5.21-4.39,8.13a4.19,4.19,0,0,1-1.71,1.32,1.87,1.87,0,0,1-2-.56C324.21,283.41,327.49,281.41,325,277.94Z" style="fill:#62595c"/><path d="M323,285.92l1.9-.28c.09.14.27.36.24.41-5.32,6.74-6.42,15.11-8.86,22.95a1.16,1.16,0,0,1-1.45-.11,50.59,50.59,0,0,1,3.91-17.74A11.69,11.69,0,0,1,323,285.92Z" style="fill:#ece9e5"/><path d="M314.79,308.89l1.21.16c.35,3.73,1.51,7.72-3.06,9.95l.45-9.78Z" style="fill:#f8f7f7"/><path d="M313,331c.14,1.75-1.46,2.63-2,4l-2-1C308.71,330.8,310.85,330.89,313,331Z" style="fill:#1e1a18"/><path d="M322,274l2-2c.35,1,.7,2,1,3.05Z" style="fill:#171010"/><path d="M311.89,312c-.09,1.7.61,3.55-.85,5C311.2,315.32,310.42,313.47,311.89,312Z" style="fill:#1a1613"/><path d="M440,302c4.35.62,8.83.8,13,2s4.4,5.08,3.85,8.84c.07,1.28-.22,2.31-1.75,2.45-.92-2-3.44-3.49-.06-6.15,1.2-.95-1.25-3.72-4.13-4.2C447.21,304.28,443,305.38,440,302Z" style="fill:#f6f4f3"/><path d="M448.88,327c.12,1.67-1.44,2.42-2,3.7A14.82,14.82,0,0,1,441,331Z" style="fill:#f5f5f6"/><path d="M455.1,315.26c.72-.72.31-2.25,1.75-2.45a.81.81,0,0,0,.24.5c1.43,3,1.69,5.56-2.27,6.71-.6-1.37-.86-2.73.19-4A.44.44,0,0,0,455.1,315.26Z" style="fill:#271e1b"/><path d="M453.91,321.87c-1.2,1.44-1.71,3.57-4,4,0-.61,0-1.23,0-1.84,1-1.34,2-2.67,3-4a.81.81,0,0,1,1.21-.06A1.49,1.49,0,0,1,453.91,321.87Z" style="fill:#f5f5f6"/><path d="M454,320h-1c1.28-1-1.1-3.92,2-4-.13,1.28-.27,2.57-.4,3.85C454.48,320.3,454.26,320.35,454,320Z" style="fill:#f6f4f3"/><path d="M434,300.86a7,7,0,0,1,5.15,1.05C437.37,302,435.13,304.17,434,300.86Z" style="fill:#f6f4f3"/><path d="M450.11,324.13c-1.89-.56-2.56-1.29-2.3-2.73C449.32,321.73,449.33,323.11,450.11,324.13Z" style="fill:#f5f5f6"/><path d="M422.9,286.16a6.39,6.39,0,0,1,0-7.2Z" style="fill:#140d0f"/><path d="M427.93,273a3.3,3.3,0,0,1,2-3C431.19,272.28,429.05,272.29,427.93,273Z" style="fill:#140d0f"/><path d="M454,320a1.66,1.66,0,0,1,.66-.14c2.91-1.39,2.14-4.17,2.48-6.53l1.09-1.25A1.19,1.19,0,0,1,460,312c.21,2.65-.73,5.4.69,7.94-.66,1.26.27,2.83-.77,4l-4,2c-1.08.53-1.6-.09-2-1v-3.11C453.92,321.24,453.94,320.61,454,320Z" style="fill:#1f1711"/><path d="M426.12,293c4.78-.66,8.6,2.5,13,3.32,2.27.42.7,2.39.85,3.66l-3.07-1a6.89,6.89,0,0,0-5.77-1.08L429,297Z" style="fill:#2e2827"/><path d="M457,301l2.8,2.13L460,308c.84,1.9.28,2.59-1.74,2,.08-4.37-2.13-6.95-6.26-8C453.43,300.61,455.66,303.11,457,301Z" style="fill:#2a2220"/><path d="M431.15,297.88c2.16-.87,4.44-2.41,5.77,1.08C434.87,299.28,433,298.46,431.15,297.88Z" style="fill:#1d1414"/><path d="M458.22,310a1.83,1.83,0,0,0,1.74-2l1.88,2.84L460,312l-1.84.06C458.19,311.38,458.21,310.7,458.22,310Z" style="fill:#271e1b"/><path d="M445,301l6,0a6.86,6.86,0,0,0,.09.9C449,301.74,446.79,302.71,445,301Z" style="fill:#2a2220"/><path d="M348.74,269.16l1.28-.35c7.41,5,8.36,7.53,6.12,16.09a18.21,18.21,0,0,1,.09,7.28L356,298a1,1,0,0,1-1.42-.2c-1.71-4.46-1.33-9.17-.63-13.61.73-4.71-.08-8.39-3.44-11.64C349.57,271.64,348.63,270.65,348.74,269.16Z" style="fill:#383233"/><path d="M360,282.05c0,1.68-.07,3.36-.11,5C356.29,285.33,358.76,283.7,360,282.05Z" style="fill:#2c2524"/><path d="M354.81,297.93,356,298l-2.07,5-1.32-.16a3.15,3.15,0,0,1-.26-2.74C352.86,299,353.3,297.87,354.81,297.93Z" style="fill:#2c2524"/><path d="M356.23,292.18l-.09-7.28c1.31,1.53.67,3.38.84,5.09a1.26,1.26,0,0,1,0,1.94A2.06,2.06,0,0,0,356.23,292.18Z" style="fill:#2c2524"/><path d="M357,291.93l0-1.94a12.73,12.73,0,0,1,1.4,1.9c.37.75,1.23,2-.15,2.26C357.15,294.35,357.11,292.86,357,291.93Z" style="fill:#0e0608"/><path d="M296,279a8.45,8.45,0,0,0-5-1l-2,1h0c-.33-1.7-1.54-3.37,1.9-3.71S295.68,275.85,296,279Z" style="fill:#110e0f"/><path d="M261.93,278.33a37.79,37.79,0,0,1-1.87,3.88c-.77,1.13.34,3.14-1.71,3.61a1,1,0,0,1-.83-.41c-1-1.76.32-3.2.92-4.63C258.75,280,260,279.66,261.93,278.33Z" style="fill:#121011"/><path d="M277.71,274.49c2,.81,3.79,1.52,3.76,3.65,0,.73-.93.87-1.56.75C277.17,278.4,278,276.12,277.71,274.49Z" style="fill:#1b191a"/><path d="M247.12,309.94c.95.41,1.84.74,1.91-.88.06-1.39-.36-2.9.83-4.08,0,2.64,0,5.28,0,7.92C246.25,314.35,247.25,311.63,247.12,309.94Z" style="fill:#5b5a5b"/><path d="M266.65,273.27c-.79,1.49-1.4,2.39-3.17,2.39A3.34,3.34,0,0,1,266.65,273.27Z" style="fill:#141212"/><path d="M289,279c-.87.95-1.75,1.88-3.31,1.46.62-1.82,2.1-1.32,3.31-1.46Z" style="fill:#110e0f"/><path d="M526.92,296c1.91-2.37.7-6.32,4.05-8,0,2,0,4,0,6L529.82,299c-.27.49-.57.5-.88,0h0A7,7,0,0,1,526.92,296Z" style="fill:#181413"/><path d="M528.94,299c.29,0,.59,0,.88,0-.21,2,.79,4.25-.84,6.09C529,303,529,301,528.94,299Z" style="fill:#26211f"/><path d="M560.1,275.11l4.71,0c.28.08.42.21.41.4s-.05.34-.12.34c-.15.16-.29.32-.43.49l-4.78-.37A5.93,5.93,0,0,1,560.1,275.11Z" style="fill:#554e4a"/><path d="M374.07,297q2.55-8.43,5.09-16.86c3.11-1.11,6.31-1.85,9.56-1,1.31.35,2.87.1,3.22-.49,2-3.49,4.22-1.37,5.88-.08,1.82,1.4,4,3,1.66,6.07-2.15,2.81,1.67,3.36,2.67,4.81.88,1.28.71-1.56,1.86-1.52a3,3,0,0,1,.85,1.18c.91,4.82,1.36,9.59-1.6,14-1.94.63-3.77-1.52-6.09-.1,1.54,3.51,2.5,7.14-.82,10.32-1.94,1.87-3.25-.26-4.86-.76-1.38,1.59.93,4.14-1.52,5.37a3,3,0,0,1-4.14-.85c.07,1.52,2.13,2.39,1.34,4.08h0c-3.86.82-5.36-2.87-8.08-4.25-.2-.1-.21-.61-.29-.93-.57-2.1-4,2.11-3.2-1.08.59-2.44,3.71,0,6.18-1-7.89-.34-8.42-4.64-7.07-10.65C375.12,301.56,373.84,299.22,374.07,297Z" style="fill:#fefefe"/><path d="M404.12,288.56l.12-.32L404,288c.26-4.84-3.28-8-5.16-11.94l1.26-.19c3.76,3.2,3.41,8.75,6.88,12.12-.21,3,3.86,5.64.7,8.87C405.47,294.54,405.34,291.31,404.12,288.56Z" style="fill:#2f2726"/><path d="M387.17,321.21c-.82-2.11-4-2.56-3.78-6.09,1.22,1.45,3.72-1.75,4,2,.06.74,1,.54,1.63.26,1-.47,1.51-1,1-2.3s-2.19-2.89.36-4.09c2-.94,2.39.32,3.13,1.72.64,1.23,1.74.59,2.36-.28,1.49-2.08,2.49-4.46,1-6.83-.91-1.47-2.17-2.38-.67-4.28s2.92,1,4.47,0c.3-.18,1.46,1,2.22,1.6-.61,4.2-3.08,7.57-4.89,11.24-1.3,2.69-4.17,3.68-6.12,5.66Z" style="fill:#faf9f9"/><path d="M442,333c3.58-.6,1.6,2.93,2.95,4L441,338c-1.37-.17-2.94.46-4-1h0c1.7-1,2.08-3.27,4-4C441.34,333,441.65,333,442,333Z" style="fill:#18100b"/><path d="M441,333c-1.33,1.34-1.68,3.69-4,4C437.94,335.28,438.32,333,441,333Z" style="fill:#2e2822"/><path d="M447,298c-1.13,1.54-2.67.84-4.17,1,.26-1.44,1.44-1.47,2.22-2Z" style="fill:#2a2220"/><path d="M459.94,324c.11-1.37-.29-2.83.77-4,0,1.75.64,3.57-.69,5.13C460,324.7,460,324.33,459.94,324Z" style="fill:#393228"/><path d="M238,314l2-2a6.06,6.06,0,0,1,1.81,2.41c.07.2.14.39.2.58-.06,2.7-2.61,3.38-4,5-.31,0-.63,0-.94,0-1,.77-1.79.54-2.33-.6C235.52,317.41,237.32,316,238,314Z" style="fill:#474542"/><path d="M235,319a2.22,2.22,0,0,0,2.05,1l-5,6c-2.08.74-2.81.13-2-2l2.1-2.93a4.17,4.17,0,0,0,.87-.15C233.92,320.54,233.11,318.33,235,319Z" style="fill:#47443e"/><path d="M230,324a1.84,1.84,0,0,0,2,2c-1.84,2.2-3.9,4-7,4,0-.65,0-1.29,0-1.94Z" style="fill:#34312f"/><path d="M244.07,305.94l.88.12A7.52,7.52,0,0,1,245,312a6.44,6.44,0,0,1-3,3l0,0C241.29,311.64,242.61,308.78,244.07,305.94Z" style="fill:#474542"/><path d="M245,312c0-2-.05-4-.08-5.93.32-.66.64-1.33,1-2,.07.92.15,1.83.23,2.75C245.65,308.5,246.74,310.54,245,312Z" style="fill:#222021"/><path d="M565.1,275.82a2.92,2.92,0,0,1-.29-.74c1.82-.13,2.23-1.28,2.06-2.85,1.5.41,2.19,1.46,1.6,2.84C567.8,276.6,566.28,275.76,565.1,275.82Z" style="fill:#1b1714"/><path d="M563.85,271c-2.31.18-4.62,2.26-6.92,0C559.24,271.86,561.55,269.07,563.85,271Z" style="fill:#1b1714"/><path d="M554.93,271c-1.82,1.74-4.06.7-6.11.9C550.7,270.56,552.87,271.22,554.93,271Z" style="fill:#1b1714"/><path d="M208,281.83l1.18.25c-1.78,6.23-3.54,12.46-3,19.05a5.58,5.58,0,0,1-.42,1.5,3,3,0,0,1-1.64,1.53.85.85,0,0,1-1.15-.59c0-1.19,0-2.38,0-3.57,1.17-1.51-.11-3.46.9-5C204.15,290.26,203.35,285.2,208,281.83Z" style="fill:#151314"/><path d="M216,272c-1.76,1.2-2.3,3.92-5,4a8.81,8.81,0,0,1,.68-4.35,3.65,3.65,0,0,1,3-2.27C216.16,269.41,214.47,271.62,216,272Z" style="fill:#161216"/><path d="M206,316.17a7.67,7.67,0,0,1-1,4.82c-1.34-2.33-4.06-3.87-4-7a4.66,4.66,0,0,1,4.21-.19A2.79,2.79,0,0,1,206,316.17Z" style="fill:#110d0e"/><path d="M205.07,314c-1.34,0-2.69,1-4,0h0c-.9-2.2.78-4,1-6,.07-1.53-.36-3.17,1-4.42a.94.94,0,0,1,.22.7,7.67,7.67,0,0,1,1.62,3A20.29,20.29,0,0,1,206,311.3,3.06,3.06,0,0,1,205.07,314Z" style="fill:#3b3839"/><path d="M202,308c2.06,2.4-.5,4-1,6C199.93,311.75,198.54,309.47,202,308Z" style="fill:#110d0e"/><path d="M200.08,289.07c0-1.37.44-2.42,1.95-2.79V291C200.13,291.62,200.92,289.52,200.08,289.07Z" style="fill:#151314"/><path d="M200.33,299c.48,1.72,2.06,3.37,0,5.32Z" style="fill:#151213"/><path d="M202,292c-.18,1.16.6,3-.79,3.31-1.68.37-1-1.45-1.16-2.37C200.61,292.38,201,291.43,202,292Z" style="fill:#151314"/><path d="M202,292l-1.95.94v-3.86L202,291Z" style="fill:#2b292a"/><path d="M204,295c-.12,1.7.7,3.57-.9,5C203.25,298.31,202.42,296.45,204,295Z" style="fill:#110d0e"/><path d="M223,323.87l-3.94,1.18a1.65,1.65,0,0,1-.45-1.88c2.17-2.72,6.44-2.12,8.31-5.31.29-.35.6-.69.91-1a32.59,32.59,0,0,0,2.65-4.17c.91-1.35,1.77-3,3.87-1.61.14,3-2.19,4.64-3.53,6.84l0,0C228.27,319.91,226.26,322.71,223,323.87Z" style="fill:#f1f0f1"/><path d="M234.09,311c-3.86.72-2.89,5.66-6.06,7a8.84,8.84,0,0,1-.6-.77,2.13,2.13,0,0,0,.59.78c-1.77,3.87-5.58,4.07-9,5-3.17,1.07-5.78-.44-8.41-1.85l-.74-.75c-1.67-3.11-4-5.87-4.84-9.4a3.48,3.48,0,0,1-1.11-3.73c-1-1.85.75-3.12,1-4.7l-.15-.33L205,302c2-1.85.2-4,.47-6.06.32-2.43.26-4.9,1.59-7.09,2.81-.45,1.41-2.39,1.34-3.85,2-3.52,5.23-4.19,8.89-3.84,1.68.49,2.59,1.79,3.52,3.15.81,1.2.7-.46,1.18-.49,1.77-.34,2.11,1.41,3.14,2.13l0,0a3.51,3.51,0,0,0,3.15,3c1.69.34,1.84,2.05,2.77,3.07,3.87,4.81,4.25,10.62,4.74,16.4A3.64,3.64,0,0,1,234.09,311Z" style="fill:#fefefe"/><path d="M210.62,321.14c2.68,1.18,5.87,0,8.41,1.85,0,.68,0,1.37,0,2.06C214.54,327.41,212.86,323.68,210.62,321.14Z" style="fill:#f6f6f7"/><path d="M205,311c2.08,2.89,4,5.85,4.84,9.4-2.23-.55-2.08-3.27-3.87-4.22l-.94-2.19Z" style="fill:#f5f5f5"/><path d="M526.92,296c2,.11,2.05,1.55,2,3-.87-.75-3.35,3.3-3-1A2.2,2.2,0,0,1,526.92,296Z" style="fill:#26211f"/><path d="M527,283c-.1-1.1-.16-2.2.8-3,.42,2.62,2.37,2.21,4.17,2.08-.65,1.17-1.82,1-2.88,1.12A1.53,1.53,0,0,1,527,283Z" style="fill:#46453c"/><path d="M527,283l2.08.17c-.14,1.37-.12,2.86-2.12,2.85C527,285,527,284,527,283Z" style="fill:#2f2b27"/><path d="M453.91,325l2,1c-.32,1-.64,2-1,3.05a6.79,6.79,0,0,1-3.95-1A6.36,6.36,0,0,1,453.91,325Z" style="fill:#271e1b"/><path d="M398.06,314.21c.9-4.06,2.89-7.65,4.89-11.24,2.43-4.63.81-9.6,1.17-14.41a11.72,11.72,0,0,1,3.57,8.3c-3.21,3.87-4.22,8.81-6.42,13.18C400.44,311.68,400,313.45,398.06,314.21Z" style="fill:#f9f8f8"/><path d="M353.07,300l-.47,2.82-2.77,2.7c-.43,1.59-.52,3.35-2.17,4.33a10.52,10.52,0,0,0-3.81,3.63c-.25,1.06-.94,1-1.73.67-1.49-1.64-.71-3,.55-4.28a44.34,44.34,0,0,0,3.45-3.54c1.26-1.73,2.68-3.35,3.78-5.2C350.61,300,351.49,298.93,353.07,300Z" style="fill:#f8f7f7"/><path d="M342.11,314.1l1.74-.6C343,317.88,340,320,336,321c0-.41-.05-.81-.08-1.22.81-2.88,4-3.27,5.56-5.42Z" style="fill:#2b2723"/><path d="M347.66,309.87c.72-1.44,1.45-2.88,2.17-4.33C350.1,307.48,350.1,309.29,347.66,309.87Z" style="fill:#322c2b"/><path d="M225.15,285.94,222,284c-1.71.08-2.69-1.32-4-2-3.47.26-7.49-.72-9,4,0,1.13,0,2.25-1,3-1.78,3.39-2.62,6.85-1.29,10.66.4,1.15,1.23,3.32-1.72,2.33,0-6.92-.82-14,4.18-19.91C217.5,278.09,221.43,279,225.15,285.94Z" style="fill:#f5f5f5"/><path d="M234.09,311c.31-.72.61-1.44.92-2.15a55.2,55.2,0,0,0-1.25-11.47c-.37-1.44-1-2.84,0-4.27,1.52.25,2.12,1.44,2.65,2.67,2.92,6.78.3,17.17-5.58,22.11C231.25,315.28,233.86,313.7,234.09,311Z" style="fill:#161413"/><path d="M244.07,305.94c.53,3.29-.82,6.15-2.06,9-2-.07-2-1.53-2-3l0,0c.27-2.68,2.36-5.32.16-8,.29-1.37-2.13-2.57-.24-4C242.43,301.19,242.68,304,244.07,305.94Z" style="fill:#555352"/><path d="M233.74,293.11c2.06,5.11,1.88,10.41,1.27,15.74q-2-8.44-4-16.89C232.28,291.52,232.71,293,233.74,293.11Z" style="fill:#f1f0f1"/><path d="M235,319c-.68.62-1.35,1.25-2,1.88-.16-3.63,3.16-4.75,5-6.93C238.27,316.41,237,317.92,235,319Z" style="fill:#161413"/><path d="M240.22,304c4.11,2.76.67,5.37-.16,8Q240.14,308,240.22,304Z" style="fill:#494745"/><path d="M228.26,288.89c-3,1.11-4.22.25-3.15-3A5.27,5.27,0,0,1,228.26,288.89Z" style="fill:#f9f7f8"/><path d="M141.06,177c.09-2,1.54-2,3-2C144.53,177.91,142.71,177.35,141.06,177Z" style="fill:#262425"/><path d="M353.07,300c-3.16,1.34-3.47,5.15-6.07,7-.79.31-1.64-.28-1.45-.72,1.52-3.63-.37-8.53,4.36-11,3.52-1.84,1.13-5.18-.3-5.56-5-1.35-4.85-5.6-6.11-9.26-1.64,1.65-3.52,1.35-5.38,1.06-.74-.12-1.41-.79-1.08-1.34a13.25,13.25,0,0,1,5.5-5.38c2.19-1,3.66.79,4.55,2.73a38.18,38.18,0,0,0,2.71,4.61c1.71-2,.95-3.45-.08-4.92-.31-.34-.6-.71-.88-1.07-1.4-4.58-4.37-3.7-6.69-1.35-3.87,3.92-9.37,5.42-13.07,9.5-.83.93-2.09,1.71-3.48.62,1.34-2.95,5-4.31,5.44-7.86,4.28-6.26,9.6-10.19,17.7-7.87,5.08,3.92,8.62,8.06,6.36,15.46-1.25,4.08-.27,8.85-.29,13.31Z" style="fill:#fbfbfb"/><path d="M325.6,284.89c5.22-3.49,10.53-6.84,15.63-10.49,5.42-3.89,5.34-4,8.33,2.1-.43.54-.4.57-.39.55.18-.24.33-.5.52-.72.4-.44.41-.43,0,0-.21.22-.4.44-.11.19,4.06,2.44,3.47,5.18.23,8-.44-.38-.75-.54-.89-.8-1.47-2.67-2-6.3-4.64-7.78-3.86-2.2-3,4.72-5.56,4,.57-.55,3.42,2.91,3.84-1.52.12-1.19,2.1-.92,2,.19-.29,2.47,1.9,4.18,1.5,6.58-.2,1.16-.16,2.49,1.61,2.34,2.64-.23,3,1.84,4.18,3.48,2.78,3.88,0,4.74-2.64,5.89a2.42,2.42,0,0,1-.9.05c2.31,3.71-3.26,6.44-1.27,10.11-.84,2.92-5.5,3.2-4.89,7.11l0,0c-.82.57-1.15,1.86-2.12,2-4.25.75-7.44,3.22-10.6,5.93a6,6,0,0,1-5.14,1.32,13.63,13.63,0,0,0-6.87.28c-4.68,1.81-5.1-.23-4.55-3.92a.42.42,0,0,1,.07-.71c2.87-2.75,1.22-6.89,3.06-9.95.83-8.61,1.94-17.11,8.86-23.41Z" style="fill:#fefefe"/><path d="M312.87,319.71l1.26,4.07c3.23-2.91,7-2.15,10.55-1.49,1.5.28,2.82.35,3.54-.61,3.55-4.64,8.68-6.21,13.93-7.62-.61,3.5-4,3.92-6.23,5.71-5.77,2.73-11.32,5.8-17.9,6.67-5.7.76-6.16.82-5.65-4.85A11.34,11.34,0,0,1,312.87,319.71Z" style="fill:#f8f7f7"/><path d="M381,288.6c-.28.3-.53.83-.87.91a.63.63,0,0,1-.69-.91c.16-.38.66-.61,1-.91Z" style="fill:#f9f8f8"/><path d="M204.9,302.56c-.33,1.56-.65,3.13-1,4.7-.23-1-.47-2-.7-3Z" style="fill:#f5f5f5"/><path d="M218,282a5.48,5.48,0,0,1,4,2c-.3,1.19,1.35,2.29-.11,3.87Z" style="fill:#f9f7f8"/><path d="M208,289c0-1.11-.17-2.29,1-3,1.16.68,2.38,1.41,1.31,3A1.27,1.27,0,0,1,208,289Z" style="fill:#f9f7f8"/><path d="M211.9,290.16c1.43-1.27,2.24-2.31,3.8-1.35C215,290.24,214,291,211.9,290.16Z" style="fill:#f9f7f8"/><path d="M228,318c-1.54-.05-1.61-.87-.9-1.92.18-.28.72-.33,1.1-.48-.06.8-.13,1.6-.19,2.4Z" style="fill:#f6f6f7"/><path d="M347.65,288.28c1.47,2.62,3.74,3.42,2.79,5.8-.12.28-2,.26-2.71-.2C345.62,292.48,347.37,291,347.65,288.28Z" style="fill:#fbfbfb"/><path d="M349.43,279.33c-1.23-.6-2.58-1.12-1.74-2.82a1.94,1.94,0,0,1,1.75-.44C350.38,277,350.18,278.17,349.43,279.33Z" style="fill:#fbfbfb"/><path d="M329.41,316.54c-.05-2.09,1.19-2.69,2.82-3.5C332,315,330.9,315.72,329.41,316.54Z" style="fill:#f8f7f7"/><path d="M338.49,311.5c.11.87-.28,1.25-.76,1.06a2.77,2.77,0,0,1-1.35-1.13c-.29-.52.12-.93.7-.73A8,8,0,0,1,338.49,311.5Z" style="fill:#f8f7f7"/><path d="M328.32,314c-.32-.54-.7-.91-.75-1.31a.87.87,0,0,1,1.1-1.05,1.26,1.26,0,0,1,.76,1C329.41,312.91,328.92,313.23,328.32,314Z" style="fill:#f8f7f7"/></g></g></svg>