<svg xmlns="http://www.w3.org/2000/svg" viewBox="0 0 645 567"><g id="Layer_2" data-name="Layer 2"><g id="Layer_1-2" data-name="Layer 1"><path d="M322.5,566.9q-159.21,0-318.41.1C.67,567,0,566.33,0,562.91Q.17,283.49,0,4.09C0,.67.67,0,4.09,0Q322.5.15,640.91,0c3.42,0,4.09.67,4.09,4.09q-.16,279.41,0,558.82c0,3.42-.67,4.09-4.09,4.09Q481.7,566.82,322.5,566.9Z" style="fill:#fefefe"/><path d="M225.9,204.85c1.52-11.07-.89-22.1-.49-33.1.31-8.22-3.95-14.8-5.72-22.22-3.34-14-2.72-21.3,10.59-28.18,9.35-4.84,18.4-10.43,29-12.11a57.32,57.32,0,0,1,6.43-.28,5.43,5.43,0,0,1,2.84-.39c1.78,2,.6,2.82-1.39,3.11a27.37,27.37,0,0,1-3.93-.24c-4.38,0-6.48,2.17-6.49,6.53,0,1.54.67,3.38-1.32,4.35-1.34.12-3.85-1.66-3,1.9-.11,2.19.1,4.53-2.55,5.4,1.42.23,1.87-1.45,3-1.87,2.85.17,5.13-.2,3.81-4,1.84-3.13,4.08-.34,6.38-.63-1.54-1.08-2.22-2.55-.72-4.05,2.8-2.81,5.68-.26,8.37.29,3.22.65.7,3.26,1.06,5.37,2,.11,5.15-1.28,5.34,2.55.09,1.69,1,.69,1.58.52,2.45-.69,3.33.68,3.69,2.76a7.57,7.57,0,0,1-1.49,3.13c-1.49,2-3,4-4.45,6.07a93.5,93.5,0,0,0-17.7,25.41c-1.91,4-5.31,6.43-8.87,8.73a11.78,11.78,0,0,0-4.21,6.59,3.25,3.25,0,0,1-.73,1.17c-2.88,1.29-3.76-.49-4.32-2.8,2.68-4.56,3.67-10.3,9-13.07,3.64-3.5-.47-4.27-2.09-5.91a4,4,0,0,1,.61-4c.43-5.25,5.12-7.5,8.46-9.68,3.69-2.41,3.08-4.76,2.74-7.77-.62-.76.88-4.45-2.31-1.65-.82.8-1.58,1.65-2.39,2.44-3.2,3.14-4.1,2.8-5.39-1.94a4.62,4.62,0,0,1,1.13-2.08c.37-.45,1-.76.85-1.56a19.53,19.53,0,0,0-6.95,4.05,3.71,3.71,0,0,1-1.37,0c-2.65-1.1-1.33-5.73-5.81-5.77,3.73,2.32,2.5,4.8.9,7.3-.46.77-.88,1.57-1.36,2.33-3.12,1.3-1.76,2.56,0,3.82a4.54,4.54,0,0,1,0,3.51c1.3,1-3.66.27-.52,2.22,2.28,1.41,2.61,4.32,2.12,7-2.92,2.6-5.61,5.16-3,9.61,1.11,1.87-.82,2.9-1.92,4-1.2,3.88,1.46,8.21-1.36,11.9-1.2,3.32-.13,6.78-.61,10.15,0,1.38,0,2.76-.19,4.14-1.65,6.58-.42,13.27-.73,19.9-.26,5.48,0,11-.07,16.48-.17,2.76-.43,5.49-2.25,7.77a1.3,1.3,0,0,1-1.6-.48c-.35-6.21-1.66-12.39-.6-18.67.55-3.32-.61-6.56-.82-9.84C225,210.39,224.4,207.49,225.9,204.85Z" style="fill:#020202"/><path d="M352,358c.69.2,2.13-1.77,1.68-.43-1.2,3.53.12,6.44.8,9.59.33,1.58,1,3.29-.75,4.53-.51.37-1.15.88-1.68.82-1.15-.13-1-1.14-.76-1.91.41-1.16.84-2.44-.52-3-1.83-.8-.57,1.59-1.31,1.6-1.68,0-2.05-3.27-4.74-1.69a41.5,41.5,0,0,1,8.86,11.93c.63,1.28,1.15,2.35.38,3.67-2.44.34-3.23-2-4.9-3-4-3.19-8.49-2-12.72-1.23a106.68,106.68,0,0,1-11.66,1.7,4.31,4.31,0,0,1-1.56-.09,30.23,30.23,0,0,1-8-7.34c-.61-3.36-1.23-6.73,1.53-9.55,9.23-1.65,18.43-3,27.71,0,4.53,1.48,5.1.95,5.73-3.5C350.34,359,350.33,357.75,352,358Z" style="fill:#fafafa"/><path d="M187.07,244.92a27.3,27.3,0,0,0-2.37-2.55c-9-7.67-17.81-15.47-25.46-24.67-3.17-3.81-7.42-6.71-9.18-11.67,1.2-2.07,2.69-1.59,4.25-.5,1.17,1.45,2.28,2.95,3.48,4.38,4.2,5.8,10.88,8.93,15.43,14.41,3.35,4,6.93,8,12.22,9.65a4.35,4.35,0,0,1,4.17,2.22c3.51,3,7.57,5.51,10,9.65.6,1,1.65.93,2.63,1,2.25.23,4.11,1.52,6.2,2.19a11.71,11.71,0,0,1,1.2.66c1.42.12,2.86,0,4.28.21,3.89.56,7.53,1.92,11.41,2.91-1.12,2.64-3.11,2.6-4.8,3.1a9.28,9.28,0,0,1-4.49-.5c-1.52-.45-3-1.08-4.51-1.47-1.5-.6-1.93.9-2.84,1.47-3.13.38-4.84-3-7.82-3a2.75,2.75,0,0,1-1.23-.4,12.5,12.5,0,0,0-5.33-3.48C191.85,247.48,189,247.17,187.07,244.92Z" style="fill:#0c0c0c"/><path d="M280.12,133.33A3,3,0,0,1,282,131c.45-1.1.58-2.37,1.7-3.11,2.94-2.44,6.12-4.25,10.11-4.28a8.75,8.75,0,0,0,4.93-2c4.08-.37,7.93-2,12.19-1.73,3.79.28,6.88,2.18,10.3,3.29,2,.66,3.93,1.82,6.17,1.54,1.48-1.23-.76-.7-.63-1.28-1.47-1.1-.38-2.82-1-4.12l.39-.49c5.4.34,8.6,4.24,12.05,7.64.91.9,1.51,2.1,2.84,2.51,2.12,1.71,4.55,3.09,5.82,5.65.66,1.92,2.23,3.34,3,5.22.62,2.67,1.62,5.06,4.43,6.15a3,3,0,0,1,.13,2c-2.77,3.92-4.21,1.36-5.67-1.15a12.09,12.09,0,0,1-.76-1.11A35.42,35.42,0,0,0,334.42,134c-3.8-1.39-6.87-4.27-10.86-5.27-2.44-1-4.73-2.36-7.23-3.26-11.15-4-20.43,1.78-30,5.78C284.28,132.07,282.8,134.39,280.12,133.33Z" style="fill:#050505"/><path d="M437.8,322.05c1.68-.62,2.74,1.94,5,.62,1.25-.74,2.18,1.58,1.8,3.06-1.66,6.37,1.51,11.75,3.35,17.41-1.55.41-2.55-.74-3.74-1.32a13.4,13.4,0,0,0-5-2.15c-4.85-.19-9.42-1.68-14-3-3.23-1.9-2.94-4.61-1.76-7.54,5.74-5.4,8.87-5.78,15.48-1.69C440,325.31,437,324,437.8,322.05Z" style="fill:#fafafa"/><path d="M260.84,380.14l-2.74-1.2c-3-8.64-2.5-17.6-1.61-26.39.37-3.58-.67-6.83-.46-10.24.1-2.91-.71-5.8-.3-8.71.23-1.62-.08-3.83,2.72-3.58,4,1.79.93,5.77,2.58,8.29s1.55,5.11.84,7.81a12.08,12.08,0,0,0-.55,3.83c0,2.57-.91,5.57,3,6.38.52.1.58,1.09.63,1.74,0,1,0,2,0,3A23,23,0,0,0,263.51,377c.31,1.32.38,2.68-1.14,3.45A2.1,2.1,0,0,1,260.84,380.14Z" style="fill:#090909"/><path d="M350.84,360.43c1.23,1.61,1.57,3.38.22,5a3.55,3.55,0,0,1-4.21.61c-9.71-4.55-19.81-2.27-29.8-1.91.25-3.39,3.17-3.14,5.17-3.22,5.42-.22,10.81-2,16.32-.26,3.65,1.14,3.09-1.71,3.1-3.82,1.27-5.25-1.37-10.53.11-15.79a.86.86,0,0,1,1.22,0L345,345C347,350.12,349.11,355.2,350.84,360.43Z" style="fill:#353535"/><path d="M256.89,342.34c.66,12.19-1.06,24.46,1.21,36.6-1.41-.09-2-.87-2.07-2.26-.39-8.85-2-17.64-.23-26.6.65-3.22-.22-6.92-1.1-10.22-1-3.81-.56-7.57-.63-11.35,0-2.41.81-5,3.15-5.68,1.89-.51,3.47,1.47,4.38,3.31.82,1.67,1.9,1.58,3.63,1.37,4.4-.54,7.64-4,12-4.42a2.87,2.87,0,0,1-.94,2.57,7.75,7.75,0,0,1-1.7,1.37c-3.17,2-7.07,2.24-10.3,4.18-1.42.86-2.81.15-3.89-1-.82-.7-1-2.46-2.38-2.07-1.14.32-1.49,1.74-1.46,2.9C256.64,334.79,256.06,338.59,256.89,342.34Z" style="fill:#f5f5f5"/><path d="M325.83,387c-3.26-.69-5.81-2.87-8.78-4.19-1.2-1.84-.63-3.33,1-4.54s2.65-.1,3.7.94c.73,2.21,2.43.9,3.75,1a5,5,0,0,1,1.27.42c2.32,1.44,4.37,1.72,5.67-1.3,4-2.2,8.35-1.62,12.61-1.89a4.39,4.39,0,0,1,4.12,2.31c-.12,3.94-3.25,3.88-5.9,4.45-.46.12-.93.22-1.4.3a6.7,6.7,0,0,0-6.57,1.25A10.3,10.3,0,0,1,325.83,387Z" style="fill:#1a1a1a"/><path d="M277.17,263.18c-11.77.75-23.51,2.89-35.33,1.69-4.14-.42-5.64,1.36-5.83,4.7-.24,4.1.11,8.23.2,12.35a1.31,1.31,0,0,1-1.33.21,3.27,3.27,0,0,1-.74-1.19c1-5-3.75-7.71-5-11.84a14.6,14.6,0,0,1-.45-1.42c-.81-3-1.09-5.77,2.25-7.49,2.48-.44,4.65-.46,6.1,2.32.56,1.07,2.29-.11,3.47.14l8.28,0c1.91.05,3.82-.05,5.73,0A12.93,12.93,0,0,0,260,262c2.5-.71,5-1.6,7.65-1a18,18,0,0,0,8,.4,2.68,2.68,0,0,1,1.44.35A1,1,0,0,1,277.17,263.18Z" style="fill:#5e5e5e"/><path d="M235,281a6.35,6.35,0,0,1,.12.86c1.85,1.46,1.83,3.41,1,5.24a16.67,16.67,0,0,0-1.22,5.61,31.91,31.91,0,0,0-2,7.61c-1,1.5-1.59,3.05-.46,4.77a8,8,0,0,1,.2,5.85,2.83,2.83,0,0,1-1.88,1.37,1.51,1.51,0,0,1-1.29-.8c-.5-3.48-1.33-7-.7-10.5-.53,4.16.45,8.27.56,12.41,0,1.39-.16,2.74-1.47,3.61L227,317c.92-7.75-1.3-15.49-.11-23.25.38-.17.84,1.28,1.16-.09,0-1.26,0-2.49,0-3.72s0-2.32,1.17-3c.75-1,1.33,2.12,2.12.07.68-1.61.35-3.44,1.21-5C233.19,281.17,233.89,280.57,235,281Z" style="fill:#313131"/><path d="M269,109.07l-3.27-.11c5.42-2.74,11.38-2,17.07-2.14,9.49-.17,18.87,1.66,28.1,3.69,5.71,1.26,10.48,5,15.23,8.37l-.21.28a2.31,2.31,0,0,1-2.73.41c-2.61-1.25-5.16-3.86-7.56.49-.36.66-1.67-.48-2.27-1.26a2.85,2.85,0,0,0-3.25-2.11c-2.05-.41-2.55-2.58-4.09-3.58-6-2.59-12.33-3.31-18.76-3.42C281.19,109.58,275.09,109.78,269,109.07Z" style="fill:#050505"/><path d="M424.15,329.36c.38,2.06-.75,4.36,1,6.2a4.32,4.32,0,0,0,.6,1.17c.43,1.92,2.58,3.07,2.41,5.28a2.6,2.6,0,0,1-1.2.69c-1.39.22-2.23-.6-3-1.58l-2.8-1.24c-3.08-.89-4-3.52-5-6.13l.06.09c-2-4.36.11-8,1.94-11.78l-.09.1c4.11-5.76,9.74-7.08,14.09-3.3-2,2.21-5.16.83-7.32,2.48a16.06,16.06,0,0,0-2.23,1.4c-1.26.94-1.63,2.43-2.34,3.71a7.12,7.12,0,0,0-.93,6.54c.76.46,0-.21.1-.19a3.76,3.76,0,0,1-.28-.88,2.77,2.77,0,0,1,.46-1.85c3.07-.65,1.21-3.54,2.29-5.11a3.12,3.12,0,0,1,4.18-.19C427.52,327.18,424.72,327.79,424.15,329.36Z" style="fill:#303030"/><path d="M233.93,293.16c-.7-3.86,3.74-7.2,1.17-11.26l1.11,0c1.39,2.17.55,4.38.34,6.68-.74,7.8-1.14,15.62-1.67,23.44,1.34,2.33.81,4.93.54,7.28-.94,8.21-.47,16.48-1.51,24.67-1.69.47-2-.95-2.62-1.91-.91-2.53-.52-5.17-.63-7.76a29.72,29.72,0,0,1,.23-4.11c.55-2.25.79-4.56,1.19-6.84a10.93,10.93,0,0,0,.22-6.38c0-2.19-.36-4.39.24-6.57.09-2.65.23-5.31.18-8C233.41,299.39,232.51,296.12,233.93,293.16Z" style="fill:#424242"/><path d="M431.26,381.79l.79,1c1.53,1.74,3.21,2.39,5.23.75a2.5,2.5,0,0,1,1.4.18c1.94,4.12-2.48,3.35-3.8,5a7.81,7.81,0,0,1-4.59.26c-2.84-2.7-5.87-5.26-7.6-8.92.3-.73-.09-1-.73-1-1.35-.72-1.66-2-1.92-3.38.25-2.33-1-4.92,1.21-6.91,1.5-.53,2.59.2,3.6,1.18.17.2.33.42.49.62a4.8,4.8,0,0,1,.57,1.41,14.7,14.7,0,0,1,.26,2.88,4,4,0,0,0,2.3,4.24C429.58,379.76,430,381.16,431.26,381.79Z" style="fill:#2f2f2f"/><path d="M372.84,382c-.66.08-1.45.24-1.36,1,.12,1.21,2.76,2.34.45,3.58s-4.52-.34-6.67-.93c-2-.54,0-2.24-.23-2.92-.72-2.55,1.46-4.48,1-6.82,1.05-.81,3.24-.76,2.47-3a2.33,2.33,0,0,1,1.51-3.21c1.82-.56,2.41,1.18,3.1,2.47.45,2.17-2.69,3.61-1.22,6,.58.89,1.54,1.54,1.62,2.72A1.45,1.45,0,0,1,372.84,382Z" style="fill:#fafafa"/><path d="M358.92,215c-.34,2.67,0,5.74-4.16,5.83a2.7,2.7,0,0,0-2.37,2.8c.55,3.39-2,4.92-3.9,6.24-3.12,2.13-5.67,4.17-7,8-1,2.93-4.36,2.08-6.92,2a2.46,2.46,0,0,1,0-2.07c7.8-6.82,13.84-15.39,21.73-22.13A2.7,2.7,0,0,1,358.92,215Z" style="fill:#f8f8f8"/><path d="M367.09,343l.2.24-.12.28c.35,1.39,1.73,1.3,2.66,1.85a9.52,9.52,0,0,0,3.39.58c4.58.39,4.86,1,2.67,5.54a6.94,6.94,0,0,1-5.16.42,31.2,31.2,0,0,1-9.87-9.23c-.08-.22-.16-.44-.25-.66a1.89,1.89,0,0,1,.37-1.28c.73-.83,1.84-.05,2.81-.68-1.4.29-2-.5-2.46-1.41-.57-2.29.38-4.07,1.89-5.65,1.21-.9,2.85-.51,4.1-1.34a1.59,1.59,0,0,1,1.14.51,5.49,5.49,0,0,1,1,3.16C368.31,337.77,365.26,339.63,367.09,343Z" style="fill:#272727"/><path d="M233.15,344.22c1.46-9,.8-18.15,1.63-27.2.15-1.65.07-3.32.1-5,2.47,4.49,1.1,9.31.9,13.94-.41,9.31-1.86,18.57-.84,27.95.57,5.25-1.9,10.5-.68,15.75,1.16,5-.23,9.69-1,14.49l-.75-.63c-1-1.49-.87-3.18-.88-4.84q-.06-14.46,0-28.93C231.65,347.82,231.36,345.72,233.15,344.22Z" style="fill:#e8e8e8"/><path d="M185.18,234.89c-3.45.07-6.14-2.38-7.9-4.34A130.11,130.11,0,0,0,158.63,213c-.85-.63-1.21-1.91-1.79-2.89a2.32,2.32,0,0,1,1.21-.8,2.59,2.59,0,0,1,2.06.67c3.08,5.2,8.76,7.64,12.68,12,1.3,1.44,2.73,2.76,4.1,4.13.87,1.27,2.21,2.12,3,3.43l.88.66C182.86,231.17,184.77,232.34,185.18,234.89Z" style="fill:#5f5f5f"/><path d="M398.9,357.92c-.75-4.33-4.24-4.56-7.45-4.57-5.49,0-11,.39-16.46.62-.45-.85-2.74,0-1.87-2.07,6.93-2.11,14-1.33,21.08-1.16,4.82.13,6.13,1.94,7.61,8.65a20.53,20.53,0,0,1,.45,5.8,10.12,10.12,0,0,1-.34,2.26,25.26,25.26,0,0,0-1,5.46,5.5,5.5,0,0,1-.46,1.27,33.65,33.65,0,0,1-3,3.47c-1.15.71-1.36,3-3.46,2.12.14-.8,0-1.95.45-2.35C400,372.63,399,366.2,399,360A1.5,1.5,0,0,1,398.9,357.92Z" style="fill:#e9e9e9"/><path d="M205.74,247.18c5.19-.16,10,1.63,14.92,2.91,3.34.88,3.54-.14,3.93-3.23,1-8.17-.94-16.28.17-24.45.56-4.15-.53-8.51-.71-12.77-.06-1.56-.64-3.37,1-4.59-.12,7.16,1.91,14.12.92,21.51-.59,4.44.4,9.44.5,14.19a40.75,40.75,0,0,0,.58,4.92c.17,6.74-1.43,8-7.85,6-1.74-.52-3.4-1.3-5.27-1.21-1.38-.7-3.25.28-4.38-1.28l0-.09C207.93,249.16,206.26,249.28,205.74,247.18Z" style="fill:#ececec"/><path d="M354.94,147.19c3.45,4.59,6.89,9.15,9.32,14.45,3.44,7.5,3.14,15.49,3.72,23.39a1,1,0,0,1-1.38-.06c-3.53-4.5-3.6-9.9-3.47-15.18a14.58,14.58,0,0,0-1.53-7.63c-.87-1.84-2.37-3.33-3.09-5.26-.22-.4-.42-.8-.62-1.2-1-2.5-3.57-4.26-3.52-7.27A3,3,0,0,1,354.94,147.19Z" style="fill:#464646"/><path d="M424,341.12l2.9.91c6.5,1.35,13.08,2.43,18.84,6.07a2.62,2.62,0,0,1,.48,1.41l-.45.61c-4.65-1.27-9.57-1.55-13.86-4.63-.39,2.83,3.49,2.49,2.19,4.51-1.48,2.28-3.91.06-5.95.26-2.65.27-1.11-2.28-.85-3.09C428.36,343.8,423.79,343.79,424,341.12Z" style="fill:#fafafa"/><path d="M400.87,367.52,401,366c.47-.56.73-1.32,1.49-1.61a3.23,3.23,0,0,1,3.84,1.39c1.09,2,.25,4.25.82,6.33v0a6.92,6.92,0,0,0-2.75,6.62c-.78.95-1.33.46-1.84-.29.14.95,1,1.16,1.64,1.55a1.4,1.4,0,0,1-.07,1.26l-2.28,2.74c-1.46.74-2.88,3.06-4.41.08a3.37,3.37,0,0,1,.18-1.34c.66-1.34,1.72-2.49,2-4a9.73,9.73,0,0,0-.25-3,6.68,6.68,0,0,1,.47-1.82l0,.11C401.69,372,399.67,369.5,400.87,367.52Z" style="fill:#373737"/><path d="M451.08,358.67a.48.48,0,0,0-.3-.63,2.18,2.18,0,0,1-1.08-3c2.88.33,2.88.33,1.8-2.9a2.11,2.11,0,0,1,1.55-1.33c7,3.9,5.12,10.83,5.8,16.9-1,3.39,1,7.67-3,10.2l0,0c-.48.82-.95,1.69-2.11.86-1.37-3.24,2.31-5.37,1.87-8.41.26-3.1,1.92-6.26-.47-9.36-1.38.62-.78,1.89-1,2.84a6.6,6.6,0,0,1-.42,2.11c-.36.69-.8,1.23-1.69,1a1.38,1.38,0,0,1-.21-1.95c0-.67,0-1.33,0-2C451,361.65,451.9,360,451.08,358.67Z" style="fill:#636363"/><path d="M432,319c-5.89-4.39-9.62.64-13.92,3.19.17-2.25.34-4.49.54-7.25,2.11,1.33,3.21,3.41,6.24,1.13,2.07-1.55,6.42-.08,9.75.09.61,0,1.31.63,1.8.47,1.39-.46,2.91-2.73,4-.12.82,1.95-1.39,2.66-2.62,3.66a8.07,8.07,0,0,0-1,1.13,4.3,4.3,0,0,1-3-.65A3.88,3.88,0,0,1,432,319Z" style="fill:#fafafa"/><path d="M317,331.87c.71-2.1,4-2.67,3.32-5.6,2.25-.15,4.54-.74,6.74,0,.65.22,1,1.46,1.93,1.25,4.5-1,4.49-1,7.71,1.78-1.72.25-3.15.71-3.61,2.33a1.15,1.15,0,0,1-.88.86,5.28,5.28,0,0,1-3.11-1.08,7.27,7.27,0,0,0-7-.51C320.4,331.37,319,333.5,317,331.87Z" style="fill:#f9f9f9"/><path d="M372.84,382l.26-1.09c-.21-2.7-2.41-6.54,3.35-5.77,2.38,2.95,4.12,6.53,7.86,8.18,2.37,2.09,5.52-1.57,7.82,1.05a2.9,2.9,0,0,1-1.42,2.32,12.75,12.75,0,0,1-4.53,1.69,1.61,1.61,0,0,1-1.26-.41,1,1,0,0,1-.9-.33c-3.82-1.54-7.84-2.72-10.85-5.77Z" style="fill:#2c2c2c"/><path d="M366.84,184.91,368,185c.18,9.28-2.63,17.72-7.1,25.72-.5,1.49-.76,3.09-2,4.24l0,0L357,216.07c-1.5-2.06,0-3.77.74-5.49,3.09-6.88,6.9-13.51,6.39-21.51C364.07,187.41,364.5,185.35,366.84,184.91Z" style="fill:#6c6c6c"/><path d="M277.22,332.39l-8,8.7c-2.19,1,.14,4.48-2.76,5.12a2.06,2.06,0,0,1-1.42-.15c-1.23-1.16-1.18-2.68-1.2-4.18a7.11,7.11,0,0,1,1.45-4.26c2.25-2.05,3.62-4.94,6.29-6.6C275.94,329.7,276.06,329.73,277.22,332.39Z" style="fill:#202020"/><path d="M264,361c0-1,0-2,.05-3,.55-4-.61-8.35,1.91-12.08l.13.11a1.34,1.34,0,0,1,2,0,110.2,110.2,0,0,0-2,32.31c.14,1.34.57,3.29-1.41,3.75-1.58.36-3.4.32-3.89-1.94L262,380c1.87.54,2.1-1,1.72-1.9-2.18-5.42-.38-10.59.74-15.81A1.38,1.38,0,0,0,264,361Z" style="fill:#656565"/><path d="M185.18,234.89l-4.39-4.74c.8,1,1.91-4.54,2.61.14a2.61,2.61,0,0,0,1.44,1.86c8.84,1.82,13.8,8.92,19.91,14.46a2.21,2.21,0,0,1,.28.4c-.82.75-1.83.41-2.77.48a2.74,2.74,0,0,1-1.91-.84c-2.77-4.38-6.84-7.28-11.26-9.77C188.33,235.14,186.66,235.2,185.18,234.89Z" style="fill:#f7f7f7"/><path d="M233.27,384.17c-1.15,7,.92,14.11-.16,21.19-.41,2.64-1.68,4.58-3.9,5.24a4,4,0,0,1-5.07-2.86,2.87,2.87,0,0,1,1.91-.49c2.38.27,2.93-1.66,3.81-3.19,1.33-2.31,1-4.84.5-7.19a21.27,21.27,0,0,1,.41-11.17,4.77,4.77,0,0,1,.65-1.41,1.32,1.32,0,0,1,1.36-.55Z" style="fill:#e8e8e8"/><path d="M313.33,379.8c-10.54-6.71-13.84-21.91-9.32-31.82.77-1.26,1.2-3.75,3.16-.91a4,4,0,0,1-.6,2.74c-2.78,5.83-2.06,11.66,0,17.48a21.49,21.49,0,0,0,3.86,6.21c.86,1.55,2.15,2.81,3,4.35A2.16,2.16,0,0,1,313.33,379.8Z" style="fill:#efefef"/><path d="M363.9,348c-3.39-.9-4.53-3.64-4.88-6.61-.89-7.5,7.68-18.71,15-19.75a4.12,4.12,0,0,1,4,1.37,29.55,29.55,0,0,0-14.63,10.09,12.78,12.78,0,0,0-2.51,9l0,0C362.19,343.86,364.26,345.29,363.9,348Z" style="fill:#f4f4f4"/><path d="M306.9,342.9c0-.77.09-2.31-.42-2.13-6.83,2.35-.23-4.17-3-4.41,1-2,3.91-3.82,4.52-3.12,1.75,2,3.32,1.24,5.11.95.36,3-2.08,4.65-3.28,6.91-.67.84-1.21,1.83-2.39,2.1Z" style="fill:#f9f9f9"/><path d="M295,331.16c-3.1-2.26-6.5-1.52-9.87-1a1.28,1.28,0,0,1-.48-1.06,4.21,4.21,0,0,1,.49-1.16c.75-1,1.24-2.3,2.73-2.51,2.86,1.52,5.13,1.08,6.62-2,3.61-.34,4.89,2.49,5.86,4.93.83,2.08-1,3.23-3,3.57A3.69,3.69,0,0,1,295,331.16Z" style="fill:#696969"/><path d="M277.17,263.18l-.1-1.1c.86-3.36,3.86-.8,5.5-2a39.47,39.47,0,0,1,3.92-.62,13.32,13.32,0,0,0,3.72-.41c1.84-.25,3.8-.16,5.09-1.89A7,7,0,0,1,297,256c2.29-.67,4.41-2.24,7-1.27a.93.93,0,0,1,.31.85q-.09.45-.21.45A45.78,45.78,0,0,1,277.17,263.18Z" style="fill:#9b9b9b"/><path d="M434,319.94l2.87,1.33.95.78a18.67,18.67,0,0,1,2.37,2.51c.84,1.28,1.28,3,.21,4.15-1.47,1.61-2.65,0-3.69-.94-4.8-4.21-8.58-.68-12.54,1.59L426,325a3.09,3.09,0,0,1,1.83-1.06,16.26,16.26,0,0,1,6.91,0c.28-.11.85.47.76.05s-.76-.93-1.11-1.45C433.9,321.68,433.44,320.88,434,319.94Z" style="fill:#505050"/><path d="M422.69,380c1.77,3.19,5.39,4.79,7,8.13.64.18,1.26.42,1.88.65,2.42.16,4.81.57,7.2.89,1.61.13,2.92-.76,4.36-1.25A2,2,0,0,1,445,389c-2.51,3.62-5.24,3.54-9.79,3.09-7.43-.74-8.18-7.74-13-10.39A8.6,8.6,0,0,1,422.69,380Z" style="fill:#f4f4f4"/><path d="M407.12,372.08c-2.42-1.63-.74-4.07-1.21-6.09-2-3-1.69-7-4.36-9.63-.67-2-.5-4.33-1.8-6.2a2.06,2.06,0,0,1,.12-1.34.89.89,0,0,1,1.21.1C406.58,355.73,409,363.35,407.12,372.08Z" style="fill:#535353"/><path d="M362.93,333c3.33-5.87,7.69-10.18,15.05-10,1.61.87,3.86.07,5.08,2a3,3,0,0,1-1.17.88,9.36,9.36,0,0,1-4.34.09c-1,.24-3.2-1.61-2.58,1.57.18.92-1,1.17-1.77,1.38-2.7-.23-5.1.13-6.19,3.11-.21,2.62-2,.68-3,1A.63.63,0,0,1,362.93,333Z" style="fill:#3e3e3e"/><path d="M420.75,376.11,422,379c-1,.38-1.83.66-2.12-.89-.95-5.12-2.87-10.34,2.45-15,2.09,4.31,7.29,6.42,7.56,11.95a1.23,1.23,0,0,1-1.28.09c-1.45-1.19-2.19-2.94-3.4-4.32l-.07.13c-.8-.74-1.26-1.76-2.05-2.5-1.76-1.05-2.44,0-2.52,1.5A19,19,0,0,0,420.75,376.11Z" style="fill:#f6f6f6"/><path d="M226.13,242.05q-.52-18.51-1-37a2.83,2.83,0,0,1,.81-.2c1.31,12.36,1.1,24.77,1.24,37.17A.72.72,0,0,1,226.13,242.05Z" style="fill:#4c4c4c"/><path d="M277.22,332.39c-1.9-2.91-4.18.33-6.22-.41a.76.76,0,0,1-1.25-.08c0-3.76,3-3.75,5.5-4.47.82.05,1.09,1.35,1.95,1.07,1-.34.37-1.36.53-2.08a3.21,3.21,0,0,1,3.93-1.88c.86,1.67,3.28,2.16,3.34,4.43h0c-1.09,1.95-3.37,2-5,3.07Z" style="fill:#333"/><path d="M226,356q0-17.64,0-35.29c0-1.33-.14-2.67,1-3.7l.39.26c1.49,1.88,1,4.11,1.06,6.23.14,9.13,0,18.25,0,27.38,0,1.8.12,3.7-1.45,5.08Z" style="fill:#313131"/><path d="M390,386l1.89-1.08.65.15c1.1,1.32,5.3-1.59,4.05,3-1.2.95-2,2.48-3.65,2.81L392,391c-1.47,1.82-2.81,2.18-3.87-.36L384.92,388a3.45,3.45,0,0,1,1-.16C387.2,387.11,389.28,388.05,390,386Z" style="fill:#424242"/><path d="M325.83,387c2.81-.17,5.66-.08,8.3-1.27,1-.45,2.69-.65,2.46-2-.33-1.92-.11-2.77,2-2.76,2.46,0,1.8,1.4,1.41,2.75L342,384c.36.21.49.44.37.67s-.23.34-.35.34C336.66,386.07,331.57,389.11,325.83,387Z" style="fill:#2e2e2e"/><path d="M225.9,390q-.42-15.65-.85-31.27A3.66,3.66,0,0,1,226,356l.39.26c1.2,1.58.93,3.45,1.05,5.25-.23,7.48,1.54,14.87,1,22.37-.13,2,.16,4-.95,5.81A1.15,1.15,0,0,1,225.9,390Z" style="fill:#313131"/><path d="M227.09,279c-.07-3.64-.11-7.28-.21-10.91-.12-4.49-2-7.21-6.94-7a4.22,4.22,0,0,1-3.26-.9,2.5,2.5,0,0,1,1.24-1.05,10.19,10.19,0,0,1,7.22.61,5.66,5.66,0,0,1,2.68,2.82,28.32,28.32,0,0,0,1.63,5.7c.39,2.62-.58,5.3.41,7.9a3.71,3.71,0,0,1-.61,2.94A1.68,1.68,0,0,1,227.09,279Z" style="fill:#3b3b3b"/><path d="M391.87,384.89c-2.6-1.23-5.55,1.49-8.06-.72l.43-.57c3,.25,5.49-1.12,8-2.52l1.74-1.31,3-2.75a2.05,2.05,0,0,1,.63,1c.08.41.13.82.18,1.23.2,1.22,1.27,2.4.21,3.68l-.06,0a3.9,3.9,0,0,1-.94.73,16.17,16.17,0,0,0-2.78,1c-.72.33-1.42.84-2.24.26Z" style="fill:#404040"/><path d="M451.85,365l-.07,1.81c0,.21.07.42.11.64.2,1.57-.47,3-.86,4.43a7.12,7.12,0,0,1-.48,1.18,35.25,35.25,0,0,0-2,3.14,13.53,13.53,0,0,1-1.3,2.2,2.65,2.65,0,0,1-3,1l-.46-.5C446,373.93,447.78,368.78,451.85,365Z" style="fill:#f7f7f7"/><path d="M373,328c1.24-2.55,2.1-3.19,4-3,2.64,1.58,3.25,3.51,1,5.91L373.13,333a.91.91,0,0,1-1.16.16c-.84-1.54,1-2.69.58-4.16A1.13,1.13,0,0,1,373,328Z" style="fill:#2f2f2f"/><path d="M295,331.16l2-.19c3.47,0,3.47,0,3.83-4.93.57.32,1.12.68,1.71,1,.91.44,1.1,2.4,1.28,2.92.53,1.56.54,3.45-1,3.3-2.59-.26-5.25.82-7.73-.38C294.25,332.45,294.8,331.74,295,331.16Z" style="fill:#f9f9f9"/><path d="M227.09,279H229a7.77,7.77,0,0,1,1,8c-1.11.77-.92,1.95-1,3a5.42,5.42,0,0,0,0,4.9c-.07.6,0,1.54-.87,1.28-1.08-.33-.93-1.59-1.24-2.49l0-7.45a13.65,13.65,0,0,1,0-6.6A.45.45,0,0,1,227.09,279Z" style="fill:#242424"/><path d="M378,330.92c.33-2.08.33-4.11-1-5.91l4.84.2a4.28,4.28,0,0,1,2.08,1.29c.77.81,1.88,1.54,1.39,2.91s-1.73,1.21-2.91,1.12a6.4,6.4,0,0,0-3.41.29Z" style="fill:#111"/><path d="M313.33,379.8l-.54-1.73a2.13,2.13,0,0,1,1-.74c1.83-.51,1.31-2.57,2.36-3.58,3.26,1,4.55,4.32,7.2,6a1,1,0,0,1-1.46.33c-4-3.22-4.56-.52-4.83,2.75C315.52,382.2,315.13,380.13,313.33,379.8Z" style="fill:#3d3d3d"/><path d="M300.85,326c.32,1.7,1.75,3.46,0,5.09A2.42,2.42,0,0,1,297,331c1.28-.29,3.32-.76,2.49-2.2-1.19-2-2-5.15-5.51-4.77-.9.25-1.21-.11-1-1C296.94,320.57,298.32,324.8,300.85,326Z" style="fill:#989898"/><path d="M308.88,340.87l4.27-6.68h0a5.84,5.84,0,0,1,3.24-2.07.44.44,0,0,0,.66-.26c2,.22,3-2.07,4.92-2.12a1.65,1.65,0,0,1,.48,1.24,4.23,4.23,0,0,1-.91,1.85,20.94,20.94,0,0,0-10.08,8.38,2.27,2.27,0,0,1-2,.15Z" style="fill:#353535"/><path d="M369.07,346c-1.07-.52-2-1.15-1.9-2.53,7,1.89,13.89-.5,20.84-.57a1,1,0,0,1-.13,1.41c-1.61,1.09-3.56,1-5.31,1.62-4,.85-8-.52-12,.23A2,2,0,0,1,369.07,346Z" style="fill:#393939"/><path d="M416.18,333.75c2.64,1.25,3,4.32,5,6.13-1.31,1.73-2.6.95-4.4.61-3.4-.64.45-1.85-.54-2.66C414.8,336.65,416,335.12,416.18,333.75Z" style="fill:#fafafa"/><path d="M160.11,210l-2.06,0c-1.73-.91-2.74-2.66-4.3-3.77a2.79,2.79,0,0,0-3.69-.22c-1-1.64.09-2,1.34-2.18C155.23,203.18,158.73,205.65,160.11,210Z" style="fill:#969696"/><path d="M293,323l1,1c-.27,1.23,1.52,2.57.12,3.58a4.43,4.43,0,0,1-4.23.08c-1-.41-1.53-1.73-2.86-1.65a1.17,1.17,0,0,1-.06-1.26,3.15,3.15,0,0,1,1.15-.59c.73-.32,2.42.79,1.95-1.32Z" style="fill:#4b4b4b"/><path d="M383.81,384.17c-3.46-.54-4.55-4.31-7.95-5.56-2.47-.91,2.07-.43,1.8-2a.88.88,0,0,0-.25-.41,2.8,2.8,0,0,0-.4-.27.7.7,0,0,1-.33-.93l.49-.28c3.19.93,2.41,5.34,5.55,6.31a3.15,3.15,0,0,1,1.48,2.64Z" style="fill:#414141"/><path d="M343,341a1.26,1.26,0,0,0-.9-.25c-2-.14-3-1.89-4.5-2.83a14.56,14.56,0,0,1-1.51-1.32c-1.15-1.46-3.63-2-3.09-4.61l.12-.37C336.65,334.51,342.62,334.81,343,341Z" style="fill:#eee"/><path d="M379,330.82a5.69,5.69,0,0,1,1.19-.76c1.43-.46,3.66.85,4.25-1.08.51-1.66-1.72-2.47-2.59-3.77l1.23-.25a7.64,7.64,0,0,1,4.15,7.18Z" style="fill:#2f2f2f"/><path d="M346.07,134.93l-5-5.9c5.6.64,7.5,4.74,8.79,9.41C347.82,138.08,347,136.43,346.07,134.93Z" style="fill:#f5f5f5"/><path d="M454,379l1.89-1.15c.25,2.38-2.49,4.48-.69,7-2.49.07-3.53,3.37-6.3,2.84-.32-1.9,1.39-2.85,2-4.31.19-.36.4-.7.61-1a18.37,18.37,0,0,1,1.92-3.07Z" style="fill:#f6f6f6"/><path d="M335.23,238.13c-.22.57-.43,1.14-.64,1.72l-.75.7c-.49,3.06-3.11,2.78-5.21,3.34-1.44-.33-2.18,1.19-3.45,1.33l-.44-.51c0-1.86,1.41-2.71,2.74-3.59.78-.46,1.57-.9,2.31-1.41C331.51,238.87,332.76,236.37,335.23,238.13Z" style="fill:#272727"/><path d="M450,355c.26,1,.53,2,.79,3.07-.94.53-1.1,2.23-2.9,1.7,1.94-3.75-2.06-6.21-2.14-9.62l.2-.12C449.19,350.11,450.8,351.55,450,355Z" style="fill:#f7f7f7"/><path d="M342,385c0-.34,0-.68,0-1l1.15-.26c2.22-.87,5.77,1.16,6.5-3a1,1,0,0,1,.62-1c1.91.37,2.13,2.62,3.71,3.36.23,3.49-2.15,3.19-4.23,2.64A21.75,21.75,0,0,0,342,385Z" style="fill:#414141"/><path d="M363.9,348l-3.08-5.92,9.26,8.78a2.17,2.17,0,0,1-1.17.82c-1.47.2-2.27-.66-2.88-1.81C365.9,348.58,364.36,348.9,363.9,348Z" style="fill:#393939"/><path d="M388.08,343.87a2.7,2.7,0,0,1-.07-.94c5.78-1.11,10.1.95,13.07,6L400,349c-2,.34-2.72-1.62-4.21-2.18a8.83,8.83,0,0,0-1.72-.69,45.73,45.73,0,0,1-5-1.39A2.23,2.23,0,0,1,388.08,343.87Z" style="fill:#717171"/><path d="M429.1,374.92a3.08,3.08,0,0,1,.75.09c-.37,2.43.52,4.6,1.41,6.78l-3.17-1.87c-.82-1.79-3.2-2.62-3.1-5l.05-3C428.25,370.41,427,375,429.1,374.92Z" style="fill:#626262"/><path d="M350.84,360.43A42.24,42.24,0,0,1,345,345c2.88,2,2.38,5.51,3.77,8.2A17.94,17.94,0,0,0,352,358C351.06,358.54,351,359.51,350.84,360.43Z" style="fill:#f4f4f4"/><path d="M346.07,134.93l3.76,3.51c2.29,2.57,5.26,4.75,5.11,8.75l-.21,1.12-.63-.29-.45-1.82c-2.11-1.64-3.24-4-4.64-6.19C348.27,138.18,345.64,137.44,346.07,134.93Z" style="fill:#3b3b3b"/><path d="M397,383a7.89,7.89,0,0,1,1,0c.52,3.5,2.59.62,3.88.95-.51,2.09-3,2.12-3.94,3.77-.5.91-1.17.79-1.9.31.12-.78,1.13-2.2-.87-1.59-1.65.5-2.92.86-3.13-1.45l2-1A3.33,3.33,0,0,0,397,383Z" style="fill:#5b5b5b"/><path d="M187.07,244.92l7.85,3.15a17.33,17.33,0,0,1,5,4.07v-.07c.62.3.62.63,0,1A36.58,36.58,0,0,1,187.07,244.92Z" style="fill:#eee"/><path d="M418.18,322.06c-.82,3.9-2.94,7.58-1.94,11.78-1.21-.69-3,.34-3.94-1.39C417,330.54,413.77,324.15,418.18,322.06Z" style="fill:#fafafa"/><path d="M275.67,324.77l1.56-1.68c3.9-1.17,7.61-4.26,11.92-1.16a4,4,0,0,1-2.92,1.34,17.5,17.5,0,0,0-7.07,1.57C278.05,325.37,276.8,326.21,275.67,324.77Z" style="fill:#373737"/><path d="M225.83,408.46l-1.69-.72c-1.6-4.38-1-8.63.78-12.8l.59.5a7.14,7.14,0,0,1,.77,3.71C225.38,402.22,227,405.41,225.83,408.46Z" style="fill:#343434"/><path d="M371.84,332.85l1.29.19c-1.94,3.36-6.53,5.11-6,9.94-2.45-3.39,0-5.65,1.87-8C369.4,333.53,370.22,332.64,371.84,332.85Z" style="fill:#383838"/><path d="M366,349.86l2.7,1.23c1.26.78,2.92.66,4,1.77.84.17,1.72.25,2.22,1.11a22.63,22.63,0,0,1-8,0h0Z" style="fill:#f8f8f8"/><path d="M373.17,381.89c4,1.26,7.34,3.64,10.85,5.77l-6.91-1.74a10,10,0,0,1-3.13-2.69Z" style="fill:#414141"/><path d="M452.1,383.08c-.1,2.21-2,3.23-3.2,4.65-1.58-.41-2.77.39-3.93,1.27l-1.91.19c-.71-2.33,1.48-2.7,2.57-3.82C447.81,384.67,449.36,382.19,452.1,383.08Z" style="fill:#565656"/><path d="M444.92,341.14c1.52-.11,1.62,1.89,3,2,.72,1.8,3,2.58,3.17,4.73l-.52.49a2.77,2.77,0,0,1-1.4.07c-2.37-1-3.42-3.19-4.56-5.28A1.9,1.9,0,0,1,444.92,341.14Z" style="fill:#595959"/><path d="M371,378.94c-2.26-3.15.64-4.69,2.07-6.69,1.87,0,3.9-.23,4.1,2.51a4,4,0,0,1-.41.51C373.14,373.82,372.25,376.67,371,378.94Z" style="fill:#484848"/><path d="M325.18,245.22c-2.34,2.86-6.1,3.14-9,4.94l-.43-.59a3.62,3.62,0,0,1,2.19-3.49c2.24-.69,4.31-2.25,6.86-1.35C324.91,244.89,325.05,245.05,325.18,245.22Z" style="fill:#272727"/><path d="M437.76,383.84a1.31,1.31,0,0,0-.79.23c-.6.42-.94.26-1-.47,1.77-3,4.58-4.29,7.89-4.76l.28.34c0,1.3-1,1.78-1.81,2.48A10.67,10.67,0,0,1,437.76,383.84Z" style="fill:#f7f7f7"/><path d="M396,388l1.9-.31c-1.51,1.37-.94,2.95-.06,4.89l-4.91-1.78A7,7,0,0,1,396,388Z" style="fill:#f6f6f6"/><path d="M200,253q0-.48,0-1c3.69-1,5.78,2.82,9.09,2.93a1.14,1.14,0,0,1,.05,1.23,1.43,1.43,0,0,1-1.27-.12C204.82,256.06,203,253.12,200,253Z" style="fill:#151515"/><path d="M421.89,348.91a1.78,1.78,0,0,1-2.21,2c-.58-.06-1.54-.15-.94-1.07.26-.4,1.14-.39,1.71-.63a2.53,2.53,0,0,0-.23-.81c-.34-.61-2.5-.25-1-1.8a1.45,1.45,0,0,1,1.35-.11A2.47,2.47,0,0,1,421.89,348.91Z" style="fill:#fafafa"/><path d="M455.86,377.9c3.09-2.79,1.42-7,3-10.2C458.93,371.41,460.78,375.65,455.86,377.9Z" style="fill:#f6f6f6"/><path d="M384.2,383.71l-1.48-2.64c3.16,3.14,6.33.39,9.49,0C390.08,383.6,387.48,384.68,384.2,383.71Z" style="fill:#e9e9e9"/><path d="M403.83,379.07c.5-2.62-1-6.19,3.3-7-2.5,2.56-.88,6.47-3,9.14l-.38-1.38-.22-.4Z" style="fill:#535353"/><path d="M316,250.89l-8.67,3.35-.52-.39c0-1.31,1.08-1.83,1.89-2.55a6.79,6.79,0,0,1,1.78-1.05,6.69,6.69,0,0,1,1.39-.33A5.17,5.17,0,0,1,316,250.89Z" style="fill:#eaeaea"/><path d="M202,247l3,.06a.47.47,0,0,0,.71.17l3.81,1.95c-2.93,2.43-4.81-1.85-7.46-1.16q-.56-.32-.39-.66C201.81,247.07,201.93,247,202,247Z" style="fill:#282828"/><path d="M202.65,240.8a12.77,12.77,0,0,1-3.56-6.07C201.69,236.7,203.49,237.42,202.65,240.8Z" style="fill:#f7f7f7"/><path d="M268.13,346h-2c2.2-.92-.74-5.07,3.12-4.94A10.25,10.25,0,0,1,268.13,346Z" style="fill:#525252"/><path d="M120.06,192c2.45-1.41,3,.21,2.88,2.06-.16,2.09-1.35,2.5-3,1A5.08,5.08,0,0,0,120.06,192Z" style="fill:#949494"/><path d="M285.81,322.19l3.34-.26c.3.31.61.61.92.91.28.66.57,1.33.86,2l-2.95.08c-.46-.74-1.31-1-1.92-1.55A1.22,1.22,0,0,1,285.81,322.19Z" style="fill:#2e2e2e"/><path d="M306.55,346.91c-1.63-1.5-1.56,1-2.54,1.07-.28-2.41,1-3.9,2.89-5.08l.16.12a2.94,2.94,0,0,1,.61,3.3A1,1,0,0,1,306.55,346.91Z" style="fill:#f9f9f9"/><path d="M442.43,320.26c-.59-1.53-.85-2.79.57-4C444.56,318,443.48,319,442.43,320.26Z" style="fill:#fafafa"/><path d="M120.06,192c1.59,1.06,3.07,2.12-.08,3.06C118.6,194,118.39,193,120.06,192Z" style="fill:#5f5f5f"/><path d="M398.9,357.92c0,.69,0,1.38.05,2.07-1.27-.39-3.45-.17-3-2.11C396.31,356.4,397.88,357.61,398.9,357.92Z" style="fill:#f8f8f8"/><path d="M453.05,350.8,452,352c-2.65-.55-2-2.15-1.25-3.83l.31-.29A3.64,3.64,0,0,1,453.05,350.8Z" style="fill:#595959"/><path d="M218.26,259.79l-1.58.4a4.69,4.69,0,0,1-4.9-2,2,2,0,0,1,1.16-.77,10.23,10.23,0,0,1,4.86,1.14A1.32,1.32,0,0,1,218.26,259.79Z" style="fill:#3b3b3b"/><path d="M280,332.05c1.24-1.71,3.33-2,5-3.07,0,.39.07.78.11,1.18A7.63,7.63,0,0,1,280,332.05Z" style="fill:#444"/><path d="M328.63,243.89l5.21-3.34C334,244.56,331.17,244,328.63,243.89Z" style="fill:#f8f8f8"/><path d="M225.9,390l1.1,0c1.18,2.2.72,3.88-1.57,5l-.25-.05-.26.07C225.25,393.27,225.57,391.61,225.9,390Z" style="fill:#202020"/><path d="M366.09,376.72c-1.18-2.2-2.43-3.19-1.7-4.93C366,372.86,365.91,374.45,366.09,376.72Z" style="fill:#fafafa"/><path d="M388.11,390.64A3.24,3.24,0,0,0,392,391a1.81,1.81,0,0,1-2.14,1.88C388.4,392.79,388.05,391.88,388.11,390.64Z" style="fill:#f6f6f6"/><path d="M213,257.92l-1.23.24-4-2.05,1.15-.29C211.06,255.08,212.61,255.38,213,257.92Z" style="fill:#202020"/><path d="M447.41,365.34c-.23.11-.61.44-1,.44-.71,0-1.18-.46-.85-1.17.13-.27.79-.42,1.19-.4S447.68,364.51,447.41,365.34Z" style="fill:#f7f7f7"/><path d="M226.87,279.66c0,2.2,0,4.4,0,6.6C226.19,284.06,225.72,281.87,226.87,279.66Z" style="fill:#3b3b3b"/><path d="M423.57,344.34c.06.87-.27,1.34-.75,1.11a3,3,0,0,1-1.13-1.35c-.29-.59.17-1,.68-.75A4.76,4.76,0,0,1,423.57,344.34Z" style="fill:#fafafa"/><path d="M436,383.6l1,.47c-2.18,1.56-3.87,1.31-4.92-1.32C433.35,383.05,434.5,384,436,383.6Z" style="fill:#494949"/><path d="M354.42,230.52c-1.36.41-2.73-.28-2.63-1.12.2-1.6,1.28-.72,1.95-.07A5,5,0,0,1,354.42,230.52Z" style="fill:#f8f8f8"/><path d="M358.9,215l2-4.24C361.12,212.58,361,214.24,358.9,215Z" style="fill:#f8f8f8"/><path d="M374,383.23a6,6,0,0,1,3.13,2.69A2.72,2.72,0,0,1,374,383.23Z" style="fill:#fafafa"/><path d="M304.09,256l-.07-1a.87.87,0,0,1-.33-.78c0-.29.1-.43.17-.43a2.76,2.76,0,0,1,1.27-.57A2.15,2.15,0,0,1,307,254l.27.22C306.94,256.12,305,255.18,304.09,256Z" style="fill:#eaeaea"/><path d="M451.08,358.67c1.24,1.26.89,2.8.78,4.31C449,362,451.73,360,451.08,358.67Z" style="fill:#f7f7f7"/><path d="M179.91,229.49a4,4,0,0,1-3-3.43A4.2,4.2,0,0,1,179.91,229.49Z" style="fill:#f7f7f7"/><path d="M367,354c-.13,1-.35,1.94-1.66,1.84-.22,0-.61-.39-.58-.52.26-1.21,1.3-1.19,2.24-1.31Z" style="fill:#f8f8f8"/><path d="M316,250.89l-5,.22c.85-3.31,2.84-2.31,4.83-1.28l.34.33A1.86,1.86,0,0,1,316,250.89Z" style="fill:#222"/><path d="M316.34,332.13c-.82,1.1-1.68,2.13-3.24,2.07C313.61,332.61,314,330.79,316.34,332.13Z" style="fill:#f9f9f9"/><path d="M314,118c1.33,2.44,2.48,1.41,2.4-.47-.13-3.51,1.29-2.56,3.12-1.5,2.06,1.19,3.71,3.25,6.43,3.1,2.42.73-.16,2.82,1.05,3.88.25.72,1,1.2,1,2-.9,2.92-2.67.72-3.87.49-4.09-.8-7.54-3.41-11.82-4-3.2-.44-6.16-.81-9,.88-1.56.92-2.83-.45-4.27-.36-1.08,1.74-2.47,1.34-3.77.42-2.53-1.78-4.88-1.62-7.07.51a4.74,4.74,0,0,1-3,1.18c-2.12.31.44,1,.15,1.74A12.93,12.93,0,0,1,284,129l-2,2c-.91-1.91-1.73-3.92-4.16-1.34-1.36,1.43-2.38.39-2.07-.92s.9-2.58-.61-3.35c-2.16-1.09-1.75,2-3.51,2.24-1.13-2.25-3.47-4.35,0-6.61-1.22-1.35-2.48-1-3.55-1-1.85.14-4.13-3.3-5.43.15-1.07,2.84,3.28,1.38,3.63,3.69-3,3.08-6.29-2.54-9.3.13.28,3-2.19,3.15-4,4-1.54,1.87-3.06,3.84-6.91.5,5.78,1.58,4.64-2.51,5.91-4.5-.08-2.3,1.57-2,3-2,1.85-1.11.23-2.73.6-4.06.53-1.94-.58-3.69-.7-5.55,3.51.49,5.85-4,9.86-2.17,1,.44,3.68,2.07,4.24-1.2,4.41-2.17,9.08-.41,13.61-.84,6.54-.62,13,.83,19.4,1.82,2.13.32,4.4.19,5,3-.09.19-.17.38-.24.55-.25.34-.69.48-1,.79.42.24,1,0,1.37.35a13.84,13.84,0,0,1,1.55,2c1.14,1.43,2.67.94,4.12.83A1.71,1.71,0,0,1,314,118Z" style="fill:#010101"/><path d="M238,158.05c-1.61-2.29-.33-6.15-4-7.41-.22-.07,1.27-1.09,2-1.6.42-.46.64-1.1,1.21-1.44a2.08,2.08,0,0,1,1.86.24,2.42,2.42,0,0,1,.34,1.25c.82,2.56,2.09,4.39,5.22,3.25a2.57,2.57,0,0,1,2.56-.36c1.17,1.6.39,3.16-.16,4.69a3.25,3.25,0,0,0,1.35,4.27,9.21,9.21,0,0,1,1.65,5.1c-.21,3.55-5.47,3.15-5.38,6.81.07,2.89-1.65,4.58-3.61,6.2a1.74,1.74,0,0,1-1.19.56c-1.52-.2-3.28-1.79-4.36.72-1.22,1.35-2.11,3.24-4.47,2.7,2.91-3.79-.63-8.1,1-12,2.13-.26,3.91-.91,3.86-3.54a7.3,7.3,0,0,1,.74-1.1c.87-.95,1.45-2.17,2.57-2.91,1.12-1.42,3.35-1.89,3.5-4.11,0-.27,0-.75-.18-.76-.68-.06-.7.64-1,1-.73,1.47-1.4,3-2.91,3.83-2.14.15-2.75-1.23-3-3S237.12,158.77,238,158.05Z" style="fill:#171717"/><path d="M240,179h1.05c1.19,1,1.92,2.94,4.07,2.07a3.33,3.33,0,0,1,.63,3c-2.62,6.64-2.47,14.16-6.44,20.37-1.49,2-.94,4.66-1.91,6.85-1.25,3.53-.23,7.08-.12,10.62.06,2.1.56,4.21-.31,6.26a3.51,3.51,0,0,1-2,2.08c-1.91-.25-2.09-1.91-2.68-3.24a8.72,8.72,0,0,1-.27-3.59c.13-.9.41-1.77.61-2.65a8.58,8.58,0,0,0-.17-4.44,6.46,6.46,0,0,1-.18-1.31c.24-2.21.78-4.4.41-6.65a11,11,0,0,1,.64-5.44c1.12-2.22,1.76-4.65,2.89-6.86,1.69-1.68.75-3.46.19-5.23a4.33,4.33,0,0,1,.2-1.28c.68-2.06,2.25-3.64,3.15-5.58C241,182.42,238.85,180.63,240,179Z" style="fill:#141414"/><path d="M250,137c.14,1.32.37,2.93,1.65,3.24,1.08.26,1.82-1.17,2.33-2.18a3.27,3.27,0,0,1,3-2.06c1.55-.16,2.24,1,3,2,.41,3.45,4.34,8.24-3.28,8.66-1.38,4.1-7,4.69-7.71,9.34-1.62-1.9-1-3.89-.26-5.88,1.06-1.53,1.46-3.8,4.09-3.73-1.34-2-4.43-1.83-5.39-4.28a7.68,7.68,0,0,1,1.19-5A1,1,0,0,1,250,137Z" style="fill:#101010"/><path d="M280.12,133.33c6.76-5,14.8-6.76,22.6-9.43,6.31-2.17,11.27-.64,16.63,1.5a48.48,48.48,0,0,1,4.82,2.57,2.27,2.27,0,0,1-1.26.82,3.34,3.34,0,0,1-2-.12c-7.32-3.41-14.65-2.6-22.27-.83a36,36,0,0,0-16.52,8.51c-1.45,1.31-2.75,2.92-4.88,3.24a2,2,0,0,1-1.38-.58C276.59,136.59,279.1,135.51,280.12,133.33Z" style="fill:#f3f3f3"/><path d="M228,242l1.2-6.91a10.46,10.46,0,0,1,1-1.84c1.05-.77,2.1-1.22,3.14,0,.35,2.16-.18,4.27-.32,6.41-.28,4.38,2.32,8.31,2,12.72-.27,3.8-1.63,4.68-5.21,3.17.63-1.24,1.5-2.41,1.3-4.09-.61,1.17-.3,2.47-1,3.47a3.1,3.1,0,0,1-2.26,1.43c-1.16-.23-1.43-1.07-1.44-2.09a18.33,18.33,0,0,1,.32-2.08,38.61,38.61,0,0,0,.49-4.14C228.21,246.11,226.62,243.86,228,242Z" style="fill:#4c4c4c"/><path d="M230.06,234l-.91,1c0-10.9,0-21.8-.16-32.7,0-1.91.82-3.51,1.08-5.29a1,1,0,0,1,1.28,0,4.09,4.09,0,0,1,.64,1.31,14.81,14.81,0,0,1,.23,3.58c0,1.6-.51,3.15-.61,4.75-.13,2.21,1.36,1.31,2.4,1.3a20,20,0,0,1-1,8c-2.7,2.64-1.21,6-1.6,9.09C231.32,228.14,232,231.27,230.06,234Z" style="fill:#2e2e2e"/><path d="M241,185q-2,2.49-4,5c-3-.28-3.57,2.2-4.73,4-1.18.63-1.67-.26-2.22-1,1.08-3.26-1.25-6.86,1-10l4-3C237.47,181.12,238.3,184.16,241,185Z" style="fill:#1e1e1e"/><path d="M244.84,183.88c.09-.92.19-1.84.29-2.76l0,0c1.14-2.8,1.95-5.78,4.22-8,3.38-2.17,6.47-4.63,8.52-8.18a1.06,1.06,0,0,1,1.28-.12c-.59,4.26-2.38,7.74-4.75,11.49s-6.67,4.57-8.94,7.9Z" style="fill:#f7f7f7"/><path d="M259,165.05l-1.18-.07a77.76,77.76,0,0,1,18-26l1.15.08c.75,2.52-.94,4.11-2.46,5.49-5.23,4.71-8.84,10.52-11.93,16.73C261.86,162.92,261.06,164.6,259,165.05Z" style="fill:#f4f4f4"/><path d="M249,137a8.25,8.25,0,0,1-1,5c-5.29-1-9.14.65-11,6l-1,1c0-1.33,0-2.66,0-4-1.63-1.34,1-2.66,0-4a2.07,2.07,0,0,1,1-2c1.87-1,4.15-.87,6-2h1c1.24.77,1.58-.65,2.37-1C247.52,135.61,248.88,134.73,249,137Z" style="fill:#111"/><path d="M243,137.05c-1.23,3-3.44,3-6,2,.12-2,4.51-4.55-.91-5.74a1.58,1.58,0,0,1-.66-2.51c.63-1,1.74-.78,2.71-.53C241.68,131.15,242.31,134.13,243,137.05Z" style="fill:#040404"/><path d="M239,164a3,3,0,0,1-2,3h0c-1.12,2-.9,5.73-5,4,2-1.08,3.15-1.88,1.46-4.63-2.23-3.64-.2-6.81,4.56-8.35-2.4,2.2-2.32,3.91,1,5,.31.22.41.45.31.67S239.13,164,239,164Z" style="fill:#141414"/><path d="M249,137c-1.67-2.58-3.32,2.6-5,0,1.32-3.45,5.32-3.28,7.61-5.54.82-.81,2,.35,1.64,1.94-.45,1.82-2.27,2.32-3.27,3.59Z" style="fill:#191919"/><path d="M250,150.05c-1.2,1.86-1,3.94-1,6a6.44,6.44,0,0,0-1,4c.25.23.33.46.24.68s-.17.33-.26.33c-2.72-.72-3.24-2.41-2.07-4.79A7.68,7.68,0,0,0,247,152c-1.05-2-1-3.43,1.89-3A2.56,2.56,0,0,1,250,150.05Z" style="fill:#131313"/><path d="M230,139.05c-1.42-.13-3.12-.68-2.59-2.21.8-2.31,3.34-1.46,5.16-1.64,1.23-.13,2.21.7,1.69,2.27-.3.92-.27,2-1.26,2.58C232.15,139.35,231.41,138.24,230,139.05Z" style="fill:#040404"/><path d="M248,161c0-.33,0-.67,0-1,1.73.29,4.48-.77,4.32,2.13,0,.73,1.57,4.6-2.3,3.88A5.76,5.76,0,0,1,248,161Z" style="fill:#0b0b0b"/><path d="M253,128.05c1.33-1.33,2.67-2.66,4-4,3.16.82,1.85,2.33.62,3.88C256.13,129.84,254.62,130.34,253,128.05Z" style="fill:#070707"/><path d="M236,141c1.79,1.35-.36,2.67,0,4-1-2.2-3,2.61-3.88-.53C231.14,140.82,235,142.47,236,141Z" style="fill:#040404"/><path d="M228,242c.09,2,2.4,4,.13,6.06a.93.93,0,0,1-1.22.12c-.71-.87.32-2.41-1.16-3-1.53-1.27-.22-2.15.43-3.12l1,0Z" style="fill:#1b1b1b"/><path d="M255,122.05l-3,2c-1.51-.26-2.75-1.18-1.28-2.38C251.64,120.94,254,118.45,255,122.05Z" style="fill:#070707"/><path d="M260,138.05l-3-2c.16-1.09.21-2.66,1.69-2.31C261.22,134.32,260.26,136.39,260,138.05Z" style="fill:#090909"/><path d="M249.33,173.16c-1.4,2.66-1.75,5.88-4.22,8C244.17,177.24,246.76,175.2,249.33,173.16Z" style="fill:#141414"/><path d="M230,193l2,1c.92,1.42.38,2.34-1,3l-.93.08Z" style="fill:#141414"/><path d="M230,139.05c1.66-1.64,2.6-1.14,3,1Z" style="fill:#0f0f0f"/><path d="M316.14,373.75c.84,3.56.35,4.54-2.11,4.18-1.78-.89-2.84-2.58-4.28-3.85-1.9-1.56-3.59-3.26-3.85-5.88-.19-2.12-2.36-4-.82-6.33,3.48.11,3.73,3.59,5.85,5.53a28,28,0,0,1,2.63-6c1.78-3.09,4.89-4.17,8-5.31,3.58-.13,7.05-1.6,10.7-1,.61.18,1.61.38,1.64.83.27,3.37,2.13,2.11,3.81,1.41.54-.38,1.08-.75,1.6-1.15,1.2-.87,2.39-2.34,3.67-.1.31,7,.38,6.39-7,5.61-6.3-.67-12.93-.84-18.89,2.48C314.41,367.1,316.91,370.58,316.14,373.75Z" style="fill:#090909"/><path d="M349,380c-5.62-3.49-11.22-1.65-16.83,0-1.71,2.55-4,1.31-6.15.93v0c-.53-.82-1.82-.23-2.26-1.21,6.89-.46,13.5-2.74,20.45-3,2.86-.12,4.82.34,6.08,2.93l-.48.55A.49.49,0,0,1,349,380Z" style="fill:#414141"/><path d="M323.71,379.79,326,381c-1.1-1.51-3.49,2.89-4.09-.9l1.46-.33Z" style="fill:#2a2a2a"/><path d="M225.7,245.17c1.56.4,1.19,1.77,1.41,2.84,1.13,1.49-.44,3.46.86,4.93l-.9,1.08c-.7,1.82-1,3.82-2.31,5.38a6.8,6.8,0,0,1-4.14-1c-.93-1-1.62-2-.6-3.35l4-1.42c-3.92.06-7.15-2.42-10.91-2.62-.28-.22-.38-.45-.3-.68s.17-.36.26-.36a45.44,45.44,0,0,1,5.74.91C225.89,252.91,226.16,252.72,225.7,245.17Z" style="fill:#3b3b3b"/><path d="M220,255l1,3c-.28,2.52-1.87,1.33-3.13,1.1a7.86,7.86,0,0,1-4.91-1.16,7.33,7.33,0,0,0-4-2.1A4.47,4.47,0,0,0,209,255c-.28-.83-1-1.69.1-2.45A1.2,1.2,0,0,1,211,253c1.57.78,2.88,2.8,5,1.06A7.29,7.29,0,0,0,220,255Z" style="fill:#1d1d1d"/><path d="M189.09,236.88c5.35,1.26,9,4.77,11.95,9.13-.74,1.1-1.56,2-3,1,.08-4.3-4.56-4.66-6.32-7.49C191.13,238.56,189.34,238.44,189.09,236.88Z" style="fill:#282828"/><path d="M216,254c-.16.76-.33,1.53-.5,2.29-1.93-.53-3.87-1-4.48-3.35Z" style="fill:#202020"/><path d="M199.94,252.14c-2.09-.84-4-1.87-5-4.07C197.3,248.55,199.82,248.86,199.94,252.14Z" style="fill:#282828"/><path d="M213.07,249.93c0,.35,0,.69,0,1-1.3-.33-3.46,1.08-3.52-1.75A3.72,3.72,0,0,1,213.07,249.93Z" style="fill:#151515"/><path d="M153.75,206.25c2.15.45,3.29,2,4.3,3.77l-1.21.09Z" style="fill:#686868"/><path d="M198,247l3-1,1,.94c0,.34,0,.68.05,1C200.68,247.88,199.11,248.49,198,247Z" style="fill:#151515"/><path d="M354.1,148a1,1,0,0,1,.63.29c.83,2.9,3.73,4.62,4.35,7.64-.49.45.2-.14-.31.28-.11.1,0,0,.3-.28l3,5.07c-1.07,4.4,1.64,8.49,1,12.91-.24,1.74.25,3.57-1,5.12-2.37.31-2.32-1.62-2.32-2.92a32.06,32.06,0,0,0-8.92-22.49,10.94,10.94,0,0,1-2.13-3.91,9.84,9.84,0,0,1-.43-1.43,2.69,2.69,0,0,1,.47-2.11C350.81,146.19,351.08,151.05,354.1,148Z" style="fill:#0f0f0f"/><path d="M284,129c-.12-1.57,1.25-3.84-1.86-4,.07-.87-.68-2.7-.11-2.45,4.53,2,7-3.65,11.44-2.66,2.07.46,2.63,4.42,5.53,2.18-.42,2.65-2.94,2.88-4.48,2.77C290.19,124.49,287.22,126.91,284,129Z" style="fill:#020202"/><path d="M348.84,146.19c.11.57.21,1.15.31,1.72-2.25,1.65-3.39-.39-4.45-1.6-5.71-6.55-13-10.93-20.41-15.14a2.33,2.33,0,0,1-1.29-2.89l1.17-.31c4.35.09,6.81,4.2,10.78,5.1,5.16,3.83,10.41,7.56,13.91,13.15Z" style="fill:#f7f7f7"/><path d="M348.86,146.22,335,133.07C340.87,136.09,346.27,139.67,348.86,146.22Z" style="fill:#0f0f0f"/><path d="M349,140c2.16,1.61,4.22,3.28,4.64,6.19C349.26,146.27,349.44,142.91,349,140Z" style="fill:#0f0f0f"/><path d="M328,125.05c-.63-.52-2.23-.56-1-2a8.62,8.62,0,0,1,2.15.81c.54.38,1.62.84.93,1.74C329.9,125.81,328.72,125.25,328,125.05Z" style="fill:#0a0a0a"/><path d="M425,336.93l.18-1.37,15.07,3.29a2.52,2.52,0,0,1-1.22,1,12.47,12.47,0,0,1-3.89.47A9.41,9.41,0,0,1,425,336.93Z" style="fill:#353535"/><path d="M438.79,339.27l1.42-.42c2.09-.31,3.11,1.59,4.71,2.29,0,.59.09,1.17.14,1.75l-.51.46C441.81,343.14,440.19,341.36,438.79,339.27Z" style="fill:#2a2a2a"/><path d="M276,328c-2.31.85-4.91,1.26-6.08,3.89-1.46,1.63-3.64,1.9-5.44,2.89-2.56.23-2.69,3.07-4.46,4.16-2.79-2.35.94-5.5-1-8a2,2,0,0,1,1.94-1c4.16,1.56,6.5-2.94,10.21-3.09a13.51,13.51,0,0,0,3.63-1.22c.86.29,1.82.38,2.37,1.26C277.27,327.78,277,328.23,276,328Z" style="fill:#1b1b1b"/><path d="M266,345.92A25.75,25.75,0,0,1,264.05,358c-.08-.31-.07-.82-.25-.91-4.11-1.84-4.94-5.11-2.81-11.15.55-.37.66,2.75,1.47.19.33-1.06.39-2.19.81-3.23a1.55,1.55,0,0,1,1.65-1C265.2,343.23,264.52,344.85,266,345.92Z" style="fill:#2e2e2e"/><path d="M264,361c1.66,2.08,1,4.4.6,6.64-.52,3.16-1.89,6.14.1,9.47.9,1.52.58,4.11-2.68,2.9a1.36,1.36,0,0,0,.7-1.63C261.1,372.41,260.12,366.51,264,361Z" style="fill:#525252"/><path d="M264,342.93c.14,2.33-.1,4.53-2.17,6.46-1.21-1-.61-2.34-.82-3.45.05-2.37,1.17-4.89-.93-7,.76-2.11.16-5.29,4-5,.74,1.1.28,2.29.3,3.45C264.24,339.25,263.58,341.06,264,342.93Z" style="fill:#464646"/><path d="M261,330a2.06,2.06,0,0,1-1.94,1c-1.45-.61-2.1-.25-2.08,1.44,0,3.3-.06,6.6-.11,9.9-1.56-4.45-1.11-9-1-13.61,0-1.38-.43-3.42,1.41-3.79,2.1-.42,2.45,1.72,3.09,3.18C260.68,328.72,260.82,329.36,261,330Z" style="fill:#121212"/><path d="M343,356c-1.47-1.23-2,.51-3,.92-1.81-1.27-2.07-3.21-2.17-5.17A8.49,8.49,0,0,0,335.6,346c-1.78-1.83-4.05-.89-6.11-1.12-3.23-.35-3.32-1.64-1-3.57a30.52,30.52,0,0,1,5.51-2.76,2.23,2.23,0,0,1,1.38,0c1.85,1.07,2.57.37,2.61-1.55,2.13.41,3,2.23,4.08,3.75C342,345.89,344.88,350.81,343,356Z" style="fill:#212121"/><path d="M346.92,359.68c-3.65-.73-2.88-2.84-2.62-5.38Z" style="fill:#494949"/><path d="M277,327a2.24,2.24,0,0,1-2.17-1.32l.81-.91c3.69.38,6.25-3.72,10.14-2.58a1.94,1.94,0,0,1,.22.78c.4.81-.08,1.25-.7,1.65a5.34,5.34,0,0,1-3.35.31,7,7,0,0,0-4,2A.56.56,0,0,1,277,327Z" style="fill:#0f0f0f"/><path d="M349,380a2.19,2.19,0,0,1,.8.2c.86,1.15,1.86,2.24,1.77,4.11l-8.42-.66C345.34,382.92,347.54,382.1,349,380Z" style="fill:#1b1b1b"/><path d="M326,381c1.86-1.55,4.26.43,6.15-.93.25,1,3.35,2.21-.1,2.75C329.91,383.18,327.37,383.69,326,381Z" style="fill:#2a2a2a"/><path d="M305,254.08l-.19.21-.27-.11c-2.62.64-5.27,1.18-7.53,2.81L296,258c-1.57,1.9-4.15.92-6,2.1-1,.45-2,.78-3,0-1.57-.77-2.67.49-4,.89-1.64,2.25-4.13-.32-5.93,1-.27,0-.54,0-.8.06a20.88,20.88,0,0,1-8.48,0c-2.64-.55-5,1-7.57,1-1,.45-1.86.56-2.46-.57,0-1.38.88-2.16,1.84-2.9a5,5,0,0,1,1.23-.53,9.57,9.57,0,0,0,4.17-1.43,5.25,5.25,0,0,1,2.55.18c1.43.39,2.83,1,4.36.67a37.55,37.55,0,0,1,3.93-.82c1.6-.2,3.11-.79,4.69-1.07,1.36-.34,2.7-.76,4.09-1,1.87-.59,3.74-.22,5.61,0a6.4,6.4,0,0,0,5.25-2,12,12,0,0,1,6.29-3.37c1.87-.42,3.57-1.31,5.39-1.87a3.3,3.3,0,0,1,2.2.37c.84.74,1.41,1.55.81,2.7l-.79.73C307.79,252.5,306.19,252.83,305,254.08Z" style="fill:#141414"/><path d="M249,264l-9-.29a15.46,15.46,0,0,0-8.43-3.58,2.35,2.35,0,0,1-1-1.64c-.07-.68.17-1.74.75-1.6,3.44.81,2.61-6.05,6.79-3.71,8.92-.08,17.85.6,26.75-.27,2.51-.19,5-.52,7.47.37a1.74,1.74,0,0,1,1,1.17c-.33,1.52-1.71,1.48-2.8,1.88-1.14.21-1.58,1.29-2.36,1.95a1.56,1.56,0,0,1-1.18,0,2.53,2.53,0,0,0-3.1-1.19,22.3,22.3,0,0,1-3.55.31c-3.4,0-6.79,0-10.18,0-2.89-.41-5.73.56-8.62.38-.66,0-1.08.14-.42.12.13,0,.33.51.59.74.91,1.28,2.84,1.16,3.57,2.64-.17,1.37-1.21,1.11-1.86,1.26,1.37.29,2.95-1.05,4.59-.26C248.69,262.61,249.23,263.06,249,264Z" style="fill:#2a2a2a"/><path d="M237.12,254c-.62,0-1.73-.19-1.78,0-.55,1.81.22,4.48-3.5,3.61-.93-.21,0,1.56.22,2.41-.12.58-.72.67-1,1-2.64,2-1.58,4.53-1,7-.34.49-.67.47-1,0-1.36-1.44-1.65-3.3-1.95-5.15.65-1.16-.25-2-.67-2.89a4.87,4.87,0,0,1-.23-1.31A3.21,3.21,0,0,1,228,256a2.23,2.23,0,0,1,2-1h0c3.47,2,3.81-.23,3.85-2.83C234,248,231.28,244.27,232,240a5.36,5.36,0,0,1,.83-.75c1-1.45.67-3.17,1-4.76.29-1.13,0-2.3.3-3.42a3.88,3.88,0,0,1,.77-1.18c.38-.62.75-1.25,1.12-1.87a.93.93,0,0,1,1.4.38Q237.4,241.21,237.12,254Z" style="fill:#3a3a3a"/><path d="M230,287a24.36,24.36,0,0,1-1-8c0-1,0-2,0-3-.44-.5-.23-.88.23-1.19.8.11.2-.35.16-.49s-.23-.49-.3-.78c-.1-1.65-.23-3.3,1-4.64,2.39,3.73,6.54,6.75,4.84,12.11L233,282c-1.33,1.82.24,4.14-1,6l-1.51,1.2Z" style="fill:#444"/><path d="M249,264l-1-1a1,1,0,0,1,0-1.31c1.47-1,3.22-1.21,4.88-1.64a6.62,6.62,0,0,1,3,.11,2.41,2.41,0,0,1,1.56,1.46c.16,1.76-1.28,1.77-2.37,2.15Z" style="fill:#1b1b1b"/><path d="M231,261l1-1a40,40,0,0,0,6.06.39c3.27-.26.26,2.83,1.93,3.29-1.24-.25-2.68,1.27-3.73-1C235.37,260.64,233,261,231,261Z" style="fill:#3b3b3b"/><path d="M230.14,268.93c0,2-.07,4.05-.11,6.08h0l-1,1c-2.19-2.67-.37-5.35,0-8h1C230.05,268.32,230.09,268.62,230.14,268.93Z" style="fill:#272727"/><path d="M232.56,266.4a1.85,1.85,0,0,1-1.42-2.06c0-.9.49-1.72,1.43-1.68a1.27,1.27,0,0,1,1.1,1.81A8.52,8.52,0,0,1,232.56,266.4Z" style="fill:#717171"/><path d="M267.79,262.12l8.48,0A10.9,10.9,0,0,1,267.79,262.12Z" style="fill:#1d1d1d"/><path d="M255.09,263.77,257,262a.67.67,0,0,1,1,.05c.47.87,1.34.94,2.18,1.07C258.61,264.13,256.84,263.9,255.09,263.77Z" style="fill:#1d1d1d"/><path d="M226.34,361c0-1.59,0-3.18,0-4.77,1.64-5.17.47-10.48.68-15.71.32-7.75.23-15.52.31-23.29.31-1,.61-2.06.91-3.1a.78.78,0,0,1,1.15.08,3.54,3.54,0,0,1,.57,1.92c0,1.34.67,2.59.51,3.95a8.22,8.22,0,0,0,0,1.11c0-.62,0-1.25,0-1.88-.12-1.47-.65-2.9-.49-4.4a3.8,3.8,0,0,1,1-2.9l1-1c.35-.49.67-.44,1,.06,0,2,0,4,0,6a9,9,0,0,1,.14,6c-.25,2.29.25,4.73-1.33,6.75a6.21,6.21,0,0,1-1.05,1.53c-.29,1.24-1.08,2.43-.38,3.74.31-.68.61-1.31,1.5-.79L232,342a8.89,8.89,0,0,1,.15,5.89c-2.73.84-2.26-1.31-2.62-2.54a5.28,5.28,0,0,0,.38,2.45,19.55,19.55,0,0,1,.67,3.39,4.49,4.49,0,0,1-.24,1.41c-1.73,2.53-.35,5.8-2,8.35A1.47,1.47,0,0,1,226.34,361Z" style="fill:#131313"/><path d="M229,314a2.44,2.44,0,0,0-.71.1V300l.47,0q.65,6,1.28,12C230.6,313.14,229.89,313.63,229,314Z" style="fill:#222"/><path d="M233.93,293.16q.06,4.92.1,9.84a1.72,1.72,0,0,1-2.15.15A1.69,1.69,0,0,1,232,301C232.28,298.29,231.32,295.29,233.93,293.16Z" style="fill:#070707"/><path d="M232.1,302.92,234,303,233,311l-1-.06c0-2.05.2-4.13-1-6C231.62,304.43,231.2,303.33,232.1,302.92Z" style="fill:#292929"/><path d="M232.1,302.92A2.38,2.38,0,0,1,231,305c-.54-1.54-2.3-3.39,1-4C232,301.64,232.07,302.28,232.1,302.92Z" style="fill:#414141"/><path d="M229,314l1-2h1c0,1,0,2,0,3-.56.51-.83,1.63-2,1Z" style="fill:#343434"/><path d="M232,288c.33-2-.82-4.23,1-6C232.68,284,233.84,286.23,232,288Z" style="fill:#424242"/><path d="M229,294.92a3.31,3.31,0,0,1,0-4.9Z" style="fill:#0e0e0e"/><path d="M308,117.06a2.07,2.07,0,0,1-1-2,1.36,1.36,0,0,1,0-2h0c2.3-.3,1.69,3.28,4,3a1,1,0,0,1-.18,1.35A2.23,2.23,0,0,1,308,117.06Z" style="fill:#0a0a0a"/><path d="M311,117.06c0-.34,0-.68,0-1,2.61-1.78,2.55.49,3,2l-1,0C311.88,118.62,311.39,117.94,311,117.06Z" style="fill:#141414"/><path d="M427.91,324.92l-2,.06c-1.37.17-3-.51-3.94,1.12.06,1.58-.55,2.38-2.24,1.89a1.57,1.57,0,0,1,.2-2c-.11-1.71.18-3.22,2-4,1.07.34,1.91.28,2-1.13,2.08-3.21,5.34-1.38,8.06-1.89a2.15,2.15,0,0,1,2,1l1.09,1.91a3.17,3.17,0,0,1-2,1.7C431.34,324,429.15,322.7,427.91,324.92Z" style="fill:#2a2a2a"/><path d="M425,336.93c3.4.5,6.18,3.8,10.05,2.21a2.29,2.29,0,0,1,.64,1.76c-.29,1.18.63,2.79-1.22,3.4-1.94-1.26-4.82-.22-6.31-2.57C426.94,340.21,424.37,339.61,425,336.93Z" style="fill:#111"/><path d="M428.12,341.73l6.86,1.9c1.06-.61,2.12-.2,3.18,0,.65.11,1.29.24,1.93.38a9.81,9.81,0,0,1,1.28.37c1.91,1,4.59.89,5.11,3.75a1.38,1.38,0,0,1-.75,1c-4.15-2.54-8.92-3.39-13.48-4.76a15.94,15.94,0,0,1-5.38-2.4Z" style="fill:#494949"/><path d="M420,326c0,.7,0,1.39.08,2.08A1.31,1.31,0,0,1,420,330c0,.68-.05,1.36-.08,2-.29.6-.33,1.33-.9,1.79C417.91,331,416.32,328.16,420,326Z" style="fill:#121212"/><path d="M424,320.86c.8.63,2.37,1.13.56,2.32-1.37.89-2.44.79-2.54-1.19Z" style="fill:#0c0c0c"/><path d="M420,330l.09-1.94,2-1.94C423.19,328.38,423.69,330.29,420,330Z" style="fill:#464646"/><path d="M419,333.81l.91-1.79c.38,1,1.38,1.8.8,3Z" style="fill:#0f0f0f"/><path d="M230,351c-1.15-.7-.93-1.85-1-2.92.62-.71,1.3-.06,2-.08,1.75-1.77.72-4,1-6,.87.49,1,1.39,1.14,2.24q-.18,19.75-.37,39.52a5.66,5.66,0,0,0-.72.28,2.47,2.47,0,0,1-1.8-1.77c.4-5.71.45-11.44.37-17.17C230.33,360.38,231.37,355.63,230,351Z" style="fill:#353535"/><path d="M231.88,334.23c-1.16.59-.78,1.69-.9,2.63-2.71-2-1.37-4.46-.88-6.84l1.71-.27C231.83,331.25,231.85,332.74,231.88,334.23Z" style="fill:#353535"/><path d="M233.14,323c0-2-.09-4-.14-6C234.53,319,234.31,321,233.14,323Z" style="fill:#313131"/><path d="M437.76,383.84c.33-2.14,2.61-1.86,3.75-3a4.77,4.77,0,0,1,2.22-.24c1.28,4.53-1.37,6.89-4.84,8.81a5.2,5.2,0,0,1-3.47-.89L435,388a3.88,3.88,0,0,1,2.65-2.05C439.08,385.42,438.81,384.62,437.76,383.84Z" style="fill:#494949"/><path d="M420.75,376.11c-1.67-2.55-1.11-5.4-.49-8,.72-2.95,2.32-2.77,3.63-.12-.56.74-1.46.49-2.19.74C420,371,421.42,373.71,420.75,376.11Z" style="fill:#8f8f8f"/><path d="M425,374.94c1.36,0,.05,2.82,2.78,2.14,1.94-.48.27,1.8.31,2.84C425.42,379.28,424.6,377.48,425,374.94Z" style="fill:#3d3d3d"/><path d="M429.1,374.92c-2.4.46-1.82-3.18-4.06-2.95,0-.4.09-.79.13-1.19C428.12,370.61,428.09,373.25,429.1,374.92Z" style="fill:#656565"/><path d="M430.85,389l-1.19-.89L435,388l0,0C434.17,390.62,432.39,389.32,430.85,389Z" style="fill:#494949"/><path d="M421.7,368.77l2.19-.74c.76.81,1.5,1.63,1.21,2.88Z" style="fill:#3d3d3d"/><path d="M371,378.94c1.25-5.28,2.21-5.89,5.76-3.67a1.77,1.77,0,0,1,.24.7c-5.34-1.53-2.21,3.61-3.9,5C373,379.69,371,380.35,371,378.94Z" style="fill:#0f0f0f"/><path d="M361.83,179.36a35.68,35.68,0,0,0-1.73-16.49c-.84-2.24-.42-3.12,2-1.85a10.44,10.44,0,0,1,2.23,9.1c-.89,4.94,1.37,9.89,2.51,14.79-.39.9-1.17,1.84-1.11,2.71.68,10.14-4.53,18.37-8.55,27a4.26,4.26,0,0,0-.14,1.45c-7.55,7.09-13.21,16-21.81,22.06-2.55-.56-3.35,2.07-5.18,2.83a3.06,3.06,0,0,1-1.12-1.71,5.49,5.49,0,0,1-.14-3.4c1.2-1.38,3.06-3.64,4.06-3.32,3.38,1.09,2.07-1.51,2.6-2.64.48-3.18,4.42-3.76,5.08-6.8a4.32,4.32,0,0,1,2.35-2.36c2.36-.54,3.58-2,4.32-4.35,1.06-3.43,4.7-5.38,5.66-9,.84-2.83,2.35-5.36,3.47-8.07,2.73-5.09,3.09-10.8,4.24-16.29C360.84,181.75,360.78,180.37,361.83,179.36Z" style="fill:#070707"/><path d="M372.77,352.86a3.89,3.89,0,0,1-4-1.77l1.35-.24,6-.07a5,5,0,0,1,3.11-1.12c2.19,0,4.38-.12,6.57-.05,1.58,0,3.16,0,4.73,0,1.22,0,2.45,0,3.66.09,1.76,0,3.49.6,5.27.32l.62-.15c3.07,1.26,1.94,3.84,1.93,6.07a7.23,7.23,0,0,1-.29,3.3,1.82,1.82,0,0,1-.95.9c-2.19-8.36-2.37-8.66-11.5-8.27C383.75,352.12,378.19,351.46,372.77,352.86Z" style="fill:#454545"/><path d="M378.92,350.82l-2.82,0c.61-3.08-.17-4.7-3.67-3.52a2.82,2.82,0,0,1-3.36-1.23L370,346c2.72-1,5.52-.27,8.28-.46,1.52-.11,3-.11,3.31,2S380.68,350.41,378.92,350.82Z" style="fill:#0e0e0e"/><path d="M373,328c0,.33,0,.66,0,1-1,2.11-2,4.19-4.94,3.06l-1-.06C366.92,328,368.35,327,373,328Z" style="fill:#363636"/><path d="M368.05,332.05c2.2-.13,3.13-2.3,4.94-3.06,3,2.3-1.2,2.44-1.15,3.86L369,334.94C367.81,334.24,368,333.12,368.05,332.05Z" style="fill:#101010"/><path d="M362.93,333l1.1.06c-.89,1.92-2.24,3.68-2,6a3.62,3.62,0,0,1-.82,2.14c-.1.32-.21.65-.32,1C358.51,338.37,361.38,335.82,362.93,333Z" style="fill:#393939"/><path d="M361.16,341.13A1.86,1.86,0,0,1,362,339l2.87,1.56Z" style="fill:#363636"/><path d="M400.87,367.52c-.86,2,2.34,4.77-1.09,6.38A17.35,17.35,0,0,1,400.87,367.52Z" style="fill:#383838"/><path d="M397.08,378.09,397,377l2.84-3.23c0,.71.09,1.43.14,2.15C399.57,377.42,398.78,378.37,397.08,378.09Z" style="fill:#3e3e3e"/><path d="M402,365l-1,1c-.07-1.94-.14-3.87-.22-5.81l.3-.23C404.11,361.11,403,363.07,402,365Z" style="fill:#454545"/><path d="M450.77,348.16c.4,1.28-.26,2.91,1.25,3.83.05.32,0,.76.18.94,1,1,2.5,2,.76,3.39s-1.69-1.48-3-1.35c-.9-2-1.71-4.12-4.05-5a2,2,0,0,1-.21-.81l.51-.5c1-1.1,2.45-.14,3.59-.64A2.7,2.7,0,0,1,450.77,348.16Z" style="fill:#494949"/><path d="M402,365c-.27-1.71.58-3.62-1-5.09.05-1.38-.53-2.92.94-4,3.4,2.53,4,6.14,3.92,10A5.61,5.61,0,0,0,402,365Z" style="fill:#434343"/><path d="M398,383c.59-1.56-2.21-2.27-1-4a3,3,0,0,1,4,0C400.15,380.42,399.79,382.22,398,383Z" style="fill:#373737"/><path d="M401,379h-4a6.4,6.4,0,0,1,.09-.88l2.89-2.15C401.13,376.67,401,377.85,401,379Z" style="fill:#242424"/><path d="M403.83,379.07a2.07,2.07,0,0,1-.1.74c-1.58-.35-1.58-.35-1.49-3.21Z" style="fill:#0d0d0d"/><path d="M452.1,383.08c-2.11.81-3.67,2.83-6.16,2.84a1.59,1.59,0,0,1-.18-1.31c1.51-2.51,4.14-4.44,4-7.8-.07-1.3.17-2.61,0-3.91a1.06,1.06,0,0,1,.32-.91c1.61-1.38,1.21-3.44,1.76-5.17l0,0L453,366c.8-.38,1.27.11,1.73.64a12.41,12.41,0,0,1,2.05,4.25L454,379l0,0a9,9,0,0,0-1.89,4.13Z" style="fill:#3c3c3c"/><path d="M456.79,370.91c-.91-1.34-2.72-2.05-2.82-4,.85-1.32,1-2.47-.83-3.06,0-1.16-.1-2.33,0-3.48s.58-2,1.76-2,1.55.91,2,1.86C458.45,363.81,457.22,367.35,456.79,370.91Z" style="fill:#3e3e3e"/><path d="M453.14,363.88c3.34.19,2.44,1.53.83,3.07l-1-.93C453.05,365.31,453.1,364.59,453.14,363.88Z" style="fill:#4e4e4e"/><path d="M322,331l-.07-1.22c2.91-1.06,5.64-.87,8.07,1.24a2.78,2.78,0,0,1-1.27.89,11.82,11.82,0,0,1-4.7.22A3.16,3.16,0,0,1,322,331Z" style="fill:#2b2b2b"/><path d="M329,331.29a3.19,3.19,0,0,0,.95-.3l3,1,3.84,4C332.41,337.41,330.52,334.68,329,331.29Z" style="fill:#121212"/><path d="M390,386c.22,4.1-2.82,1-4.1,1.86Z" style="fill:#404040"/><path d="M263.05,337c.32-1,.64-2,1-3a8.59,8.59,0,0,1,5.94-2l1,.07a12.69,12.69,0,0,1-4.95,6.08C266,335,263.84,337.93,263.05,337Z" style="fill:#505050"/><path d="M263.05,337c1.41-.82,3.24-2.81,3,1.07a6.6,6.6,0,0,0-1.13,3.81l-.94,1.06C262.19,341.18,263.34,339,263.05,337Z" style="fill:#585858"/><path d="M231,382.84l1,1.18a1,1,0,0,1-.19,1c-.68,2-1.77,3.85-1.58,6-1.66,1.1-2.22,2.17.12,3.15.11.87.23,1.73.32,2.6a2.42,2.42,0,0,1-1.08,1.69,6,6,0,0,1-1.94.64,3.13,3.13,0,0,1-2.59-.22c.1-1.32.21-2.64.31-4q.8-2.49,1.57-5L226.34,361h1.6c1.5.43,1.94,1.61,2.1,3-.43,2.71.15,5.39.28,8.09C230.89,375.62,229.14,379.35,231,382.84Z" style="fill:#121212"/><path d="M225.12,398.88l2-.84c.66,2.77,1.25.51,1.87,0l1.11-1.08c3.12,2.77,1.18,5.65.16,8.5.31,3.6-1.17,4.61-4.41,3C224.12,405.38,224.83,402.11,225.12,398.88Z" style="fill:#202020"/><path d="M230.24,405.44c-.17-2.83,2-5.71-.16-8.5-.06-.95-.11-1.9-.16-2.85-1.43-1.07-1.41-2.16,0-3.27-.7-2.42.34-4.24,2-5.85a43.65,43.65,0,0,0,0,13.83C232.19,401.11,232.92,403.76,230.24,405.44Z" style="fill:#303030"/><path d="M306,362c-2.17,2,.87,4.17-.1,6.23-2.94-6.48-3.59-13,0-19.43a4,4,0,0,1,1.56,3.32C305.86,355.21,306.8,358.72,306,362Z" style="fill:#222"/><path d="M307,352c-1.19-.79-.73-2.14-1.08-3.22-.18-.76,1.28-.95.64-1.86l.21.17.25-.1a1,1,0,0,1,1.37.14,4.2,4.2,0,0,1,.62,3C308.69,351.14,308.49,352.29,307,352Z" style="fill:#0a0a0a"/><path d="M309.75,374.08c2.1.54,3.17,2.22,4.28,3.85l-1.24.14C311.38,377,310.05,376,309.75,374.08Z" style="fill:#262626"/><path d="M308,346.94a8.44,8.44,0,0,1-1,0c-.88-1.33.12-2.64.05-4,.6-.72,1.21-1.44,1.82-2.15l.4.38C310.36,343.48,309.6,345.31,308,346.94Z" style="fill:#353535"/><path d="M282,324.93c.74-1.19,1.94-.9,3-.95.54.6,1.63.19,2,1.09,0,.31,0,.63,0,.94a3,3,0,0,1-2,3C284.24,327.44,280.25,328.31,282,324.93Z" style="fill:#444"/><path d="M297,257c1.87-2.67,4.64-2.91,7.53-2.81-.17.28-.34.57-.52.85Z" style="fill:#1a1a1a"/><path d="M290,260.11c1.67-1.61,4-1.34,6-2.1C294.62,260.56,292.18,260,290,260.11Z" style="fill:#1a1a1a"/><path d="M283,261c1.18-1,2.14-2.85,4-.89Z" style="fill:#1d1d1d"/><path d="M427.91,324.92c-.85-1.9-1.11-3.32,1.83-2.55,1.09.29,2.23.39,3.34.57s2.13.39,2.05,1.85Z" style="fill:#383838"/><path d="M435.13,324.79l-2.05-1.85c.4-.84,1.2-.95,2-1.09l3.33,3.47C437,326.22,436.22,324.68,435.13,324.79Z" style="fill:#060606"/><path d="M446,384.92l-.06,1-2.88,3.27c-1.07,1.28-2.25,2.29-4.09,1.76-.59-.69-2-.29-2.09-1.56,0-.47.52-.67,1-.51,3.81-1.26,4.41-5,6.09-7.89a1.43,1.43,0,0,1,1.76-.37C446.93,382,446.37,383.46,446,384.92Z" style="fill:#323232"/><path d="M437.92,388.88C436.86,390.28,439,390,439,391L430.85,389c1.41-.23,3,.42,4.12-1C436,388,437.18,387.77,437.92,388.88Z" style="fill:#4c4c4c"/><path d="M396,345.9,400,349c0,.29.07.57.11.85L400,350c-2.27,1.2-3.22-.59-4.38-1.93A2,2,0,0,1,396,345.9Z" style="fill:#454545"/><path d="M277,327c.31,0,.61-.07.92-.08.73.24,1.88.24,1.63,1.37-.37,1.61-1.81,1.83-3.14,1.62s-.59-1.18-.4-1.89Z" style="fill:#484848"/><path d="M227,259c0,.31,0,.62.08.93-.41.84-1.32.55-2,.87-2.18-1.15-4.57-.8-6.88-1a2.62,2.62,0,0,1-.33-.72c1.12-.12,2.38.13,3.12-1.09l4,1A1.3,1.3,0,0,1,227,259Z" style="fill:#202020"/><path d="M225.14,260.83l2-.86c1.74,1,2.17,1.94,0,2.88Z" style="fill:#1a1a1a"/><path d="M397,383c-.41,2.17-1.38,2.63-3,1C394.69,382.77,395.87,383,397,383Z" style="fill:#676767"/><path d="M446,384.92a3.21,3.21,0,0,1-.15-3.86c-.13-1.31.79-2.34,1-3.56-.12-.75,0-1.36.83-1.63,1.89-2,2.67-.64,3.31,1.11C451,380.66,448.94,383.07,446,384.92Z" style="fill:#4c4c4c"/><path d="M446.83,377.5c.09,1.3.38,2.65-1,3.56L444,381l-2.5-.16,2.62-1.65C445.45,379.29,446,378.12,446.83,377.5Z" style="fill:#4c4c4c"/><path d="M451,377c-.92-.93-1.81-1.91-3.31-1.11.44-1.17.84-2.36,2.07-3C451.4,373.88,450.82,375.54,451,377Z" style="fill:#545454"/><path d="M451.81,366.82c-.28,1.82,1.47,4.34-1.76,5.17C450.31,370.15,450.38,368.25,451.81,366.82Z" style="fill:#545454"/><path d="M311,340.91c1.56-5,5.52-7.28,10.05-8.94,2.91.15,5.43,1.47,8,2.69a1.63,1.63,0,0,1,.24,1.32c-1.38,1.39-3.38,1.46-5,2.38a3,3,0,0,1-1.36-.07c-2.43-1.73-3.24,1.62-5.1,1.65a5.77,5.77,0,0,0-3.2,1.7c-.73.73-1.31,1.74-2.59,1.55A2.46,2.46,0,0,1,311,340.91Z" style="fill:#2b2b2b"/><path d="M311,340.91A2.2,2.2,0,0,1,312,343a9.45,9.45,0,0,1-2.67,7.17A1.22,1.22,0,0,1,308,350v-3q.63-2.85,1.27-5.69Z" style="fill:#222"/><path d="M329,335a12.92,12.92,0,0,1-8-3c.33-.33.66-.66,1-1l2,0C325.82,332.15,329.48,331,329,335Z" style="fill:#121212"/><path d="M378.92,350.82c1.21-.9,2.08-1.76,1.53-3.6-.62-2.05-2.07-1.14-3.16-1.2-2.43-.14-4.87,0-7.31,0,4.2-2,8.68-.41,13-1,2,.47,2.74,2.14,3.5,3.78a2.09,2.09,0,0,1-.27,1.92Z" style="fill:#292929"/><path d="M386,349c-1-1.35-2-2.69-3-4,1.47-1.47,3.45-.54,5.12-1.1a4.55,4.55,0,0,1,.89.19,31.28,31.28,0,0,1,3.61,3.39c.27,1.18.24,2.24-1.06,2.83A20.4,20.4,0,0,0,386,349Z" style="fill:#0b0b0b"/><path d="M287,325.07c-.8-.14-1.6-.26-2-1.09l1-1c1.15.15,3.14-.55,2,1.94Z" style="fill:#181818"/><path d="M329,335c-.78-2.43-3.41-2.56-5-4l5,.29c2.52,1.68,4.22,4.72,7.77,4.7L338,337c-.27,2,2.09,2.71,2.27,4.91l-6.45-2.87c-2.33.06-3.59-1.49-4.76-3.18C329.05,335.6,329,335.29,329,335Z" style="fill:#0c0c0c"/><path d="M452.09,383.1c-.28-1.79-.09-3.37,1.89-4.13C453.7,380.51,453.54,382.1,452.09,383.1Z" style="fill:#565656"/><path d="M329,236l1,3c-1.44.46-1.18,2.08-2,3l-3.19,2.73-6.71,2.15a1.57,1.57,0,0,1-.4-1.92,19.63,19.63,0,0,1,5.06-3.72c1.75-1,.63-1.73,0-2.59a2.87,2.87,0,0,1,.31-2,3.49,3.49,0,0,1,2.49-2C326.7,235.12,328.37,234.27,329,236Z" style="fill:#0c0c0c"/><path d="M328,242c.37-1.22-1.47-2.41-.17-3.51.33-.28,1.43.34,2.18.55,0,.64,0,1.28.07,1.92Z" style="fill:#1e1e1e"/><path d="M391.91,347c-2.59.61-2.24-1.7-2.94-3,2.18-.71,3.87,1.33,6,1C395.9,348.83,393.46,347.23,391.91,347Z" style="fill:#222"/><path d="M391.91,347c.67-1.18,3.27.66,3-1.93l1.09.8c0,.68,0,1.37,0,2.05a9.19,9.19,0,0,0-1,2.77l-4.22,0-.09-.41L391,350C392.15,349.28,392,348.14,391.91,347Z" style="fill:#2e2e2e"/><path d="M449.83,348.05c-1,1.39-2.31.9-3.59.64-.85-2.57-3.76-2.13-5.32-3.66.77-1.72,2.81-.86,3.9-1.92l.24-.21C447.1,344.19,447.46,347.05,449.83,348.05Z" style="fill:#2a2a2a"/><path d="M318,245l.06,1.84-2.24,3c-1.6.48-3.6-.55-4.84,1.28a1,1,0,0,1-.82.32L309,249a3.9,3.9,0,0,1,2.36-2.34c.13,0,.46-.12.38-.15-4.19-1.77-.64-2.93.32-4.3,1.63-.91,3.3-1.49,5.14-.61C318.3,242.56,319.05,243.59,318,245Z" style="fill:#181818"/><path d="M305,254.08c.85-2,2.49-2.27,4.38-1.92L307,254Z" style="fill:#212121"/><path d="M307,113.06c0,.67,0,1.33,0,2a7.59,7.59,0,0,0-1.45.27c-1.12.45-2.57,1-2.83-.57s1.14-1.52,2.41-1.28A5.13,5.13,0,0,0,307,113.06Z" style="fill:#050505"/><path d="M311,117.06l2,1c-2,1.35-3.89,2.09-5-1Z" style="fill:#050505"/><path d="M301.51,116.36c.41.25,1.31.47,1.46.93.39,1.17-.85,1.13-1.48,1.35s-1.29-.15-1.32-1S300.5,116.42,301.51,116.36Z" style="fill:#050505"/><path d="M250,150.05h-1c-2.88-2.9-6.73-1-10-2h-2c.49-7.16,5.15-9.7,11-6a8.7,8.7,0,0,0,1.6.94c4.17,1.37,4.42,2.15,1.64,5.07A11.48,11.48,0,0,0,250,150.05Z" style="fill:#1d1d1d"/><path d="M241,185c-4.58,1.44-4.45-2.76-6-5,.36-6.94,3.17-1.49,5-1C240.84,181,241.67,182.86,241,185Z" style="fill:#232323"/><path d="M239,148c3.74-1.32,7.37-2.18,10,2-2.44-1.1-1.93.74-2,2l-2,1c-3.34,0-3.65-3.74-6-5Z" style="fill:#191919"/><path d="M239,148.05c4.2-1,3.41,4,6,5-1.32,1.8-2.3,3.43-4.21.16C239.8,151.48,236.72,150.86,239,148.05Z" style="fill:#131313"/><path d="M239,164c0-.33,0-.67,0-1a5.49,5.49,0,0,1,2-4,2.14,2.14,0,0,1,3,0C244.61,163,241.19,162.88,239,164Z" style="fill:#131313"/><path d="M244,159h-3c.13-1.06-.31-2.57,1.26-2.73C244.34,156.1,243.86,157.85,244,159Z" style="fill:#1e1e1e"/><path d="M238.25,204.1c4-6.16,3.3-13.84,6.59-20.22l.32.23c1.79,1.31,1.7,3.07,1.14,4.92-1.6,5.29-3.58,10.55-1.36,16.17a.92.92,0,0,1-.55,1.22c-6,1.4-4.22,6.59-5.13,10.47-.36,1.57.45,3.76-2.16,4.18-1.09-3.2-.82-6.46-.49-9.73C238.5,209.23,236.54,206.25,238.25,204.1Z" style="fill:#f8f8f8"/><path d="M231,197l1-3c.39-5,1.68-6,5-4h0c-1.48,2,2.24,4,0,6-.73,2.46-1,5.12-2.95,7.05a2.55,2.55,0,0,1-1.8-1.7c-.36-1.14-.1-2.51-1.26-3.35Z" style="fill:#3a3a3a"/><path d="M230.06,234l0-10c.68-1.06,1.34-2.16,2.8-1l.19,3.95c0,1.7.94,3.28.68,5a2.09,2.09,0,0,1-.81,1Z" style="fill:#464646"/><path d="M237.26,211.11c.36,3.38-.65,6.85.64,10.17,1.66,2.49,2.61,4.9-.86,6.74h-1c.93-4.11-.37-8.16-.48-12.24a24.8,24.8,0,0,1,.54-4.72A.69.69,0,0,1,237.26,211.11Z" style="fill:#2e2e2e"/><path d="M233,201l1.07,2.05c.21,1.65-1.14,3.27-.08,4.93-.54.77-1,2.15-1.62,2.18-1.32.05-1.47-1.49-1.93-2.46-1-2,.92-3.73.61-5.68C231.59,201.46,231.87,200.4,233,201Z" style="fill:#4f4f4f"/><path d="M232.89,223.06l-2.8,1c.13-2.35.4-4.7.36-7,0-3,1.87-.29,2.58-1h0c1.09,1.53-.21,3.51.93,5Z" style="fill:#3a3a3a"/><path d="M237,196c.7-2-2.24-4,0-6C237.15,192,241.12,194,237,196Z" style="fill:#1e1e1e"/><path d="M237.26,211.11l-1.16,0c1.7-2-.29-5.18,2.15-7C237.94,206.44,238.44,208.89,237.26,211.11Z" style="fill:#242424"/><path d="M233,232c.29-1.66-1.15-3.34.05-5l1.84,2.89c0,.36,0,.73,0,1.09C234.46,231.66,234.17,232.62,233,232Z" style="fill:#242424"/><path d="M234,221c-1.59-1.44-.74-3.33-.93-5C234.67,217.45,233.82,219.34,234,221Z" style="fill:#242424"/><path d="M237,228c1.55-2.09,0-4.57.86-6.74.43-3.6.17-7.21.9-10.84.69-3.37,1.21-5.77,5.39-4.94l-2.4-1.15c.66-7.11,3.51-13.34,3.37-20.24,2.1-1.64,1.45-6.47,6.49-5,1.17.34.37-2.65-.68-4.08,3.09,0,2.55-.21,3.73-3.05,1-2.41,3.79-4,4.33-6.89,4.56-9.66,11.29-17.81,18-26,7.89-9,18.41-12.67,29.73-14.31,5.64-.81,11.1,1,16.22,3.5a43,43,0,0,0,10.29,7.26c5.7,2.71,9,7.29,13.33,11.13.77.7,1.42,1.36,2.53,1.24h0c-.43,3.38,2,5.35,3.81,7.62.3.36,5.42,9.2,5.54,9.54,3.54,10.77,2.9,21.44-.71,32.05-1.6,3.19-3.12,6.36-7.77,4.78-1.43-.48-1.78.65-1.89,2.07a17.68,17.68,0,0,1-7.75,13.86c-2.67,1.75-3.74,3-3.24,5.93.17,1-.55,1.87-1.13,2.69a5.22,5.22,0,0,1-1.59,1.4c-2.89,1.1-5.92-.13-9.24.62,1.39,3.49.17,5-3.58,6.25-3,1-5.87,2.43-9.18,2.88-3.78.51-6.42,2.62-6,7a2,2,0,0,1-.88,1c-1.71.7-3.58.49-5.33,1-2.08-.51-3.08,1-4.18,2.27a4.73,4.73,0,0,1-4.07.91c-3.11-1-5.68,1.13-8.5,1.67-6.12,1.17-12.4,1-18.45,2.54-9.3.74-18.6,1.6-27.89,0C234.42,245.35,235.88,236.68,237,228Z" style="fill:#fefefe"/><path d="M230.05,255c-1.48-2.4-.18-4.28,1.23-6.14.12,2.14,3.93,5-1.21,6.14Z" style="fill:#6b6b6b"/><path d="M233,232l1.88-1c0,1.36,0,2.73,0,4.09-1.46,1.33-.85,3.46-1.9,4.95l-1,0c.06-2.35-.29-4.77.92-7C233,232.7,233,232.35,233,232Z" style="fill:#2e2e2e"/><path d="M227,259h-2c-1-2.37,1.43-3.3,2-5A1.88,1.88,0,0,0,228,256Z" style="fill:#3b3b3b"/><path d="M228,252.94c-2.91-1.19.06-3.4-.86-4.93l1,0C228,249.67,228,251.3,228,252.94Z" style="fill:#1c1c1c"/><path d="M233,201l-2,1c0-1.34,0-2.68,0-4C233.07,198.12,233,199.58,233,201Z" style="fill:#404040"/><path d="M237,167c-1-.14-2-.37-1.76-1.7.05-.31.71-.83.9-.76,1.18.46.74,1.58.86,2.47Z" style="fill:#020202"/><path d="M308,350h1a2.66,2.66,0,0,1,.8,1,8.44,8.44,0,0,1,.11,3.84c-.07.39-.17.79-.26,1.17a2,2,0,0,0,1,1.42c1.13.93,1.15,2.12.88,3.42-.29,1.48.68.91,1.37.77a1.33,1.33,0,0,1,1.13.42c-.64,1.66-1.16,3.38-1.95,5-.44.85,1.51,2.44-.71,2.51-.81,0-1.5-.7-1.95-1.79A43.58,43.58,0,0,0,306,362c-1.32-3.49-2.17-6.93,1-10A2.09,2.09,0,0,0,308,350Z" style="fill:#1a1a1a"/><path d="M336.08,344.68c4.11,3.19,2.28,8.26,3.86,12.25l-1,1c-2.45.9-3.75-2.08-6-1.78l-11.76,1c-3.3-.06-3.26-2.38-3.2-4.72a3.64,3.64,0,0,1,.66-1.44,1.42,1.42,0,0,1,1.43-.21c1.55,3.36,4,4.54,7.61,3.24a5.85,5.85,0,0,1,1.46-.22c7.66-.81,7.66-.81,6.22-8A2.07,2.07,0,0,1,336.08,344.68Z" style="fill:#444"/><path d="M318.89,351.87c0,2.1-.08,4.24,2.3,5.32-2.42,1.57-5.47,2.21-7.14,4.88l-1,0c-.41-4,3.39-6.43,3.72-10.15A1.74,1.74,0,0,1,318.89,351.87Z" style="fill:#383838"/><path d="M333,356.16a5.92,5.92,0,0,1,6,1.78c-2.08,2-4.61.57-6.86,1C331.41,357.63,336.11,358.19,333,356.16Z" style="fill:#212121"/><path d="M357,197c1.72-6.56,3.14-13.12,3.1-20,0-4.42-1.36-8.47-2.26-12.65-.23-1-.4-3.81-2.92-1.67-1.12.95-.95-.43-.84-.66,2-4-1.69-5.43-3.27-7.9-1.15-1.8-4.55-3.29-1.63-6.24,1.26,2.2,2.16,4.77,3.87,6.55,5.84,6.08,8.12,13.36,8.26,21.55a20.52,20.52,0,0,0,.55,3.35c-.59,7.2-.87,14.47-4.72,20.94A2.62,2.62,0,0,1,357,197Z" style="fill:#f7f7f7"/><path d="M359.07,156c-.34.76.52,2-.93,2.28-.18,0-.57-.33-.65-.58-.5-1.49.73-1.43,1.59-1.7Z" style="fill:#070707"/><path d="M444.82,343.11c-.41,2.44-2.7,1.08-3.9,1.92l-.84-.18c-1.23-.83-1.81-2.48-3.49-2.75A3.44,3.44,0,0,1,435,341c0-.61,0-1.22,0-1.84l3.79.14C441.38,339.64,442.65,342.08,444.82,343.11Z" style="fill:#080808"/><path d="M329.05,335.9c2.14.24,3.22,2.06,4.77,3.18-.76,2.38-3.34,1.73-4.82,2.9-2.45.35-4,2.88-6.61,2.8a3.17,3.17,0,0,1-1.32-.5c-.52-2.85,2-3.49,3.59-4.64,2.92-2.18-2.51-.35-.78-1.77C325.06,335.77,327.1,336,329.05,335.9Z" style="fill:#575757"/><path d="M322,344c2.38-.51,4.23-2.79,7-2,.36.62-2.94,1.68.16,1.88,2.33.15,4.83-1.38,6.92.82a3.6,3.6,0,0,0-.29.55c-5.68.63-10.72,3-15.55,5.84l-1.18-.06c-.8-1.51.6-2.81.41-4.26C319.65,345.21,320.89,344.68,322,344Z" style="fill:#383838"/><path d="M302,251.06a16.31,16.31,0,0,0-6.67,4.24c-1.38,1.59-3.3,1.91-5.32,1.7-.61-1.81-1.42-3.64.5-5.21.64.28,1.18.89,2.09.59a3,3,0,0,1-2.09-.56c-3.73,1.67-7.39,4.08-11.52,1,3.61-3,8.26-2.17,12.36-3.35,2.67.52,4.89-.58,7-1.93a3.59,3.59,0,0,1,2.15-.09,2.32,2.32,0,0,1,1.05.91A4.57,4.57,0,0,1,302,251.06Z" style="fill:#242424"/><path d="M278.89,252.85c4.17,1.49,8-1.84,12.14-.82h0c-1.44,1.43-.18,3.41-1,5-1.68-.15-3.36-1.39-5,0-2.8-2.13-5.23.14-7.81.66a4.72,4.72,0,0,1-1.38.29c-1.19,0-2.38.08-3.58.17a5.23,5.23,0,0,1-2.12-.53c-.84-.61-1.43-1.33-1-2.46L273,255c1.47-1.41,3.37-1.79,5.26-2.17Z" style="fill:#151515"/><path d="M312,243.22c-.36.87-1.55,1.29-1.29,2.47,1.87,1.07,2.72-1.56,5-1.09-1.4,3.1-4.73,2.85-6.74,4.41l-1.92,0a3,3,0,0,1-2.22-.84,2.25,2.25,0,0,1,.35-2.31,4.11,4.11,0,0,1,.94-.77l-.06,0a5.89,5.89,0,0,1,4.82-2.68A1.7,1.7,0,0,1,312,243.22Z" style="fill:#212121"/><path d="M260.89,256.28,265,256c1.77-.15,1.21.6.55,1.4-1.61.72-3,1.78-4.56,2.63l-1,0c-1.06.42-1.73-.14-2.32-.91a2.79,2.79,0,0,1-.18-1.34C258,256,259.78,256.85,260.89,256.28Z" style="fill:#090909"/><path d="M277,257c2.66-.86,5.33-4.28,8,0a7,7,0,0,0-4,1C279.88,256.82,278.11,258.23,277,257Z" style="fill:#242424"/><path d="M305.09,247.92l2,1.11a6.31,6.31,0,0,1-5.06,2,2,2,0,0,1-1-2C302.2,248,303.43,247.15,305.09,247.92Z" style="fill:#464646"/><path d="M258.11,259,260,260c-.64.67-1.29,1.34-1.93,2l-1-.05-1-1c-.7-.44-1.48-1.05-.89-1.87C255.94,258,257.07,258.25,258.11,259Z" style="fill:#333"/><path d="M272,257h4a1.3,1.3,0,0,1,0,1.93,7.37,7.37,0,0,0-4,1C270.44,259,270.49,258,272,257Z" style="fill:#202020"/><path d="M272,257a2.62,2.62,0,0,0,0,3l-5-1c-.29-.23-.39-.45-.29-.68s.2-.33.3-.33l1,0a2.51,2.51,0,0,1,2-1Z" style="fill:#1d1d1d"/><path d="M261,260c.89-1.6,1.95-3,4-3,.3.22.4.44.31.66s-.2.34-.3.34C264.69,260.71,262.57,259.81,261,260Z" style="fill:#202020"/><path d="M276,259c0-.64,0-1.29,0-1.93l1,0c1.38.15,2.95-.46,4,1Z" style="fill:#272727"/><path d="M265,258c0-.34,0-.67,0-1,.7-.35.67-.69,0-1,2.68-1.35,1.73,1,2,2,0,.34,0,.67,0,1Z" style="fill:#1b1b1b"/><path d="M291.82,249.93l-12.93,2.92h.05a10.16,10.16,0,0,1-5.94,1l-8,.15c5.28-3.2,11.55-2,17.17-3.88,2.48-.83,5.35,0,7.55-2.42,1.12-1.21,1.46,1.38,2.61,1.46A.72.72,0,0,1,291.82,249.93Z" style="fill:#f6f6f6"/><path d="M253,261a8,8,0,0,1-5,1c-1.11,0-2.24.06-3-1-1.61-.16-3.72.63-4.05-2.06l.6-.53a21.22,21.22,0,0,1,5.55-.75c.55,0,1.1,0,1.66,0C250.65,258.19,253.8,257.1,253,261Z" style="fill:#333"/><path d="M248,259l-.43,0h-.43a8.55,8.55,0,0,0-6.1,0v0a3.42,3.42,0,0,1-2.29-2.77c3.56,1.26,6.9-.37,10.34-.1.7.71,2.54.22,2.15,2.06C250.22,258.83,248.89,258.1,248,259Z" style="fill:#050505"/><path d="M251,258l-2-1.87,11.85.2L258,258C255.68,258.77,253.34,259.29,251,258Z" style="fill:#090909"/><path d="M245,261c1.11,0,2.28-.2,3,1l0,1h-6.61Z" style="fill:#0a0a0a"/><path d="M273,253.88l5.94-1c-1.59,1.82-3.74,2.06-5.95,2.12C273,254.6,273,254.24,273,253.88Z" style="fill:#202020"/><path d="M270,257a2.09,2.09,0,0,1-2,1c.08-1.08-.26-2.31,1.11-2.88Z" style="fill:#202020"/><path d="M233,240c.06-1.88-.38-3.93,1.9-4.95C233.7,236.5,236,239.26,233,240Z" style="fill:#2a2a2a"/><path d="M230,275c.83.48,1.81.88,1.57,2.11a.82.82,0,0,1-.7.39c-1.22-.48-.72-1.62-.87-2.5Z" style="fill:#535353"/><path d="M251,258l7,.06c0,.32.05.63.09.94-1.15.22-3.25-.54-2.08,2h-3c-.66-3.23-3.3-1.5-5-2C248.72,257.86,249.93,258.08,251,258Z" style="fill:#2a2a2a"/><path d="M229.06,372.06c.14-2.73-1.34-5.47,0-8.2,1.72-2-.34-4-.07-6.09.25-1.9-.3-3.93,1-5.67L230,351c2.5.35,1.92,2.32,1.94,3.87,0,3.31-.07,6.63-.11,10-.73,2.43-.18,4.92-.35,7.38-.06.83-.08,1.89-1.12,1.81C229.53,373.92,229.58,372.68,229.06,372.06Z" style="fill:#121212"/><path d="M230,352.1c.25,2.87-.33,5.79.78,8.63.55,1.42.52,3-1.68,3.13L227.94,361C228.78,358.06,226.34,354.38,230,352.1Z" style="fill:#343434"/><path d="M230.1,330c.24,2.29-1,4.77.88,6.84-.49.6-1.33,2.43-1.69.67C228.8,335.16,228.07,332.31,230.1,330Z" style="fill:#1d1d1d"/><path d="M231,348c-.6,1.13-1.3.07-2,.08.14-1.78-.45-3.67.7-6C230.87,344.33,229.47,346.49,231,348Z" style="fill:#1d1d1d"/><path d="M231,320a10.19,10.19,0,0,1,0,1.46c-.1.91.43,2-.55,2.66a1.41,1.41,0,0,1-1.32-.26c-1-1.06.44-1.62.63-2.45.11-.48.2-1,.3-1.43C230.36,319.54,230.67,319.53,231,320Z" style="fill:#2c2c2c"/><path d="M231,320l-.46,0h-.46l-1-4.05,2-1Z" style="fill:#222"/><path d="M435,341l2.08.06c1.37,1,2.38,2.1.74,3.71l-2.83-1.1C435.21,342.75,433.78,341.85,435,341Z" style="fill:#0d0d0d"/><path d="M437.81,344.74c.38-1.36-.21-2.53-.74-3.71,2.49.1,3,1.79,3,3.83C439.32,344.81,438.56,344.78,437.81,344.74Z" style="fill:#2a2a2a"/><path d="M229.06,372.06c.66-.08,1.67,2.47,2-.27.26-2.33-.69-4.81.82-7,.22,6,.58,12.09-.82,18-1.55.85-2,.28-2-1.35C229.12,378.35,229.07,375.21,229.06,372.06Z" style="fill:#323232"/><path d="M357,197c0,1.09.09,2.18.14,3.27l-3.21,7.52c-3.58,4-6.16,8.88-10.32,12.42a9.22,9.22,0,0,0-3.23,3.16c-.37,1.78-2.17,2-3.25,3a2.19,2.19,0,0,1-1.92,0c.11-1.47,1.35-2.51.69-4.44s-1.71-5.36,3.32-4.49c1.35.23,4.9-3.37,4.74-4.92-.41-3.8,6.13-5.52,2.43-10.16-.85-1.06,2.76-3,4-2.23C354.74,203.1,355.3,199.13,357,197Z" style="fill:#fbfbfb"/><path d="M343,220.05c4-3.77,6.3-9,10.89-12.23.24,3-2.68,4-3.92,6.07-1.59,2.66-2.6,5.72-5,7.9-1.21,1.09-1.1-.7-1.77-.69Q342.28,220.74,343,220.05Z" style="fill:#1d1d1d"/><path d="M329,236l-3-1c-.34-2,1.42-2.18,2.56-2.89,2.82-.36,4.46-3.46,7.52-3.26a.72.72,0,0,1,.23.8c-.11.25-.21.38-.3.38C336,234.77,331.27,234,329,236Z" style="fill:#1e1e1e"/><path d="M336,230.05l0-1.08c-.74-1.34.4-2.18.87-3.19l3-2.83c.55-.45.95-.34,1.2.32.51,1,1.21,2.91-.1,2.91C338,226.17,338,229.25,336,230.05Z" style="fill:#1d1d1d"/><path d="M341.08,223.27l-1.2-.32c.83-1.2,1.63-2.43,3.13-2.9.07.35.14.7.2,1Z" style="fill:#484848"/><path d="M395,350.72c-.44-.73-2-.84-1.46-2,.43-1,1.62-.6,2.49-.73q2,1,4,2C398.83,353.73,396.55,349.8,395,350.72Z" style="fill:#202020"/><path d="M391,350a1.44,1.44,0,0,1-.25.66l-4.57,0L386,349C388,347.64,389.9,346.85,391,350Z" style="fill:#030303"/><path d="M229,398a5.34,5.34,0,0,1-1.47,4.38c-2.45-1.43-.2-3-.4-4.36Z" style="fill:#343434"/><path d="M229.87,390.82a4.31,4.31,0,0,0,0,3.27c-.68,0-1.59,1.52-1.62.66C228.25,393.5,226.31,390.81,229.87,390.82Z" style="fill:#202020"/><path d="M322,344,320,347a3,3,0,0,1-2.17,2.35,3.09,3.09,0,0,1-1.32-.05c-1.62-1-3.78-1.14-5-2.85,0-2.21,2.33-3.33,2.5-5.45a3,3,0,0,1,3.14-2c.69.58.19,2.42,2,1.86.94.87.83,2.36,1.91,3.14Z" style="fill:#444"/><path d="M321,344c-3.57,1-1.37-1.84-1.88-2.87.36-2.18,1.83-3,3.87-3.14.29,0,.59-.06.88-.1h4.53Z" style="fill:#717171"/><path d="M314,341c.65,2.44-1.95,3.79-2,6a8.09,8.09,0,0,1,.44,2.93c-.21,1.21,0,2.51-.67,3.62a2.29,2.29,0,0,1-1,.81,1.3,1.3,0,0,1-1.11-.43c-.38-.94.16-2.09-.67-2.93,0-.33,0-.66,0-1,1.22-2.24,1-5.09,3-7Z" style="fill:#353535"/><path d="M323,338l-3.87,3.14c-.78,0-1.32,1.51-1.9.72-.47-.64-.1-1.88-.1-2.85a3.24,3.24,0,0,0,2.73-1.83C321.59,334.41,322.37,336.06,323,338Z" style="fill:#191919"/><path d="M328.94,233,326,235c-1.18-.05-1.65.85-2.2,1.65a15.81,15.81,0,0,1-4.51,3.09c-2.58,1.62-5.68,1.9-8.38,3.2-1.76.38-2.7,2.58-4.82,2.17-.58-2-1.55-4.89-.22-6,2.32-1.88,5.9-4,8.31-3.46,2.83.69,3.85-.23,5.34-1.7a4.48,4.48,0,0,1,1.1-1c4.24-1.94,4.25-1.93,2.86-5.81h10.94C334.48,230.91,331,231.25,328.94,233Z" style="fill:#fbfbfb"/><path d="M318,245c-.35-1-.7-1.92-1-2.88a2.51,2.51,0,0,1,1.83-2.64c1.43-.46,2.46-2.22,4.31-1.36.39,1.49,2.83-.57,2.84,1.66,0,1.76-1.22,1.9-2.49,2.36C321.53,242.88,320.36,245.09,318,245Z" style="fill:#232323"/><path d="M323.11,238.16,319,240c-.56-.35-.57-.71,0-1.1a7.18,7.18,0,0,1,4.83-2.26Z" style="fill:#393939"/><path d="M319,238.93c0,.37,0,.73,0,1.1l-2,2.13c-1.78-.26-3.31.61-4.93,1.06l-1.13-.26Z" style="fill:#414141"/><path d="M328.94,233c1.42-2.31,4.31-3.24,5.48-5.79l.76-.75,1.67-.66c.34,1.23-.41,2.17-.87,3.19C333.67,230.37,332.07,233,328.94,233Z" style="fill:#4a4a4a"/><path d="M300.9,247.68,299,248a2.62,2.62,0,0,1-3,.08c.5-2.28,2-2.75,4.05-2.26a2,2,0,0,1,1.94-.08C302.49,246.91,302,247.48,300.9,247.68Z" style="fill:#f6f6f6"/><path d="M305.41,236.55c-1.38.69-2,2.63-3.91,1.77-.24-.1-.42-1-.24-1.27C302.27,235.42,303.58,235,305.41,236.55Z" style="fill:#fbfbfb"/><path d="M296,248.12l3-.08c-2,2.31-4.55,2.17-7.19,1.89a9,9,0,0,0,.52-.74A3.79,3.79,0,0,0,296,248.12Z" style="fill:#363636"/><path d="M247.92,199.69c-2.64-.77-2.69-2.58-4.49-3.9C246.39,196.08,247,197.41,247.92,199.69Z" style="fill:#f8f8f8"/><path d="M245.2,191.75c2.93-.11,2.1,2,2.79,4A5.25,5.25,0,0,1,245.2,191.75Z" style="fill:#f8f8f8"/><path d="M302.08,246l-2-.18c1.87-1.55,4-.67,6.08-.75-.08.24-.15.47-.22.71C304.71,247,303.43,247.2,302.08,246Z" style="fill:#fbfbfb"/><path d="M330,218.05a5.24,5.24,0,0,1,.53,1.45,1,1,0,0,1-.58.72c-.72.3-.91-.27-.83-.75S329.59,218.73,330,218.05Z" style="fill:#fbfbfb"/><path d="M310.05,354h1c2,.84,3.5.9,3.82-1.89.15-1.27-.25-3.22,2.09-3.16l.2.13a2.06,2.06,0,0,1-.11,2.84c1.33,4.43-2.73,6.71-4,10.1-.84,1.05-1.43,3.06-3.12,2.05s-.11-2.17.55-3.21.77-2.1-.43-2.91c-.56-.54-1.65-.81-1-2h0C309.66,355.48,309.29,354.46,310.05,354Z" style="fill:#444"/><path d="M310.05,354c-.35.66-.69,1.32-1,2v-5C310.18,351.7,310,352.91,310.05,354Z" style="fill:#222"/><path d="M309,356l1,2c-.89-.08-2.09.32-2.46-.74S308.33,356.17,309,356Z" style="fill:#222"/><path d="M320.24,351.07c4-5.15,9-7.52,15.55-5.84a22.93,22.93,0,0,1,1.87,4.56c.58,3,0,5.4-3.94,5-3-.29-5.87.57-8.79,1.09C321.19,356.57,319,355.38,320.24,351.07Z" style="fill:#f6f6f6"/><path d="M317,351.93c0-.95.07-1.89.1-2.84L320,347c2.05,1.9-1,2.61-.94,4a8.71,8.71,0,0,1-.17.86Z" style="fill:#1e1e1e"/><path d="M302.08,246l3.85-.22-.84,2.1a6.76,6.76,0,0,1-4,1.12c-.05-.45-.09-.91-.14-1.36Z" style="fill:#343434"/><path d="M291,252c1.58-.07,3.45-1.41,4.7,1.33A5,5,0,0,1,291,252Z" style="fill:#3c3c3c"/><path d="M241,259a4.85,4.85,0,0,1,6.09,0Z" style="fill:#2a2a2a"/><path d="M317,349c-1.31,1.16-.88,2.73-.95,4.17s0,3-1.47,3.35A2.66,2.66,0,0,1,311,354h0c.89-1.21,1.72-2.42,1-4-.27-1-1.56-2,0-3C314.36,345.85,315.5,347.79,317,349Z" style="fill:#5f5f5f"/><path d="M312,350c2,1.9.55,3-1,4Z" style="fill:#444"/></g></g></svg>