<svg xmlns="http://www.w3.org/2000/svg" viewBox="0 0 645 567"><g id="Layer_2" data-name="Layer 2"><g id="Layer_1-2" data-name="Layer 1"><path d="M322.5,566.9q-159.21,0-318.41.1C.67,567,0,566.33,0,562.91Q.17,283.49,0,4.09C0,.67.67,0,4.09,0Q322.5.15,640.91,0c3.42,0,4.09.67,4.09,4.09q-.16,279.41,0,558.82c0,3.42-.67,4.09-4.09,4.09Q481.7,566.82,322.5,566.9Z" style="fill:#fefefe"/><path d="M269.1,189.24l-.87,2.86c-2.05,1.89-1,4.36-1.2,6.58a17.41,17.41,0,0,1-6.39,12.66c-2.59-.63-2.57-3.06-3.33-5a4.85,4.85,0,0,1-5.81,3.25c-2.86-.51-2.18-3.24-2.3-5.31a2.37,2.37,0,0,1,1.17-1.57,4.72,4.72,0,0,0,3.25-1.73c5.15-3.05,2.74-7.48,2.1-11.58-.26-1.71-.24-3.36,1.28-4.57,2.18-1.51,4.1,0,6.51.73-4.72-2.55-5.53-4.58-4.59-10.26-.52,1.92-1,3.76-.15,5.84a2.26,2.26,0,0,1-1.45,3.21,4,4,0,0,1-2.78-2.1,8.67,8.67,0,0,1-.56-6.13c.68-1.41-.06-3.12.92-4.47a5.93,5.93,0,0,1,2.34-1.39c1.82-.65,3.87.18,5.81-.94-2.12-.51-4.15,1.13-6.06-.19-1.71-4,.51-4.48,3.38-4.18a32.1,32.1,0,0,0-11.49-3.6c1.62.85,4,1,6.11,1.93,1.2.53,1.86,2.55,1,2.56-3,0-2.07,3.67-4.35,3.95-3.23,3.15-7.43,3.62-11.59,4.17a3.36,3.36,0,0,0-2.64,3.57c.48-1.56,1.09-3,2.76-3.66,2-1,3.08.51,4.33,1.58A6.28,6.28,0,0,1,245.9,178c1,3.1-.9,5.19-2.56,7.37a30.19,30.19,0,0,0-3.28,4.18,5.06,5.06,0,0,1-2,2,2.11,2.11,0,0,1-2.55-1,4.65,4.65,0,0,1-.37-1.42,5.36,5.36,0,0,1,.17-1.44c.17-.77.85-1.36.79-2.21-3.31.69-4-3.7-7-3.59a7.26,7.26,0,0,1-2.08.1,5.42,5.42,0,0,1-1.36-.39c-3.82-2.47-2.49-4.6.37-6.76-3,1.68-4.92,4.88-8.64,5.86-2.62.69-1,4.5-2.79,6.47-2.44,2.74.2,4.08,1.75,6.06,1.81,2.31,7.22,3.26,3.88,8.1-.32,3.83.56,4.17,5.42,2.07,2.23-1.12,4.36-2.32,4.72,1.82.23,2.55,3.22,2.58,4.59,4.17a2.91,2.91,0,0,1,.7,1.29,2.13,2.13,0,0,1-.88,2,17.76,17.76,0,0,1-5.4,1.48c-5.88-1.27-11.88-.33-17.79-1-1.88-.18-3.56-3.13-5.66-.39-4.89,1.89-9.89,3.5-14.49,6.06a17.25,17.25,0,0,1-4.09,1.3c-9.5.22-14,7.65-19.46,13.61a18.43,18.43,0,0,0-4.87,5.52c-1.16,2.35-3,2.92-5.4,1.4,1.33,1.28,3.69,1.08,4.06,3.32a3.75,3.75,0,0,1-.22,1.37c-1.66,4.66-1.76,9.23.82,13.64q.39.57.75,1.14c1.3,2.18,2.55,4.4,5.1,5.39a5.24,5.24,0,0,1,1.61,1.27,2.34,2.34,0,0,1,.48,2.57c-2.9,1.7-6.12,4.95-6.8-1.91-.17-1.66-2.37-1.5-3.8-1.84a5.89,5.89,0,0,1-3.43-4.31c0-.46-.07-1.08.23-1.34,2.21-1.85-.17-1.13-.77-1.41-2.22-1.76-2.92-4.23-3.22-6.88.1-1.62,2.82-3.17.1-4.86a6.06,6.06,0,0,1-.59-2c-.16-1.94,0-3.92-.67-5.81-.11-.76-.13-1.52-.2-2.29,1-13.87,3.5-27.23,13-38.23a4.52,4.52,0,0,1,1.11-1c1.87-.48,3.11-1.82,4.41-3.11,6.29-6.24,13.07-11.63,21.87-14.1a13.92,13.92,0,0,0,7.26-5.06c1.1-1.45,2.59-2.39,4.32-1.65,3,1.31,6.2.77,9.29,1.16,5.63.72,9-2.2,12-6.29,1.25-1.76,2.37-3.62,3.54-5.43,6.92-10.74,18.86-13.89,30.38-8.24,4.69,2.3,9.25,4.64,11.81,9.5C274.41,172.69,273.29,181,269.1,189.24Z" style="fill:#030102"/><path d="M403,382c1.16,4.46-2.58,4.36-5,4.86s-4.62-.45-4.65-3.65c0-.79,0-2-.51-2.3-6.05-3.72-3.49-9.86-4.29-15-.34-2.16-1.27-3.22-3.47-3-3.17.26-6.26.37-8.3-2.81-.66-1-1.4-.52-1.89.28-1.8,3-3.85,3-6.58,1-2.17-1.57-3.81,1.55-6.39,1.15s-3-1.44-2.88-3.42c.52-7.05-1.46-10.12-8.14-12.35-1.35-.45-2.06-1.33-1.38-2.61,1.38-2.62.26-5.48,1-8.15.29-1-3.52-3.39-4.59-2.78-1.92,1.09-3.77,2.15-6,.82-1.57-1.67-1.3-3.7-.83-5.61a23.88,23.88,0,0,0,.28-8.34c.54-2.9.29-5.61-2-7.82-1.26-2-1.82-4.34-2.65-6.55-.3-3.34-3.65-4.81-4.75-7.66,1.05-1.45,3.12-.27,4.49-2.06.84-1.09,3.76-1.34,4.2,2.28.49,4,1.44,8.22,5.3,10.77-.13,3.35,2.64,3.35,4.76,4.37,4.19,2,4.12,2.17,3.45,6.67,1.74-.23,1.66-2.28,3.34-2.91,2.48-.94-2.05-1.28-.29-2.94,1.56-.36,3.72,1.11,5.68-.21a2.5,2.5,0,0,1,.76,1.25,4.42,4.42,0,0,1-1.77,3.93c-6.1,5.25-5.55,12.32-5.39,19.29a4.82,4.82,0,0,0,1.31,2.62,43.15,43.15,0,0,0,12.94,12.23c5.46,3.16,11.48,2.2,16.58-2,3.82.83,3.85-2.81,5.43-4.63,3.6-2.46,3.6-2.46,4.94,2.88-.05,1.82.43,3.68-.26,5.47-1.34,1.57-1,3.26-.36,5a35.28,35.28,0,0,1,1.09,13,10.22,10.22,0,0,1-.25,1.45,7.43,7.43,0,0,0-.16,5.37C397,384.78,400.59,381.23,403,382Z" style="fill:#fbfbfa"/><path d="M262.42,351.81c-2,2.11-4.68,4.07-4.11,7.38.54,3.14-2.77,7.29,2.28,9.39.47.2.56,2,.47,1.91-1.85-1.53-2.67,1.91-4.45.79-2.12-1.34,1.33-2.07-.14-3.49-.91,1.26-2.87.79-3.25,3.62-.33,2.46-1.64.16-2.31-.71a2.35,2.35,0,0,1-.45-2c1.35-3.67,3.23-7.22,2.5-11.35.52-3.42,1-6.84.4-10.31a19.65,19.65,0,0,0-1.1-10.77,16.8,16.8,0,0,1-1.49-6.28,16.53,16.53,0,0,0-4.94-12.11c-1.69-3-2.76-6.39-5.41-8.81a6.91,6.91,0,0,1-1-1c-4.51-6.36-10.41-11.36-16.13-16.53-2.84-2.8-6.38-4.42-9.9-6.16-2.69-1.33-6-1.85-7.58-4.91l.37-.6c1.16-.87,2.9-.53,3.82-1.88h0l1.39-1.95c1.13.84.5,1.86.16,2.82-.46,1.32-.32,2.63,1.25,2.44,1.32-.16,3.2.31,3.95-1.42.35-.81,0-1.28-.95-.62-.77.53-1.3.36-1-.69s1.55-2.37,1.72-2.13c1.31,1.91,3,0,4,.52s.69,2.11-.62,2.84c-.53.3-.93.43-1.13,1.27-.72,3.08,6.7-3.51,3.57,3.19-.82,1.78,3.67,1.37,6,1.37,1.09,0,2.87-.84,3.47.73.49,1.27-.69,2.11-1.8,2.6a2.11,2.11,0,0,0-1.38,2.8c.77,2.08,1.66-.19,2.41,0,2.4.47,2.09,3.49,4.53,4.57,3.55,1.59,3.3,2.14,7-.41-.72,2.4-3.32,3.83-1.46,6.37,1.59,2.16,3.93,2.3,6,3.06,2.43.89,4.41,6,4.63,8.45.25,2.57-.86,5.49.7,7.72s3,4,2.21,6.9c-.25,1,.91,1,1.8,1.08,1.7.14,2.48-.58,2.62-2.19.3-3.39,2.11-3.8,4.81-2.44l.49.54c.26,1.81-.54,3.34-1.3,4.87-.21.46-.45.89-.69,1.32-1.68,4.29-1,8.67-.52,13C262.08,347,263.16,349.32,262.42,351.81Z" style="fill:#fafaf8"/><path d="M240.9,366.66a2.83,2.83,0,0,1,1.77-2.8,10.7,10.7,0,0,0,2.91-3.3,6.74,6.74,0,0,0,1-3.75,2.74,2.74,0,0,1,.9-2.48,2.89,2.89,0,0,1,2.67-.55,5.73,5.73,0,0,1,1.46,3.19,5,5,0,0,1,0,1.4c-.34,2.31-2.22,3.65-3.47,5.37-2,2.72-5.67,4.55-2.7,9.08,1.08,1.65-1.45,3.47-3,4.69-3.37,2.71-7.33,4.5-10.93,6.85-1.91-.19-3.19-2.69-5.48-1.47s-4.84,1-6.81,2.62c1,.8,1.82-.58,2.77-.21,1.83.44,4.43.25,4.36,2.87-.06,2.14-2.46,2.26-4.12,2.81-1.08.36-2.26.3-3.34.68-2.54,1.37-5.35.13-8,.85a3,3,0,0,1-2.62-.11c-1.55-3.21-4.55-3-7.4-3.12-1.79-1.2-3.82-1.06-5.83-1-4.73-.51-9.48-.94-13.46-4-1-.76-2.21-.59-3.35-.69-4.81-.86-6.49-6.07-10.74-7.69-4.6-3.34-10.12-5.47-13.55-10.33-2.26-2-1-5.72-3.61-7.6-1.88-5.33-1-6.6,4-6.09a7.13,7.13,0,0,1,1.26.71c3.1,2.27,4.35,5.82,6.24,8.94,2.3,3.68,6.76,5,9.22,8.53h0c3.28,1.39,6.19,3.47,9.33,5.13,1.32,1.6,3.38,2.09,5,3.26a31.48,31.48,0,0,0,3.79,2.81c2,1.55,4.32,1.75,6.66,2.06a61.52,61.52,0,0,0,15.22-.11c2-.93,3.94-2.08,6-2.9,1.6-.52,3.3-.59,4.91-1.12C230.09,377.81,235.15,371.71,240.9,366.66Z" style="fill:#0e0807"/><path d="M330.29,354.88c-1.18-1.77-2.05-4.05-4.92-2-.45.32-2.45.93-2.66-1.05-.07-.71-.36-1.64-1-1-3.32,3-8.84,1-11.6,5.19-1.47-1.2-1.33-2.89-1.39-4.52-.05-3.78,2.39-6.76,3.31-10.22a13.66,13.66,0,0,0,.84-4.24,5.55,5.55,0,0,1,.64-2c2.68-2,3.9-4.82,4.76-7.89a17.37,17.37,0,0,1,2.07-3.53,14.88,14.88,0,0,0,2.28-4.27,8.61,8.61,0,0,1,4.11-3.59c5.34-1.14,6.31-.39,6.66,4.69.33,4.72-1,9.25-1.27,13.89-.66,4.37-2.49,8.64-1.3,13.2C331.09,350,332.46,352.56,330.29,354.88Z" style="fill:#fbfbfb"/><path d="M156.13,380.16c-.23-2.45-2-5,.3-7.33a2.8,2.8,0,0,1,1.92.5,29.37,29.37,0,0,1,3.18,2.5c1.9,2.19,2.88,5.25,6,6.26a28.52,28.52,0,0,0,7,2.9,25.07,25.07,0,0,1,4.11,1.62A88.93,88.93,0,0,0,189.06,391c10.51,3.85,21.41,4.93,32.2.42,3-1.4,6.63-1.41,9.12-4,3.05-2.42,6.67-3.92,9.85-6.13a3.88,3.88,0,0,1,3.66.37c-.27,2.05-1.64,3.65-1.34,6.12.44,3.57-3,4.22-5.57,3.85-3.27-.46-4.24,1-4.8,3.66-.67,3.18-2.8,4.07-5.6,2.3a2.73,2.73,0,0,0-3.92.92c-1.68,2.92-4.56,2.36-7,2.86-.66.13-3.6,1.73-2.62-2.06.26-1-4-.67-5.37.32-2,1.43-3,.79-4-.73-2.46-3.69-6.23-3.75-8.92,0-1,1.38-2.88,2.09-3.7,1.53-1.07-.74-.62-2.27,1.15-2.76.74-.21.66-1,.19-1.63s-1.09-.24-1.74-.16c-2.82.37-5.8.9-6.76-3a1.54,1.54,0,0,0-1.83-1.27c-5,.69-9.9-1.55-15.21-.06a9.71,9.71,0,0,1-9.83-2.82c4.22.09,4.95-1.74,3-4.84a2,2,0,0,1-.55-1.06,2.7,2.7,0,0,0-1.72-1.66A6.24,6.24,0,0,1,156.13,380.16Z" style="fill:#fbfaf9"/><path d="M361.08,315.21l-.15-1.24c1-4.63,4.13-5.67,8.19-5.78,4.8-.13,6.61,2.5,9.46,5.26,2.18,2.12,6.25,4,9.53,2.11,4.48-2.59,6.67-.7,9.2,4.26-.29-3.32-.46-5.4.82-7.14,2.51.88,2.33,3.14,2.14,5-.82,7.5-.53,15.05-1.15,22.56-.36,1.32-.83,2.61-1.19,3.94-1.21,1.87.34,5.1-2.9,6-1.31-1,.2-5.71-4-3.08l-.56-.46a4.53,4.53,0,0,1-.53-3.83c2.63-7.44-.46-13.12-5.41-18.28-.93-2.42-2.23-4.24-5.19-4.55s-5.24-2.65-7.93-3.87a11.9,11.9,0,0,1-1.15-.67,6.8,6.8,0,0,0-6.69-.68A3.63,3.63,0,0,1,361.08,315.21Z" style="fill:#fbfaf9"/><path d="M484.76,365.07c1.15-.15,2.14-4.67,3.48-.14,1.46-1.64,2,5.31,3.82.4a4.61,4.61,0,0,1,2.39,5.75c-.62,1.73-1.55,4.58-5.17,3.38,2,3.1,4,1.28,5.74.87,1.19,1.51-1.23,1.9-.85,2.94,1.36,3.74-1.68,3.71-3.34,3.14-5-1.71-9.74.13-14.58.52-3.08.25-5.31,0-3.55-4.39,1.07-2.67-2.46-4-4-3.61-2.22.49-3-.35-3.92-1.72-.76-1.09-1.09-2.18-2.84-.55s-5.86-.54-6.2-2.93c-.09-.59,0-1.13.47-1.13,1.27,0,2.81.45,2.22-1.75-.47-1.77-2-1.45-3.26-1.32-2.22.24-3.46-3.4-6-1.45l-.54-.55a3.07,3.07,0,0,1,.05-2.27c4.06-5.12,7.27-4.6,11.87,1.88,2.11,3.49,5.75,5,9,7.06a31.63,31.63,0,0,0,9.42,4.09c2.18.53,4.17.89,5.94-.88s.92-3.61.12-5.44A2.72,2.72,0,0,1,484.76,365.07Z" style="fill:#fbfaf9"/><path d="M473,358c-2,.08-2,1.47-2,2.92-1.83.81-3-.7-4.52-1.19-1.92-1.67-4.11-3.09-5.39-5.4.46-2.88-3.78-4.85-1.63-8-.13-.05.53-.07,0-.16a2.82,2.82,0,0,1-.92-.2c-3.21-3.51-1.62-7.66-1.6-11.6.23-1.43,1.9-2.49,1.09-4.21-.5-1.71-.94-3.42,0-5.12,3.07-.52,5.92.95,8.93,1,3.16-1,2.63,1.71,2.7,3,.18,3.58.92,7.21.48,10.73a10.46,10.46,0,0,0,2.24,7.9c.69,2.1.22,4.44,1.5,6.47C474.77,355.54,474.1,356.89,473,358Z" style="fill:#fbfafa"/><path d="M269.1,189.24a43.06,43.06,0,0,0,2.33-18.44c-.61-6.67-5.82-11.13-11.74-14.22-17-8.9-27.33-.21-34.51,12.45a12.89,12.89,0,0,1-12.3,6.9c-3.55-.31-7.22.74-10.55-1.57-1.16-.8-2.07.4-2.69,1.48-1.75,3.09-4.92,4.78-7.89,5.64-8.58,2.48-15.37,7.37-21.37,13.7-1.46,1.55-2.85,3.38-5.45,2.73-.37-1,.55-1.33,1-1.89L167,195c1.16-1.85,3.4-2.4,4.8-4l1.17-1.26c1.27-2.13,3.21-3.61,5-5.21a46.28,46.28,0,0,1,4.29-2c2.09-1,4.16-2.26,6.41-2.59,5-.74,7.09-5.1,10.57-7.7l-.19-.23.16.25c2.22-2.1,4.11-1.67,5.74.75h0c1.37.32,2.73.83,4.12.07l-.06,0c1.16-1.39,2.83-1,4.15-.76,4.3.78,7.28-1,9.63-4.35l1.16-1.2A24.85,24.85,0,0,1,229.1,159c1-1,2-2,2.93-2.95,5.33-6.48,19.2-7.44,26.22-3.81,1.77.92,3.58,1.76,5.35,2.66,4,3.34,7.86,6.82,9.26,12.15l.3.95c1.88,6.15,2.39,12.18-1.57,17.82C270.26,186.62,271.58,189.33,269.1,189.24Z" style="fill:#121111"/><path d="M290,306c3.63-.74,5-.11,5.71,3,.43,1.94,1.88-.88,2.9,1,1.21,2.27,2.38,4.66,4.11,7.43.56-1.85.57-3.38,1.34-4.77,1.56-2.82,2-5.72-1.47-8.1-3.13-2.13-3-5.46.17-8.16,1.51-1.3,1.19-2.47.62-3.93-.81-2-.56-3.74,1.7-4.68,3.06.73,1.93,3.71,3,5.52-1,7,1.21,14.08-.12,21.11a28,28,0,0,0-2.59,10.28c-.22,2.28-.46,4.54-2.25,6.25-2.1.55-3.58-.49-3.23-2.42.78-4.34-2.86-4.36-4.87-4.49-2.83-.17-4.43-.07-3.13-3.51.54-1.44-1.39-1-1.76-1.84a3.23,3.23,0,0,1-.67-1.18,5.25,5.25,0,0,1,.73-3.22c.18-.38.38-.75.58-1.11.72-1.49-.28-2.72-.63-4.06C289.82,308.16,289.39,307.11,290,306Z" style="fill:#fbfafa"/><path d="M274,310l2-2.08a7.05,7.05,0,0,1,3.38-2.79c4.12-2.08,7.44-1,10.13,2.56.42,2.18,2.81,3.88,1.6,6.47l.06-.05c-2,1.56-3.26,4.26-6.29,4.39-2.68-1.52-.83-3.11-.07-4.68.26-.71.8-1.59-.18-2-1.93-.88-2.73.88-3.82,1.89a5.78,5.78,0,0,1-1.62,1.24c-3,.87-4,3.21-4.32,6-.52,1.63-2,2.44-3.08,3.56a15.59,15.59,0,0,0-1.29,1.53c-2.09,3.34-4.86,6.38-4.66,10.71a23.1,23.1,0,0,0-.76,3.77,3.39,3.39,0,0,0,.82,3.24l.89.82a5.81,5.81,0,0,1,1.74,1.75c.26,1.32,1.29,2.13,2.08,3.11a5.13,5.13,0,0,1,.43,2.78,3.18,3.18,0,0,1-1,2c-2.94-.86-4.69-3.48-7.25-4.9-3.3-6.28-2.77-12.73-.81-19.23l.08,0c3.56-5.38,6-11.37,9.1-17A10.32,10.32,0,0,1,274,310Z" style="fill:#120c0d"/><path d="M308,247a5.08,5.08,0,0,0,.05-.87,2.31,2.31,0,0,1,1.4-.81c5.28,3,5.46,8.11,5.5,13.28-3.08,5.4-4.41,10.88-1.14,16.78.64,1.14-.09,2.58-.34,3.88-1,5.35-2.27,10.66-2.12,16.18,0,1.57.23,3.76-2.62,2.39-1.79-4.28-1.6-8.9-2.37-13.36a5.91,5.91,0,0,1,0-1.68c1.27-4.49.56-9.08.84-13.57C307.67,261.84,304.91,254.3,308,247Z" style="fill:#1a1110"/><path d="M222,380c-1.46,1.29-3.38.36-5,1-4.5,2.12-9.12,3.66-14.21,3-1.55-.21-3.45.39-4-1.86,2.92-.37,5.84.74,6.68-4.48.61-3.75,6.6-4.79,10.18-4.69,12.72.37,12.71.74,20.28-3-1.14,5.26-6.14,6.12-9.82,8.41C224.92,379.09,223.24,379.05,222,380Z" style="fill:#faf8f7"/><path d="M423,342.15c-1.21-1.93.38-6.24-4.75-5-1.48.37,0-2.08-.31-3.19,1.41-.87,3.21.14,4.55-1a6.37,6.37,0,0,0,2.59-4.26c.73-2.26,3-3.31,4.17-5.19a19.8,19.8,0,0,1,3.51-4.48,6,6,0,0,1,2-1.09c3,0,6.75-2,7.9,3-.94,3.69-4.35,5.25-6.68,7.75a52.77,52.77,0,0,0-10.54,12.43A2.42,2.42,0,0,1,423,342.15Z" style="fill:#f7f5f4"/><path d="M304.94,282c-1.31-.37-3.24,2.23-4-.83a8,8,0,0,1,.79-6.26c.7.52,1.14.32,1.45-.47s-.14-1.18-.48-1.76a4.4,4.4,0,0,1-.57-2.2c5.56-2.84.93-5-.44-7.36-.67-1.12-1-2.61.1-3.1,4.68-2,2.63-5.46,1.53-8.07-1.4-3.32,1.31-6.64-.59-9.82-.17-.27.71-1.2,1.91,0,1.51,1.51.9,3.67,2.37,5a85.34,85.34,0,0,1,.48,16.14c-.46,5.26,1.1,10.49.3,15.76A4.47,4.47,0,0,1,304.94,282Z" style="fill:#fbfafa"/><path d="M262,330c.45,4.46-2,8.78-.71,13.25.6,2,.9,4.24,2.66,5.75,2.91,2.85,4.91,6.59,8.49,8.79.36.23.72.48,1.06.74a20.27,20.27,0,0,0,3.8,2.07c1.12.9,2,2.11,3.42,2.62,2.34,1.75,4.77.94,7.19.28a17.75,17.75,0,0,1,4.9-.8c1.89.11,3.73-.49,5.62-.46,2.92.09,5.49,1.81,8.4,1.83.72-1.32-.07-2.61-.05-3.91-.12-1.91-.09-3.82-.12-5.73a14.56,14.56,0,0,1,0-1.48,25.48,25.48,0,0,1,3-9.1,9.63,9.63,0,0,1,2.06-3,1.35,1.35,0,0,1,1.34.16q-1.61,4.85-3.22,9.68a27.89,27.89,0,0,0,.35,11.64c.71,2.53.86,5.36-2.56,6.51h-1.41c-4.78-3.64-10.24-3.39-15.6-2.23a54.21,54.21,0,0,1-10.83.82c-7-3.17-12.3-8.3-16.56-14.58l-.86-1.06C260.07,344.58,257.47,337.35,262,330Z" style="fill:#3a3233"/><path d="M158.05,345l-4.25,1.92c4.15,1.45,7.66,3,5.4,7.89l-.44.46c-1.6-.18-2.41-1.61-3.67-2.33v0c-1.39-.73-2.66-2.27-4.42-.87s-1.13,3.23-.6,5c.7,2.26,2.6,4.35,1,6.93l-1.68,2.08c.75-3.19-4.07-1-3.85-4.22a78.51,78.51,0,0,0-.23-13.54c-.38-3.74,2.15-5.27,4.47-4.85C152.5,343.93,155.55,343.24,158.05,345Z" style="fill:#faf9f9"/><path d="M253,221h-1c-6.14-.68-12.9,1.42-18-4-7.3-2-14.79-1.7-22.25-1.81-4.54-.06-9.34-.81-9.44,6,0,.75-1,.75-1.6.72-.87,0-1.17-.42-.78-1.27.28-.63,1.47-1.52.35-1.87a4,4,0,0,0-2.89,1.13c.51,3.92-1.29,1.87-3,1.5s-3.44.8-4.38,2.56h0c-1.59-.8-4.23,3-5-1.16,1-4.15,5.46-3.28,7.91-5.33,2.63-.53,4.79-2.17,7.27-3.11,8.54-3.25,17.27-1.15,25.88-1.06A50.62,50.62,0,0,1,241.55,216a29.88,29.88,0,0,0,16.61.36c2.21,2.63,1.61,4.28-1.78,4.73C255.3,221.19,254.14,221,253,221Z" style="fill:#f9f8f8"/><path d="M408,290c-.07,5.74-.09,11.39-1.38,17.11-.93,4.1-2,8.73.74,12.86.83,1.24.49,3.29-.07,3.71-5.19,3.88-.62,9.18-2.17,13.52a1.15,1.15,0,0,0,.22.92c1.2,1.41,1.11,2-.6,3.2.72,1.19,1.83-.9,2.68.53-2.07,2.64-5.84,4.72-4.1,9.13,1.11-.15.35-1.45,1.36-2.12.55,2.41.56,4.13-2.48,4.24l-.68-.55c-1.48-3.63-1-7.35-.43-11.06,2.48-5.84.6-12,1.18-17.95.86-5.31-.14-10.7.64-16,1.48-5.58.26-11.4,1.55-17a2.36,2.36,0,0,1,2.05-1.18A2.77,2.77,0,0,1,408,290Z" style="fill:#f9f8f8"/><path d="M150,237l-1.89,3.4c-2.09-2.45-1.09-5.69-2.48-8.23-.31-.58-.43-1.63.23-1.76,3.57-.68,4.17-3.57,5-6.33a3.57,3.57,0,0,0-.56-3.31c-2.79-3.82-1.64-6.73,1.64-9.75,2.87-2.64,6.34-4.95,4.54-10.38-.94-2.86,2.24-2.84,4.47-1.66a1.9,1.9,0,0,1,.69,1.39c-2.9,5.3-4.34,11.24-7.5,16.48-2,3.24-.8,7.43-1.48,11.15-.29,1.6-.22,3.28-1,4.8C150.77,234.08,151.46,236,150,237Z" style="fill:#f9f9f9"/><path d="M347,374.87c-1.32,1.78-.38,4.87-3.29,5.73-1,.3-2.11,1.69-3,.19a3.35,3.35,0,0,1-.21-2.84c.91-1.59,1.75,1.19,3.44-.19-3.88-1.22-4.12-8-10.41-5.1-1.24.57-5.08-.55-3.52-3.65,1.92-3.82-.59-7.8,1.19-11.43,1.64,0,2.55,1.09,3.38,2.3a22.4,22.4,0,0,0,6.91,8.44C343.54,370.32,346.35,371.7,347,374.87Z" style="fill:#fafafa"/><path d="M510.75,298.08c3,1.08,4.85,2.74,3.57,6.35-.35,1,.36,2.33,0,3.35-.36,1.18,2,3.34-.74,3.42-2.47.08-3.73,5.36-7.35,1.1-2.54-3-11.06-2.43-14.32.57-2.28,2.09-2.69-.07-3.87-.75l-.37-.71c.25-1.79,1.48-2.79,2.92-3.63,5.22-2,10.6-1.13,15.93-.94,5.39,1,3.82-3,4.12-5.66a8.94,8.94,0,0,1-.36-1.25A2.4,2.4,0,0,1,510.75,298.08Z" style="fill:#f9f8f6"/><path d="M402,236c-.22-1.9-1.49-3.68-.28-5.75.56-1,.55-3-.49-3.12-5.08-.75-3.66-4.92-3-7.07.79-2.41,4.56-2.3,6.95-2.72s5.18,1.12,7.08,2.86c1.49,1.38-1,2.45-1.3,3.8-1.22,1-3.05-.87-4.1.88a14.45,14.45,0,0,0-1,3.12c-1.11,2.81.13,6-1.41,8.74C403.2,237.87,402.62,236.85,402,236Z" style="fill:#fcfbfa"/><path d="M150,237c.33-1.36-.66-3.07,1.07-4.06,1.14,1.17-.08,2.92,1,4.11,0,.65,0,1.3.07,2,1.15,1.88-.3,4.16.94,6l.12,1.94c.94,1.3.44,2.65.11,4,.07,2.67,1.66,4.78,2.68,7.09,1.22.67.09,2.21,1.1,2.95.12,2,1.42,3.09,2.92,4.05,3.48,2.48,3.24,7.36,6.51,10a17,17,0,0,0,2.14,1.53c3,1.93,5.86,3.95,9.41,4.69a35.92,35.92,0,0,1,5.19,2,4.43,4.43,0,0,1,2.13,2,1.27,1.27,0,0,1-.64,1.26c-2.23.8-3.86-.66-5.66-1.49-2.25-1-4.57-1.79-6.73-2.93-5.66-3-11-6.22-12.72-13.25-.62-2.49-3-4.55-4.57-6.8-1-2-2.05-4-3-6-2-2.84-.16-6-.89-9-1.67-1.91.19-4.37-1-6.36Z" style="fill:#312a2b"/><path d="M204,277c.63,1,2.07,1.45,2.17,2.88l-.25.21a3.21,3.21,0,0,1-2.89.72c-8.71-.61-16.22-5.45-24.7-7-3-.55-5.54-2.88-7.21-5.72a3.92,3.92,0,0,1-.22-2.95c3.32,1.42,6.68,2.53,10.34,1.34-.09,1.68,2.5,1.68,2.18,3.49-.17.93-.25,1.78,1.09,1,2.92-1.66,3.78-1.35,2.09,2-.34.67.93,1.16,1.37.91,3.42-1.92,5.27,1.78,8,2.13,1.13-.66,1.51.32,2.05.94H201A2.31,2.31,0,0,1,204,277Z" style="fill:#f8f8f7"/><path d="M225.22,304.79c-2.91.18-5.34-1.52-8.06-2-2.26-.41-4.67,1-6.86-1.12-1.69-1.65-4.56-2.59,1-5.61-5.22,1.41-7.23.07-8.24-3,1.33-1,3-.43,4.42-.86a12.75,12.75,0,0,1,4.77,1.27,62.77,62.77,0,0,1,9.13,5.14C223.35,300.07,226.06,301.4,225.22,304.79Z" style="fill:#f9f9f8"/><path d="M182.05,223.33c-2.16,5.47-3.52,7.19-7.28,9.25-1.72.94,5.53,1.1.12,3-3.66,1.26-6.73,4.39-10.69,5.53-1.08-1.74.31-3.09.71-4.59a6.35,6.35,0,0,1,2.12-2.76c2.24-2.53,4.71-4.83,7-7.34,1.86-2.07,3.89-4,7-3.93A1.5,1.5,0,0,1,182.05,223.33Z" style="fill:#f9f8f8"/><path d="M341.75,360.07c.89.36.8-4.86,2.93-.38.53,1.12,4.65,2.44,7.27,3.24,5.59,1.69,8,7.7,5,13l-3.39,2.5c-1.08-1.31.58-4.3-2.41-4.34l-.49-.35a2.25,2.25,0,0,1,0-1.18,17.33,17.33,0,0,0,.7-2.33c.11-2.28-1.28-3.49-3.1-4.4C345.85,364.24,342.41,363.72,341.75,360.07Z" style="fill:#fafafa"/><path d="M234,217c5.52,3.49,12.35,1,18,4-.49,1.62,3,2.49,1,4.16-2.73,2.32-5.82.82-8.49-.25s-4.7-3.13-7.54-.91C233.65,222.71,234.23,219.69,234,217Z" style="fill:#fbfafa"/><path d="M274,310c.21,1.58-1.24,2.11-2,3.11-2.19,2.39-2.81,5.64-4.54,8.28-.91,1.39-1.4,3.29-3.46,3.62l-.21-.15c.22-2.86,2.35-5.37-1.32-8.49-1.8-1.53-.36-7.08-.05-10.78.11-1.21,1.47-1.76,2.72-.8.95.73,1.91,1.56.71,2.81s-2.25,2.33-.25,4,2.62-.43,3.45-1.22C270.72,308.75,272.25,308.92,274,310Z" style="fill:#f9f8f8"/><path d="M264,156.21c-2.08-.09-3.78-1.24-5.37-2.29-7.49-5-14.79-4.49-22.11.31-1.35.88-2.68,1.93-4.46,1.86-.91-2.51-2.38-4.21-6.57-3,3.08-3,4.67-5.25,8.07-2.32,1.16,1,4.27,0,5.63-.37,6.51-1.89,12.62-.74,18.86.67a2.9,2.9,0,0,1,4,0C263.31,152.52,264.76,153.94,264,156.21Z" style="fill:#f9f7f8"/><path d="M402,236l1.78,1a2.47,2.47,0,0,1,.64,1.57c1,16.91-.4,33.75-1.43,50.6-.55,1.35-1,2.8-2.84,2.86-.63-.08-2.33.39-1.71-.33,3.34-3.9,2.6-8.43,2.34-12.76-.36-6.09,2.41-12,.43-18.27-.71-2.28-2-4.29-2.69-7.11,3.62,1.6,3.21-.25,3.44-2.84C402.39,245.79,400.09,240.89,402,236Z" style="fill:#f7f5f5"/><path d="M461.85,354.27c1.25,1.94,3.84,2.56,4.75,4.84,3.81,2.54,8.32,3.59,12.34,5.68l5.82.28c2.37,2,3.8,4.62,1.72,7.33a6.24,6.24,0,0,1-7.76,2.22c-3.42-1.26-6.82-2.37-9.71-4.67a2.69,2.69,0,0,1,2.68-.7c1.78.55,3.43,1.43,5.24,1.91,2.36.11,5.11,3,6.85-1-.53-1.49-1.91-1.89-3.16-2.44a16.24,16.24,0,0,0-4.42-.74,8.29,8.29,0,0,1-1.33-.3c-1.11-.37-2.22-.71-3.34-1-7-2.24-11.65-7.18-11.83-12.58C461.08,352.28,461.44,353.32,461.85,354.27Z" style="fill:#645e5b"/><path d="M341.75,360.07c2.38,1.68,4.39,3.91,7.25,4.85a.88.88,0,0,1-.09,1.32q-12.48-.39-14.2-13.18a48.42,48.42,0,0,1-.1-7.52c.08-1.52.06-3,0-4.56a13.62,13.62,0,0,1,.57-4.49c.83-1.44,1.72-2.86,1.48-4.65,0-.5,0-1,0-1.49,1.21-3.84-.24-8.15,2.14-11.77a1.69,1.69,0,0,1,1.43.5c1.64,5-1,9.92-.36,14.9-4.44,6.17-2.72,13.29-2.79,20C337.09,356.62,339.37,358.68,341.75,360.07Z" style="fill:#312d2a"/><path d="M264,156.21c-.69-1.71-2.41-3-2-5.17,1.15-.42,2.36-1.52,3.06.67a41.76,41.76,0,0,0,2,4.52c1.77-.95,2.09-1.93.76-3.38s-.91-2.41.94-2.73,2.47-.17,1.84,2.17c-.26,1,.64,2.49.23,4.24-.9,3.9,4,2.22,5.14,4.51l-.39.52c-.94.81-1.81,1.65-1,3a4.82,4.82,0,0,1,.35.44c0,1.39-.84,2-2.15,2.05C269.82,163.52,267.65,159.25,264,156.21Z" style="fill:#faf9fa"/><path d="M468.94,307c-1.43-.32-2.42-.83-.66-2.09s3.84-1.15,5.76-.83c2.55.42,3.48-.17,2.56-2.74a2.32,2.32,0,0,0-.18-.46c-2.11-3.55,4.58,1.58,2.91-3.15-1.25-3.49,1.68-1.64,3.8-1.19,2.55.55,5.43-.41,7.82,1.5-1.43,2.5-4.76,1.34-6.43,3.35-.23.36-.47.71-.7,1.06a8.07,8.07,0,0,1-1.58,2c-.32.29-.67.56-1,.82-1.58,1.1-2.29,3.48-4.76,3.27a3,3,0,0,1-1.19-.6C473.54,305.17,471.06,307.25,468.94,307Z" style="fill:#fbfafa"/><path d="M406.71,289.9l-1.41.35a1.63,1.63,0,0,1-1-.91,6.8,6.8,0,0,1-.34-2.9,11.89,11.89,0,0,1,.34-2.23c.26-7.6,1.71-15.15.85-22.78a30,30,0,0,0,.29-5.44c1.53-4.07.2-8.48,1.49-12.56.44-1.39.63-4.44,3-1.08-.08,4.24,1.05,8.54-.8,12.66a.66.66,0,0,0-.18.77,19.25,19.25,0,0,0,0,8.61,21.86,21.86,0,0,0,.08,7.61c.6,1.18-.27,1.52-1.07,1.91h0c-.92,3.74-.17,7.56-.47,11.33C407.31,286.79,408.14,288.53,406.71,289.9Z" style="fill:#3a302b"/><path d="M271.59,185.86c2.19-5.8,1.74-11.82,1.57-17.82,2.16,2.06,4.81,3.93,2.86,7.57-1,1.83,1.59,1.77,1.71,3.06s.81,2.79.35,3.78c-.6,1.34-2-.29-3.35,0,0,1.7,3.25,3.05.91,5C273.55,189.08,273,186.2,271.59,185.86Z" style="fill:#faf9fa"/><path d="M468.94,307c2.73-2.38,5.33-3.93,7,1-6.1-.92-4.35,4.12-5.36,7.07-.62,8.34,1.21,16.58,1,24.89a7.87,7.87,0,0,1,.38,1.52c.06,2,.9,4,.34,6.09l-.54.54c-5.12-4.63-2-10.91-3.19-16.33-.43-2,.51-4.31-1.66-5.79v-1a4.1,4.1,0,0,1,.86-3.11A47.14,47.14,0,0,1,468.94,307Z" style="fill:#f7f7f5"/><path d="M409.06,255q-.07-7-.16-14c-1.83-1.06-1.12-2.32-.28-3.59,2.62-2.64,1.95-5.67,1-8.73-.26-2.33-2.26-3.29-3.68-4.7,1.68-3.87,3.34.09,5,0,2.58,4.21,2.39,8.63,1.41,13.29-.8,3.83-1.69,7.71-1.4,11.7.84,1-1,2,0,3A3,3,0,0,1,409.06,255Z" style="fill:#f3f1f0"/><path d="M395,380.05a5,5,0,0,1-.19-5.12l.64.24c1,.53,2,3.07,2.85-.25.87-3.47,0-6.92.34-10.37a25.34,25.34,0,0,0-.26-5c.21-1.15.61-2.05,2.06-1.45,2.48,3.13,0,6.95,1.45,10.22,0,2.45,0,4.91,0,7.36-.54,1.1.07,2.22-.13,3.38-.31,1.83-.34,3.52-2.63,4.13C396.18,384,395.9,381.66,395,380.05Z" style="fill:#615855"/><path d="M263.28,352.87c4.65,5.33,10.24,9.61,15.8,13.93.51.43.48.82-.1,1.17-1,.92.08,1.4.45,2,1.27,2-1.07,1.43-1.63,2-.85.9-1.53-.19-1.59-.9-.42-4.82-4.52-6.94-7.23-10.07-1.2-.81-3.46-.59-3-3C265,356.3,262.09,355.69,263.28,352.87Z" style="fill:#f8f6f7"/><path d="M444.79,308.07c2.14.44,4.41,2,6.25-1.55.42,2.84-1.64,6.18,3.27,5.56,1-.13,1.87,4.31,1.65,6.91a2,2,0,0,1-1.25.6c-3.86-.68-6-3.62-8.26-6.35C445.87,311.53,444.49,310.07,444.79,308.07Z" style="fill:#f9f8f7"/><path d="M225.22,304.79c-2-5.1-7.06-6.44-11.2-8.85-.84-.49-1.86-.62-2.23-1.69a1.86,1.86,0,0,1,1-1,5.51,5.51,0,0,1,4.11.15c1,.56,1.71,1.4,2.62,2.05,2.27,1.65,4.56,3.28,6.72,5.07a20.1,20.1,0,0,1,1.79,2.61c.9,1.24,2.37,1.66,3.56,2.48a30.4,30.4,0,0,1,6,7.33,2.47,2.47,0,0,1-.19,1.94c-1.78.71-2.81-.79-4.15-1.39l.12-.3-.22-.24c-2.42-2.93-5.47-5.26-7.91-8.18Z" style="fill:#423e3f"/><path d="M306.75,279.88c.9-1.72.41-3.56.41-5.35,0-9.15-.08-18.3-.13-27.45a6.44,6.44,0,0,0,1-.05c.41,8.51-.15,17,.93,25.55a17.29,17.29,0,0,1-2.12,11.53C304.42,282.74,305.68,281.31,306.75,279.88Z" style="fill:#201617"/><path d="M454.76,319.06,456,319l2.07,6c1.23,1.5,0,3.46.93,5a3.65,3.65,0,0,1-1,3c0,3,0,5.91,0,8.87,0,1.73.18,3.3,2,4.12l1.89,8.29L460,353c-3.13-1.89-3.4-5.18-4.09-8.28C455.51,336.13,454.84,327.61,454.76,319.06Z" style="fill:#f7f7f5"/><path d="M397.94,341c.3-9.43,1.32-18.85.19-28.29,0-1.54,0-3.09,0-4.63a1.63,1.63,0,0,1,1.87-1.22,3.23,3.23,0,0,1,.92,1.37,194.67,194.67,0,0,1-.2,31.39C400.11,340.67,399.3,341.37,397.94,341Z" style="fill:#332c2a"/><path d="M225.18,304.79c3,2.4,7.61,3.2,7.91,8.18-2.86,2.16-6.05-.75-9.16.6-.86.37,0-2.27-.69-3.46a1.39,1.39,0,0,1,.94-2c1.89-.69.72,2.6,2.48,2.06C228.15,307.78,224.7,306.86,225.18,304.79Z" style="fill:#f9f9f8"/><path d="M426.87,310.93c.7-5.3,2.82-6.92,8.71-5.76,3.06.6,6.07.1,8.39,2.73a2.38,2.38,0,0,1-1.84.93c-5.15-.5-9.93,1.06-14.73,2.56Z" style="fill:#f9f8f7"/><path d="M483.11,301.14c1.84-3,5.28-1.93,7.84-3.1,6.6.94,13.2-2.35,19.8,0L511,300a2.45,2.45,0,0,1-1.6.57,80.38,80.38,0,0,0-21.11,1.31C486.46,302.18,484.69,302.48,483.11,301.14Z" style="fill:#9a9490"/><path d="M260,211c3.54-3.66,6-7.77,6-13.09,0-2.14-.85-4.77,2.19-5.84l-1.29,13.76c-1.65,2.52-2.15,5.77-4.84,7.63-1,.08-2,.5-2.88-.12C258.31,212.19,259.06,211.57,260,211Z" style="fill:#0c090a"/><path d="M198.77,382.1c6.24,2.09,12.22,0,18.26-1.13L212,384a66.1,66.1,0,0,1-17,0,8.19,8.19,0,0,1-7-2,.86.86,0,0,1,.1-1.34,3.77,3.77,0,0,1,4.92,1.22A12,12,0,0,0,198.77,382.1Z" style="fill:#555150"/><path d="M482.24,325a4.71,4.71,0,0,0,0,.92,2,2,0,0,1,0,2.22c-.75,6.51-1.53,13-2.24,19.52a9.67,9.67,0,0,1-1.87,4.5l-.62-.54c-1-2.75.4-5.39.39-8.09,1.28-3.77.22-7.76,1.06-11.57,1.1-3.52.36-7.16.68-10.73.31-3.34.89-6.57,4.91-7.52,1.91,1.53.29,3-.24,4.33C483.43,320.33,482.32,322.51,482.24,325Z" style="fill:#d9d6d3"/><path d="M279,368l.1-1.17c4.34,1.26,8.68.34,12.63-1.05,5.75-2,10.28-.61,14.56,3.11C297.28,365.29,288.06,368.75,279,368Z" style="fill:#f4f2f1"/><path d="M248,355c-.84.4-.95,1.18-1,2-.3.45-.62.48-.94,0-.79-5.08,1.06-10,1.08-15-1.4-1.55-.51-3.53-1-5.25l-.21-1.76a1.42,1.42,0,0,1,.14-2,1.1,1.1,0,0,1,1.37.2c1.34,1.91,1.78,4.19,2.53,6.34C250.87,344.86,249.54,349.93,248,355Z" style="fill:#3f3731"/><path d="M165.92,236.72q-.87,2.17-1.72,4.34c0,1-.1,2-.14,2.95a15.83,15.83,0,0,1,0,3v1c-.76,1.93.61,4.22-1,6,1.82,1.31,1.93,2.63,0,4a1,1,0,0,1-1.43,0c-2.51-4.2-1.71-8.51-.45-12.84l0,0a20.45,20.45,0,0,1,1.87-6.79C163.65,237.13,164.28,236.07,165.92,236.72Z" style="fill:#f8f8f7"/><path d="M253,221c1.12-2.62,6.13.32,6-4.16-.1-1.47.46-2.22,2-1.87-.05.93-.52,2.22-.08,2.72,2.71,3.08-.16,4-1.91,5.31h0c-2-.48-.94,2.19-2.38,2.34C255.44,223.91,254.23,222.47,253,221Z" style="fill:#fbfafa"/><path d="M199.32,172.28c-3.28,7.52-10.83,8.3-17.23,10.89a.72.72,0,0,1-.29-.75q.12-.39.24-.39c2.24-1.06,4.43-2.22,6.72-3.15,6.41-2.62,6.43-2.58,6.54-9C196.71,170.73,197.61,172.27,199.32,172.28Z" style="fill:#f5f4f3"/><path d="M193.06,381.85l-4.94-1.09a2.64,2.64,0,0,1-1.43-1.73A1.35,1.35,0,0,1,187,378c1.61-.8,3.89-.94,3.47-3.69-.13-.88.51-1.19,1.17-.89,1,.43,2.2.63,2,2.3C193.48,377.74,194,379.86,193.06,381.85Z" style="fill:#f8f7f4"/><path d="M314,259c.64-5.24-.35-9.85-5-13,1.37-2,1.71-2,4,0l.21,2a4.67,4.67,0,0,1,2,4l.48,2.18c1.86,3.43.61,6.64-.68,9.85h0c-1.35,1.08.56,3.38-1.56,4.18C309.73,264.88,314.19,262.09,314,259Z" style="fill:#777170"/><path d="M313.87,268.08c.48-1.33-.81-3.15,1.14-4.07,1.09,7,1.89,13.94-.75,20.77l-.82.37c-.14-.09-.39-.18-.39-.28C313,279.26,312.76,273.63,313.87,268.08Z" style="fill:#d9d7d5"/><path d="M222,380c.51-1.77,2.15-1.67,3.47-2.23,4.1-1.72,8.11-3.67,10.43-7.8,2-.54,2.7-3.14,5-3.28C236.05,373.15,230.89,379.2,222,380Z" style="fill:#16100f"/><path d="M179,285l5.93,1.24a6.22,6.22,0,0,1,4,.1c1.58.84,3.55,1.18,4.24,3.2l-.35.59a18.85,18.85,0,0,0-2.65,1.35c-1.68,1.19-3,2.08-2-1.19-1.7,0-1.68-2.58-3.83-2.37A5.36,5.36,0,0,1,179,285Z" style="fill:#f8f8f7"/><path d="M428,370.05,425.78,369a2,2,0,0,1,0-2.15c2.81-1.42,4.55,1.69,7,1.66,1.82.15,3.64.11,5.46.12s3.39,0,4.77,1.23c-2.31,2.87-9.18,3.73-13.09,1.62A11.61,11.61,0,0,1,428,370.05Z" style="fill:#4e4845"/><path d="M314.26,284.78c2.37,4.32,2.13,9,1.41,13.56-.48,3,.4,3.65,3,3.36l.6.59a1.35,1.35,0,0,1-.82,1.34c-4.45.9-5.59-1.62-5.57-5.36.27-4.37-1.45-8.89.94-13.11Z" style="fill:#d9d7d5"/><path d="M417,332c-1.22,1.47-2.59,1.74-4.05.37a5,5,0,0,0-4-1.37c.29-1.1-1.18-4.15,2.28-1.57,1,.78,3.4-2.67,5.95-2.2A3.48,3.48,0,0,1,417,332Z" style="fill:#f9f8f8"/><path d="M261,215a3.24,3.24,0,0,0-2,1.87c-5.67,2.48-11.39,2.07-17.12.26,1.87-2,4.32-1.44,6.54-1.25a12.77,12.77,0,0,0,7.2-1.17,15.79,15.79,0,0,0,2.33-1.07,3.9,3.9,0,0,1,1.14-.46L262,213c.59.34.58.68,0,1Z" style="fill:#504a49"/><path d="M222.86,168c-.83,4.46-4,5.92-7.94,5.36-2-.29-3.91,0-5.84-.25.39-1.12,1.32-2.65,2.14-2.32C215.88,172.71,219.27,170.13,222.86,168Z" style="fill:#f5f4f3"/><path d="M421.87,318.92c-.64-2.69-1.23-5.41-4.44-6.84,3.28-.44,7,3.58,9.44-1.15l.32.26c.48,3.86-1.56,6.25-4.66,8Z" style="fill:#f9f8f7"/><path d="M482.24,325c-1.36-4.26,1.59-7.54,2.57-11.26a1.15,1.15,0,0,1,.18-1.14c.85-.66,1.73-1.2,2.86-.73l.24.23C485.79,316.26,485.35,321.24,482.24,325Z" style="fill:#f9f8f6"/><path d="M428,370.05c5,1.59,10.07,3.59,15.08,0,.51-2.14,1.23-4.08,3.89-4.24a.79.79,0,0,1,.35.76c0,.29-.11.43-.19.43C443,374.07,432.39,375.78,428,370.05Z" style="fill:#f2f1ef"/><path d="M351.19,374.13a36,36,0,0,1,.75,4.33c.06,1,.54,2.58-.94,3a3.56,3.56,0,0,1-3.54-1.23c-.73-.93-.81-2.44.54-2.94,2.53-.93-.05-1.58,0-2.34.8-1,1.71-1.65,3-.91Z" style="fill:#fafafa"/><path d="M395,380.05c1.45.7,1.69,3.48,4.16,2.4,2.16-.95,1.81-2.84,1.77-4.63a2.36,2.36,0,0,1,.93-2.14c1.41,1.35,5.57,2.39.52,4.53,0,0,.41,1.15.62,1.75C397.82,385.26,396.14,384.86,395,380.05Z" style="fill:#f5f5f2"/><path d="M400.13,292c.6-.71.33-2,1.58-2.29a2.15,2.15,0,0,1,1.08,1.12c1,4.48.24,8.9-.5,13.31-.21,1.24-.37,2.73-2.14,2.92l-.42-.33A39.16,39.16,0,0,1,400,294Z" style="fill:#332c2a"/><path d="M151.06,364c-.59-2.88-1.16-5.76-1.76-8.63-.37-1.74-.24-3.47,1.43-4.33,2-1,3.43.07,4.36,1.93-5.1-1-5.25-.78-4,5a12.41,12.41,0,0,1,1.87,8.22C151.77,365.91,151.69,364.7,151.06,364Z" style="fill:#625d5c"/><path d="M159.2,354.79c1.67.3,3.62-1.91,4.92.06s-.67,4.07-1.08,6.13a1.61,1.61,0,0,1-2.06.2c-.26-2.19-2.5-3.77-1.91-6.22Z" style="fill:#faf9f9"/><path d="M262,214c0-.34,0-.67,0-1,3.06-1.4,1.21-6.23,5-7.14,2.34,2.4.74,5.24,1.09,8-1.85-.66-.28-2.78-2-3.39C264.13,210.9,264.49,214.25,262,214Z" style="fill:#f6f6f6"/><path d="M161.17,361l1.87,0c.74,2.42,2.9,3.25,4.77,4.51,1.55,1,3.25,2.24,3.21,4.52-3.79-2.12-6.8-5.22-10.09-8C160.57,361.58,160.65,361.22,161.17,361Z" style="fill:#f0eeec"/><path d="M333.77,360.08l-2.57-2.5c0-1,.05-2-.91-2.7-.1-2.3-.21-4.6-.31-6.9a1.36,1.36,0,0,1,1.44-.07c1.89,1.39,1.67,3.52,1.94,5.49-.4,2.74,3.79,3.86,2.48,6.92A2,2,0,0,1,333.77,360.08Z" style="fill:#312d2a"/><path d="M420.34,362.8c-2.32-4-2.42-13.94-.18-16.74,2,2.74.58,6.05,1.48,9a12.05,12.05,0,0,1,.35,2.15,7.16,7.16,0,0,1,0,1.39,7.29,7.29,0,0,1-.29,1.31A10.18,10.18,0,0,1,420.34,362.8Z" style="fill:#f2f1ef"/><path d="M401.86,368.32q-.86-5.08-1.69-10.17l-.15-.69c0-1.78-.76-3.83,1.81-4.59l.35.23c0,1.13-.47,2.31.42,3.31a4.3,4.3,0,0,1,.13,4.29C401,363.06,402.58,365.83,401.86,368.32Z" style="fill:#f5f5f2"/><path d="M289,308.17c-2.84-2.94-6-4.44-10-2.15-.62-1.14.41-1.47,1-2,1.8-1,3.79-.91,5.76-.91a8.44,8.44,0,0,1,4.19,3h0c.34,1,1.28,1.85.93,3.07C289.9,309.53,289.58,308.55,289,308.17Z" style="fill:#adaaa6"/><path d="M207.27,292.9c-1.39,1-2.83.22-4.25.11l-5.67.48c-.7.06-1.78.74-1.82-.56,0-.58.88-1.19,1.37-1.78l.57-.66C201.16,289.58,205,288.25,207.27,292.9Z" style="fill:#f8f8f7"/><path d="M330,298c3.61,1.05,4.76,4.09,5.82,7.2-2.32,1-3-1-4.11-2.22-.27-.32-.54-.65-.82-1-1.77-1.58-4.8-.4-6.16-2.83a1,1,0,0,1,.33-1.14Z" style="fill:#b9b7b5"/><path d="M243.89,381.63c-1.34.33-2.68.67-4-.09a1.88,1.88,0,0,1-.27-1.31c1.24-2.75,3.51-4.16,6.3-4.9a2.53,2.53,0,0,1,1.29.52,4.8,4.8,0,0,1-2,4.19Z" style="fill:#69625c"/><path d="M478.94,364.79c-4.65-.73-9-2.09-12.34-5.68,1.89-.48,2.88,1.27,4.38,1.78C474.49,360.44,477,362,478.94,364.79Z" style="fill:#f7f7f5"/><path d="M229.1,159c-1.63,2.63-2.14,6-5.08,7.79C221.26,161.33,226,160.73,229.1,159Z" style="fill:#f9f7f8"/><path d="M157.93,344.6c3.5,1.67,7,2.29,6.4,6.81-.13,1-.23,1.51-1.24,1.51-.65,0-1.57-.08-1.32-1C162.83,348.35,158.94,347.48,157.93,344.6Z" style="fill:#faf9f9"/><path d="M417,332l.21-4.77h0a2.31,2.31,0,0,1,1.08-1.66,1.9,1.9,0,0,1,1.87.36c.56,1.63-1.19,3.14-.23,4.79.72,1.2,2.22,1.2,3.17,2.05a.76.76,0,0,1-.15,1.13c-1.6,1.7-3.28.43-4.94.13C417.64,333.33,417.32,332.66,417,332Z" style="fill:#524e4a"/><path d="M306.75,279.88c-.28,1.42-.95,2.84.07,4.23V284a14.58,14.58,0,0,1,.13,9c-1.71-1.31-.54-3.7-1.9-5.14C303.4,286,305,284,304.94,282,305.18,281,305.32,279.88,306.75,279.88Z" style="fill:#b6b1b5"/><path d="M473,358c1.12-3.46-2.64-6.36-1.15-9.86l.2-.17c1.21-.27,1.51.64,1.92,1.43.25,1.52,1.65,2.43,2.07,3.87C475.1,354.89,476.83,358.23,473,358Z" style="fill:#f7f7f5"/><path d="M307.68,368.85c2.73-1.76,2.53-4.13,1.78-6.92-1-3.72-1.61-7.56.43-11.23.07,1.76.13,3.53.2,5.29-.62,2.84,1,5.42,1,8.19C311,366.54,311.18,369,307.68,368.85Z" style="fill:#f4f2f1"/><path d="M351,374l-3,.91-.48-.13-.49.09L340.93,369a2,2,0,0,1,1.1-.63c1.8-.05,3.49.14,4.46,2,1.2,1.48,3.55,1,4.62,2.7A1.62,1.62,0,0,1,351,374Z" style="fill:#6c6563"/><path d="M162.09,258a1.69,1.69,0,0,1,1,0,7.17,7.17,0,0,0,2.7,3.17c2.34.54,3.37,2.81,5.23,4h-.05l.88,2.1A2.14,2.14,0,0,1,169,267L168,266a17.25,17.25,0,0,1-5.77-6.2l.06.09C161.4,259.35,161.5,258.69,162.09,258Z" style="fill:#a5a2a2"/><path d="M180.13,375.86c-3.6-1.08-6.32-3.53-9.13-5.85,2.82-1.84,3.65,2.49,6,2,1.21,1.79,4.19.62,5.05,3,0,.28,0,.57,0,.85A1.13,1.13,0,0,1,180.13,375.86Z" style="fill:#f0eeec"/><path d="M359.3,380.56c.28,1-.09,2.05-1,1.7-1.22-.48-3.14-1-2.84-2.78.2-1.22,1.45-3.32,2-3.25C360.05,376.6,358.37,379.26,359.3,380.56Z" style="fill:#fafafa"/><path d="M400,294l-.3,12.78-1.58,1.28C399.13,303.41,397.62,298.44,400,294Z" style="fill:#fbfaf9"/><path d="M245.23,380l1.69-4.08c-.21-.84.23-1.19,1-1.28,2.24,1.42-1.5,4.56,1.66,5.71C248,382.1,246.52,382,245.23,380Z" style="fill:#f6f5f3"/><path d="M153,366.14q-.94-4.11-1.87-8.22c3.64,1.24,1.54,4.88,3,7.05,1.38,1,2.57,2.12,2.58,4a1.84,1.84,0,0,1-.75,1.15C154.29,369.25,153.92,367.48,153,366.14Z" style="fill:#443e3e"/><path d="M246.06,333l-.12,2c-4.57-2.63-2.66-7.45-3.8-11.24,2.08-.07,2.67,1.55,3.4,3a4.53,4.53,0,0,1,.19,2,5.56,5.56,0,0,0,.29,3.64C246,332.55,246,332.76,246.06,333Z" style="fill:#f3f5f3"/><path d="M182.05,223.33a1.62,1.62,0,0,1-1-.21c.26-3.79,4.24-2.31,5.88-4.15l4-1.18a.79.79,0,0,1,1.22.34c-1.94,2.27-5.33,2.33-7.18,4.73Z" style="fill:#6c6a68"/><path d="M205,173.05c-1.86-.68-3.68-1.6-5.74-.75-.5-1.12-1.71-2.6.78-2.63C202.38,169.63,205.41,169,205,173.05Z" style="fill:#f5f4f3"/><path d="M171,265.12c-2.39-.47-3.67-2.41-5.23-4,2.26.08,3.24-2.15,5.72-3.14C170.5,260.59,168.37,262.91,171,265.12Z" style="fill:#f8f8f7"/><path d="M406.71,289.9c.69-5.31-.61-10.77,1.19-16q0,8.06.08,16.1Z" style="fill:#f7f6f5"/><path d="M233.19,313.51c2-1.11,2.32,1.45,3.7,1.71,1.67.74,2.58,2.26,3.68,3.59.51,1,1.09,2,.58,3.13C237.15,320.4,236,316.17,233.19,313.51Z" style="fill:#f2f0ef"/><path d="M290,306c-1.86-.33-3-1.62-4.19-3,1.94.83.62-3.28,3-1.94C290.89,302.38,289.67,304.39,290,306Z" style="fill:#fbfafa"/><path d="M419.72,325.67l-1.73.42c-.63-1.34.47-2.13,1-3.11-1.39-3,1.43-3.07,2.9-4.06l.31.24c.92,1.67,0,3.14-.49,4.66A3,3,0,0,1,419.72,325.67Z" style="fill:#f9f8f7"/><path d="M241.15,321.94,240,319c3.95.14,5,3,5.81,6.14a2.45,2.45,0,0,1-.92,2.06l-2.78-3.45A1.68,1.68,0,0,0,241.15,321.94Z" style="fill:#3f3731"/><path d="M178.27,185.14,173,189.75c0-2.75,1.38-4.29,4-4.89A1,1,0,0,1,178.27,185.14Z" style="fill:#e9e8e8"/><path d="M247.9,374.68c-.32.43-.65.85-1,1.28l-1,0c-.66-3.42,1.2-5.5,3.82-7.18a1.68,1.68,0,0,1,1.39.25c-.06.57-.12,1.14-.17,1.71C249.1,371.42,249,373.41,247.9,374.68Z" style="fill:#625c59"/><path d="M482.25,328.16c0-.74,0-1.48,0-2.22,3.18-.43,2,2.61,3,3.85-.36.3-.72.85-1.08.86C482.56,330.67,483.3,328.7,482.25,328.16Z" style="fill:#f9f8f6"/><path d="M178.27,185.14l-1.28-.28c.76-2.6,2.89-2.73,5-2.83l.05,1.14A4.11,4.11,0,0,1,178.27,185.14Z" style="fill:#f5f5f5"/><path d="M315.21,252c-.56-1.4-2.24-2.23-2-4,.88-.26,1.93-1.86,2.4-1A4.48,4.48,0,0,1,315.21,252Z" style="fill:#f6f4f3"/><path d="M414.89,268.69c-2.12-.83-2.9-2.7-4.17-4.73C414.46,263.84,413.29,267.52,414.89,268.69Z" style="fill:#f7f6f5"/><path d="M266,358c.75,1.25,2.62,1.41,3,3-.88.3-1.32,2.27-2.71.7C265.23,360.52,264.34,359.34,266,358Z" style="fill:#fafaf8"/><path d="M156.13,380.16l1.94,0a9.53,9.53,0,0,0,2,2.87c0,.29-.07.57-.1.85C154.67,386.86,156.71,382.14,156.13,380.16Z" style="fill:#828382"/><path d="M163.05,254c.32-2-.81-4.25,1-6C164.23,250.1,166.65,252.56,163.05,254Z" style="fill:#f9f8f8"/><path d="M411,252c-1.56-1-.26-2,0-3a15.56,15.56,0,0,1,1.87,1.45c.8.81,1.66,1.94.6,2.88C411.83,254.81,412.62,251,411,252Z" style="fill:#f7f6f5"/><path d="M315,264a31.37,31.37,0,0,0,.68-9.85Q319.08,259.34,315,264Z" style="fill:#d9d7d5"/><path d="M152.05,256c2.55,1.23,2.76,3.61,3,6C153.27,260.39,151,259,152.05,256Z" style="fill:#f5f5f5"/><path d="M190,224c1.16.28,2.83-.72,3.4,1,.3.91-.87,1.34-1.59,1.49-2.25.47-1.62-1.34-1.81-2.47Z" style="fill:#f9f8f8"/><path d="M420.92,356.1c-2.29-3.2-.46-6.7-.76-10,.27,0,.53-.07.8-.12a3.82,3.82,0,0,1,1.26,2.37C422.18,351,423.07,353.79,420.92,356.1Z" style="fill:#2f2422"/><path d="M182.09,375c-1.61-1.12-4.14-.69-5.05-3C178.53,373.29,182.41,370.6,182.09,375Z" style="fill:#f8f7f4"/><path d="M180.13,375.86l1.94,0a.69.69,0,0,0,.65.32A7.69,7.69,0,0,1,187,378h0v1a1.28,1.28,0,0,1-2,0C182.86,378.82,181.43,377.45,180.13,375.86Z" style="fill:#7d7976"/><path d="M442,307.92l2,0a.89.89,0,0,0,.82.17c1.1,1.47,3,2.58,2.22,4.89a1.51,1.51,0,0,1-1.1.49c-1.34-.19-.88-1.78-1.81-2.28C443.31,310.14,441.37,309.85,442,307.92Z" style="fill:#6a6662"/><path d="M447.09,367c-.09-.44-.19-.87-.29-1.31-.63-1.87.15-2.73,2-2.81l.28.24c0,.16-.07.35,0,.47C450.34,365.81,451.18,367.82,447.09,367Z" style="fill:#fbfaf9"/><path d="M466.44,378.65c1.06-.93,1.84.11,2.67.43s1.48.77,1.16,1.83C468.05,380.46,468.05,380.46,466.44,378.65Z" style="fill:#fbfaf9"/><path d="M421.09,348l-.13-2.06c-.33-1.82,1.36-2.54,2.07-3.79l1.89-1.29C426,344.51,423.78,346.38,421.09,348Z" style="fill:#251c1c"/><path d="M345.78,304.15c2.69.47,3.6,1.37,3.91,3.27C347.4,307.78,346.89,306.33,345.78,304.15Z" style="fill:#fbfbfa"/><path d="M280,304l-1,2c-.89.82-1.58,2-3,1.88C275.78,305,277.75,304.34,280,304Z" style="fill:#f9f8f8"/><path d="M420.34,362.8c-.2-1.08-.65-2.2.45-3.1,2,1.54,4.12,3.06,3.45,6.13-1.36.87-1.73-.19-2.15-1.12A2.64,2.64,0,0,0,420.34,362.8Z" style="fill:#4e4845"/><path d="M325.06,298.06v1.07c-1.13,2.75-3.42,3.13-6,2.92-.13-.12-.26-.24-.4-.35C320,299,322.84,299.11,325.06,298.06Z" style="fill:#d9d7d5"/><path d="M150.18,240.63a14,14,0,0,1,1,6.36c-1.12.36-2.33.88-1.92-1.22C149.57,244.06,149.87,242.34,150.18,240.63Z" style="fill:#f5f5f5"/><path d="M259,223c4.2,0,1.75,2,1.35,3.75-1.93-1.06-1.11-2.56-1.35-3.75Z" style="fill:#fbfafa"/><path d="M365.61,306.52c-2.31,1.61-3.53,2.31-5.59,1.66C361.5,306.76,362.82,306.36,365.61,306.52Z" style="fill:#fbfaf9"/><path d="M226,148.9c-.95,2.16-1.5,3.38-2.2,5C222.7,151.65,222.84,150.22,226,148.9Z" style="fill:#f9f7f8"/><path d="M276,161c1.53.7,2.34,1.93,1.87,3.52-.52,1.8-1.93.13-2.87.48h0a3.76,3.76,0,0,1,1-4Z" style="fill:#faf9fa"/><path d="M407.87,273.91c.35-.64.71-1.27,1.07-1.91.94.92,2.59-.1,3.48,1.33C411.07,275.05,409.55,275,407.87,273.91Z" style="fill:#f7f6f5"/><path d="M171.84,191c-.53,2.61-2.8,3.12-4.8,4C167.33,192.06,169.64,191.6,171.84,191Z" style="fill:#e9e8e8"/><path d="M158.33,373.85l-1.9-1c-.18-.9-.37-1.81-.55-2.71l.25-.21C158.37,370.39,160.51,370.91,158.33,373.85Z" style="fill:#443e3e"/><path d="M422.09,364.71l1.75,1.49a1.49,1.49,0,0,1,1.87.94c0,.61.05,1.23.07,1.85C423.44,368.52,422,367.26,422.09,364.71Z" style="fill:#f2f1ef"/><path d="M161.09,200.14l-.18-1.14a6.71,6.71,0,0,1,5.05-3l-1,1.89h0C163.9,199,163.09,200.61,161.09,200.14Z" style="fill:#e9e8e8"/><path d="M262,151h-4a1.86,1.86,0,0,1,2.24-1.92C261.48,149.19,261.89,150,262,151Z" style="fill:#faf9fa"/><path d="M313,246c-1.34-.7-2.67-1.61-4,0a2.42,2.42,0,0,0-.91.18c0-2.07,1.41-2.28,2.91-2.11C312,244.18,313.77,243.89,313,246Z" style="fill:#f6f4f3"/><path d="M268.19,307.69l5.4-2C271.94,307.73,271.94,307.73,268.19,307.69Z" style="fill:#f9f8f8"/><path d="M467.82,321.88c.11,1.15.33,2.32-.86,3.11-1.33-1.21-1.29-2.61-.59-4.1Z" style="fill:#fbfafa"/><path d="M408.86,264.39c-.95-2.88-1.92-5.75,0-8.61Q408.87,260.08,408.86,264.39Z" style="fill:#f7f6f5"/><path d="M164.05,247c-1.29-1-1.28-2,0-3C166.05,245,166.06,246,164.05,247Z" style="fill:#f9f8f8"/><path d="M345.62,307.37c.25.34.82.79.93,1.33.2.91-.53,1.14-1.2.83-.46-.22-1.45,0-1.28-1C344.18,307.83,344.53,307.32,345.62,307.37Z" style="fill:#fbfbfa"/><path d="M476,353.24c-1.82-.44-3.19-1.24-2.93-3.44,1.9-.21,3.23.93,4.62,1.93l.45.45Z" style="fill:#d9d6d3"/><path d="M246.15,336.74a6.56,6.56,0,0,1,1,5.25C245.15,340.56,244.83,338.8,246.15,336.74Z" style="fill:#f3f5f3"/><path d="M240.71,224.25c-1.29,1.81-2.24,2-3.25,1.09-.3-.28-.3-.87-.43-1.32Z" style="fill:#fbfafa"/><path d="M197.89,399.93c-.26-.12-1-.27-1.06-.51-.09-.76.55-1.13,1.23-1.28s1.42,0,1.46.81S198.76,399.84,197.89,399.93Z" style="fill:#fbfaf9"/><path d="M408.94,331.3c-.19.81-.44,1.42-1.21,1.48s-1.46,0-1.2-.92c.12-.4.94-.65,1.49-.81C408.21,331,409,330.47,408.94,331.3Z" style="fill:#f9f8f8"/><path d="M278.35,167.27a11.66,11.66,0,0,1,1.06,1.81c.25.75-.16,1.45-.9,1.26-.43-.11-.78-1-.93-1.58C277.5,168.45,277.94,168,278.35,167.27Z" style="fill:#faf9fa"/><path d="M452.79,366.76c.95-.08,1.19.43,1,.87a2.77,2.77,0,0,1-1,1.52c-.54.29-.85-.38-.74-.84A7.44,7.44,0,0,1,452.79,366.76Z" style="fill:#fbfaf9"/><path d="M209.14,173.12c-1.39.85-2.78,1.66-4.12-.07C206.43,170.86,207.77,173,209.14,173.12Z" style="fill:#f5f4f3"/><path d="M419,323c-.33,1-.65,2.07-1,3.11l-.82,1.11C416.24,325.14,416.67,323.66,419,323Z" style="fill:#f9f8f8"/><path d="M187,378c-1.45-.59-3.3-.23-4.32-1.83C185,374.71,186.09,376.2,187,378Z" style="fill:#f8f7f4"/><path d="M196.9,291.15c-1.21-.84-3.25,1.59-4-1l.23-.24c1.65-1,3.17-1.42,4,1Z" style="fill:#f8f8f7"/><path d="M280.34,178.38c.44.36,1,.57,1.06.91a.87.87,0,0,1-1,1.18,1.28,1.28,0,0,1-.86-.9C279.54,179.24,280,178.86,280.34,178.38Z" style="fill:#faf9fa"/><path d="M449,372.1c-.76.22-1.25.53-1.52.39s-.49-.69-.72-1.06c.29-.12.64-.39.87-.32A6.89,6.89,0,0,1,449,372.1Z" style="fill:#fbfaf9"/><path d="M263.59,363.61c-.5.12-1,0-.88-.56a4.06,4.06,0,0,1,1-1.4,1.44,1.44,0,0,1,.68.5C264.71,362.91,264.12,363.26,263.59,363.61Z" style="fill:#fafaf8"/><path d="M246,361c-.74,1.39-1.61,2.63-3.34,2.9l2.12-3C245.24,360.37,245.65,360.4,246,361Z" style="fill:#16100f"/><path d="M210,278c-.93-.12-2-.1-2.24-1.31,0-.13.37-.5.59-.52,1.31-.11,1.53.83,1.65,1.83Z" style="fill:#fafaf8"/><path d="M204,277l-3-.05C202.05,275.44,203.08,273.89,204,277Z" style="fill:#fafaf8"/><path d="M198.09,276.94,196,276a2,2,0,0,1,2.87-.77C199.75,275.87,198.17,276.24,198.09,276.94Z" style="fill:#fafaf8"/><path d="M246,361l-1.22-.09c.43-1.29.85-2.59,1.28-3.89a7.38,7.38,0,0,0,.94,0A6.42,6.42,0,0,1,246,361Z" style="fill:#261c19"/><path d="M198.07,224.84c-.73.18-1.46.37-2.2.49-.06,0-.36-.54-.28-.65C196.26,223.71,197.2,224.19,198.07,224.84Z" style="fill:#f9f8f8"/><path d="M181.81,226.87c1.37,1.79,1.65,2.61,1.37,3.55,0,.05-.7,0-.73-.08C182.26,229.62,182.16,228.88,181.81,226.87Z" style="fill:#f9f8f8"/><path d="M173.73,262.5c-.68.16-1.17.43-1.5.3s-.48-.73-.41-1.05.53-.65.82-1Z" style="fill:#f8f8f7"/><path d="M259.06,213.17a2.57,2.57,0,0,1-.23.82c-1.87.84-3.75.31-5.63.06-2.1-.28-3.76-2.56-6.37-1.6,1.4,2.38,4.89-.46,5.61,2.75-5.13,2.4-10.28,1.7-15.44.13-1-.87-2.32-1.58-2-3.27a17.83,17.83,0,0,1,.09-2.14c.68-.83,2.13-1.4,1.33-4.26-.29,2.28-.13,3.7-1.33,4.26-1.92-2-8.1.1-6-6.19.36-1.08-2,.1-3.07.3-3.15-1-4.92-2.36-1.74-5.4a4.59,4.59,0,0,0-1.13,1,2,2,0,0,0-.59,1.33c-.09,1.08.65,2.75-.87,3-1.78.27-2.36-1.37-2.67-2.89,1.42-1.77,2.2-3.3-.77-4.43-2.24-.84-3.23-3.31-5.54-4.47-1.41-.71-.58-3.63.08-5.83,1.68-5.58,6.62-7.52,10.25-11,2.61-2.53,4-1.77,6.34-.73-.66,2.46-9.15.93-3.36,6.49-.51.93-2,.41-2.34,1.5-.09.27.33.55.69.56,1.45,0,1.74-1.39,2.64-2.05h2c1,2.79,4.35,3.75,5.29,6.6-.41,1.34-1.94,1.27-2.7,2.16a3,3,0,0,0-.19,1.66c1.16,2.36,2.72,4.47,3.87,6.82a10.87,10.87,0,0,1,.63,1.16c1,1.61,1.88.94,2.53-.25s.46-3,2.09-3.76c4.73.88,6.1,2.49,6.71,7.82a6.09,6.09,0,0,1-.44,2.08c0,.67-1.3.71-.93,1.16s1-.36,1.33-.82a11.06,11.06,0,0,1,1.68-1.87A1,1,0,0,1,250,204c.14,3-.15,6,4.75,4.09,3.43-1.34-.42-3.43,1.2-4.87,3.37,1.58,2.36,5.42,4,7.79Z" style="fill:#050503"/><path d="M207,206a24.07,24.07,0,0,1-1.82,3.45c-1.54,2-3.11,2.71-4.05-.58,1.52-1.56,1.13-3.15,1.16-5.29-1.41,2,.25,4.06-1.16,5.29-6.12-2.23-4-7.38-3.88-11.61.09-2,.83-3.59-1.28-5.13a2.54,2.54,0,0,1,.1-4.28c2.14-1.32,1.58,1.22,2.2,2.09,1.19,1.67,3.3,1.19,4.89,2,2.17,1.18,4.8,1.55,3.1,5.2-.42.89-.7,3.4,1.74,3.82C209.52,203.06,209.17,204.72,207,206Z" style="fill:#050304"/><path d="M246,204c.34-4.41-1.54-7.15-6-8-2.87-.8-3-2.71-2-5l1-2c2.64-2.83,7-4.33,6.94-9.22,4.6,1.67,5.79,4.22,5.18,11-.13,3.9.15,7.85-1.67,11.51C248.5,203.27,248.06,205.36,246,204Z" style="fill:#1c1b15"/><path d="M237,214c4.56,2.83,12.32,2.84,15.12,0a1.62,1.62,0,0,1,1.24-.5,4.4,4.4,0,0,1,3.74,1.57c-4.66,3.92-10.22.88-15.24,2-4.54.36-8.69-1.7-13-2.47-7.12-1.25-14.18-.23-21.25-1-3.43-.36-7.21,1.86-10.71,3.23-1.55.61-3,1.38-4.69,1.23l-1.22-.34c4.61-3,9.76-4.6,15-6a3.67,3.67,0,0,1,4.09.14c6.66.43,13.41-.9,20,1.1C232.36,213.32,234.82,212.7,237,214Z" style="fill:#302e2d"/><path d="M251,169c.66-.45,1.94-1.13,1.88-1.3-.54-1.43-2.34-.09-3.14-1.27,1.18-3.39,4.28,1,5.93-1.62l-11.13-4,.33-1.2c4,1.46,8.45.44,12.39,2.58a3.09,3.09,0,0,1,1.2.86c1.15,1.88,5-1.19,4.64,1.93-.4,3.36-3.14.24-4.7.69s-1.35,2.06-1.39,3.37l-.27.56c-.66.77-1.54,1.37-1.74,2.46-.36,1.33,1.8,2.66,0,4a6.76,6.76,0,0,1-6.13-2.59C248.07,171.24,251.15,170.91,251,169Z" style="fill:#060404"/><path d="M249,202c.33-3.67.67-7.34,1-11,2.12-1.42,4.77-1,7-2a4,4,0,0,0,.05,1c1.23,4.58,2.87,9.25-3,12-1.4-.87-2,.57-3,1l-1,1h-1A1.38,1.38,0,0,1,249,202Z" style="fill:#0a0808"/><path d="M178,212c.31-.76-.16-2.85,1-2.08,4.64,3.21,6.86-1.54,6.94-3.34.21-4.5,3.9-2.57,5.57-4,.78-.69,1.32.41,1.49,1.29.44,2.22.89,4.44,1.47,7.28a9.66,9.66,0,0,1-2-1.39c-.87-1.18-1.36-3.17-3-3-2,.19-1.25,2.39-1.73,3.69-1.15,3.16-3.27,4.86-6.74,4.59C179.65,214.41,179.12,212.94,178,212Z" style="fill:#060506"/><path d="M166.05,276c-3.49-2.82-4.43-7.07-6.09-10.92,4-.57,5.53,1.11,4.63,5.56L170,269a3.4,3.4,0,0,1,3.46,2.65c-.32,2.78.2,6.34-4.6,5C168.14,275.68,166.92,276.57,166.05,276Z" style="fill:#0c0909"/><path d="M161.09,200.14c1.52-.35,2.11-2.32,3.88-2.23-4.37,5.69-6.07,12.8-9.92,18.76-1.62,2.51-.63,5.16-1,7.72-.65,4.23-1.34,8.45-2,12.68-1.34-1.13-.64-2.75-1-4.11a7.22,7.22,0,0,0,.46-1.93C151,219.57,156.44,210,161.09,200.14Z" style="fill:#0c0909"/><path d="M173.06,272l-3-3-1-2,2.78.23c3.13,3,6.08,5.43,10.93,6.44,6.91,1.43,13.54,4.59,20.55,6.2a2.5,2.5,0,0,1-1.21,1,13.94,13.94,0,0,1-11-1.26c-2.87-1.69-6.29-2-9.5-2.85S175.23,274.76,173.06,272Z" style="fill:#1a1314"/><path d="M238,191c.44,1.77.65,3.63,2,5-.07,1.3.23,2.78-.3,3.86-.68,1.42-2.13,2.89-3.78,2.54s-.7-2.23-.94-3.42c.38-.28.85-.46,1-1-.45.2-.6.71-1,1a29,29,0,0,1-5-8c1.94-.66,3.69-2.4,6-1A2.09,2.09,0,0,0,238,191Z" style="fill:#13120e"/><path d="M257,189c-1.45,3.72-4.62,1.49-7,2,.5-4.33.28-8.39-4-11-.71-.48-.32-1.52-1-2l-1-2c-.8-1-.62-1.88.49-2.3,1.29-.5,2.05.5,2.81,1.38,1.22,1.44,1,4.24,3.91,4.1,1.07,2.48.72,6.3,5.24,5.45l.57.36C257,186.36,256.05,187.69,257,189Z" style="fill:#13120f"/><path d="M257,184c2.37-2.72-.72-5.57.17-8.42.31-1-.09-2.25,1.05-3a1.38,1.38,0,0,1,1.8.2,2.43,2.43,0,0,1,.49,3.14c-1.83,4.08-2.15,7.25,3.84,7.53,1.64.07,1.07,1.72.49,2.75s-1.61,2.25-2.62.85c-1.4-1.95-3.18-2.13-5.21-2h0a.65.65,0,0,1-.2-.68C256.88,184.14,257,184,257,184Z" style="fill:#060404"/><path d="M160.19,224.61c0,3-.64,5.89.13,8.29,1.7,5.26-1.91,3.27-4.08,3.44-.63,0-1.18-.44-1-.71C157.66,232.42,154,226.94,160.19,224.61Z" style="fill:#0b0909"/><path d="M251,179c-2.2,2.23-3,1.28-3.65-1.31-.2-.74-.36-5-3.35-1.69-1.38-.57-2.26-2.15-4-2h0c0-1.39,1.27-2.74,2-2.28,4.18,2.54,6-2,9-2.72,2.12,2.72-1.59,2.53-2,4,.08,2.14,3,3,2.42,5.46Z" style="fill:#0a0909"/><path d="M219,201l2.8,2.21c.38-2.78.1-5.89,3.82-6.52.93-.16,1.69-.07,1.94.91.19.75-.31,1.2-1,1.36-5.16,1.17-1.9,3.2-.52,5-1.87,3.58-5,1.62-7.4,1.22C217.58,205.07,217.6,202.39,219,201Z" style="fill:#0b0a09"/><path d="M187,219c-1.36,2.24-4.53,1.91-5.88,4.15-5.46,1.13-7.93,6.09-11.77,9.28-.73.61-1.07,1.69-2.27,1.64-.29-.21-.4-.44-.32-.67s.18-.36.27-.36C172.46,226.63,177.22,219.25,187,219Z" style="fill:#211d1e"/><path d="M234,188c-1.19-2.67-6.29-2.55-5-7,1.24-1.23,3.48-1.55,3.55,0,.21,5.45,3.76,2,5.81,2.35.64,2.45-2,3-2.36,4.65A1.4,1.4,0,0,1,234,188Z" style="fill:#0a0a0a"/><path d="M167,233l.05,1-1.13,2.68c-3.33,1.83-2.89,5.77-4.76,8.42-.4-2.19-2-3-3.94-3.06-2.58-.1-.73-1.65-.73-2.3,0-2.08,1.37-.89,1.84-.41,1.94,2,3,1.46,3.77-1S165,234.45,167,233Z" style="fill:#0b0909"/><path d="M257,184l0,1a8.16,8.16,0,0,0-2.36.4c-3.48,1.75-3.9-.08-3.64-2.94.11-1.14,0-2.31,0-3.46h0c3.27-1.59,2.92,1.65,4,3Z" style="fill:#1b1916"/><path d="M255,182c-1.36-1-1.76-3.21-4-3,0-2-1.65-3-2.78-4.29-1-1.15-.51-1.6.77-1.71l6,3C253.94,178,255.48,180,255,182Z" style="fill:#13120f"/><path d="M162.09,258c.06.65.11,1.3.17,1.94-4.25-4.64-4.76-11.69-1.08-14.83C162.46,249.32,159.77,253.83,162.09,258Z" style="fill:#0c0909"/><path d="M216,202c.17,1.78-3.86,2.43-1.25,5,.69.68-.3,1.83-1.37,2.14-1.22.37-1.33-.55-1.4-1.38-.11-1.23-.89-1.66-2-1.78C209.29,201.61,210,201.1,216,202Z" style="fill:#070606"/><path d="M257,169l8.17-1.71c-.69,6.24-5.17,3.24-8.16,3.72a1.38,1.38,0,0,1,0-2Z" style="fill:#060404"/><path d="M216,202c-1.87,1.53-6.66-1.33-6,4h-3a8.34,8.34,0,0,0,1-5C210.59,202.22,213.78,198.34,216,202Z" style="fill:#0c0c0c"/><path d="M245,178a2.12,2.12,0,0,1,1,2c1.07,5.64-3.19,7.14-7,9,.42-2.58,2.86-3.81,4.28-5.59A8,8,0,0,0,245,178Z" style="fill:#101009"/><path d="M227,181c-.22,1.48.7,3.51-1.82,3.9a3.46,3.46,0,0,1-3-1.33,1.6,1.6,0,0,1-.2-2.22c1.19-1.63,2.75.18,4.07-.36Z" style="fill:#0d0d0d"/><path d="M190.1,199c-1.68-.33-2.13-1-1.83-1.92.72-2.1,2.82-2.68,4.51-3.59.62-.34,1.36.71,1,1.21C192.71,196.39,190.53,197,190.1,199Z" style="fill:#070606"/><path d="M243.2,163.11c1.36.15,2.56.63,2.35,1.69-.37,1.87-2.56,1.67-3.85,2.54-.67.44-1.55-.54-1.34-1.47A4,4,0,0,1,243.2,163.11Z" style="fill:#0f0d10"/><path d="M167,216q3.6-4.95,6.13-.61c.4.68,1,1.62.12,2.1-.52.28-1.49-.29-2.26-.49C169.91,215.83,168.19,217,167,216Z" style="fill:#0a0a0b"/><path d="M178,212a2.82,2.82,0,0,1,3,3c-.1,1.18-.39,2.51-1.74,2.5-1.66,0-1.15-1.59-1.24-2.61S178,213,178,212Z" style="fill:#0f0c0e"/><path d="M240,174c-.29.59-.43,1.44-.9,1.7-1.46.81,1.24,3-1.1,3.23a1.6,1.6,0,0,1-1.91-1.71c0-1.81.67-3.17,2.53-3.62.41-.09.92.26,1.39.41Z" style="fill:#0a0909"/><path d="M167,216c1.53-.48,3.41-2.31,4,1-1.11.64-1.54,2.59-3.42,1.74C166.16,218.09,166.59,217.06,167,216Z" style="fill:#1b1b1c"/><path d="M162.2,259.83c1.91,2.07,4.48,3.54,5.77,6.2C164.16,265.72,162.92,263,162.2,259.83Z" style="fill:#0c0909"/><path d="M251,203c.19-1.47.42-3.24,2.09-3.4,1.2-.11.76,1.5.91,2.4C253.27,203.1,252.72,204.8,251,203Z" style="fill:#131111"/><path d="M237,214c-2.31-.4-4.86.84-7-1a7.89,7.89,0,0,1,5-1Z" style="fill:#292524"/><path d="M170,209.26c-.09.9.24,2.16-1.1,2.2-.42,0-1.12-1.08-1.26-1.75a1.78,1.78,0,0,1,1.3-2.22C169.94,207.37,170,208.46,170,209.26Z" style="fill:#0a0a0b"/><path d="M236,190c-2.07-.09-3.69,2.43-6,1v-2a8.1,8.1,0,0,1,6,0C236,189.37,236,189.69,236,190Z" style="fill:#25231f"/><path d="M166.25,207.34c-.3.8-.76,1.56-1.71,1.18a1.92,1.92,0,0,1-1-1.41c0-1.11,1-1,1.83-1S166.46,206.56,166.25,207.34Z" style="fill:#0d0c0d"/><path d="M263.59,178.21c.83.06,1.23.63.94,1.28a2.13,2.13,0,0,1-1.38,1.11c-.86.14-1-.65-.92-1.32S262.89,178.26,263.59,178.21Z" style="fill:#0b090b"/><path d="M153.26,251c0-1.33-.08-2.66-.11-4C158.44,248.18,154.17,249.62,153.26,251Z" style="fill:#0c0909"/><path d="M257,169c0,.67,0,1.33,0,2a2.16,2.16,0,0,1-2,1C253.24,169.42,255.51,169.48,257,169Z" style="fill:#121010"/><path d="M210.05,211.93l-4.09-.14C207.47,207.44,208.74,210.38,210.05,211.93Z" style="fill:#12100e"/><path d="M162.81,227.23c-.85-.24-.75-.92-.69-1.54s.38-1.35,1.19-1.12c.29.08.54.78.56,1.21A1.33,1.33,0,0,1,162.81,227.23Z" style="fill:#101010"/><path d="M236,189.05l-6,0c1.06-1.46,2.63-.84,4-1h2C236,188.37,236,188.71,236,189.05Z" style="fill:#13120e"/><path d="M153,245.05c-1.56-1.82-.72-4-.94-6C153.83,240.81,152.76,243,153,245.05Z" style="fill:#0c0909"/><path d="M157,261c-1.1-.71-1-1.88-1.1-2.95C160.4,257.53,156.31,260.17,157,261Z" style="fill:#0c0909"/><path d="M361.08,315.21l2-1.17A7.94,7.94,0,0,1,371,315h0a1,1,0,0,1,0,1.26c-6.25-.19-10.61,2.79-13.19,8.31s-1.8,10.89.54,16.2c.23.41.09,1,.45,1.35.13-.36.61-.64.05-1.12a3.47,3.47,0,0,1-.9-1.74c-1.4-3.8-2.83-7.58-.32-11.47,1.06.41,1.27,1.39,1.53,2.33,1.43,2,3.9,3.66,2.71,6.75,2.05,6.27,9.56,8.93,14.72,5.19,1.34-1,2.38-2.38,4.15-2.63a2.48,2.48,0,0,1,1.32.41c-1.07,5.37-5.23,8.54-10.51,8-2.09-.23-4.11-1-6.65-.75,3.64,2.59,7.1,4.61,11.46,4.22,1.51.4,2.86,1.9,4.61.65,1.6-.78,3.07-2.12,5.07-1.15a1.14,1.14,0,0,1,.29.84c0,.3-.07.45-.13.45-2.77.82-4.2,3.47-7.58,4.06-10.83,1.89-16.4-5.31-21.74-12-6.08-7.68-4.75-17.7,1.88-25.1A24.53,24.53,0,0,0,361.08,315.21Z" style="fill:#1f1716"/><path d="M395,350.15c.62-2.08,1.25-4.15,1.87-6.22,2.92,4.25.8,8.92,1,13.39.06,1.09-.53,2.22-.5,3.39-.1,3,.07,6-.13,9-.12,1.69.34,3.87-2.28,4.31A64.8,64.8,0,0,0,394,359c-.43-1.55.77-2.66,1.1-4Z" style="fill:#a8a1a0"/><path d="M332,302c1.34,1,1.72,3.11,3.79,3.25.76,2.23,1.53,4.45,2.29,6.68l-.58.48a2.35,2.35,0,0,1-1.45-.19c-1.64-1.86-2.36-4.3-4-6.21C331.14,304.8,330.7,303.31,332,302Z" style="fill:#322b2a"/><path d="M395,374c2.5-2.65.56-5.83,1-8.74a31.45,31.45,0,0,0-.07-5.31,1.77,1.77,0,0,1,2,1.73,44.53,44.53,0,0,1,.21,10.88c-.2,1.43-.65,3.07-2.83,2.37l-.28-.1-.28.09A1.89,1.89,0,0,1,395,374Z" style="fill:#332925"/><path d="M386.2,352l-.15-1.06c-.53-.69-.07-1.18.34-1.68,1.37-1,2.35-2.61,4.34-2.54l.34.31C390.18,349.44,391.15,353.65,386.2,352Z" style="fill:#fbfaf9"/><path d="M340.27,319.08l-1.45-.16a3.19,3.19,0,0,1-.93-1.86c-.09-1.6-1-3.17-.17-4.8l.39-.38C340.66,313.73,342.18,315.89,340.27,319.08Z" style="fill:#322b2a"/><path d="M395.06,355c1.11,1.74-.45,2.74-1.1,4C392.59,357.16,392.18,355.62,395.06,355Z" style="fill:#fbfaf9"/><path d="M202,280.22l1.27-.35,2.66.22c4.15,3.57,9.79,4.23,14.21,7.35,1.5,1.05,3,1.91,3.83,3.63,3,4.61,8.13,7,11.32,11.5a26.09,26.09,0,0,0,5.08,5.28l.36-.11.26.27c1.5,3.95-.43,5.14-4,5-2.83-1.57-3.72-4.84-6-6.87-.84-1.51-2.35-1.84-3.86-2.17L226,301.13c-2.13-2-3.73-4.7-7-5.09a1.8,1.8,0,0,1-2-2l-.88-1.08c1.28-3.68-1-5.11-3.88-6.3-2.41-1-4.76-2.15-7.13-3.25C203.68,282.79,201.86,282.43,202,280.22Z" style="fill:#0f0b0d"/><path d="M237,313c2.19-1,4.42-1.93,4-5,2.92,2.26,4.18,5.47,5,8.89.58,1.25,1.77,2.22,1.74,3.76-1,1.37.61,4.42-2.75,4.29-1.19-2.4-2.48-4.71-5-6-1.34-1-2.69-2-3.14-3.77C236.93,314.49,237,313.75,237,313Z" style="fill:#251d1b"/><path d="M247,321l-1-4.09c1.3,1.46,3.15,2.7,3.8,4.41,2.81,7.29,3.41,15.16,5.33,22.7a2.71,2.71,0,0,1-1,3.08,2.25,2.25,0,0,1-1.26.5,2.47,2.47,0,0,1-1.24-.56,4,4,0,0,1-.56-1.26,6.25,6.25,0,0,1,.15-2.65,4.64,4.64,0,0,0,0-3.53c-.38-.73-.8-1.43-1.16-2.16a5.19,5.19,0,0,1-.61-2.41,9.22,9.22,0,0,0,.07-2.46c-1.74-1.86-3.51-3.51-1.65-6.49C248.94,324.51,247.7,322.63,247,321Z" style="fill:#3f3731"/><path d="M252.08,347.05l1,0c2.3,3.45.23,7.33,1.06,10.93,1.51,4.38-1.26,7.58-3.06,11h-1c-2.08-3.88.41-7.36,1-11l0-1c-.85-1.47-.46-3.15-.84-4.71C250.7,350.48,250.47,348.43,252.08,347.05Z" style="fill:#544b46"/><path d="M240.4,307.85c-1.29-.1-2-1.06-2.87-1.84-4-3.63-6.83-8.48-11.76-11.12-1.52-.81-1.88-2.22-1.77-3.82C230.31,295.84,236.22,301,240.4,307.85Z" style="fill:#171313"/><path d="M264,325c2.24-2.26,3.45-5.14,4.73-8,.74-1.63,1.12-3.49,3.27-3.93-2.52,6.1-4.88,12.3-9.91,16.94Z" style="fill:#181010"/><path d="M254.14,358c-1.67-3.52-.48-7.31-1.06-10.93l1.11.07C255.31,350.72,254.71,354.33,254.14,358Z" style="fill:#807a74"/><path d="M251,358c.34,3.72-.53,7.34-1,11-1.63,2.17-3.78,4-4.18,6.94-2.23,1.34-4.79,2.25-6.13,4.75-1.29,3.6-5.29,3.41-7.66,5.51a1.42,1.42,0,0,1-1.3-.27,1.62,1.62,0,0,1,.25-2c1.32-1.27,3.8-1.44,3.67-4.11a1.41,1.41,0,0,1,1.76-1.29c4.3,2.09,4.79-2.78,7.28-3.95a1.78,1.78,0,0,0,0-3.26c-3.45-2-1.22-3.87.3-5.17C246.85,363.79,248.56,360.58,251,358Z" style="fill:#16100f"/><path d="M178.07,382.94c2.25-1.09,3.35-.48,5.61,1.21A17.26,17.26,0,0,0,195,387c1.55,1.68,4.58,1,5.64,3.44.71,1.13,2.26,1.55,2.59,3-4.66,2.82-9.49.88-12.86-1.52-3.62-2.57-7.51-3-11.28-4.43-.63-.78-1.53-1.36-1.78-2.43A2.36,2.36,0,0,1,178.07,382.94Z" style="fill:#282221"/><path d="M158.33,373.85c1.23-2.41-1.12-2.82-2.2-3.94-.69-1.64-1.39-3.29-2.08-4.94l14,9.92c1.84,2.76-1.59,3.95-1.81,6.11-3.38.24-3-3.67-5.26-4.72A5.13,5.13,0,0,1,158.33,373.85Z" style="fill:#433d38"/><path d="M231.14,388.15c-1.89,3.89-6,2.7-9,3.88a4.57,4.57,0,0,1-3.79-.61l-.39-.55c2.22-1.67,5.48-.48,7.86-3.07L221,386c-.88-.69-2.28.18-3-1,2.13-2.44,5.36-1.95,8-3,2.84-1.06,2.48,1.18,2.81,2.69a1.56,1.56,0,0,0,1.25.77,1.52,1.52,0,0,1,.89.47l.08.13A1.7,1.7,0,0,1,231.14,388.15Z" style="fill:#1d1817"/><path d="M165.94,381.25c-1-2.7,2.55-3.86,2.14-6.36,4.1,1.73,6.33,5.78,10,8.05,0,.68,0,1.36,0,2-1.15,2.28-2.75.43-4.14.46a28.67,28.67,0,0,1-6.67-3C166.49,382.37,165.92,382.13,165.94,381.25Z" style="fill:#423a36"/><path d="M203.11,393c-1.44-.07-3,0-3.08-2.06-.53-1.15.13-1.67,1.07-2,5.13-1.65,7.37-.67,6.93,3,.26,1.55-.87,1.7-1.94,1.92A3.61,3.61,0,0,1,203.11,393Z" style="fill:#1d1817"/><path d="M251,337l1,1.95a1,1,0,0,1,.29.76c0,.27-.07.41-.12.41-1.73,2-1.1,4.46-1.24,6.77a18.81,18.81,0,0,1-.11,2c-.56,1.67.19,3.58-.93,5.15L248,355c-1-5.41,1.87-10.58,1-16C248.66,337.32,249.4,336.72,251,337Z" style="fill:#16100f"/><path d="M195,384l17,0A31.49,31.49,0,0,1,195,384Z" style="fill:#141311"/><path d="M161.17,361l-.24,1.07c-2.19-2.88-3.19-6.52-5.84-9.11,1.82-.29,2.57,1.51,4,2Z" style="fill:#656361"/><path d="M201.1,388.92c-.36.68-.72,1.36-1.07,2-1.1-.75-1.65-2.32-3.57-1.79S195.3,387.88,195,387C197.09,387.55,200,385.48,201.1,388.92Z" style="fill:#2b2524"/><path d="M211,392c.36-.88.31-3.72,1.45-2,2,3,3.76.34,5.45.89l.11.12c-.34,3.88-3.16,2.79-5.47,2.73A2.4,2.4,0,0,1,211,392Z" style="fill:#1d1817"/><path d="M228,386c-2-.68,1.39-4-2-4,2.83-2.23,3.71.41,5,2,0,.64,0,1.28-.05,1.92a7.75,7.75,0,0,1-1,.07A10.18,10.18,0,0,0,228,386Z" style="fill:#110c0b"/><path d="M218,385c1.1.05,2.28-.18,3,1-1.14.77-1.84,2.9-3.36,2.16C216.38,387.5,216.88,385.93,218,385Z" style="fill:#2a2223"/><path d="M211,392l1,1c-2,3-4,2.32-6,0a2,2,0,0,0,2-1Z" style="fill:#282221"/><path d="M250,354c.78-1.67-1.74-3.38.08-5,2.46.3,1.35,1.75,1,3,0,1.67,0,3.35,0,5C249.84,356.29,250.06,355.09,250,354Z" style="fill:#261c19"/><path d="M185.08,378.94l2,0,1.08,1.79c0,.4-.05.81-.08,1.21C186.49,381.51,185.83,380.18,185.08,378.94Z" style="fill:#57544e"/><path d="M239.06,373.06c.38.57.78.91.8,1.27s-.42.59-.65.89c-.3-.32-.75-.6-.84-1S238.73,373.6,239.06,373.06Z" style="fill:#16100f"/><path d="M312,341c-.36,1-.71,1.95-1.07,2.92-1.35.35-1.54-.69-1.87-1.56a8.76,8.76,0,0,1,0-3.46,6,6,0,0,1,.45-1.25,8,8,0,0,0,1.44-4.16c.18-1.11.48-2.18.75-3.26a5.08,5.08,0,0,1,1.67-3c3.72-2,3.18-6.32,5.18-9.25,2.18-.31,3.12-.75,5.47-2.59a2.49,2.49,0,0,1,2.08.42,1.11,1.11,0,0,1-.08,1.33L323,320c-.76,1.31-1.07,2.85-1.92,4.12l-1.82,3c-2.58,2.2-2.1,6.32-5.16,8.22,0,.55,0,1.1.05,1.65C313,338,313.93,340.29,312,341Z" style="fill:#27221d"/><path d="M326.07,317.16l-.12-1.23c0-2.15,1.64-2.33,3.18-2.64,2.12.23,4.11.73,5.36,2.69a23.7,23.7,0,0,1,.4,9.74c-1,2.58-.36,5.26-.44,7.9a2.38,2.38,0,0,1-2.91,1.75l-.6-.47c.48-4.59,1.37-9.18,1.34-13.76C332.23,315.49,331.54,315.27,326.07,317.16Z" style="fill:#342c2e"/><path d="M331.06,348,330,348c-1.78-4.51-.4-8.8,1-13.08a.7.7,0,0,0,.28.51C332.41,338,332.3,345.86,331.06,348Z" style="fill:#161211"/><path d="M314.12,335.31c2.17-2.46,1-7,5.16-8.22C318.34,330.32,318,333.89,314.12,335.31Z" style="fill:#3b342f"/><path d="M321.1,324.12A4.4,4.4,0,0,1,323,320C323,321.68,322.81,323.25,321.1,324.12Z" style="fill:#616059"/><path d="M312,341c.92-1.23.6-3.14,2.16-4a5.09,5.09,0,0,1-1.06,4.06Z" style="fill:#332a25"/><path d="M206.06,393a4.67,4.67,0,0,0,6,0c2.16-.19,4.61.49,6-2a6.52,6.52,0,0,1,4.07,1c-3.41,3.74-8.6,3.61-12.41,3.29-6.27-.53-13.14,1.5-18.87-2.19-4.1-2.63-9.23-2.82-12.94-6.1a.79.79,0,0,1,1.28-.23c5.83-.18,10.3,3.09,15,5.87a9.52,9.52,0,0,0,9,.35Z" style="fill:#4f4747"/><path d="M231.14,388.15c0-.72,0-1.43-.08-2.14l8.68-5.34a8.85,8.85,0,0,1,.16.87C238.25,385.43,233.79,385.59,231.14,388.15Z" style="fill:#524f45"/><path d="M165.94,381.25l1.05.91c.37.16.5.34.39.53s-.23.29-.35.29c-3.73-.69-4.54-4-6-6.7C163.53,377.06,164.34,379.55,165.94,381.25Z" style="fill:#ebe9e6"/><path d="M167,383c0-.28,0-.55,0-.82,2.67.08,4.53,2.12,6.94,2.85.4.14.55.33.46.56s-.19.37-.31.37C171.41,385.71,169.21,384.36,167,383Z" style="fill:#c3bebb"/><path d="M160.1,383c-2,0-3.63-.3-2-2.87C160.43,379.9,160.22,381.47,160.1,383Z" style="fill:#595956"/><path d="M174.08,385.94c0-.31-.1-.62-.15-.93,1.36-.09,2.74.95,4.09,0l1.16,1.83-1.28.23Z" style="fill:#463c3c"/><path d="M395.34,374.94c3-4.88,1.94-9.92.6-15l1-16c.31-1-.4-2.36,1-3l2-1a1.92,1.92,0,0,1,1.52,1.87A114.73,114.73,0,0,1,400,358.05l.15.1c-1.06.11-1,.93-1.1,1.68.91,1.6-.12,3.49.76,5.1.18,4.93.53,9.87-1.71,15.05C396.7,378.25,395,377.24,395.34,374.94Z" style="fill:#28231f"/><path d="M390.73,346.76c-1.43.85-1.78,3-3.75,3.18-1.1-3.17.32-6.32,1.35-8.88,1.85-4.62.09-7.9-2-11.47-1-1.79-2.91-3.22-2.5-5.66a1,1,0,0,1,1.29-.07c4.53,4,7.7,8.67,7.27,15C392.22,341.5,389.59,343.74,390.73,346.76Z" style="fill:#1a1412"/><path d="M385.13,323.86,384,324c-4.33-2.76-10.2-3-13.16-8L371,315c4.23,1.12,7.51,4.45,12.08,5A2.88,2.88,0,0,1,385.13,323.86Z" style="fill:#696766"/><path d="M371,315l-7.94-.94C365.93,312.4,368.61,312.45,371,315Z" style="fill:#696766"/><path d="M448.81,362.84a3,3,0,0,0-2,2.81q-1.89,2.18-3.76,4.36L438,370c-.94-1.2-2.49-1.78-3.27-3.16,2.33-3.35,6.32-4.89,8.81-8.06,1,.81,1.85.72,2.39-.6.85-.73,1.79-1.81,2.88-1,1.44,1,.8,2.52.17,3.85Z" style="fill:#302a24"/><path d="M449,361c.06-2.27.12-4.54-3-2a.88.88,0,0,1-1.34-.16,4.52,4.52,0,0,1,.62-5.71,2.17,2.17,0,0,1,1.32-.43c1.2.41,2.18.6,2.13-1.28-.05-1.55-1-3.19.33-4.65a4.42,4.42,0,0,1,4,1c1.24,5,1.3,4.91,6.23,10,1.75,1.79,4.24,3.3,3.7,6.47-1.48.75-2.25-.38-3.13-1.19-.71-.88-1.39-1.78-2.12-2.63C454.21,356.36,452.08,356.51,449,361Z" style="fill:#3c3430"/><path d="M459.82,363l3.12,1c3.31,1.53,7.37,2,8.94,6.07L469,370C465.48,368.26,461.88,366.65,459.82,363Z" style="fill:#433937"/><path d="M458,333c0-1.11-.21-2.28,1-3C460.59,331.61,460.09,332.56,458,333Z" style="fill:#f9f8f7"/><path d="M460.94,343.73c.21.31.61.65.66,1,.1.78-.54,1-1.18,1.14-1,.17-.41-.62-.41-.87C460,344.51,459.84,343.72,460.94,343.73Z" style="fill:#f7f7f5"/><path d="M466.23,349.21a15.17,15.17,0,0,1-1.12,1,4.7,4.7,0,0,1-1.38-1.27c-.34-.66.21-.86.75-.66A16,16,0,0,1,466.23,349.21Z" style="fill:#f7f7f5"/><path d="M290,318c1.35,1.08,3,.76,4.7.85-.69,1.65-3.22,2-2.48,4.12s2.24.12,3.15.15c4.38.15,7,.92,5.29,6.14-.14.43.9,1.26,1.39,1.91a2.21,2.21,0,0,1-.73,1.9c-.8.84-1.79,1.59-2,2.8-1,6.29-5.95,9.55-10.06,13.44a18,18,0,0,0-3.05,3.24,4.15,4.15,0,0,1-2.74,2c-2.34.52-4.72.14-5.59-2-1-2.38,1.71-3.17,3.2-4.33,1.14-.89,2.65,0,3.82-.74.65.14-.32-.82-.12-.18-3.61.32-4.26-2.85-6.22-4.76-.71.53-.3,3-2.32,2.51s-1-2.49-1.59-3.65c-3.35-6.86,3.78-9.89,5.26-14.95,1-3.54,3.57-5.05,7.29-4.18.38.09.84.66,1.15.05s.28.29-.24-.07a2,2,0,0,1-.85-1C287.3,319.3,287.57,317.7,290,318Z" style="fill:#fdfdfd"/><path d="M290,318c-1.8.77-2.11,2.28-2,4a.62.62,0,0,1,.23.66c-.08.22-.15.34-.23.34-5.7.12-7.42,1.53-9.12,8.41-.32,1.28-.34,1.73-1.65,2.26-2.29.92-4.11,2.29-1.27,4.95,1.69,1.6-1.43,3.95.11,5.84,2.16-.2,1.08-1.86,1.59-2.73s.77-2.29,1.81-2.11c1.6.28.95,1.26.62,2.54-.41,1.63,3.58,3.82,5,2.86a1.26,1.26,0,0,1,1.73,0c1.25,1.13-.14,1.69-.7,2.29-2.11,2.25-6.22,1.06-7.62,4.72,2.61,1.82,4.67,3.23,7.37-1,2.18-3.42,5.9-5.95,9.22-8.52,2-1.53,2.12-3.67,2.65-5.59.62-2.2,1.06-4.18,3.61-4.78a2.69,2.69,0,0,1,.21,2.08c-1.36,3.22-2.34,6.52-1.7,10.06a7.54,7.54,0,0,1-3.39,8.13,5.81,5.81,0,0,1-1.38.65c-2.6.57-5.1,1.5-7.62,2.31-4.52,1.46-8.82,1.36-12.8-1.57-4.68-3.66-6.33-10.49-4.25-17.6a15.38,15.38,0,0,1,2.32-4.95,12.75,12.75,0,0,1,1.47-1.64,21.85,21.85,0,0,0,4.45-5.22c3-3.61,6.42-6.68,11.29-7.51Z" style="fill:#f9f9f9"/><path d="M307,293q-.06-4.49-.13-9c2.2,4.42,1,9.38,2.18,13.95l.15.77c.37,4.15.12,8.31.15,12.47a5.58,5.58,0,0,1-1.12,3.63,1,1,0,0,1-1.36-.07A171.9,171.9,0,0,1,307,293Z" style="fill:#201617"/><path d="M300.92,334l.44-1.83c.63,0,.9-.34.71-1,2.48-3.54,1.53-7.87,2.73-11.69.51-1.63,0-3.69,2-4.67l.32.35a2.8,2.8,0,0,1,.77,1.42c0,4.59-1.16,9-2.14,13.46-.42,1.9-1.11,3.81-3.35,4.44A2,2,0,0,1,300.92,334Z" style="fill:#181112"/><path d="M290,316.86c-4.18,2-7.46,5.14-10.79,8.23a1.11,1.11,0,0,1-1.31-.24c-.15-4.92,3.94-5.44,7.15-6.87,2.14-1.17,3.54-3.51,6.17-3.89C290.78,315,290.37,315.93,290,316.86Z" style="fill:#2a2321"/><path d="M289,308.17l1.92.93c.34,1.67,3.35,3.22.22,5Z" style="fill:#2a2321"/><path d="M287.94,364.86c-2.73.43-5.59,1.92-7.9-1-1.37-1.4-.72-4.57-3.87-4.4-1.1.09-2.22.33-3.17-.5h0c-.82-1.78-2.11-3.27-3-5,0-.71,0-1.41.05-2.11,1.6-1,2.74.18,4,.8,4.34,4.85,9.62,3.21,14.66,1.84a36.93,36.93,0,0,0,7.19-2.74l-.08.09c1.4-.65,2.71-.84,3.71.67.15,4.88-2.41,9.2-6.35,10.73-1.44.18-2.9.53-4.25-.24-.39-.09-.07-1-.79-.74.13.3.24.6.36.92A1.66,1.66,0,0,1,287.94,364.86Z" style="fill:#0e090b"/><path d="M274,353.24l-3.91-1.37c-.06-1-.11-1.93-.16-2.89a2.58,2.58,0,0,1-.83-1.82c.23-2.45-.72-3.27-3-2.22l0,0c-1-1.18-1.11-2.82-1.94-4.11.06-1.35-.47-2.83.91-3.88-.06-4.71,4.3-7.58,5-12l1-.94a4.29,4.29,0,0,1,2.34,2.13c.11,1.51.51,3.08-.75,4.3,0,0-.4.13-.4.13l.47,0a1,1,0,0,1,1.3.39,24.67,24.67,0,0,0-3.11,13.2c.18,3.63,1,6.68,4.21,8.75A.92.92,0,0,1,274,353.24Z" style="fill:#3e3533"/><path d="M285,318c-2,2.68-6.08,3.21-7,6.94l-.27.59a29.25,29.25,0,0,1-2.19,2.4,1.49,1.49,0,0,1-1.26.26c-1-.55-.71-1.58-.9-2.44-.57-1.52.08-2.7,1.06-3.79.67-.94.51-2.22,1.24-3.15,1.3-1.33,3.16-1.61,4.66-2.57s2.57-2.56,4.51-2.77a1.88,1.88,0,0,1,1.2.56C285.9,315.38,282.94,316,285,318Z" style="fill:#28201a"/><path d="M270,354c2.28.9,4,2.16,3,5-4.88-1.64-6.93-5.83-9-10A10.12,10.12,0,0,1,270,354Z" style="fill:#181010"/><path d="M270,325c1.1,5.14-4.12,7.66-5,12C263.83,331.79,267.46,328.61,270,325Z" style="fill:#181010"/><path d="M281,317c-1.38,1.36-3.23,1.58-5,2-2-3.46,1.59-3.57,3-5l1-1a1.62,1.62,0,0,1,2.11-.21C283.27,314.62,281.69,315.67,281,317Z" style="fill:#4b4342"/><path d="M279,314.05c-.82,1.76-3.69,2.28-3,5,0,1.09.17,2.26-1,3a1.63,1.63,0,0,1-.91-.93C273.8,317.34,274.73,314.51,279,314.05Z" style="fill:#38302e"/><path d="M282,313l-2,0c1.18-2.27,2.84-3.84,5.51-2.59,1.56.74,2,2.14.49,3.57l-1,0C284.31,312.75,282.9,313.67,282,313Z" style="fill:#2c2322"/><path d="M266,344.94c1.4-.69.63-3,2.66-3.37,2,1.42.88,3.57,1.13,5.39-1.05.49-1-1.12-1.82-1A2,2,0,0,1,266,344.94Z" style="fill:#171112"/><path d="M274.09,321l.91.93a6.59,6.59,0,0,0-1,3.94c-.26.55-.58.56-.94.09a1.81,1.81,0,0,1-2-1.95C271.42,322.4,273.18,322.15,274.09,321Z" style="fill:#473d3b"/><path d="M268,346c.26-.31-.24-2,1-.56a8.06,8.06,0,0,1,.85,1.56c0,.67.05,1.34.08,2C265.32,350.46,268.59,347,268,346Z" style="fill:#0a0404"/><path d="M264.11,340.85c2.48.51,1.76,2.52,1.94,4.11C264.41,344.06,262.74,343.17,264.11,340.85Z" style="fill:#171112"/><path d="M313.81,285.16l.27,12.86c-1.73,2.2.64,7-4.42,7.08-2.05-2.2-.75-4.71-.66-7.1h0c.9-.14,1.47-.39,1.27-1.58-.65-4,.37-7.74,1-11.62.69-4.45,2.54-9-.17-13.64s.65-8.4,2.95-12.15c1,3.05-3.17,6-.15,9.08C314.93,273.77,313.39,279.46,313.81,285.16Z" style="fill:#201617"/><path d="M421.09,348c.66-2.71,3.61-4.19,3.83-7.14,2-5.39,5.8-9.33,10.14-12.86,3.19-.54,4.34-4.29,7.55-4.81a3.2,3.2,0,0,1,1.33.49,1.84,1.84,0,0,1,.38,1.32c-1.65,3.21-4.54,5.11-7.45,7-2.5,1.95-3.39,5-5.21,7.45-1,2.73-3,4.92-4.19,7.51a13.08,13.08,0,0,1-2,2.65,3.68,3.68,0,0,0-1,3.65,8.58,8.58,0,0,1,.22,1.33,4.31,4.31,0,0,1-.39,2c-.81,1.13-1.46,2.63-3.27,1.4l-.13-1.87Q421,352,421.09,348Z" style="fill:#181212"/><path d="M434.11,319.22l-.92.9c-1.93.49-2.72-1-3.65-2.16-.47-2.72.48-4.44,3.39-4.76,1.47.2,2.89,1.16,4.45.32a7.14,7.14,0,0,1,1.28-.35c2.1.83,6.62-1.73,5.37,3.82a2.23,2.23,0,0,1-1.2.39,8.36,8.36,0,0,0-4.82.37C436.74,318.32,435.1,317.9,434.11,319.22Z" style="fill:#332929"/><path d="M430.09,324.26c-.48,2.44-3.82,2.25-4.3,4.68-.48,1-1,1.87-2.18.77-.68-1.85.24-3.51.66-5.23,1.32-2.44,1.79-6.12,6.11-4.25A6.07,6.07,0,0,1,430.09,324.26Z" style="fill:#362e2c"/><path d="M434.11,319.22c.65-1.83,2.37-1.84,3.85-2.26a5.34,5.34,0,0,1,4.92.12L443,317a3.67,3.67,0,0,1,.38,4.8,1.08,1.08,0,0,1-1.54.06C441.05,315.72,436.69,320,434.11,319.22Z" style="fill:#6a6361"/><path d="M441.79,321.86h1.09A1.5,1.5,0,0,1,443,324c-3.3,0-4.25,4.72-7.93,4Z" style="fill:#332929"/><path d="M430.09,324.26l-.22-4.37c-.5-.36-1.13-.68-1-1.42.1-.49.54-.67,1.05-.52,1.64-.11,2.09,1.57,3.27,2.17Z" style="fill:#443e3c"/><path d="M424.07,330.14l1.72-1.2c.41,2.45-1,3.82-2.88,4.93l-.18-1.13a1.79,1.79,0,0,1-.35-1.14,2.29,2.29,0,0,1,.54-1.09A1.76,1.76,0,0,1,424.07,330.14Z" style="fill:#6b6562"/><path d="M293,363c3.42-2.47,4.65-6.26,6-10,.54-1.41,2.42-2.15,2-4a8.25,8.25,0,0,1,1.73-6,1.48,1.48,0,0,1,2.07,1.43c.06,3.25,1.71,5.88,3,8.68,0,.29,0,.58,0,.88a16.05,16.05,0,0,0,.06,7.1c-.17,1.34,1.86,2.58.17,4-.81.35-1.88.37-2.2-.3-1.63-3.39-4.25-2.33-6.81-1.73-2,.29-3.89,1.26-6,.76-.36-.16-.48-.33-.37-.51S292.88,363,293,363Z" style="fill:#1e1518"/><path d="M307.79,353.05c-6.22-1.23-2.29-7.15-4.69-10.14-.76-3-1-5.71,2.51-7.2,1.85,1,1.85,2.84,1.46,4.29C306,344,309,341.34,310,342a2,2,0,0,0,1,2C309.62,346.86,308.18,349.77,307.79,353.05Z" style="fill:#332a25"/><path d="M299,363c2.77-2,5.72-5.36,7.35,1,.11.44,1.08.66,1.66,1-.38.75-1.32,1.81-1.72,1.33C304.37,364,301.25,364.47,299,363Z" style="fill:#332a25"/><path d="M276,358c3.83.27,4.88,2.44,4,5.9-2,.09-2.27-1.64-3-2.84C276,360.23,274.84,359.48,276,358Z" style="fill:#171112"/><path d="M276,358l1,3.06c-1.72.07-3.26-.22-4-2.06Z" style="fill:#181010"/><path d="M307.85,361a7.09,7.09,0,0,1-.06-7.1Z" style="fill:#332a25"/><path d="M293,363l0,.79-5.09,1.12c0-.63,0-1.26.07-1.88-.4-1.07.12-1.22,1-1C290.06,363.44,291.62,362.82,293,363Z" style="fill:#20191a"/><path d="M403.17,324.15c1.22,4.86-.33,9.82.5,14.71a1.91,1.91,0,0,1-1.45,2.27l-.64-.59c-.77-5.41-1.28-10.82.06-16.22A1.08,1.08,0,0,1,403.17,324.15Z" style="fill:#332c2a"/><path d="M403.89,306.77c.09,4.28.24,8.56.22,12.84,0,1.53.86,3.34-.94,4.54l-.37-.27c-2-4.89-1.4-10.06-1.65-15.13a2.87,2.87,0,0,1,2.18-3C404.05,305.8,404.24,306.14,403.89,306.77Z" style="fill:#332c2a"/><path d="M400,358.05c-.75-5.75,1-11.37,1-17.08l.33-.31.41.19a1.3,1.3,0,0,0,.5.28l-.39,11.74C400.7,354.41,402,356.81,400,358.05Z" style="fill:#2a231f"/><path d="M403.89,306.77a8.49,8.49,0,0,0-.14-.88c-1.09-5.43-2.2-10.86,1.07-16l.48.36C405,295.77,405.87,301.39,403.89,306.77Z" style="fill:#3a302b"/><path d="M342.06,368.93l-1.13.07c-3.59-2-5.68-5.22-7.16-8.92l2.14,0c.83.66,1,1.79,1.87,2.46a15.44,15.44,0,0,0,4,4C342.42,367.27,342.8,368,342.06,368.93Z" style="fill:#4a4745"/><path d="M509.92,300,511,300l-.08.09c.54,3.3,1.51,6.77-3.12,8.07-6-.7-12-1-17.82.93a1.49,1.49,0,0,1-.16-1.37c3.19-3.07,7.14-3.89,11.4-4,1.89,0,4,.9,5.59-1C507.62,301.54,508.35,300.28,509.92,300Z" style="fill:#5b544f"/><path d="M507.79,308.11c3.45-1.75,2.57-5.19,3.12-8.07,2.43,2.75.5,5.42-.34,8C510.07,309.56,508.76,308.92,507.79,308.11Z" style="fill:#756e69"/><path d="M490,308c0,.34,0,.69,0,1l-2.12,2.85L485,313.06C485,309.74,486.69,308.11,490,308Z" style="fill:#514843"/><path d="M410.89,228.09c.55,3.61,2.27,7.42-1.77,10.24-1.13-1.25-.38-2.68-.43-4-.18-1,1-2.39-.76-3-2.51,1.65.18,5.89-3.48,6.95l-.56-.35a6.07,6.07,0,0,0-.13-.87c1.05-3.25-.47-6.82,1.22-10C407.68,223.32,409,227.07,410.89,228.09Z" style="fill:#4a403a"/><path d="M410.89,228.09c-2.14.61-3.41-3.63-5.91-1.07-.27-1.2.54-2.06,1-3C409.47,223.12,409.76,226.11,410.89,228.09Z" style="fill:#928b87"/><path d="M202,280.22l17.31,9c.45,2-4.64.68-2.31,3.76-.89.78-1.91.48-2.91.34-2.89-3.09-6.71-3.72-10.65-4-3.42-.26-6.82-.61-10.2-1.21a10.54,10.54,0,0,1-1.43-.41c-2-1.51-5-.69-6.8-2.68l-2-1c-1.27-1.63-3.21-1.58-5-2-4.14-.08-7.2-2.31-10-5-.29-1,.07-1.3,1-1,4.19,1.52,2.68-2.68,4-4,6.66,4.19,14.95,3.85,21.74,7.92C196.62,281,199.59,280.16,202,280.22Z" style="fill:#070404"/><path d="M185,285c2.27.92,4.94.41,7,2-1.05.9-2.17.56-3.28.16-1.33-.08-2.78.34-3.83-.89Z" style="fill:#2c2727"/><path d="M178.05,282c2.24-.81,4.25-1,5,2C181.28,283.58,179.45,283.34,178.05,282Z" style="fill:#2c2727"/><path d="M169,276l-1,1a2.19,2.19,0,0,1-2-1C167.05,275.26,168,273.43,169,276Z" style="fill:#1a1314"/><path d="M188.8,287.12l3.28-.16c.31,0,.62.05.93.05,2.66,1.56,5.64,1.32,8.53,1.49a17.9,17.9,0,0,1,10.4,3.74,1.84,1.84,0,0,1,.38,1.48l-.53.53c-1.75.34-3-1-4.53-1.35-3-2.67-6.65-1.86-10.12-2l-4-1C192.13,288.26,189.63,289,188.8,287.12Z" style="fill:#444141"/><path d="M348.92,366c0-.37.05-.74.08-1.12,3,1.08,4.69,2.86,3.23,6.25l-.67-.12C349.79,369.85,348.42,368.44,348.92,366Z" style="fill:#4b4441"/><path d="M351.11,373c-1.73-.42-3.45-.83-5.17-1.26-.08,0-.16-.3-.13-.43s.19-.25.29-.38c1.75-1.71,3.63-1.12,5.51-.29l.62.5C351.85,371.79,351.48,372.41,351.11,373Z" style="fill:#4b4441"/><path d="M401.71,289.75c-.07-10.52,1.28-21,1.48-31.51.12-6.7-1.45-13.68.7-20.36a.88.88,0,0,0,.23.45,32.94,32.94,0,0,1,1.42,17.29c-1.11,3.57-.26,7.08.3,10.62a13.35,13.35,0,0,1-.37,6.3c-.87,2.45-.28,5-.64,7.54a43.84,43.84,0,0,0-.9,7.14c-.06,1.27-.06,2.65-1.79,2.93A5.49,5.49,0,0,1,401.71,289.75Z" style="fill:#3a302b"/><path d="M471.88,370.05c-2.71-2.42-6.69-3-8.94-6.07-2.59-3.27-4.89-6.72-8.93-8.6-3.69-1.72-.6-4.89-1.11-7.34l.64-.23c1.83,1,.57,3.56,2.23,4.23a4.86,4.86,0,0,1,.07-6.1,1.11,1.11,0,0,1,1.28,0q1.42,3.51,2.86,7a18.57,18.57,0,0,0,12,11.91,3.33,3.33,0,0,0,3,1,3.17,3.17,0,0,1,1,.09c1.51,1.2,3.52-.16,5,1,1.83.34,3.74.55,4.06,3-1.62,4.89-5.34,1.88-8.18,2.17A7.37,7.37,0,0,1,471.88,370.05Z" style="fill:#1f1814"/><path d="M476.87,372.08c2.66-1,6.12,1.08,8.18-2.17,1.05,3.55-1.72,3.65-3.71,3.53C479.9,373.36,478.09,373.39,476.87,372.08Z" style="fill:#3d3331"/><path d="M481,367c-1.71-.17-3.61.65-5-1C477.68,366.06,479.52,365.53,481,367Z" style="fill:#302423"/><path d="M475,365.89c-1.78,1.91-2.29.19-3-1Z" style="fill:#302423"/><path d="M333.94,325.94,334,316c-.66-1.54-2.28-1.91-3.45-2.82a23.14,23.14,0,0,1-3.45-5.64c-.56-1-1-2.59-2.37-.66a9.53,9.53,0,0,1-1.11,1.44,10.18,10.18,0,0,1-1.35,1.19,18.45,18.45,0,0,0-2.15,2.09,2,2,0,0,1-2.32.5c-1.05-1.27-.82-2.88-1.19-4.34a4.7,4.7,0,0,1,0-1.35,4.39,4.39,0,0,1,2.07-2.68,5.68,5.68,0,0,0,1.11-.9c3.88-3.2,8-3.33,12.22-.81L332,302c-.16,4.25,4.79,6,4.91,10.15,1.18,1.42.19,3.75,2.05,4.89-.06.65-.11,1.29-.17,1.93.6,4.07-.55,8-.86,12-1.4.18-2.8.59-4.17-.12A7.43,7.43,0,0,1,333.94,325.94Z" style="fill:#100a0a"/><path d="M331.06,348q.07-6.29.16-12.55l2.71-1.49c.64-.41,1.09-.07,1.52.38A2.5,2.5,0,0,1,336,336l-.24,5.06a10.49,10.49,0,0,0,0,4.92c0,2.35,0,4.7,0,7.06-.66,2.49-1.63,3.76-3.67,1C332,351.92,332.15,349.83,331.06,348Z" style="fill:#080301"/><path d="M332.09,354c1.66,1.34,2.73.43,3.67-1,.05,8.73,7.23,10.25,13.16,13l2.7,4.63-5.52.29c-.54-2.28-2.9-.94-4.05-2l-.93-2.11c-1.46-1.19-2.33-3-4.13-3.84-1.11-.7-.87-1.9-1.08-2.93C335.18,357.68,332,356.84,332.09,354Z" style="fill:#150e0a"/><path d="M336,336l-.94-1c.57-1.12.4-2.66,1.82-3.31A1,1,0,0,1,338,332C337.85,333.6,338.68,335.7,336,336Z" style="fill:#130f10"/><path d="M338,332c-.33,0-.66,0-1,0-1.08.5-1.61-.1-2-1,.9-3.88,2-.23,3-.06C338,331.28,338,331.64,338,332Z" style="fill:#251e1e"/><path d="M335.75,346a4.14,4.14,0,0,1,0-4.92C335.72,342.67,335.74,344.31,335.75,346Z" style="fill:#130f10"/><path d="M276,161a6.64,6.64,0,0,1-1,4c-2.69,1.35-1.71-.34-2-1.93C272.15,159.18,275.14,161.86,276,161Z" style="fill:#fefefe"/><path d="M481.91,303.88l1.23-1.88a131.48,131.48,0,0,1,21-2.47c1.86-.09,4-.26,2.57,2.8a5.94,5.94,0,0,1-3.21,1c-2.31.08-4.65-.19-6.94.33a6.9,6.9,0,0,1-1.43.17c-4.35-.38-8.55-.38-10.95,4.25-.18.41-.38.8-.59,1.19-1.07,1.56-.4,3.45-1,5.1a12.64,12.64,0,0,0-2.42,4.93,51.29,51.29,0,0,0-.16,9.91,8.76,8.76,0,0,1,.29,1.35,11.61,11.61,0,0,1-1,1.73c-.77,1.9-.11,3.94-.58,5.87a3.65,3.65,0,0,1-.67,1.14c-1.84,1.37-2.22,4.68-5.5,4.18a1.45,1.45,0,0,1-1.05-.84c0-.48-.07-1-.1-1.44-1.52-4.1,2.35-6.83,2.61-10.48.87-2.93.53-5.93.51-8.91a14.21,14.21,0,0,1,2.06-9.34C478.14,309.45,480.28,306.82,481.91,303.88Z" style="fill:#120c0c"/><path d="M481.91,303.88c.73,3.95-3.43,5.77-4,9.16-1.26.62-2.4,1.63-4,1.17a8.08,8.08,0,0,1-1.19-2.31c-.49,2.49-.36,4.63-.75,6.69-.21,1.1,0,2.88-2.14,2.31a12.43,12.43,0,0,1,.07-7c0-.82,0-1.64,0-2.46.11-5.38,1.47-6.16,6-3.47l-.15.14c3.94,1.51,3.33-3,5.33-4A4.12,4.12,0,0,0,481.91,303.88Z" style="fill:#1a1613"/><path d="M505.88,302c-.29-4.45-3.45-1.79-5.05-1.72-5.91.29-11.79,1.08-17.69,1.68a1.16,1.16,0,0,1,0-.86c7.23-1,14.43-2.25,21.76-2.33,1.73,0,3.71-.62,5.05,1.21-.65,1-1.3,2-1.94,3C506.81,303.69,506,303.61,505.88,302Z" style="fill:#18110d"/><path d="M481.13,304.11a9.41,9.41,0,0,1-2.9,5.07c-1.32,1.16-2.43,1.19-2.43-1C478.83,308.45,478.59,304.44,481.13,304.11Z" style="fill:#b9b4b5"/><path d="M402.14,290.15c2.21-3.11-.44-7.08,1.82-10.18,2.34,2-.36,4.84,1,7-.05,1-.1,1.93-.16,2.89-2,5.23-.23,10.7-1.07,16-3.12,2-1.62,5.22-1.29,7.62a61,61,0,0,1,.34,10.36c-1.95,5.55-.07,11.35-1.08,17a3.09,3.09,0,0,1-.74.12l-1.05-1q.1-16.41.22-32.84C402.38,301.63,401.67,295.82,402.14,290.15Z" style="fill:#271c16"/><path d="M405,256c.72-5.95-1.63-11.74-.86-17.69,1.92-2.29,1.28-5.19,1.86-7.8.18-.81-.24-2.32,1.39-1.73.42.15.42,1.43.61,2.19,1.08.74.93,2.27,2,3-.28,1.43-.55,2.87-.83,4.31-.07.89-.14,1.79-.22,2.69-2.23,3.85-1.16,8.18-1.6,12.28-.14,1.26-.05,2.19-1.33,2.71l-.49.39Z" style="fill:#2b201b"/><path d="M405,273c0-3.95.23-7.89-.81-11.82-.42-1.6-.8-3.64.83-5.12l0,0c1.18,1.47,0,3.36.84,4.89,1.82,8.1.23,16.08-.86,24.08A30.84,30.84,0,0,1,405,273Z" style="fill:#271c16"/><path d="M405,273,405,285c0,.66,0,1.31,0,2-1.94-2.11-.58-4.7-1-7C404.37,277.64,403.05,275.07,405,273Z" style="fill:#211414"/><path d="M405.85,261c-1.48-1.42-.66-3.25-.84-4.89.32,0,.64-.05,1-.05A8.66,8.66,0,0,1,405.85,261Z" style="fill:#211414"/><path d="M472.05,341.74a2.75,2.75,0,0,1,.14.85c1.64,1.28,2.31,6.1,5.56,1.51A1.12,1.12,0,0,1,479,344c.46,2.74-1.13,5.12-1.31,7.75-2.2.94-3.29-.79-4.62-1.93-.35-.62-.7-1.24-1.06-1.86-.29-2-.57-4-.86-6C471.38,341.51,471.68,341.47,472.05,341.74Z" style="fill:#564a47"/><path d="M469.93,313.93c.47,2.35-.76,4.94,1,7.12,1.22,1,1.27,2.39,1.36,3.79a42.21,42.21,0,0,0,.39,5.73,48,48,0,0,1-1.81,10.65c-.68-8.62-1.38-17.23-2-25.85C468.83,314.92,469.56,314.41,469.93,313.93Z" style="fill:#2e2824"/><path d="M470.85,341.22c.66-3.72-.82-7.65,1.11-11.24a1.46,1.46,0,0,1,1.12-.34A2.88,2.88,0,0,1,475,331c.47,4-4.06,6.56-3,10.7a4.49,4.49,0,0,0-.9.18A.46.46,0,0,1,470.85,341.22Z" style="fill:#241d1d"/><path d="M399.83,364.93c-1.43-1.52-.68-3.37-.76-5.1C400.27,361.39,399.67,363.22,399.83,364.93Z" style="fill:#332925"/><path d="M457.12,345.91l-1.21.14c-.18-.19-.35-.38-.54-.57-1.06-2.15-.46-4.62-1.36-6.8a23,23,0,0,1-.3-6.09c.83-4.18,1.07-8.25-2.22-11.64-2.46-2.16-5.6-3.83-5.54-7.77L447,313c2.79,1.77,4.32,5.14,7.75,6.1,3.28,6.53,1.36,13.59,2,20.38C457,341.59,457,343.75,457.12,345.91Z" style="fill:#332929"/><path d="M219,296c4.54-1.34,5.69,2,7,5.09C223.12,300.15,221.13,298,219,296Z" style="fill:#171313"/><path d="M227.11,304c2.1-.72,3.39,0,3.86,2.17C229.53,305.68,228,305.35,227.11,304Z" style="fill:#171313"/><path d="M212.32,293.72a1.9,1.9,0,0,1-.3-.72,1.44,1.44,0,0,1,2,0h3c0,.37,0,.73,0,1.1Z" style="fill:#171313"/><path d="M442,307.92l3.12,3c-1.39,1.29-2.87.49-4.33.19-5.32-1.77-9.34.28-12.59,4.38a65.8,65.8,0,0,0-4,6.25c-.78,1.26-1.35,3.32-3.65,2.06l1.65-4.66c1.7-2.63,4.31-4.7,5-8A18.71,18.71,0,0,1,442,307.92Z" style="fill:#241b1b"/><path d="M505.88,302l2.1,1c-.2,1.72-.78,2.63-2.87,2.22-5.37-1.06-10.38.31-15.15,2.76a13,13,0,0,0-5,5.06,2.47,2.47,0,0,0-.17.7c-3,2.1-3.6,5-3.78,8.52-.17,3.28,1.53,6.85-1,9.89a.94.94,0,0,1-.08-1.44c0-.27-.07-.53-.09-.79a35.51,35.51,0,0,1,0-10.89c-.15-2.05,1.13-3.48,2.17-5,1.57-1.44-.48-3.56.93-5,0-.32.06-.64.07-1,3.59-2.64,7.15-5.38,12-5l1,0c2.23-1.24,4.83.3,7.06-.94Z" style="fill:#332b27"/><path d="M479.92,330.73c0,.48.06,1,.08,1.44-.53,3.92.5,8-1,11.81-.33,0-.66,0-1,0l-.57-.56A3.58,3.58,0,0,1,478,339l0,0c1.22-2.21-.16-4.74.85-7Z" style="fill:#4f4241"/><path d="M247,321c2.37,1.89,4.27,3.91,1.56,6.93-1,1.15-1.29,1.93.69,2.13s1.67,1.69,1.62,3c-1,.37-1.84-.18-2.77-.23L247,333h-1v0c-.78-1.3-1.6-2.6-1.17-4.23l0-1.52c0-.75.09-1.49.13-2.24C247.28,324.41,246,322.14,247,321Z" style="fill:#342c25"/><path d="M247,333v-1c2.27-.28,2.09,1.81,2.88,3l1.1,2a3.59,3.59,0,0,0-2,2A10.76,10.76,0,0,1,247,333Z" style="fill:#261c19"/><path d="M423.94,356v-2a1.14,1.14,0,0,1,1.32,0,4.31,4.31,0,0,1,.67,1.25c-.2,2.55,2.18,4.52,1.61,7.14-.19.52-1.48,1.29.35,1.35,1.64.06,3.37-.07,4.4,1.64.08,1.51,1,3.1-.43,4.47-2.2-.6-3.58-3-6.16-2.75-.78,0-1.59.06-1.87-.94.45-2.85-3-3.86-3-6.5a.53.53,0,0,1,.14-.72C423.43,359.46,423.42,357.45,423.94,356Z" style="fill:#2f2422"/><path d="M431.87,369.89c.47-1.3-1.73-2.67.11-3.94,1.33-.66,2.17.13,3,1,2.21-.2,3.23.78,3,3Z" style="fill:#443d3a"/><path d="M310,305c2.71-1.55,1.62-5.29,4.06-7-.77,4,1.15,5.3,4.84,4.82.33.23.45.48.37.75s-.18.4-.29.4h0c-.85.88-3,.86-2,3h0c1.31,1.72-.52,4.18,1.36,5.76A6.62,6.62,0,0,1,319,318c-.82,3.75-.41,8.13-5.06,9.93a2.31,2.31,0,0,1-.57-2,5.83,5.83,0,0,1,.77-2.34c2.18-3.2.92-5.15-2.23-6.47-.28-.85,0-2-1.39-2.26-1.88-.36-2.12-1.8-2-3.4C309.19,309.37,308.38,306.91,310,305Z" style="fill:#36312d"/><path d="M319,304c0-.38-.05-.76-.08-1.15a3,3,0,0,0,.14-.79l6-2.92c2.05,1.58,5.87-1.09,6.92,2.88C327.29,300.33,322.9,300.54,319,304Z" style="fill:#1a1616"/><path d="M257.09,215.12,253,214q-.5-.33-.33-.66T253,213c2-.33,3.88.58,5.81,1Z" style="fill:#0c090a"/><path d="M423.94,356c.21,2.21.15,4.15-3,3l.12-1C422.57,358.11,422.94,356.58,423.94,356Z" style="fill:#251c1c"/><path d="M420.53,323.82c3.64-1.84,4.07-6,6.35-8.86,3.85-4.85,8.6-6.79,14.07-5,.43,2.39-2.1,2.58-3,4h0a3.77,3.77,0,0,1-4,0c-2.93-.32-3.59,1.7-4,3.94-1.13.62-.08,1.29-.05,1.94-3.11.28-3.39,3.27-4.88,5.11s-1.17,4.06-2,6h0c-1.37,1.26-2.76,1.71-4.18.05-2-2.18.86-3.55.9-5.39Z" style="fill:#120d0d"/><path d="M418.82,331.06c1.4.78,2.79,0,4.18-.05l-.27,1.73C421.06,333,419.38,333.35,418.82,331.06Z" style="fill:#241b1b"/><path d="M244.88,328.71a7.28,7.28,0,0,1,1.17,4.23C244.83,331.76,243.13,330.71,244.88,328.71Z" style="fill:#3f3731"/><path d="M438,314c-.25-2.25,2-2.66,3-4l4.17.94c.28.75.56,1.49.83,2.23,1.76,2.49,3.33,5.15,6,6.82a2.7,2.7,0,0,1-1.83.93,7.08,7.08,0,0,1-1.38,0c-1.85-.48-2.95.19-3.26,2.1-.23.65-.57,1.16-1.39,1L443,324c0-.72-.07-1.43-.11-2.14,0-1.62.05-3.24.07-4.86,1-.85,1.61-1.83-.15-2.32A33.49,33.49,0,0,0,438,314Z" style="fill:#201916"/><path d="M253,213v1c-.31,0-.61,0-.92,0a11.35,11.35,0,0,1-2.8.88,5.77,5.77,0,0,1-4.47-1.58c-.44-.45.21-1.71,1-2,1.74-.61,3.67-2.15,5.13.5A2.37,2.37,0,0,0,253,213Z" style="fill:#030102"/><path d="M234.11,204.5c2.39.6,4.42,1.34,4.36,3.54,0,1.13-2.19,2.89-3.09.91A8,8,0,0,1,234.11,204.5Z" style="fill:#030102"/><path d="M216.36,187.55c-.62-2.55.21-3.58,1.91-3.91a1.12,1.12,0,0,1,1.36,1.06C219.45,186.53,217.29,186,216.36,187.55Z" style="fill:#030102"/><path d="M249,202v2a2.07,2.07,0,0,1-1,2,1.34,1.34,0,0,1-2,0v-2C247.58,204.19,248,202.64,249,202Z" style="fill:#0c090a"/><path d="M241.57,212.12l2.49-4.11C244.59,210.53,244.11,211.61,241.57,212.12Z" style="fill:#030102"/><path d="M246,206h2c-.83,1.46-1.76,2.63-3.38.89-.21-.23,0-.81,0-1.23Z" style="fill:#030102"/><path d="M203.55,205.53c.52,1.73-.05,3.8-2,3.24s-1-3.19-1.21-5c-.09-.93-.64-2.4.74-2.28C203.17,201.7,204.1,203.23,203.55,205.53Z" style="fill:#030102"/><path d="M235,199c-.21-1.1-.42-2.19-.72-3.73,2.32.39,3.8,1.44,3.47,3.47s-1.78.42-2.75.26Z" style="fill:#1e1d1a"/><path d="M370.81,316.05c3.75,1.87,7,4.79,11.39,5.32,1.25.16,1.62,1.48,1.77,2.67,2.08,3.26,4.12,6.53,6.24,9.75.8,1.21,1.2,2.74.59,3.74-2.37,3.84-1.36,8.66-3.82,12.41l-.93,1c-2,0-3.38,1.33-5.07,2-1,.73-1.75.5-2.31-.57.05-1.29.95-2.12,1.65-3.07,2.36-2.74,4.63-5.51,2.34-9.42a17.53,17.53,0,0,0-2.06-9.3c-1.69-3.27-5.36-2.12-7.24-4.37a3.76,3.76,0,0,0-3.18-3.76c-3.92-2.27-6.55-1.63-9.2,2.24a6.7,6.7,0,0,1-1.92,2.61,2.89,2.89,0,0,1-1.12.6c-2.94,4.3.69,8,1,12-.29.38-.39.94-1,1-5.41-7.19-1.45-22.55,6.58-25.68C366.81,314.44,368.67,316.26,370.81,316.05Z" style="fill:#0c0808"/><path d="M381.07,340c-7.44,6.81-13.23,6.72-19.72,0-1.19-1.23-1.6-1.91-.38-3.13,1-1,.26-2.47.9-3.58,2.32-7.83,5-9,12.29-5.24,1.48.77,3.08,1.25,4.57,1.95C383.19,332.11,384,335.93,381.07,340Z" style="fill:#f3f2f1"/><path d="M383,340c4.48,1.95,1,4.81.62,7.17-.15,1-1.73,1.88-2.67,2.81s-2.42.89-3.41,1.75l-.6.23c-5.33,2.25-8.93-2.14-13.31-3.52-.53-.16-1.06-1.35-1-2,.06-1.08,1.08-1,1.93-.87a18.44,18.44,0,0,1,2.9.45c6.42,2,11.28.09,14.61-5.75Q382.39,339.46,383,340Z" style="fill:#0c0606"/><path d="M383,340a2.71,2.71,0,0,0-1,.24l-1-.22c2.39-5,1.27-7.9-3.84-9.13a13.21,13.21,0,0,1-3.9-1.95c-5.08-3.11-7.22-2.48-9.75,2.76-.42.88-1,1.69-1.48,2.53-1.59-2.79,0-6.07-1.36-8.89a2.35,2.35,0,0,1,0-1.34c2-2.05,4,1.28,6.06,0a7.42,7.42,0,0,1,1.94.17c1.79.51,3.91,0,5.28,1.77C382.27,327.38,385.45,332.32,383,340Z" style="fill:#3a3436"/><path d="M360.94,325c3.68,2.67.83,6.17,1.16,9.26-.09,1,.46,2.27-1.13,2.63-.42-1.46,1.36-4.5-2.5-3.5-.16-.79-.31-1.58-.47-2.38,1.45-1.29.8-2.62.09-4l1.9-2C360.3,324.51,360.62,324.5,360.94,325Z" style="fill:#342c2a"/><path d="M358.09,327c1.87.66,1.38,2.47,1.84,3.81L358,331l-.06-3A7.06,7.06,0,0,1,358.09,327Z" style="fill:#382e2f"/><path d="M358,341l1-1c0,.81,2.16.95.71,2.17-.4.34-.75,1.33-1.41.71C357.91,342.52,358.06,341.64,358,341Z" style="fill:#0a0301"/><path d="M379,352a2.08,2.08,0,0,0,2,1c-1.92,1.93-3,.58-4-1h0A1.42,1.42,0,0,1,379,352Z" style="fill:#1a1412"/><path d="M339,317c-5,.17-1.14-3.35-2.05-4.89a1.43,1.43,0,0,1,.78.16C338.3,313.8,339.23,315.24,339,317Z" style="fill:#1d1617"/><path d="M250,347c0-2.06,0-4.12,0-6.18,0-1.63,1.06-1.14,2-.86.58,1-.17,2,0,3s0,2,0,3C251.47,346.54,251.17,347.56,250,347Z" style="fill:#0e0502"/><path d="M249.92,335c-2.14.16-1.58-2.31-2.88-3,2-2.09,2.55.78,3.85,1.08A1.76,1.76,0,0,1,249.92,335Z" style="fill:#20170f"/><path d="M250,347l2-1.08c0,.36.05.72.07,1.09-.38,1.63.58,3.55-1.08,4.9,0-1.08.19-2.25-1-3C250,348.33,250,347.69,250,347Z" style="fill:#372d29"/><path d="M252,343c-1.49-1-.2-2,0-3,0-.36.05-.71.07-1.07C253.33,340.32,253.51,341.67,252,343Z" style="fill:#261c19"/><path d="M228,386c.39-.44.73-1.18,1.19-1.27.86-.16.71.71.8,1.26C229.36,387,228.7,387,228,386Z" style="fill:#0a0501"/><path d="M312.86,331l-.93,3c-1.19,1.09-.88,2.89-1.92,4h0c-.62.66-.36,1.56-.61,2.31-.32.93-.86,1.94-2.07,1.62-1-.26-.81-1.3-.78-2.06A22,22,0,0,0,306,334a4.71,4.71,0,0,1,.32-1.43c3-2.14,3-5.82,4.57-8.69a1.91,1.91,0,0,1,2.4.93C313.59,326.89,311.66,328.82,312.86,331Z" style="fill:#5b544e"/><path d="M319,318c-1.67-1.4-.79-3.3-1-5-.28-.24-.36-.48-.26-.71s.2-.34.29-.34l2-1c.58,1.9,2.06,1.71,3.54,1.53,1.62,1,.59,2.32.5,3.53C322.82,317.9,321.36,319.12,319,318Z" style="fill:#1a1616"/><path d="M307.09,333.23v8c2.39-.28,1.49-2.66,2.91-3.22,0,1.32,0,2.65,0,4-1.68.77-2.53,2.44-4.45,4.56.19-4.15.34-7.34.48-10.52-1-.52-1.5-1.3-.84-2.35C305.6,333,306.24,332.37,307.09,333.23Z" style="fill:#4a413a"/><path d="M324,316c-1.6-1-.33-2,0-3a2.58,2.58,0,0,1,.64-1.25,4.31,4.31,0,0,1,1.27-.63c1.66-.2,3.37-.54,4.39,1.35-.05.83-.65,1.2-1.3,1.52L326,315.93Z" style="fill:#10080a"/><path d="M312.86,331c-1.68-2-.73-4,.13-6-.68-1.26-.58-2.09,1.12-2.06A2.84,2.84,0,0,1,314,326c0,.65,0,1.3-.07,1.95C312.84,328.67,313,329.88,312.86,331Z" style="fill:#514b45"/><path d="M310,338c.17-1.57-.64-3.61,1.92-4C312.09,335.67,311.83,337.2,310,338Z" style="fill:#4a413a"/><path d="M335,331l2,1-2,3-1.08-1.05c-1.14-2.66-1.61-5.32,0-8C334.28,327.62,333.29,329.59,335,331Z" style="fill:#1d1617"/><path d="M329,314c.34-.33.68-.66,1-1,.33-.49.67-.49,1,0a2.82,2.82,0,0,1,3,3Z" style="fill:#322b2a"/><path d="M435,367l-3-1c-1.62-2-4.28-.13-6-1.65-.45-.4-1.07-.93-.41-1.54.22-.19.91.15,1.38.24,1.75-1.82,4.22-1,6.26-1.74,3.58-.95,6.5-2.67,7.61-6.5a5.72,5.72,0,0,1,1.24-2.33c2.05-1.44,1.58-3.83,2.2-5.82a2.42,2.42,0,0,1,.91-1,2.36,2.36,0,0,1,1.39.06,2.19,2.19,0,0,1,.82,1.14c0,.25,0,.49,0,.73-.33,1.87.13,4-1.42,5.5-1.28,1.82-1,3.91-1.05,5.94a.58.58,0,0,1-.91.11C442.29,363.18,438.33,364.72,435,367Z" style="fill:#1a1211"/><path d="M444,359.07a5.52,5.52,0,0,1,.91-.11h1c-.14,1.22.37,3.16-1.37,3.08C443.45,362,444.13,360.13,444,359.07Z" style="fill:#453d35"/><path d="M447,347l-1.11-1.07c-2-3.21-.52-6.53-.33-9.82.55-2.43-.69-5.88,3.51-6.27,1.26,1.28,1.17,2.93,1.24,4.53s-.15,3.41.62,5c1.12,2.08,1.15,4.56,2.42,6.58a1.84,1.84,0,0,1-.33,2l-.1.08-4-1A1.38,1.38,0,0,1,447,347Z" style="fill:#1f1814"/><path d="M447,347l1.94,0c.44,2.05,1.49,4,1,6.22-.2.94-.33,2.13-1.61,2s-1.24-1.33-1.37-2.29c0-.21,0-.41,0-.61a15.67,15.67,0,0,0-.27-4.27A1,1,0,0,1,447,347Z" style="fill:#5d5451"/><path d="M447,347q0,.48,0,1a6.21,6.21,0,0,1-.06,5h0c-.33,0-.65,0-1,0C446.28,351,445.12,348.74,447,347Z" style="fill:#1f1814"/><path d="M288,323v-1c.57-.06,1.31-.37,1.65-.12a1,1,0,0,1-.17,1.58C288.88,323.92,288.38,323.54,288,323Z" style="fill:#fbfafa"/><path d="M302,350c1.25,3.25-2.3,1.73-3,3-.76-1.21-2-1-3.17-1.12,2.6-2,3.23-4.52,2.77-7.71-.53-3.6-.09-7.17,2.31-10.2L302,334c.92,4.13,0,8.21-.38,12.3C301.49,347.54,300.52,348.9,302,350Z" style="fill:#0e0a0b"/><path d="M274,353.23l1.13-.3c4.81,3,9.65,2.22,14.61.29a43.83,43.83,0,0,1,6.21-1.45,23.64,23.64,0,0,1-18.48,4.29C275.62,355.74,274.24,355.27,274,353.23Z" style="fill:#171112"/><path d="M273,326a7.47,7.47,0,0,0,.94-.09,2.22,2.22,0,0,0,1.08,2.11,1.85,1.85,0,0,1,.12,2.18L274,331h-2C273,329.46,271.65,327.45,273,326Z" style="fill:#28201d"/><path d="M275.18,330.2l-.12-2.18h0a9.57,9.57,0,0,1,2.9-3.07l.05,0,1.18.17C278.61,327.39,276.8,328.72,275.18,330.2Z" style="fill:#635c59"/><path d="M309,312c.55,3.37,3.49,1.22,5.12,2.28.51,1.72-1.79,1.52-2,2.76a3.59,3.59,0,0,1,.82,2.88,5.05,5.05,0,0,1-1.78,3.28,1.37,1.37,0,0,1-1.35-.15c-1.25-2.21.5-5.58-2.7-7.05a6,6,0,0,1,.06-.85c1-.84.88-2,.93-3.11C308.36,311.55,308.67,311.53,309,312Z" style="fill:#0e0a0b"/><path d="M309,312c-.31,0-.62,0-.93,0,.4-4.67-1.16-9.47.93-14,1,2.25-.64,4.87,1,7C310.31,307.44,309.62,309.71,309,312Z" style="fill:#181112"/><path d="M307.08,316c7.12-.29,2.2,4.5,2.92,6.91a21.78,21.78,0,0,1-2.54,9.27c-.13.35-.25.7-.37,1.05-2,.28-1.6,1.51-1.08,2.77-3.16,1.39-1.2,4.93-2.91,6.92L302,350c-.65.68-2,.82-1.69-.08,1.62-5.2-.57-10.77,1.66-15.86,3.69-2.51,2.62-6.83,3.8-10.29C306.63,321.29,306.68,318.58,307.08,316Z" style="fill:#0e090b"/><path d="M289,362c-.34.33-.67.66-1,1a2.3,2.3,0,0,1-.46-3.4,1.12,1.12,0,0,1,1.7-.19C290.26,360.3,289.21,361.12,289,362Z" style="fill:#171112"/><path d="M285.73,362.38c-.28.59-.66,1.16-1.38,1-.28-.08-.66-.84-.57-1a2.55,2.55,0,0,1,1.16-.74C285.57,361.41,285.78,361.79,285.73,362.38Z" style="fill:#171112"/><path d="M272,331c-.12.93-.1,2-1.31,2.25-.13,0-.51-.37-.52-.59-.1-1.31.83-1.54,1.84-1.66Z" style="fill:#322926"/><path d="M282,313c1.17-.1,1.65-2.31,3.17-1.14.79.61.05,1.42-.17,2.12l-4,3C281.34,315.65,281.67,314.33,282,313Z" style="fill:#453b3a"/><path d="M277.94,325A7.52,7.52,0,0,1,275,328,2.81,2.81,0,0,1,277.94,325Z" style="fill:#28201d"/><path d="M436,331c3.34-1.09,5.11-4.22,7.87-6.07a3.06,3.06,0,0,1,.87,3.26,5.47,5.47,0,0,0-.56,4.74,25.8,25.8,0,0,1-3.06,3.38,3.6,3.6,0,0,1-1.22.45c-1.63-.27-3.32-.1-4.95-.5C433.34,334.12,436.13,332.85,436,331Z" style="fill:#393430"/><path d="M443.92,328.94c0-1.33,0-2.67,0-4l.21-.92.84-1c3.85-2.62,3.88.62,4.52,2.94a6.23,6.23,0,0,1-3.22,4.89C444.41,331.51,443.14,331.5,443.92,328.94Z" style="fill:#64595c"/><path d="M426.88,346.85c-.24-3.46,2.83-5.19,4.09-7.86a1,1,0,0,1,1.29-.14c1.2,1.39,1.87,2.86.57,4.57A47.65,47.65,0,0,0,428.7,347l-.61.31A1.34,1.34,0,0,1,426.88,346.85Z" style="fill:#2d2723"/><path d="M432,339,431,339c1.42-2.83,2.64-5.78,5.06-8,1.38,2-1.37,3.17-1.07,5C434.81,337.78,434.31,339.25,432,339Z" style="fill:#231b1c"/><path d="M426.88,346.85l1.06.11c1.38,3.38-.23,5.48-3,7.05H424l0,0c-1.15-1.93.17-3.42.9-5Z" style="fill:#403933"/><path d="M424.82,349l-.9,5C422.15,351.94,422.88,350.34,424.82,349Z" style="fill:#251c1c"/><path d="M442.88,317.08,438,317C439.64,315.6,441.28,315.42,442.88,317.08Z" style="fill:#443e3c"/><path d="M434,314h4C436.64,315.4,435.3,316.51,434,314Z" style="fill:#201916"/><path d="M423,331c.16-2.17-.84-4.72,2-6-.31,1.71-.62,3.43-.92,5.14Z" style="fill:#241b1b"/><path d="M303.52,352.86c2.93,1.58,2.74,3.43,2,5.34-.07.21-1.05.4-1.22.23C302.8,356.8,304.45,355,303.52,352.86Z" style="fill:#332a25"/><path d="M337,363c2.39.2,3.58,1.67,4.13,3.85C338.59,366.78,338.28,364.36,337,363Z" style="fill:#312d2a"/><path d="M410,234c-2-.12-2-1.58-2-3C411.62,230.07,409.37,233,410,234Z" style="fill:#2c221f"/><path d="M214.05,293l-2,0c-4.79-2.26-9.45-4.86-15.08-4.21A4.29,4.29,0,0,1,193,287c5.44.66,10.88,1.4,16.34,1.94C212,289.21,213.64,290.28,214.05,293Z" style="fill:#0f0b0d"/><path d="M453,348c0-.66,0-1.31,0-2-.05-.24-.09-.47-.13-.71-.49-3.36.31-6.8-.68-10.12a5.87,5.87,0,0,1,0-3c.82-1.56,1.69-2,2.65-.11L455,339c1.27,2.21-.28,4.8.94,7v.05c-1.16,3.29,1,5.73,2.53,8.43C453.86,354.28,454.42,350.34,453,348Z" style="fill:#0b0201"/><path d="M331,313l-1,0c-1.38-1.74-3.33-.76-5-1a15.51,15.51,0,0,0-2-4l1-1a2.89,2.89,0,0,1,4,.08Q329.51,310,331,313Z" style="fill:#2c2527"/><path d="M323,308c3.58-.13,3.29,1.69,2,4h0c-3,1-4.23.24-3-3Z" style="fill:#393235"/><path d="M322,309c-.21,2.2.76,3.22,3,3l-1,1c-1.84.33-4.75,2.77-4-2A1.85,1.85,0,0,1,322,309Z" style="fill:#2c2527"/><path d="M328,307l-4-.08c.13-1.09-.23-2.59,1.37-2.74C327.23,304,327.87,305.36,328,307Z" style="fill:#171012"/><path d="M317,307c-.76-.35-1.68-.87-1.37-1.71.57-1.49,2.11-1.18,3.37-1.29Z" style="fill:#201617"/><path d="M318,312l0,1.05c-1.81-1.76-.64-4-1-6C318.67,308.37,317.76,310.29,318,312Z" style="fill:#201617"/><path d="M473.94,313.85a6.49,6.49,0,0,1,4-.81c-1.8,2.36-2.77,4.93-2.07,7.93-.47,1-1.11,1.68-2.33,1.45-1.43-.52-1.7-1.81-2-3.06C471.92,317.36,470.13,314.36,473.94,313.85Z" style="fill:#413934"/><path d="M495,303l-11.57,4.8-.44.2C486,302.76,489.37,301.34,495,303Z" style="fill:#18110d"/><path d="M473.94,322l1.91-1c-.27,3.36,1,6.84-.84,10.07a2.27,2.27,0,0,1-2.08-1.07C471.24,327.05,471.81,324.43,473.94,322Z" style="fill:#31292b"/><path d="M478,344c-.28,1.4.78,3.66-2.1,3.42s-3.79-2.23-3.71-4.86a1.5,1.5,0,0,0,.77.37c1.55.85,3.54-.56,5,1Z" style="fill:#4f4241"/><path d="M477.91,343.94c-1.66-.25-3.59.84-5-1a3.83,3.83,0,0,0,2.94-3.25c.28-1.63,1.23-1,2.11-.67C478,340.67,478,342.31,477.91,343.94Z" style="fill:#1b1311"/><path d="M479.81,319.05q0,5.44,0,10.89A14.84,14.84,0,0,1,479.81,319.05Z" style="fill:#18110d"/><path d="M478.83,332c-.35,2.32.7,4.81-.85,7C478.28,336.69,477.14,334.19,478.83,332Z" style="fill:#18110d"/><path d="M482.91,309c-.45,1.65,1.83,3.81-.93,5C482.51,312.39,480.12,310.21,482.91,309Z" style="fill:#18110d"/><path d="M503,302c-2.15,1.8-4.71.59-7.06.94C498.1,301.1,500.66,302.34,503,302Z" style="fill:#18110d"/><path d="M473.94,313.85c-2.54,1.41-1.84,3.85-1.93,6,.09,1.76,2.37,3.94-1,5-.05-1.29-.09-2.58-.13-3.87.16-2.58.45-5.16.42-7.73,0-1.6-.76-3.95,1.46-3.77C475.4,309.76,474.05,312.24,473.94,313.85Z" style="fill:#18110d"/><path d="M471,324.92c1.59-1.43.63-3.35,1-5l1.93,2.11c-.34,2.66-.67,5.31-1,8h-1C470.43,328.52,471.21,326.63,471,324.92Z" style="fill:#1a1613"/><path d="M454.82,332.05c-.62-.25-1.23-1.17-1.89-.05-.86.26-1.28-.25-1.59-.93a9.77,9.77,0,0,1,.07-3.41c-.35-2.58-3.17-4.69-1.47-7.66h2C456.3,323.21,455.94,327.54,454.82,332.05Z" style="fill:#1f1814"/><path d="M455.9,346c-1.8-2.14-.63-4.68-.94-7C456.67,341.13,455.55,343.66,455.9,346Z" style="fill:#1f1814"/><path d="M424.9,354c1-2.35,2.89-4.33,3-7.05h0a1,1,0,0,1,1.42.23c1.15,3.82,0,7.47-.85,11.14-3.73,1.53-1.93-2.69-3.51-3.39A7.24,7.24,0,0,0,424.9,354Z" style="fill:#5f5852"/><path d="M425,354.93c2.05.55,1.32,3.18,3,4l.56.32c1.24,2.06,4.2.9,5.47,2.9-2.22,1.54-4.72.7-7.11.84C427,360.13,423.77,358.07,425,354.93Z" style="fill:#403933"/><path d="M312,320c0-1,.09-1.95.13-2.93,4.85.5,5.63,1.84,3.49,6-.51,1-1.05,2-1.58,2.94l0-3C313.07,322.11,313.19,320.58,312,320Z" style="fill:#464242"/><path d="M313.89,307.29a1.92,1.92,0,0,1-1.47,2.24c-1.06.22-1.31-.67-1.32-1.55,0-1,.2-2.14,1.33-2.31C313.31,305.54,313.78,306.4,313.89,307.29Z" style="fill:#584e4d"/><path d="M436.51,311.75c-.08,1.1-.79,1.16-1.42,1.16a4.1,4.1,0,0,1-1.25-.42,8.08,8.08,0,0,1,1.54-1.05C435.68,311.33,436.15,311.64,436.51,311.75Z" style="fill:#201916"/><path d="M448.82,325.92c-.93-1.45-.74-4.39-3.87-2.94.14-4.31.14-4.31,4-3,.6,1.92,1.69,3.73,1.26,5.88A1,1,0,0,1,448.82,325.92Z" style="fill:#332929"/><path d="M450,326c-.32-2-1.35-3.88-1-6h1l3,8C450.86,329,449.89,328.25,450,326Z" style="fill:#312625"/><path d="M360.94,325H360c-.48-3.75,2.5-4.1,4.9-4.76s4.84-1.47,6.09,1.76c-.87.83.68,3.2-1.87,3l-2.06,0c-1.94-.81-3.73-2.53-6-.92C361,324.32,361,324.65,360.94,325Z" style="fill:#1a1618"/><path d="M369.11,324.94l1.87-3c3.55-.61,3,1.87,3,4C372.44,325.26,370.54,326.24,369.11,324.94Z" style="fill:#0f0b0b"/><path d="M379,352l-2,0c.33-2.69,2.44-1.81,4-2Z" style="fill:#261a1a"/><path d="M361,324c2.47-2.74,4.31-1.3,6,.93C364.69,326.89,363.12,323.73,361,324Z" style="fill:#342c2a"/><path d="M307.46,332.17c.52-3.18.22-6.58,2.54-9.27a7.07,7.07,0,0,0,.92,0,.7.7,0,0,1,.32.67c0,.25-.08.38-.15.38C310.93,327.14,311,330.47,307.46,332.17Z" style="fill:#514b45"/><path d="M311.09,323.93c0-.35-.11-.7-.17-1l1-2.93c.76-.2,1.85-.82,2.22-.53,1.38,1.11-.47,2.3-.21,3.52a2.25,2.25,0,0,0-1,2Z" style="fill:#676465"/><path d="M428,358.94c-.6-4,.53-7.9,1.23-11.8.2-1.82,1.65-2.62,2.91-3.57,2.95-2.2,4.86-5.48,7.95-7.52a1.24,1.24,0,0,0,.78-.28c1.67-1.81,3.33-3.37,4.89.11-.64,3.26.45,6.7-1,9.88l.11.09c-1.62,2.1-.12,5.08-2,7.09-1.1.2-1,1.13-1.1,1.89-2.35,3.65-4.71,7.16-9.93,6.68a3.84,3.84,0,0,1-3.72-2.65Z" style="fill:#f9f8f7"/><path d="M444.77,345.76a30.47,30.47,0,0,0,.15-10.69,8.44,8.44,0,0,1-1-2.2c-.89-1.31-4-2.63,0-3.93,0,1.76,1,1.5,2.12,1.1,1.14,2.24-.32,4.8.85,7-1.1,2.86-.51,5.92-1,8.85Z" style="fill:#514949"/><path d="M428.11,358.86c4.07,3.21,6.64,3.09,10.23-.48,1.16-1.16,2.28-2.37,3.42-3.55-.76,4.35-3.8,6.3-7.71,7.33C431.84,361.49,427.85,364,428.11,358.86Z" style="fill:#817e78"/><path d="M442.86,352.94c.66-2.37-.47-5.24,2-7.09C444.63,348.34,446.2,351.34,442.86,352.94Z" style="fill:#1f1814"/><path d="M452,331l1,1c0,1,.06,2,.1,2.95a31.74,31.74,0,0,1-.06,11h0c-3.56-.75-1.16-4.44-3-6.05.18-1.72,1.94-3.74-.93-4.88L449,330C451.07,327,451.13,330.16,452,331Z" style="fill:#312625"/><path d="M452,331c-.9-.6-1.5-2.12-3-1-3.2,1.63-1.58,4.68-2.08,7.1-1.51-2.2-.86-4.66-.85-7,2-.65,1.53-3,2.78-4.12L450,326a3,3,0,0,0,3,2Z" style="fill:#282220"/><path d="M449.06,335.06c.83-.23,1.44-2.77,2.39-.65.83,1.85,1.79,4.44-1.46,5.53C448.42,338.56,449.25,336.71,449.06,335.06Z" style="fill:#4f4944"/><path d="M447,353l.06-5C448.37,349.64,448.45,351.31,447,353Z" style="fill:#3c3430"/><path d="M440.11,336.05a15.7,15.7,0,0,1-8.08,8.08c-.32-.24-.43-.49-.33-.73s.2-.37.31-.37c1.77-1.33-.35-2.68,0-4l2.92-3A9.21,9.21,0,0,1,440.11,336.05Z" style="fill:#4f4642"/><path d="M443.91,332.87a2,2,0,0,1,1,2.2c-1.7-1.77-2.58,1.07-4,.7C441,333.86,442.22,333.13,443.91,332.87Z" style="fill:#6b6762"/><path d="M432,343l0,1.1-2.78,3L428,347A5.89,5.89,0,0,1,432,343Z" style="fill:#403933"/><path d="M453,346l.06-11A13.49,13.49,0,0,1,453,346Z" style="fill:#1f1814"/></g></g></svg>