<svg xmlns="http://www.w3.org/2000/svg" viewBox="0 0 646 568"><g id="Layer_2" data-name="Layer 2"><g id="Layer_1-2" data-name="Layer 1"><path d="M322.5,567.4q-159,0-317.91.1c-3.42,0-4.09-.67-4.09-4.09Q.67,284,.5,4.59C.5,1.17,1.17.5,4.59.5Q323,.65,641.41.5c3.42,0,4.09.67,4.09,4.09q-.16,279.41,0,558.82c0,3.42-.67,4.09-4.09,4.09Q481.95,567.32,322.5,567.4Z" style="fill:none;stroke:#fefefe;stroke-miterlimit:10"/><path d="M177.54,139.55a45,45,0,0,1,9.72,18.65c2.23,8.89,6.74,17.13,8.36,26.28a31,31,0,0,1-2.19,9c-1.08,1.41-.9,3.05-.88,4.67.11,1.18.38,2.38-.35,3.48-.92,1.72-.15,5.22-4,3.87a6.11,6.11,0,0,1-1-3.79c.47-5.09,2.64-9.92,2.18-15.17-.2-2.3.21-4.66-1-6.79a14.65,14.65,0,0,1-1.92-3.32A44.44,44.44,0,0,0,181.71,165c-.76-1.36-1.73-2.66-3.47-2.27s-1.53,2.1-1.84,3.58c-2.5,11.83-1.7,24.1-4.69,35.86-.58,2.26-1.34,4.45-2,6.68-3.19,9.82-7.07,19.4-8.11,29.88-.63,6.35-2.89,12.51-3.14,19-.66,2.18-4.86,3.41-1.76,6.61a2.13,2.13,0,0,1,0,1.43c-1.33,2.17-2.91,4.11-5.79,3.56-2.29-.43-3.07-2.17-3-4.36,4.2-6.4,2.22-14.2,4.68-21a5.3,5.3,0,0,1-.57-2.68c1-2.24,2.24-2.59,3.83-.64-.77-3.32-3.79-1.21-5.55-2.16-1.93,6.22-7.7,11.15-6.11,18.51.65,5-2.6,8.53-4.82,12.44-2.47,3.13-1.64,7.26-3.21,10.7-.59,1.3-.93,2.77-1.65,4.07a4.17,4.17,0,0,0,.14,4.22c1.33,2.43.56,4.77-.26,7.12a10.09,10.09,0,0,1-3.66,5.16,17.35,17.35,0,0,0-5.33,7.62,32.71,32.71,0,0,1-5,14.66c-3.06,1.16-4.12,3.38-3.68,6.58a7.18,7.18,0,0,1-1.75,6.38c-1.1,1.38-2.38,2.61-3.44,4a16.26,16.26,0,0,0-1.94,4.68c-.15,2.54.11,4.88,2.83,6.08,1,.58,2,.81,2.9-.17,4.19-1.44,4.49,1.51,4.9,4.33.59,1.42,1.69,2.77.65,4.43-2.19,1.57-4.79,2.09-7.3,2.83a17.55,17.55,0,0,0-1.64,1.05,3.81,3.81,0,0,1-1.81.78c-1.16,0-2.51-.14-3.13-1-2.47-3.56-2.1.5-3,1.06-1.52,1.45-3,3-4.75.25a27.55,27.55,0,0,1,0-4.45c1.12-1.86,2.19-3.74,1.93-6a3.6,3.6,0,0,1,.6-2.63c1.87-1.94,1.54-4.51,2-6.86a5.29,5.29,0,0,1,.46-1.3c.7-1.75,1-3.64,1.75-5.38.4-3.77,2.08-7.19,2.84-10.9a87.35,87.35,0,0,1,11.64-29.8,8.15,8.15,0,0,0,.86-2.33c5-7.9,6.95-17.06,10.35-25.61.86-2.16,2.14-4.07,2.91-6.28,3.13-9,4.44-18.46,8.31-27.33,2.72-6.23,4-13.2,6.17-19.77a19.87,19.87,0,0,1,3.15-6.63c2.54-3.12,3.22-7,3.42-10.76a21,21,0,0,1,2.59-9.42c3.93-6.94,1.64-15,4.38-22.17,2.24-5.83,2.86-12.14,5.26-17.93l.82-2.09c.77-1.13.74-2.49,1.09-3.74C171.23,137.19,172.17,136.81,177.54,139.55Z" style="fill:#020202"/><path d="M316.56,333.48c3.45,3.1.48,7.14,1.47,10.62.12.4-1,1.58-1.62,1.67-1.72.26-1.26-.83-.77-1.75-2.28.17-4.1-4.75-6.76-.61-.66,1-1.84.37-2.66.63-3,.93-5.92,2-6.05,6a4.28,4.28,0,0,1-3.71,4.52c-2.13.46-3.16-.19-3.46-2.72-6.11,14.38-5.89,11.7-19.49,11.68v6.94c-1.56-.13-.85-2.33-2.81-2.19,2,4.64-.93,4.54-4.14,4.35-2.81-.17-5.64,0-8.45-.2-3.59-.23-4.59,1-3.31,4.52.35.95,1.71,3.61.24,3.46-2.87-.29-5.2,2.13-8,1-1.16-.48-1.32-1.29-1.47-2.31-.25-1.74-.19-3.4-2.6-4.15-5.85-1.81-6.44-3.63-3.65-9.15a6.13,6.13,0,0,0,.33-1.45c2.88,1,5.45,2.27,6.12,5.64.19.58.1,1.43.78,1.61s.66-.56.71-1a30,30,0,0,0,0-3.42,47.12,47.12,0,0,1,.13-5,9.77,9.77,0,0,1,.28-1.41,10.63,10.63,0,0,0,.13-6.89,12.24,12.24,0,0,1-.35-1.45c-.51-3.26.25-6.63-.83-9.85-.41-2.07-.67-4.18-1.21-6.23,0-3.28-.78-6.49-1.19-9.73-.43-3.58,1.05-7,.95-10.53-1.18-6.63,2.12-13.25,0-19.89-.41-3.83.92-7.51.95-11.3,0-1.32,0-2.65.06-4a9.19,9.19,0,0,1,.94-4.4c1.23-1.5,1.18-3.37,1.44-5.15.07-.45.18-.89.29-1.32.6-2.86-.46-5.34-1.75-7.77a20,20,0,0,1-2-10c-.44-6.95,1.15-14-1.33-20.84a8.41,8.41,0,0,1-.47-1.7c.13-4.39-1.31-8.9,1.07-13.11,1.29-.48,2.05-.69,2,1.35-.42,9.8,2,19.5,1.16,29.34-.11,1.32-.2,3.31,1.11,3.56a7.28,7.28,0,0,1,5.7,7.91c-1.06,4.44,2,7.92,1.15,11.91-.28,1.3-.16,3.41-2.42,1.08-.41-.42-.53,1.56-.26,2.22a22.42,22.42,0,0,1,1.5,13.37c3.92-2.55,6.5-4.13,2.19-8.22-2.39-2.26,1.4-2.91,2.47-4.22s4.15-.1,3.5-3.1c-.4-1.81-.05-4.76-3.59-3.1a3.28,3.28,0,0,1-.76-1.15A1,1,0,0,1,259,266c1.79-.23,3.6-.36,5.41-.53,2.94,3.76.56,8.28,1.79,12.28a7.08,7.08,0,0,1-.88,4.64c-2.77,3-.56,5.87.24,8.77,0,4.17-1.61,8.31-.09,12.48.54,4.1-.75,8.06-.93,12.1a69.34,69.34,0,0,0-1.41,11.84,8.21,8.21,0,0,1,.27,1.48c.13,2.09-.69,4-1.12,6-.79,2.6-.3,5.28-.5,7.92-.33,4.36-.95,8.61-4.86,11.45-1.84,2-2.89,4.15-.55,6.55,4.46,3.46,7.35,3.21,13-1.15,4.69-3.54,11.49-2.75,15.55-7.58,1.67-1.24,3.59-2.07,5.26-3.32,2.84-1.86,5.2-4.37,8.12-6.13a16.72,16.72,0,0,1,4.92-2.47C308.06,338.79,312.06,335.66,316.56,333.48Z" style="fill:#fcfcfc"/><path d="M409.61,282.78c-2.5-2.68-3.95-5-.12-8.19,2.73-2.27,2.79-6.25,2.91-9.71.1-3.14-1.95-2.72-4-1.9,1-7,3.24-8.35,11.63-4.91,2.59,1.06,4,1.27,6.12,0,.57-.35,1.16-1.3,2.62-.12-2.24,1.61-2.51,6-7,3.31-1.24-.75-3.44-1.59-3.77.25-.48,2.65,1.79.19,2.61.81.39.29,1,.64,1,1,.75,6.27,4.66,2.47,7.27,2.17s4.64-2.39,7.44-2c1.1.13,1.79-.43,1.95-1.69.43-3.34,2.26-4.14,5-2.32,2.54,1.67,3,4.53,4.16,7a1.94,1.94,0,0,1-1.18.61,4.55,4.55,0,0,1-1.32-.26,7.75,7.75,0,0,0-6.83-.45c-4.17.62-8.63.63-10.77,5.34-.52,1.05-.86,2.17-1.29,3.26-2.35,6.18-4.9,12.29-6.65,18.68a9.34,9.34,0,0,1-2.43,4.13c-3.63,2.5-4.45,2.24-4.8-1.78a73.57,73.57,0,0,1,0-8.91c.1-1.86.85-3.58,1.14-5.4.51-1.64.87-3.32,1.34-5,1.29-3.62,5.66-6.74,1.76-11.15-1.63-.79-1.57.55-1.64,1.41-.32,4-1.93,7.63-2.6,11.51C411.9,280.1,411.94,282.24,409.61,282.78Z" style="fill:#fbfbfb"/><path d="M496.43,388.51c5.37.93,10.81,2.83,15.82-1.13a160.71,160.71,0,0,0,14.07-12.12l-.07.06c1.57-.38,2.38-1.61,3.19-2.84,2.1-1.5,3.16-3.68,4-6,1.34-1.92,2.78-3.78,4-5.78.22-.4.44-.78.68-1.17.51-1.36.21-2.86.72-4.23.33-3.31.73-6.6,1.27-9.88.23-1.44.37-3.3,2.36-3.22s1.94,1.93,2.19,3.39a10.47,10.47,0,0,1,.06,1.48c0,2-.51,3.91-.63,5.88a9.84,9.84,0,0,1-.2,1.43c-2.71,11.73-8.56,21.44-18.39,28.6a6.14,6.14,0,0,1-1.66,1.25c-3.29,1.06-5.65,3.36-7.79,5.95-1.63,2-4,3.33-5.74,5.19-3.11,1.92-5.77.48-8.41-1.11-5.28-.87-10.56-.09-15.84,0-1.36.34-2.71,1.12-4.12.17-3.33-1-6.21-3.13-9.67-3.83l.09.05c-1.84-1.56-4.15-2.33-6.12-3.67-2.56-.68-4-2.69-5.54-4.59a9.47,9.47,0,0,0-3.1-3.13,5.34,5.34,0,0,1-.93-.91c-.74-1.08-1.59-2.08-2.4-3.12a4.52,4.52,0,0,1-.56-1.25c-.15-1.56.1-2.85,2-3a2.57,2.57,0,0,1,1.24.54c1.16,1.33,2.25,2.72,3.49,4a8.71,8.71,0,0,1,.78,1,9,9,0,0,0,3.52,3.48c.86.69,1.66,1.45,2.5,2.16a33.63,33.63,0,0,0,10.56,6.27C484,389.86,490.23,388.48,496.43,388.51Z" style="fill:#0e0e0e"/><path d="M235.13,346.64c1.39-.46,4.41,1.18,4-1.1-.53-2.94,3.2-7-2-8.75,4.53-3.81,5.58-8.93,2.85-14.7-.73-1.54-3.14-2.8,1-2.64.65,0,1.46-3.28-.56-4.22-3-1.42-2.68-3.19-1.06-5.27,3.42-4.37,3-9.11,2.76-14.35-.13-3.31-3.09-7.43.66-10.69,1-.92-.57-1.26-.61-1.87-.34-4.55-1.48-9.37,3.36-12.55,1.51,1.39,1.19,3.16,1.06,4.9a9.6,9.6,0,0,1-.32,1.41,13.08,13.08,0,0,0-.44,5c0,.78.05,1.55.06,2.33,0,.56,0,1.11,0,1.66-1.72,8.55-.5,17.24-1.26,25.83a5.71,5.71,0,0,1-.06,1.65c-.53,4.65-2.12,9.21-1.16,14a33.78,33.78,0,0,1,.6,4.58c.46,2,1.52,3.8,1.66,5.87a18.79,18.79,0,0,1,.23,3.89c.1,3.37-.39,6.76.58,10.08a8.91,8.91,0,0,1,.22,1.55,8.25,8.25,0,0,1-.4,3.08c-1,2.37-2.53,3.08-4.85,1.82a8.43,8.43,0,0,1-3.38-4.62C237.39,351.07,234.4,349.64,235.13,346.64Z" style="fill:#fafafa"/><path d="M151.53,292.45c.44,3.93.44,3.94,4.43,5.08.92.26.59,1,.55,1.52-.15,2.13-1.34,5.38-2.59,5.16-8.32-1.47-5,5.26-6.09,8.47-1.33,3.87-1.44,8,1.07,11.8-2.28.51-1.6-1.33-3.4-2.44,1.18,7.77-.23,14.85,3.93,21.69-3.63-.1-.77-3.51-3.77-3.36,1,3.21-2.58,7.07,2.11,9.76,1.32.76.65,3.37.35,3.64-5.44,4.87-2.55,11.32-1.37,16,1.09,4.28,2.19,7.2-.64,10.88-.38.49,1.27,2.47,1.86,3.81.68,1.56,1.25,3.41-.29,4.55-.66.49-3.34,2.27-3.06-1.25l-5.32.65c4.87-6.76,4-14.53,3.87-22.16-.22-4.52.54-9.07-.58-13.54-.59-6.48.55-13,.19-19.45a17.89,17.89,0,0,0-.19-3.86c-.51-3.07.61-5.9,1.26-8.82a101.47,101.47,0,0,0,1.68-14.33c1.22-3.16,2.86-6.18,3.14-9.64C149.47,295.09,149,292.68,151.53,292.45Z" style="fill:#fafafa"/><path d="M167.73,148.64c-.43,5.12-2,10-3.51,14.84s-2.87,9.55-2.37,14.62c.4,4.07-2,7.33-3.29,10.82s-2.61,7.23-2.58,11c.05,5.93-4.48,9.8-6.07,14.95-2.54,8.27-5,16.58-7.71,24.79q-8.07,24.39-16.46,48.66c-.79,2.27-2.64,4.17-4,6.25-.37.44-.72.45-1,0a256.44,256.44,0,0,0,14.56-38.7c2.36-8.16,5.29-16.19,7.63-24.37s4.08-17,9.28-24.36A10.07,10.07,0,0,0,154,202c.28-6.76,3-12.79,5.17-19,1.84-5.32-.11-11.26,2.36-16.46C164.29,160.79,163.33,153.8,167.73,148.64Z" style="fill:#c3c3c3"/><path d="M358.53,342.46c1.74-.49,2.06-4.91,5.64-1.52.84.79,5.41-3.39,5.86-7.17.09-.75-.54-2,.45-2.09,4.82-.23,5.4-4.69,7.81-7.34,1.09-1.2,3-1.71,0-2.93-.77-.31.13-1.41,1.1-1.34,1.54.12,1.81,1.72,2.82,2.7,4-6.27-.61-14.16,4.75-19.4-2.18-2.42-2.95,2.71-4.21-.28-.47-1.13-1.88-5,2.51-3,.16.08.77-.38.75-.41-1.7-3.94,2.29-8.48-1.27-12.21a8.83,8.83,0,0,0-.73-.62c4.26-4.92-1.64-8.68-1.49-13.14,0-1.15.07-2.31.1-3.47,2.85,1,2.08,4.24,3.67,6a44.51,44.51,0,0,1,2.18,5c1.58,5,1,10.26,2.08,15.3-.3,3.9-.66,7.75-2.48,11.35-1.93,3.81-1.05,8-1.26,12.06a7,7,0,0,1-1.4,4.43,72.35,72.35,0,0,0-8.24,7.61,29.31,29.31,0,0,0-4.95,5.54,37.25,37.25,0,0,0-3.14,5,6.7,6.7,0,0,1-.92,1c-1.93,1.69-3.68,3.83-6.73,2.57C360.15,345.11,358.19,344.71,358.53,342.46Z" style="fill:#f9f9f9"/><path d="M474.4,258.61c2.19,1.41,4.69,2.4,6.17,4.72,2.12,3.51,3.16,7.47,4.71,11.21a1,1,0,0,1,.22.88c-.64,4.86.57,9.8-.59,14.63-.51,1.74-.54,3.57-1.06,5.31-.65,2.52-.82,5.18-2.33,7.43a2.14,2.14,0,0,1-2.28-.24c-1.11-2.79,1-5.24.84-7.93,2.38-6.73,2-13.72,1.83-20.66-.08-3.49-3-5.4-5.14-7.62-6.88-3.07-10.36,1.67-14,6.1-2.49,3-2.29,7.34-5.07,10.21a1.4,1.4,0,0,1-1.78-.88,4,4,0,0,1-.13-1.49c.35-1.7.6-3.43,1.06-5.11.88-5.42,4.27-9.62,7.43-13.67C466.59,258.59,470.26,256.81,474.4,258.61Z" style="fill:#0f0f0f"/><path d="M500.38,290.37a16.06,16.06,0,0,1,2.92-6.92c1.93-6.36,5-11.9,11.1-15.2,1.29-.08,1.66.81,1.92,1.81a10.88,10.88,0,0,1-1,4.93,6.06,6.06,0,0,1-.68,1.25,26.6,26.6,0,0,0-6.52,10.37,26.69,26.69,0,0,1-2.3,4.36c-2.64,1.77-3.21,4.66-4.16,7.41a21.34,21.34,0,0,1-2.91,5.55c-.84,3.49-.08,6.92.33,10.37-1.09,2.54-2.38,1.06-3.64.19-.47-2-2-3.78-1.07-6,1.2-1.46.22-3.23.67-4.79C497.3,299.44,500.09,295.41,500.38,290.37Z" style="fill:#0a0a0a"/><path d="M102.51,380.62q-1-2.36-2.09-4.73a5.6,5.6,0,0,1-.22-1.35,2.39,2.39,0,0,1,2.15-1.48,5.32,5.32,0,0,1,1.94.66c2.66,1.25,3.13,4.25,4.94,6.18a17,17,0,0,0,2.48,2.24c5.5,1.47,10.87,3.63,16.75,3,2.53-.29,5-.63,5.79-3.62a5.24,5.24,0,0,1,2.42-1.4c1.4-.35,2.85-2.34,4.21.07-.35,2.11-.9,4.18-1.12,6.31-4.43,4.46-9.7,6.22-15.91,4.93-4.63-1.24-9.11-3-13.82-4a4.81,4.81,0,0,1-3-1.89,19.3,19.3,0,0,0-3.59-4C103.1,381.27,102.8,381,102.51,380.62Z" style="fill:#3c3c3c"/><path d="M384.33,324.17l1.05-3.69c1.76-3.79-.71-8.23,1.8-11.9a1.61,1.61,0,0,1,2.72.56,2.17,2.17,0,0,1-.27,1.61c.28.91.55,1.82.82,2.74-1.22,2.6-1.05,5.5-1.36,8.21a10.53,10.53,0,0,1-6.06,8.89,13.17,13.17,0,0,1-3.32,5.23c-3,1.47-4.3,4.71-6.94,6.55a6.87,6.87,0,0,0-2.25,3.13c-3.51,6.88-6.88,7.48-12.24,2.21-1.74-2.32-.69-3,1.69-2.83,4.17,3.5,6.21.24,8.36-2.66l-.12.09c1.78-1.25,2.18-3.35,3.17-5.09.23-3.18,3-4.16,5-5.77C379.44,329.45,381.8,326.72,384.33,324.17Z" style="fill:#171717"/><path d="M515.48,270.54a2.15,2.15,0,0,0-.93-2,.7.7,0,0,1-.37-.71c.06-.27.13-.41.22-.41l0,0a30.58,30.58,0,0,0,9-6.2c2-3.34,5.89-4.74,8-8.11,1.09-1.77,3.22-1.55,4.82-.15s3.64,2.94,4.44,5.26c1.05,2.8-1,3.58-2.77,3.08-4.8-1.38-7.63,1.57-10.95,4S519.76,269.88,515.48,270.54Z" style="fill:#151515"/><path d="M265.35,219.25c.21-1-1.32-1.82-.19-2.86,2.06-2.73-.06-6.08,1.3-8.93v0c1.84-1.59-1.11-4.79,2-5.95a.67.67,0,0,1,.21.73,10,10,0,0,1,1.19,6.3c-.69,2.49-.05,5.07-.55,7.56-.83,3.5.27,7.11-.64,10.6a.42.42,0,0,1,0,.53c1.3,3.26-.1,6.81,1,10.08,1.1,5.31-.57,10.41-1.2,15.59a2.2,2.2,0,0,1-1.28.91c-1.56-.07-.86-1.74-1.67-2.34-.07-.32-.15-.63-.23-.94a121.41,121.41,0,0,0,.22-26.06h0C264.67,222.78,265,221,265.35,219.25Z" style="fill:#474747"/><path d="M201.7,265.37l1,.92c1.92,1.86,4.45,2.85,6.49,4.51,3,2.4,3.34,5.16.47,7.43-1.89,1.49-1.44,3.13-1.69,4.84-1.61,1.46-2-.12-2.57-1.07a6.44,6.44,0,0,0-2.31-3.47c-1.74-2.51-5.31-1.56-7.18-3.82a2.63,2.63,0,0,1,.27-2c2,.32,1.4-1.54,2-2.42,1.28-1.41,1-3.54,2.26-5A1.22,1.22,0,0,1,201.7,265.37Z" style="fill:#0d0d0d"/><path d="M360.52,345.72l-2.34,0,.45,1.72a.62.62,0,0,1-.16,1,25.44,25.44,0,0,1-9.05-10.88c-1.13-4-1.1-8.14-2-12.15-.54-.85-1.29-1.63-1.05-2.78-1.14-3.2-2.52-6.34-1.73-9.92.29-1.34.39-2.61,2.1-2.79.94.08,1.31.77,1.63,1.52l.07,1c-.46,4.65,1,9,2.21,13.35.52.89-.48,2,.49,2.87.48,1.44.26,3.06,1.17,4.39.93,3.87,4.65,5.89,6.21,9.35h0l3,3A.71.71,0,0,1,360.52,345.72Z" style="fill:#5a5a5a"/><path d="M503.24,324.62l-1.76-1.23c-.51-1.48-3.13-2.15-1.71-4.39a3.31,3.31,0,0,1,1.51-.41c7.28,1.4,14.69,2,22,3.41a1.79,1.79,0,0,1,1.42.53,1.53,1.53,0,0,1-.34,1.43c-2.52,2.49-5.74,2.91-9.05,3.09C511.11,327,506.92,327.07,503.24,324.62Z" style="fill:#171717"/><path d="M267.49,253.51a48.45,48.45,0,0,0,1.88-15.84.93.93,0,0,1,.31-1.46,9.91,9.91,0,0,1,.82,6.76c-1.54,8-.44,16.09-1.68,24.07-.29,1.84-1.91,5.37,2.59,5.32a1.58,1.58,0,0,1,.37,1.36c-.92,1.63-2.12,2.72-4.17,2.19-.95-.55-1.06-1.56-1.37-2.48-.12-.35-.09-.61.1-.73-.58,1.11.46,2.28.21,3.48a4.28,4.28,0,0,1-.23,1.37,2.36,2.36,0,0,1-.9,1.05c-2.55-4.2-.17-8.76-1-13.1a63.73,63.73,0,0,0,1.09-14l1.25,2c1.24,3.7.84,7.37,0,10.87C268,260.94,267.3,257.19,267.49,253.51Z" style="fill:#676767"/><path d="M120.69,294.54l1,0c-1.71,3.69-3,7.61-5.2,11-4.63,7.35-5.38,15.87-7.6,23.91-.81,2.92-3.42,5.41-2.48,8.81-1.22,1.47-1.11,3.48-2.08,5.06l0,0c-1.29,2.5-.14,5.67-2.14,8-.78.49-.77,1.26-.77,2-.17.47-.45.56-.83.23.63-7.54,3.63-14.4,5.83-21.52,1.47-4.77,3.16-9.59,3.72-14.73.7-6.33,4.53-11.61,7.23-17.24C118.36,298.17,119.6,296.39,120.69,294.54Z" style="fill:#b2b2b2"/><path d="M457.53,282.5c1.79-3.26,2.07-7.21,4.63-10.12.72.24.85.65.39,1.25-3.49,8.57-4.93,17.89-9.52,26.06a6.83,6.83,0,0,0-1,5.13c1,4.72.22,9.24-3.57,12.77-1.61-1.66-.76-3.36-.12-5.09.95-2.58.91-5.29,1.15-7.93-.51,2.6.73,5.87-3.34,6.83q1.1-5.92,2.17-11.87a3.6,3.6,0,0,1,1-.85c3.18-2.52,4.46-6.11,5.5-9.81C455.5,286.63,456,284.35,457.53,282.5Z" style="fill:#2e2e2e"/><path d="M337.42,278.64c2.85,6,2.91,12.4,3,18.83,2.57,4.79,2,9.14-1.85,13l-1.07.85a3.56,3.56,0,0,1-1.61-2,3.7,3.7,0,0,1,.18-2.6,7.77,7.77,0,0,1,.76-1.11,4.11,4.11,0,0,0,.34-5.5,6.09,6.09,0,0,1-.52-1.3,12.4,12.4,0,0,1-.14-4.21,10.52,10.52,0,0,1,.26-1.36c.59-2.41,1-4.81-.37-7.12a8.22,8.22,0,0,1-1.11-3.92c-.16-1.72-.28-3.46-2.09-4.41a3.32,3.32,0,0,1-1.34-2.86c.11-1.07.06-2.15.08-3.22a2,2,0,0,1,.58-1.13l3.87,4C337.61,275.67,336.74,277.35,337.42,278.64Z" style="fill:#8f8f8f"/><path d="M466.45,382.38l-2-1.91c-1.57-1.14-3.19-2.23-3.85-4.2l.07.09c-1.51-1.51-2.86-3.17-4.27-4.77l-.06-.07c-3.7-.92-2.13,1.57-2,3.12l-.05-.08a12.84,12.84,0,0,1,3,4.12l-.05-.07c.79.28.76.87.59,1.52l-.46.45a9.56,9.56,0,0,1-5.17-5.06c-1-2.24-1.86-5,.48-6.68,1.81-1.26,4.14-2.1,6.06,1.17,4.19,7.16,10.68,12.07,17.73,16.24a1.64,1.64,0,0,1-1.17.74A23.29,23.29,0,0,1,466.45,382.38Z" style="fill:#f6f6f6"/><path d="M338.53,310.49c2.22-4.12,2-8.57,1.85-13,1.5.68,1.51,3,4.22,3.23V289.41c2.5.56,2.14,2.67,2.21,4.37.16,3.64.14,7.28,0,10.92a86.81,86.81,0,0,0-2.25,14.78c-2.67-1.29-.67-4.14-2-6C341.45,312,341.16,309.81,338.53,310.49Z" style="fill:#f8f8f8"/><path d="M205.61,281.33l1.78,2c.64.15.75.84,1.18,1.19q1.52,5,3,9.91c.59,2.71.9,5.48,1.95,8.08l2.09,4.86c-.23,2.56-1.69,1.77-3.09,1.14l-7.11-20.67C205,285.64,204.61,283.47,205.61,281.33Z" style="fill:#585858"/><path d="M240.39,200.7c-3-4-1.73-8.66-1.91-13-.28-6.74.73-13.53-1.33-20.18-.5-1.61-1.28-4.07,1.47-4.37s4.32,1.74,4.49,4.28a85.76,85.76,0,0,1-.22,8.92l-.65.4c-2.36-1.16-1.43-3.42-1.75-5.25a10.57,10.57,0,0,0-.51-1.89c-.14.7.47,1.21.46,1.89,0,.5.06,1,.07,1.5-.21,2.55,1.72,4.77,1.14,7.38a9.11,9.11,0,0,1-.28,1.56c-1.15,3.77-.07,7.44.37,11.16a15.07,15.07,0,0,1-.32,6.33A2.6,2.6,0,0,1,240.39,200.7Z" style="fill:#363636"/><path d="M241.38,227.77c-2.44-5.55-1.61-11.43-1.32-17.16.17-3.3.39-6.6.33-9.91a1.85,1.85,0,0,1,.36-.56,1.23,1.23,0,0,1,1,.39c.26.27.23.53-.1.75.56-.36.39.5.37-.16s-.42-1.49-.49-2.27c-.65-3.49-.06-7-.41-10.51,0-.55,0-1.1,0-1.65.25-3.4-.14-6.86,1.16-10.13a2.11,2.11,0,0,1,.59-.18c2.4,2.51.58,5.44.67,8.13.25,7.7-.12,15.42,1.1,23.08-.37.26-.73.53-1.08.82-1.53,4.37-.3,8.89-.71,13.32C242.68,223.82,243.37,226.12,241.38,227.77Z" style="fill:#424242"/><path d="M446.19,311.4c2.36-2.07,1.42-5.6,3.59-8,2.43,5.06-.73,9.51-1.28,14.17a8.14,8.14,0,0,1,0,1.48c-.31,1.73,1.19,4.73-1.79,4.72-2.69,0-3.38-2.77-3.26-5.25C443.6,315.89,443.76,313.2,446.19,311.4Z" style="fill:#212121"/><path d="M416.51,296.52c.61-1,1.23-2,1.85-3a1,1,0,0,1,1.28-.14,2.86,2.86,0,0,1,.57,1.31c-.19.91-.07,1.92-.75,2.7l-7,25.17c.31,1.16-.3,1.21-1.16,1-1.48-2-.72-4-.32-6.11.35-1.88,1.3-3.76,0-5.65a4.94,4.94,0,0,1-.35-2.15c.28-1.94,1.36-3.61,1.87-5.47C413.31,301.3,415.65,299.3,416.51,296.52Z" style="fill:#2a2a2a"/><path d="M411.47,323.48l1-1c2,1.58.57,3.27.18,4.94-.74,3.19-1.63,6.36-2.14,9.59-.38,2.36-.68,5.31-3.32,5.23-2.81-.09-2.61-3.06-2.78-5.46-.46-6.76,2.39-12.92,3.27-19.42a1.07,1.07,0,0,1,1.36.49c1.5,5.09-1.87,9.68-1.52,14.65-.19,1.29-.8,2.51-.68,3.87.07.66.46,1.05.17.45s.76-.15.17-.47.62-.89.08-.51C408.17,331.56,408.62,327.11,411.47,323.48Z" style="fill:#737373"/><path d="M316.56,333.48c-3.3,4.48-8.39,6-13.21,7.94a2.53,2.53,0,0,1,1.54-2.85c6-3,10.2-8.42,16-11.7,3.3-1.65,5.45-5.24,9.47-5.68.84,3.65,1.47.12,2.05-.14s1.09-1.34,2-.84a1.48,1.48,0,0,1,.53,1.2,1.8,1.8,0,0,1-1.27,1.93c-3,1.45-6.58,1.81-9.17,4.16-.51,2.79-1.77,4.63-5,4A2.92,2.92,0,0,0,316.56,333.48Z" style="fill:#f8f8f8"/><path d="M244.62,283.49l-.11-2c1.22-1.53-.07-3.52.93-5.1l0,.08c1.53-3-.12-6.28,1-9.29v-1.32c-1.05-1.6.69-3.89-1.3-5.25-.61-2.69-2.33-5.15-1.66-8.1a3.1,3.1,0,0,1,2.15-.53,1.27,1.27,0,0,1,.94.52c.85,3.14-.92,6.86,2.14,9.5-.19,2.94,1.85,5.62,1,8.63l.06-.09c-1.69,1.68.17,4.08-1.18,5.84-1.21,1.16-.62,2.73-.93,4.1C246.23,281.12,248.12,285,244.62,283.49Z" style="fill:#5a5a5a"/><path d="M224.64,324.48c2.68,1.78,5.56,3.12,4.19,7.56-.42,1.35,0,4.26,3.77,5,4.75,1,1.5,4.86.87,7.57A2,2,0,0,1,232,345c-5.06-2.62-4.78-7.95-6.28-12.38-.3-2.2-2-3.93-2.11-6.2A2.43,2.43,0,0,1,224.64,324.48Z" style="fill:#fafafa"/><path d="M537.12,324.64c9.63,4.83,11.72,13.07,10,22.8-.72,4-2,8-1.74,12.17A2.45,2.45,0,0,1,543,362.3a19.66,19.66,0,0,1,.56-8.76v0c.37-1.4.19-2.86.56-4.25.53-5.41,1.86-10.88-1.41-15.95C541.24,330.22,536.52,329.12,537.12,324.64Z" style="fill:#f5f5f5"/><path d="M542.29,259.56c2.58.81,1.58,2.64.87,4-.88,1.68-2.87,1.38-3.95.63-4.77-3.3-8.06-1.09-10.91,2.67-1.41,1.86-3.62,2.44-5.44,3.19a11.55,11.55,0,0,0-6.41,6.46c-.81.91-.47,2.58-2,3s-1.81,2.21-2.87,3.17l-.55-.48c-1.09-3.43,2.35-4.38,3.59-6.54l-.1-.06c1.44-4.18,4.1-7.12,8.48-8.25,1.72-.44,2.76-1.75,4-2.83,3.2-2.79,6.54-5.21,11.14-3.34C540,262,541.3,261.12,542.29,259.56Z" style="fill:#f2f2f2"/><path d="M524.39,322.73l-23.91-3.28c-1.93-1.14-1.62-3.2-2-5-.44-3.7-2.7-7.38-.09-11.1a.85.85,0,0,1,1.35.23c-.1.65-.22,1.3-.31,1.95-1.28,9.29,1.83,13.36,11.11,14,6.94.45,13.64,2.72,20.65,2.53a2.88,2.88,0,0,1,2.57,1.25,2.36,2.36,0,0,1-1.19,1,7.18,7.18,0,0,1-3.9.05A12.12,12.12,0,0,1,524.39,322.73Z" style="fill:#434343"/><path d="M425.28,274.27c.06-1-.59-2.26.78-2.95,4.44-5.4,10.62-5.65,16.87-5.71a3.76,3.76,0,0,1,1.48.6c.88,1.43.17,2.51-.76,3.54-1.66.57-3.35.18-5,.11-1.49-.8-2.87-.31-4.24.37-2.9.16-3.9,2.93-5.91,4.31s-.25,2.63-.05,3.95c-1.16,1.14-1.45,3.1-3.34,3.58a2,2,0,0,1-2-.73C422.84,278.67,425.2,276.82,425.28,274.27Z" style="fill:#070707"/><path d="M123.54,390.27c6,.7,11.59-.15,15.94-4.93-.3-1.53,1.11-2.32,1.53-3.55a8.37,8.37,0,0,0,.87-6.22,12.47,12.47,0,0,1,1.38-9.11,1,1,0,0,1,1.27,0c.25,4.09-.27,8.16.17,12.3s-2.59,6.93-5.4,9.57l-1.75,1.15c-5.64,4.48-11.18,4.9-16.19,1.23C121.9,389.74,122.72,390,123.54,390.27Z" style="fill:#505050"/><path d="M543.56,353.54a20.91,20.91,0,0,1-.56,8.76,1.52,1.52,0,0,0-.72,1.74c-3.77,5.61-5.55,12.66-11.9,16.39l0,0c-1.58,1.68-3.1,3.55-5.84,2.28,1.22-3.38,5.15-3.65,7.12-6.44C536.67,369.18,541.19,361.94,543.56,353.54Z" style="fill:#303030"/><path d="M192.54,193.53q1.53-4.53,3.08-9.05c1.29,2.82-.15,5.5-.91,8a32.2,32.2,0,0,0-1.28,10.74,59.32,59.32,0,0,0,0,15.41l0-.05c1.34,4.78.31,9.64.56,14.46-1.54,1.34-1.87-.11-2.43-1-.89-3.78.2-7.69-.79-11.47a8.38,8.38,0,0,1-.61-4.66,31.28,31.28,0,0,0-.38-7.73c1.3-2.32.78-5.14,2.07-7.46.94-.73,0-1.32-.16-1.95C192.61,197.09,191.43,195.12,192.54,193.53Z" style="fill:#777"/><path d="M121.39,390.54c5.54,2,11,2.81,16.16-1-1.86,3.31-4,6.18-8.5,4.68-.13,0-.36.16-.47.11-3-1.42-2.93,2.57-4.77,2.76-3.8.38-.1-4.13-2.64-4.47s-5.85,1.11-6.72-3L115,389A8.41,8.41,0,0,1,121.39,390.54Z" style="fill:#fafafa"/><path d="M532.39,323.7l1.34-.39a.49.49,0,0,1,.68.29c1.68,1.79,3.74,3.27,4.45,5.8a4.77,4.77,0,0,1-2.41,3.44,1.77,1.77,0,0,1-2-.34c-.37-.57-.75-1.14-1.13-1.7-1.49-1.75-3.56-1.16-5.43-1.31s-3.66.13-4.93-1.58c-.71-1.88.21-3.2,1.5-4.39v-.06c.68-.42,1.26,0,1.85.24C528.32,324.46,530.35,325.31,532.39,323.7Z" style="fill:#292929"/><path d="M102.51,380.62a5,5,0,0,0,.67,0c1.47,1.35,2.83,2.82,4.28,4.2.4.86.84,1.66,1.93,1.75,1.6,1.25,4.54-.1,5.32,2.74l-.26.3c-2.24.19-4.38-1-6.78.19-1.74.86-10.69-7.71-10.34-9.68.16-.9,1.1-1.12,2-1C100.57,379.17,100.77,381.45,102.51,380.62Z" style="fill:#fafafa"/><path d="M409.61,282.78a100.94,100.94,0,0,0,4.17-17.3c.17-1.11-.1-2.55,1.45-2.75,1.13-.15,1.6,1,2.07,1.83a58.78,58.78,0,0,0-3.51,17.1c.49,1.84-1.28,3.29-.83,5.12,0,2.05,0,4.1,0,6.14a1,1,0,0,1-1,.89c-2-1.25-1.39-3.58-2.18-5.33C408.78,286.6,410,284.67,409.61,282.78Z" style="fill:#4e4e4e"/><path d="M542.29,259.56c.13,2.38.79,5.21-3.3,2.8-3.37-2-6.53-1.46-9.53,1.15a30.36,30.36,0,0,1-9.11,5.78c-2.86,1.08-4,4.09-5.84,6.3.32-1.69.65-3.37,1-5,5.09-3.72,11.23-5.79,15.88-10.24,1.41-1.36,3.38-.88,5.14-.28s3.62.92,4.06-1.77Z" style="fill:#2a2a2a"/><path d="M201.7,265.37l-1.16.15c-.77,1.9-.76,4.4-3.63,4.69a23.22,23.22,0,0,1-8.31-1.7c-2-1-4-.66-6.13-.52a2.55,2.55,0,0,1-2.26-1.67,1.47,1.47,0,0,1,.6-1.31c2.37-1.16,4.87-.74,7.34-.59a10.32,10.32,0,0,1,1.36.31,20,20,0,0,0,5.15.84l1.2.13c2.46-.82.3-2.8,1-4.05a7.38,7.38,0,0,0-.29-3.95,19.91,19.91,0,0,1,.16-8.17,2,2,0,0,1,1-1.09C198.5,254.22,199.33,260,201.7,265.37Z" style="fill:#626262"/><path d="M523.42,327.5c1.61,1.6,3.65.75,5.5,1s3.56.33,4.38,2.32c-7.95-.07-15.62-2.36-23.5-3a10.52,10.52,0,0,1-6.56-3.19,49.1,49.1,0,0,0,12.17,1.84C518.2,325.84,521,325.17,523.42,327.5Z" style="fill:#474747"/><path d="M193.51,233.53l-.09-15c1.72.66,1.88,1.71,1.51,3.51a37.6,37.6,0,0,0-.34,7.37c0,1.13.17,2.71,1.73,2.38,6.19-1.32,2.91,2.72,2.47,4.61-.34,1.45-2.35,2.31-2.3,4.19a1.86,1.86,0,0,1-2.15.08c-1.19-1.48-1.3-3.31-1.64-5.07A2.89,2.89,0,0,1,193.51,233.53Z" style="fill:#f8f8f8"/><path d="M348.36,311.51l-.92-.9c-1.2-1.61-1-3.46-1-5.29,0-4.85,0-9.71,0-14.56a55.31,55.31,0,0,1-.35-9c.33-1.66-.33-3.87,2.33-4.25A168.8,168.8,0,0,1,348.36,311.51Z" style="fill:#7b7b7b"/><path d="M479.61,302.44l1.77,0c.61,6.13-1.15,11.93-2.49,17.79-.9,1.6-.92,3.4-1.15,5.15a1.15,1.15,0,0,1-1.38.28c-1.44-1.45-.56-3.44-1.18-5.07a2.28,2.28,0,0,1,.1-1.48c1.24-2.08.55-4.47,1.08-6.66C477.85,309.26,477.05,305.3,479.61,302.44Z" style="fill:#222"/><path d="M482.35,393.91c1.13.91,2.1.3,3.07-.31.93-1,2.21-.78,3.23-.57a25,25,0,0,0,11.05,0,2.42,2.42,0,0,1,2.7.63c2.52,1.85,5.15,2.61,8,.8.56.74.74,1.42-.3,1.91-.73.32-1.68,1.11-2.17.89-8.5-3.83-17.5-.93-26.16-2.12-1.77-.24-4.1.51-5.28-1.75C478.52,393,480.55,392.14,482.35,393.91Z" style="fill:#a2a2a2"/><path d="M267.51,173.54a1,1,0,0,1,.11.76c.87,7.68.15,15.39.38,23.07-.07.77.21,1.85-.79,2-1.3.26-1-1.37-1.77-1.86l0,.05c-.93-7.43-.22-14.89-.4-22.33C265,173.66,265.65,172.65,267.51,173.54Z" style="fill:#585858"/><path d="M196.47,274.72c2.32,1.38,5.47,1,7.24,3.51a.88.88,0,0,1-.14,1.17c-8.07-4.69-16.88-4.11-25.65-3.45-1.8.14-3.56.83-5.41.48a1.37,1.37,0,0,1,.1-1.56c1.23-1.44,2.92-1.6,4.64-1.7,4-.09,8,0,11.93-.08a24.61,24.61,0,0,1,5.15.25A3.6,3.6,0,0,1,196.47,274.72Z" style="fill:#707070"/><path d="M478.32,320.46l3.06-18a12,12,0,0,1,2-7.06c.4-.42.76-.36,1.08.1-2.28,9-2,18.56-5.88,27.22A1.65,1.65,0,0,1,478.32,320.46Z" style="fill:#545454"/><path d="M485.21,355.61c-.58-.18-.92-.49-.64-1.15.59-1-.59-3.09,1.83-3a.47.47,0,0,1,.23.63c1.55,1.84,3.43,3.34,5.05,5.11a27,27,0,0,0,4.9,3.14l-.07,0c.81,1.63,4.48,3.17.17,5a5.24,5.24,0,0,1-3.28-1.42C490.52,361.28,488.11,358.21,485.21,355.61Z" style="fill:#0f0f0f"/><path d="M244.71,370.52c.24-3.66-4.38-3.34-5.11-6.22,0-1.27-.07-2.53-.11-3.8,3.22.06,2.09,3.56,3.8,4.82.2.64,0-.11,0-.15-1.09-1.06-.77-2.34-.45-3.61.49-1.1,1-2.16,2.38-2.37,1.1.79,1.68,2.36,3.36,2.3,0,2,0,4,0,6C246.88,368,246.7,370.39,244.71,370.52Z" style="fill:#b2b2b2"/><path d="M510.13,396.36l.3-1.91,5.11-4.74c2.5-2.41,5-4.82,8.33-6.07l.69-.95c2.26.05,3.83-1.68,5.84-2.28-1,4.24-6.19,3.71-8,7-.91.81-1.64,1.89-3,2l-3,2a1.2,1.2,0,0,1-1,1C513.34,393.3,512.51,395.89,510.13,396.36Z" style="fill:#f5f5f5"/><path d="M474.4,258.61c-5.52-.32-9.5,2-12,6.94-1.65,3.25-3.41,6.43-5.12,9.64a.72.72,0,0,1-.7.69l-.5-.27a26.8,26.8,0,0,1,11.16-17.22C469.51,256.75,472.08,256.51,474.4,258.61Z" style="fill:#bdbdbd"/><path d="M208.57,284.5l-1.18-1.19c0-2.38-.44-4.49,2.27-6.35,2.27-1.56.68-4-1.12-5.75s-4.78-2.24-5.85-4.92c4.15,2.16,9.18,3.32,9.9,9.23.16,1.38.68,3-1,3.29C207.89,279.47,208.61,282.11,208.57,284.5Z" style="fill:#5f5f5f"/><path d="M224.58,326.48c.68,2,2.76,3.41,2.21,5.85-.07.2-.14.4-.2.6-.79,1.5,1.13,4.66-2.65,4.33a101.36,101.36,0,0,1-3.9-13.77c.05-1-.19-2.26,1.53-2l.94,1.13C223.69,323.63,223.72,325.28,224.58,326.48Z" style="fill:#5a5a5a"/><path d="M241.38,227.77c.06-6.45.1-12.89.2-19.34,0-.89-.32-2.14,1.08-2.29.27,0,.65,1,1,1.5.14,7.08.76,14.18-.3,21.25a1.93,1.93,0,0,1-2.16-.48A.67.67,0,0,1,241.38,227.77Z" style="fill:#363636"/><path d="M391.58,279.67a56.15,56.15,0,0,1,1,21.37c.3,1.14.74,2.32-1,2.64-1.25-1-1.37-2.37-1.24-3.83a21.22,21.22,0,0,0-.07-5.4c.59-3.41.93-6.81-.9-10-.66-2.88-1.17-5.74.75-8.37C392.7,276.43,392,278.1,391.58,279.67Z" style="fill:#3e3e3e"/><path d="M358.47,348.51c0-.34.11-.69.16-1,5.31,4.3,7.62,3.8,11-2.3.77-1.39,1.1-3.21,3.1-3.55a1.53,1.53,0,0,1-.23,1.89,16.37,16.37,0,0,1-1.16,2.71C366.39,353.91,365.46,355.07,358.47,348.51Z" style="fill:#252525"/><path d="M345.5,305.49c-.94-5.32.62-10.79-.9-16.08v.06a30.09,30.09,0,0,1,0-13c1.53-1.33,1-3.9,2.95-5a3,3,0,0,1,.69,2.85c-2.26,4.69-2,9.6-1.27,14.55.05.81,0,1.61,0,2.41-.05,4.57.11,9.13-.09,13.69A.89.89,0,0,1,345.5,305.49Z" style="fill:#7b7b7b"/><path d="M358.51,342.45c-3.32-2.2-5.25-5.48-6.91-9-1.4-1.42.19-3.51-1.12-4.95,0-.68,0-1.37,0-2.06a2.29,2.29,0,0,1,.16-3c2.18,2.9,1.86,6.53,2.75,9.8.52,1.92,1.45,4,2.92,4.23C360.18,338.07,359.27,340.15,358.51,342.45Z" style="fill:#f9f9f9"/><path d="M241.17,228.41l2.15,0c1,.3.44,1.62,1.31,2l0,0a25.87,25.87,0,0,1,.92,7.53c.09,2.4-.21,4.81.24,7.2-.15,2.44.58,4.92-.22,7.35-.69,1.11-1.4,0-2.1,0a.59.59,0,0,1,0-.77c-.57-6.69-.53-13.43-1.36-20.11-.09-.76.2-1.68-.91-2C240.45,229.23,240.31,228.81,241.17,228.41Z" style="fill:#424242"/><path d="M476.39,265.78c4.56,2.41,6.66,6,6.32,11.34-.39,5.92.29,11.94-2.1,17.61a1.85,1.85,0,0,1-.25-2.47c.33-4,.53-7.93,1-11.87.68-5.46-.29-10.21-5-13.63-.26-.23-.34-.46-.24-.67S476.29,265.78,476.39,265.78Z" style="fill:#4b4b4b"/><path d="M382.54,330.58a16.1,16.1,0,0,0,6.27-13.73,3.63,3.63,0,0,1,1.64-3.36c-.38,4.54-.67,9.1-1.16,13.63-.36,3.24-4.17,1.86-5.53,3.85A1,1,0,0,1,382.54,330.58Z" style="fill:#3e3e3e"/><path d="M534.5,363.63c4.58-7.44,2.89-16.13,4.84-24.1l.77-.29a2,2,0,0,1,1.07,1.2c.18,4.65-1.71,9.11-1.33,13.79-1.34,1.84-.29,4.31-1.59,6.16l0-.07C537.38,361.83,536.75,363.66,534.5,363.63Z" style="fill:#f6f6f6"/><path d="M332.48,270.56c0,.41-.08.82-.11,1.23-4-.32-4-4.88-6.78-6.46a11.79,11.79,0,0,1-3.89-6.9,2.41,2.41,0,0,1,.85-2l2.8,2.18c1.19,1.17,2.1,2.58,3.19,3.84Z" style="fill:#8b8b8b"/><path d="M277.33,266.44c.85-3.18,3.59-4.45,6.06-6a.91.91,0,0,1,1.21-.1c.48,1.56-.68,2.2-1.6,3.07-1.68,1.58,1.2.33.8,1.21.16,4.1-3.52,5.63-5.52,8.29a9.44,9.44,0,0,1-2.83,2.11,2.34,2.34,0,0,1-2-.34c-.6-2.2,1.05-3.35,2.19-4.74.75-.73,1.74-1.26,2-2.41C277.51,267.17,277.43,266.8,277.33,266.44Z" style="fill:#282828"/><path d="M438.38,268.62c1.53,1.2,3.44.44,5.1,1,1.46.19,2.32,1.22,3.17,2.28a3.38,3.38,0,0,1,.47,1.26,1.66,1.66,0,0,1-.86,1.7c-5.32-5.11-9.24-5.35-15.57-1.05a8.71,8.71,0,0,1-2.21.74c1.1-2.72,2.37-5.25,5.93-5.15C435.73,269.13,436.92,268.17,438.38,268.62Z" style="fill:#3d3d3d"/><path d="M411.52,293.48l.85-.05c1.14,3.64.44,7.29,0,10.93a3.24,3.24,0,0,1-.69,1.26c-2.84,2.45-.53,5.29-.58,7.95a2.36,2.36,0,0,1-.66,1.22,1.72,1.72,0,0,1-2-.3c-.17-4.38-.61-8.77.78-13.05,1.62-1.86.07-4.29,1.12-6.25l-.06-1.65A.81.81,0,0,1,411.52,293.48Z" style="fill:#707070"/><path d="M212.53,308.49c1.17,0,2.38.11,3.09-1.14q2.1,5.52,4.19,11a2,2,0,0,1-1.42,1.41C214.8,316.88,214.75,312.13,212.53,308.49Z" style="fill:#606060"/><path d="M330.34,321.19l-8.74,6.47a2.49,2.49,0,0,1-.82-2.68c.78-2.49,3.44-3.28,4.79-5.26,1-1.14,2.06-2.12,3.73-2a2.42,2.42,0,0,1,1.24.73Z" style="fill:#767676"/><path d="M232.5,344.64a1.17,1.17,0,0,1,1,0c.55.66,1.1,1.33,1.66,2,.82,2.28,3.68,3.43,3.48,6.28.17,1,1,2.28-.92,2.55-1.39-3.45-4.2-5.7-6.87-8.07a1.32,1.32,0,0,1-.78-1.46C230.48,344.77,231.79,345.29,232.5,344.64Z" style="fill:#787878"/><path d="M232.5,344.64c-.06,2-1.49.91-2.37,1.05-1.39-.14-1.87-1.32-2.59-2.24l-1.3-1.95c-.88-.9-1.62-1.86-1.06-3.24,1.6-1.62.44-3.74,1-5.55a3.4,3.4,0,0,1,.63-.38C228.74,336.41,228.51,341.5,232.5,344.64Z" style="fill:#676767"/><path d="M265.53,224.51c2.29,5.9.79,12,.9,18,0,2.65,1.09,5.64-1.12,8Q265.41,237.54,265.53,224.51Z" style="fill:#6a6a6a"/><path d="M530.38,380.43c5.1-4.64,7.23-11.43,11.9-16.39C539.56,370.41,538.07,377.67,530.38,380.43Z" style="fill:#f5f5f5"/><path d="M350.45,272.37l-1,1.11c-1.92,0-1.45-1.12-1.08-2.22,0-3,2-5.24,2.81-7.92,1.69-.85.58-3.89,3.15-4a2.33,2.33,0,0,1,.93,1.08c.26,3.12-1.63,5.55-2.61,8.27v-.05C351.26,269.48,351.29,271.17,350.45,272.37Z" style="fill:#2e2e2e"/><path d="M237.69,355.46a3.16,3.16,0,0,0,.92-2.55l3.1,4.49c.78,1.26,2.26,2.17,2,4-.12,1.41-.25,2.81-.38,4.34-2.92-.73-2.14-3.87-3.85-5.2Z" style="fill:#676767"/><path d="M244.63,230.47c-.93-.35-1.13-1.18-1.31-2a98.48,98.48,0,0,1,.31-20.81l1,0-.24,8.93Z" style="fill:#5b5b5b"/><path d="M385.38,276.66c-2.14-1.62-1.41-4.47-2.76-6.43.33-2.2-.38-5.72,2.26-5.89,3.14-.2,4,3.28,4.8,6l-.56.39c-1.2.14-1.8-1.22-3-1.2-1,2,.64,4,.11,6A2.22,2.22,0,0,1,385.38,276.66Z" style="fill:#595959"/><path d="M475.39,386.51l1.09-.26c4.49,3.14,9.52,2.17,14.41,1.76,1.94-.16,3.82-1.21,5.54.5-6.7,2.1-13.39,1.2-20.09,0C475.7,388,474.89,387.56,475.39,386.51Z" style="fill:#b3b3b3"/><path d="M267.51,173.54c-2.77.48-1.92,2.69-1.94,4.32-.11,6.58-.09,13.17-.11,19.75-2.1-4.75-.58-9.76-1-14.64-.3-3.78,0-7.62,0-11.43,1.51-1.21,2.21.08,3,1Z" style="fill:#656565"/><path d="M268.66,226.74l-.05-11.18c1.05-2.27-.14-4.77.74-7.06.48-2.15-1.51-4-.69-6.22,1.71.29,1.89,1.55,1.9,2.95A118.48,118.48,0,0,1,268.66,226.74Z" style="fill:#6c6c6c"/><path d="M225.37,338.62l.87,2.88c-5.33-4.82-5.23-11.68-6.73-17.94.41-.63.71-.59.91.14l4.23,13.8A1.36,1.36,0,0,1,225.37,338.62Z" style="fill:#f4f4f4"/><path d="M476.39,265.78a3.57,3.57,0,0,1-.06,1c-7-2.63-9.93,3.1-13.78,6.87l-.39-1.25a65.29,65.29,0,0,1,5.45-6.68C470.37,263.08,473.45,265,476.39,265.78Z" style="fill:#5c5c5c"/><path d="M475.74,320.55c1.27,1.51.47,3.37.83,5,.84,2,.2,4,0,5.94,0,.56,0,1.11,0,1.67,0,1.56,1.73,3,.42,4.65-2.46.22-3-1.35-3.06-3.32,0-2.26,0-4.52,0-6.78A27,27,0,0,1,475.74,320.55Z" style="fill:#181818"/><path d="M241.13,229.67c2.61,2.39,1.91,5.78,2.23,8.68.49,4.41.07,8.93,0,13.4C241.52,244.51,242.39,237,241.13,229.67Z" style="fill:#5b5b5b"/><path d="M484.27,290.37c.91-4.95-.77-10.1,1.23-14.95,1.6,6.53.6,12.94-.94,19.32C483.56,293.34,483.93,291.85,484.27,290.37Z" style="fill:#282828"/><path d="M474.45,327.47q0,3.25,0,6.49c0,1.87.59,3.27,2.72,3.47a4.34,4.34,0,0,1,2,4.18,2.7,2.7,0,0,1-.74,1.19,1.55,1.55,0,0,1-1.92-.35c-3.82-4.41-3.66-9.66-3.13-15C473.75,327,474.1,327,474.45,327.47Z" style="fill:#222"/><path d="M514.4,267.43c.05.37.09.75.15,1.12-5.6,3.57-8.34,9.29-11.25,14.9C504.19,276.16,508.05,270.94,514.4,267.43Z" style="fill:#2a2a2a"/><path d="M423.64,281.4l1.72,0c1,.95.75,1.94.07,2.94l-1,2.13c-.61,2.16-.77,4.48-2.29,6.31-.85.61-1.08,2.18-2.62,1.74,0-.37,0-.74-.05-1.11C418.52,288.62,422.56,285.53,423.64,281.4Z" style="fill:#232323"/><path d="M177.54,139.55c-4.32-2-6.6-.44-7.31,4.1a3.89,3.89,0,0,1-1.68,2.9,10.75,10.75,0,0,1,1.47-8C172.49,134.43,175.21,137.51,177.54,139.55Z" style="fill:#9e9e9e"/><path d="M526.32,375.26c-3.84,5-8.16,9.5-14.07,12.12C516.64,383,520.87,378.42,526.32,375.26Z" style="fill:#1f1f1f"/><path d="M345.5,305.49l1.08,0c.23-.43.51-.46.84-.1,0,1.75,0,3.5,0,5.25-2.86,2.06-1.68,5.07-1.69,7.73,0,1.44,1.05,2.81.61,4.36-.61-1.07-1.22-2.14-1.82-3.22C344.74,314.81,344.56,310.11,345.5,305.49Z" style="fill:#797979"/><path d="M486.4,351.49l-1.83,3-1.28-1.77c-.35-1.63-2-2.5-2.39-4.14-1.24-1.85-3.44-3.32-2.43-6.07l0,0a1.31,1.31,0,0,1,2,0,.5.5,0,0,1,.22.67c2.26,2.17,3.69,5,5.63,7.38Z" style="fill:#181818"/><path d="M505.34,290.49l2.06-4.08c1.39-1.25,1.46-3.78,3.87-4.07l.3.33c-.59,4.22-2.23,7.77-6.27,9.78A1.59,1.59,0,0,1,505.34,290.49Z" style="fill:#f7f7f7"/><path d="M267.55,198.52q0-12.12.07-24.22c2.2,2.77.83,6,1,9,.28,5.06,0,10.15,0,15.23Q268.08,199.24,267.55,198.52Z" style="fill:#656565"/><path d="M493.51,363.31l2.63,1.35a3,3,0,0,0,4.25-1.09c3.18,1.11,2.12,3.41,1,5s-2.69.11-3.77-.7c-1.8-1.35-3.42-3-5.11-4.45A.64.64,0,0,1,493.51,363.31Z" style="fill:#757575"/><path d="M505.34,290.49l0,2c-3.15,3.08-2.32,8.14-5.59,11.17l-1.35-.23C501.13,299.32,501.08,293.74,505.34,290.49Z" style="fill:#2d2d2d"/><path d="M480.36,292.26c.08.82.17,1.65.25,2.47.28,2.65-1.64,5-1,7.71-1.5,3.21-1,7.06-3.25,10A131.13,131.13,0,0,1,480.36,292.26Z" style="fill:#545454"/><path d="M319.5,331.48c2.94.28,3-3.12,5-4,3.45,3.72-1.47,4.75-2.25,7.55C321.19,333.67,320.34,332.58,319.5,331.48Z" style="fill:#fcfcfc"/><path d="M461.3,382l4.86,4.62q.61.21.48.54c-.09.25-.19.38-.31.38-4.53-.31-6.19-4.33-8.95-6.92l.31-.35C459.48,379.59,460.47,380.6,461.3,382Z" style="fill:#f6f6f6"/><path d="M299.43,251.32c4.55-2.26,8.52-1.16,12.11,2.11.12.21.24.42.37.63a1.57,1.57,0,0,1-1,1,42.29,42.29,0,0,0-11.4-2.4A1.1,1.1,0,0,1,299.43,251.32Z" style="fill:#353535"/><path d="M151.53,292.45c-1.6.87-.38,3.16-2,4-1.49-1.51-1.21-3.33-.93-5.16a10.11,10.11,0,0,1,1.18-2.72c1.65-1.92,3-4.25,5.88-4.61a1.18,1.18,0,0,1,.94.86C155.28,287.62,151,288.44,151.53,292.45Z" style="fill:#a5a5a5"/><path d="M500.38,290.37c1.19,5.43-2.46,9.16-4.69,13.39-.67-.35-.76-.81-.29-1.39Z" style="fill:#2d2d2d"/><path d="M538.3,329.56c-1.3-2-2.59-4-3.89-6l2.71,1c1.23,3.33,4.38,5.14,6.27,7.95a.67.67,0,0,1,.35.7c-.07.26-.15.39-.23.39-2.11.32-3.13-1.44-4.59-2.37A1.65,1.65,0,0,1,538.3,329.56Z" style="fill:#4b4b4b"/><path d="M243.92,381.14c-2,.18-4.1,1.33-5.2-1.16a1.48,1.48,0,0,1,1.12-2.23C242,377.64,243.44,378.72,243.92,381.14Z" style="fill:#fcfcfc"/><path d="M372.51,343.52c.08-.63.15-1.27.23-1.9,2.05-2.24,3.18-5.45,6.58-6.28a.84.84,0,0,1,.29,1.28C377,338.7,375.74,342.11,372.51,343.52Z" style="fill:#656565"/><path d="M100.58,374.43l-.16,1.46c-3.45-5.7-2.47-11.63-1-17.6a.86.86,0,0,1,.28,1.32l0,4.74c1.53,2.69,1.15,5.67,1.29,8.57A2.75,2.75,0,0,1,100.58,374.43Z" style="fill:#3d3d3d"/><path d="M350.62,323.48c-.06,1-.11,2-.16,3-1.6-4.53-3.73-9-2-14Z" style="fill:#707070"/><path d="M311.57,254.44l0-1c4.06-.4,7.93-.14,11,3-.05.7-.1,1.39-.14,2.09A53.11,53.11,0,0,1,311.57,254.44Z" style="fill:#4e4e4e"/><path d="M346.44,288.55a18.5,18.5,0,0,1,1-14.15c.92.42.48,1.58,1.16,2.13l-.12,1c-1.55,1.06-.8,2.72-1.07,4.11C346.24,283.81,347.79,286.38,346.44,288.55Z" style="fill:#5b5b5b"/><path d="M284.57,260.69l-1.18-.25,12-7.12.42.54a3.12,3.12,0,0,1-1.17,2.37,18.17,18.17,0,0,1-8.74,4.74A2,2,0,0,1,284.57,260.69Z" style="fill:#464646"/><path d="M446.46,266.51l1-.06c2.42,3,4.75,6,5.07,10l-.62.27c-1.89-.67-2.19-2.73-3.43-4C447.16,270.88,445.49,269.12,446.46,266.51Z" style="fill:#f4f4f4"/><path d="M391.58,279.67c-.34-1.27,0-2.94-1.87-3.31-2.56-1.61-2.33-3.52-.62-5.6.19-.14.39-.27.59-.4C391.55,273.21,393,276.14,391.58,279.67Z" style="fill:#5c5c5c"/><path d="M193.46,218.61a24.33,24.33,0,0,1,0-15.41Z" style="fill:#f8f8f8"/><path d="M449.42,299.52h-1.06c-2.09-4.49-.2-9.27-1-13.86-.43-.62-.29-1.08.41-1.37,2.66,1.31,2.1,3.87,2.08,6C449.83,293.38,450.63,296.51,449.42,299.52Z" style="fill:#212121"/><path d="M523.34,261.25c-2.35,3-4.46,6.33-9,6.2A37,37,0,0,1,523.34,261.25Z" style="fill:#2a2a2a"/><path d="M485.28,274.54c-2.55-3.32-3.7-7.24-4.71-11.21C484.07,266.26,484.49,270.48,485.28,274.54Z" style="fill:#4b4b4b"/><path d="M480.43,342.49h-2c.28-1.87-.82-3.39-1.26-5.07-.34-1.4-1-2.75-.57-4.24C478.11,336.2,480.28,338.93,480.43,342.49Z" style="fill:#3c3c3c"/><path d="M267.55,198.52h1.05l-.15,3c-2,1.54.28,4.51-2,5.95-.34-3.31-.68-6.63-1-9.94C266.38,197.35,266.22,199.58,267.55,198.52Z" style="fill:#616161"/><path d="M493.51,363.31l-1,.15a28.3,28.3,0,0,1-7.26-7.85C489.05,357,490.67,360.82,493.51,363.31Z" style="fill:#373737"/><path d="M169.52,277.47a20.66,20.66,0,0,1-7.93,4.07,1.66,1.66,0,0,1-.6-1.19,3.29,3.29,0,0,1,2.06-2.54,17.31,17.31,0,0,0,3.52-1.36l.57-.26a2.69,2.69,0,0,1,1.23-.09A1.79,1.79,0,0,1,169.52,277.47Z" style="fill:#afafaf"/><path d="M486.28,350.54c-3.25-1.41-4.3-4.5-5.63-7.38A9.87,9.87,0,0,1,486.28,350.54Z" style="fill:#535353"/><path d="M534.43,332.5l1.84.14.73.06c2.37,1.61,4,3.5,2.61,6.61l-.27.22C538.39,336.71,534.36,336,534.43,332.5Z" style="fill:#f6f6f6"/><path d="M391.5,303.49a2.88,2.88,0,0,0,1.12-2.45c1.18,3.91-.42,7-3,9.71l-.26-1.37C390,307.39,388.46,304.61,391.5,303.49Z" style="fill:#3e3e3e"/><path d="M452.55,276.44c1.87,2.69,2.61.53,3.53-.83a.33.33,0,0,0,.46-.08,3.91,3.91,0,0,1,.12,3.26c-.87,1.49-1.49,3.92-3.75,2.85s-1.89-3.15-.61-5Z" style="fill:#f4f4f4"/><path d="M269.68,236.21c-.11.49-.21,1-.31,1.46-1.68-3.37-.55-6.93-.72-10.4C270.77,230,270.29,233.12,269.68,236.21Z" style="fill:#646464"/><path d="M500.39,363.57c-.29,4.73-2.29,2.83-4.25,1.09,3.84-1.12,0-2.91.37-4.33C498.6,360.46,498.73,362.93,500.39,363.57Z" style="fill:#1f1f1f"/><path d="M347.41,325.48a34,34,0,0,1,2,12.15A24.25,24.25,0,0,1,347.41,325.48Z" style="fill:#707070"/><path d="M482.35,393.91l-5.83-.53-4.22-2.8A18.37,18.37,0,0,1,482.35,393.91Z" style="fill:#131313"/><path d="M498.45,314.49c1.26,1.41,1.56,3.22,2,5l-1,0c-2.27.39-1.68-2.54-3.34-2.86-.88-.51-.83-1.31-.67-2.14C496.46,314.2,497.45,315.63,498.45,314.49Z" style="fill:#2d2d2d"/><path d="M330.54,318.5l-1.21-.11c-1-2,.16-3.31,1.5-4.55a2.77,2.77,0,0,1,2.83-.43,1.43,1.43,0,0,1-.22,2C332.49,316.45,332.38,318.29,330.54,318.5Z" style="fill:#626262"/><path d="M333.44,315.4l-.09-2c0-2.42,1.27-3.66,3.63-3.88l.48,1.85C337,313.57,334.92,314.18,333.44,315.4Z" style="fill:#8c8c8c"/><path d="M344.57,276.52q0,6.48,0,13A16.2,16.2,0,0,1,344.57,276.52Z" style="fill:#f8f8f8"/><path d="M379.61,336.62c-.09-.42-.19-.85-.29-1.28l3.22-4.76,1.22.39C383.14,333.42,382.08,335.54,379.61,336.62Z" style="fill:#a0a0a0"/><path d="M421.42,292.47l3-6c.77,3.3-.56,5.84-2.93,8A1.47,1.47,0,0,1,421.42,292.47Z" style="fill:#474747"/><path d="M352.43,257.4c1-1.5,2.44-1.21,3.15-.06,1.21,1.93,1.76,4.14-.13,6.14-1-1.22,0-2.83-.84-4.07v0A4.87,4.87,0,0,1,352.43,257.4Z" style="fill:#c6c6c6"/><path d="M352.43,257.4c1.23.1,2.26.42,2.17,2-1.68.85-1.34,3.46-3.43,4Z" style="fill:#5b5b5b"/><path d="M354.61,259.41c1.57,1.09.56,2.71.84,4.07-.91,1.74-1,3.94-2.81,5.16C352.6,265.42,354.9,262.69,354.61,259.41Z" style="fill:#5b5b5b"/><path d="M194.72,240.12l1.77.5q.64,3.9,1.27,7.82l-.48,0C193.89,246.46,193.65,243.49,194.72,240.12Z" style="fill:#4d4d4d"/><path d="M425.43,284.37c0-1,0-2-.07-2.94.91-1.11,1.12-2.94,3.07-2.94C428.67,281.08,426.81,282.6,425.43,284.37Z" style="fill:#474747"/><path d="M496.13,316.63c1.94,0,2,2.14,3.34,2.86.45,1.41,2.18,2.17,2,3.9C498.63,322,497.26,319.4,496.13,316.63Z" style="fill:#434343"/><path d="M466.33,387.5a1.94,1.94,0,0,0-.17-.92,6.6,6.6,0,0,1,6.23,4.05l-1.75-.24c-1.69-.52-3.35-1.08-4.25-2.81Z" style="fill:#131313"/><path d="M220.42,323.7l-.91-.14a6.05,6.05,0,0,1-1.12-3.75l1.42-1.41a3.8,3.8,0,0,1,1.76,3.07C220.65,321.94,220.57,322.84,220.42,323.7Z" style="fill:#707070"/><path d="M534.5,363.63l3.8-3.31c-.09,3.25-2.74,4.49-4.84,6.15C533.8,365.52,534.15,364.57,534.5,363.63Z" style="fill:#303030"/><path d="M491.42,357.62c-1.9-1.57-4.12-2.86-4.79-5.5,3,.63,4.14,3.36,6,5.24A.78.78,0,0,1,491.42,357.62Z" style="fill:#373737"/><path d="M203.57,279.4c.05-.39.09-.78.14-1.17a4.63,4.63,0,0,1,1.9,3.1c-.06,2.16-.12,4.33-.19,6.49C204.8,285,204.19,282.21,203.57,279.4Z" style="fill:#5f5f5f"/><path d="M478.47,342.48c.07,2.45,1.95,4,2.93,6-.35.55-.74.58-1.17.08a15.23,15.23,0,0,1-3.69-6.14Z" style="fill:#3c3c3c"/><path d="M246.4,267.19c-.18,3.11,1.18,6.39-1,9.29,0-2,.05-4,.08-6C245.8,269.4,246.1,268.29,246.4,267.19Z" style="fill:#656565"/><path d="M447.73,284.5c-.12.39-.24.78-.37,1.17-1.54-2.94-.75-6.1-.87-9.17a1.08,1.08,0,0,1,1.51.39C449.05,279.46,449.3,282,447.73,284.5Z" style="fill:#3d3d3d"/><path d="M474.45,327.47h-1c.5-2.81.46-5.74,1.87-8.35l.45,1.42Q475.1,324,474.45,327.47Z" style="fill:#363636"/><path d="M447.52,276.51h-1l-.23-1.65c.07-.78.13-1.57.2-2.35,2.81-1.23,2.59,1.38,3.41,2.68a2.05,2.05,0,0,1-.28,1.47A1.6,1.6,0,0,1,447.52,276.51Z" style="fill:#2b2b2b"/><path d="M266.46,207.46c-.38,3,1.5,6.3-1.3,8.93C265.84,213.45,264.71,210.25,266.46,207.46Z" style="fill:#616161"/><path d="M161.42,280.44c.06.37.11.73.17,1.1a10.64,10.64,0,0,1-5,3.29,1.34,1.34,0,0,0,0-.66,1.44,1.44,0,0,1,0-1.31,7.27,7.27,0,0,1,3-2.82A1.83,1.83,0,0,1,161.42,280.44Z" style="fill:#5d5d5d"/><path d="M213.53,302.49c-1.88-2.39-2.21-5.17-1.95-8.08A16.5,16.5,0,0,1,213.53,302.49Z" style="fill:#737373"/><path d="M411.52,293.48l-1.21.06c-.2-1.69-.39-3.37-.59-5.06A6.74,6.74,0,0,1,411.52,293.48Z" style="fill:#727272"/><path d="M519.43,389.48a3,3,0,0,1,3-2C521.49,388.22,523.08,392.75,519.43,389.48Z" style="fill:#f6f6f6"/><path d="M491.42,357.62l1.25-.26a6.89,6.89,0,0,1,3.91,3A6.18,6.18,0,0,1,491.42,357.62Z" style="fill:#1f1f1f"/><path d="M135.78,398.27c-2.23,1.42-3-.23-4.25-.09C132.83,397.06,134,397.49,135.78,398.27Z" style="fill:#fafafa"/><path d="M99.75,359.61l-.28-1.32c.06-1.65,1.61-2.93,1.19-4.7a1.88,1.88,0,0,0,.83-.23C102.19,355.8,101.14,357.75,99.75,359.61Z" style="fill:#292929"/><path d="M476.61,331.52c-1.07-2,.23-4,0-5.94l.7-.27a1,1,0,0,1,.31,1.57A9,9,0,0,1,476.61,331.52Z" style="fill:#363636"/><path d="M466.39,387.58c1.46.87,3.21,1.31,4.25,2.81C468.65,390.33,466.22,390.92,466.39,387.58Z" style="fill:#f6f6f6"/><path d="M348.58,276.53a2.27,2.27,0,0,1-1.16-2.13c0-.94.06-1.89.1-2.84a1,1,0,0,1,.84-.3l1.08,2.22C350.06,274.75,349.4,275.66,348.58,276.53Z" style="fill:#535353"/><path d="M515.44,392.47l1-1c.86.09,1.64.28,1.18,1.42-.23.57-.56,1.37-1.3,1.06C515.9,393.77,515.73,393,515.44,392.47Z" style="fill:#f6f6f6"/><path d="M271.44,273.48l0-1.12c.83-1.16,1.59-2.39,3-2.94.17.18.33.36.5.53C274.75,272.1,273.88,273.56,271.44,273.48Z" style="fill:#232323"/><path d="M267.57,172.52l-3-1c-.09-.82-.15-1.81,1-1.71C267.05,170,267.68,171,267.57,172.52Z" style="fill:#888"/><path d="M495.4,302.37c.1.46.19.92.29,1.39-.56,1.54.5,3.53-1.3,4.73C494,306.32,493.84,304.2,495.4,302.37Z" style="fill:#303030"/><path d="M408.47,314.49l2,0c.55,1.83-.54,2.59-2,3.1a1.29,1.29,0,0,0-.79-.17A2.8,2.8,0,0,1,408.47,314.49Z" style="fill:#161616"/><path d="M277.33,266.44l1.24.16c.35,1.64-1.08,2.19-1.91,3.12a2.08,2.08,0,0,1-1.88.06l-.35-.36A4.94,4.94,0,0,1,277.33,266.44Z" style="fill:#232323"/><path d="M477.58,326.88c-.1-.53-.21-1.05-.31-1.57.39-1.61-.4-3.47,1.05-4.85.1.76.19,1.51.28,2.26A6.38,6.38,0,0,1,477.58,326.88Z" style="fill:#363636"/><path d="M410.37,295.19c-.25,2.1,1.12,4.5-1.12,6.25C409.14,299.27,409.1,297.11,410.37,295.19Z" style="fill:#727272"/><path d="M169.52,277.47l-1.05-.5c-.73-1,0-1.55.73-2.06a2.94,2.94,0,0,1,3.25.54c0,.33,0,.66.06,1Z" style="fill:#363636"/><path d="M421.42,292.47l.05,2a4.85,4.85,0,0,1-2,2.84l0-2.79C420.13,293.85,420.77,293.16,421.42,292.47Z" style="fill:#363636"/><path d="M328.54,262.46a5.23,5.23,0,0,1-3.19-3.84C327.1,259.34,328.42,260.4,328.54,262.46Z" style="fill:#cecece"/><path d="M227.54,343.45l2.59,2.24.69,1.7A4.12,4.12,0,0,1,227.54,343.45Z" style="fill:#f4f4f4"/><path d="M480.23,348.59l1.17-.08c.66,1.38,2.48,2.24,1.89,4.18C482.11,351.44,480.57,350.46,480.23,348.59Z" style="fill:#535353"/><path d="M514.44,279.5l2-3C516.18,277.77,517.13,279.85,514.44,279.5Z" style="fill:#f7f7f7"/><path d="M299.43,251.32c0,.41.07.82.1,1.22l-.36.53c-1.07.76-2.15,1.48-3.51.64l-.31-.39A4.42,4.42,0,0,1,299.43,251.32Z" style="fill:#464646"/><path d="M265.35,219.25l.18,5.25C264.27,222.79,264.56,221,265.35,219.25Z" style="fill:#6a6a6a"/><path d="M529.44,372.48c-.13,2-1.12,3-3.19,2.84A4.77,4.77,0,0,1,529.44,372.48Z" style="fill:#1f1f1f"/><path d="M224.58,326.48a5.25,5.25,0,0,1-2.07-3.88c1.21.06,1.46,1.2,2.13,1.88Z" style="fill:#707070"/><path d="M245.1,260.62c2.43,1.25,1.11,3.43,1.3,5.25C245.24,264.3,245.58,262.35,245.1,260.62Z" style="fill:#606060"/><path d="M337.42,278.64c-1.14-1.17-1-2.67-1.07-4.1C338.1,275.54,338.33,276.94,337.42,278.64Z" style="fill:#f8f8f8"/><path d="M484.27,290.37c.1,1.46.2,2.91.29,4.37a.49.49,0,0,1-.08.76l-1.08-.1C483.68,293.72,483,291.87,484.27,290.37Z" style="fill:#262626"/><path d="M520.82,396.87c.72-.1,1.23.1,1.12.65-.06.32-.61.64-1,.77-.2.08-.54-.24-.82-.38Z" style="fill:#f6f6f6"/><path d="M350.45,272.37c-.16-1.78.22-3.23,2.18-3.78C352.41,270.14,352,271.57,350.45,272.37Z" style="fill:#535353"/><path d="M187.45,176.54l1.85,2.1a31.4,31.4,0,0,1-.36,16.44,18.41,18.41,0,0,0-.92,5.83c.17,3.56-.32,7.16.66,10.68.67,7.88.18,15.86,2.21,23.62a162.37,162.37,0,0,1,4,24.21c.17,1.61,2.07,2.84,2.63,4.61.64,2.05.66,3.37-2.09,2.57l.08,0c-1.82-1.53-4.19.09-6.08-1l.06.05c-5.65-1.13-11.09-3.78-17.19-1.6-1.59.57-3.29.39-5,1.58-2.36,1.68-5.93-.18-6.25-3.51-.41-4.3-2.11-8.94,1.29-12.94.41-.48.82-.78.59-1.63-2.38-8.66,1.33-16.58,3.28-24.67.41-1.7,0-3.73,1.43-5.17,2-.87-.32-2.33.46-3.39a6.52,6.52,0,0,1,.64-1.33c4.94-15.47,5-31.65,7.1-47.53.22-1.73.79-3,2.39-3.3s2.71.89,3.58,2.19C184.35,168.12,184.89,172.79,187.45,176.54Z" style="fill:#fefefe"/><path d="M187.45,176.54c-2.82-.67-2.91-3.33-3.8-5.36-.53-1.19-.62-2.6-1.22-3.75-1-1.83-1.54-4.82-4.09-4.33-2.9.55-1.39,3.58-1.76,5.54-2.44,12.82-.93,26.22-5.58,38.66-.87,2.35,1.49,6-2.61,7.09-2-2.15.94-4,.33-6.13,2.37-8.61,4.56-17.17,4.05-26.32-.24-4.16,1.34-8.44,2.2-12.64.23-1.14.8-2.22.22-3.37-1.2-2.38.24-4.1,1.95-4.91,2.05-1,4.12.52,5,2.25C184.3,167.51,187.13,171.55,187.45,176.54Z" style="fill:#f3f3f3"/><path d="M168.72,208.26c1.54,2.13-1.37,4-.33,6.13l0,0c-.72,1.12.05,2.59-.86,3.67-2.72,8.63-4.3,17.5-5.83,26.4a77.14,77.14,0,0,0-1.12,15.76c.15,4.41,3.11,6.7,7.21,5.27,1.79-.63,3.37-1.3,5.19-.42,1.2,1.27.14,1.86-.75,2.5a11,11,0,0,1-3.05,1.05,19,19,0,0,1-7.08-.21,21,21,0,0,1-5.53-3.91v0c-1.77-2.31-.37-4.18.86-6.06-.42-9.36,3.09-18.12,4.11-27.26C162.46,223,166.21,215.85,168.72,208.26Z" style="fill:#282828"/><path d="M143.47,256.55c-2.83-3.17.19-6.11.8-8.88.81-3.67,4.81-6.35,4.12-10.8.16,0,.37-.1.47,0a6.31,6.31,0,0,1,.7.67,14.11,14.11,0,0,1,3,4l1,2c.73,1,.86,2.32-.1,3.07-2.89,2.27-3,5.53-3.45,8.69-1.47,2.82-3.93.73-5.89,1.18Z" style="fill:#252525"/><path d="M152.58,226.54c-1.58-4.84,3.64-7.72,3.56-12.33,0-1.58,3.43-1.87,4.7-1.07,1.69,1.06-.84,2-1,2.93-.57,3.24-4.16,5.35-2.56,9.65,1,2.8-1.22,6.14-3,8.88-.79,1.2-2,1.05-3.13.81-1.58-.34-.82-1.62-.61-2.41.58-2.18.51-4.58,2-6.45a2.94,2.94,0,0,1,.73,3.16A2.79,2.79,0,0,0,152.58,226.54Z" style="fill:#1e1e1e"/><path d="M137.56,381.47l-3,0c-2.2,1.69-4.31.87-6.43-.19-1-1.06-2.33-1.12-3.6-1.43-1.25-.53-2.35-1.33-3.54-1.95a14.2,14.2,0,0,0-10.77-4.7,2.74,2.74,0,0,1-1.08-.89,2.4,2.4,0,0,1,.71-3.14c1-.41,2.18-.12,3-1,1.38-2.1,1-3.62-1.41-4.53a.9.9,0,0,1,.14-1.21l1-1c3.74-1,6.1.3,7,4.15-1,4.95.93,7.78,7.36,10.69,1.84.42,3.32,1.61,5,2.31,1.52.74,3.26.48,4.8,1.12C137.37,380.12,137.9,380.58,137.56,381.47Z" style="fill:#2f2f2f"/><path d="M118.58,355.46c.12-2.18,1.68-5.44-3-4a2.27,2.27,0,0,1-3,0c-5.35-.06-4-4-4-7a2.57,2.57,0,0,1,1.19-.67c4.37,3.72,9.68,2.84,14.78,3a10.89,10.89,0,0,1,3.88,1.32c1,1.58-1.47,2.19-1,3.63-2.45,1.08-5.74.74-6.82,4.1A2,2,0,0,1,118.58,355.46Z" style="fill:#2b2b2b"/><path d="M133.54,283.49c1.24-3.1,2.74-6.18,2.66-9.6a4.88,4.88,0,0,1,2.25-4.49c2.3-1.74,6.29-.54,7.42-4.29a1.59,1.59,0,0,1,1.74-.75,43.76,43.76,0,0,1,1.45,7.36,6.91,6.91,0,0,1-4.23,6.25c-5.15-1-7,3.61-10.05,6A2,2,0,0,1,133.54,283.49Z" style="fill:#262626"/><path d="M124.42,307.45c1.1-5.45,6.78-7.45,9.06-12,.94-1,1.36-2.29,2.33-3.22.95-2.12,0-4.68,1.48-6.67,1.65-.7,2.1.66,2.8,1.61a22.12,22.12,0,0,1,1.1,4.23,4.18,4.18,0,0,1-.06,1.41c-3,3.88-4.54,8.18-3.81,13.15-2,1-4,1.73-6.26,1.17-2.23-1.53-.37-3,.14-4.52-1.41.59-1.7,1.88-2.2,3-1,1.43-2,2.69-4,2.29Z" style="fill:#494949"/><path d="M193.51,233.53l0,2a1.61,1.61,0,0,1-2.69-1c-.95-3.61-2.54-7-2-11,.49-3.71-1.24-7.44-.71-11.25.25-2.26-1.4-4.69.63-6.79,3.25-.13.61-4.16,3.16-4.76-.42,2.6-.83,5.21-1.24,7.81,1.08,2.62-.17,5.46.74,8.09a2.73,2.73,0,0,0,.29,2.88c1.09,4-.32,8.13.81,12.1Z" style="fill:#212121"/><path d="M148.55,271.51c-2.24-2.07-.78-4.66-1-7-.25-1,.24-1.22,1.09-1.12a.69.69,0,0,1,.23.78c-.1.25-.2.37-.29.37,1.94,5.38,2.69,5.38,8,0,2.39-.21,3.89,1,5,3l.36.58-.34.58a6.58,6.58,0,0,1-2.46-.13c-3.3-.1-2.69,1.38-1.31,3.18-.83,2.24-2.61,3.11-4.81,3.38a14.38,14.38,0,0,1-3.19-1.46C149.06,273.11,148,272.77,148.55,271.51Z" style="fill:#1a1a1a"/><path d="M160.55,203.53c.07-6.49,1.29-12.56,6.15-17.58.51,2.44,1,4.61,1.43,6.78.39,1.8.29,1.58-1.8,2.65s.29,3.91-1.77,5.16c-.88-.76-1.49-1-1.86.51C162.44,202.14,162.52,203.8,160.55,203.53Z" style="fill:#0e0e0e"/><path d="M148.58,264.53l0-1c-3.75-3.16-.81-5.51,1-8-1.66-3.81.72-6.53,2.83-9a4.49,4.49,0,0,0,1.18-3,2.15,2.15,0,0,1,.67,3.08c-2.18,3.12-3.15,5.9-1.73,10C153.17,258.66,151.19,262.5,148.58,264.53Z" style="fill:#121212"/><path d="M111.55,362.44l.06,1.08a3.47,3.47,0,0,1,.88,2,3.4,3.4,0,0,1-.64,2.06c-3,1.78-7,.28-9.69,3.12a4.84,4.84,0,0,1-1.67,2.81c-1.7-2.94-.57-6.12-.79-9.18,1.73,1.65,2.57-.56,3.85-.89,2.34-2.36,4.67.93,7,0Z" style="fill:#292929"/><path d="M113.57,335.5c2.56-1.93,2-4.59,1.81-7.25-.25-3.07.27-5.74,4.27-5.73.4,1-.13,1.83-.59,2.66-3.06,4.44-.11,8.19,1.41,12.1a7.11,7.11,0,0,1-.12,3.52,4.2,4.2,0,0,1-1.17,1.76,2.94,2.94,0,0,1-2,.59,4.47,4.47,0,0,1-1.33-.37c-.81-.44-1.62-.88-1.86-1.89C114.1,339.08,115.56,337.14,113.57,335.5Z" style="fill:#080808"/><path d="M146.55,265.5c-.63,5.61-5,3.33-8.1,3.9,1.15-4.49,5.36-7.78,5-12.85l.12,0c2.35.09,1.66,1.87,1.64,3.12C145.2,261.72,145,263.8,146.55,265.5Z" style="fill:#2c2c2c"/><path d="M118.46,324.41l1.19-1.89c2-4.88,4.12-9.75,4.77-15.07l.22.07Q130,315.17,124,319a2,2,0,0,0-.63,2.12,4.62,4.62,0,0,1-.18,2c-.9,1.76-2.2,2.58-4.2,1.86Z" style="fill:#414141"/><path d="M187.63,201.51c-1.39-4.39,1.65-8.25,1.51-12.53-.12-3.44.09-6.89.16-10.34,3,5.81,1.49,11.74.27,17.59-.36,1.76-1.06,3.45-1,5.3C188.23,202,187.92,202,187.63,201.51Z" style="fill:#212121"/><path d="M160.55,203.53c1.29-.89.8-2.32,1.1-3.52s.46-3,2-2.79.66,2.16.94,3.32h0c-1.38,1.77.64,4.66-2,6h0c-.77,1-1.51,2.17-3,1C157.49,205.59,160.46,204.92,160.55,203.53Z" style="fill:#181818"/><path d="M118.58,355.46h2c2.08-3.23,4.22-.13,6.34-.08,1.26.42,2.25,1.07,2.17,2.6a2.54,2.54,0,0,1-2,1.89c-2.12-.67-4.17,1.54-6.31.16l-.27-.61C121,357.58,119.6,356.61,118.58,355.46Z" style="fill:#1e1e1e"/><path d="M136.53,293.48c-1,.66-2,1.31-3.05,2,.25-2.65,1.76-5.27-.62-7.9a3,3,0,0,1,.68-4.05l1.07,0C136.52,286.6,137.48,289.86,136.53,293.48Z" style="fill:#2a2a2a"/><path d="M152.55,241.51c-1.8-.73-3.4-1.62-3-4,3.19.38,8.2-1.82,6.82,5C155.06,242.49,154.83,237.54,152.55,241.51Z" style="fill:#0e0e0e"/><path d="M118.56,366.47c-.17-3.85-2.83-4.73-6-5,2.75-.31,4.8-3.37,8-2l0,.07a3.22,3.22,0,0,1,.65,2.16C120.53,363.37,121.51,366,118.56,366.47Z" style="fill:#1e1e1e"/><path d="M110.56,363.47c-.3.76.19,3.16-1.26,1.74-1.86-1.83-3.7-1.65-5.75-1.75.76-1.69-.14-3.92,1.92-5.68C106.42,360.53,107.54,363,110.56,363.47Z" style="fill:#1e1e1e"/><path d="M113.57,335.5c6.7.86.69,4,1,5.94a1.29,1.29,0,0,1-1.16.28,27.09,27.09,0,0,1-2.61-1.76l-.35-.53Z" style="fill:#212121"/><path d="M157.44,258.4q-.44,3-.86,6.07c-1.38-.1-2.84-.48-2.65-2.09C154.16,260.43,155.12,258.71,157.44,258.4Z" style="fill:#1b1b1b"/><path d="M187.63,201.51c.3,0,.61,0,.91,0,.05,1.29.09,2.59.14,3.89-.82,2,1,4.11-.17,6.11-.36.45-.73.43-1.09,0C186.07,208.16,187.71,204.85,187.63,201.51Z" style="fill:#3c3c3c"/><path d="M159.54,207.53l3-1c0,1.33,0,2.72-1.32,3.48-1,.57-2.34,1-3.05-.2S159.28,208.43,159.54,207.53Z" style="fill:#0e0e0e"/><path d="M102.26,351.32c1.1-2.56-.26-5.78,2.15-8C104.35,346.18,105.51,349.34,102.26,351.32Z" style="fill:#292929"/><path d="M169.2,164.87c-1.49-.22-1.59-1.24-1.61-2.22,0-.48-.34-1.49.81-1.11a20.92,20.92,0,0,1,2.48,1.2Z" style="fill:#090909"/><path d="M108.28,354.43a1.43,1.43,0,0,1-1.55-1.42c0-.74.45-1.29,1.14-1.14a2.11,2.11,0,0,1,1.85,1.88C109.74,354.62,108.86,354.38,108.28,354.43Z" style="fill:#1c1c1c"/><path d="M109.55,344.48h-1c.45-1.76.69-3.59,1.94-5l.1.08C112.84,341.71,112.66,343.4,109.55,344.48Z" style="fill:#212121"/><path d="M162.56,206.54c1.52-1.72.18-4.39,2-6C163.88,202.53,166.15,205.51,162.56,206.54Z" style="fill:#0e0e0e"/><path d="M104.38,343.38c.07-1.94.26-3.84,2.08-5.06C106.23,340.19,106.08,342.1,104.38,343.38Z" style="fill:#292929"/><path d="M112.55,351.51l3,0C114.59,354.61,113.57,353,112.55,351.51Z" style="fill:#111"/><path d="M192.54,193.53c-.28,1.73.18,3.57-.86,5.18C191.58,196.92,190.82,195,192.54,193.53Z" style="fill:#212121"/><path d="M255.46,361.51c-2.84-2.37-2.46-4.7.07-7,.93-1.88,3.24-1.66,4.52-3,.92-1.2.95-2.78,1.73-4,.6-1,1.63-1.6,2.18-.28,2.3,5.47,5.91,1.87,9,1.43a3.81,3.81,0,0,0,1.65-1c4.08-2.5,7.91-5.44,12.48-7.08,3.23-1,5.8-3,8.36-5.14,1.5-1.22,2.93-2.79,5.23-1.93,1.38,2.33.06,4.13-1.16,5.95-.84,1-2,1.66-2.9,2.64-.66.8-1.09,1.78-1.8,2.56a2.28,2.28,0,0,1-1.17.42c-2.57,2.25-5.69,3.55-8.66,5.09-1.78.94-2.91,2.57-4.28,3.95a2.27,2.27,0,0,1-2.48.54c-2.66-3.1-5.64-.54-8.49-.46-1.79.55-4.86-.82-4.43,3,.88,1.56,3.34,2.59,1.66,5-1.47,2.1-3.48,1.95-5.7,1.63A12,12,0,0,1,255.46,361.51Z" style="fill:#090909"/><path d="M263.41,316.1l1-12.53c.19-2.44.11-4.93.82-7.29.38-1.26.3-3.16,2.57-2.76,1,1.18,1.05,2.64,1.1,4.09-1.14,4.59.1,9.17.08,13.75,0,2.78.31,5.62-.95,8.26-1.18,1.84-1.57,4-2.25,6-.51,1.54-1,3.3-3.26,2.89h0C262.44,324.36,263.17,320.25,263.41,316.1Z" style="fill:#6e6e6e"/><path d="M321.6,324.52v3.14l-18.25,13.76-4.77,2.28a2.38,2.38,0,0,1-.78-1.21,3.25,3.25,0,0,1,.15-1.42c4.07-3,7.72-6.56,12.64-8.21a5.86,5.86,0,0,0,2.84-2.43,9.14,9.14,0,0,1,1.87-2.7C317.46,326.78,319.13,324.87,321.6,324.52Z" style="fill:#585858"/><path d="M243.5,312.49c0-9.38-.52-18.77,1.16-28.08a2.36,2.36,0,0,1,2.84.08c.57,4.08-1.73,7.92-1.06,12-1.86,4.58.18,9.55-1.39,14.18C244.74,311.58,245,312.73,243.5,312.49Z" style="fill:#a3a3a3"/><path d="M243.5,312.49c2.15-4.93.68-10.1,1-15.16.14-2.34.65-2.13,2-.82.4,4.32,1.77,8.57-.54,12.92-.91,1.72,1.42,3.89.7,6.07-1.25.59.06,3.41-1.76,2.82-2.19-.71-2-3-1.48-5.05A1,1,0,0,1,243.5,312.49Z" style="fill:#7f7f7f"/><path d="M248.56,361.49c-3.13,2.53-3.17.27-3.17-2a1.15,1.15,0,0,1-.27-.77c0-.28,0-.41.09-.41.71-1.55,1.36-3.11.38-4.79l-.12-1c-.85-3.62.05-7.38-.87-11,0-1.33,0-2.67-.07-4,.41-.42.58-1,1.08-1.38a.86.86,0,0,1,1,.37,11.93,11.93,0,0,1,1,6,30.06,30.06,0,0,0,.92,11h0c1.07,2.36.22,4.66-.18,7Z" style="fill:#818181"/><path d="M255.46,361.51a47,47,0,0,1,5.18,1.21c2.18.75,4.34,1.12,5.59-1.14,1.45-2.62-2.13-2.48-2.68-4.1.76-.7,1.13-3.51,2.3-1.7,1.93,3,2.74-.26,4-.12a5.46,5.46,0,0,1,4.4.38c.22,3.36-3.33,2.81-4.69,4.53C265.13,366,259.37,366.39,255.46,361.51Z" style="fill:#373737"/><path d="M262.48,328.51c3.62-2,1.47-6.6,4.19-9,.47.49,1,1.11.84,1.74-1.19,5.86-.08,11.88-1.34,17.73a1.42,1.42,0,0,1-1.33.76,2.22,2.22,0,0,1-1.23-1.85,11.16,11.16,0,0,1,.11-3.61,14.79,14.79,0,0,0-.2,2.54c-.07,1.49.3,3,.15,4.42s.33,3.67-2.48,3c0-3.26-.71-6.55.4-9.77C261.89,332.51,262.18,330.51,262.48,328.51Z" style="fill:#717171"/><path d="M246.6,336.47h-1c-1.25-1.11-.5-3.7-2.92-4-.07-1.64-.13-3.27-.2-4.91-.74-2.63-.88-5.12,1.69-7.39,1.6,2,.3,4.39,1.23,6.25C245.94,329.78,247.2,333,246.6,336.47Z" style="fill:#888"/><path d="M267.38,293.49c-1.84,3.11-.75,7.09-3,10.07-1.59-4.34-.18-8.67.06-13a2.65,2.65,0,0,1,3.54.51A1.87,1.87,0,0,1,267.38,293.49Z" style="fill:#6b6b6b"/><path d="M245.37,326.47c-1.53-1.4-.38-3.46-1.19-5.19-2.31,1.77-1.28,4.25-1.72,6.33-1.8-4.91.44-9.57.91-14.34.31,1.53.15,3.23,1.52,4.4l1.72-2.17Q246,321,245.37,326.47Z" style="fill:#9b9b9b"/><path d="M245.54,252.51c-.2-2.29-1.37-4.55-.14-6.87-1-2.28.35-4.84-.84-7.11q0-4,0-8.1c2.74,3.64,1.29,7.85,1.57,11.82.25,3.41.25,6.84.36,10.26Z" style="fill:#5b5b5b"/><path d="M261.59,334.51q0,5,.08,10c1,2.88-.17,5.36-1.37,7.84l-4.77,2.15c5.33-4.94,5.22-11.37,5-17.87C260.52,335.93,261.22,335.22,261.59,334.51Z" style="fill:#c5c5c5"/><path d="M269.59,360.57c.71-2.56,3.7-2.28,5-4.06-.54-1.53.65-1.46,1.54-1.67,1.92.57,3.67.73,5.22-1,1.06-1.2,2.4-2.19,4.2-1.29a6,6,0,0,1-4.83,4.46C276.76,357.56,273.45,359.84,269.59,360.57Z" style="fill:#929292"/><path d="M244.71,370.52c1.49-.75.25-4.93,3.84-3.06a21.34,21.34,0,0,1,0,3.39c-.18,1.27.52,3.34-1.76,3.27S244.58,372.22,244.71,370.52Z" style="fill:#818181"/><path d="M285.59,352.53c-3.35.44-5,5.4-9.24,3.48,0-1.54,1.15-1.42,2.16-1.48l2-1.1c.7-1.21,2.14-1.5,3-2.49,2.13-.52,3.72-2.63,6.2-2.13a1.73,1.73,0,0,1,1,.89C289.25,351.11,287.72,352.37,285.59,352.53Z" style="fill:#565656"/><path d="M267.58,290.56a3.21,3.21,0,0,1-3.15,0c-1.67-2.71-3.93-5.42,0-8.16l.48.43a5.66,5.66,0,0,0,2.93,4.54A2.72,2.72,0,0,1,268,290Z" style="fill:#181818"/><path d="M248.55,353.46c-1.68-3.55-3.22-7.12-.92-11C249,346,248.27,349.79,248.55,353.46Z" style="fill:#999"/><path d="M298.5,342.47l.08,1.23c-2.61,2-4.63,4.82-7.89,6l-.28-.37c0-2.74,2.57-3.41,4-5l0,.06C295.65,343.52,296.09,340.94,298.5,342.47Z" style="fill:#565656"/><path d="M263.41,316.1a38.15,38.15,0,0,1-.92,12.42C260.78,324.24,263.23,320.25,263.41,316.1Z" style="fill:#717171"/><path d="M248.37,360.43c-1.05-2.35.64-4.64.18-7C249.8,355.81,250.14,358.15,248.37,360.43Z" style="fill:#999"/><path d="M249.64,270.64c-.31-2.87-1.67-5.63-1-8.63C249.78,264.8,251.22,267.55,249.64,270.64Z" style="fill:#606060"/><path d="M248.52,276.39c.35-2-.94-4.25,1.18-5.84C249.56,272.54,250.37,274.74,248.52,276.39Z" style="fill:#606060"/><path d="M247.5,284.49l-2.84-.08a1.27,1.27,0,0,1,0-.92c2.14.14,1.57-2.4,3-3Z" style="fill:#656565"/><path d="M265.42,278.6l.39-1c2.36,2.68,2.19,3.4-1.21,5l-.2-.17Z" style="fill:#181818"/><path d="M413.46,281.49c-1.43-4.32.91-14.61,3.84-16.93,5.1,4.79.51,8.23-1.67,12-1.16,1.26-.56,3.21-1.73,4.47Z" style="fill:#232323"/><path d="M411.55,305.46c-.7-4.08,1.32-8,.82-12l.36-6.73c.21-.73.51-.76.88-.1v11.87c1.91.72,1.72-1.65,2.9-2,.37,3.17-2.11,5.29-3,8C413,305,412.65,306.07,411.55,305.46Z" style="fill:#a0a0a0"/><path d="M423.64,281.4c-.18,4.44-4,7.59-4.2,12l-1.08,0c1.83-6.58,3.79-13.1,6.92-19.2C426.32,277,423.49,278.86,423.64,281.4Z" style="fill:#474747"/><path d="M443.49,266.44c-6.41-.53-12.3.82-17.43,4.88,2.38-5.4,7.23-5.75,12.16-5.94C440.06,265.33,442.22,263.68,443.49,266.44Z" style="fill:#232323"/><path d="M449.48,275.5c-1.35-.66-.83-3.19-3-3h0c-1-1.73-2-3.45-1.41-5.57l.5-.54c.3,0,.6.06.9.11l3.07,5.94A2.61,2.61,0,0,1,449.48,275.5Z" style="fill:#3d3d3d"/><path d="M443.49,266.44c-1.52-1.53-3.55-.49-5.27-1.06,2.65-1.08,5.27-2.05,7.34,1l-.4.41a.55.55,0,0,1-.88-.14Z" style="fill:#3d3d3d"/><path d="M413.61,286.6h-.45l-.43.11c-.64-1.86.69-3.45.73-5.21h0c.4-.54.77-.52,1.11.05Z" style="fill:#727272"/><path d="M414.57,281.54l-1.11-.05c.45-1.76.49-3.7,2.17-4.92C416,278.39,415.24,280,414.57,281.54Z" style="fill:#4e4e4e"/><path d="M539.32,354.25q.55-7.35,1.09-14.71c-.34-2-2-4.93,2.45-3.34,3.67,3.45,1.94,7.8,2,11.86a.91.91,0,0,1-1.32.53c-.29-1.82.34-3.81-1.4-6.78-.93,5.72-1.67,10.22-2.4,14.72C538.68,355.93,538.94,355.1,539.32,354.25Z" style="fill:#181818"/><path d="M502.4,393.65c-5.66,0-11.32.85-17,0C488.63,392.21,499.4,392.24,502.4,393.65Z" style="fill:#131313"/><path d="M475.39,386.51l.95,2c-3.93-1-7.47-2.66-9.89-6.11Z" style="fill:#131313"/><path d="M523.87,383.64c-2.7,2.13-5,4.78-8.33,6.07C517.42,386.46,519.69,383.74,523.87,383.64Z" style="fill:#1f1f1f"/><path d="M456.41,371.59c1.76,1.28,3.49,2.6,4.27,4.77A6.42,6.42,0,0,1,456.41,371.59Z" style="fill:#131313"/><path d="M460.61,376.27c1.6,1.11,3.2,2.22,3.85,4.2C462.05,380.1,460.58,378.88,460.61,376.27Z" style="fill:#131313"/><path d="M461.3,382l-3.61-1.73c-.15-.54-.3-1.08-.44-1.62C459.59,378.53,460.83,379.78,461.3,382Z" style="fill:#131313"/><path d="M539.32,354.25c.14.76.27,1.52.4,2.28-.44,1.3.38,3.08-1.46,3.86C538.44,358.31,538,356.13,539.32,354.25Z" style="fill:#303030"/><path d="M454.32,374.64a2.72,2.72,0,0,1-.55-3.88c.87-1.09,2-.53,2.58.76C454.25,371.64,454.56,373.32,454.32,374.64Z" style="fill:#131313"/><path d="M457.3,378.68a6.87,6.87,0,0,1-3-4.12C456.16,375.28,457.49,376.42,457.3,378.68Z" style="fill:#131313"/><path d="M543.52,348.59l.71-.23a.75.75,0,0,1,.32,1.29c0,1.4,0,2.79-1,3.93C542,351.93,543.82,350.25,543.52,348.59Z" style="fill:#393939"/><path d="M244.6,341.48c1.51,3.57,1.24,7.28.87,11C244,348.91,244.88,345.15,244.6,341.48Z" style="fill:#999"/><path d="M245.61,358.49c-.07.32-.14.64-.22,1-.56.63-1.12,1.27-1.67,1.91-.69-1.31-2.63-2-2-4,1.48.56,2.83.69,3.68-1A1.47,1.47,0,0,1,245.61,358.49Z" style="fill:#cdcdcd"/><path d="M242.65,332.52c4.51-1.3,2.29,2.38,2.92,4l-1,1C243.9,335.82,243.28,334.17,242.65,332.52Z" style="fill:#686868"/><path d="M245.44,276.4c0,1.75.73,3.65-.93,5.1A6.28,6.28,0,0,1,245.44,276.4Z" style="fill:#656565"/><path d="M245.61,358.49c-.07-.71-.15-1.41-.22-2.11.06-1,.13-1.93.2-2.9C247.06,355.14,246.89,356.81,245.61,358.49Z" style="fill:#999"/><path d="M146.74,305.57c.69,8.17-2.33,15.86-3,23.85l-.63.27c-2.12-1.71-3-4.39-4.93-6.26-.49-2.19,1.37-3.74,1.56-5.74s3.4-.21,3.21-2.64c.47-1.81.37-3.7.85-5.51.48-1.39.53-3,1.59-4.12A1.16,1.16,0,0,1,146.74,305.57Z" style="fill:#505050"/><path d="M143.7,329.42a87.47,87.47,0,0,1,.14,16.58c-.22,2.14-.18,4.3-.26,6.45.77,1.24.45,2.56.29,3.87-1.4.83-1.75-.31-2.25-1.18-2.19-3.41-1.44-7.07-.83-10.71a7.39,7.39,0,0,1,0-2.1,17.63,17.63,0,0,0,.35-6.1,8.35,8.35,0,0,1-.16-3.3c1.89-.37.69-2.81,2.26-3.4Z" style="fill:#575757"/><path d="M146.74,305.57l-1.2-.1c-1.46-4.54,1.28-8.64,1.34-13,.48-1.27,1-2.43,2.76-1.89q-.07,3-.13,5.91C149.43,299.75,148.87,302.9,146.74,305.57Z" style="fill:#3e3e3e"/><path d="M143.5,356.5c0-1.35.05-2.7.08-4.05,2.62,4.52.57,9.36.95,14h-.48l-.47-.09a2.84,2.84,0,0,1-.94-1.3,17.14,17.14,0,0,1,0-7.27A3.51,3.51,0,0,1,143.5,356.5Z" style="fill:#979797"/><path d="M391.44,293.47q0,3-.11,6.07a.92.92,0,0,1-1.14-.05c-.46-.95.2-2.15-.71-3q-1.11-7.9-2.24-15.81l.64-.39c2,.87.56,3.35,2.07,4.46C391.41,287.5,390.79,290.59,391.44,293.47Z" style="fill:#2e2e2e"/><path d="M389.48,296.5c1.16.72,1,1.9,1,3-.08,3.3.45,6.79-2.88,9.06-2.3,3.68.5,8.32-2.23,11.92C384,312,388.7,304.59,389.48,296.5Z" style="fill:#3e3e3e"/><path d="M384.33,324.17a13.16,13.16,0,0,1-7.92,7.28A41.49,41.49,0,0,1,384.33,324.17Z" style="fill:#323232"/><path d="M360.52,345.72l1.05-.3c3.47,1.49,4.29-2.59,6.76-3.2C366.59,345.32,365.47,349.79,360.52,345.72Z" style="fill:#252525"/><path d="M371.38,337.22c-.14,2.27-.66,4.3-3.17,5.09A10.72,10.72,0,0,1,371.38,337.22Z" style="fill:#252525"/><path d="M385.38,276.66l.27-1.15c2.79.76,3.14,2.52,2,4.88l-.41.3Z" style="fill:#2e2e2e"/><path d="M447.52,276.51l1.85,0a2.41,2.41,0,0,1,.88,1c1.35,1.67-1.2,5.91,3.52,5.33.86-.56,1.28-1.79,2.57-1.67l1.19,1.27c-1,5.89-2.41,11.61-6.26,16.41-.47.58-.86,1.53-1.85.61-1.57-3.13-.65-6.49-.89-9.75-.14-1.78.41-3.66-.8-5.27Z" style="fill:#0e0e0e"/><path d="M456.34,281.23l-1.82,2.47c-1.93,1.93-2.71.41-3.74-1.1s-.38-3.62-1.21-5.26a2.53,2.53,0,0,0-.2-.81c0-.35.08-.69.11-1,0-1,0-2,0-3.05,1.71.87,1.46,3,2.77,4.17.35,1.48-.47,3.64,1.15,4.33,1.77.75,1.5-2.13,2.91-2.53a1.4,1.4,0,0,1,.13,2.08A1.17,1.17,0,0,0,456.34,281.23Z" style="fill:#909090"/><path d="M456.49,280.5c0-.69-.08-1.39-.13-2.08l.18-2.89a2.92,2.92,0,0,1,.74-.34C457.57,277,458.09,278.93,456.49,280.5Z" style="fill:#2e2e2e"/><path d="M511.27,282.34c-1.4,1.26-1.72,3.53-3.87,4.07,1.14-4.44,2.57-8.67,7.21-10.76C514.38,278.32,510.84,279.34,511.27,282.34Z" style="fill:#545454"/><path d="M143.44,365.49a2.43,2.43,0,0,1,.14.92c-.18,3.57-1.6,7-.19,10.76.72,1.88-.15,3.93-1.91,5.3-1.58-.06-1.65-.83-.94-2-1.75-2-1.93.8-3,1-.32-.34-.65-.68-1-1a5.6,5.6,0,0,1-1.47-3.22c-.29-2.81-5.26-2.64-4.07-6.39a1.44,1.44,0,0,1,1-.73c.7.12,1.78.83,1.4-.88a11.34,11.34,0,0,1,0-1.93c.29-2.89,1.53-3.94,4.2-2.12.78.53,1.36,1.52,2.55,1a7.08,7.08,0,0,1,2.17-1.11A1.19,1.19,0,0,1,143.44,365.49Z" style="fill:#434343"/><path d="M128.55,380.47c1.89.94,3.95.94,6,1,1.06,2,1.67,3.54-1.62,4.12-5,.89-10,2-14.84-.73-2.33-1.3-5.86,1-7.52-2.43-.22-1.87,1-2.63,2.3-1.82,3.31,2.08,7.23,0,10.51,1.86.56.32,1.17-.41,1.64-.87C126,380.73,126.85,379.24,128.55,380.47Z" style="fill:#4a4a4a"/><path d="M125.53,382.5c-.12.82-.76,2.14-1.21,1.7-3.48-3.34-8.74,1.16-12-2.88-.55-.66-1.35.39-1.72,1.13l-2-2a2.58,2.58,0,0,1,.33-3.71c3.17-2.13,6-1.84,8.36,1.25,2.06,2.18,5.78.49,7.6,3.23A5,5,0,0,1,125.53,382.5Z" style="fill:#5d5d5d"/><path d="M101.58,370.44c-.38-1.12-1.48-3.18.69-2.72,3.24.67,6.18-.82,9.27-.3.54,1.09-.17,1.59-1,2.05-1.16.72-1,1.89-1,3-2,.84-4.49-.13-6,2l-1-1.07C101.54,372.62,101.59,371.52,101.58,370.44Z" style="fill:#3d3d3d"/><path d="M103.58,374.46c.7-4.52,3.23-3.62,6-2v0c1.4,1.66,1.09,3.33,0,5-1.17.72-1,1.89-1,3C105.85,379.35,106.71,375.24,103.58,374.46Z" style="fill:#4a4a4a"/><path d="M114.71,389.27l-5.32-2.74c5.13-.3,9.48,2.32,14.15,3.74l-2.15.27Z" style="fill:#464646"/><path d="M140.54,380.5c.31.66.62,1.31.94,2,.18,1.55-1.34,1.91-2,2.88C137.47,383.21,139.4,381.94,140.54,380.5Z" style="fill:#202020"/><path d="M101.58,370.44c1.15.72.93,1.87,1,2.95l-2,1-.09-.9C100.61,372.42,100.37,371.17,101.58,370.44Z" style="fill:#161616"/><path d="M107.46,384.78a8.82,8.82,0,0,1-4.28-4.2A6.36,6.36,0,0,1,107.46,384.78Z" style="fill:#3d3d3d"/><path d="M387.61,308.56c2.5-2.53,1.31-6.23,2.88-9.06a7.87,7.87,0,0,1,.84,0c.06,1.32.11,2.64.17,3.95-1.57,1.66-.22,4.36-2.13,5.89A1.58,1.58,0,0,0,387.61,308.56Z" style="fill:#262626"/><path d="M267.49,253.51c1.93,4,.75,7.92-.71,11.82,0-3.95,0-7.89,0-11.84Z" style="fill:#494949"/><path d="M269.35,208.5c-.07,2.37.8,4.84-.74,7.06C268.78,213.2,267.84,210.72,269.35,208.5Z" style="fill:#585858"/><path d="M194.54,274.48l-5-.12c-.76-.52-1.8-.23-2.52-.89a56.83,56.83,0,0,0-3.9-5.49,1.4,1.4,0,0,1,1-.94c1.53.07,3.09-.29,4.57.34l8.67,2c1.09-.37,1.33.13,1.12,1.09-.06,1.28.41,3.1-2,2C196.13,273.44,193.84,272.44,194.54,274.48Z" style="fill:#101010"/><path d="M198.54,270.5l-1.12-1.09a4,4,0,0,0,2.35-3.93c0-.08.25-.25.38-.24s.26.18.39.28C200.11,267.27,201.73,269.85,198.54,270.5Z" style="fill:#1e1e1e"/><path d="M194.54,274.48c-1.12-2.46.76-1.88,2-2,0,.74,0,1.47-.05,2.21Z" style="fill:#030303"/><path d="M350.48,328.54c1.36,1.43,1.06,3.23,1.12,4.95C349.83,332.16,350.64,330.24,350.48,328.54Z" style="fill:#707070"/><path d="M523.42,327.5a21.32,21.32,0,0,0-8-1l9-2.94Z" style="fill:#393939"/><path d="M525.45,324.49l-1-1a6,6,0,0,0,0-.73c1.45-.11,2.92-.39,4.21.63A2.63,2.63,0,0,1,525.45,324.49Z" style="fill:#212121"/><path d="M264.6,282.56c2-1.27,2.6-2.87,1.21-5-.07-.36-.15-.72-.22-1.08.51-.74.88-1.73,2.11-1.21,1.75.42,2.35-1.51,3.74-1.83a5.77,5.77,0,0,0,3.34-3.7l1.73-.28c.3.2.4.41.31.62s-.19.32-.29.32l-2.93,4.25c.31,1.62-.85,2.46-1.79,3.42a7.69,7.69,0,0,0-2.54,4.38c-.17.65-.35,1.29-.47,1.95-.23,1.12-.29,2.33-1.39,3.05C263.24,287.69,263.57,285.32,264.6,282.56Z" style="fill:#151515"/><path d="M267.7,275.31l-2.11,1.21v-4C267.34,272.81,267.34,274.19,267.7,275.31Z" style="fill:#313131"/><path d="M326.4,264.76c3.16,1.35,3,5.55,6,7,.41.89,1.65,1.74.15,2.73a3.42,3.42,0,0,1-2,.92c-5.49-1.74-6.43-6.92-8.5-11.23C323.81,261.57,324.79,265.63,326.4,264.76Z" style="fill:#4e4e4e"/><path d="M330,274.71l2.48-.2c.33,1,.67,2,1,2.95a5.7,5.7,0,0,1,1.76,3.73,3.23,3.23,0,0,1-.44,1.24c-1.25,2.27.31,4.58-.07,6.89-.31,1.85.29,3.9-1.37,5.41a1.38,1.38,0,0,1-1.38-.48c-1.29-5.27-1.4-10.77-3.09-16A3.16,3.16,0,0,1,330,274.71Z" style="fill:#474747"/><path d="M334.46,282.55c0-.36.05-.73.07-1.1a1.14,1.14,0,0,1,1.83.16c.26,1.35-.27,2.91,1,4,1.18,2,.37,4.14.58,6.2-3.28,1.14-2.15-1.89-2.95-3.09a13.51,13.51,0,0,1-.36-1.39C334.7,285.74,334.07,284.16,334.46,282.55Z" style="fill:#515151"/><path d="M337.59,299.42c2.93,2.4,2.26,4.7-.21,6.94C334.92,304,334.9,301.65,337.59,299.42Z" style="fill:#5a5a5a"/><path d="M337,309.49l-3.63,3.88-1.89,1.06c-1.07-.54-1.59-1.49-.66-2.33,2-1.75,3-4.3,5.23-5.82l.61.32Z" style="fill:#262626"/><path d="M336.36,281.61l-1.83-.16c-.34-1.33-.67-2.66-1-4C336.89,277.19,335.71,280,336.36,281.61Z" style="fill:#707070"/><path d="M337.59,299.42a9,9,0,0,0-.21,6.94l-.74.24-.37-.22c-2.79-2.24-2.35-4.59-.23-7a1.31,1.31,0,0,1,1.51.06Z" style="fill:#262626"/><path d="M337.55,299.44a3.46,3.46,0,0,1-.91-.06c-2.7-1.45-2.76-3.22-.63-5.25a1.58,1.58,0,0,1,1.53.41Z" style="fill:#515151"/><path d="M337.48,292.51q-.06-3.45-.1-6.9c1.91,2.56,1.39,5.25.4,8q-.51-.22-.48-.63C337.33,292.66,337.39,292.51,337.48,292.51Z" style="fill:#707070"/><path d="M337.48,292.51l.3,1.06a4.05,4.05,0,0,0-.24,1l-1.09-.09c-2.79-2-2.41-4.43-.91-7C337.3,288.71,335.74,291.24,337.48,292.51Z" style="fill:#262626"/><path d="M241.52,200.55a1.4,1.4,0,0,1-.77-.4c.66-6.23-2.75-12.4-.26-18.65,2.2,1.91-.08,5,1.81,7a41,41,0,0,0,.08,11C242.14,199.84,242.15,200.44,241.52,200.55Z" style="fill:#1f1f1f"/><path d="M242.3,176.56c0,3.66,0,7.33,0,11-3-1.71-.11-4.95-1.81-7-.27-2.75-.53-5.5-.8-8.25.52-.62.09-2.08,1.6-1.84C241.8,172.47,240.84,174.71,242.3,176.56Z" style="fill:#1f1f1f"/><path d="M241.34,170.47l-1.6,1.84c-.77-2-1.69-4-.62-6.47C241.24,166.88,240.15,169.26,241.34,170.47Z" style="fill:#060606"/><path d="M240.54,180.56c2.21,1.92-.13,5,1.81,7a2.33,2.33,0,0,1,0,.91c-1.16.59-1.82.4-1.8-1.07,0-2,0-3.93,0-5.9C240.51,181.19,240.52,180.88,240.54,180.56Z" style="fill:#080808"/><path d="M241.52,200.55l.86-1.11c.1,1.51.21,3,.34,4.81C241,203.14,241.78,201.71,241.52,200.55Z" style="fill:#363636"/><path d="M408.44,317.56c.67-1,1.34-2.07,2-3.1l-.14-.19c1.31-.5,0-2.18,1.24-2.73,2.38.3,1.68,1.71,1.34,3.25-.64,2.86-1.9,5.64-1.43,8.69q-1.49,6.51-3,13c-2.44.1-2.78-1.21-2.13-3.18C405,327.8,408.92,323,408.44,317.56Z" style="fill:#111"/><path d="M411.56,311.54c-.32,1,.26,2.31-1.24,2.73a18.24,18.24,0,0,1-.61-8.68c0-.11.22-.24.35-.25a1.27,1.27,0,0,1,.46.16c1.28,1.06.53,2.58.86,3.85Z" style="fill:#4e4e4e"/><path d="M411.38,309.35c-1.34-1.05-.81-2.51-.86-3.85l1,0,2-.93A9.64,9.64,0,0,1,411.38,309.35Z" style="fill:#787878"/><path d="M406.38,333.32a3.35,3.35,0,0,0,2.13,3.18c0,1.29.25,3.12-1.41,3.17-1.85.06-1.26-1.88-1.38-3.07A4.21,4.21,0,0,1,406.38,333.32Z" style="fill:#202020"/><path d="M544.55,349.65c-.1-.43-.21-.86-.32-1.29a18.53,18.53,0,0,0-1.9-11.83,2.45,2.45,0,0,1,1-3c0-.32,0-.63.07-.94C547.78,338,546,343.84,544.55,349.65Z" style="fill:#5e5e5e"/><path d="M525.45,324.49l3.15-1.13,3.79.34C530.46,327.38,527.9,325.44,525.45,324.49Z" style="fill:#171717"/><path d="M444.28,266.67a1.41,1.41,0,0,1,.88.14,10.41,10.41,0,0,1,1.31,5.7,6,6,0,0,1-3-2.9C443.75,268.63,444,267.65,444.28,266.67Z" style="fill:#232323"/><path d="M438.38,268.62a6.54,6.54,0,0,1-4,.77C435.64,268.68,436.62,266.64,438.38,268.62Z" style="fill:#232323"/><path d="M192.44,231.54c-1.94-3.92-.5-8.07-.81-12.1C193.37,223.38,191.9,227.53,192.44,231.54Z" style="fill:#424242"/><path d="M191.34,216.56c-1.62-2.57-.59-5.38-.74-8.09C192.09,211.05,191.15,213.86,191.34,216.56Z" style="fill:#424242"/><path d="M538.3,329.56l1,1.05c.61,3.11-1.19,2.65-3.07,2.06l0,0Z" style="fill:#232323"/><path d="M173.42,265.35c-2.55-.64-4.79,1-7.29,1-4.18,0-6.25-1.6-6.74-6-1-9.11,1.88-17.63,3.35-26.36,1-5.65,2.07-11.27,4.81-16.41a.57.57,0,0,1,1,0c-1.7,7.62-3.6,15.21-5,22.9-.4,2.2-1.85,5,.88,7,.78.58.76.74-.17,1.58-2.71,2.45-3.77,10.31-2,13.45.71,1.25,1.26,2.79,3.66,2.57,2.85-.27,2.4-2.18,2.76-3.91a2.36,2.36,0,0,0,3.33.16,2.54,2.54,0,0,1,.7-.49c2.69,3.19,6.87-.62,9.89,2.26,1.67,1.58,5.46-1,6.85,2.51l-8.8-.33a17.92,17.92,0,0,1-6.61.18Z" style="fill:#f9f9f9"/><path d="M187.42,211.53h1.09c.51,6.64.25,13.38,2.21,19.83.47,1.54.21,3.86,2.75,4.14,1.31,1.3,1.32,2.95,1.25,4.62.89,2.77.95,5.79,2.56,8.34q.14,5,.26,10c-3.4-1.22-3.67-4.28-3.91-7.13a69.05,69.05,0,0,0-.7-7.88c-.56-1.75-.44-3.74-1.86-5.18-1-.71-.86-2-1.47-3C187.75,227.52,188.05,219.48,187.42,211.53Z" style="fill:#424242"/><path d="M189.6,235.36l1.83,2.2c1.79,2.09,1.33,5,2.54,7.28-.84,6,1.31,11.36,3.44,16.74,1.68,5.24,1.55,5.56-2,5,3.12-.58,1.71-2.88.75-3.56-2.84-2-3-5-3.11-7.72C192.66,248.51,190.86,242,189.6,235.36Z" style="fill:#f9f9f9"/><path d="M183.53,267.53v1c.16,1.16,2.07,1.91.8,3.41-1.85.89-3-.24-4.29-1.33-1.44-1.26-3-2-4.71-.34a2.47,2.47,0,0,1-2,.53c-1.47-1-3-1.93-1.73-4.08.81-.17,1.6-.36,1.83-1.33v0c2.58-.51,5.16-1,7.4,1l1.55,1A.78.78,0,0,1,183.53,267.53Z" style="fill:#090909"/><path d="M197.41,261.58c-4-5-3.53-11-4-16.87-.44-.82-.6-1.6.27-2.27,1.78,4.83-.21,10.4,2.92,15,.27.39.6.74.9,1.11C198.85,259.59,198.75,260.61,197.41,261.58Z" style="fill:#4d4d4d"/><path d="M180.82,266.37c-2.37-1.07-4.94-.6-7.4-1,2.41-.92,4.83-1.89,7.27-.08Z" style="fill:#1e1e1e"/><path d="M183.53,267.53l-1.16-.15c2.13-1.46,4.25-.92,6.38,0Z" style="fill:#1e1e1e"/><path d="M189.43,265.59c2,.2,4.35-1,6.08,1C193.46,266.44,191.31,266.8,189.43,265.59Z" style="fill:#f9f9f9"/><path d="M347.42,305.36a2.23,2.23,0,0,1-.85.1l0-15c.32-.42.63-.43.93,0Q347.45,297.91,347.42,305.36Z" style="fill:#575757"/><path d="M347.47,290.49H347l-.47,0c0-.64-.06-1.28-.1-1.92.52-2.28-.86-4.83.95-6.94Q347.44,286,347.47,290.49Z" style="fill:#464646"/><path d="M172.45,275.45l-2.93,0a5.24,5.24,0,0,1-3.71-2.68c-.67-2.18-4.18-1.54-4.27-4.29l0,0c2.54-1.33,5.16.39,7.71-.18,1.28-.3,2,.43,2.51,1.39a.61.61,0,0,1-.41.74l.93-.14c.94.69,1.54,1.79,2.78,2.05a7.18,7.18,0,0,1,1.15.56c.17.14.32.29.48.43a.84.84,0,0,1-.21,1.12Z" style="fill:#1b1b1b"/><path d="M176.51,274.44c0-.3,0-.6.05-.89,1.43-2.27,2.68-5.3,5.61-1.36,1.73.73,3.88-.36,5.41,1.24l2,.93Z" style="fill:#333"/><path d="M225.37,338.62l-.72-1.12c2.22-1.06-.9-3.8,1.51-4.8C226.51,334.76,227.25,336.87,225.37,338.62Z" style="fill:#2e2e2e"/><path d="M387.65,280.39a7.64,7.64,0,0,0-2-4.88,15.22,15.22,0,0,1-.88-2.81c-.21-1.88-1.42-4.59.47-5.44,2.45-1.11,2.2,2.63,3.85,3.5-.29,1.92-.43,3.83.62,5.6,2,2.53-1.24,5.62.83,8.15a.68.68,0,0,1-1.06,0C387.94,283.56,389,281.45,387.65,280.39Z" style="fill:#1f1f1f"/><path d="M389.48,284.53l1.06,0c1.8,2.84,1.58,5.88.9,9C390,290.67,390.16,287.51,389.48,284.53Z" style="fill:#2c2c2c"/><path d="M244.56,238.53c1.82,2.19.67,4.73.84,7.11C243.81,243.43,244.84,240.9,244.56,238.53Z" style="fill:#5a5a5a"/><path d="M536.24,332.67c1.25-.35,3.07.15,3.07-2.06l4,2.92c.28,1.2-.47,2.06-1,3-3.87-1.07-.8,2.31-1.92,3a2.82,2.82,0,0,0-.8-.23C539.73,336.47,537.55,334.79,536.24,332.67Z" style="fill:#3a3a3a"/><path d="M326.4,264.76c-2,2.14-2.57-1.78-4.26-1a1.7,1.7,0,0,1-1.23-.16,27.83,27.83,0,0,1-2.79-2.64c-2.69-2.14-6.72-1.88-8.86-5,.18-1.26,1.52-.69,2.1-1.33l.21-.18a13.64,13.64,0,0,1,10.84,4.09C324.13,260.36,324.17,263.26,326.4,264.76Z" style="fill:#343434"/><path d="M321.38,263.57a1.79,1.79,0,0,0,.76.16c3.54,3,3.57,8.54,7.9,11-.85,1-.66,2-.14,3.18a37.79,37.79,0,0,1,2.63,16.54c2.22,3.74.29,7.28-1.23,10.33-2,4.09-4.51,8.11-8.2,11.09a35.81,35.81,0,0,0-14.46,10.21,27.35,27.35,0,0,1-8.53,6c-1.61.79-3.43,1.35-4.43,3.06-1.77,3.36-5.44,4.26-8.19,6.36l-12,7c-3.49.63-6.63,3.52-10.52,1.66-.45-3.57-1.91-7.18.52-10.61a79.42,79.42,0,0,1,1.18-20,26.31,26.31,0,0,0,.67-12.23,31.07,31.07,0,0,1,.14-9.82c1.63-5.74-.09-12.05,3-17.53,1.44-2,3.39-3.61,5-5.49l1.94-2c4.79-5.84,11.93-8.49,17.65-13.08a12,12,0,0,1,11.12-2.55C311.67,258.22,317.06,259.65,321.38,263.57Z" style="fill:#fefefe"/><path d="M321.38,263.57c-5.07-1.87-9.9-4.26-15.26-5.46-3.75-.85-6.73-.5-9.7,1.91-3.18,2.58-6.3,5.15-10.64,6-3.55.73-4.08,6.13-8.35,6.39l6.65-7.6c.05-1.1.84-1.61,1.67-2.1,4.8-1.92,8.72-5.34,13.23-7.77a7.17,7.17,0,0,1,1.42-.47,13.29,13.29,0,0,1,5.33.09c4.22,2.84,9.38,3.65,13.68,6.33Z" style="fill:#cbcbcb"/><path d="M285.72,263.81a1.73,1.73,0,0,1-1.64,1l-4,.66c.54-2.88,3.61-2.83,4.47-4.82a3,3,0,0,1,.93-.19c1-.72,1.77-.54,2.29.59C287.87,262.59,286.05,262.63,285.72,263.81Z" style="fill:#111"/><path d="M275.49,274.46c0,2.61-2.4,3.57-3.67,5.31a1,1,0,0,1-.86-.67,1.56,1.56,0,0,1,.53-1.6l2.11-2.81Z" style="fill:silver"/><path d="M276.53,270.44c0-.31,0-.63,0-.94l2.06-2.91C280.17,269.09,277.7,269.42,276.53,270.44Z" style="fill:#111"/><path d="M335.54,287.46c-.06,2.37-.35,4.78.91,7-1.81,1.71-1,3.33.19,4.93-1.57,2.26-1.35,4.61-.36,7-.13,3.57-4.79,4.43-4.82,8.05l-2.13,4a3.81,3.81,0,0,0-3,1.91c-2.94,2.24-6.14,4.08-9.27,6-2.86,1.22-4,4.34-6.45,6-3.29,2.68-7.51,4.06-10.37,7.37-.44.51-1.22.31-1.77-.17.82-1.92,2.25-3.63,2-5.92.67-.83,1.82-1.11,2.42-2a4.56,4.56,0,0,1,.93-.88c1.74-1.15,4-1.64,4.82-3.94,3.24-5.82,8.86-8.6,14.5-11.37,3.22-2.61,4.89-6.49,7.64-9.48a13,13,0,0,0,2.3-8.84,5.85,5.85,0,0,1,.38-1.42c.88-1.88.35-3.89.54-5.83.1-1-.5-2.53,1.5-2.33Z" style="fill:#0c0c0c"/><path d="M316.49,325.48l9.88-5.18c-.68,2.43-3.29,2.69-4.77,4.22-1,2.94-3.9,2.89-6.09,4C314.37,327,315.55,326.28,316.49,325.48Z" style="fill:#505050"/><path d="M311.36,254.62c-.37.82-1.13.82-1.86.87-2.34.41-4.38-1.93-6.81-.71a2.3,2.3,0,0,1-1.3,0c-.94-.49-2.35-.6-1.84-2.26h0C303.91,250.75,307.69,252.34,311.36,254.62Z" style="fill:#0c0c0c"/><path d="M149.64,290.55a3.33,3.33,0,0,0-2.17,1.87c-1.37,1.75-1.54,4-2.5,5.93-1.54.73-3,1.86-4.88.88a4.36,4.36,0,0,1,.41-4.59c2.2-1.62,0-3.59.42-5.36a35.46,35.46,0,0,1,1-4.44,14,14,0,0,0,2-4,4.23,4.23,0,0,1,.74-1.08c1.88-2.22,5.52-1.66,7-4.47a2.74,2.74,0,0,1,1.06-.78l4.9-3c.84-.29,1.29.2,1.67.84a11.72,11.72,0,0,1,.66,2.67,4.57,4.57,0,0,1-1.82,5.86,11.28,11.28,0,0,1-1.45,1.4c-2.54,1.59-6.15,2.16-6,6.33C150.33,289.26,150,289.9,149.64,290.55Z" style="fill:#080808"/><path d="M150.67,288.62c-3.09-3-.13-4.43,1.79-5.8,1.11-.79,2.71-.9,4.09-1.32a1.25,1.25,0,0,1,0,1.94,2.23,2.23,0,0,0,0,.73C154,284.81,152.64,287.15,150.67,288.62Z" style="fill:#353535"/><path d="M287.44,261.42a2.09,2.09,0,0,0-1.94-.92l9-5a2.21,2.21,0,0,1,.67,1.33C293.68,260.15,290.59,260.83,287.44,261.42Z" style="fill:#282828"/><path d="M294.52,256.52c0-.35,0-.7,0-1.06l1.15-1.75,3.89-1.18,2.07,1.88c-.43.83-1.67.34-2,1.26l.05,0C297.89,255.71,296.46,257.57,294.52,256.52Z" style="fill:#353535"/><path d="M157.48,280.46c.53-1.58,3.25-2.67,1.11-4.87,4.71-2.33,6.93-2,9.25,1.23l-.1.22a7,7,0,0,0-4.19,1.48l-2.13,1.92-1.8.14A1.55,1.55,0,0,1,157.48,280.46Z" style="fill:#363636"/><path d="M167.84,276.82c-2.81-2.44-6.17-.79-9.25-1.23,0-1,0-2.08,0-3.13,2.66-1.13,5.31-.44,8,0l3,3L168.47,277l-.36.1Z" style="fill:#0d0d0d"/><path d="M163.55,278.52c.92-1.82,2.27-2.44,4.19-1.48A5.11,5.11,0,0,1,163.55,278.52Z" style="fill:#434343"/><path d="M157.48,280.46l2.14.11a6.4,6.4,0,0,1-3.11,2.88c0-.65,0-1.3,0-1.95Z" style="fill:#434343"/><path d="M168.56,217.56l-1,0c0-1.14-.19-2.31.86-3.15C166.64,215.52,173.06,216.28,168.56,217.56Z" style="fill:#f3f3f3"/><path d="M171.55,270.5a3.43,3.43,0,0,0-2-2,.59.59,0,0,1-.25-.66q.1-.33.24-.33l2.05-.85c-.16,1.68,1.45,2.47,1.95,3.82.86.87,2.54,1.17,2,3-2.59.71-2.82-1.79-4-3Z" style="fill:#101010"/><path d="M169.54,267.53c0,.33,0,.66,0,1-2.67,2-5.31-1-8,0,0-.33,0-.66,0-1Z" style="fill:#090909"/><path d="M146.55,265.5c-4.12-.18-2.22-3.5-2.6-5.44-.21-1.09,1.09-2.44-.36-3.55.09-1.53.74-2.14,2.24-1.33,1.18.63,2.38,1.19,3.7.35.09,2.71-3.42,5-1,8l-1,1Z" style="fill:#333"/><path d="M148.28,249a3.28,3.28,0,0,1-2.09,3.94c-.17.09-1-.54-1-.76C145.43,250.55,146.65,249.78,148.28,249Z" style="fill:#2f2f2f"/><path d="M152.58,226.54c4.2,2.18.6,4.28-.43,6.41l.42-6.4Z" style="fill:#2d2d2d"/><path d="M118.56,366.47c1.87-1.16.08-3.78,2-4.94a17.15,17.15,0,0,0,3.79,0A3.92,3.92,0,0,1,128,364c.55,1.18.6,2.53,1.18,3.71a19.43,19.43,0,0,1,.9,1.76,4.09,4.09,0,0,1,.22,1.34,3.27,3.27,0,0,1-.42,1.29c-1,1.06-2.12.42-3.38.05-.11,1.78,2.85,3.63,0,5.27-4.42-.38-5.79-4.84-9.07-6.86C115.48,369.35,118.17,367.89,118.56,366.47Z" style="fill:#070707"/><path d="M109.56,377.47v-5c5-.62,9.26.29,12,5-.06.23-.11.45-.17.69-1.25,1.75-2.83,2.34-4.85,1.32C115,376,112.55,375.84,109.56,377.47Z" style="fill:#484848"/><path d="M126.53,377.43c1.61-3.25-2.84-4.46-2.51-7.42,2.24-.88,3.24,3.09,5.58,1.44,2.65,1.54,2.37,4.51,3.34,6.87-.12.79-.3,1.51-1.38,1.15Z" style="fill:#1c1c1c"/><path d="M111.61,365.47v-2c4.45-.45,4.55-.16,2,6C112.13,368.53,113.09,366.4,111.61,365.47Z" style="fill:#3d3d3d"/><path d="M131.56,379.47l1-1c1-1.41,2.08-2.51,4-2,0,1.33,0,2.65,0,4C134.89,380.23,133,381.13,131.56,379.47Z" style="fill:#2b2b2b"/><path d="M111.61,365.47c3.8-.2,1.08,2.78,2,4a2.6,2.6,0,0,1-3,0c.33-.68.65-1.37,1-2.05C111.56,366.77,111.58,366.12,111.61,365.47Z" style="fill:#404040"/><path d="M125.53,382.5l-1,0a3.17,3.17,0,0,1-.46-2.52l.46-.48c1.41,0,3.19-1.43,4,1C127,380.31,126.58,381.89,125.53,382.5Z" style="fill:#434343"/><path d="M121.57,377.46a3.13,3.13,0,0,1,3,2h0c-1.79.52-3.79,1.36-3-2Z" style="fill:#484848"/><path d="M127.52,351.5c-1.07-1.52.38-2.1,1.1-3,1.19-3.12,3.16-6.07,2.18-9.69,1.86-3.6,3.6-1.28,5.36.11,2.3,3-.13,6.68,1.5,9.77.28,2.86,0,5.4-3.57,5.94-2.64.53-4.94.13-6.4-2.46C127.63,352,127.58,351.74,127.52,351.5Z" style="fill:#090909"/><path d="M109.55,344.48c2.41-1.23,1.32-3.18,1-5,1.46-.05,2.88,0,3,2,.69,1.28,2.21,0,3,1h0c.72,2,1.32.6,1.94-.07l1-1.08.51.39c.75,1,.5,2.44,1.54,3.29.57.23,1.16.41,1.75.6.8.38,1.68.71,1.27,1.89-3.35.91-6.79,0-10.14.45C111.55,348.33,112,344.4,109.55,344.48Z" style="fill:#333"/><path d="M124.54,347.49a2.1,2.1,0,0,0-2-1.05c-1-1.84.13-2.6,1.62-2.45a15.19,15.19,0,0,1,4.77.74c-1.14-.74-2.92-.05-3.46-1.91,2.53-.12,1.31-1.84,1.3-3.05a3,3,0,0,1,.49-1.26c1.11-.76,2.18-.29,3.26.11a8.49,8.49,0,0,1,1,.85c1.92,4,.08,6.71-2.95,9.07C127.23,348.29,125.61,349,124.54,347.49Z" style="fill:#484848"/><path d="M126.53,356.45c-2.17.8-3.59-3-6-1-.12-5.6,4-3.72,7-4h0C128.28,353.36,128.79,355.19,126.53,356.45Z" style="fill:#393939"/><path d="M136.53,293.48c.35-3.51-2.53-6.4-1.92-10,.48-.41,1.34-.78,1.4-1.25.69-5.55,4.46-5.41,8.54-4.77,1.95.92,1.95,1,0,3h0c-1.13.8.1,2.76-1.61,3.28a1.51,1.51,0,0,1-1-.72c-.25-.31-.08-.91-.67-1a1.61,1.61,0,0,1-.08.94,2.7,2.7,0,0,1-.75,1c-.86.72-2.06.74-2.89,1.5C137.09,288.14,138.6,291,136.53,293.48Z" style="fill:#3c3c3c"/><path d="M144.57,280.53c.24-1,1.57-2,0-3a19.83,19.83,0,0,0,4-6,2.11,2.11,0,0,0,2,1c-.22,1.55.66,2.38,1.91,3C151.47,279.72,147.19,278.83,144.57,280.53Z" style="fill:#2c2c2c"/><path d="M139.35,275.94c2-1.22,0-4.77,2.89-5.16.95-.13,1.24.89,1.24,1.76C143.5,275.15,141.4,275.48,139.35,275.94Z" style="fill:#171717"/><path d="M122.56,318.49c6.42-2.57,2.3-7.14,2.08-11,1.69.06,2.55-1.46,3.91-2a2.33,2.33,0,0,1,2,1l7-1c.93-.29,1.28.25,1.48,1a2.12,2.12,0,0,1-.48,1.3,5.55,5.55,0,0,1-2.61.9c-1.58.22-2.94.71-3.17,2.59-1.24,2.82-.15,5.7-.25,8.56C128.82,322.18,125.71,320.24,122.56,318.49Z" style="fill:#4c4c4c"/><path d="M138.67,306.62l-1.11-1.13c-2-.91-3.06-2.39-1.68-4.38,1.89-2.71.39-7.24,4.67-8.61,1.85-.08,1.6.91,1,2.05a7.81,7.81,0,0,0-1.08,4.95,2.42,2.42,0,0,1,.75,2.49C140,303.31,141.12,306,138.67,306.62Z" style="fill:#3c3c3c"/><path d="M130.56,306.49a2.08,2.08,0,0,1-2-1c-.53-4.17,2-4.75,5.62-4.81C133.65,303.36,130.26,303.84,130.56,306.49Z" style="fill:#565656"/><path d="M142.64,284.58c-.42,1.63.54,3.55-1,4.95-.76.45-.34,1.54-1.09,2-1.41-1.08-.84-2.63-1-4,.37-1.33-.16-2.89,1-4v0a1.34,1.34,0,0,1,2,0l.06,0c.32.23.44.45.34.69S142.75,284.58,142.64,284.58Z" style="fill:#3c3c3c"/><path d="M140.56,283.49c0,1.42,1.4,3.19-1,4l-2-2C137.63,283.45,139.11,283.48,140.56,283.49Z" style="fill:#4e4e4e"/><path d="M140.53,291.52a2,2,0,0,1,1.09-2c-.78,1.67,3.4,3.36,0,5a2.25,2.25,0,0,0-1-2.05C140.55,292.17,140.54,291.84,140.53,291.52Z" style="fill:#2d2d2d"/><path d="M166.54,272.49c-2.67,1.84-5.32.73-8,0l-1-.94c-1.45-.13-3.3.12-2.76-2.27.36-1.61,1.14-1.7,3-1.68a10.13,10.13,0,0,1,3.73.94C162.92,270.21,166.68,268.9,166.54,272.49Z" style="fill:#282828"/><path d="M152.46,275.47c-1.21,0-3.1.53-3.51,0-1-1.42,1.12-1.87,1.6-2.94a3.78,3.78,0,0,1,2.12,2.05Z" style="fill:#373737"/><path d="M127.6,338.42l0,1.07c-2.52-1.11-5.76.57-7.89-2.05-2.41-4.16-5.57-8.25-1.2-13l.14.12c1.81,2.12-.58,5,1.33,7.09,0-.17.29,1,.2-.07a6.64,6.64,0,0,0-.32-.95c1.57-3.51,2-3.51,5.57,0A14.27,14.27,0,0,1,127.6,338.42Z" style="fill:#414141"/><path d="M119.66,337.44c2.49,1.24,6-1.44,7.89,2.05.31,1.64.92,3.47-2,3l-.61-.17c-1.62-1.45-3.64-.08-5.37-.74l-.12-.22C119.53,340,119.6,338.73,119.66,337.44Z" style="fill:#292929"/><path d="M118.51,342.4c0,1.24.32,2.71-1.51,3a4.73,4.73,0,0,1-1.65-.42c.41-.82.82-1.65,1.22-2.47Z" style="fill:#2b2b2b"/><path d="M116.57,342.47c-1.23-.36-2.35,1.58-3.57.17-.11-.13.36-.76.56-1.16l1,0A2.14,2.14,0,0,1,116.57,342.47Z" style="fill:#2b2b2b"/><path d="M124.6,331.47c-1.33-.52-1.29-3-3.19-2.49-1.17.28-.74,1.6-.85,2.51.31,1-.12,1.2-1,1-3.58-2.26-.91-5.28-1-8,1.69,0,3.22-.24,4-2,1.06-.69,2.09-.14,3.14,0a13.62,13.62,0,0,0,3.82.3,2.63,2.63,0,0,1,1.2.54,2,2,0,0,1,.15,1.28c-1,1.67-2,3.32-3.07,5C126.75,330.24,125.48,330.52,124.6,331.47Z" style="fill:#464646"/><path d="M129.54,323.48a3.19,3.19,0,0,1-4,0,9.76,9.76,0,0,1-3-3c-1-.68-1-1.36,0-2,3.42-.55,6.49,2.4,10,1a.87.87,0,0,1,1.17,0,2.27,2.27,0,0,1-.9,2.32C131.87,322.65,130.38,322.42,129.54,323.48Z" style="fill:#5c5c5c"/><path d="M122.54,320.51a6.12,6.12,0,0,1,3,3l-3-1Z" style="fill:#4c4c4c"/><path d="M126.53,356.45c1.42-1.43,0-3.44,1-5,1.77.43,2.48,3.53,5,2a1.67,1.67,0,0,1,.55,1.1c-.11,1.38-1.07,2.27-1.87,3.25a6,6,0,0,1-1.85,1.7c-.68,0-1.26-.15-.86-1.06A1.85,1.85,0,0,0,126.53,356.45Z" style="fill:#262626"/><path d="M128.54,358.49l1,1,.65.2c2.73,3.57,0,4.13-2.63,4.78-1.08-1.15-2.1-2.42-4-2.07-.17-2.17,1.49-2.48,3-2.95Z" style="fill:#1a1a1a"/><path d="M126.55,359.47c-.43,1.57-2.21,1.76-3,2.95-1.34.83-2.39.65-3-.89l.06-2C122.57,360.66,124.55,356.66,126.55,359.47Z" style="fill:#262626"/><path d="M265.69,350.41c3.33-.36,6.36-2.2,9.8-2-2.57,2.81-6.2,2.61-9.49,3.08-2.81.4-2.37-2.31-2.72-4.44-1.27,2-.66,4.48-3,5.28q.69-3.92,1.37-7.84c1.8-2.77.43-5.88.95-8.79,2.05-.84,1,1.5,1.85,1.83,0,.63.09,1.27.13,1.9C265.91,343,263.89,346.9,265.69,350.41Z" style="fill:#424242"/><path d="M278.51,354.53,276.35,356l-1.72.5-5.1,0c-2.65-1-1.54-2,0-3a54.21,54.21,0,0,1,5.43-1.84C277.19,351.11,278.79,351.78,278.51,354.53Z" style="fill:#262626"/><path d="M298.51,339.49c3.46-3.46,8-5.32,11.95-8.05l.63.25a1.47,1.47,0,0,1,.48,1.79c-5,1.58-8.27,6.06-13.11,7.93a2.18,2.18,0,0,1-2.81.19C296.18,340.32,297.5,340.11,298.51,339.49Z" style="fill:#2a2a2a"/><path d="M294.45,344.37l-4,5c-2.61-.3-4.19,2.65-6.85,2.16-.7-1.14.41-1.45.93-2,2-2.55,6.19-2.08,7.4-6.07C292.49,341.43,293,345.58,294.45,344.37Z" style="fill:#4c4c4c"/><path d="M303.42,331.39c.68,2.94-1.29,2.34-2.92,2.18-4.85,1.79-7.52,7.17-13,7.9,1.76-2.9,6-3.17,7.11-6.77C297.23,332.78,299.86,330.84,303.42,331.39Z" style="fill:#2a2a2a"/><path d="M269.52,353.46c-.29,1-1.59,2,0,3-1,1-2,2.36-3.42.29-1.27-1.82-1.68.51-2.56.7C263.18,352.64,266.22,352.85,269.52,353.46Z" style="fill:#272727"/><path d="M284.49,349.47l-.93,2a5.61,5.61,0,0,1-3.07,1.94A5.41,5.41,0,0,1,284.49,349.47Z" style="fill:#1d1d1d"/><path d="M295.65,341.6l2.81-.19c0,.35,0,.71,0,1.06-1.74-.13-2.62,1.52-4.09,2C294.82,343.48,295.24,342.54,295.65,341.6Z" style="fill:#4c4c4c"/><path d="M271.82,279.77c-3.12,5.49-1.8,12.07-4.34,17.71,0-1.33-.07-2.66-.1-4,.07-1,.13-1.95.2-2.93v0c.94-2.37.25-4.82.37-7.23l.55-.82c.88-1.1.56-3.22,2.73-3.23Z" style="fill:silver"/><path d="M316.49,325.48c-.33,1-.65,2-1,3l-1.11,2.79c-1.13,1.2-2.4.87-3.7.36l-.24-.2C312.48,329.46,313.6,326.57,316.49,325.48Z" style="fill:#2a2a2a"/><path d="M310.7,331.64l3.7-.36c-.45,1.36-1.81,1.56-2.83,2.2Z" style="fill:#505050"/><path d="M265.69,350.41c-2.59-3.43-.66-7.31-1.09-11,.3,0,.59,0,.89,0C265.56,343.13,265.62,346.77,265.69,350.41Z" style="fill:#666"/><path d="M264.47,337.55l-1.85-1.84c.39-1,.77-2.11,1.16-3.17h.69Z" style="fill:#666"/><path d="M268,283.31a7.11,7.11,0,0,1-.37,7.23l-.18-3.05C267.59,286.1,267.78,284.71,268,283.31Z" style="fill:#6b6b6b"/><path d="M144.63,298.49c.06-2.44-1-5.42,2.84-6.07,1.33,4.64-1.44,8.68-1.93,13.05-.17,1.41.4,3-.94,4.13l-.55-.43c-.88-2.06-2.75-3.8-2.07-6.37C142.84,301.36,144.28,300.26,144.63,298.49Z" style="fill:#2d2d2d"/><path d="M132.52,321.46l1-1.95c.85-.91,1.92-.57,2.94-.51,1.41.16,2-1.09,3-1.74a1,1,0,0,1,1.12.22c.81,2.49-1.47,4-2,6a2.23,2.23,0,0,1-1.13,1.48c-1.81.28-1.27,4.07-4.13,2.79-1-1-3.07-1.15-2.74-3.28,0-.33,0-.65,0-1C130.9,322.51,132,322.23,132.52,321.46Z" style="fill:#393939"/><path d="M137.56,324.47l1-1c3.31.65,3.7,3.6,4.73,6-.67.93.54,3-1.72,3-2.15.73-1.23-3.22-3.51-2.31C137.27,328.33,136.18,326.51,137.56,324.47Z" style="fill:#424242"/><path d="M140.53,317.48h-1c-1.35-1.06-1.89-2.63-2.64-4.08a2.9,2.9,0,0,1,.42-2.7c1.94-.87,2.66.86,3.36,1.89.91,1.34,1.72,1.78,3.11.94a1.84,1.84,0,0,1-.25,2c-.36,1.16,1.37,2.53-.39,3.56S142.22,316.65,140.53,317.48Z" style="fill:#353535"/><path d="M143.57,315.51l0-2.07c-2-3.24-1.86-3.74.95-4.1l.12.26C144.23,311.57,145.32,313.79,143.57,315.51Z" style="fill:#3a3a3a"/><path d="M136.57,348.48c-2.41-2.73.75-6.13-1.08-8.93-.69-1.1-.49-1.9.79-2.33,1.82.56,2.46,1.83,2.24,3.68.93-1.34-1.32-4.5,2.35-4.31,1.17,1.87.45,4,.73,5.94l0,2-.48.46c-2.1.31-2.35,2.3-3.3,3.65A.93.93,0,0,1,136.57,348.48Z" style="fill:#383838"/><path d="M136.57,348.48h1c1.54-1.15,2.21-3.16,4-4h0c.26.4.85,1,.75,1.15-2,3-.74,5.94.18,8.88a1.74,1.74,0,0,1-1.64.53,17.46,17.46,0,0,0-1.72-.46c-1.65.18-3.14,1.21-4.88.86a2.77,2.77,0,0,1-1.7-1q0-.48,0-1C136.71,354.06,136.83,351.42,136.57,348.48Z" style="fill:#333"/><path d="M140.56,336.49c-1.78,1.3-.56,3.34-1.52,5.72l-2.52-4.74c0-2.05.89-3.94,1.24-5.93a2.29,2.29,0,0,1,.88-1c2.47-1.55,1.6,1.83,2.92,2,.28,1.06.56,2.12.83,3.18A2.55,2.55,0,0,1,140.56,336.49Z" style="fill:#4c4c4c"/><path d="M140.56,336.49a1.5,1.5,0,0,1,1.83-.81c-.19,2.29,1,4.74-.79,6.85C139.74,340.78,140.87,338.51,140.56,336.49Z" style="fill:#282828"/><path d="M140.55,354.47l1.93,0c.11.78.21,1.56,1,2a1.33,1.33,0,0,1,0,1,2.67,2.67,0,0,1-1.34.72,2.09,2.09,0,0,1-1.64-3.71Z" style="fill:#252525"/><path d="M142.66,357.53l.87-.07-.09,8-.82,0C140.16,362.8,139.71,360.15,142.66,357.53Z" style="fill:#505050"/><path d="M449.57,277.34c1.76,1,.93,2.91,1.46,4.35.66,1.77,1.45,2.85,3.49,2-1.12,2.81-2.54,1.91-3.79.2C449.3,281.94,449.31,279.64,449.57,277.34Z" style="fill:#2b2b2b"/><path d="M452.15,286.46c.47.81.84,1.18.88,1.58s-.3.71-.47,1.06c-.32-.26-.79-.47-.9-.8S451.83,287.54,452.15,286.46Z" style="fill:#111"/><path d="M129.49,359.51a2.27,2.27,0,0,1,1-2.06c2.39-1.46,3.47.87,5.05,1.72.44.15.89.43,1.28-.11.07-.91-.9-1.67-.37-2.63,1-1,2.07-2.07,3.49-.55.54,2.24.36,4.6,1.15,6.8a3.46,3.46,0,0,1-.56,3.76c-.1,4.33-1.51,1.87-2.76.55s-2.88-4.05-3.29.51c-2.07-.29-3.85.13-5,2.06l-.94-1.1c-.66-1.73-1.22-3.43,1-4.56,2.79-1.45,1.78-2.94.06-4.44Z" style="fill:#4b4b4b"/><path d="M136.54,376.48c-1.38.57-2.26,2.14-4,2-2.62-1.66-1.18-5-2.94-7,0-.35,0-.71.05-1.06a1.3,1.3,0,0,1,1.88.12C130.91,374.42,136.63,373,136.54,376.48Z" style="fill:#313131"/><path d="M131.53,370.51l-1.88-.12a2,2,0,0,1-.14-.83c.31-1.34-.59-3.13,1.32-3.89s2.59.95,3.69,1.83l0,2c-.56.56-.84,1.64-2,1Z" style="fill:#5c5c5c"/><path d="M140.57,366.44l0-4a5.73,5.73,0,0,1,.05-5l2.07.06c-1.6,2.63-.45,5.27,0,7.92A2.1,2.1,0,0,1,140.57,366.44Z" style="fill:#292929"/><path d="M137.92,375.15c1.24.55,2.84.6,2.67,2.48,0,.28-1.12.75-1.6.64C137.23,377.88,137.47,376.59,137.92,375.15Z" style="fill:#4b4b4b"/><path d="M132.55,370.48l2-1c-.38.92,1.36,2.27-.36,2.8C133,372.65,132.68,371.48,132.55,370.48Z" style="fill:#4b4b4b"/><path d="M121.55,377.48c.1,2,1.54,2,3,2l0,3c-1.72-3.55-5.82-.72-8-3C118.64,379.88,120,378.38,121.55,377.48Z" style="fill:#4a4a4a"/><path d="M187.58,273.43c-2-.25-4.24.8-6-.93.8-.94,2.21,0,3-1-.11-1.08-3-1.22-1-3C187.21,268.23,186.74,271.37,187.58,273.43Z" style="fill:#1e1e1e"/><path d="M271.24,279.26l-2.73,3.23c.14-2.17.15-4.42,3-5C271.41,278.08,271.33,278.67,271.24,279.26Z" style="fill:#313131"/><path d="M333.49,296.5l0,1c.66,3.31-.95,6.09-2.12,9-2.39,3.2-4.72,6.46-7.79,9.07-.51.47-.92.39-1.23-.23,5.13-6.11,10.05-12.32,10.15-20.87a3.77,3.77,0,0,0,.76.36C334.2,295.27,334,295.86,333.49,296.5Z" style="fill:#ededed"/><path d="M333.49,296.5c-.07-.57-.13-1.14-.2-1.71.35-4.07.76-8.13-.54-12.14-.12-.37-.65-1.41.61-1,.42.12.74.62,1.1.94a7.77,7.77,0,0,1,1.07,4.89C333,290,336,293.89,333.49,296.5Z" style="fill:#262626"/><path d="M193.72,242.44l-.27,2.27c-.67-2.39-1.35-4.77-2-7.15C193.94,238.37,193.42,240.6,193.72,242.44Z" style="fill:#5b5b5b"/><path d="M184.54,271.5c-.71,1.19-1.9.95-3,1-.79.3-2-4.22-2.51.23-.13,1-1.61.63-2.48.82l0-.13c-.85-1.21-.82-2.87-2-3.92,1.88-3.35,4.13-1.71,6-.19C181.81,270.3,182.59,271.86,184.54,271.5Z" style="fill:#101010"/><path d="M174.55,269.5c3.13.06,2.36,2.08,2,3.92a4.42,4.42,0,0,1-1,.05c-.65-1-2.18-1.41-2-3Z" style="fill:#040404"/><path d="M171.54,270.5c-.12,1-.34,1.95-1.65,1.84-.22,0-.62-.39-.59-.52.27-1.21,1.31-1.19,2.25-1.32Z" style="fill:#1f1f1f"/><path d="M302.41,254.44c2.72-2.05,4.89-.42,7.09,1.05,2.83,2.67,7.55,1.9,9.91,5.44l-13.9-5.38C304.73,254.48,303.19,255.51,302.41,254.44Z" style="fill:#353535"/><path d="M322.38,315.3l1.23.23c-3.32,2.23-6.58,4.58-10,6.65a9.46,9.46,0,0,0-4.2,5.11c-1.6,2-4.09,2.62-6,4.11h0l-8.82,3.31c2.06-3.86,6.78-3.74,9.64-6.45,3.45-3.26,6.92-6.51,10.56-9.55A13.17,13.17,0,0,1,322.38,315.3Z" style="fill:#e4e4e4"/><path d="M294.52,256.52c1.74-.1,3.25-1.49,5.11-.88-4.52,2.92-8.64,6.52-13.91,8.17-.12-1.3.78-1.86,1.72-2.39C289.92,260,293,259.41,294.52,256.52Z" style="fill:#464646"/><path d="M302.41,254.44c1.11.14,2.38-.13,3.1,1.11l-5.93.12c.32-1,1.19-1.12,2-1.26Z" style="fill:#464646"/><path d="M331.4,306.46q1.07-4.48,2.12-9C335.51,301.12,333.53,303.81,331.4,306.46Z" style="fill:#262626"/><path d="M303.4,331.4c1.45-2.18,3.64-3.28,6-4.11C308.75,330.62,306,330.82,303.4,331.4Z" style="fill:#2a2a2a"/><path d="M144.63,298.49c2,2.64.29,3.48-2,4-.75.6-1.54,2.16-2.14-.1,0-1,0-1.95,0-2.93C141.67,298.29,142.85,297.17,144.63,298.49Z" style="fill:#060606"/><path d="M142.64,284.58c0-.35,0-.7,0-1.05.67-1,1.33-2,2-3C144.36,282.09,145.14,284.12,142.64,284.58Z" style="fill:#262626"/><path d="M129.59,359.46c3,1.2,2.81,3.33.69,4.76-1.85,1.24-1.61,2.65-1.72,4.24-1.44-1-.77-2.62-1-4C127.45,362.5,132.57,362.65,129.59,359.46Z" style="fill:#414141"/><path d="M138.53,331.48c.17,2.28-.05,4.43-2,6a2.3,2.3,0,0,0-1,2.08c-1.31.07-2.53-4-3.92-.08h-1a2.71,2.71,0,0,1-.71-1.12c-.22-2,1.08-3.36,2.11-4.83a3.64,3.64,0,0,1,1.1-.77,15.71,15.71,0,0,0,4.28-1.56A1.1,1.1,0,0,1,138.53,331.48Z" style="fill:#2b2b2b"/><path d="M125.57,342.45c1.3,1.62,3,1.43,4.78,1,.16,2.19-1.4,1.4-2.47,1.86-1.78.78-4.37-2.46-5.34,1.15h-2c-.75-1.71-1.18-3.46.8-4.58,1.43-.81,3-1.19,4.21.59Z" style="fill:#565656"/><path d="M125.59,342.46c-3.49-.95-5.43,0-5,4-1.69-1.36-.8-3.25-1-4.91C121.79,340.5,124.19,338.19,125.59,342.46Z" style="fill:#484848"/><path d="M130.47,338.52l.09,1-3-1.06c-2.4-1.72-1.41-4.89-3-6.95-.21-2.45.63-3.33,3-2,2.33.18,4.33.77,4.59,3.59C132.34,335.11,129.06,336.09,130.47,338.52Z" style="fill:#646464"/><path d="M142.54,283.49l-2,0c.68-1.47-1.89-4.23.77-4.37C143.56,279,142.1,282,142.54,283.49Z" style="fill:#4d4d4d"/><path d="M140.51,302.43c.65,1.18,1.42.12,2.14.1-.52,2.58,2.85,4.1,1.83,6.81-2.65.82-.3,2.81-.95,4.1-4.06,3.13-3.9-2.13-5.94-3l-.42-.47c-.44-1.31.58-1.84,1.36-2.51.06-.28.1-.56.14-.85C140.26,305.66,138,303,140.51,302.43Z" style="fill:#0c0c0c"/><path d="M136.57,320.48l-3.06-1-.95,0c-3.81-2.62-.93-6-.94-9,3.89-3.25,3.78,1.08,5.11,2.69C137.45,315.64,139.43,318.11,136.57,320.48Z" style="fill:#353535"/><path d="M136.58,313.5c-2.46.34-1.52-5-5-3,.24-2.42,2.12-2.65,3.95-3,1,.73,1.15,2.1,2,2.94v0c0,1,0,2,0,3A.63.63,0,0,1,136.58,313.5Z" style="fill:#3a3a3a"/><path d="M137.6,310.47a2.89,2.89,0,0,1-2-2.94l3-.06Z" style="fill:#353535"/><path d="M119.57,332.49l1-1c1,.58,2.14,1.17,1.51,2.65a1.29,1.29,0,0,1-1.57.9C119.23,334.61,119.7,333.41,119.57,332.49Z" style="fill:#515151"/><path d="M131.59,333.47c-.07-2.61-3.07-2.28-4-4-.25-2.41,1-3.94,3-5,.71,1.31,3.2.84,3,3,.75,1.35.17,2.71.06,4.07a4.68,4.68,0,0,1-.92,1.87l-.24,0C132.17,333.94,131.88,334,131.59,333.47Z" style="fill:#404040"/><path d="M132.52,321.46a1.8,1.8,0,0,1-2,2l-1,0C129.64,321.48,131.09,321.48,132.52,321.46Z" style="fill:#4c4c4c"/><path d="M125.36,325.56c-.57.34-.91.72-1.28.74-.68,0-1.24-.37-1-1.11.08-.27.77-.51,1.16-.48S124.87,325.17,125.36,325.56Z" style="fill:#3d3d3d"/><path d="M135.55,360.48c-1.84-.73-2.69-3.1-5-3l2-3,2,0a22.8,22.8,0,0,0,2,3,1.81,1.81,0,0,1,2,2C137.55,359.85,136.52,360.07,135.55,360.48Z" style="fill:#414141"/><path d="M132.65,331.53a5.78,5.78,0,0,1,.92-4c.88-.1,1.5-.33,1.27-1.48-.64-3.16,1.11-2.26,2.72-1.56l1.08,6c0,.32-.08.64-.11,1h-.94C135.91,327.81,134.3,332.33,132.65,331.53Z" style="fill:#272727"/><path d="M136.58,313.5h1c1.84.75,2.09,2.29,2,4a2.81,2.81,0,0,1-3,3C138.45,318.15,134.9,315.83,136.58,313.5Z" style="fill:#202020"/><path d="M141.56,344.48c-.2,1.95-1.84,3.19-2.51,5-.54,1.46-1.23-.18-1.52-1C137.38,345.64,137.58,343.16,141.56,344.48Z" style="fill:#454545"/><path d="M136.56,357.47c-2.42.17-3.4-.61-2-3,1.91.86,3.11-1.78,5-1a1.35,1.35,0,0,1,0,2Z" style="fill:#4d4d4d"/><path d="M139.52,355.47c0-.67,0-1.33,0-2l1,1,0,3c0,1.67,0,3.34,0,5C138.64,360.36,140,357.79,139.52,355.47Z" style="fill:#414141"/><path d="M135.55,360.48c.24-2.58,1.68-1.59,3-1C137.79,360.56,137.26,362.28,135.55,360.48Z" style="fill:#3a3a3a"/><path d="M132.65,331.53c1.3-1.31,2-3.78,4.38-3.17,1.05.27.42,2,.56,3.13-.65,3.09-3.09,1.73-4.88,2Z" style="fill:#0c0c0c"/><path d="M131.59,333.47h.88c.36,2.09-2.16,3-2,5C128.21,336.25,131,335.11,131.59,333.47Z" style="fill:#484848"/></g></g></svg>