<svg
  xmlns="http://www.w3.org/2000/svg"
  viewBox="0 0 512 512"
  width="1em"
  height="1em"
  >
    <path
      d="M256 512c141.38 0 256-114.62 256-256S397.38 0 256 0 0 114.62 0 256s114.62 256 256 256z"
      fill="currentColor"
    />
    <path
      d="M327.73 220.6c-11.09 0-23.52 6.14-29.45 16h-.38v-52.19h-21.8v141.24h20.65v-14h.38c6.5 13.45 20.84 16.8 34.23 16.8C360.62 328.4 374 302.49 374 275c0-29.86-15.11-54.4-46.27-54.4zm-2.87 90c-17.59 0-27.73-15.44-27.73-36 0-21.75 9.38-36.19 27.72-36.2 18 0 27.34 17.62 27.35 36.2 0 17.81-7.45 36.01-27.34 36.01zM454.39 257.6c-1.72-12.46-10.52-19.19-22.56-19.19-11.29 0-27.16 6.13-27.16 37.19 0 17 7.27 35 26.2 35 12.62 0 21.41-8.71 23.52-23.35h21.8c-4 26.51-19.89 41.14-45.32 41.14-31 0-48-22.74-48-52.8 0-30.86 16.25-55 48.76-55 22.94 0 42.45 11.87 44.55 37h-21.8"
      fill="#fff"/>
    <path
      fill="#fff"
      d="M199.9 325.34H36.41l76.34-140.93h163.49L199.9 325.34"/>
</svg>