<svg xmlns="http://www.w3.org/2000/svg" viewBox="0 0 958.51 330"><g id="Layer_2" data-name="Layer 2"><g id="Layer_2-2" data-name="Layer 2"><path d="M479.44,329.87q-237,0-474,.13C.87,330,0,329,0,324.53Q.22,165,0,5.53C0,1.18.69,0,5.4,0q474,.22,948,0c4.34,0,5.14.9,5.13,5.15q-.22,159.51,0,319c0,4.58-.85,5.83-5.71,5.83Q716.12,329.76,479.44,329.87ZM184,61.41a3.84,3.84,0,0,0-2.6-2.55l.06.07c-1.57-2.41-4.22-3.42-6.46-5-2.09-1.14-2.26-4.38-5.14-4.67-2.79-2.44-5.89-.64-8.86-.64l-1.33-.13c-1.89-1.42-3.85-2.09-6-.45l-5-.55c-2.12-1.05-3.66-.4-4.71,1.62L141,51.05c-4-.23-6.5,3.46-10.27,3.75a13.13,13.13,0,0,0-8.55,4.5,4.87,4.87,0,0,0-3.72,2.31c-5,.93-9.44,3-12.74,7.08l0,0-2.46.84c-1.75-.18-2.84.77-3.67,2.15l-1.35.54c-1.79-.41-2.84.47-3.49,2l-1.51,1.36c-1.59.23-3,.75-3.7,2.34l-3.79,1.87c-3.23-.69-5.61.52-7.31,3.25-2.38,3-6,4.21-9.1,6.25-3.64,2.53-7.71,4.58-9.8,8.82l-.15.2a26.11,26.11,0,0,0-9.94,8.53,2.82,2.82,0,0,0-2.24,2.36c-4.5,5-8.66,10.25-11.42,16.45l-.37,0,.05.37a2.82,2.82,0,0,0-2,3.23l-.87,3.13c-2.48,2.19-2.84,5.23-3.32,8.22-1.73,1.49-.77,3.27-.52,5l-.55,3.86c-2.07,3.47-1.09,7.51-2.08,11.18l-.61,3.81a1.93,1.93,0,0,0-.51,2.46l-2.26,11.26c-1,7.59-1.22,15.15,1.12,22.59-1.45,2-1.21,4.1-.21,6.21a2,2,0,0,0,.73,2.43l.49,2.59c-.24,1.33-.46,2.67.9,3.61,0,2.59,2.39,4.75,1.42,7.54-.27,2.07.87,3.59,2,5.11l.48,2.55a2,2,0,0,0,.89,2.43c-.15,1.58.86,2.63,1.7,3.77.26,4.64,3.38,7.8,5.85,11.29l1.32,2.47.49,2.61c-1,1.75.45,2.22,1.5,2.91q8,10.49,16.06,21c.94,2.28,1.91,4.54,4.34,5.7,4.87,7.27,12.53,10.56,20.08,14l3.69,1.34c1.17,2.16,3.51,2.7,5.38,3.89a3.1,3.1,0,0,0,3.44,2.07c1.54.95,3.06,2,5,1.43,2.3,1.52,4.66,2.75,7.54,1.67a9.87,9.87,0,0,0,5.44.81,9.58,9.58,0,0,0,5.88,1.26l1.27.26c2.51,1.27,5,2.17,7.44-.2l4.94-.67c2.38,1.34,4.44.15,6.54-.79,2.51.12,4.87-1.47,7.45-.68,3.37,1.42,5-1.73,7.5-2.76,4.92-1.45,9.86-2.85,15-3.12a2.19,2.19,0,0,0,2.57-.68c1.35-.19,3,.24,3.66-1.54,1-.06,2,0,2.61-1l5.08-2.3c.87.12,1.52-.06,1.58-1.11l1-1.09,3.36-1.85,1.52,0c6.31-1.12,11.86-4.36,17.84-6.39L211,288.7a22,22,0,0,0,2,4.44c1.85,2.52,4.52,2.79,7.22,1.57a4,4,0,0,0,1.65-5.92c-2.84-4.79-3.61-11.31-10.14-13.33-1.43-2-2.75-4.06-4.32-5.92s-3.77-3.53-6.45-1.69c-7.92,5.42-15.53,11.26-25.7,12.24-3.71.36-6.17,4.77-10.48,4.44l-2.38.05c-3.43-.4-5.76,2.15-8.66,3.18l-1.27-.08a1.91,1.91,0,0,0-2.61,1.11l-8.85.37c-1.35-.11-2.77-.51-3.76.9l-2.42.44a2,2,0,0,0-2.62.77l-3.65.78c-1.4-.73-2.73-.87-3.9.44-2.55,0-5.1.79-7.64-.08a1.47,1.47,0,0,0-2.39.08l-7.7,0a6,6,0,0,0-5-.58l-2.66-.42-13.69-4.77-15.13-8.08c-.7-.91-1.22-2-2.58-2.17L61.63,271c-1.17-1.87-1.15-4.59-3.83-5.39l-1.44-2.07a3.65,3.65,0,0,0-2.29-3.4L51.64,256a6.69,6.69,0,0,0-3.6-4.3c-1.32-2.43-4.53-3.72-4.33-7.08a3.38,3.38,0,0,0-1.87-3.18L41,239.62a3.86,3.86,0,0,0-1.6-3.38l-.9-1.63-.89-3.7A5.08,5.08,0,0,0,37,227.1c.71-1.84,0-3.37-1-4.85.33-1.89-.41-3.55-1.18-5.19.26-1.4.4-2.76-1-3.68-.37-3,2.54-5.76.6-8.85.41-5.43.67-10.86-.59-16.23l0-3.93L35,181.91l4-10c1.4-1.43,1.22-3.26,1.3-5a16.64,16.64,0,0,0,3.63-7.53,1.78,1.78,0,0,0,.42-2.61l1.95-6.2a2.54,2.54,0,0,0,1.4-2.49,34.88,34.88,0,0,1,8.92-14,8.6,8.6,0,0,0,3.48-3.71l.23-.19c1.72-.33,2.35-1.79,3.14-3.06l1.95-.73A6.09,6.09,0,0,0,69,122.9c2.67-3.57,6.47-5.59,10.34-7.52,1-.15,2-.31,2.5-1.46,5.26-.64,8.57-4.59,12.6-7.34l11.29-5.08c3-.59,6.5.34,8.77-2.67l7.59-2.31c3.44,0,6.52-2.37,10.09-1.54,3.21.33,5.92-1.2,8.75-2.29l2.55-.51c4.53-1.16,9.37-.32,13.8-2.12l3.94,0c3.29,1.57,6.44,3.61,9.9,4.58,5,1.41,9.38,5.68,15.21,3.7,1.39.61,2.77,1.15,3.63-.76,1.7,0,3-.57,3.48-2.35l.24-.24c4.94-2.14,6.31-5.85,4.8-10.83.36-5,.38-9.86-5.11-12.48-2.21-2-3.16-5.09-5.87-6.64L186.39,64a3.44,3.44,0,0,0-2.51-2.68ZM546.47,203.63a3.15,3.15,0,0,0-.44-2.95,6.4,6.4,0,0,0,.49-4.94c4.28-7.92,2.68-16.73,3.86-25.12l2.5-7.38c2.41-5.22,2.74-10.9,3.66-16.45a3.9,3.9,0,0,0,.29-3.81c2.84-6.44,5.57-12.92,6.19-20l.08-5.06c2.06-2.59,2.43-5.59,2.15-8.75.79-5.55,1.52-11.11-1.65-16.25-1.1-1.79-.56-3.6-.23-5.42l2.6-1c8.75,1,16.33-5.18,25.09-4a2,2,0,0,0,2.58-1l4.92-.66a2.08,2.08,0,0,0,2.63-.56c5.88-.82,12.33,1.48,17.48-3.23,5.4-.3,10.34,1.5,15.3,3.26l1.29.34c6.74-2.69,3.09-7.26,2-11.35-1.59-2.48-.5-6.61-4.63-7.54-9.77-2.54-18.45,2.43-27.63,4-6.18,1-12.13,4.67-18.7,1.66-.18-.08-.81.8-1.24,1.23-4,0-8-.64-11.49,2.09l-5,.46c-1.48-.83-2.7-.34-3.81.74l-3.65.7c-2.41-.15-4.75-.1-6.33,2.16-3,.23-6.12-.57-8.77,1.51-4.58-.32-8.55,1.77-12.67,3.24l-2.8.2-2.56.33c-4.21,2.6-9.52,2.68-13.49,5.83l-3.68.33c-1.09-.21-2.08-.19-2.58,1-1.69.07-3.21.4-3.77,2.31L502,90.64c-2.17.2-3.83,2.44-6.27,1.57-.77.16-2,.08-2.25.52-2.24,4.35.47,14.49,4.63,17.84,1.87,4.47,5.11,6.58,10,5.77,2.87-.2,3.95-2.48,5.26-4.5l0,0c1.62-.2,1.94-1.47,2.27-2.73l0-.11,31.49-16.92c2.33.66,1.74,2.79,2.22,4.39a1.73,1.73,0,0,0,.51,2.63c1.18,6.86-1.43,13.31-2.13,20a2.09,2.09,0,0,0,.1,2.72c0,1.35.08,2.71.11,4.06-2.31,2.59-1.56,5.55-1.05,8.49l-1.27,4.13c-2.89,3.61-2.81,7.84-2.58,12.11l-.52,2.59c-1.38,1.94-1.06,4.06-.68,6.19-.2,1.69-.41,3.38-.62,5.08-3.82,6.75-2.91,14-2.24,21.23a37.29,37.29,0,0,0-1.46,13.85c-1.58.28-1.62,1.26-1.13,2.47l-.2,3c-1.13,1.84-1.6,3.74-.5,5.78l-1.11,5c-.28.86-.57,1.72-.85,2.58-2.43,2.79-1.86,5.23.87,7.42a3,3,0,0,0,.48,1.14c.21,2.76-.63,5.74,1.73,8.05.45,1.4,1.73,1.65,2.88,2.08,2.82,3,3.64,3,5.31-.19.17-.78.35-1.56.52-2.33,2.31-2.45,2.15-4.49-1-6.06l-.06-.06-.65-7.82.64-4.82c2.54-3,1.86-6.61,1.78-10.09,0-.49.07-1,.11-1.46A.4.4,0,0,0,546.47,203.63ZM323.33,208.3a3.68,3.68,0,0,0-3.45,3.86l-.2.18c-2.28,0-3.23,1.62-4.08,3.36l-2.21,1.78c-1.23.52-2.86-.37-3.83,1.08-8.62,4.19-17.08,6.16-25.84-.11-3-2.14-4.08-5.78-7.21-7.6,0-1,.05-2.08-1.19-2.53-.36-1.53-.63-3.12-2.3-3.89-3.4-2.35-2.06-8.34-7.2-9.36l-.12.19.17-.14a1.35,1.35,0,0,0,1.23-1.56c-1.67-5.9,2.08-12-.63-17.84-.12-4.25,3.57-7.25,3.77-11.39,0-3.94,3.42-7.21,2.17-11.37,1-2.13,2.71-4,2.68-6.55q1.37-4.23,2.74-8.46l2.48-5,3.26-6.38c.19-.8.38-1.59.56-2.38,1.14-.59.89-1.7,1-2.67l.25-.17a4.07,4.07,0,0,0,4.35-2.95l-.24-.23.28.18,2.05-1.73,4.91-1.82c2.14,0,2.86-1.73,3.8-3.18l.06,0c4.37-1.4,8.67-3,13.37-3.27,2-.11,4.67-.11,5.41-3l1.74-1.93c3.69-4.14,4-8.47.77-13a3.67,3.67,0,0,0-2.6-3.7c-.36-2.77-2.24-4.3-4.47-5.63-8.7-5.19-18.77-7.54-27.3-13.08a2.87,2.87,0,0,0-3.94.57c-5,5.23-10.9,9.84-14.82,15.76-7.46,11.28-11.23,24.25-14,37.44a17.88,17.88,0,0,0-3.08,8.76c-3.69,3.94-.58,8.6-1.21,12.94-1.65,11.45-4.42,22.94-2.4,34.69-.08,1.66-.17,3.33-.26,5-.78,4.84,3.58,7.43,5,11.31-.07,1.48,0,2.88,1.58,3.66.11,1.63.63,3,2.35,3.55l1.92,1.81c1.8,1.58.81,4.65,3.17,5.93.23,1.62.61,3.14,2.43,3.71,1.51,2.17,3.07,4.31,4.53,6.51,4.5,6.79,10.15,12.14,18.14,14.61a2.27,2.27,0,0,0,2.44.85l1.4.67c.88,1.26,2,2.14,3.63,1.89a26.92,26.92,0,0,0,8.88,1.62c3.2,1.82,5.71-1,8.6-1.27l3.87-.29c1.62.75,2.82.38,3.53-1.31,1-.05,2,.13,2.68-.93,3.44-.61,4.45-3.59,6-6.07l.28-.28c1.5.07,2.4-.57,2.47-2.14l1.33-1.58c2.19-1.64,4.63-3,5.45-5.93l0-1.09a2.51,2.51,0,0,0,.35-2.65l.15-3.87q2.56-6.24,5.12-12.5c3.34-2.4,2.05-6.27,3-9.43,1-.81,2.35-1.4,2.54-2.94,3.22-6.49,2-13.28,1.3-20,1.24-1.43.37-3,.36-4.55a3.21,3.21,0,0,1,1.2-.28c2.23.41,5.49,2.84,6.14-.85.46-2.62-2.94-3.46-5.64-3.36a9.36,9.36,0,0,1-1.86-.3c-.69-2.14-1.88-4.26-2-6.43-.45-9.57-7-15.15-13.22-21l-.33.29.35-.27c-2.31-2.9-6-3.57-9-5.23-1.07-.58-2.44-3.11-4-.36-1,1.82-4.51,3.2-1.05,5.82.12,1,.25,2,1.37,2.5a8.51,8.51,0,0,0,3.27,5.73c.55,1.08.61,2.52,2.09,2.95.46,1.79,1.88,2.74,3.25,3.74l1.76,5.15a2.8,2.8,0,0,0,1.54,3.3c0,1.86,1.62,2.81,2.45,4.2a4.21,4.21,0,0,0,.28,3.9l.59,3.65.15,11.41c0,.79,0,1.59,0,2.38v2.74c-2,.32-4.09.6-3.84,3.45-.22,3.24-3.35,5.52-2.94,9l-1.53,3.4-2.63,4.79a2.84,2.84,0,0,0-1.79,3.11l-.55,1.16ZM881.8,29.23l-2.75.12-3.48.3a1.69,1.69,0,0,0-2.67.79l-2.65.33a21.94,21.94,0,0,0-18.21.88c-5.41,2.76-7.49.8-7.07-5.45-4.73,3.86-10,2.32-14.84,2.91l-3.66.32-12.66,3.46-2.46.17c-3.51.1-5.73,2.22-7.6,4.86l-3.82-.11c-7.18-1.39-12,3.56-17.58,6.49l-2.4.21c-2.68,1.2-7.32-.34-7.3,4.7,0,5.47-.3,10.84,3.55,15.81,3.18,4.11,7,3.64,9.54,1.49,2-1.74,5-3.45,5.94-6.51a.69.69,0,0,0,.67-.88L794.74,58l30-11.92,1.57-.29c1.4.4,2.82.91,3.8-.75a2.52,2.52,0,0,0,2.47-1.28c2.11-.42,4.61,1.07,6.32-1.28l14.33-3.1h.06l2,.28c3.48-.74,7-1.25,10.08-3.27l3.89-.89c4.77.93,9.37-.1,14-1.19,6.88-1.7,14.19.25,21-2.4a1.69,1.69,0,0,0,2.67-.59c6.06-2,11.94-2.8,17.08,2.25,2.47,2.43,5.62,2,8.17.76,2.84-1.36,1.83-4.49,1.15-6.74a97.58,97.58,0,0,0-4-9.74c-1.16-3.05-2.71-7.74-6.15-5.93s-5.25,5.75-10.2,2.61c-.78-.49-4.74,2.36-8.39,2.13,3,1.93,6.63-.65,8,2.43.88,2-3.14.44-3,2.69-2.24-.34-4,1.91-6.35,1.13-5.49-4.53-5.49,3.34-8.75,3.85-3.12,2-6.72,1.16-10.09,1.7C883.16,28,882.54,28.79,881.8,29.23Zm-137.07,45-.05,0a4,4,0,0,0-3.79,2.64l-6.26,2.6c-3.39,2.79-8.26,4.11-9.28,9.26l.26.4-.29-.38c-5,1.91-8.05,6.08-11.27,10l.21.33-.25-.3c-1.72.29-1.54,1.8-1.91,3-7.69,10.16-13.21,20.8-10.51,34.34.9,4.53,3,8.6,3.65,13.12-.19,3.78,2.18,6.56,3.8,9.63,3,5.13,5.15,10.89,10.57,14.24.51,2.78,2,4.6,5,4.81a22.72,22.72,0,0,0,17.54,8.92,3.07,3.07,0,0,0,3.83.41c7.38.37,14.64,1.22,22.17-.27,4-.79,8.14-2.87,12.74-1.46s7.13-1.89,5.63-6.61c-2.71-8.53-4.47-9.56-13.59-8.07-1.43.23-2.89.29-4.33.43-1.07-.33-2-.28-2.51.9-5.6,1-11.2-.09-16.8-.12-19.36-.11-32.37-14.33-38.42-33.61-2.31-7.37,1.06-13.69,2.47-20.41l3.37-4.48c2.56-.37,2.78-2.28,2.85-4.3l1.05-1.69c1.54-.07,2.08-1.2,2.58-2.39.9-.25,2-.1,2.45-1.23L739.4,92.8l.08-.06a4.49,4.49,0,0,0,4.37-2.9l.18-.21c3.57-1.42,7.33-.5,11-.64,2.59-.1,5.74,0,6.37-2.3.82-3,2.32-6.75-1.17-9.5-.28-.58-.57-1.15-.86-1.73,0-2.52-1.44-3.87-3.61-4.72-3-3.12-4.89.49-7.27,1.15A3.6,3.6,0,0,0,744.73,74.19Zm99.74,37.12c.55-1.55,2.39-2.84,1-4.8.18-.74.37-1.48.56-2.21,1.8-2.13,1.44-4.74,1.41-7.18-.14-8.58,2.32-16.81,3.27-25.23.62-5.54,2.68-11.71-3.59-15.82l-.2-.18a3.6,3.6,0,0,0-5.27-1.36c-2.48,1.66-1.34,4.65-1,7.17l-1.11,3.56c-2.72,6.55-.92,13.48-1.66,20.2l0,2.47c-2.24,4-1,8.33-.82,12.54-.12,1-.24,2-.35,3-2.78,5.64-1.15,11.47-.73,17.24l-.65,2.36c-2,5-1.26,10-.66,15.1-.12,1.38-.23,2.77-.34,4.16-3.38,4.12.35,8.14.16,12.22l-.37,2.37c-2.41,8.82-.7,17.82-1.07,26.72a3.78,3.78,0,0,0,2.35,3.3c0,.85-.05,1.7-.08,2.56-.77,2.9-.66,5.9,2.44,7,3.63,1.31,5-1.87,6.35-4.46,2.39-4.6,2.34-8.88-1.94-12.47l.39-3.92c3.38-4.39-.67-8.46-.57-12.7l.33-2.37c2-1.27,1.36-3.29,1.35-5.07,0-5.85-.36-11.71.79-17.51l-.27-1.25c.24-2.07.47-4.15.71-6.22-.13-2.08,2.56-4.13,0-6.23l.48-2.5c1.52-1.25.71-1.91-.63-2.44,0-1.68.09-3.35.14-5A3,3,0,0,0,844.47,111.31ZM435.09,257.13c2.66-2.42,2.93-5.74,3.36-9l.39-2.28c1.81-.82,1.24-2.42,1.27-3.83.59-2.15,1-4.37,1.8-6.45,4.18-10.91,2-22.88,6.37-34,2.91-7.36,2.5-16,3.58-24.09,2.4-2.8,1.88-6.19,1.87-9.47,1.42-.84,2.52-1.91,2.57-3.7q.94-6.9,1.9-13.81l.12-1.25c1.29-1.4,2.28-2.92,2-4.94.07-.15.22-.31.19-.44a4.05,4.05,0,0,0-.33-.78,5.34,5.34,0,0,0,.32-1.17h0c4-7.58,5.55-16,8-24.08l.23-3.53c1-2.47,2.77-4.74,1.92-7.66,3.16-5.3,5.44-11.61,15.31-11.57-7-1.31-3.51-8-8.08-9.63-.39-1.23-.42-2.76-2.29-2.76-1.81-1.47-.54-5-3.68-5.56-5-3.69-1.73,3.81-4.41,3.27-3.07-3.93-3.07-3.93-4.45-.75L461.81,81l-.83.23.29.43c-.22,1.25-.43,2.49-.65,3.74-2.65,5.64-4.89,11.32-2.2,17.61-.12,1.66-.23,3.31-.34,5-1.57,1.23-1,3.29-1.85,4.79l-.39,1.22c-3.3,3.63-4.68,7.52-2.9,12.52a12.41,12.41,0,0,1,.1,7.84l-.1.08a9.16,9.16,0,0,0-1.71,1.63c-2.5,4.09-2.35,9.93-8,11.93,1.18,2.83-4.17,7.38.4,8.22,5.15,1,2.31,3.63,2.85,5.61l-.27,2.28c-3.53,1.68-3.33-5.19-6.22-3.09s-.09,5.22,0,7.91c0,.37-.47.74-.49,1.12-.5,9.92-1.38,19.83-.85,29.78,1.32,4.17.41,7.24-4.16,8.6-.23.07-.28.71-.42,1.08-1.16,5.86-.32,12.08-3.1,17.65-1.18,3.52.83,7.67-2.18,10.82-2,2-3.4.39-4.92-.71a10.85,10.85,0,0,1-1.8-5.19c-2.6-15.46-5.16-30.91-8.21-46.3-2.35-11.91-5.2-23.93-4.19-36.32a25.13,25.13,0,0,0-.17-8.06c-2.17-9.22-1.82-18.75-.54-27.88,1.33-9.55-.35-17.7-5.46-25.51l-1.08-1.32A6.49,6.49,0,0,0,398.62,82c0-2.06-1.39-3-2.94-3.94-2.42-6.4-7.61,3.44-10.05-2.54-1.71,8.93-.74,17,.39,25.05l-.84,3.7c-2.05,3.07-1.11,6.77-2.14,10.06l-.35,2.5c-2.15,3.15-1,6.65-1.08,10L380,134.31c-1.47,2-.9,4.19-.52,6.34a17.26,17.26,0,0,0-.33,7.73c-1.08,1.43-1.87,2.93-1.16,4.79l-.09,2.37v1.38a8.45,8.45,0,0,0-1.68,6.23c-2.05,4.39-2.41,9.18-3.34,13.83-.09.84-.17,1.67-.26,2.51-2.15,1.89-1.12,4.15-.73,6.33-.6,2.34-1.19,4.68-1.79,7-4.2,9.33-1.3,19.8-4.77,29.24l-.36,2.55c-2.13,1.55.33,4.67-1.25,5.57-5.3,3-2.89,7.35-2.55,11.41.11,1.41.88,2.81,0,4.25-5.14,8.59-3.16,13.46,8.74,21.28,1.87,1.57,3.53,3.59,5.67,4.6,2.3,1.08,5.32,2.07,7.4-.32,1.5-1.74,4.56-3.65,1.51-6.63-1.38-5.87-3.51-11.59-3.67-17.72,1.67-1.44,1.32-3.26,1-5.08q.21-3.72.43-7.42c1.65-1.92,1.18-4.19,1-6.4,1.64-2.7,1.18-5.74,1.4-8.67,1.16-.8,1.32-1.6,0-2.4,0-1.3-.05-2.59-.08-3.88,1.48-1.41,2.87-2.85,1.82-5.15.25-1.17.51-2.33.76-3.5,1.12-1.77.27-3.47-.19-5.18.08-2.07.16-4.13.23-6.2,1.62-2.79.46-5.84.81-8.76.23-1.24.45-2.49.68-3.74,3.68-9.3,3.51-19.55,6.61-29.17,2.84,1.17,1.91,4,3.62,5.29.19.82.39,1.65.59,2.48l-.21,3.81a6.44,6.44,0,0,0-.37,2.38c4.79,18.93,9.54,37.89,12.35,57.22.93,6.45,4.84,11.71,5.6,18.05a1.76,1.76,0,0,0,.94,2.57c1.79,4.51,2.05,9.54,3.53,13.89,1.56,4.6,2.84,11.22,9.9,12.11,2.94.37,5.36-.83,6.29-3.45.82-2.29.57-4.93-2.4-6.11ZM626.54,138.32c-4.06,1.08-1.17,5.53-3.6,7.4-2.54,3.26-6.07.69-9,1.51a2.75,2.75,0,0,0-3.09,1.3l-.33.32c-2.22,1.75-1,3.47-.1,5.35a14.29,14.29,0,0,1-.06,12.82,11.21,11.21,0,0,0-2.71,6.15c-5.06,5.13-5.25,12.74-9.38,18.34l-.68,3.15c-3.13,1.91-2.85,5.56-4.28,8.34q-1.62,2.77-3.25,5.53c-4.21,3.14-4.83,7.6-4.57,12.39-1.37,6.34.24,11.14,6.93,13.31,7.26-1.53,5.83-7.24,5.92-12.23l4.42-9.61c1.17-.76,2.49-1.46,1.13-3.13a5.27,5.27,0,0,0,3.56-3.74c1.64-.56,1.57-2.11,2.18-3.37,2.12-4.35,2.48-9.52,6.18-13.11,4.17-5.75,4.2-13.95,10.82-18.26l6-2c2.42.57,4.71.61,6.39-1.68l2.4.11c2.23,1,3.64-.35,5.06-1.71,4.34-.55,8.78.09,13.07-1.17,3.18-.94,4.72.63,5,3.72a1.94,1.94,0,0,0,1,2.58c2.49,3.33,1,7.51,2.68,11.24,4.21,9.42,7.33,19.32,11.42,28.81a199.62,199.62,0,0,0,10,19.19c.95,1.68,2.79,3.53,5.21,2.36a4.49,4.49,0,0,0,2.39-5.8c-.93-2.91-1.65-6.07-3.33-8.53-9.66-14.14-13.3-30.77-19.8-46.22-1.21-2.88-.1-4.4,2.32-6,5.93-4,6.59-9.36,1.25-14.15-6.07-5.44-5.68-12.3-5.71-19.27,1.65-1.58,2.64-3.31,1.36-5.6l.61-4.88c2.73-2.95,2.14-6.94,3.22-10.4,3.15-10.13,7.74-20,5.15-31.12L682.7,78c.37-4.91-.74-9.35-4.13-13.07l-.16-.15a41.51,41.51,0,0,0-2.53-4.16c-1.25-1.59-8.4-1.46-8-.53,2.37,5.51-2.89,7.87-4.44,11.7l-1.56,4.92c-4.48,2.75-9.74,5-7.72,12,.22.75-.87,1.83-1.23,2.8-1.85,4.88-6,8.24-8.31,12.86l-1.68,3.7a2.45,2.45,0,0,0-1.39,2.49c-2,1.67-2.72,4.09-3.81,6.29-2.47,1.79-3.28,4.5-4.07,7.22l.27.22-.29-.21c-3,4.42-5.77,8.92-6.95,14.2Z" style="fill:#fdfdfd"/><path d="M428.76,238c3-3.15,1-7.3,2.18-10.82,2-2.2,4-4.51,6.16-6.58,1.44-1.36,2.31-2.86.57-4.12-2.48-1.8-1.71-5-3.63-6.95.14-.37.19-1,.42-1.08,4.57-1.36,5.48-4.43,4.16-8.6,1.82.07,4,.63,4.32-2.12,1-7.27,3.36-14.36,2.57-21.88-.32-3-.95-6.17,1.05-9,4.28,1.87,4.89-4.38,8.56-3.85l1.18,1.28c-.05,1.79-1.15,2.86-2.57,3.7-4,2.49-1.48,6.27-1.87,9.47-1.08,8.08-.67,16.73-3.58,24.09-4.39,11.12-2.19,23.09-6.37,34-.8,2.08-1.21,4.3-1.8,6.45-2.43.62-2.74,1.93-1.27,3.83l-.39,2.28c-1.37,3.39-6.34,3.61-6.85,7.76-1.33.55-2.39,1.3-2.21,3-.74,3.73,2.61,6.72,1.9,10.45-7.06-.89-8.34-7.51-9.9-12.11-1.48-4.35-1.74-9.38-3.53-13.89,1.54-1.53.68-2.19-.94-2.57-.76-6.34-4.67-11.6-5.6-18.05-2.81-19.33-7.56-38.29-12.35-57.22a6.44,6.44,0,0,1,.37-2.38c1.14-1.21,3.23-2.37.21-3.81-.2-.83-.4-1.66-.59-2.48,1.7-5.12-2.08-8.05-4.76-12.84-.32,2.69-.49,4.08-.66,5.46l-2.31,2.42c-1.55.43-4.6-1.55-4.31-.24,1.22,5.45-4.06,4.26-5.76,6.52v2.47c.2,4.6-3.44,9.74,1.95,13.69.25.17-.44,1.87-.92,2.73-3.77,6.81-2.91,9.86,3.95,13.68l0,1.31c-2.19,1.62-3.06-1.79-4.95-1.3-3.36.42-2.28,3.05-2.5,5-2.89,1.55-4.68,3.2-1.1,6a3.16,3.16,0,0,1,.67,4,2.21,2.21,0,0,1-3.21.9c-5.74-3.91-5,.63-5.14,3.86-.16,4.41,1.06,9.3-4.53,11.57,3.47-9.44.57-19.91,4.77-29.24,1.46.23,4,2.21,4.13.35.23-3.22,4.17-7-.57-10-.17-1.3.37-2.78-1-3.73.09-.84.17-1.67.26-2.51,5-3.68,4.36-8.71,3.34-13.83a8.45,8.45,0,0,1,1.68-6.23l1.48-.7-1.48-.68.09-2.37c2.69-1,2-2.89,1.16-4.79a17.26,17.26,0,0,1,.33-7.73c4.33-1.78,2.41-4.06.52-6.34l1.59-7.49c3.89-3,2.07-6.53,1.08-10l.35-2.5c1.73,0,1.78-2,3-2.62.4.46,1.18.95,1.15,1.38q-.76,13.22-1.74,26.43c-.11,1.53-1.42,3.58.93,4.12,1.73.41,2.14-1.57,2.48-3,1.12-4.61,3.81-7.95,7.44-11.08,6.09-5.25,7.95-12.48,7.52-20.35l-1.23-6.28c1-.17,2.1-.29,2.25-1.59.18-1.67-1-2-2.3-2.15h0c.64-3.69-1.86-7.65.93-11.17,5.11,7.81,6.79,16,5.46,25.51-1.28,9.13-1.63,18.66.54,27.88a25.13,25.13,0,0,1,.17,8.06c-1,12.39,1.84,24.41,4.19,36.32,3.05,15.39,5.61,30.84,8.21,46.3a10.85,10.85,0,0,0,1.8,5.19c.19,2.14-.56,5.28,2.39,5.45C428.53,242.86,428.82,240.1,428.76,238Zm-24.84-94.06c-.77-1.86-1.51-3.62-2.51-6L398,143.28C400.05,144.84,402,144.41,403.92,143.93Z" style="fill:#191515"/><path d="M607.63,173.17a11.21,11.21,0,0,1,2.71-6.15,3.71,3.71,0,0,0,4.06-2.69l5.72,0c2.22,1.55,4.59,3.59,6.88.44,1.29-1.77,1.31-4.52-.62-5.56-1.68-.91-4.35-4.38-6.27.11h-6.3c-.15-3.8-1.8-7.13-3.31-10.51l.33-.32c1.64,1,2.64.5,3.09-1.3,3-.82,6.48,1.75,9-1.51l3.13-.29c2.65,0,5.3,3.13,7.95,0,1.59.67,2.38,3.76,4.91,1.64l2.58-.1c1.25,1.22,2.49,1.38,3.73,0l8.75-.52c.82,1.47,1.69,1.71,2.63.1l5.68.55c1.9-.91,2.32-1.88.12-3l-.66-7.38c1.39-1.26,1.49-2.5-.06-3.71q.19-4.35.41-8.7c3.2-3.55,4.12-7.29.9-11.35-.26-2.27.75-4.22,1.59-6.21,1.59-.15,2-1.29,2.12-2.61l4.93,1.28c-.34,3.25-1.59,6.76,2.5,8.76.83,2.52-1.62,4.94-.24,7.49l-.61,4.88c-2.4,1.4-1.32,3.64-1.36,5.6,0,7-.36,13.83,5.71,19.27,5.34,4.79,4.68,10.15-1.25,14.15-2.42,1.65-3.53,3.17-2.32,6,6.5,15.45,10.14,32.08,19.8,46.22,1.68,2.46,2.4,5.62,3.33,8.53a4.49,4.49,0,0,1-2.39,5.8c-2.42,1.17-4.26-.68-5.21-2.36a199.62,199.62,0,0,1-10-19.19c-4.09-9.49-7.21-19.39-11.42-28.81-1.66-3.73-.19-7.91-2.68-11.24,1.46-1.51.73-2.22-1-2.58-.29-3.09-1.83-4.66-5-3.72-4.29,1.26-8.73.62-13.07,1.17-2.44-1.64-3.69.2-5.06,1.71l-2.4-.11c-3-2.66-4.74-.7-6.39,1.68l-6,2c-6.41-.59-6.38,6.13-10,8.74-7.85.88-7.85.88-4.25,7.63a3.47,3.47,0,0,1,.14,1.23c-3.38,2.42-1.08,7.64-4.89,9.86-3.46-2.75-5.68-3-5.14,2.5l-3.84-1.27-1.08-4.81c.23-1,.45-2.1.68-3.15,1.92,1.22,3.47,1.27,4-1.37.32-1.55,0-3.3,1.42-4.48.92.26,1.84.54,2.78.73.09,0,.51-.66.43-.88-.58-1.49-2-.88-3-1.06-.12-2.72,2-4.29,3.42-6.09S609.42,175,607.63,173.17Zm53.92-16.42c1.14,0,2.19-.29,2-1.63a2.22,2.22,0,0,0-2.23-1.79c-1.25-.1-2,.56-1.93,1.77S660.42,156.73,661.55,156.75Zm-26.83,6c-.35-.15-.78-.49-1-.4s-.33.64-.48,1c.35.15.77.49,1,.4S634.56,163.13,634.72,162.78Z" style="fill:#141110"/><path d="M542.53,153.21l.52-2.59c2.67-3.65,2.79-7.85,2.58-12.11l1.27-4.13c2.89-2.52,1.26-5.59,1.05-8.49,0-1.35-.07-2.71-.11-4.06,2.3-1,2-1.88-.1-2.72.7-6.66,3.31-13.11,2.13-20,1.47-1.2,1-2-.51-2.63-.48-1.6.11-3.73-2.22-4.39a1.94,1.94,0,0,0-.25-.77l.27-2.17c-.16-1.28-.46-2.49-2.14-2.31-1.32.14-1.45,1.23-1.6,2.25-3.58-.16-7.13-.3-6.31,5l0,0c-1-.15-2.74.28-2.72-.73.1-5-3.48-9-3.78-13.86l2.8-.2a15.41,15.41,0,0,0,12.67-3.24c2.65-2.08,5.8-1.28,8.77-1.51a6.29,6.29,0,0,0,6.33-2.16l3.65-.7c1.57,1.29,2.9,1.35,3.81-.74l5-.46c3.91-.26,8.1,1,11.49-2.09.43-.43,1.06-1.31,1.24-1.23,6.57,3,12.52-.62,18.7-1.66,4.46,1.43,9.2,1.49,13.68,3.24,3.41,1.33,12.59-4,13.95-7.19,4.13.93,3,5.06,4.63,7.54q-1,5.68-2,11.35L634,80.19a11.86,11.86,0,0,0-15.3-3.26c-5.15,4.71-11.6,2.41-17.48,3.23-1.22-1.44-2-.8-2.63.56l-4.92.66c-1.57-1.46-2.23-.63-2.58,1-8.76-1.14-16.34,5.07-25.09,4-1.62-1.56-2.26-.65-2.6,1s-.87,3.63.23,5.42c3.17,5.14,2.44,10.7,1.65,16.25a7.94,7.94,0,0,0-2.15,8.75c0,1.68-.06,3.37-.08,5.06-3.17,2.91-4.3,6.63-4.58,10.8-.21,3-1,5.82-5,5.69,1.14-3.18-1.59-3.93-3.48-5.31.78,2.19-2.18,5.6,2.34,6.45l-.09,1.27c-.55.15-1.5-.28-1.42.79,0,.17.93.27,1.43.4h.61l.61,0,.06,3.83c-.13,1-.35,2-.38,3.05-.12,4.43-.18,8.87-.26,13.31l-2.5,7.38c-1.59.25-2.79,1-2.85,2.74-.24,7,.25,14-2.45,20.71-.33.82.56,1.44,1.44,1.67a6.4,6.4,0,0,1-.49,4.94c-1.72,0-2.65.78-2.64,2.56-.52,1.8-2.9,3.93.88,5l-1.4,7.08-2.06.51a2.39,2.39,0,0,0-2.38,1.17l-3.84-1.2,1.11-5c1.88-1.78,1.47-3.76.5-5.78l.2-3c1.77-.19,2.32-.94,1.13-2.47A37.29,37.29,0,0,1,539,185.71c1.46-.4,1.85-1.47,1.87-2.84.11-6.13.25-12.26.37-18.39.21-1.7.42-3.39.62-5.08C544.44,157.59,543.66,155.42,542.53,153.21Zm16-49c-.32-1.8.55-3.68-1.42-4.63a1.4,1.4,0,0,0-2,.82c-.54,2.58-1.4,5.29-1.08,7.81s3,2.31,5.09,2.08c.82-.1,1.65-1.46,1-1.53C555.66,108.37,558.93,105.57,558.56,104.25Zm.4-7c-1-2.06,1.66-4.8-1.44-6.32-.24-.12-1.21.53-1.31.94A4.37,4.37,0,0,0,559,97.26Zm-11.88,64.91c.94-.59.74-1.36.31-2.12-.19-.33-.61-.86-.77-.81-1,.32-.65,1.24-.63,1.95S546.24,162.38,547.08,162.17Zm9.66-39.5c-.35-.15-.77-.49-1-.39s-.33.63-.48,1c.34.15.77.49,1,.39S556.58,123,556.74,122.67Zm74.5-49.42c-.22.27-.45.54-.68.8a4.12,4.12,0,0,0,.87.31c.1,0,.38-.33.34-.41A3.49,3.49,0,0,0,631.24,73.25Z" style="fill:#141110"/><path d="M148.61,47.52l5,.55c1.88,1.55,3.94.88,6,.45l1.33.13c2.81,2.17,5.81,1.73,8.86.64,2.88.29,3.05,3.53,5.14,4.67.39,3.94,3.34,4.56,6.46,5l-.06-.07c-.11,1.83.76,2.69,2.6,2.55l-.07-.07c-.15,1.81.7,2.69,2.51,2.68l1.07,1.06c.61,3.4,1.5,6.55,5.87,6.64,5.49,2.62,5.47,7.48,5.11,12.48a7.55,7.55,0,0,0-.83-.13,7.46,7.46,0,0,0-5.08-2.45A2.62,2.62,0,0,0,190,80.37c-1.9.5-4.83.37-4.3,3.16.39,2.07,2.53,2.55,4.3.61h2.5c.06,3.42-1.42,6.08-4.57,7.31-1.69.66-4.38.49-4.79-1.59-.71-3.55-4.31-4.3-5.71-7l1.24-1.23a3.73,3.73,0,0,0,4.52-3.09,1.71,1.71,0,0,0-.58-1.52c-2.14-1-2.6,1.42-3.94,2.09-2.3.44-4.65.8-5,3.78l-1.26,0c-.42-3.35-3-2.28-5-2.51h0c-.17-1-.29-2.1-1.59-2.26-1.68-.22-2,1-2.19,2.25-.74.25-2.56.25-.72,1.4,1.25.78,3,.78,4.5,1.12h2.49c.54,2.66-1.39,4.32-2.55,6.29-2.06.25-4.3-.73-6.14.93l-3.94,0a4.61,4.61,0,0,0,0-1A2.07,2.07,0,0,0,155,86.73a2.32,2.32,0,0,0-2.74,2.43c-2.51,2-5-.93-7.51,0l-1.32,0c-.85-2.91,2.18-6.91-2.49-8.74-1.26-2-2.51-.34-3.76,0h-3.78c-.59-1.83,2.82-2.53,1.18-5-2.32.62-5.1,1.4-5.27,3.87-.14,1.9,2.63.81,4.08,1.16a2.29,2.29,0,0,0,2.52,2.5,2.61,2.61,0,0,0,1.26,2.5v1.27c-2.49.59-4.51,4-7.55,1.25a8.42,8.42,0,0,0-5-1.26h0c-.31-2.11.82-4.51-1.26-6.27,1.2-4.39-2.59-4.79-5-6.25,0-1.39.22-2.87-1.26-3.78l-.25-2.76h-.74l-.25,2.76h0c-2.11,1.39-4.22-.43-6.33,0l-3.78-1.67c3.3-4,7.7-6.15,12.74-7.08,1.72,0,3.45,0,3.72-2.31a13.13,13.13,0,0,1,8.55-4.5c5.15,3.48,7.09-1.82,10.27-3.75l2.91-1.91C145.57,48.89,147.56,49.55,148.61,47.52Zm25,21.57c-.5-2.67-1.68-3.31-3.77-1.25-2-.71-4.88-2.87-5.72.28s2.89,1.66,4.49,2.44c.74.36,1.4.87,2.14,1.24C174.21,73.5,173.42,70.75,173.66,69.09ZM150.6,73.21c-2.56.32-3.83,1.38-4,3.42,0,.29.8,1,1.18,1C150,77.37,150.43,75.69,150.6,73.21Zm11.24-16.46c-.23-1.3-1.24-1.4-2.31-1.34s-2,.64-1.93,1.88,1,1.72,2.18,1.5A2.41,2.41,0,0,0,161.84,56.75Zm3.67-.07c-.58.79-1.28,1.35-1.42,2-.24,1.13.73,1.4,1.48,1a3.43,3.43,0,0,0,1.23-1.81C166.87,57.69,166.1,57.2,165.51,56.68Zm-24.44.12c-.5.62-1,1-1.07,1.41s.26,1.34.59,1.45c.94.3,1.44-.4,1.4-1.26C142,58,141.5,57.51,141.07,56.8Zm-13.94,8.91c-.48-.4-.91-1-1.25-1a1.56,1.56,0,0,0-1,1.08c-.11.81.29,1.61,1.28,1.36C126.54,67.08,126.75,66.33,127.13,65.71Zm54.6.12c.34-1-.18-1.38-.74-1.44s-1.32.11-1.51.45c-.48.85,0,1.48,1,1.5A3.29,3.29,0,0,0,181.73,65.83Zm-25.2,12.22-1.23,1c.36.37.67,1,1.09,1s.84-.42,1.27-.66Zm-19-8.16c.15-.35.49-.77.39-1s-.64-.32-1-.47c-.15.35-.49.77-.39,1S137.16,69.74,137.51,69.89Zm34-8.78c.15-.35.49-.77.39-1s-.64-.32-1-.47c-.15.34-.49.77-.39,1S171.12,61,171.47,61.11Zm-48.7,8.76-.08.93c.12-.14.32-.28.33-.43S122.87,70,122.77,69.87Z" style="fill:#141110"/><path d="M129.65,87.9c3,2.74,5.06-.66,7.55-1.25l1.24,1.24c1.32,1.85,3.29,1.07,5,1.22l1.32,0c-.45,1-.89,2-1.34,3l-2.55.51c-3.47-1.33-6.36-.47-8.75,2.29-3.57-.83-6.65,1.49-10.09,1.54-3.32-1.83-5.69-.52-7.59,2.31-2.27,3-5.75,2.08-8.77,2.67-4.86-.74-8.87.43-11.29,5.08-4,2.75-7.34,6.7-12.6,7.34-1.88-1.29-2.34-.17-2.5,1.46-3.87,1.93-7.67,4-10.34,7.52-2.29,0-3.67,1-3.58,3.43l-1.95.73c-2.51-.48-3.08,1-3.14,3.06l-.23.19c-2.65-.15-3.74,1.15-3.48,3.71a34.88,34.88,0,0,0-8.92,14c-1.57.22-2.76.64-1.4,2.49l-1.95,6.2c-1.28.69-1.82,1.49-.42,2.61a16.64,16.64,0,0,1-3.63,7.53c-3.16,1-2.79,2.86-1.3,5l-4,10c-1.54.27-2.74.71-1.17,2.46l0,3.93c-1.2,5.46-2.36,10.92.59,16.23,1.94,3.09-1,5.86-.6,8.85-1.49,1.73-1.29,3,1,3.68.77,1.64,1.51,3.3,1.18,5.19-.6,1.81-1.37,3.66,1,4.85a5.08,5.08,0,0,1,.61,3.81c-1.33,1-1,2.37-1,3.67-1.9,0-3.6.31-4.29,2.42-.84-1.14-1.85-2.19-1.7-3.77,1.5-1.46.55-2-.89-2.43l-.48-2.55c1.63-2.61-.24-3.85-2-5.11,1-2.79-1.39-4.95-1.42-7.54,1.19-1.57,1.09-2.83-.9-3.61l-.49-2.59.91-1.13c3.62.42,5.19-.93,5.06-4.81-.25-7.21-2.33-14.56,1.16-21.57v-6.22l1.28-3.78c0-1.38-.22-2.85,1.25-3.75.87-.42.85-.84,0-1.26,0-.42,0-.83,0-1.25,2.45-2,2.64-4.7,2.52-7.52V155.6c1.59-.25,3.16-.51,1.26-2.51a78.15,78.15,0,0,0-.19-11.53c-.59-4.55-5.66-5.12-5-9.15l.87-3.13c2-.27,1.81-1.86,2-3.23l-.05-.37.37,0,5.81,1.11,1.24-1.24c1-2.09,5.81-.58,4.76-3.63-1.66-4.79,2-7.63,2.8-11.42,4.67,1.42,6.36-6,11.32-3.77,3.45,3.63,7.42,3.6,9-.21,1.45-3.6.25-9.36,7.18-8,2.21-5.79,7.22-4.07,11.52-4.29,2.41,1.36,6.61-.53,7.26,4.31.13,1,1.82.06,2.8-.93,2.11-2.13,5.21-5.78,7.49-4.16,5,3.54,7.74.64,10.69-2,2.14-1.94,3.92-4.19,7-4.69h0a4.7,4.7,0,0,0,3.84,4.2C130,91.1,129.44,89,129.65,87.9ZM57.42,115a3.13,3.13,0,0,0-3.5-1.89c-.79.06-1.81.23-1.68,1.33.21,1.78,1.6,2.19,3.13,2.23C56.49,116.65,57.39,116.31,57.42,115ZM47.28,131.27c-1.17-.28-1.65.24-1.61.85a3.17,3.17,0,0,0,.76,2.14c1,.73,1.41-.18,1.38-1A8.27,8.27,0,0,0,47.28,131.27Zm1.11-4.17c.35.15.77.5,1,.4s.33-.64.48-1c-.35-.15-.77-.5-1-.4S48.54,126.75,48.39,127.1Z" style="fill:#0e0b0b"/><path d="M326.83,202.7l2.63-4.79c.27.56.51,1.13.83,1.66,1.19,2,3.06,4.48,5.19,2.85,2.73-2.08-1-3.15-1.94-4.6a6.43,6.43,0,0,1-1.41-3.32c.11-1,.19-2,1.24-2.5.95,1.43,2.42,1.18,3.81,1.19a2.27,2.27,0,0,0,2.46-2.43c3.23-4.62,2.93-9.23,0-13.85-1-3.72,2.31-8.22-2.06-11.34l-.59-3.65c2.09-1.46,1.92-2.75-.28-3.9-.83-1.39-2.43-2.34-2.45-4.2.47-1.56.31-2.83-1.54-3.3L331,145.37c2-3.9-1.09-3.42-3.25-3.74-1.48-.43-1.54-1.87-2.09-2.95.05-2.56-.39-4.84-3.27-5.73-1.12-.47-1.25-1.48-1.37-2.5,2.27-2.44,4.26-5.1,7.58-.84,1.43,1.83,4.22.87,6.43.61l-.35.27.33-.29a22.74,22.74,0,0,1-1.9,2.44c-4.11,4-3.9,5.16,1.61,7.89,4.16,6.06,7.56,12.4,8.66,19.85.52,3.5,1.85,7,6.63,6.62.67,6.74,1.92,13.53-1.3,20-2,0-2.75,1-2.54,2.94-1,3.16.32,7-3,9.43a16.38,16.38,0,0,0-5.12,12.5l-.15,3.87c-2,.64-2.34,1.5-.35,2.65,0,.36,0,.73,0,1.09-2.75,1.13-5.67,2.09-5.45,5.93L330.68,227a2.38,2.38,0,0,0-2.47,2.14l-.28.28c-3.55.5-5.59,2.47-6,6.07-.63,1.06-1.69.88-2.68.93-1.71-1-3-.82-3.53,1.31l-3.87.29c-3.25-2.14-5.84.11-8.6,1.27a26.92,26.92,0,0,1-8.88-1.62c-.43-2.11-2.12-1.82-3.63-1.89l-1.4-.67c-.4-1.46-1-2.29-2.44-.85-8-2.47-13.64-7.82-18.14-14.61-1.46-2.2-3-4.34-4.53-6.51-.11-1.69,0-3.53-2.43-3.71-2.36-1.28-1.37-4.35-3.17-5.93l4.22-1.57c1.61,4.55,4.23,8.2,8.91,10.05a7,7,0,0,0,4.71-1.14c3.13,1.82,4.2,5.46,7.21,7.6,8.76,6.27,17.22,4.3,25.84.11,1.76,1.32,3.21,1.59,3.83-1.08l2.21-1.78c2.61.39,4-.65,4.08-3.36l.2-.18c1.88.07,2.18-2,3.56-2.62l2.4,0c0,.41,0,.82,0,1.24-.87.71-1.38,1.68,0,2.17,1.77.66,2.4-.59,2.56-2.15a2.26,2.26,0,0,0-2.5-2.5L324.49,207l.55-1.16C326.84,205.46,327.13,204.25,326.83,202.7Zm-11,22.63c.39,1.33-1,4.24,2.32,3.51,2.66-.6,6.42-.73,6.93-4,.3-2-2-3.84-4.62-4C317.39,220.69,315.76,222.05,315.79,225.33Zm-32-1.24a16,16,0,0,0-2.77-2.53c-.79-.47-1.44.28-1.52,1.24-.14,1.66.42,2.81,2.28,2.86C282.53,225.68,283.4,225.68,283.75,224.09Zm3.28,3.49c.06.91.52,1.72,1.43,1.48a2.66,2.66,0,0,0,1.62-1.59c.26-.91-.55-1.47-1.46-1.44A1.65,1.65,0,0,0,287,227.58Z" style="fill:#141110"/><path d="M262.89,201.94l-4.22,1.57-1.92-1.81c0-1.7-.11-3.33-2.35-3.55-1.55-.78-1.65-2.18-1.58-3.66,1.69-5.23-3.31-7.54-5-11.31.09-1.67.18-3.34.26-5a3.59,3.59,0,0,1,3.37,2.36c.23.59.1,2,1.41,1.19a5.53,5.53,0,0,0,1.65-1.72c-3.12-3.81,1.47-5.67,2.18-8.45,2.46-9.62.07-19.82,4-29.31.78.2,1.79.42,2.78.72,4.19,1.26,7,.73,8.54-4.26,1-3.13,1.34-6.93,4.66-9.66-6.24,2.41-11.71,1.4-16.93-1.84-.86-.54-2.74-.29-2.41.81,1.54,5.11-5.75,7.4-3.43,12.59-2.18-3.2.53-7.13-2.16-10.06a17.88,17.88,0,0,1,3.08-8.76c6.2,1,6-2.83,4.7-7.77,2.74,1.26,4.58,2.19,6.48,2.94,1.34.54,2.35,3.1,4.14,1.07a4.47,4.47,0,0,0,1.06-3.47c-.69-2.66-2.61-.54-4-.74-3-.42-6.73-1.33-6.41-5,.3-3.36,4.13-1.1,6.24-2,1.82-.76,2.93,2.25,5.36,1.56-1.14-2.91-3.67-5.89-.61-8.83,1-1,3.1-1.36,1.91-3.1-.69-1-2.45-1.5-3.82-1.81-1.78-.4-2.62.84-3,2.42s0,3.61-3.24,2.77c1.28-3.07,1.31-7.65,4.05-8.57,3.41-1.13,4.36-2.16,4.23-5.52-.12-3.21,1.81-3.39,4.06-1.61,3,2.39,5.56,5.11,5.05,10.22,3.24-2.85,5.54-4.61,2.69-8.27-1.25-1.61.42-4.15,1.94-2.66,3.13,3.06,5.92.28,8.76.69.91,1.47,2.39,1.22,3.77,1.24,3.26.19,3.9,2.32,3.78,5-4.06-1.56-8.08.23-12.13.22-1.81,0-6.06,8.71-5.3,10.43,1.21,2.74,3,2.28,4.86.64h5c0,1.82,0,3.65,2.53,3.77,3,2.34,5.19.1,7.55-1.26H307l1.25,1.27,0,1.38c-2.33,1.93-7,.08-7.62,4.78l-.06,0c-2.25-.1-3.88.52-3.8,3.18l-4.91,1.82c-2.58-1.65-2.32,0-2.05,1.73l-.28-.18.24.23c-2.52-.59-3.74.74-4.35,2.95l-.25.17c-1.66.38-2.58,1-1,2.67-.18.79-.37,1.58-.56,2.38-3.92.68-4.1,3.28-3.26,6.38l-2.48,5c-4.8,1.57-3.64,5.06-2.74,8.46,0,2.56-1.64,4.42-2.68,6.55-2.63,3.42-4.61,7-2.17,11.37-.2,4.14-3.89,7.14-3.77,11.39-.55,6-4.12,12.05.63,17.84a1.35,1.35,0,0,1-1.24,1.56l-1.61-1.85-1.3-.06-2.51-3.76c-.28-1.31.58-3.65-2-3.06-1.48.34-2.12,1.75-.48,3.06,1.08,2-3.77,6.33,2.48,6.32a2.68,2.68,0,0,0,1.22,2.51ZM278,108a34.77,34.77,0,0,1,4.83-.65c1.05,0,2.2.49,2.4-1,.23-1.65-1-2-2.39-2.12-2.75-.22-5.16,0-4.83,3.73-1.12.16-2.53-.38-3.1,1.09-.09.23.56,1.06.95,1.12C277.56,110.44,277.86,109.21,278,108Zm4.47,11.63c-1.05-4.8-3.58-6.43-6.57-6.19-2.35.19-3.13,3.88-2.54,4.91C275.66,122.23,279,117.82,282.51,119.58Zm-23,32.61c8.09,2.44,8.09,2.44,6.37-6.68C265,149.51,262.24,150.57,259.55,152.19Zm1.28,24.47c.82-4.29,1.75-6.84-.87-9.64C259,170.15,258.68,172.56,260.83,176.66Zm12-50.68-1-1.22c-.37.35-.95.67-1,1.08s.41.84.65,1.26Zm-3.61-15.4a8.23,8.23,0,0,0-1.73-1.18c-.29-.09-.72.25-1.08.4.31.46.52,1.12,1,1.33S268.29,110.88,269.21,110.58Zm7.23,11.7-.45,1c.35.14.77.48,1,.38s.33-.63.48-1Zm11.32-12.58c-.15.34-.49.76-.39,1s.63.32,1,.47c.15-.34.5-.76.4-1S288.11,109.85,287.76,109.7Z" style="fill:#090606"/><path d="M705.24,149.22c-.62-4.52-2.75-8.59-3.65-13.12-2.7-13.54,2.82-24.18,10.51-34.34a7.53,7.53,0,0,0,1.16.07c-.21,3.66,3.82,9.26-4.33,9.33-.35,0-1.06,1.43-1,2.1a15.43,15.43,0,0,1-3.57,12.25c-.21.26,0,.82,0,1.23-.86.42-.94.85,0,1.31h0c.11,1.11-.37,2.63,1,3.08s1.31-1,1.53-1.85c2.21-3.73,2.31-8.67,6.49-11.26-1.41,6.72-4.78,13-2.47,20.41,6,19.28,19.06,33.5,38.42,33.61,5.6,0,11.2,1.16,16.8.12,1.5,1.54,2.12.64,2.51-.9,1.44-.14,2.9-.2,4.33-.43,9.12-1.49,10.88-.46,13.59,8.07,1.5,4.72-1,8-5.63,6.61s-8.74.67-12.74,1.46c-7.53,1.49-14.79.64-22.17.27-1.08-2-2.37-1.92-3.83-.41a22.72,22.72,0,0,1-17.54-8.92c-.64-2.64-1.54-5-5-4.81-5.42-3.35-7.56-9.11-10.57-14.24C710.23,154.68,708.27,151.74,705.24,149.22Zm49.34,29.34c0-2.52-1.49-2.91-3.38-2.87-2.2.05-2.78,1.34-2.8,3.28,0,2.36,1.44,3.71,3.41,3.62C754.14,182.48,754.19,180.12,754.58,178.56Zm-49.64-41.33c.13-.08.34-.13.39-.24s0-.32-.06-.49l-.61.32Z" style="fill:#241f1e"/><path d="M32.31,237c.69-2.11,2.39-2.43,4.29-2.42l1.9,0,.9,1.63c-.31,1.53-.26,2.88,1.6,3.38l.84,1.83c-.26,1.57,0,2.84,1.87,3.18-.2,3.36,3,4.65,4.33,7.08-.89.32-2.4,1.37-1.89,1.6,1.86.84,2.44,4.48,5.49,2.7l2.43,4.11c.06,1.61.22,3.14,2.29,3.4l1.44,2.07c.54,2.32.76,4.86,3.83,5.39l6.27,5.52c.44,1.22-.38,3.94,2.58,2.17l15.13,8.08c3.81,3.76,8.17,5.91,13.69,4.77l2.66.42c1.4,2.34,3.13,2,5,.58l7.7,0c.83,1.17,1.63,1.1,2.39-.08,2.54.87,5.09.07,7.64.08,1.48,1.47,2.78,1.31,3.9-.44l3.65-.78c1.37,1.43,2.11.69,2.62-.77l2.42-.44c1.63,1.28,3,1.3,3.76-.9l8.85-.37c1.59,1.31,2.18.29,2.61-1.11l1.27.09,6.07.74c0,2.94-2.15,3.75-4.43,4.08-3.53.53-3,2.41-1.85,4.67-1.39.06-2.88-.19-3.81,1.25a20.18,20.18,0,0,0-16.1-3.25c-2,.42-3.21.93-3.39,2.49-.33,2.92,1.72,1.07,2.85,1.13a5.05,5.05,0,0,1,4.14,2.26l-2.21.13c-5.5,2.24-11.52,2.18-17.29,3.46,2.57,1.48,5.14,2.56,7.68,1.21,2.77-1.47,4.67-.15,6.68,1.35l-.09,1.53-4.94.67c-2.5-.36-5-1.89-7.44.2l-1.27-.26c-1.74-1.45-3.55-2.57-5.88-1.26a9.87,9.87,0,0,1-5.44-.81c-.49-1.08-1.49-1.23-2.5-1.36-.38-1.59,5.18-.8,1.56-3.18-1.73-1.15-5.24-2-6.66,1.67a1.56,1.56,0,0,0,.06,1.2c-2,.55-3.49-.48-5-1.43-.29-2.1-1.93-2-3.44-2.07-1.87-1.19-4.21-1.73-5.38-3.89-.49-2.49-1.73-2.88-3.69-1.34-7.55-3.44-15.21-6.73-20.08-14-.46-2.65-.65-5.51-4.34-5.7q-8-10.5-16.06-21c.17-1.32,0-2.45-1.5-2.91l-.49-2.61c1.47-1.84,0-2.13-1.32-2.47C35.69,244.8,32.57,241.64,32.31,237Zm79.84,62.39a8.8,8.8,0,0,0-2-.68c-.6-.08-1.43.32-.85,1.07a3.67,3.67,0,0,0,2.05,1.07C112,301,112.65,300.65,112.15,299.39Zm-22-6.54-1.63.68a5.7,5.7,0,0,0,1.29,1.08c.25.11.72-.24,1.09-.38Z" style="fill:#0f0e0d"/><path d="M137.23,301.14a5.05,5.05,0,0,0-4.14-2.26c-1.13-.06-3.18,1.79-2.85-1.13.18-1.56,1.4-2.07,3.39-2.49a20.18,20.18,0,0,1,16.1,3.25c.76,3.77,3.07,2.48,4.84,1.2,2.21-1.59.46-2.1-1-2.45-1.18-2.26-1.68-4.14,1.85-4.67,2.28-.33,4.43-1.14,4.43-4.08l0,0c2.35-.46,4.79-.79,4.95-4,4.31.33,6.77-4.08,10.48-4.44,10.17-1,17.78-6.82,25.7-12.24,2.68-1.84,4.76-.29,6.45,1.69s2.89,3.94,4.32,5.92c-4.12,3.42-7.85,7.48-12.76,9.71-3.59,1.63-7.22,2.82-9,6.67l-1.52,0c-2.06-1.07-3.2-.49-3.36,1.85l-1,1.09-1.58,1.11-5.08,2.3c-1.57-1.41-2.29-.66-2.61,1-.69,1.78-2.31,1.35-3.66,1.54-1.31-1.46-2.07-.87-2.57.68-5.17.27-10.11,1.67-15,3.12-3.13-.78-5.72-.09-7.5,2.76-2.58-.79-4.94.8-7.45.68-1.76-3.68-4.41.43-6.45-.74-2-1.5-3.91-2.82-6.68-1.35-2.54,1.35-5.11.27-7.68-1.21,5.77-1.28,11.79-1.22,17.28-3.46,1,4,3.88,1.91,6.05,1.77.9-.05,1.19-1.36.7-2C140.3,299.11,138.77,301.45,137.23,301.14Zm30.06-5.47L165.43,297c.32.4.56,1,1,1.15.75.22,1.65.11,1.6-1A4.61,4.61,0,0,0,167.29,295.67Zm11.82-2.78c-1.8-.76-3-.85-4.4.1A4.68,4.68,0,0,0,179.11,292.89Zm-7.41,2.57c-.34-.11-.74-.37-.95-.27s-.34.58-.5.89c.29.1.69.36.87.25S171.51,295.77,171.7,295.46Z" style="fill:#161313"/><path d="M294.39,84.14c-2.84-.41-5.63,2.37-8.76-.69-1.52-1.49-3.19,1-1.94,2.66,2.85,3.66.55,5.42-2.69,8.27.51-5.11-2-7.83-5.05-10.22-2.25-1.78-4.18-1.6-4.06,1.61.13,3.36-.82,4.39-4.23,5.52-2.74.92-2.77,5.5-4.05,8.57,3.21.84,2.88-1.3,3.24-2.77s1.23-2.82,3-2.42c1.37.31,3.13.8,3.82,1.81,1.19,1.74-.91,2.14-1.91,3.1-3.06,2.94-.53,5.92.61,8.83-2.43.69-3.54-2.32-5.36-1.56-2.11.88-5.94-1.38-6.24,2-.32,3.66,3.39,4.57,6.41,5,1.37.2,3.29-1.92,4,.74a4.47,4.47,0,0,1-1.06,3.47c-1.79,2-2.8-.53-4.14-1.07-1.9-.75-3.74-1.68-6.48-2.94,1.34,4.94,1.5,8.8-4.7,7.77,2.77-13.19,6.54-26.16,14-37.44,3.92-5.92,9.83-10.53,14.82-15.76a2.87,2.87,0,0,1,3.94-.57c8.53,5.54,18.6,7.89,27.3,13.08,2.23,1.33,4.11,2.86,4.47,5.63-1.5.9-3.55,1.28-3.54,3.65l-3.8,5c-2.19-.08-4.11,2.18-6.77.56,1.29-3.1,2.44-6.47-3.26-5.56h0c.12-2.71-.52-4.84-3.78-5C297.65,82.72,296.47,82.09,294.39,84.14Z" style="fill:#141110"/><path d="M382.25,234.56q-.22,3.7-.43,7.42c-2.91,1.21-2.44,3.05-1,5.08.16,6.13,2.29,11.85,3.67,17.72-1.4,6.22-5,6.45-9.85,3.69a7.23,7.23,0,0,0-4.73-1.34c-11.9-7.82-13.88-12.69-8.74-21.28.86-1.44.09-2.84,0-4.25-.34-4.06-2.75-8.37,2.55-11.41,1.58-.9-.88-4,1.25-5.57a18.69,18.69,0,0,1,1.16,2.75c1,4,3.85.27,5.74,1.33.89.5,2.08-2,1.06-2.68-4.65-2.88-.3-6-.57-9h2.47c5.15.68,4.87,5.24,6.24,8.63a11.19,11.19,0,0,0,1.38,2l-1.22.68c-2.6,1.82-2.64,3.43-.1,5Zm-9.55,15.37a1.49,1.49,0,0,0-1.32,1.73,1.46,1.46,0,0,0,1.61,1.47,1.52,1.52,0,0,0,1.55-2.06A1.48,1.48,0,0,0,372.7,249.93Zm2,6c-.67-.48-1.08-1-1.5-1s-1.31.32-1.41.67c-.28,1,.52,1.38,1.35,1.31C373.57,256.87,374,256.38,374.68,255.93Zm-3.22,3-.53-.19c-.06.16-.2.41-.15.45a.79.79,0,0,0,.51.18C371.35,259.33,371.4,259.05,371.46,258.89Z" style="fill:#191515"/><path d="M458.32,149.25l-.12,1.25c-2.45,1.43-2.76,4-3.4,6.37q-2.15-4.35-4.31-8.71c0-4.72,3.43-8.82,2.45-13.71l.1-.08c4.2-6,1.64-13.36,3.8-19.78a5.72,5.72,0,0,0-1-.58l.39-1.22c3.78-.38,3.33-2.39,1.85-4.79.11-1.65.22-3.3.34-5,1.74-5.74,1.69-11.71,2.2-17.61.22-1.25.43-2.49.65-3.74l.51-.14,0-.52L463,79.66c.71.26,1.75.33,2.06.83,3.9,6.38,5.2,3.12,6.19-1.59a14.68,14.68,0,0,1,.61-1.76c3.14.59,1.87,4.09,3.68,5.56-.06,1.6.4,2.77,2.29,2.76,4.57,1.67,1.12,8.32,8.08,9.63-9.87,0-12.15,6.27-15.31,11.57-.79,2.51-5,4.18-1.92,7.66l-.23,3.53c-5.23,7.18-7.12,15.46-8,24.08h0l-1.08.58.76.59a4.05,4.05,0,0,1,.33.78c0,.13-.12.29-.19.44-2.05,1-5,.34-5.88,3.21C454.42,147.7,457,148.65,458.32,149.25Z" style="fill:#0e0b0b"/><path d="M403.47,88c-2.79,3.52-.29,7.48-.93,11.17-4.18,3.86-3.61,8.34,1.27,10,.43,7.87-1.43,15.1-7.52,20.35-3.63,3.13-6.32,6.47-7.44,11.08-.34,1.4-.75,3.38-2.48,3-2.35-.54-1-2.59-.93-4.12q1-13.22,1.74-26.43c0-.43-.75-.92-1.15-1.38,0-.81,0-1.63,0-2.44,1.25-.18,2.5-.4,2.43-2.07-.05-1.31-1.12-1.52-2.13-1.74l-1.17-1.19.84-3.7c2.57-1.66.68-4.07,1.09-6.06,1-4.86-3.82-12.81,6.54-13,.47,1.94.57,4.09,1.49,5.79,1.55,2.85,3,2.13,3.69-.72l3.56.14Z" style="fill:#141110"/><path d="M832.53,43.76A2.52,2.52,0,0,1,830.06,45c-1.63-1.62-2.91-1.41-3.8.75l-1.57.29c-1.42-.86-2.75-.13-4.17.11-6.65,1.08-12.53,5-19.36,5.27-4.42.16-6.06,2.62-6.42,6.54l-2.39,1.12c.11-1.69-.89-2.66-1.78-4-2.37-3.61-7.45-4.82-8.27-9.61,7.16.36,11.73-5.18,17.63-7.68l3.82.11c.85,1.43,2.2.91,3.42.87,4.5-.53,9.82,6.35,13.53-1.47,5.37,1.88,9.72-.26,14-3.19-1.2-2.09-4.68-.77-4.64-3.81,2.79.87,5.61,1.54,8.49.53,2-.7,3.77-.78,4.6,1.5,1.31,3.56,3.86,2.72,6.6,2.29,6.4-1,12.43-4.88,19.27-2.55,0,1.14.09,2.27.14,3.41l-3.89.89c-4-.93-7.65-.69-10.08,3.27l-2-.28c.06-.54.12-1.08.17-1.62-.07.54-.15,1.08-.23,1.62l-14.33,3.1C836.45,41.44,834,40.2,832.53,43.76Z" style="fill:#0e0b0b"/><path d="M713.31,118c-4.18,2.59-4.28,7.53-6.49,11.26l-2.5-1.23h0l0-1.31c0-.41-.18-1,0-1.23A15.43,15.43,0,0,0,708,113.26c-.09-.67.62-2.09,1-2.1,8.15-.07,4.12-5.67,4.33-9.33a2.58,2.58,0,0,0,.75-3l.25.3-.21-.33c5.53-1.35,9.07-4.94,11.27-10l.29.38-.26-.4c4.06-2.12,8.19-4.18,9.28-9.26l6.26-2.6c2.71,1.19,3.44-.46,3.79-2.64l.05,0c1.79.12,3.35-.14,3.74-2.3,2.38-.66,4.29-4.27,7.27-1.15,0,2.45,1.07,4.17,3.61,4.72.29.58.58,1.15.86,1.73-.08.41-.21.81-.25,1.22-.46,4.52,1,10.6-7.61,6.2-2.5-1.28-9-2.25-8.32,5l-.18.21c-2.69-.87-3.94.39-4.37,2.9l-.08.06c-7.94,1.32-12.63,5.1-13.79,11.12-.45,1.13-1.55,1-2.45,1.23-3.06-1.56-2.07,1.22-2.58,2.39l-1.05,1.69c-2.11.67-2.72,2.33-2.85,4.3Zm24.5-34.81a1.26,1.26,0,0,0,.14-.47c0-.06-.24-.1-.37-.15a1.16,1.16,0,0,0-.14.47S737.68,83.15,737.81,83.2Z" style="fill:#0e0b0b"/><path d="M251.71,130.55c2.69,2.93,0,6.86,2.16,10.06-2.32-5.19,5-7.48,3.43-12.59-.33-1.1,1.55-1.35,2.41-.81,5.22,3.24,10.69,4.25,16.93,1.84-3.32,2.73-3.67,6.53-4.66,9.66-1.57,5-4.35,5.52-8.54,4.26-1-.3-2-.52-2.78-.72-3.88,9.49-1.49,19.69-4,29.31-.71,2.78-5.3,4.64-2.18,8.45a5.53,5.53,0,0,1-1.65,1.72c-1.31.78-1.18-.6-1.41-1.19a3.59,3.59,0,0,0-3.37-2.36c-2-11.75.75-23.24,2.4-34.69C251.13,139.15,248,134.49,251.71,130.55Z" style="fill:#141110"/><path d="M530.59,79.58c.3,4.86,3.88,8.82,3.78,13.86,0,1,1.75.58,2.72.73-3.17,3-7.23,4-11.3,5,1-5.09-.5-7-5.84-5.15-2,.69-4,.91-5.49,2.61a2.71,2.71,0,0,0-2.52,1.26c-3.09-.16-5.28,1.12-6.1,4.14-.38,1.36-.66,3.27.72,4,2.16,1.18,3.9-.31,5.4-1.84a2.68,2.68,0,0,0,2.52-1.27h6.28c-.19,3.29-6.09,1.83-5.11,6.1l0,.11c-1.76.08-2.5,1-2.27,2.73l0,0c-3.16-.13-4.52,1.83-5.26,4.5-4.93.81-8.17-1.3-10-5.77-2.86-5.85-3.24-12-2.38-18.36,2.44.87,4.1-1.37,6.27-1.57,1.77,1.51,2.33.5,2.55-1.22.56-1.91,2.08-2.24,3.77-2.31,1.55,1.34,2.1.25,2.58-1l3.68-.33c5-.82,10.71.05,13.49-5.83Z" style="fill:#0e0b0b"/><path d="M34.07,168.14c-1.47.9-1.21,2.37-1.25,3.75-2.54.13-2.54,1.94-2.52,3.77.31,2.09-.84,4.48,1.23,6.23-3.49,7-1.41,14.36-1.16,21.57.13,3.88-1.44,5.23-5.06,4.81L23.67,207c-1-2.11-1.24-4.19.21-6.21.14-7.56,1.17-15.16-1.12-22.59L25,166.91c1.43-.56,1.93-1.31.51-2.46l.61-3.81c3.18-3.27,3.63-7,2.08-11.18l.55-3.86c2.27-1.44,1.95-3.15.52-5,.48-3,.84-6,3.32-8.22-.61,4,4.46,4.6,5,9.15a78.15,78.15,0,0,1,.19,11.53,2.59,2.59,0,0,0-1.26,2.51v2.51c-3.25-.4-5,1.4-5.75,4.22-.63,2.5,1.28,3,3.23,3.3,0,.42,0,.83,0,1.25Z" style="fill:#0f0e0d"/><path d="M634,145.43c-2.65,3.13-5.3,0-7.95,0q.24-3.56.47-7.11l.16-.11c5.52-3.17,6-8.8,6.95-14.2l.29.21-.27-.22c4.79-.48,4.33-3.91,4.07-7.22,1.09-2.2,1.83-4.62,3.81-6.29,1.45-.28,3.07-.47,1.39-2.49l1.68-3.7c5.81-2.48,8.32-8,11.78-12.66l4.17-1.13c0,.8.07,1.59.11,2.39-1.71.73-1.51,2.31-1.67,3.73-1.49,1-1.37,2.49-1.07,4a8.87,8.87,0,0,1-2.26,5c-3.17.23-4.21,1.83-3.1,4.8-.4,2.26-.85,4.48-2.56,6.19-3.52,2.4-5.14,6-6.15,9.91l-1.27,2.68c-3.39,3.09-4.26,7.23-4.8,11.5L636,142.89C634.42,143,634.21,144.21,634,145.43Z" style="fill:#0f0e0d"/><path d="M884.2,28.46c3.37-.54,7,.29,10.09-1.7C898.55,28.51,900,24,903,22.91c2.33.78,4.11-1.47,6.35-1.13,6.87.08,12.83-4.36,19.77-3.93a97.58,97.58,0,0,1,4,9.74c.68,2.25,1.69,5.38-1.15,6.74-2.55,1.22-5.7,1.67-8.17-.76-5.14-5.05-11-4.28-17.08-2.25-1.25-1.42-2.13-1.19-2.67.59-6.77,2.65-14.08.7-21,2.4-.08-.54-.17-1.07-.25-1.61C883.35,31.29,883.77,29.87,884.2,28.46Z" style="fill:#141110"/><path d="M844.89,114.31c0,1.68-.09,3.35-.14,5-1.3,1.2-.8,1.94.63,2.44l-.48,2.5c-5.52-.14-5.92.69-3,6.25-2.93,2.7-4.14.72-5.18-1.86-.74-1.82.49-4.13-1.44-5.64l.65-2.36c3.18-5.62,1.47-11.45.73-17.24.11-1,.23-2,.35-3,3.05-4,2.2-8.25.82-12.54,0-.82,0-1.65,0-2.47,4.14-6.45,2.27-13.38,1.66-20.2l1.11-3.56c2.64-1.35,1.81-6.43,6.28-5.81l.2.18C846,59,850,61.43,848.76,63.62c-4.18,7.32-1.12,15.45-3.3,22.9-.3,1,1,4.69-2.34,1.67-.1,1.16.1,2.45-.34,3.46-2.23,5.12,1.19,8.69,3.27,12.65-.19.73-.38,1.47-.56,2.21-1.5.32-1.47,1.52-1.56,2.67-4.2-.83-.28,3.68-2.68,4C842.06,114.92,843.63,114.1,844.89,114.31Z" style="fill:#191515"/><path d="M598.65,199.47l3.84,1.27a8.46,8.46,0,0,1,5.07-1.25c1.48,2-.62,4-.13,6a5.27,5.27,0,0,1-3.56,3.74c-1.76.55-1.68,1.76-1.13,3.13L598.32,222c-3.34,3.42-2.9,8.66-5.92,12.23-6.69-2.17-8.3-7-6.93-13.31,3.25-3.5,3.18-8.21,4.57-12.39q1.63-2.76,3.25-5.53C596.36,203.76,596.46,200,598.65,199.47Z" style="fill:#191515"/><path d="M61.74,106.7c-5-2.28-6.65,5.19-11.32,3.77-.7-1.32-2-1.3-3.19-1.27a2.82,2.82,0,0,1,2.24-2.36,14.43,14.43,0,0,0,9.94-8.53l.15-.2c4.49-1.59,8-4.23,9.8-8.82,3.06-2,6.72-3.22,9.1-6.25,2.71-.46,5.45-.88,7.31-3.25l3.79-1.87c1.76,0,3.46,0,3.7-2.34l1.51-1.36c1.55,0,3.18.1,3.49-2l1.35-.54c1.65,0,3.38.16,3.67-2.15l2.46-.84c.07,2-.25,4.15,1.16,6s1.2,3.25-1.33,3.18c-6.23-.17-8.35,4-9.87,8.88-1.5-2.83-1.69-5.84-7-3s-8.24,9.09-15.25,9.61c-3.89.29-7.08,2.91-7,8C66.55,103.82,63.91,105.39,61.74,106.7Z" style="fill:#090606"/><path d="M372.38,217c.27,3-4.08,6.1.57,9,1,.63-.17,3.18-1.06,2.68-1.89-1.06-4.76,2.64-5.74-1.33a18.69,18.69,0,0,0-1.16-2.75l.36-2.55c5.59-2.27,4.37-7.16,4.53-11.57.13-3.23-.6-7.77,5.14-3.86a2.21,2.21,0,0,0,3.21-.9,3.16,3.16,0,0,0-.67-4c-3.58-2.83-1.79-4.48,1.1-6,3.36-.42,2.27-3.05,2.5-5,1.89-.49,2.76,2.92,4.95,1.3l1.13,1.18c-.07,2.07-.15,4.13-.23,6.2-3.07,1.84-2.92,3.56.19,5.18-.25,1.17-.51,2.33-.76,3.5-3.38.75-3.24,2.73-1.82,5.15,0,1.29.05,2.58.08,3.88-1.31.8-1.29,1.6,0,2.4-.22,2.93.24,6-1.4,8.67a1.22,1.22,0,0,0-.82-.46,11.19,11.19,0,0,1-1.38-2c-1.37-3.39-1.09-7.95-6.24-8.63,1.86-1.86,1.55-3.72.35-5.89C372.52,212.64,372.4,214.82,372.38,217Zm.89-8a1.7,1.7,0,0,0,.53.16c.06,0,.11-.29.16-.44a1.54,1.54,0,0,0-.53-.16C373.37,208.59,373.32,208.87,373.27,209Z" style="fill:#090606"/><path d="M660.57,90.52l-4.17,1.12c.1-1.86-.24-3.89.41-5.52,1-2.57,1.42-6.57,6.08-4.73-.42.94-.85,1.88-1.27,2.83-.65.49-1.29,1.32-.29,1.68,1.29.46,1.32-.86,1.48-1.75,3.78-.7,6.19,1.44,8.5,4,1.08,1.18,2.3,2.76,4.17,1.86s2.92-3,2.27-4.64c-1.76-4.37,1.57-12-7.43-12-1.47,0-2.4-1.49-2.5-3.12,2.94-3,4.93-7.75,10.59-5.43l.16.15c-.05,4.8-.45,9.72,4.13,13.07l-.42,2.23c-.54.57-1.54,1.14-1.54,1.7,0,6.86-.16,13.47-3.56,19.89-1.94,3.66-2.08,8.26-3,12.44-4.09-2-2.84-5.51-2.5-8.76,2.3-1.72-.95-4.55,1.27-6.28,3.1-.47,2.64-2.67,2.23-4.73-.25-1.21-1.35-1.47-2.43-1.4-2.41.14-2.23,2-2.31,3.62l-1.46,0C667.27,88,666,87,660.57,90.52Z" style="fill:#090606"/><path d="M381.16,158.12c1.7-2.26,7-1.07,5.76-6.52-.29-1.31,2.76.67,4.31.24.41.42.83.83,1.25,1.25-2,4.35-.69,10.23-2.89,13.37-3.68,5.27-1.91,9.44-.86,14.22-.23,1.25-.45,2.5-.68,3.74l-1.87,1.29-.43-.27.46.24c0,1.67,0,3.34-.07,5-6.86-3.82-7.72-6.87-3.95-13.68.48-.86,1.17-2.56.92-2.73-5.39-3.95-1.75-9.09-1.95-13.69,1.78-.11,3.94,1.92,5.31-.9A7.35,7.35,0,0,0,381.16,158.12Z" style="fill:#0e0b0b"/><path d="M172.41,82.88l1.26,0c1.27,2,2.52.31,3.78,0,1.4,2.69,5,3.44,5.71,7,.41,2.08,3.1,2.25,4.79,1.59,3.15-1.23,4.63-3.89,4.57-7.31,0-.84,0-1.68,0-2.52a7.46,7.46,0,0,1,5.08,2.45c.64,4.36-3.91,6.85-4,11l-.24.24c-1.66,0-3.24.21-3.48,2.35-.86,1.91-2.24,1.37-3.63.76A3.23,3.23,0,0,0,183,96c-6.59.66-10.95-3.44-15.71-6.78,1.16-2,3.09-3.63,2.55-6.29Z" style="fill:#090606"/><path d="M842.28,160.56l-.33,2.37c-3.69,4.4,0,8.48.57,12.7l-.39,3.92c-1.39,1.6,0,2.95.38,4.42.59,2.13.72,4.09-2.35,4.25l-.43-.31.48.27c.26,7.74-3.41.37-4.93,1.28,0-.86.05-1.71.08-2.56.7-5-1.42-10-.06-15,1.41-5.19-.19-10.07-1.22-15l.37-2.37c1,.05,1.5-.64,1.87-1.44,1.24-.16,2.64-.36,2.07-2.09-1-3,1-2.83,2.89-2.88C841.66,152.25,840.81,156.5,842.28,160.56Z" style="fill:#0f0e0d"/><path d="M189.93,291.84c1.83-3.85,5.46-5,9-6.67,4.91-2.23,8.64-6.29,12.76-9.71,6.53,2,7.3,8.54,10.14,13.33a4,4,0,0,1-1.65,5.92c-2.7,1.22-5.37,1-7.22-1.57a22,22,0,0,1-2-4.44c1.82-.27,3.22-1,2.49-3.13-.52-1.52-1.27-3-3.23-3.18-2.43-.26-2.56,1.32-2.52,3.06C201.79,287.48,196.24,290.72,189.93,291.84Z" style="fill:#3b3836"/><path d="M446.56,166.88c-2,2.79-1.37,6-1.05,9,.79,7.52-1.6,14.61-2.57,21.88-.36,2.75-2.5,2.19-4.32,2.12-.53-10,.35-19.86.85-29.78,0-.38.5-.75.49-1.12,0-2.69-2.7-5.92,0-7.91s2.69,4.77,6.22,3.09C446.34,165,446.45,166,446.56,166.88Z" style="fill:#6e6c68"/><path d="M782.3,45.49c.82,4.79,5.9,6,8.27,9.61.89,1.36,1.89,2.33,1.78,4a.69.69,0,0,1-.67.88c-.83,0-1.86.41-2.44.06-3.83-2.34-5.42-1.77-6,3.08-.41,3.69-2.74,3.38-5,.69-5.16-6.18-4.5-14.52,1.65-19.32l2.4-.21A1.35,1.35,0,0,0,782.3,45.49Z" style="fill:#141110"/><path d="M661.62,84.22c.42-1,.85-1.89,1.27-2.83,2.13-2.09.65-3.42-1-4.72l1.56-4.92,4.38-1.58c.1,1.63,1,3.11,2.5,3.12,9,0,5.67,7.68,7.43,12,.65,1.62-.43,3.77-2.27,4.64s-3.09-.68-4.17-1.86c-2.31-2.53-4.72-4.67-8.5-4Z" style="fill:#0e0b0b"/><path d="M846.05,104.3c-2.08-4-5.5-7.53-3.27-12.65.44-1,.24-2.3.34-3.46,3.31,3,2-.63,2.34-1.67,2.18-7.45-.88-15.58,3.3-22.9C850,61.43,846,59,847.14,56.07c6.27,4.11,4.21,10.28,3.59,15.82-1,8.42-3.41,16.65-3.27,25.23C847.49,99.56,847.85,102.17,846.05,104.3Z" style="fill:#4f4b4a"/><path d="M540.81,215.81l2.05-.51,1.62.47-.64,4.82c-2.94,2.87-4.73,5.64.65,7.82l.06.06c.31,2-.48,4.22,1,6.06-.17.77-.35,1.55-.52,2.33l-5.31.19c-1.15-.43-2.43-.68-2.88-2.08-.55-2.69,1.93-6-1.73-8.05a3,3,0,0,1-.48-1.14c-.43-2.46.84-5.11-.87-7.42.28-.86.57-1.72.85-2.58l3.84,1.2A2.3,2.3,0,0,0,540.81,215.81Z" style="fill:#0f0e0d"/><path d="M830.1,30.32c0,3,3.44,1.72,4.64,3.81-4.32,2.93-8.67,5.07-14,3.19-3.71,7.82-9,.94-13.53,1.48-.88-3.56,3.78-3.11,4.18-5.74l2.46-.17c5,1.61,9.29.8,12.66-3.46l3.66-.32A4.09,4.09,0,0,0,830.1,30.32Z" style="fill:#191515"/><path d="M334.69,140.53c-5.51-2.73-5.72-3.86-1.61-7.89a22.74,22.74,0,0,0,1.9-2.44c6.2,5.88,12.77,11.46,13.22,21,.1,2.17,1.29,4.29,2,6.43l-.27,3c-3,.25-3.68-1.4-4.07-4.11-1.2-8.39-4.53-15.79-11.19-21.55C332.67,137.15,334.88,138.79,334.69,140.53Z" style="fill:#191515"/><path d="M452.94,134.45c1,4.89-2.49,9-2.45,13.71-.38,3.43-2,7.36-.85,10.19,1.93,4.81-1.63,2.84-3.15,3.49-.54-2,2.3-4.66-2.85-5.61-4.57-.84.78-5.39-.4-8.22,5.64-2,5.49-7.84,8-11.93A9.16,9.16,0,0,1,452.94,134.45Z" style="fill:#3b3836"/><path d="M632.68,61.64c-1.36,3.21-10.54,8.52-13.95,7.19-4.48-1.75-9.22-1.81-13.68-3.24C614.23,64.07,622.91,59.1,632.68,61.64Z" style="fill:#6e6c68"/><path d="M780,44.51c-6.15,4.8-6.81,13.14-1.65,19.32,2.25,2.69,4.58,3,5-.69.53-4.85,2.12-5.42,6-3.08.58.35,1.61,0,2.44-.06-.95,3.06-3.89,4.77-5.94,6.51-2.55,2.15-6.36,2.62-9.54-1.49-3.85-5-3.52-10.34-3.55-15.81C772.63,44.17,777.27,45.71,780,44.51Z" style="fill:#4f4b4a"/><path d="M334.69,140.53c.19-1.74-2-3.38,0-5.49,6.66,5.76,10,13.16,11.19,21.55.39,2.71,1.05,4.36,4.07,4.11.14.58.29,1.16.43,1.75,0,1.52.88,3.12-.36,4.55-4.78.36-6.11-3.12-6.63-6.62C342.25,152.93,338.85,146.59,334.69,140.53Z" style="fill:#2e2b2a"/><path d="M95.7,86.67c1.52-4.92,3.64-9,9.87-8.88,2.53.07,2.73-1.39,1.33-3.18s-1.09-3.91-1.16-6l0,0,3.78,1.67c-.32,3.84,5.41,3.63,5.06,7.49-3.4,3.44-12.65.28-10.88,9.69.19,1-1.74,1.54-3,1.56-2.06,0-4.12,0-6.18,0Z" style="fill:#191515"/><path d="M47.23,109.2c1.24,0,2.49,0,3.19,1.27-.84,3.79-4.46,6.63-2.8,11.42,1.05,3-3.75,1.54-4.76,3.63l-1.24,1.24-5.81-1.11C38.57,119.45,42.73,114.21,47.23,109.2Z" style="fill:#0f0e0d"/><path d="M388.73,180.68c-1.05-4.78-2.82-9,.86-14.22,2.2-3.14.92-9,2.89-13.37,1.26-1,1.09-2.34,1.06-3.67.17-1.38.34-2.77.66-5.46,2.68,4.79,6.46,7.72,4.76,12.84-1.71-1.25-.78-4.12-3.62-5.29C392.24,161.13,392.41,171.38,388.73,180.68Z" style="fill:#322f2f"/><path d="M830.1,30.32a4.09,4.09,0,0,1,0-1.21c4.89-.59,10.11.95,14.84-2.91-.42,6.25,1.66,8.21,7.07,5.45a21.94,21.94,0,0,1,18.21-.88l-1.19,1.32c-6.84-2.33-12.87,1.56-19.27,2.55-2.74.43-5.29,1.27-6.6-2.29-.83-2.28-2.61-2.2-4.6-1.5C835.71,31.86,832.89,31.19,830.1,30.32Z" style="fill:#4f4b4a"/><path d="M674.15,114.22c1-4.18,1.09-8.78,3-12.44,3.4-6.42,3.61-13,3.56-19.89,0-.56,1-1.13,1.54-1.7,2.59,11.08-2,21-5.15,31.12-1.08,3.46-.49,7.45-3.22,10.4C672.53,119.16,675,116.74,674.15,114.22Z" style="fill:#464442"/><path d="M929.16,17.85c-6.94-.43-12.9,4-19.77,3.93-.11-2.25,3.91-.68,3-2.69-1.37-3.08-5-.5-8-2.43,3.65.23,7.61-2.62,8.39-2.13,5,3.14,6.76-.8,10.2-2.61S928,14.8,929.16,17.85Z" style="fill:#6e6c68"/><path d="M393.65,81.49c-10.36.18-5.54,8.13-6.54,13-.41,2,1.48,4.4-1.09,6.06-1.13-8.05-2.1-16.12-.39-25.05,2.44,6,7.63-3.86,10.05,2.54C392.9,78,395.78,81.19,393.65,81.49Z" style="fill:#322f2f"/><path d="M661.88,76.67c1.66,1.3,3.14,2.63,1,4.72-4.66-1.84-5.06,2.16-6.08,4.73-.65,1.63-.31,3.66-.41,5.52-3.46,4.65-6,10.18-11.78,12.66,2.26-4.62,6.46-8,8.31-12.86.36-1,1.45-2,1.23-2.8C652.14,81.62,657.4,79.42,661.88,76.67Z" style="fill:#322f2f"/><path d="M794.74,58c.36-3.92,2-6.38,6.42-6.54,6.83-.24,12.71-4.19,19.36-5.27,1.42-.24,2.75-1,4.17-.11Z" style="fill:#3b3836"/><path d="M525.79,99.18c4.07-1,8.13-2,11.3-5l0,0,9.78-2.8a1.94,1.94,0,0,1,.25.77L515.65,109c-1-4.27,4.92-2.81,5.11-6.1h0c2.28-.44,4.67-.73,5-3.75Z" style="fill:#1e1a18"/><path d="M841.28,148.1c-1.87.05-3.9-.17-2.89,2.88.57,1.73-.83,1.93-2.07,2.09.07-3.73-.25-7.4-2-10.78.11-1.39.22-2.78.34-4.16,2.28-6.51,5.73-5.13,9.52-1.4l.27,1.25c-2.64.73-1.43,3.58-2.79,5-.6.18-1.52-.19-1.6.81,0,.13.92.34,1.41.51C841.39,145.58,841.33,146.84,841.28,148.1Z" style="fill:#191515"/><path d="M744,89.63c-.65-7.27,5.82-6.3,8.32-5,8.58,4.4,7.15-1.68,7.61-6.2,0-.41.17-.81.25-1.22,3.49,2.75,2,6.52,1.17,9.5-.63,2.32-3.78,2.2-6.37,2.3C751.36,89.13,747.6,88.21,744,89.63Z" style="fill:#464442"/><path d="M840.16,188.22c3.07-.16,2.94-2.12,2.35-4.25-.41-1.47-1.77-2.82-.38-4.42,4.28,3.59,4.33,7.87,1.94,12.47-1.34,2.59-2.72,5.77-6.35,4.46-3.1-1.12-3.21-4.12-2.44-7,1.52-.91,5.19,6.46,4.93-1.28Z" style="fill:#4f4b4a"/><path d="M834.08,156.88c1,5,2.63,9.83,1.22,15-1.36,5,.76,10,.06,15a3.78,3.78,0,0,1-2.35-3.3C833.38,174.7,831.67,165.7,834.08,156.88Z" style="fill:#4f4b4a"/><path d="M667.82,70.17l-4.38,1.58c1.55-3.83,6.81-6.19,4.44-11.7-.4-.93,6.75-1.06,8,.53a41.51,41.51,0,0,1,2.53,4.16C672.75,62.42,670.76,67.21,667.82,70.17Z" style="fill:#464442"/><path d="M446.49,161.84c1.52-.65,5.08,1.32,3.15-3.49-1.14-2.83.47-6.76.85-10.19q2.16,4.36,4.31,8.71.17,3.09.32,6.16c-3.67-.53-4.28,5.72-8.56,3.85-.11-.92-.22-1.84-.34-2.76Zm5.81-6a1.5,1.5,0,0,0,.13-.43c0-.05-.21-.1-.33-.15a1.21,1.21,0,0,0-.12.43S452.19,155.84,452.3,155.89Z" style="fill:#090606"/><path d="M337.18,193.19c-1.39,0-2.86.24-3.81-1.19,1.12-2.07,3.57-4,.56-6.45-.25-2.85,1.81-3.13,3.84-3.45,2-.9,2.32-1.82,0-2.74,0-.79,0-1.59,0-2.38l1.91-.07c2.92,4.62,3.22,9.23,0,13.84A2.17,2.17,0,0,0,337.18,193.19Z" style="fill:#191515"/><path d="M167.32,89.17c4.76,3.34,9.12,7.44,15.71,6.78a3.23,3.23,0,0,1,3.26,2.43c-5.83,2-10.2-2.29-15.21-3.7-3.46-1-6.61-3-9.9-4.58C163,88.44,165.26,89.42,167.32,89.17Z" style="fill:#191515"/><path d="M546.52,195.74c-.88-.23-1.77-.85-1.44-1.67,2.7-6.7,2.21-13.74,2.45-20.71.06-1.75,1.26-2.49,2.85-2.74C549.2,179,550.8,187.82,546.52,195.74Z" style="fill:#1e1a18"/><path d="M276.51,210.85A7,7,0,0,1,271.8,212c0-2.33-.35-5-2.42-5.89-4.56-1.91-3.94-5.54-3.95-9.12l.39-1.91c5.14,1,3.8,7,7.2,9.36,0,1.78-.18,3.61,2.3,3.89C276.56,208.77,276.5,209.83,276.51,210.85Z" style="fill:#090606"/><path d="M844.15,136.73c-3.79-3.73-7.24-5.11-9.52,1.4-.6-5.07-1.3-10.15.66-15.1,1.93,1.51.7,3.82,1.44,5.64,1,2.58,2.25,4.56,5.18,1.86l3,0C844.62,132.58,844.39,134.66,844.15,136.73Z" style="fill:#4f4b4a"/><path d="M455.84,114a5.72,5.72,0,0,1,1,.58c-2.16,6.42.4,13.75-3.8,19.78a12.41,12.41,0,0,0-.1-7.84C451.16,121.53,452.54,117.64,455.84,114Z" style="fill:#3b3836"/><path d="M553.46,139.43c4,.13,4.77-2.66,5-5.69.28-4.17,1.41-7.89,4.58-10.8-.62,7.12-3.35,13.6-6.19,20l-3.36.07-.62,0h-.61c0-.4,0-.8,0-1.19l.09-1.27Z" style="fill:#2e2b2a"/><path d="M431.29,269.31c.71-3.73-2.64-6.72-1.9-10.46,2.15-1.13,3.35,3.86,5.79.9,3,1.18,3.22,3.82,2.4,6.11C436.65,268.48,434.23,269.68,431.29,269.31Zm3.89-5.66c-.14.1-.36.18-.4.31s.13.28.21.43l.66-.52Z" style="fill:#6e6c68"/><path d="M434,209.52c1.92,1.93,1.15,5.15,3.63,6.95,1.74,1.26.87,2.76-.57,4.12-2.18,2.07-4.12,4.38-6.16,6.58C433.72,221.6,432.88,215.38,434,209.52Z" style="fill:#3b3836"/><path d="M335,130.22c-2.21.26-5,1.22-6.43-.61-3.32-4.26-5.31-1.6-7.58.84-3.46-2.62.05-4,1.05-5.82,1.52-2.75,2.89-.22,4,.36C329,126.65,332.69,127.32,335,130.22Z" style="fill:#191515"/><path d="M782.3,45.49a1.35,1.35,0,0,1,.05-1.19c5.58-2.93,10.4-7.88,17.58-6.49C794,40.31,789.46,45.85,782.3,45.49Z" style="fill:#4f4b4a"/><path d="M460.49,141.93c.87-8.62,2.76-16.9,8-24.08C466,126,464.53,134.35,460.49,141.93Z" style="fill:#3b3836"/><path d="M616.63,179.52c3.6-2.61,3.57-9.33,10-8.74C620,175.09,620,183.29,615.79,189c-.26-.33-.53-.64-.81-.94Z" style="fill:#464442"/><path d="M869.06,32.09l1.19-1.32,2.65-.33c0,.92.44,1.64,1.33,1.48,1.12-.2,1.28-1.27,1.34-2.27l3.48-.3c.3,1.24.35,2.66,2,3l1.87.33c.08.54.17,1.07.25,1.61-4.6,1.09-9.2,2.12-14,1.19C869.15,34.36,869.1,33.23,869.06,32.09Z" style="fill:#141110"/><path d="M541.23,164.48c-.12,6.13-.26,12.26-.37,18.39,0,1.37-.41,2.44-1.87,2.84C538.32,178.48,537.41,171.23,541.23,164.48Z" style="fill:#1e1a18"/><path d="M841.28,148.1c.05-1.26.11-2.52.16-3.78.07-.44.13-.88.19-1.32,1.36-1.44.15-4.29,2.79-5-1.15,5.8-.81,11.66-.79,17.51,0,1.78.67,3.8-1.35,5.07C840.81,156.5,841.66,152.25,841.28,148.1Z" style="fill:#4f4b4a"/><path d="M308.25,106.85l0-1.38c1.31-.76,1.81-2.72,3.77-2.52l7.69-4.08c1.58,1.18.94,3.07,1.47,4.58l-1.74,1.93C315.74,106.22,312.09,107.3,308.25,106.85Z" style="fill:#0e0b0b"/><path d="M607.63,173.17c1.79,1.87,1.09,3.4-.35,5.19s-3.54,3.37-3.42,6.09a4.16,4.16,0,0,0-.17,1.21c-1.46,1.18-1.1,2.93-1.42,4.48-.55,2.64-2.1,2.59-4,1.37C602.38,185.91,602.57,178.3,607.63,173.17Z" style="fill:#464442"/><path d="M22.76,178.17c2.29,7.43,1.26,15,1.12,22.59C21.54,193.32,21.8,185.76,22.76,178.17Z" style="fill:#161313"/><path d="M315.78,90.38c0-2.37,2-2.75,3.54-3.65a3.67,3.67,0,0,1,2.6,3.7c-2.78,2,1.85,6.06-2.12,7.76-1.8-.27-3.88-.17-2.9-3.14C317.45,93.38,316.54,91.85,315.78,90.38Z" style="fill:#0e0b0b"/><path d="M607.43,205.52c-.49-2,1.61-4,.13-6,0-.42.05-.83.07-1.25,3.81-2.22,1.51-7.44,4.89-9.87l2.46-.27c.28.3.55.61.81.94-3.7,3.59-4.06,8.76-6.18,13.11C609,203.41,609.07,205,607.43,205.52Z" style="fill:#464442"/><path d="M495.69,92.21c-.86,6.33-.48,12.51,2.38,18.36-4.16-3.35-6.87-13.49-4.63-17.84C493.67,92.29,494.92,92.37,495.69,92.21Z" style="fill:#322f2f"/><path d="M552.88,163.24c.08-4.44.14-8.88.26-13.31,0-1,.25-2,.38-3.05l3-.09C555.62,152.34,555.29,158,552.88,163.24Z" style="fill:#2e2b2a"/><path d="M839.55,65.26c.61,6.82,2.48,13.75-1.66,20.2C838.63,78.74,836.83,71.81,839.55,65.26Z" style="fill:#4f4b4a"/><path d="M370,267.13a7.23,7.23,0,0,1,4.73,1.34c4.81,2.76,8.45,2.53,9.85-3.69,3.05,3,0,4.89-1.51,6.63-2.08,2.39-5.1,1.4-7.4.32C373.48,270.72,371.82,268.7,370,267.13Z" style="fill:#464442"/><path d="M725.61,103.92c1.16-6,5.85-9.8,13.79-11.12Z" style="fill:#464442"/><path d="M393.65,81.49c2.13-.3-.75-3.53,2-3.46,1.55.9,3,1.88,2.94,3.94l.21,4.59c-.73,2.85-2.14,3.57-3.69.72C394.22,85.58,394.12,83.43,393.65,81.49Z" style="fill:#090606"/><path d="M614.4,164.33a3.71,3.71,0,0,1-4.06,2.69,14.29,14.29,0,0,0,.06-12.82c-.9-1.88-2.12-3.6.1-5.35,1.51,3.38,3.16,6.71,3.31,10.51C614,161,614.2,162.67,614.4,164.33Z" style="fill:#464442"/><path d="M460.62,85.43c-.51,5.9-.46,11.87-2.2,17.61C455.73,96.75,458,91.07,460.62,85.43Z" style="fill:#3b3836"/><path d="M308.25,106.85c3.84.45,7.49-.63,11.16-1.47-.74,2.87-3.38,2.87-5.41,3-4.7.27-9,1.87-13.37,3.27C301.21,106.93,305.92,108.78,308.25,106.85Z" style="fill:#464442"/><path d="M267.1,193.56c-4.75-5.79-1.18-11.87-.63-17.84C269.18,181.58,265.43,187.66,267.1,193.56Z" style="fill:#3b3836"/><path d="M836.67,103.43c.74,5.79,2.45,11.62-.73,17.24C835.52,114.9,833.89,109.07,836.67,103.43Z" style="fill:#4f4b4a"/><path d="M34.37,204.53c-2.95-5.31-1.79-10.77-.59-16.23C35,193.67,34.78,199.1,34.37,204.53Z" style="fill:#161313"/><path d="M682.7,78c-4.58-3.35-4.18-8.27-4.13-13.07C682,68.61,683.07,73.05,682.7,78Z" style="fill:#464442"/><path d="M725.32,88.75c-2.2,5.08-5.74,8.67-11.27,10C717.27,94.83,720.28,90.66,725.32,88.75Z" style="fill:#3b3836"/><path d="M844.86,130.51l-3,0c-2.93-5.56-2.53-6.39,3-6.25C847.42,126.38,844.73,128.43,844.86,130.51Z" style="fill:#464442"/><path d="M618.67,76.93A11.86,11.86,0,0,1,634,80.19C629,78.43,624.07,76.63,618.67,76.93Z" style="fill:#464442"/><path d="M592.4,234.23c3-3.57,2.58-8.81,5.92-12.23C598.23,227,599.66,232.7,592.4,234.23Z" style="fill:#2e2b2a"/><path d="M471.89,77.14a14.68,14.68,0,0,0-.61,1.76c-1,4.71-2.29,8-6.19,1.59-.31-.5-1.35-.57-2.06-.83,1.38-3.18,1.38-3.18,4.45.75C470.16,81,466.85,73.45,471.89,77.14Z" style="fill:#464442"/><path d="M376.24,163.15c1,5.12,1.64,10.15-3.34,13.83C373.83,172.33,374.19,167.54,376.24,163.15Z" style="fill:#322f2f"/><path d="M633.65,124c-.95,5.4-1.43,11-6.95,14.2C627.88,132.93,630.69,128.43,633.65,124Z" style="fill:#464442"/><path d="M455.12,163q-.15-3.08-.32-6.16c.64-2.38.95-4.94,3.4-6.37q-.94,6.9-1.9,13.81Z" style="fill:#322f2f"/><path d="M319.81,98.19c4-1.7-.67-5.73,2.11-7.76,3.19,4.55,2.92,8.88-.77,13-.53-1.51.11-3.4-1.47-4.58A5.1,5.1,0,0,1,319.81,98.19Z" style="fill:#464442"/><path d="M373.68,183.22c4.74,2.95.8,6.74.57,10-.13,1.86-2.67-.12-4.13-.35.6-2.33,1.19-4.67,1.79-7C373.36,185.53,373.49,184.35,373.68,183.22Z" style="fill:#090606"/><path d="M207.77,285.45c0-1.74.09-3.32,2.52-3.06,2,.2,2.71,1.66,3.23,3.18.73,2.15-.67,2.86-2.49,3.13Z" style="fill:#161313"/><path d="M143.44,92.18c.45-1,.89-2,1.34-3,2.5-.93,5,2,7.51,0l4.93-.15a4.61,4.61,0,0,1,0,1C152.81,91.86,148,91,143.44,92.18Z" style="fill:#191515"/><path d="M332.13,194.5a6.43,6.43,0,0,0,1.41,3.32c.92,1.45,4.67,2.52,1.94,4.6-2.13,1.63-4-.83-5.19-2.85-.32-.53-.56-1.1-.83-1.66l1.53-3.4.57,0Z" style="fill:#191515"/><path d="M528,79.91c-2.78,5.88-8.5,5-13.49,5.83C518.51,82.59,523.82,82.51,528,79.91Z" style="fill:#464442"/><path d="M842.52,175.63c-.52-4.22-4.26-8.3-.57-12.7C841.85,167.17,845.9,171.24,842.52,175.63Z" style="fill:#4f4b4a"/><path d="M99.3,291.52c-5.52,1.14-9.88-1-13.69-4.77Z" style="fill:#161313"/><path d="M431.6,255.89c.51-4.15,5.48-4.37,6.85-7.76-.43,3.26-.7,6.58-3.36,9Z" style="fill:#6e6c68"/><path d="M734.63,79.47c-1.09,5.08-5.22,7.14-9.28,9.26C726.37,83.58,731.24,82.26,734.63,79.47Z" style="fill:#3b3836"/><path d="M193.64,95c.06-4.11,4.61-6.6,4-11a7.55,7.55,0,0,1,.83.13C200,89.18,198.58,92.89,193.64,95Z" style="fill:#191515"/><path d="M350.34,162.45c-.14-.59-.29-1.17-.43-1.75l.27-3a9.36,9.36,0,0,0,1.86.3c2.7-.1,6.1.74,5.64,3.36-.65,3.69-3.91,1.26-6.14.85A3.21,3.21,0,0,0,350.34,162.45Z" style="fill:#6e6c68"/><path d="M834.29,142.29c1.78,3.38,2.1,7.05,2,10.78-.37.8-.84,1.49-1.87,1.44C834.64,150.43,830.91,146.41,834.29,142.29Z" style="fill:#4f4b4a"/><path d="M837.84,87.93c1.38,4.29,2.23,8.54-.82,12.54C836.86,96.26,835.6,92,837.84,87.93Z" style="fill:#4f4b4a"/><path d="M826.47,29.43c-3.37,4.26-7.69,5.07-12.66,3.46Z" style="fill:#4f4b4a"/><path d="M590,208.53c-1.39,4.18-1.32,8.89-4.57,12.39C585.21,216.13,585.83,211.67,590,208.53Z" style="fill:#464442"/><path d="M546.06,76.14a15.41,15.41,0,0,1-12.67,3.24C537.51,77.91,541.48,75.82,546.06,76.14Z" style="fill:#464442"/><path d="M59.41,98.31a14.43,14.43,0,0,1-9.94,8.53A26.11,26.11,0,0,1,59.41,98.31Z" style="fill:#3b3836"/><path d="M635.26,80.53q1-5.67,2-11.35C638.35,73.27,642,77.84,635.26,80.53Z" style="fill:#464442"/><path d="M247.84,183.18c1.67,3.77,6.67,6.08,5,11.31C251.42,190.61,247.06,188,247.84,183.18Z" style="fill:#141110"/><path d="M544.48,215.77l-1.62-.47,1.41-7.08c.29-1.14.56-2.29,2-2.54C546.34,209.16,547,212.75,544.48,215.77Z" style="fill:#4f4b4a"/><path d="M545.63,138.51c.21,4.26.09,8.46-2.58,12.11C542.82,146.35,542.74,142.12,545.63,138.51Z" style="fill:#1e1a18"/><path d="M69.36,89.29c-1.77,4.59-5.31,7.23-9.8,8.82C61.65,93.87,65.72,91.82,69.36,89.29Z" style="fill:#464442"/><path d="M338,211.89a16.38,16.38,0,0,1,5.12-12.5Q340.56,205.65,338,211.89Z" style="fill:#191515"/><path d="M270.24,164.33c-2.44-4.39-.46-8,2.17-11.37C273.66,157.12,270.2,160.39,270.24,164.33Z" style="fill:#3b3836"/><path d="M339.65,176.91l-1.91.07-.15-11.41C342,168.69,338.65,173.19,339.65,176.91Z" style="fill:#2e2b2a"/><path d="M94.4,106.58c2.42-4.65,6.43-5.82,11.29-5.08Z" style="fill:#191515"/><path d="M846.94,55.89c-4.47-.62-3.64,4.46-6.28,5.81-.33-2.52-1.47-5.51,1-7.17A3.6,3.6,0,0,1,846.94,55.89Z" style="fill:#4f4b4a"/><path d="M141,51.05c-3.18,1.93-5.12,7.23-10.27,3.75C134.49,54.51,137,50.82,141,51.05Z" style="fill:#191515"/><path d="M28.22,149.46c1.55,4.14,1.1,7.91-2.08,11.18C27.13,157,26.15,152.93,28.22,149.46Z" style="fill:#161313"/><path d="M855.23,39.66c2.43-4,6.07-4.2,10.08-3.27C862.26,38.41,858.71,38.92,855.23,39.66Z" style="fill:#4f4b4a"/><path d="M903,22.91c-3,1.08-4.49,5.6-8.75,3.85C897.55,26.25,897.55,18.38,903,22.91Z" style="fill:#6e6c68"/><path d="M585.11,68.48c-3.39,3.11-7.58,1.83-11.49,2.09C577.08,67.84,581.15,68.43,585.11,68.48Z" style="fill:#464442"/><path d="M382.69,116.8c1,3.49,2.81,7.06-1.08,10C381.66,123.45,380.54,120,382.69,116.8Z" style="fill:#322f2f"/><path d="M598.65,199.47c-2.19.57-2.29,4.29-5.36,3.53,1.43-2.78,1.15-6.43,4.28-8.34Z" style="fill:#464442"/><path d="M386.05,109.24c0,.81,0,1.63,0,2.44-1.21.63-1.26,2.58-3,2.62,1-3.29.09-7,2.14-10.06l1.17,1.19C386.54,106.72,384.91,107.87,386.05,109.24Z" style="fill:#322f2f"/><path d="M544.49,228.41c-5.38-2.18-3.59-4.95-.65-7.82Z" style="fill:#4f4b4a"/><path d="M705.24,149.22c3,2.52,5,5.46,3.8,9.63C707.42,155.78,705.05,153,705.24,149.22Z" style="fill:#3b3836"/><path d="M159.82,288.51l-6.07-.74c2.9-1,5.23-3.59,8.66-3.19-.66,1.43-2.78,1.91-2.57,3.91Z" style="fill:#161313"/><path d="M811.35,33.06c-.4,2.63-5.06,2.18-4.18,5.74-1.22,0-2.57.55-3.42-.88C805.62,35.28,807.84,33.16,811.35,33.06Z" style="fill:#4f4b4a"/><path d="M322,235.5c.37-3.6,2.41-5.57,6-6.07C326.42,231.91,325.41,234.89,322,235.5Z" style="fill:#191515"/><path d="M303.29,239.3c2.76-1.16,5.35-3.41,8.6-1.27C309,238.35,306.49,241.12,303.29,239.3Z" style="fill:#191515"/><path d="M428.76,238c.06,2.11-.23,4.87-2.53,4.74-3-.17-2.2-3.31-2.39-5.45C425.36,238.38,426.79,240,428.76,238Z" style="fill:#3b3836"/><path d="M132.14,95c2.39-2.76,5.28-3.62,8.75-2.29C138.06,93.78,135.35,95.31,132.14,95Z" style="fill:#191515"/><path d="M563.1,117.88a7.94,7.94,0,0,1,2.15-8.75C565.53,112.29,565.16,115.29,563.1,117.88Z" style="fill:#2e2b2a"/><path d="M193.33,71.72c-4.37-.09-5.26-3.24-5.87-6.64C190.17,66.63,191.12,69.72,193.33,71.72Z" style="fill:#191515"/><path d="M458.32,149.25c-1.34-.6-3.9-1.55-3.85-1.73.85-2.87,3.83-2.23,5.88-3.21C460.6,146.33,459.61,147.85,458.32,149.25Z" style="fill:#322f2f"/><path d="M332.13,194.5l-.57,0-.57,0c-.41-3.44,2.72-5.72,2.94-9,3,2.43.56,4.38-.56,6.45C332.32,192.52,332.24,193.52,332.13,194.5Z" style="fill:#2e2b2a"/><path d="M637.74,116.78c.26,3.31.72,6.74-4.07,7.22C634.46,121.28,635.27,118.57,637.74,116.78Z" style="fill:#464442"/><path d="M146,307.35c1.78-2.85,4.37-3.54,7.5-2.76C151,305.62,149.36,308.77,146,307.35Z" style="fill:#3b3836"/><path d="M51.64,256c-3,1.78-3.63-1.86-5.49-2.7-.51-.23,1-1.28,1.89-1.6A6.69,6.69,0,0,1,51.64,256Z" style="fill:#161313"/><path d="M275.09,146.41c-.9-3.4-2.06-6.89,2.74-8.46Q276.45,142.18,275.09,146.41Z" style="fill:#3b3836"/><path d="M169.81,49.29c-3.05,1.09-6.05,1.53-8.86-.64C163.92,48.65,167,46.85,169.81,49.29Z" style="fill:#191515"/><path d="M451.86,177.48c.39-3.2-2.15-7,1.87-9.47C453.74,171.29,454.26,174.68,451.86,177.48Z" style="fill:#322f2f"/><path d="M380,134.31c1.89,2.28,3.81,4.56-.52,6.34C379.12,138.5,378.55,136.32,380,134.31Z" style="fill:#322f2f"/><path d="M626.54,138.32q-.22,3.56-.47,7.11l-3.13.29C625.37,143.85,622.48,139.4,626.54,138.32Z" style="fill:#464442"/><path d="M468.71,114.32c-3-3.48,1.13-5.15,1.92-7.66C471.48,109.58,469.7,111.85,468.71,114.32Z" style="fill:#3b3836"/><path d="M431.6,255.89l3.49,1.24.09,2.62c-2.44,3-3.64-2-5.79-.9C429.21,257.19,430.27,256.44,431.6,255.89Z" style="fill:#3b3836"/><path d="M632.63,168.76c1.65-2.38,3.4-4.34,6.39-1.68C637.34,169.37,635.05,169.33,632.63,168.76Z" style="fill:#464442"/><path d="M386.14,190.69c0-1.67.05-3.34.07-5l0,0,1.87-1.29c-.35,2.92.81,6-.81,8.76L386.11,192Z" style="fill:#3b3836"/><path d="M548,125.89c.21,2.9,1.84,6-1.05,8.49C546.39,131.44,545.64,128.48,548,125.89Z" style="fill:#2e2b2a"/><path d="M119.62,309.69c2.42-2.09,4.94-.56,7.44-.2C124.64,311.86,122.13,311,119.62,309.69Z" style="fill:#3b3836"/><path d="M535.09,226.92c3.66,2,1.18,5.36,1.73,8.05C534.46,232.66,535.3,229.68,535.09,226.92Z" style="fill:#4f4b4a"/><path d="M114.46,98.83c1.9-2.83,4.27-4.14,7.59-2.31Z" style="fill:#191515"/><path d="M132.09,307.29c2,1.17,4.69-2.94,6.45.74-2.1.94-4.16,2.13-6.54.79Z" style="fill:#3b3836"/><path d="M533.74,218.36c1.71,2.31.44,5,.87,7.42C531.88,223.59,531.31,221.15,533.74,218.36Z" style="fill:#4f4b4a"/><path d="M719.61,173.09c3.43-.21,4.33,2.17,5,4.81C721.57,177.69,720.12,175.87,719.61,173.09Z" style="fill:#3b3836"/><path d="M104.53,306c1,.13,2,.28,2.5,1.36-2.88,1.08-5.24-.15-7.54-1.67a1.56,1.56,0,0,1-.06-1.2Z" style="fill:#3b3836"/><path d="M85.77,79.79c-1.86,2.37-4.6,2.79-7.31,3.25C80.16,80.31,82.54,79.1,85.77,79.79Z" style="fill:#3b3836"/><path d="M181.41,58.93c-3.12-.41-6.07-1-6.46-5C177.19,55.51,179.84,56.52,181.41,58.93Z" style="fill:#191515"/><path d="M384.62,213.21c-1.42-2.42-1.56-4.4,1.82-5.15C387.49,210.36,386.1,211.8,384.62,213.21Z" style="fill:#3b3836"/><path d="M332,225.43c-.22-3.84,2.7-4.8,5.45-5.93C336.64,222.39,334.2,223.79,332,225.43Z" style="fill:#191515"/><path d="M844.89,114.31c-1.26-.21-2.83.61-3.64-1.09,2.4-.36-1.52-4.87,2.68-4l.54,2.13A3,3,0,0,1,844.89,114.31Z" style="fill:#464442"/><path d="M542.53,153.21c1.13,2.21,1.91,4.38-.68,6.19C541.47,157.27,541.15,155.15,542.53,153.21Z" style="fill:#1e1a18"/><path d="M373.68,183.22c-.19,1.13-.32,2.31-1.77,2.6-.39-2.18-1.42-4.44.73-6.33C374.05,180.44,373.51,181.92,373.68,183.22Z" style="fill:#322f2f"/><path d="M832.53,43.76c1.47-3.56,3.92-2.32,6.32-1.28C837.14,44.83,834.64,43.34,832.53,43.76Z" style="fill:#3b3836"/><path d="M57.53,277.26c3.69.19,3.88,3.05,4.34,5.7C59.44,281.8,58.47,279.54,57.53,277.26Z" style="fill:#161313"/><path d="M508.11,116.34c.74-2.67,2.1-4.63,5.26-4.5C512.06,113.86,511,116.14,508.11,116.34Z" style="fill:#322f2f"/><path d="M280.31,133c-.84-3.1-.66-5.7,3.26-6.38Z" style="fill:#3b3836"/><path d="M382.47,227.7a1.22,1.22,0,0,1,.82.46c.14,2.21.61,4.48-1,6.4l-1.1-1.23c0-1.65.06-3.3.1-5Z" style="fill:#3b3836"/><path d="M561.16,72.47a6.29,6.29,0,0,1-6.33,2.16C556.41,72.37,558.75,72.32,561.16,72.47Z" style="fill:#464442"/><path d="M398.83,86.56,398.62,82a6.49,6.49,0,0,1,3.77,4.73Z" style="fill:#322f2f"/><path d="M265.82,195.07l-.39,1.91c-1.79-1.08-3.05-.65-3.8,1.3a2.68,2.68,0,0,1-1.22-2.51c.85-.85,1.7-1.7,2.54-2.56l1.3.06c.49.66,1,1.32,1.45,2Z" style="fill:#141110"/><path d="M545.53,234.53c-1.46-1.84-.67-4-1-6.06C547.68,230,547.84,232.08,545.53,234.53Z" style="fill:#4f4b4a"/><path d="M61.63,271c-3.07-.53-3.29-3.07-3.83-5.39C60.48,266.39,60.46,269.11,61.63,271Z" style="fill:#161313"/><path d="M556.54,146.79l-3,.09-.06-3.83,3.37-.07A3.9,3.9,0,0,1,556.54,146.79Z" style="fill:#1e1a18"/><path d="M159.62,48.52c-2,.43-4.09,1.1-6-.45C155.77,46.43,157.73,47.1,159.62,48.52Z" style="fill:#191515"/><path d="M327.72,141.63c2.16.32,5.23-.16,3.25,3.74C329.6,144.37,328.18,143.42,327.72,141.63Z" style="fill:#2e2b2a"/><path d="M29.29,140.63c1.43,1.82,1.75,3.53-.52,5C28.52,143.9,27.56,142.12,29.29,140.63Z" style="fill:#161313"/><path d="M319.68,212.34c0,2.71-1.47,3.75-4.08,3.36C316.45,214,317.4,212.35,319.68,212.34Z" style="fill:#2e2b2a"/><path d="M458.08,108c1.48,2.4,1.93,4.41-1.85,4.79C457.08,111.29,456.51,109.23,458.08,108Z" style="fill:#3b3836"/><path d="M759.35,75.46c-2.54-.55-3.56-2.27-3.61-4.72C757.91,71.59,759.39,72.94,759.35,75.46Z" style="fill:#464442"/><path d="M380.86,247.06c-1.48-2-1.95-3.87,1-5.08C382.18,243.8,382.53,245.62,380.86,247.06Z" style="fill:#464442"/><path d="M539.7,237.05l5.31-.19C543.34,240,542.52,240.07,539.7,237.05Z" style="fill:#4f4b4a"/><path d="M27.21,223.14c1.79,1.26,3.66,2.5,2,5.11C28.08,226.73,26.94,225.21,27.21,223.14Z" style="fill:#161313"/><path d="M106.94,292.52c-1.85,1.39-3.58,1.76-5-.58A6,6,0,0,1,106.94,292.52Z" style="fill:#161313"/><path d="M387.2,204.56c-3.11-1.62-3.26-3.34-.19-5.18C387.47,201.09,388.32,202.79,387.2,204.56Z" style="fill:#3b3836"/><path d="M546.26,205.68c-1.43.25-1.7,1.4-2,2.54-3.78-1.05-1.4-3.18-.88-5h1.14c.41.71.89,1.28,1.84,1Z" style="fill:#0f0e0d"/><path d="M536.2,205c1,2,1.38,4-.5,5.78C534.6,208.76,535.07,206.86,536.2,205Z" style="fill:#4f4b4a"/><path d="M322.36,133c2.88.89,3.32,3.17,3.27,5.73A8.51,8.51,0,0,1,322.36,133Z" style="fill:#191515"/><path d="M641.42,167.19c1.37-1.51,2.62-3.35,5.06-1.71C645.06,166.84,643.65,168.21,641.42,167.19Z" style="fill:#464442"/><path d="M39,171.87c-1.49-2.17-1.86-4.05,1.3-5C40.18,168.61,40.36,170.44,39,171.87Z" style="fill:#3b3836"/><path d="M159.84,288.49c-.21-2,1.91-2.48,2.57-3.91l2.38-.05C164.63,287.7,162.19,288,159.84,288.49Z" style="fill:#0f0e0d"/><path d="M744.68,74.23c-.35,2.18-1.08,3.83-3.79,2.64A4,4,0,0,1,744.68,74.23Z" style="fill:#464442"/><path d="M285.42,121.38c.61-2.21,1.83-3.54,4.35-2.95A4.07,4.07,0,0,1,285.42,121.38Z" style="fill:#3b3836"/><path d="M882.92,32.7l-1.87-.33c.26-1,.51-2.09.75-3.14.74-.44,1.36-1.25,2.4-.77C883.77,29.87,883.35,31.29,882.92,32.7Z" style="fill:#0e0b0b"/><path d="M671.94,132.19c0-2-1-4.2,1.36-5.6C674.58,128.88,673.59,130.61,671.94,132.19Z" style="fill:#464442"/><path d="M148.61,47.52c-1.05,2-3,1.37-4.71,1.62C145,47.12,146.49,46.47,148.61,47.52Z" style="fill:#191515"/><path d="M739.48,92.74c.43-2.51,1.68-3.77,4.37-2.9A4.49,4.49,0,0,1,739.48,92.74Z" style="fill:#464442"/><path d="M128.57,292.05c-1.12,1.75-2.42,1.91-3.9.44C125.84,291.18,127.17,291.32,128.57,292.05Z" style="fill:#464442"/><path d="M82,297c2-1.54,3.2-1.15,3.69,1.34Z" style="fill:#161313"/><path d="M881.8,29.23c-.24,1.05-.49,2.1-.75,3.14-1.65-.36-1.7-1.78-2-3Z" style="fill:#4f4b4a"/><path d="M313.39,217.48c-.62,2.67-2.07,2.4-3.83,1.08C310.53,217.11,312.16,218,313.39,217.48Z" style="fill:#2e2b2a"/><path d="M34.8,217.06c-2.32-.68-2.52-1.95-1-3.68C35.2,214.3,35.06,215.66,34.8,217.06Z" style="fill:#161313"/><path d="M336.72,158c2.2,1.15,2.37,2.44.28,3.9A4.21,4.21,0,0,1,336.72,158Z" style="fill:#2e2b2a"/><path d="M37,227.1c-2.39-1.19-1.62-3-1-4.85C37,223.73,37.71,225.26,37,227.1Z" style="fill:#161313"/><path d="M24.89,212c2,.78,2.09,2,.9,3.61C24.43,214.66,24.65,213.32,24.89,212Z" style="fill:#161313"/><path d="M141,289.16c-.8,2.2-2.13,2.18-3.76.9C138.25,288.65,139.67,289.05,141,289.16Z" style="fill:#464442"/><path d="M875.57,29.65c-.06,1-.22,2.07-1.34,2.27-.89.16-1.35-.56-1.33-1.48A1.69,1.69,0,0,1,875.57,29.65Z" style="fill:#4f4b4a"/><path d="M65.38,126.33c-.09-2.47,1.29-3.43,3.58-3.43A6.09,6.09,0,0,1,65.38,126.33Z" style="fill:#464442"/><path d="M323.44,209.54c-1.38.61-1.68,2.69-3.56,2.62a3.68,3.68,0,0,1,3.45-3.86A10.38,10.38,0,0,1,323.44,209.54Z" style="fill:#2e2b2a"/><path d="M38.5,234.61l-1.9,0c0-1.3-.32-2.72,1-3.67Z" style="fill:#161313"/><path d="M315.76,237.74c.54-2.13,1.82-2.31,3.53-1.31C318.58,238.12,317.38,238.49,315.76,237.74Z" style="fill:#191515"/><path d="M544.53,203.23h-1.14c0-1.78.92-2.58,2.64-2.56a3.13,3.13,0,0,1,.44,2.94Z" style="fill:#1e1a18"/><path d="M56.58,134c-.26-2.56.83-3.86,3.48-3.71A8.6,8.6,0,0,1,56.58,134Z" style="fill:#464442"/><path d="M379.17,148.38c.86,1.9,1.53,3.75-1.16,4.79C377.3,151.31,378.09,149.81,379.17,148.38Z" style="fill:#322f2f"/><path d="M716.68,113.53c.13-2,.74-3.63,2.85-4.3C719.46,111.25,719.24,113.16,716.68,113.53Z" style="fill:#464442"/><path d="M826.26,45.79c.89-2.16,2.17-2.37,3.8-.75C829.08,46.7,827.66,46.19,826.26,45.79Z" style="fill:#3b3836"/><path d="M438.84,245.85c-1.47-1.9-1.16-3.21,1.27-3.83C440.08,243.43,440.65,245,438.84,245.85Z" style="fill:#6e6c68"/><path d="M296.77,114.83c-.08-2.66,1.55-3.28,3.8-3.18C299.63,113.1,298.91,114.81,296.77,114.83Z" style="fill:#3b3836"/><path d="M112.47,308.17c2.33-1.31,4.14-.19,5.88,1.26A9.58,9.58,0,0,1,112.47,308.17Z" style="fill:#3b3836"/><path d="M742.12,186.82c1.46-1.51,2.75-1.55,3.83.41A3.07,3.07,0,0,1,742.12,186.82Z" style="fill:#3b3836"/><path d="M568.62,71c-.91,2.09-2.24,2-3.81.74C565.92,70.69,567.14,70.2,568.62,71Z" style="fill:#464442"/><path d="M60.29,130.12c.06-2,.63-3.54,3.14-3.06C62.64,128.33,62,129.79,60.29,130.12Z" style="fill:#464442"/><path d="M35.49,126.05c-.2,1.37-.05,3-2,3.23A2.82,2.82,0,0,1,35.49,126.05Z" style="fill:#0f0e0d"/><path d="M98.26,72.19c-.31,2.13-1.94,2-3.49,2C95.42,72.66,96.47,71.78,98.26,72.19Z" style="fill:#1e1a18"/><path d="M91,302.19c1.51.09,3.15,0,3.44,2.07A3.1,3.1,0,0,1,91,302.19Z" style="fill:#161313"/><path d="M748.47,71.89c-.39,2.16-2,2.42-3.74,2.3A3.6,3.6,0,0,1,748.47,71.89Z" style="fill:#464442"/><path d="M93.26,75.58c-.24,2.34-1.94,2.39-3.7,2.34C90.27,76.33,91.67,75.81,93.26,75.58Z" style="fill:#1e1a18"/><path d="M70.48,278.67c-3,1.77-2.14-.95-2.58-2.17C69.26,276.63,69.78,277.76,70.48,278.67Z" style="fill:#161313"/><path d="M189.92,97.62c.24-2.14,1.82-2.3,3.48-2.35C192.92,97.05,191.62,97.64,189.92,97.62Z" style="fill:#191515"/><path d="M56.36,263.52c-2.07-.26-2.23-1.79-2.29-3.4A3.65,3.65,0,0,1,56.36,263.52Z" style="fill:#161313"/><path d="M103.28,69.5c-.29,2.31-2,2.17-3.67,2.15C100.44,70.27,101.53,69.32,103.28,69.5Z" style="fill:#1e1a18"/><path d="M290.78,235.79c1.51.07,3.2-.22,3.63,1.89C292.74,237.93,291.66,237.05,290.78,235.79Z" style="fill:#191515"/><path d="M122.17,59.3c-.27,2.32-2,2.31-3.72,2.31A4.87,4.87,0,0,1,122.17,59.3Z" style="fill:#191515"/><path d="M254.4,198.15c2.24.22,2.36,1.85,2.35,3.55C255,201.13,254.51,199.78,254.4,198.15Z" style="fill:#141110"/><path d="M399.55,159.28c3,1.44.93,2.6-.21,3.81Z" style="fill:#322f2f"/><path d="M844.47,111.31l-.54-2.13c.09-1.15.06-2.35,1.56-2.67C846.86,108.47,845,109.76,844.47,111.31Z" style="fill:#4f4b4a"/><path d="M720.58,107.54c.51-1.17-.48-4,2.58-2.39C722.66,106.34,722.12,107.47,720.58,107.54Z" style="fill:#464442"/><path d="M261.84,209.44c2.43.18,2.32,2,2.43,3.71C262.45,212.58,262.07,211.06,261.84,209.44Z" style="fill:#464442"/><path d="M275.32,208.32c-2.48-.28-2.35-2.11-2.3-3.89C274.69,205.2,275,206.79,275.32,208.32Z" style="fill:#141110"/><path d="M186.39,64c-1.81,0-2.66-.87-2.51-2.68A3.44,3.44,0,0,1,186.39,64Z" style="fill:#191515"/><path d="M46.26,150.5c-1.36-1.85-.17-2.27,1.4-2.49A2.54,2.54,0,0,1,46.26,150.5Z" style="fill:#3b3836"/><path d="M23.67,207l1.64,1.3-.91,1.13A2,2,0,0,1,23.67,207Z" style="fill:#161313"/><path d="M323.44,209.54a10.38,10.38,0,0,0-.11-1.24l1.16-1.33,1.36,1.3c0,.42,0,.83,0,1.25Z" style="fill:#191515"/><path d="M33.83,184.37c-1.57-1.75-.37-2.19,1.17-2.46Z" style="fill:#161313"/><path d="M346.14,190c-.21-1.89.56-2.93,2.54-2.94C348.49,188.56,347.18,189.15,346.14,190Z" style="fill:#191515"/><path d="M664.56,168c1.69.36,2.42,1.07,1,2.58A1.94,1.94,0,0,1,664.56,168Z" style="fill:#464442"/><path d="M168.52,301.47c.5-1.55,1.26-2.14,2.57-.68A2.19,2.19,0,0,1,168.52,301.47Z" style="fill:#3b3836"/><path d="M714,98.8a2.58,2.58,0,0,1-.75,3,7.53,7.53,0,0,1-1.16-.07C712.47,100.6,712.29,99.09,714,98.8Z" style="fill:#3b3836"/><path d="M602.74,212.39c-.55-1.37-.63-2.58,1.13-3.13C605.23,210.93,603.91,211.63,602.74,212.39Z" style="fill:#464442"/><path d="M337.78,179.36c2.31.92,2,1.84,0,2.74C337.77,181.19,337.78,180.28,337.78,179.36Z" style="fill:#2e2b2a"/><path d="M184,61.41c-1.84.14-2.71-.72-2.6-2.55A3.84,3.84,0,0,1,184,61.41Z" style="fill:#191515"/><path d="M25.53,164.45c1.42,1.15.92,1.9-.51,2.46A1.93,1.93,0,0,1,25.53,164.45Z" style="fill:#161313"/><path d="M337.5,218.41c-2-1.15-1.65-2,.35-2.65A2.51,2.51,0,0,1,337.5,218.41Z" style="fill:#191515"/><path d="M904.13,31.91c.54-1.78,1.42-2,2.67-.59A1.69,1.69,0,0,1,904.13,31.91Z" style="fill:#4f4b4a"/><path d="M768.57,171.25c-.39,1.54-1,2.44-2.51.9C766.58,171,767.5,170.92,768.57,171.25Z" style="fill:#3b3836"/><path d="M384.69,219.49c-1.28-.8-1.3-1.6,0-2.4C386,217.89,385.85,218.69,384.69,219.49Z" style="fill:#3b3836"/><path d="M174.75,299.25c.32-1.7,1-2.45,2.61-1C176.78,299.29,175.73,299.19,174.75,299.25Z" style="fill:#3b3836"/><path d="M284.13,124.22c-1.54-1.62-.62-2.29,1-2.67C285,122.52,285.27,123.63,284.13,124.22Z" style="fill:#3b3836"/><path d="M326.83,202.7c.3,1.55,0,2.76-1.79,3.11A2.84,2.84,0,0,1,326.83,202.7Z" style="fill:#2e2b2a"/><path d="M591.06,82.39c.35-1.64,1-2.47,2.58-1A2,2,0,0,1,591.06,82.39Z" style="fill:#464442"/><path d="M537.53,199.56c1.19,1.53.64,2.28-1.13,2.47C535.91,200.82,536,199.84,537.53,199.56Z" style="fill:#4f4b4a"/><path d="M477.86,85.46c-1.89,0-2.35-1.16-2.29-2.76C477.44,82.7,477.47,84.23,477.86,85.46Z" style="fill:#464442"/><path d="M642.94,108c1.68,2,.06,2.21-1.39,2.49A2.45,2.45,0,0,1,642.94,108Z" style="fill:#322f2f"/><path d="M43.89,159.31c-1.4-1.12-.86-1.92.42-2.61A1.78,1.78,0,0,1,43.89,159.31Z" style="fill:#3b3836"/><path d="M185.05,293.71c.16-2.34,1.3-2.92,3.36-1.85Z" style="fill:#3b3836"/><path d="M328.21,229.15a2.38,2.38,0,0,1,2.47-2.14C330.61,228.58,329.71,229.22,328.21,229.15Z" style="fill:#191515"/><path d="M845.38,121.78c-1.43-.5-1.93-1.24-.63-2.44C846.09,119.87,846.9,120.53,845.38,121.78Z" style="fill:#4f4b4a"/><path d="M549.36,96.51c1.52.61,2,1.43.51,2.63A1.73,1.73,0,0,1,549.36,96.51Z" style="fill:#464442"/><path d="M332.73,150.52c1.85.47,2,1.74,1.54,3.3A2.8,2.8,0,0,1,332.73,150.52Z" style="fill:#2e2b2a"/><path d="M117,292.41c-.76,1.18-1.56,1.25-2.39.08A1.47,1.47,0,0,1,117,292.41Z" style="fill:#161313"/><path d="M29.72,230.8c1.44.4,2.39,1,.89,2.43A2,2,0,0,1,29.72,230.8Z" style="fill:#161313"/><path d="M286.94,234.27c1.42-1.44,2-.61,2.44.85A2.27,2.27,0,0,1,286.94,234.27Z" style="fill:#191515"/><path d="M513.34,111.88c-.23-1.72.51-2.65,2.27-2.73C515.28,110.41,515,111.68,513.34,111.88Z" style="fill:#322f2f"/><path d="M41,239.62c-1.86-.5-1.91-1.85-1.6-3.38A3.86,3.86,0,0,1,41,239.62Z" style="fill:#161313"/><path d="M510.86,86.07c-.48,1.29-1,2.38-2.58,1C508.78,85.88,509.77,85.86,510.86,86.07Z" style="fill:#464442"/><path d="M416.92,240.74c1.62.38,2.48,1,.94,2.57A1.76,1.76,0,0,1,416.92,240.74Z" style="fill:#464442"/><path d="M43.71,244.63c-1.86-.34-2.13-1.61-1.87-3.18A3.38,3.38,0,0,1,43.71,244.63Z" style="fill:#161313"/><path d="M613.92,147.23c-.45,1.8-1.45,2.3-3.09,1.3A2.75,2.75,0,0,1,613.92,147.23Z" style="fill:#464442"/><path d="M38.16,248.29c1.35.34,2.79.63,1.32,2.47Z" style="fill:#161313"/><path d="M598.56,80.72c.63-1.36,1.41-2,2.63-.56A2.08,2.08,0,0,1,598.56,80.72Z" style="fill:#464442"/><path d="M40,253.37c1.48.46,1.67,1.59,1.5,2.91C40.42,255.59,39,255.12,40,253.37Z" style="fill:#161313"/><path d="M79.3,115.38c.16-1.63.62-2.75,2.5-1.46C81.35,115.07,80.33,115.23,79.3,115.38Z" style="fill:#464442"/><path d="M134.84,290.5c-.51,1.46-1.25,2.2-2.62.77A2,2,0,0,1,134.84,290.5Z" style="fill:#464442"/><path d="M152.48,287.68c-.43,1.4-1,2.42-2.61,1.11A1.91,1.91,0,0,1,152.48,287.68Z" style="fill:#161313"/><path d="M563.37,87.46c.34-1.68,1-2.59,2.6-1Z" style="fill:#2e2b2a"/><path d="M547.74,119.11c2.08.84,2.4,1.73.1,2.72A2.09,2.09,0,0,1,547.74,119.11Z" style="fill:#464442"/><path d="M504.51,89.42c-.22,1.72-.78,2.73-2.55,1.22Z" style="fill:#322f2f"/><path d="M289.81,118.38c-.27-1.69-.53-3.38,2.05-1.73Z" style="fill:#3b3836"/><path d="M853.18,39.38c.08-.54.16-1.08.23-1.62,0,.54-.11,1.08-.17,1.62Z" style="fill:#4f4b4a"/><path d="M377.92,155.54l1.48.68-1.48.7Z" style="fill:#322f2f"/><path d="M182.44,295.91,184,294.8C184,295.85,183.31,296,182.44,295.91Z" style="fill:#2e2b2a"/><path d="M461.81,81l0,.52-.51.14-.29-.43Z" style="fill:#464442"/><path d="M544.53,203.23l1.94.39a.41.41,0,0,1-.1.6C545.42,204.51,544.94,203.94,544.53,203.23Z" style="fill:#4f4b4a"/><path d="M460.21,143.09l-.76-.59,1.08-.58A5.34,5.34,0,0,1,460.21,143.09Z" style="fill:#3b3836"/><path d="M265.7,195.26c-.48-.67-1-1.33-1.45-2l1.61,1.85Z" style="fill:#191515"/><path d="M403.81,109.21c-4.88-1.68-5.45-6.16-1.27-10h0c0,1.24,0,2.49.05,3.74Z" style="fill:#241f1e"/><path d="M403.92,143.93c-1.95.48-3.87.91-5.94-.65l3.43-5.39C402.41,140.31,403.15,142.07,403.92,143.93Z" style="fill:#0f0e0d"/><path d="M381.16,158.12a7.35,7.35,0,0,1,5.31,1.57c-1.37,2.82-3.53.79-5.31.9Z" style="fill:#141110"/><path d="M381.16,190.7c-.23,2,.86,4.6-2.5,5C378.88,193.75,377.8,191.12,381.16,190.7Z" style="fill:#0e0b0b"/><path d="M402.58,102.93c0-1.25,0-2.5-.05-3.74,1.29.16,2.48.48,2.3,2.15C404.68,102.64,403.59,102.76,402.58,102.93Z" style="fill:#141110"/><path d="M393.54,149.42c0,1.33.2,2.71-1.06,3.67-.42-.42-.84-.83-1.25-1.25Z" style="fill:#141110"/><path d="M642.6,129.2l1.27-2.68c3.75-2.25,5.22-5.91,6.15-9.91,1.71-1.71,2.16-3.93,2.56-6.19,2-1,2.44-3,3.1-4.8a8.87,8.87,0,0,0,2.26-5,7.16,7.16,0,0,0,2.9-3.85l1.74-3.93c4.94-.65,3.46,3,2.91,5-.82,3-1.7,5.82-.89,8.91-.84,2-1.85,3.94-1.59,6.21-1.88,3.66-1.09,7.53-.9,11.35q-.21,4.35-.41,8.7c-1.79,1.27-1.1,2.49.06,3.71l.66,7.38-.12,3-5.68-.55a1.61,1.61,0,0,0-2.63-.1l-8.75.52c-1.25-1.45-2.49-1.2-3.73,0l-2.58.1c-1.34-1.13-3-2-2.91-4.18l1.78-2.19C642.28,138.06,642.4,133.61,642.6,129.2Z" style="fill:#f6f5f5"/><path d="M664.6,106.79c-.81-3.09.07-5.92.89-8.91.55-2,2-5.69-2.91-5l-1.9.06c0-.8-.07-1.59-.11-2.39C666,87,667.27,88,669,96.7c-.92,2.44-2.93,4.56-2.24,7.48C666.57,105.5,666.19,106.64,664.6,106.79Z" style="fill:#3b3836"/><path d="M620.11,159.36c1.92-4.49,4.59-1,6.27-.11,1.93,1,1.91,3.79.62,5.56-2.29,3.15-4.66,1.11-6.88-.44.1-1.19-.13-2.39,1-3.39S622.19,159.79,620.11,159.36Z" style="fill:#1e1a18"/><path d="M615,188.1l-2.46.27a3.44,3.44,0,0,0-.14-1.22c-3.6-6.75-3.6-6.75,4.25-7.63Z" style="fill:#0e0b0b"/><path d="M666.72,104.18c-.69-2.92,1.32-5,2.24-7.48l1.45,0a4.34,4.34,0,0,1,2.51,2.51c-2.22,1.73,1,4.56-1.27,6.28Z" style="fill:#0e0b0b"/><path d="M620.11,159.36c2.08.43,2.18.54,1,1.62s-.88,2.2-1,3.39l-5.72,0c-.2-1.66-.39-3.31-.59-5Z" style="fill:#0e0b0b"/><path d="M662.11,124.35c-.19-3.82-1-7.69.9-11.35C666.23,117.06,665.31,120.8,662.11,124.35Z" style="fill:#3b3836"/><path d="M661.55,156.75c-1.13,0-2.1-.41-2.18-1.65s.68-1.87,1.93-1.77a2.22,2.22,0,0,1,2.23,1.79C663.74,156.46,662.69,156.77,661.55,156.75Z" style="fill:#161313"/><path d="M607.63,198.24c0,.42,0,.83-.07,1.25a8.46,8.46,0,0,0-5.07,1.25C602,195.29,604.17,195.49,607.63,198.24Z" style="fill:#0e0b0b"/><path d="M636,142.89c-.12,2.15,1.57,3.05,2.91,4.18-2.53,2.12-3.32-1-4.91-1.64C634.21,144.21,634.42,143,636,142.89Z" style="fill:#464442"/><path d="M661.76,136.76c-1.16-1.22-1.85-2.44-.06-3.71C663.25,134.26,663.15,135.5,661.76,136.76Z" style="fill:#3b3836"/><path d="M641.51,147c1.24-1.21,2.48-1.46,3.73,0C644,148.35,642.76,148.19,641.51,147Z" style="fill:#464442"/><path d="M603.69,185.66a4.16,4.16,0,0,1,.17-1.21c1.08.18,2.46-.43,3,1.06.08.22-.34.9-.43.88C605.53,186.2,604.61,185.92,603.69,185.66Z" style="fill:#0e0b0b"/><path d="M634.72,162.78c-.16.35-.24.89-.49,1s-.67-.25-1-.4c.15-.35.23-.89.48-1S634.37,162.63,634.72,162.78Z" style="fill:#1e1a18"/><path d="M654,146.44a1.61,1.61,0,0,1,2.63.1C655.68,148.15,654.81,147.91,654,146.44Z" style="fill:#464442"/><path d="M662.3,147.09l.12-3C664.62,145.21,664.2,146.18,662.3,147.09Z" style="fill:#464442"/><path d="M558.56,104.25c.37,1.32-2.9,4.12,1.58,4.55.64.07-.19,1.43-1,1.53-2.07.23-4.76.49-5.09-2.08s.54-5.23,1.08-7.81a1.4,1.4,0,0,1,2-.82C559.11,100.57,558.24,102.45,558.56,104.25Z" style="fill:#1e1a18"/><path d="M546.89,91.35l-9.78,2.8c-.82-5.33,2.73-5.19,6.31-5l3.74.06Z" style="fill:#0e0b0b"/><path d="M553.46,139.43l-1.14,1.14c-4.52-.85-1.56-4.26-2.34-6.45C551.87,135.5,554.6,136.25,553.46,139.43Z" style="fill:#1e1a18"/><path d="M559,97.26a4.37,4.37,0,0,1-2.75-5.38c.1-.41,1.07-1.06,1.31-.94C560.62,92.46,558,95.2,559,97.26Z" style="fill:#1e1a18"/><path d="M547.16,89.18l-3.74-.06c.15-1,.28-2.11,1.6-2.25C546.7,86.69,547,87.9,547.16,89.18Z" style="fill:#1e1a18"/><path d="M547.09,162.17c-.85.21-1.08-.37-1.1-1s-.39-1.63.63-1.95c.16-.05.58.48.77.81C547.82,160.81,548,161.58,547.09,162.17Z" style="fill:#1e1a18"/><path d="M556.74,122.67c-.16.34-.23.87-.48,1s-.67-.24-1-.39c.15-.34.23-.88.48-1S556.39,122.52,556.74,122.67Z" style="fill:#2e2b2a"/><path d="M631.24,73.25a3.49,3.49,0,0,1,.53.7c0,.08-.24.42-.34.41a4.12,4.12,0,0,1-.87-.31C630.79,73.79,631,73.52,631.24,73.25Z" style="fill:#464442"/><path d="M540.81,215.81a2.3,2.3,0,0,1-2.38,1.17A2.39,2.39,0,0,1,540.81,215.81Z" style="fill:#1e1a18"/><path d="M552.23,141.84c0,.39,0,.79,0,1.19-.5-.13-1.41-.23-1.43-.4C550.73,141.56,551.68,142,552.23,141.84Z" style="fill:#1e1a18"/><path d="M94.46,89.12c2.06,0,4.12,0,6.18,0,1.29,0,3.22-.55,3-1.56-1.77-9.41,7.48-6.25,10.88-9.69,1.83,0,3.67,0,3.81,2.53-1.21,1-2,2.58-.11,3.11s2.38-1.5,2.57-3.11h2.55c2.08,1.76.95,4.16,1.26,6.27-3.07.5-4.85,2.75-7,4.69-3,2.69-5.73,5.59-10.69,2-2.28-1.62-5.38,2-7.49,4.16-1,1-2.67,1.95-2.8.93-.65-4.84-4.85-3-7.26-4.31C90.7,92.1,90.46,88.49,94.46,89.12Z" style="fill:#090606"/><path d="M118.36,80.38c-.14-2.53-2-2.53-3.81-2.53.35-3.86-5.38-3.65-5.06-7.49,2.11-.45,4.22,1.37,6.33,0a3.83,3.83,0,0,0,2.51,3.78c2.45,1.46,6.24,1.86,5,6.25h-5Z" style="fill:#0f0e0d"/><path d="M173.66,69.09c-.24,1.66.55,4.41-2.86,2.71-.74-.37-1.4-.88-2.14-1.24-1.6-.78-5.33.71-4.49-2.44s3.71-1,5.72-.28C170.8,69.3,172.28,69.05,173.66,69.09Z" style="fill:#1e1a18"/><path d="M143.46,89.11c-1.73-.15-3.7.63-5-1.22,1.92-2,.35-2.24-1.24-2.49v0c1.25-1.67,4-2.21,3.77-5C145.64,82.2,142.61,86.2,143.46,89.11Z" style="fill:#191515"/><path d="M133.42,80.38c-1.45-.35-4.22.74-4.08-1.16.17-2.47,2.95-3.25,5.27-3.87,1.64,2.49-1.77,3.19-1.18,5Z" style="fill:#0f0e0d"/><path d="M190,84.14c-1.77,1.94-3.91,1.46-4.3-.61-.53-2.79,2.4-2.66,4.3-3.16Z" style="fill:#090606"/><path d="M141,80.37c.25,2.8-2.52,3.34-3.77,5a2.61,2.61,0,0,1-1.26-2.5l1.27-2.5C138.46,80,139.71,78.39,141,80.37Z" style="fill:#1e1a18"/><path d="M178.69,79.12c1.34-.67,1.8-3.08,3.94-2.09a1.71,1.71,0,0,1,.58,1.52,3.73,3.73,0,0,1-4.52,3.09Z" style="fill:#090606"/><path d="M150.6,73.21c-.17,2.48-.57,4.16-2.85,4.39-.38,0-1.21-.68-1.18-1C146.77,74.59,148,73.53,150.6,73.21Z" style="fill:#0f0e0d"/><path d="M178.69,79.12v2.52l-1.24,1.23c-1.26.34-2.51,2-3.78,0C174,79.92,176.39,79.56,178.69,79.12Z" style="fill:#0f0e0d"/><path d="M129.65,87.9c-.21,1.11.35,3.2-1.19,2.94a4.7,4.7,0,0,1-3.84-4.2A8.42,8.42,0,0,1,129.65,87.9Z" style="fill:#090606"/><path d="M161.84,56.75a2.41,2.41,0,0,1-2.06,2c-1.18.22-2.09-.23-2.18-1.5s.77-1.81,1.93-1.88S161.61,55.45,161.84,56.75Z" style="fill:#0f0e0d"/><path d="M172.41,82.88h-5V80.37C169.36,80.6,172,79.53,172.41,82.88Z" style="fill:#0f0e0d"/><path d="M157.22,89l-4.93.15A2.32,2.32,0,0,1,155,86.73,2.07,2.07,0,0,1,157.22,89Z" style="fill:#090606"/><path d="M167.38,80.37v2.51c-1.52-.34-3.25-.34-4.5-1.12-1.84-1.15,0-1.15.72-1.4Z" style="fill:#090606"/><path d="M165.51,56.68c.59.52,1.36,1,1.29,1.19a3.43,3.43,0,0,1-1.23,1.81c-.75.43-1.72.16-1.48-1C164.23,58,164.93,57.47,165.51,56.68Z" style="fill:#0f0e0d"/><path d="M190,84.14V80.37a2.62,2.62,0,0,1,2.51,1.25c0,.84,0,1.68,0,2.52Z" style="fill:#0f0e0d"/><path d="M173.66,69.09c-1.38,0-2.86.21-3.77-1.25C172,65.78,173.16,66.42,173.66,69.09Z" style="fill:#0f0e0d"/><path d="M167.38,80.37H163.6c.19-1.27.51-2.47,2.19-2.25C167.09,78.27,167.21,79.36,167.38,80.37Z" style="fill:#0f0e0d"/><path d="M141.07,56.8c.43.71.89,1.15.92,1.6,0,.86-.46,1.56-1.4,1.26-.33-.11-.63-1-.59-1.45S140.57,57.42,141.07,56.8Z" style="fill:#0f0e0d"/><path d="M127.13,65.71c-.38.62-.59,1.37-1,1.47-1,.25-1.39-.55-1.28-1.36a1.56,1.56,0,0,1,1-1.08C126.22,64.7,126.65,65.31,127.13,65.71Z" style="fill:#0f0e0d"/><path d="M181.73,65.83a3.29,3.29,0,0,1-1.29.51c-.92,0-1.44-.65-1-1.5.19-.34,1-.5,1.51-.45S182.07,64.85,181.73,65.83Z" style="fill:#0f0e0d"/><path d="M118.33,74.12a3.83,3.83,0,0,1-2.51-3.78h1.25C118.55,71.25,118.29,72.73,118.33,74.12Z" style="fill:#191515"/><path d="M156.53,78.05l1.13,1.43c-.43.24-.91.74-1.27.66s-.73-.67-1.09-1Z" style="fill:#0f0e0d"/><path d="M137.21,80.38l-1.27,2.5a2.29,2.29,0,0,1-2.52-2.5h3.79Z" style="fill:#0f0e0d"/><path d="M137.51,69.89c-.35-.15-.89-.23-1-.48s.24-.67.39-1c.34.15.89.23,1,.47S137.66,69.54,137.51,69.89Z" style="fill:#0f0e0d"/><path d="M171.47,61.11c-.35-.15-.89-.22-1-.47s.24-.68.39-1c.35.15.89.22,1,.47S171.62,60.76,171.47,61.11Z" style="fill:#0f0e0d"/><path d="M137.2,85.4c1.59.25,3.16.51,1.24,2.49l-1.24-1.24Z" style="fill:#0f0e0d"/><path d="M117.07,70.34h-1.24c.08-.92.17-1.84.25-2.76h.74Z" style="fill:#1e1a18"/><path d="M122.77,69.87c.1.17.27.34.25.5s-.21.29-.33.43C122.72,70.49,122.74,70.18,122.77,69.87Z" style="fill:#1e1a18"/><path d="M94.46,89.12c-4-.63-3.76,3-5.06,5-4.3.22-9.31-1.5-11.52,4.29-6.93-1.32-5.73,4.44-7.18,8-1.54,3.81-5.51,3.84-9,.21,2.17-1.31,4.81-2.88,4.76-5.38-.09-5.12,3.1-7.74,7-8,7-.52,9.94-6.74,15.25-9.61s5.46.16,7,3Z" style="fill:#141110"/><path d="M34.07,165.63c-2-.26-3.86-.8-3.23-3.3.72-2.82,2.5-4.62,5.75-4.22C36.71,160.93,36.52,163.66,34.07,165.63Z" style="fill:#141110"/><path d="M57.42,115c0,1.35-.93,1.69-2.05,1.67-1.53,0-2.92-.45-3.13-2.23-.13-1.1.89-1.27,1.68-1.33A3.13,3.13,0,0,1,57.42,115Z" style="fill:#141110"/><path d="M47.28,131.27a8.27,8.27,0,0,1,.53,2c0,.84-.4,1.75-1.38,1a3.17,3.17,0,0,1-.76-2.14C45.63,131.51,46.11,131,47.28,131.27Z" style="fill:#141110"/><path d="M31.53,181.89c-2.07-1.75-.92-4.14-1.23-6.23h1.24Z" style="fill:#161313"/><path d="M31.54,175.67H30.3c0-1.83,0-3.64,2.52-3.77Z" style="fill:#141110"/><path d="M36.59,155.6a2.59,2.59,0,0,1,1.26-2.51C39.75,155.09,38.18,155.35,36.59,155.6Z" style="fill:#141110"/><path d="M48.39,127.1c.15-.35.23-.88.48-1s.67.25,1,.4c-.15.34-.23.88-.48,1S48.74,127.25,48.39,127.1Z" style="fill:#141110"/><path d="M34.07,168.14v-1.26C34.92,167.3,34.94,167.72,34.07,168.14Z" style="fill:#141110"/><path d="M41.62,126.76l1.24-1.24Z" style="fill:#141110"/><path d="M315.79,225.33c0-3.28,1.6-4.64,4.63-4.49,2.61.13,4.92,2,4.62,4-.51,3.3-4.27,3.43-6.93,4C314.84,229.57,316.18,226.66,315.79,225.33Z" style="fill:#0f0e0d"/><path d="M261.63,198.28c.75-1.95,2-2.38,3.8-1.3,0,3.58-.61,7.21,3.95,9.12,2.07.87,2.44,3.56,2.42,5.89-4.68-1.85-7.3-5.5-8.91-10.05Z" style="fill:#191515"/><path d="M283.75,224.09c-.35,1.59-1.22,1.59-2,1.57-1.86,0-2.42-1.2-2.28-2.86.08-1,.73-1.71,1.52-1.24A16,16,0,0,1,283.75,224.09Z" style="fill:#1e1a18"/><path d="M287,227.58a1.65,1.65,0,0,1,1.59-1.55c.91,0,1.72.53,1.46,1.44a2.66,2.66,0,0,1-1.62,1.59C287.55,229.3,287.09,228.49,287,227.58Z" style="fill:#1e1a18"/><path d="M328.35,210.78c-.16,1.56-.79,2.81-2.56,2.15-1.33-.49-.82-1.46,0-2.17Z" style="fill:#191515"/><path d="M328.35,210.78l-2.51,0c0-.42,0-.83,0-1.24s0-.83,0-1.25A2.27,2.27,0,0,1,328.35,210.78Z" style="fill:#0e0b0b"/><path d="M337.18,193.19a2.17,2.17,0,0,1,2.46-2.44A2.27,2.27,0,0,1,337.18,193.19Z" style="fill:#2e2b2a"/><path d="M304.46,104.2c-2.36,1.36-4.57,3.6-7.55,1.26,0-1.83,0-3.66-2.53-3.77h-2.5c-.33-.65-.55-1.77-1-1.87-1.36-.28-1.34,1-1.52,1.88-1.87,1.64-3.65,2.1-4.86-.64-.76-1.72,3.49-10.44,5.3-10.43,4.05,0,8.07-1.78,12.13-.22h0C301.77,95.19,299.77,100.3,304.46,104.2Z" style="fill:#141110"/><path d="M304.46,104.2c-4.69-3.9-2.69-9-2.51-13.78,5.7-.91,4.55,2.46,3.26,5.56,2.66,1.62,4.58-.64,6.77-.56l0,3.77c-3.92-.57-5.51,1.17-5,5Z" style="fill:#161313"/><path d="M282.51,119.58c-3.47-1.76-6.85,2.65-9.11-1.28-.59-1,.19-4.72,2.54-4.91C278.93,113.15,281.46,114.78,282.51,119.58Z" style="fill:#141110"/><path d="M259.55,152.19c2.69-1.62,5.47-2.68,6.37-6.68C267.64,154.63,267.64,154.63,259.55,152.19Z" style="fill:#141110"/><path d="M263,193.21c-.84.86-1.69,1.71-2.54,2.56-6.25,0-1.4-4.31-2.48-6.32h2.51Z" style="fill:#191515"/><path d="M278.05,108c-.33-3.74,2.08-3.95,4.83-3.73,1.35.11,2.62.47,2.39,2.12-.2,1.44-1.35,1-2.4,1A34.77,34.77,0,0,0,278,108Z" style="fill:#141110"/><path d="M307,104.2c-.53-3.84,1.06-5.58,5-5,0,1.25,0,2.5,0,3.76-2-.2-2.46,1.76-3.77,2.52Z" style="fill:#141110"/><path d="M260.83,176.66c-2.15-4.1-1.84-6.51-.87-9.64C262.58,169.82,261.65,172.37,260.83,176.66Z" style="fill:#141110"/><path d="M260.44,189.45h-2.51c-1.64-1.31-1-2.72.48-3.06C261,185.8,260.16,188.14,260.44,189.45Z" style="fill:#141110"/><path d="M278,108c-.18,1.26-.48,2.49-2.14,2.22-.39-.06-1-.89-.95-1.12.57-1.47,2-.93,3.1-1.09Z" style="fill:#141110"/><path d="M294.38,101.69c2.56.11,2.55,1.94,2.53,3.77C294.36,105.34,294.37,103.51,294.38,101.69Z" style="fill:#161313"/><path d="M294.39,84.14c2.08-2,3.26-1.42,3.77,1.24C296.78,85.36,295.3,85.61,294.39,84.14Z" style="fill:#161313"/><path d="M272.82,126l-1.43,1.12c-.24-.42-.73-.9-.65-1.26s.67-.73,1-1.08Z" style="fill:#141110"/><path d="M269.21,110.58c-.92.3-1.53.71-1.85.55s-.65-.87-1-1.33c.36-.15.79-.49,1.08-.4A8.23,8.23,0,0,1,269.21,110.58Z" style="fill:#141110"/><path d="M289.37,101.7c.18-.91.16-2.16,1.52-1.88.44.1.66,1.22,1,1.87Z" style="fill:#161313"/><path d="M276.45,122.28l1,.44c-.15.35-.23.89-.48,1s-.67-.24-1-.38C276.14,123,276.29,122.63,276.45,122.28Z" style="fill:#141110"/><path d="M287.76,109.7c.35.15.89.22,1,.47s-.25.67-.4,1c-.35-.15-.89-.22-1-.47S287.61,110,287.76,109.7Z" style="fill:#141110"/><path d="M754.58,178.56c-.39,1.56-.44,3.92-2.77,4-2,.09-3.44-1.26-3.41-3.62,0-1.94.6-3.23,2.8-3.28C753.09,175.65,754.56,176,754.58,178.56Z" style="fill:#1e1a18"/><path d="M704.32,128l2.5,1.23c-.22.88-.12,2.33-1.53,1.85S704.43,129.15,704.32,128Z" style="fill:#090606"/><path d="M704.94,137.23l-.28-.41.61-.32c0,.17.11.36.06.49S705.07,137.15,704.94,137.23Z" style="fill:#090606"/><path d="M704.36,126.74l0,1.31C703.42,127.59,703.5,127.16,704.36,126.74Z" style="fill:#090606"/><path d="M104.53,306l-5.1-1.51c1.42-3.66,4.93-2.82,6.66-1.67C109.71,305.2,104.15,304.41,104.53,306Z" style="fill:#161313"/><path d="M137.23,301.14c1.54.31,3.07-2,4.53-.11.49.65.2,2-.7,2-2.17.14-5.06,2.19-6.05-1.77Z" style="fill:#3b3836"/><path d="M153.54,297.26c1.49.35,3.24.86,1,2.45-1.77,1.28-4.08,2.57-4.84-1.2C150.66,297.07,152.15,297.32,153.54,297.26Z" style="fill:#241f1e"/><path d="M112.15,299.39c.5,1.26-.17,1.58-.75,1.46a3.67,3.67,0,0,1-2.05-1.07c-.58-.75.25-1.15.85-1.07A8.8,8.8,0,0,1,112.15,299.39Z" style="fill:#161313"/><path d="M90.19,292.85l.75,1.38c-.37.14-.84.49-1.09.38a5.7,5.7,0,0,1-1.29-1.08Z" style="fill:#161313"/><path d="M167.29,295.67a4.61,4.61,0,0,1,.7,1.53c0,1.1-.85,1.21-1.6,1-.4-.12-.64-.75-1-1.15Z" style="fill:#2e2b2a"/><path d="M179.11,292.89a4.68,4.68,0,0,1-4.4.1C176.1,292,177.31,292.13,179.11,292.89Z" style="fill:#2e2b2a"/><path d="M171.7,295.46c-.19.31-.31.72-.58.87s-.58-.15-.87-.25c.16-.31.24-.76.5-.89S171.36,295.35,171.7,295.46Z" style="fill:#2e2b2a"/><path d="M312,103c0-1.26,0-2.51,0-3.76l0-3.77,3.8-5c.76,1.47,1.67,3,1.12,4.67-1,3,1.1,2.87,2.9,3.14-.05.22-.09.45-.12.68Z" style="fill:#241f1e"/><path d="M372.38,217c0-2.22.14-4.4,2.82-5.89,1.2,2.17,1.51,4-.35,5.89Z" style="fill:#141110"/><path d="M372.7,249.93a1.48,1.48,0,0,1,1.84,1.14,1.52,1.52,0,0,1-1.55,2.06,1.46,1.46,0,0,1-1.61-1.47A1.49,1.49,0,0,1,372.7,249.93Z" style="fill:#1e1a18"/><path d="M381.25,228.38c0,1.65-.07,3.3-.1,5C378.61,231.81,378.65,230.2,381.25,228.38Z" style="fill:#090606"/><path d="M374.68,255.93c-.7.45-1.11.94-1.56,1-.83.07-1.63-.31-1.35-1.31.1-.35.92-.69,1.41-.67S374,255.45,374.68,255.93Z" style="fill:#241f1e"/><path d="M371.46,258.89c-.06.16-.11.44-.17.44a.79.79,0,0,1-.51-.18s.09-.29.15-.45Z" style="fill:#241f1e"/><path d="M386.05,109.24c-1.14-1.37.49-2.52.3-3.81,1,.22,2.08.43,2.13,1.74C388.55,108.84,387.3,109.06,386.05,109.24Z" style="fill:#191515"/><path d="M737.81,83.2c-.13,0-.37-.1-.37-.15a1.16,1.16,0,0,1,.14-.47c.13,0,.37.09.37.15A1.26,1.26,0,0,1,737.81,83.2Z" style="fill:#3b3836"/><path d="M520.76,102.94h-6.28c.37-2.1-1.38-4.2,0-6.31,1.45-1.7,3.52-1.92,5.49-2.61,5.34-1.86,6.88.06,5.84,5.15h0c-2.72-.14-5.41-.24-5,3.75Z" style="fill:#1e1a18"/><path d="M512,104.22c-1.5,1.53-3.24,3-5.4,1.84-1.38-.75-1.1-2.66-.72-4,.82-3,3-4.3,6.1-4.14C512,100,512,102.12,512,104.22Z" style="fill:#1e1a18"/><path d="M512,104.22c0-2.1,0-4.21,0-6.32a2.71,2.71,0,0,1,2.52-1.26c-1.36,2.11.39,4.21,0,6.31A2.68,2.68,0,0,1,512,104.22Z" style="fill:#241f1e"/><path d="M642.6,129.2c-.2,4.41-.32,8.86-4.8,11.5C638.34,136.43,639.21,132.29,642.6,129.2Z" style="fill:#464442"/><path d="M650,116.61c-.93,4-2.4,7.66-6.15,9.91C644.88,122.57,646.5,119,650,116.61Z" style="fill:#464442"/><path d="M655.68,105.62c-.66,1.84-1.14,3.79-3.1,4.8C651.47,107.45,652.51,105.85,655.68,105.62Z" style="fill:#3b3836"/><path d="M660.68,92.9l1.9-.06-1.74,3.93L659,96.63C659.17,95.21,659,93.63,660.68,92.9Z" style="fill:#322f2f"/><path d="M659,96.63l1.83.14a7.16,7.16,0,0,1-2.9,3.85C657.64,99.12,657.52,97.66,659,96.63Z" style="fill:#3b3836"/><path d="M373.27,209c.05-.16.1-.44.16-.44a1.54,1.54,0,0,1,.53.16c0,.15-.1.44-.16.44A1.7,1.7,0,0,1,373.27,209Z" style="fill:#191515"/><path d="M672.92,99.18a4.34,4.34,0,0,0-2.51-2.51c.08-1.64-.1-3.48,2.31-3.62,1.08-.07,2.18.19,2.43,1.4C675.56,96.51,676,98.71,672.92,99.18Z" style="fill:#0f0e0d"/><path d="M661.62,84.22l1.19-.07c-.16.89-.19,2.21-1.48,1.75C660.33,85.54,661,84.71,661.62,84.22Z" style="fill:#322f2f"/><path d="M386.21,185.68l-.46-.24.43.27Z" style="fill:#3b3836"/><path d="M840.21,188.18l-.48-.27.43.31Z" style="fill:#4f4b4a"/><path d="M520.76,102.94c-.39-4,2.3-3.89,5-3.75C525.43,102.21,523,102.5,520.76,102.94Z" style="fill:#0e0b0b"/><path d="M841.63,143c-.06.44-.12.88-.19,1.32-.49-.17-1.42-.38-1.41-.51C840.11,142.81,841,143.18,841.63,143Z" style="fill:#0f0e0d"/><path d="M452.3,155.89c-.11,0-.32-.1-.32-.15a1.21,1.21,0,0,1,.12-.43c.12.05.33.1.33.15A1.5,1.5,0,0,1,452.3,155.89Z" style="fill:#3b3836"/><path d="M435.18,263.65l.47.22-.66.52c-.08-.15-.24-.32-.21-.43S435,263.75,435.18,263.65Z" style="fill:#3b3836"/><path d="M118.36,80.38h2.46c-.19,1.61-.59,3.66-2.57,3.11S117.15,81.41,118.36,80.38Z" style="fill:#141110"/></g></g></svg>