<svg xmlns="http://www.w3.org/2000/svg" viewBox="0 0 645 567"><g id="Layer_2" data-name="Layer 2"><g id="Layer_1-2" data-name="Layer 1"><path d="M.09,566.91Q.09,285.75,0,4.59C0,.84.84,0,4.59,0Q322.5.17,640.41,0c3.75,0,4.59.84,4.59,4.59q-.16,278.91,0,557.82c0,3.75-.84,4.59-4.59,4.59Q320.25,566.84.09,566.91Z" style="fill:#fefefe"/><path d="M196.88,182.44c1.25,14.13.08,28.39,2.21,42.47,2.38,5.39.74,11.13,1.49,16.64a65.12,65.12,0,0,1,0,17.25c-1.08,8.39,1.72,16.35,3.47,24.4.43,1.94,1.15,3.83.76,5.87a2,2,0,0,1-1,1.19c-1.68-.12-1.79-1.61-2.35-2.7-.5-2.77-1.86-4.81-4.73-5.58a3.3,3.3,0,0,1-.37-2,44.85,44.85,0,0,0,.61-5.55,8.56,8.56,0,0,1,.26-1.32,7.81,7.81,0,0,0,.09-5.65c-.66-1.24-1.08-2.69-2.7-3.05-.75.29-1.07,1-1.51,1.58a22.45,22.45,0,0,0-2.85,4.47c1,1.42,3.1,1.14,4.06,2.58a3.57,3.57,0,0,1-1.11,3.38,6.91,6.91,0,0,1-3.53,1.25c-.8-.46-1.62-.16-1.65.62,0,1-.09,2.12-1.1,2.56-1.29.57-2.13-.51-3-1.25-1.4-1.23-1.43-2.88-1.29-4.56a28.13,28.13,0,0,0-.12-5.43c-.07-1,.88-2-.11-2.93-.65-1.88.46-3.5.9-5.24-1.48-.87-3.47-.31-4.41-2a2.27,2.27,0,0,1-.22-1.33,17.1,17.1,0,0,0,1.66-4.44c.48-4.74,3.35-8.27,6-11.87,2.07-1.7,0-3.86.63-5.72a9.06,9.06,0,0,1,.26-1.36c.14-1.69,1.5-3.14-1.08-4.81-3-1.92,0-4.53.67-6.83a36.3,36.3,0,0,0,1.3-9.21c.08-.3.26-.57.33-.87.13-.5.9-.52.83-1.15-.3.36-.66.67-1,1.07-1.11,2,.93,5-2,6.38a2.84,2.84,0,0,1-2.09-1.84c-.35-2.65-2.33-4.36-3.77-6.37-2-2.4-5.16-4.34-3.52-8.3a3.1,3.1,0,0,1,2-2.52c2.22-.32,1.12-2.09,1.39-3.24-.9-1.54-1.47-.25-2.05.28-1.09,1-2.17,1.91-3.66.68-.78-1.63,0-3.2.13-4.8.6-2.84,2.08-5.05,5.23-4.54,4.28.68,2.74-1.57,2.08-3.52a8.47,8.47,0,0,1,.57-4.84c.7-2,.21-3.27-2.2-3.12a8.79,8.79,0,0,0-1.81.48c-1.14.92-2,2.59-3.89,1.55a3.49,3.49,0,0,1-.81-1.9,10.79,10.79,0,0,1,1-5.54,4,4,0,0,1,1.94-.79c1.66-.41,4.09.63,4.73-1.72.88-3.3-2.69-3.18-4.15-4.7a9.41,9.41,0,0,1-.95-.83c-.87-.88-1.82-1.53-3.16-1.11-1.76,1.25-3.36,2.74-5.5,3.35-1.24.35-2.71,1.28-3.67,0s.43-2.38,1.19-3.41c3-3.49,3-3.49-3.23-7-.81.53-1.73.91-2,2a3.42,3.42,0,0,1,2.36,0c2.28,2-.07,3.38-.65,5-2.7,2.73-2.65,5.94-1.63,9.32-.27,3.16,1.4,6.68-1.69,9.32-.93-.19-1.28-.9-1.55-1.69-.64-2.41.2-5.12-1.53-7.3a8.55,8.55,0,0,1-.45-3.58,6.88,6.88,0,0,0-.32-2.23c-.16,1,.4,1.81.23,2.74a2.54,2.54,0,0,1-1.29,2.24c-.69.33-2.65-.25-1.16,1.65a3.77,3.77,0,0,1,.22,1.85,2.66,2.66,0,0,0,1.5,3.6c2.92,2.11,3.85,5.12,3.92,8.54a4,4,0,0,1-.83,2.15c-2.12,1.35-3.77.34-5.23-1.16-1.14-1.18-2.09-2.56-3.72-3.14-8.66-9.43-7.74-23,3.34-32.7C160.91,144.11,179,146,185,159,188.68,166.91,194.13,174,196.88,182.44Z" style="fill:#020202"/><path d="M179.05,258c0,.33,0,.66,0,1,2.55,1.66,4.27,3.64,2.73,6.91-.18,1.49-1.36,2.8-.81,4.43.34,1.29.82,2.54,1.08,3.85-.33,4.11,2.42,7,4.18,10.81,1.78-2.81,2.26-5.68,3.82-8,.72-1.17,1.91-1,3-1,4.91-.45.28,3.07,1.71,4.08a8.57,8.57,0,0,1,0,1.34c-.07,1.71-1.12,3.27.51,5.1s.55,4.45-.23,6.63c-1.51,4.2-2.25,8.18,1.09,12.05,1.58,1.83,1,4.45,1.17,6.76a37.64,37.64,0,0,1,0,7.12c-.06,1.41,0,2.83-.17,4.24,0,.46-.08.91-.14,1.36,2.23,3.86.22,7.54-.45,11.25.75,1.79,1.11-.43,1.71-.19,1.56-.54,3.13-1.14,4,1-.32,2.43-.22,5-1.82,7.08-.18.25-.8.41-.72.45,3.77,2,2.81,6.39,4.66,9.35a4.54,4.54,0,0,1,.39,1.3c.26,1.57-2.67,3.42.43,4.74a3.25,3.25,0,0,1,.29,1.21c.61,1.88,1.56.55,1.94,0,1.17-1.66,3-2.81,3.89-4.71-1.5-1.27-2.61.17-3.83.07-1.58-.66-1.89-2.17-2.39-3.55-.43-2.24-.67-4.44,1.15-6.26a4.34,4.34,0,0,0,1.61-2.09,4.88,4.88,0,0,1,1-1.74c3.86-1.56,2.83-5.61,4.25-8.4.65-1.9,2.53-1.55,3.91-2.13,1.43-.76,3.69-.63,3.36-3.22.14-1.43,1.14-2.45,1.72-3.67A49.37,49.37,0,0,1,228,311.62c2.8-5.27,2.31-11.58,5.38-16.8.74-1.26,0-2.92-.69-4.27a2.89,2.89,0,0,1-.07-1.34,13.69,13.69,0,0,1,1.56-2.09c.85-1.37.54-2.91.6-4.4a10,10,0,0,1,.54-3.51,13.71,13.71,0,0,1,2.53-3.8c.93-.51,1.88-1.32,2.65.19-.54,6-2.72,11.65-3.35,17.61,0,6.4-2,12.32-3.79,18.36-2.75,9-5.42,18.09-6.3,27.56-.19,2-.71,3.87-1.08,5.81-2.54,10-2.27,20.54-6.67,30.1A7.83,7.83,0,0,0,219,378c-.44,9.13-6.44,12.3-14.58,7.72a81,81,0,0,0-6.88-7.13c-4.16-3.57-3.61-9-4.52-13.87-2.24-11.88-1-24.16-4.23-35.93-.77-2.83.35-5.92-.84-8.76-2.08-5.32-2.19-11.1-2.85-16.59-1.33-11-6.29-20.94-8.29-31.69-.39-2.1-1.24-4.11-.92-6.32.24-3.35-2.23-6.25-1.66-9.66a2.89,2.89,0,0,1,2.31-2C178.4,254.56,179.47,255.85,179.05,258Z" style="fill:#020202"/><path d="M234,252c-.59-8.76,3-16.39,6.83-23.82,3.27-6.27,2.55-13.73,6.17-19.75,3.34-5.54,3.7-12.34,7.79-17.5a1.86,1.86,0,0,1,1.26-.41c2.36.33,5.31,1.77,5.08-2.7-.94-.86-1.26.13-1.76.59a2.4,2.4,0,0,1-1.8.89c-2.85-4.18,1.15-5.84,3-8.28a4,4,0,0,1,1.76-1.25c2,.63,1.76,2.71,2.69,4a18.47,18.47,0,0,1-2.1,14.31,3,3,0,0,1-4.29.3c-.37-.18-.73-.38-1.09-.57-1.11-.39-1.2.39-1.3,1.17a17.31,17.31,0,0,1-.9,5.39c-.89,2.95-3,5.38-3.65,8.42-.83,1.69-2,3.15-2.81,4.87-.92,2.19-.72,4.63-1.44,6.87a23.2,23.2,0,0,1-.51,3.62c-1.61,2.65-1.5,5.74-2.18,8.62a9,9,0,0,1-1.13,2,8.78,8.78,0,0,0-2.14,4.92c-.83,8.36-5.11,15.95-5.36,24.43a9.8,9.8,0,0,1-1.59,4.13,19.58,19.58,0,0,1-.73,2.07c-3.48,4.78-3.3,10.38-3.6,15.88-.62,2.67-.95,5.41-1.8,8a15.56,15.56,0,0,1-1.82,4.26c-.62.62-1.28.95-2.06.25-1.59-1.93-1.16-4.08-.68-6.23a57.31,57.31,0,0,1,5.22-27.45C230.65,263.36,233.63,258.06,234,252Z" style="fill:#050505"/><path d="M291,316c-1.05-8,2.65-14.78,7-20.68,2.91-3.93,4.81-9.08,9.76-11.37,3.83-1.86,4.89-5,4-8.92-.5-2.2.39-3.9,2.43-4s1.59,2.05,1.74,3.45c.19,1.94-.44,4,.58,5.81a29.61,29.61,0,0,1,.89,8.23c-.22,2.2-3.21,2.94-2.87,5.44-.35,2.36,1.65,3.8,2.26,5.78a26.65,26.65,0,0,1,.15,3.57,34.57,34.57,0,0,0,.93,6.79c.09,1.59.44,3.16.39,4.76s0,3.3-1.65,4.33a1.54,1.54,0,0,1-1.39-.55c-2-2.71-1.35-6.36-3.2-9.13a10,10,0,0,1-1.26-4.14c.45-3.4-1.55-5.4-4.06-7.12a2.63,2.63,0,0,1-.28-2.05,5.75,5.75,0,0,1,1.76-2.18,5,5,0,0,0,1.5-5.34,1.93,1.93,0,0,0-.42.1,1.37,1.37,0,0,0-.37.32c-1.74,2.68-3.84,5.08-5.24,7.95a47.46,47.46,0,0,0-3.11,4.2,22.76,22.76,0,0,0-2,3.34,57.49,57.49,0,0,0-2.74,6.94c-.94,2.23-.13,4.76-1.22,7a2.62,2.62,0,0,1-1.1.91,1.85,1.85,0,0,1-1.89-.73C291.06,317.84,291.6,316.79,291,316Z" style="fill:#090909"/><path d="M196.88,182.44c-4.17-7.48-8.65-14.8-12.44-22.46-7.21-14.63-26.32-16-36.34-2.49-6.31,8.51-5.86,19.83.71,26.65,3.11,2.55,5.53,6,9.41,7.57,2.49,3,4,6.29,1.95,10.2-1.32-.5-1.07-1.73-1.3-2.75-2-.64-3.12-1.91-2.82-4.13l-6-6c-1.16-.42-1.65-1.85-3-2a15.69,15.69,0,0,1-4.16-9.91c-.08-2.67-3.54-3.18-2.59-5.82-6.18-.39-.62-3.56-1.25-5.26h0c4.12-2.31,4.16-2.33,2.62-6.59a2.16,2.16,0,0,1,1.7-2.9c5.5.86,7-4.5,8.55-7.1s5.87-1.95,5.73-5.62c.31,0,.76-.06.91.11,4.57,4.94,11.63.47,16.58,4.43,1.64,1.32,1.79-3.18,4.1-1.75-.48,4.33,1.86,6.36,8.45,6.61-5.26,2.39-2.34,5.17-.71,7.4,4.4,6,6.58,13.15,10.31,19.49C197.59,180.64,197,181.65,196.88,182.44Z" style="fill:#f9f9f9"/><path d="M160.17,201.91c-.41-3.5-.32-7.17-3.1-9.93-1.45-2.94,1.78-2.35,2.66-3.55a2.62,2.62,0,0,1,1.83-.66,18.1,18.1,0,0,1,2.65,7.1c-.35,2.62,1.51,4.43,2.42,6.58a5.23,5.23,0,0,1,.08,1.25c-.3,1.77,2.55,2.21,1.79,4.19a19.24,19.24,0,0,1-1.86,3.5c-.53,2-.54,3.74,1.75,5.12-1.37-1.64-3-3-1.11-5a2.74,2.74,0,0,1,2.82.32c2.17,2.41.32,6,2.57,8.42,1.93,2.46.07,5.17.49,7.68a36.18,36.18,0,0,0,3.51,11.25,4.1,4.1,0,0,1-.72,2,19.11,19.11,0,0,1-1.64,2.18c-1.78,2.06-.23,4.1.11,6.11s1,3.84.66,5.86c0,.23,0,.46,0,.69-.53,3.54,1.75,6.84.88,10.4-3.17-9.26-4.73-18.9-6.73-28.44a116.87,116.87,0,0,1-8.06-26.16.52.52,0,0,0-.07-.79c-1.51-2.57.35-5.53-.91-8.14Z" style="fill:#070707"/><path d="M266,361a6.92,6.92,0,0,1-3.55-7.39c1.53-11.42.24-22.83-.22-34.22-.4-9.8,1.19-19.51.6-29.28-.7-4.09-.16-8.22-.3-12.33-.06-1.64-.12-3.88,2.06-3.67,2,.18,4.35,1.32,4.12,4.06s-.17,5.6-.22,8.39c-.86,2.69-.67,5.48-.7,8.25-.28,1.21-.57,2.43-.8,3.66a21.86,21.86,0,0,0-.63,6c0,2.67.08,5.34,0,8,0,.79,0,1.58,0,2.37a18.35,18.35,0,0,0,.49,6.13,8.24,8.24,0,0,1,0,3.13c-1.23,3.38.18,6.65.46,10,.17,6.9-.09,13.79.66,20.7.27,2.51,3.67,4.34,1.45,7.2C267.93,362.9,266.88,362.27,266,361Z" style="fill:#0a0a0a"/><path d="M205,385c7.59,4.08,11.79,1.86,12.72-6.74a5.39,5.39,0,0,1,.26-1.46c4.49-10.15,4.26-21.49,8-31.82-1,9.05-1.31,18.22-4.4,27.21,1.2.44,1.61-1.62,2.91-1.48.25,2.19,1,4.46-2.82,4.13-1.19-.11-1.94,1.34-1.57,2.62.53,1.85,1.59-.15,2.2.16,1.22.61,3.29.36,3.55,1.92.44,2.74-2.34,3.18-3.91,4.46-.74.31-.57.64,0,1-2.28,4.36-6,5.68-12.24,4.37-2.05-.43-3.91-1.78-6.24-.79-1.14.49-1.9-1-2-1.73-.75-3.68-2.52-5.56-6.53-6.11-1-.14-3.06-4.48-2.89-6.26a47.29,47.29,0,0,0-1.34-17.3c-1.29-4.73-.49-9.59-.49-14.39.5.08,1.15.21,1.15.73,0,6,1.51,11.73,2.06,17.59.36,3.77,1.07,7.46,1.46,11.2a8.8,8.8,0,0,0,4.59,7.25C201.92,380.81,202.55,383.8,205,385Z" style="fill:#f9f9f9"/><path d="M397,301c.61-1,1.21-2,1.81-3.06,1.43-1.42,2.59-1.51,2.89.78.21,1.59-.3,3.24.28,4.83a8.73,8.73,0,0,1,.09,2.5c-1.51,8.78-.26,17.64-.75,26.44-.45,1.89-.18,4.8-3.6,2.64-6-7.64-4.39-16.54-3.78-25.12C394.15,307,394.06,303.34,397,301Z" style="fill:#0d0d0d"/><path d="M315.11,233.55l-.06,3.48c-1.66,1.67-.95,3.71-.86,5.65.36,7.95.55,15.9.43,23.86,0,1.17.09,2.49-1.46,2.71-1.33.19-1.66-.83-1.62-1.91.25-6-1.23-11.85-.65-17.82l0-1.49c1.6-5.44-.25-11.09,1-16.56-1.11-1.81-1.59-3.62,0-5.44,1.31-5.66.3-11.41.6-17.12.26-5.08-.42-10.19.38-15.26l.16-2.62c.9-.87,1.79-1.77,3.21-1a3.34,3.34,0,0,1,.43,3,12.79,12.79,0,0,1-.78,1.4,183.3,183.3,0,0,0,.25,22.48C316.53,222.44,315.48,228,315.11,233.55Z" style="fill:#090909"/><path d="M310.89,249.52c1.8,6.2.7,12.71,2.12,19,0-9.34-.08-18.67.11-28,0-1.1-2.1-4.29,1.93-3.45q.49,11.47,1,23c-.35,7,1.06,13.92.28,20.89-2.83-2.53-.4-6-1.7-9-1.6.17-2.43.91-1.94,2.76,1.22,4.6-.37,7.65-4.85,9.32,4.78-3.24,3.53-8.18,3.36-12.65C310.9,264,309.78,256.79,310.89,249.52Z" style="fill:#111"/><path d="M401,303c-1.7-1.2-.52-2.52-.22-3.85.49-2.16-1-1.38-2-1.21a23.38,23.38,0,0,1,7.74-11.11c2.94-2.15,5.25-.92,7.38,1.34a4,4,0,0,1,.68,1.22,7.52,7.52,0,0,0,1.87,2.88c1.1,1.31.31,2.58-.94,2.47-6.48-.56-9.9,3.56-13.17,8.08A1.12,1.12,0,0,1,401,303Z" style="fill:#111"/><path d="M465.64,348.85h-.35l-.3.17c-3.28,2.08-6.46,4.39-10.57,4.53-1.91-1-3-3.15-5.07-3.92a2.12,2.12,0,0,1-.75-2.48c1.82-1.08,4-1.52,5.66-2.89,5.77.54,8.06-4.23,11.36-7.45a2.87,2.87,0,0,1,1.4-.37A3.12,3.12,0,0,1,469.4,339c-.06,2.45-1.29,4.63-1.58,7C467.18,347.05,466.76,348.23,465.64,348.85Z" style="fill:#4b4b4b"/><path d="M436.77,335.61c-.23,1.18-.29,2.18,1,2.93s1.26,2.58.3,2.89c-3.49,1.16-4.19,5.83-9.28,5.76-3.14,0-6.48,4.18-10.32,5.63-.77.29,1,4.26-2.67,3.71,1.34-5.13-1.08-7-6.66-6.37-2.85.31-2.95-3.06-3.11-5.42a2,2,0,0,1,1.9-.26,8.91,8.91,0,0,1,1.73,1,21.63,21.63,0,0,0,4.15,1.9c.6.26,1.17.58,1.76.88a6.83,6.83,0,0,0,6.22-.34c.36-.24.73-.46,1.1-.67a17.38,17.38,0,0,0,4-3.2c2.52-2.22,5.31-4.16,7-7.19A2.2,2.2,0,0,1,436.77,335.61Z" style="fill:#fafafa"/><path d="M147.05,187c2.56-1.65,2.06,1.25,3,2-2.15,2.39,4.18,3,.92,5.47-1.21-2.29-3.56-1.89-6.73-2.25,2.87,3.52,4.38,6.76.51,9.47-1.31.91-.5,3.78-3,3.18-2.32-.55-3.71-3.56-3.74-4.6-.16-5.12-2.74-10.71,1.67-15.33,1.36,1.75-.81,3.71.24,5.67,2-1.16.58-3.18,1.52-4.66,1.48,1.53.33,5.5,4.12,4.68C147.57,190.23,148.3,189,147.05,187Z" style="fill:#fafafa"/><path d="M204.05,290c.41-6.74-2.67-12.87-3.51-19.41a40.87,40.87,0,0,1-.59-7.86c.82-12.63,0-25.22-.86-37.82A10.82,10.82,0,0,1,201,232c-.57,9.9,1.52,19.71.22,29.72-1.26,9.65,3.9,18.64,5,28.12.81,7,4.16,13.24,4.78,20.19-2.81-.15-2.72-2.64-3.56-4.38C204.73,300.76,205.17,295.21,204.05,290Z" style="fill:#292929"/><path d="M331.86,347l1.36,3.9a1.73,1.73,0,0,1,.27,1.31,1.44,1.44,0,0,1-1.62,1A5.64,5.64,0,0,1,329.3,351c-1.53-2.78-2.29-6.33-6.46-6.51a2.86,2.86,0,0,1-1.3-.43c-1.08-1-2.16-2-1.82-3.67,1.35-4.15,1.28-8.58,2.54-12.74,1-1.35,1.81-1.17,2.15.41a6.9,6.9,0,0,0,1.49,3.39,3.9,3.9,0,0,1,.8,1,7.56,7.56,0,0,0,2.79,3.41C331.15,339.37,330.24,343.47,331.86,347Z" style="fill:#393939"/><path d="M475.94,313c.29-1.82-1.92-2.33-2.06-3.93-.85-1.52-1.75-3-3.45-3.7-2.1-1.94-4.8-3-7-4.8a28.2,28.2,0,0,1-1.74-4.26,1.6,1.6,0,0,1,.88-1,2.94,2.94,0,0,1,2.66.4c2.59,2.9,6.95,3.58,9,7.19a28.1,28.1,0,0,1,3.14,4.29,11.38,11.38,0,0,1,.64,1.19c.74,1.68,1.71,3.29,1.51,5.23a34.3,34.3,0,0,0,.13,9.22c.19,3.24.76,6.54-1.36,9.45-4.57.92-5.62-.66-4.55-6.79C476.07,321.67,477.42,317.61,475.94,313Z" style="fill:#2d2d2d"/><path d="M262.12,180.11,261,181.23a.74.74,0,0,1-1.1-.25c2.05-2.91,4.33-8.09,7.29-6.91,3.49,1.4.07,6.12-.19,9.38-.88,11.15-4.2,21.65-8.88,31.75a2.37,2.37,0,0,1-1-2.57c1.76-4.83,1.76-10.25,4.91-14.6,2.37-4.43,4.49-8.9,1.93-14-.75-1.22-.17-2.61-.5-3.88S262.57,180.08,262.12,180.11Z" style="fill:#2a2a2a"/><path d="M205,385c-8.7-3.93-11.59-11.51-12-20.19-.39-7.44-2.43-14.62-2.84-22,.19-7.67-2.61-15-2.17-22.73,2.36,6.69,3,13.81,3.68,20.7,1,10.21,2.58,20.32,3.73,30.5.39,3.48,1.7,6.3,5,8C202.69,380.45,203.55,383,205,385Z" style="fill:#4b4b4b"/><path d="M466.55,336.79a.43.43,0,0,0-.55.31,43.42,43.42,0,0,1-5.88,6.09,4.81,4.81,0,0,1-5.13.93c-2-.84-2.37-2.75-2.23-4.6.2-2.88-.07-6,3.08-7.79,1.31,3.09,2.77,6.13,2.53,9.93,3-1.79,3-4.89,3.31-7.12.52-4.1,2.78-4.07,4.67-2.2s2.5-.33,3.69-.33a1.85,1.85,0,0,1,.44,1.81,4.54,4.54,0,0,1-1.06,1.64A4.34,4.34,0,0,1,466.55,336.79Z" style="fill:#f9f9f9"/><path d="M223.86,296.52l1.2,6.38c1.69,3.27.25,6.19-1,9.14a21.13,21.13,0,0,1-1.19,2.38c-.92,1.73-1,3.79-2.09,5.46a14.53,14.53,0,0,1-2.15,2.54,11.17,11.17,0,0,1-1.54,1.37,2.91,2.91,0,0,1-2.69.53c-1.34-1.06-1-2.11,0-3.17a9.43,9.43,0,0,0,2.5-3.37Q220.4,307.15,223.86,296.52Z" style="fill:#151515"/><path d="M292,318l1.13,1.12c2,2.33.77,5.27,1.49,7.83.16.43.28.86.41,1.28.63,1.5,1.77.44,2.68.52a1.92,1.92,0,0,1,1,.87c.9,4-.3,8.73,4.19,11.4a6.28,6.28,0,0,0,2.71,3.39,2.28,2.28,0,0,1,.92,1.74,1.76,1.76,0,0,1-.69,1.14c-2.55-.45-4.93-1.17-6-3.92a30,30,0,0,1-5.09-4.25c-3.13-2.2-2.79-5.56-2.89-8.76-1-2.36.44-5-.88-7.31v0C290.69,321.21,289.33,319.19,292,318Z" style="fill:#181818"/><path d="M473.89,304.08c-2.47-1.89-4-5.06-7.65-5.36-1.53-.12-1.15-1.66-1.29-2.72-1.23-1.17-2.83-1.35-4.39-1.66-2.1-1.29-5-.75-6.72-3-.5-1.43.56-2.08,1.42-2.83a4.68,4.68,0,0,1,1.76-.9c1.28-.16,1.42,2.06,3,1.41a.37.37,0,0,0,.58.07c1.29,1.87,3.63,2.05,5.31,3.3.23,1.56.88,3.28,2.42,3.42,4.18.4,5.69,4.26,8.69,6.13a3.33,3.33,0,0,1,.29,2.9C475.84,305.89,475,304.38,473.89,304.08Z" style="fill:#616161"/><path d="M455.84,331.73c-.3.39-.83.76-.87,1.17-.36,3.64-2.84,8.42.79,10.53,3.3,1.92,5.76-2.68,8.35-4.79L466,337.1c-2.49,5.07-5.75,8.95-12.19,8-1.17.6-1.93.13-2.46-.94-.5-1.72.26-3.37.29-5.06.13-2.45-.14-4.9,0-7.39s-.46-5.37-4-5.8a1.68,1.68,0,0,1,.21-1.94c1-1.33,1.7-3.36,4-2a21.79,21.79,0,0,1,3.75,3.09C455.75,327.32,455.79,329.53,455.84,331.73Z" style="fill:#727272"/><path d="M338,320c-3.8-7.29-2.14-14.71,0-21.93.82-2.79.08-6.64,3.84-8.15a1.16,1.16,0,0,1,1.46,0c2.2,3.54,0,6.55-1.15,9.68a7.87,7.87,0,0,0,.18,7.28c0,1.78-1.36,2.18-2.68,2.6-2.39,1.36-1.11,3.51-1.05,5.33S339.6,318.42,338,320Z" style="fill:#393939"/><path d="M247.22,247.34c-.12.9-.25,1.79-.37,2.68-.18,3.86-1.2,7.62-1.38,11.48-1.31,3.51-3.32,6.75-4.16,10.45a1.55,1.55,0,0,1-2.8-.92c.17-2,.22-4,.35-6,.53-3,1.92-5.6,3.09-8.32.92-1.49.76-3.17.78-4.81a34.6,34.6,0,0,1,.13-3.53c.86-3.05,2.74-5.85,2.26-9.24a4.66,4.66,0,0,1,.33-1.43,1.54,1.54,0,0,1,1.89-.83,2.21,2.21,0,0,1,1.16,1.91C248.75,241.73,247.36,244.44,247.22,247.34Z" style="fill:#191919"/><path d="M349.86,277.67l.75-.8c1.91-.39,2.87-2.21,4.51-3a8.28,8.28,0,0,1,1.17-.79,6.23,6.23,0,0,1,4.88-.66c3.76,1.61,4,4,1.46,6.91a15.32,15.32,0,0,1-3.5,2.48c-2.17,1.17-3.81,3.05-5.84,4.39-1.41.92-3.21,2.4-3.86-.83a5.33,5.33,0,0,1,1.7-3,27.75,27.75,0,0,0,2.68-2.95c.67-.68,1.7-.69,2.49-1.31a9.56,9.56,0,0,0-3.11,1.6,2.9,2.9,0,0,1-2.76.61C349.3,279.66,349.46,278.69,349.86,277.67Z" style="fill:#262626"/><path d="M436.42,307.72l2.07.36a17.74,17.74,0,0,1,1.86,11.22c-.5,3.73-.48,7.54-1.4,11.22a2.28,2.28,0,0,1-3.51,1c-.08,2-.71,3.12-2.91,2a4.15,4.15,0,0,1,.2-3.37c3.53-6.77,2.93-14,2.69-21.28A1.33,1.33,0,0,1,436.42,307.72Z" style="fill:#858585"/><path d="M265.14,313l.07-9c3.05-1.84,2.1-5.13,2.83-7.78.9-1.43-.41-1.05-1-1.23.67-2.29-2.94-5.29,1.16-7,.29-.45.59-.49.9,0l2,4c1.32,4.79,0,9.32-1.32,13.86-.41,2.08-.1,4.2-.21,6.29C268.48,314.64,266.78,313.62,265.14,313Z" style="fill:#4b4b4b"/><path d="M316.31,280.89c.27-7-2.58-13.89-.28-20.89,1.42,1.71,1.07,3.8,1.13,5.74.3,10.77.61,21.54.7,32.31a46.87,46.87,0,0,0,1.29,9.83l-.56.37a2.1,2.1,0,0,1-2-1.49c-.33-1.22.42-2.62-.6-3.73v-4a28.7,28.7,0,0,1-.31-5.4,10.18,10.18,0,0,1,1.13-4.59C317.67,286.24,315,283.69,316.31,280.89Z" style="fill:#686868"/><path d="M300,342.93c1.32,2.38,3.7,3.16,6,4.05,1.25-1.27,2.77.24,4.08-.42a3,3,0,0,1,1.22.06c1.32.42,2.16,1.79,3.66,1.83a3.45,3.45,0,0,0,2.76-.62,2.58,2.58,0,0,1,2.47-.16c.82,2.07,4.72.15,4.55,3.5-3.85.67-7.53,2.5-11.59,1.8-6.3-1.08-10.26-5.59-14.36-9.9C299.14,342.53,299.53,342.49,300,342.93Z" style="fill:#202020"/><path d="M246,228c0-1.31,0-2.63,0-3.94a60.07,60.07,0,0,1,5.77-2.49c1.22-.38,1.88,2.87,3.39.52.42,5.15-3,8.79-5,13a1,1,0,0,1-1.21.16c-.71-.25,0-3.25-2-1-1.22-1.09-1.63-2.39-.68-3.79A1.55,1.55,0,0,0,246,228Z" style="fill:#242424"/><path d="M407.83,345.33l-1.77-.59c-3.37-2.3-6.53-4.81-8.27-8.68A.68.68,0,0,1,398,335c2.7,1.28,1.37-1.47,2.13-2.13,3.84,4.21,9.27,4.48,14.28,5.77.46,0,.91,0,1.36.08a6.55,6.55,0,0,0,5.47-1.87,3.67,3.67,0,0,1,1.36-.47c.8.05,1.49.24,1.68,1.17-.76,3-2.95,4.2-5.75,4.67-5.07.38-10.09.08-13.84-1.14C406.19,341.21,408.49,341.72,407.83,345.33Z" style="fill:#606060"/><path d="M447.91,324c0,.67.09,1.35.13,2,1.35,1.4,1,3.09.63,4.65a29.51,29.51,0,0,0,0,16.48L449.8,349c.79.53.74,1.19.29,1.91-4.74-2-7-7.41-5.84-13.5.4-2.08,2.6-4.67-1.15-6.15-.87-.34-.45-.82.28-1.33C445.48,328.46,445.47,325.3,447.91,324Z" style="fill:#fafafa"/><path d="M476.73,305,477,302c.79,3.58,2.9,6.51,4.75,9.56,4.75,7.83,3.23,17.17-3.82,23.45a.72.72,0,0,1-1.16,0c-.22-1.1.53-1.74,1.17-2.42,3.7-5.42,3.31-11.43,2.52-17.49a11.79,11.79,0,0,1-.42-1.27c-.29-2.32-1.86-4-3-5.86h0A2.57,2.57,0,0,1,476.73,305Z" style="fill:#878787"/><path d="M315.11,233.55q-.06-18.69-.12-37.38c0-1.15-.16-2.37,1.07-3.1a1.89,1.89,0,0,1,.27,2c.25,7.34.35,14.69.79,22A50.12,50.12,0,0,1,315.11,233.55Z" style="fill:#0e0e0e"/><path d="M360.76,350.18l-.85-1c0-1.5-2.73-1.5-1.89-3.46a4.47,4.47,0,0,1,3.53-.72,9,9,0,0,1,2.65,1c2,1.23,3.83.5,5.62-.55a3.84,3.84,0,0,1,2.83,0,2.3,2.3,0,0,1,1,1.06,7.13,7.13,0,0,1-.12,5.24,2.43,2.43,0,0,1-1.15,1,17,17,0,0,1-5.38.11A40,40,0,0,1,360.76,350.18Z" style="fill:#131313"/><path d="M355,317.14a4.57,4.57,0,0,1-1.23.75c-7.21,1.63-7.29,1.73-6.71,8.9a2.74,2.74,0,0,1,.28,2c-.54.84-2.79.69-1.29,2.73.91,1.24,1.5,3-1.05,3.5-3.63-3.92-3.79-9.42-6.28-13.86,1.45-.94,2.16.2,3,1.06.51.61.86,2.07,1.28,1.87,1.34-.62.65-2.29,1.18-3.42a9.52,9.52,0,0,1,2.5-3.77,8.06,8.06,0,0,1,7.83-.36Z" style="fill:#454545"/><path d="M373.06,345.8l-3.13.46c-1.89.9-3.77,1.86-5.92.78L362,346c-4.16-1.52-8.37-2.92-11.68-6.06a5.63,5.63,0,0,1-1.06-4,2.4,2.4,0,0,1,.75-1.13,1.58,1.58,0,0,1,1.67.84c.85,1.56,1.84,2.94,3.86,3,1,.81,2.61.45,3.3,1.8l1.9,1.67c3.85,2.56,8.32,1.67,12.52,2.3A1.65,1.65,0,0,1,373.06,345.8Z" style="fill:#595959"/><path d="M161.13,210.81c2.49,8.78,6.26,17.16,8.06,26.16-3.23-1.64-4.1-4.43-4.78-7.86C163.18,223,161.31,217.08,161.13,210.81Z" style="fill:#fafafa"/><path d="M350,285c.59,2.62,1.8.89,2.65.29,2.06-1.47,3.5-3.84,6.25-4.33-.44,3.54-3.86,4.7-5.67,7.14a11.89,11.89,0,0,1-1.09.77c-2.48,1.15-3.93,3.3-5.28,5.54-1.44,1.25-2.31.67-2.74-.92-.32-1.2,0-2.6-1.17-3.52l-1.2-.08c-1-1.49-.5-2.44,1.11-3a9,9,0,0,1,3.27-1.24C347.52,285.85,348.59,284.38,350,285Z" style="fill:#373737"/><path d="M345.09,305.86c3.55,2.86,6.94.06,10.2-.64,2.68-.57,4.93-1.17,7.49.2,3.78,2,8.38.51,12.2,2.58a.8.8,0,0,1,.35.76q-.09.42-.21.42a2.94,2.94,0,0,1-1.31.46c-.93,0-1.84-.26-2.76-.34-1.4-.13-2.81-.05-4.21-.09a13,13,0,0,1-2.16-.23c-4.52-2.06-9-.32-13.41.3-1,.05-2,.06-3,.19-1.89.23-3.81.51-4-2.29A2.06,2.06,0,0,1,345.09,305.86Z" style="fill:#5d5d5d"/><path d="M262,198c-.36,5.94-3.59,11.22-3.89,17.17a4,4,0,0,1-2,4.15c-1.62-1.44-.09-2.53.37-3.66-.8,1.11-1.6,2.37-3.39,1.6-.76-.93-.25-1.76.2-2.6,2.86-2.55,1.76-6.38,3-9.45,1.37-2.58.71-5.8,2.62-8.2C259.92,197.62,260.53,199.15,262,198Z" style="fill:#0c0c0c"/><path d="M324.75,351.17c-.56-2.58-5.23,1-4.74-3.15.72-1.08,1.92-1.4,3-1.93,2.41-1,4.4-1.18,5.19,2a7.54,7.54,0,0,0,1.87,2.81l1.89,2c1,1.4,2.4,2.71,1.44,4.73-.47.54-1,1-1.7.46L328,354c-1.28-.74-2.06-2.06-3.26-2.89Z" style="fill:#1c1c1c"/><path d="M459.36,257.86c2.73.51,4.38,2.81,6.66,4.06a1,1,0,0,1,.31.76q0,.42-.09.42c-1.36,1.28.75,3-.52,4.27-3.08-.13-5.88-3.19-9.2-.91a1.17,1.17,0,0,1-.94-.86,2.55,2.55,0,0,1,.73-1.75c.46-.55,1.19-.91,1.2-1.76-.93-1-3.31-1.13-2.49-3.14S457.71,257.44,459.36,257.86Z" style="fill:#575757"/><path d="M374,309.15a3.38,3.38,0,0,1,.84,0,2,2,0,0,1,.93.94,15,15,0,0,1,.69,4.61c-1.19,1.06.56,2.89-1,3.87a2.36,2.36,0,0,1-2.51-.56c-5.84-2.79-11.82-2.59-17.88-.89a.56.56,0,0,0,.05-.52c1-2.71,3.42-3.36,5.81-4.09a16.78,16.78,0,0,1,3.29.71,19.24,19.24,0,0,0,4.51.69c2.39.45,2.42-1.79,3.37-3A6.23,6.23,0,0,1,374,309.15Z" style="fill:#2c2c2c"/><path d="M433,334c1.94-.53,1.87-4.41,5-3,.49.71.65,1.38-.24,1.91-1.13.62-.94,1.71-1,2.72-3.3,3.1-5.25,7.58-9.76,9.43a1.78,1.78,0,0,1-.52-1.2c.14-1.07,2.45-1.63.72-3.13a2.84,2.84,0,0,1,.51-1.92,4.79,4.79,0,0,0,2.87-3.93C431.21,334.11,431.89,333.49,433,334Z" style="fill:#8b8b8b"/><path d="M216.92,317.78c1.19,2.64-4,3.31-1.91,6.24a1,1,0,0,1,0,1.28,3.64,3.64,0,0,1-2.76.57c-2-.41-3.19-1.85-4.54-3.14a8.25,8.25,0,0,1-2-2.72,1.78,1.78,0,0,1,.34-1.26c.94-.59,2.38.38,3-1,2.46-.57.57-2.37,1-3.51a2.74,2.74,0,0,1,1.14-2.48,9.85,9.85,0,0,1,1.48,4.68c.05,1.25-.44,3.05.86,3.62C215.34,320.86,215.6,318.32,216.92,317.78Z" style="fill:#343434"/><path d="M253,217l3.6-1.29c-.16,1.23-.31,2.42-.46,3.62a2.67,2.67,0,0,1-1,2.73c-2.92,1.27-5.86,2.44-9.16,2,1.78-2,0-5.06,2-7C249.67,221.93,251.35,215.78,253,217Z" style="fill:#090909"/><path d="M352.86,288c1.3-3,4.85-3.94,6.08-7l3-2.09c3.83-2.57,2.54-4.59-.68-6.4a1.09,1.09,0,0,1-.61-1.09l.41-.55c1.62,1,4.64-1.7,5,1.05s1.42,6-2.16,8.24-6.63,5.25-9.92,7.92A.71.71,0,0,1,352.86,288Z" style="fill:#f4f4f4"/><path d="M269.06,288h-.45l-.45,0a24.4,24.4,0,0,1-.12-8.35c.54-2.68-1-4.54-3.05-4.8-3-.39-1.81,2.42-1.89,4-.21,3.76-.18,7.53-.25,11.29-2.28-4.76-.64-9.76-.77-14.64,0-1.11.7-3.65,2.51-2.86,2.21,1,5.78,2,5.19,5.07C269.13,281.12,269.74,284.57,269.06,288Z" style="fill:#979797"/><path d="M475.94,313c2.83,4.49.19,8.5-1.11,12.62-.63,1.62-1.63,3.08-2.17,4.75-.44.55-.94,1-1.69.61.17-2.62-2.33-5.38.4-7.89.19-.18.12-.89.21-.9C478.44,321.71,474.82,316.24,475.94,313Z" style="fill:#f9f9f9"/><path d="M398,335l-.18,1.07c-3.05-2.67-4.26-6.34-4.72-10.09a72.48,72.48,0,0,1,1-21.29,4.54,4.54,0,0,1,3-3.68C393.35,312.44,391.68,323.83,398,335Z" style="fill:#bfbfbf"/><path d="M240.88,271.94c-.35-4.07,2.84-6.76,4-10.25a.93.93,0,0,1,.21,1.5c-3.67,9.74-4.69,20.17-7.9,30-.76-6.33,2.59-12,2.82-18.2A3.57,3.57,0,0,1,240.88,271.94Z" style="fill:#3c3c3c"/><path d="M457,287.93,455.93,289c-6.38,1.73-9.74-.92-11.26-8.89,0-2-.28-4,.81-5.82a1.34,1.34,0,0,1,1.5-.47,2.82,2.82,0,0,1,.08,3.16c-.38,1.47-.71,2.93.59,4.17C449.8,284.74,454.54,284.76,457,287.93Z" style="fill:#5a5a5a"/><path d="M341.09,322.89c-.6-.82-1.11-1.77-2.34-1.77L338,320c0-3.64-1.48-7.19-.71-10.86.33-1.58.93-2.27,1.75-.19a4.88,4.88,0,0,1,1.74,2.29c.68,2.05.25,4.27,1,6.32.22.68.4,1.37.56,2.07C342.24,320.84,343.66,322.61,341.09,322.89Z" style="fill:#101010"/><path d="M160.15,201.88c2,2.53.85,5.4.91,8.14-1.58.06-1.68.89-1.62,2.32.08,1.87-1.26,3.47-3.09,2.91s-1.45-2.79-1-4.34a3.46,3.46,0,0,1,1.76-2.28C161,207.58,159.85,204.44,160.15,201.88Z" style="fill:#fafafa"/><path d="M343,290c2,.12,2,1.55,2,3s.7,1.48,1.73.89c.7.25.81.66.36,1.24,0,1.94-1.12,3.44-2,5.05-.76-.09-1.36.48-2.09.52a3.42,3.42,0,0,1-1.15-.06,1.84,1.84,0,0,1-.9-.68C341.22,296.56,344,293.67,343,290Z" style="fill:#464646"/><path d="M414,287c5.39,3.07,10.95,5.89,15.1,10.7a1.38,1.38,0,0,1,.09,1.35c-3.54-.5-6-3.45-9.43-4.16-1.88-2-3.9-3.84-5.71-5.9h0A1.3,1.3,0,0,1,414,287Z" style="fill:#424242"/><path d="M459.36,257.86c-1.39.24-3-.08-3.89,1.47.68,2,2.89.59,3.74,1.91a.57.57,0,0,1,0,.46c-.05.14-.22.24-.33.35A9.1,9.1,0,0,1,456,263.8a6.13,6.13,0,0,1-2,.31c-1.54,0-3-.52-4.56-.42a6.18,6.18,0,0,1-1.29,0,2.21,2.21,0,0,1-1.11-.63C451.09,261.15,453.79,256.1,459.36,257.86Z" style="fill:#5f5f5f"/><path d="M350.89,339.12,362,346l-4,0a1.91,1.91,0,0,1-2.33.12l-.37.08L355,346c-1.47-.86-2.54-2.33-4.23-2.86l-.93-.88a5.31,5.31,0,0,1-.46-2.11C349.62,339.39,350,338.79,350.89,339.12Z" style="fill:#292929"/><path d="M437.72,332.89,438,331c1.6-7.6,2.71-15.21.54-22.9,2.28,1.65,2.15,4.27,2.4,6.6.6,5.42-.71,10.77-1,16.17A1.9,1.9,0,0,1,437.72,332.89Z" style="fill:#fafafa"/><path d="M312.89,193.65q.06,14.4.11,28.78c0,1.3.23,2.69-1.09,3.6C312.05,215.24,311.83,204.43,312.89,193.65Z" style="fill:#0e0e0e"/><path d="M372.91,318l3.07,0a1.43,1.43,0,0,1,1-.54c.35-.29,1.3.69,1.18-.59a2.39,2.39,0,0,1-.49-2.08,2.75,2.75,0,0,1,1.38-1.29,1.75,1.75,0,0,1,1.81.52l2,1c.72,4.74-.45,5.93-5.48,5.89-1.84,0-3.06-1.09-4.44-2A1.09,1.09,0,0,1,372.91,318Z" style="fill:#595959"/><path d="M268.85,313q.07-3.48.17-7a.63.63,0,0,1,1.1,0,90.69,90.69,0,0,0,1,20.75,4,4,0,0,1,.1,3.19c-2.87.09-2.21-2.55-3.1-4-.62-3.4-.41-6.88-.85-10.3A5,5,0,0,1,268.85,313Z" style="fill:#5b5b5b"/><path d="M156.05,195l2.83,4.13a2.56,2.56,0,0,0-.73,2.73c.17,1,.57,2.07-1.07,2.07-1.18,0-1.93-.43-1.57-1.81C156.12,199.81,151,197,156.05,195Z" style="fill:#fafafa"/><path d="M360.76,350.18c2.25,0,4.2,1.05,6.25,1.79a8.19,8.19,0,0,0,6,.07v0c.91-.81,1.06-2.53,2.8-2.35,1.55.62,2.6,1.65,2.05,3.41s-2,1.38-3.35,1.34a7.29,7.29,0,0,1-2.93-.38C367.4,354.48,363.57,353.74,360.76,350.18Z" style="fill:#5f5f5f"/><path d="M456.09,266.24c3.51-2.46,6.6.07,9.84.82a5.41,5.41,0,0,1,3.86,2.53c.85,1.68,2.73,2.07,4,3.18-2.61,2.6-4.52.73-6-1.21-3.13-4-6.94-5.87-12-4.63l-.11-.47Z" style="fill:#f5f5f5"/><path d="M371.63,354.09,374,354c1.26-.06,2.92.22,3.24-1.31s-1.18-2.08-2.31-2.69c-2.08-.59-.85-2.87-2-3.93l.11-.25c0-.35,0-.7,0-1.05,2.31-1,2.13,1.25,2.91,2.24a3.48,3.48,0,0,0,.42.89c1.77,1.9,3.6,4.29,1.89,6.56S373.83,355.15,371.63,354.09Z" style="fill:#636363"/><path d="M454.18,290.9c1.83,2,5.44.08,6.77,3.13.76.41,1.52.83,1,1.92l-.09.13c-.62.84-1,1.87-2.13,2.26a4.62,4.62,0,0,1-2.75-1.48,4.27,4.27,0,0,1-.12-.7c-.78-2.21-5.19-1.6-4.1-5.27A1.07,1.07,0,0,1,454.18,290.9Z" style="fill:#2d2d2d"/><path d="M326.08,331.9c-1.36.66-2.16.51-2.1-1.29,0-1.27.34-2.69-1-3.62-1.38,1.05-2.46.29-3.53-.56a6.25,6.25,0,0,1-1.64-4.35,4.75,4.75,0,0,1,.8-2.93C322,319,321.1,322.79,323,324a10.8,10.8,0,0,1,2.06,4.92C325.43,329.9,326.51,330.65,326.08,331.9Z" style="fill:#3a3a3a"/><path d="M270.85,330l.27-3.21c.17,8.14,4.06,16,2,24.32a2.67,2.67,0,0,1-1.08-1.64c-.74-2.1,0-4.4-.88-6.49-.21-.43-.39-.87-.56-1.31a13.82,13.82,0,0,1-.87-4.49C269.86,334.74,269.05,332.15,270.85,330Z" style="fill:#727272"/><path d="M473.84,272.77c-2.32.33-4.38.18-4.95-2.7,2.3-1.32,3.06-2.76.4-4.54-1.16-.78-2.66-1.18-3.17-2.73a3.71,3.71,0,0,1-.1-.88C473.67,263.87,474.12,264.5,473.84,272.77Z" style="fill:#919191"/><path d="M326.08,331.9c-.45-1-1.44-1.74-1-3,6.37,4.51,6.1,11.5,6.77,18.14-3-3.1-.44-8.07-3.69-11.1-1.34-1-1.42-2.68-2.12-4Z" style="fill:#8a8a8a"/><path d="M272.75,349l.33,2.14a60.55,60.55,0,0,1,.88,6.39c.09,2.24-.55,4.6-2.82,5.37-1.82.63-4.39,1.34-5.12-1.89l2.81.86c3.08-1.4,2.24-4,2-6.44S269.9,350.44,272.75,349Z" style="fill:#585858"/><path d="M323,324c-2.44-.77-2.1-3.8-4-5-2.41-.91-.52-3.2-1.46-4.58.22-2.11-.65-4.41,1.17-6.22l.46-.33A48,48,0,0,0,323,324Z" style="fill:#686868"/><path d="M376,347c-1.22-.43-1.34-2.28-2.91-2.24-4.24-.25-8.86,1.24-12.31-2.68L365,342c1.3,2.83,3.38,1.25,5.39,1.19C372.87,343.1,377.33,341.09,376,347Z" style="fill:#f6f6f6"/><path d="M454,353.08c4-.54,7.22-3,11-4.06-3.18,3.58-6.62,6.49-11.92,4.82A1.19,1.19,0,0,1,454,353.08Z" style="fill:#b1b1b1"/><path d="M457,287.93c-3-2.48-8.19-1.81-9.33-6.77a4.31,4.31,0,0,1,.87-.34c2.72,4.28,9,3.6,11.45,8.23C458.38,290.24,458.06,288.08,457,287.93Z" style="fill:#f5f5f5"/><path d="M337.85,355.32c1.7,2.73,4.57,5.3,1.2,8.72-1.7-1.5-1.33-4.66-4.2-5.22a2.42,2.42,0,0,1-1.27-1.53,2.38,2.38,0,0,1,.75-1.9,4.31,4.31,0,0,1,1.89-1C337,354.36,337.68,354.36,337.85,355.32Z" style="fill:#969696"/><path d="M471,331l1.07-1c2.71,1.09,4.36,2.74,3.09,5.92a3.36,3.36,0,0,1-2.05,1.1c-2.05-.14-4.22-.17-3.18-3.29L470,332Z" style="fill:#4c4c4c"/><path d="M373,319a24.91,24.91,0,0,0,4.22,1.14c3.6.32,6.22-.68,5.7-5.08,1.88,2.26,1.67,4.73-.92,5.67C379,321.78,375.17,323.68,373,319Z" style="fill:#d0d0d0"/><path d="M234,252c.21,6.22-2.16,11.7-4.9,17.07C229.51,263,232.56,257.75,234,252Z" style="fill:#bababa"/><path d="M335,358c4.49-.08,3.72,3.36,4.05,6.06-3.65,2.2-5.13.13-6-3.07C335.84,361.4,334.84,359.3,335,358Z" style="fill:#565656"/><path d="M211.18,311.76l-.13,3.24a2,2,0,0,1-2.35.25c-2.09-1.61-1.93-3.95-2-6.21.4-1.48-.37-3.61,2.15-3.93.34,1.8.44,3.71,2.18,4.88Z" style="fill:#0c0c0c"/><path d="M316.33,195.08l-.27-2,.15.09c.72-2.39.3-4.35-2.1-5.56a1.93,1.93,0,0,1-1.06-.49c-.26-1.61,0-3.31,1.69-3.64,1.94-.38,2.22,1.48,2.64,2.92C318.27,189.45,319.13,192.48,316.33,195.08Z" style="fill:#bfbfbf"/><path d="M452.9,291c.32,2.51,4.09,2.32,4,5.15l-9.78-5.22a1.35,1.35,0,0,1-.36-2C449.21,288.45,451,289.81,452.9,291Z" style="fill:#424242"/><path d="M446.68,289.09l.44,1.85c-5.49-3.33-5.47-8.65-5.07-14.11a1.25,1.25,0,0,1,1.3.31c1.11,1.67.65,3.72,1.36,5.49C445,284.89,447.14,286.6,446.68,289.09Z" style="fill:#f1f1f1"/><path d="M335,358c.15.27.32.54.45.83.59,1.28,3.4,2,1.63,3.73-1.5,1.43-2.63-1.11-4.06-1.57-.44-1-.89-1.89-1.33-2.84l1.46-1.29c.35-.35.6-.31.75.18Z" style="fill:#323232"/><path d="M259.9,181l1.1.25c-1.31,2.48-5.23,4-3,7.8.35,1.68-.83,1.84-2,2l-1.24-.1C256.08,187.41,255.73,183,259.9,181Z" style="fill:#0c0c0c"/><path d="M350.89,339.12,350,340c-2.25.26-2.66-2.25-4.33-2.86a.82.82,0,0,1-.52-1.18c2.3-1.1.72-3.54,1.76-5.08,2.7.27,1.49,3.19,2.92,4.32Z" style="fill:#424242"/><path d="M428.89,299.18c.06-.51.13-1,.19-1.51,3.54,2.55,6.4,5.6,7.34,10.05l-.39,1.22c-.72.4-1.21,0-1.65-.5-.9-1.66-1.52-3.49-3-4.82-.86-.95-2.05-1.55-2.81-2.61A1.65,1.65,0,0,1,428.89,299.18Z" style="fill:#3c3c3c"/><path d="M414,287l0,2c-2.24-1.58-4.56-2.88-7.47-2.13C409.1,283.18,411.57,283.63,414,287Z" style="fill:#282828"/><path d="M347,287l-4.09,0a17.62,17.62,0,0,1,6-8.2c2.3,2.74-2.26,4.07-1.33,6.52A1.8,1.8,0,0,1,347,287Z" style="fill:#3d3d3d"/><path d="M474.87,337.79c-.87,3.51-3.34,5.92-5.77,8.36l-.55-.45c-.9-1.74,0-3.17.78-4.63a22.41,22.41,0,0,1,3.09-2.57A2.75,2.75,0,0,1,474.87,337.79Z" style="fill:#eee"/><path d="M270.12,306l-1.1,0a35.92,35.92,0,0,0,2-14C273.64,296.84,271.28,301.4,270.12,306Z" style="fill:#4e4e4e"/><path d="M249.06,235.05l1.09,0c-1.23,4-.78,8.45-2.93,12.26-1.17-3.23,1.23-6.22.64-9.41C247.22,236.54,247.58,235.56,249.06,235.05Z" style="fill:#424242"/><path d="M347,331c-.53,1.7,1.25,4.27-1.88,5l-.08-1c2.63-2.85-1.36-3.67-1.75-6a3,3,0,0,1,3.54.18A1.1,1.1,0,0,1,347,331Z" style="fill:#282828"/><path d="M311.91,231.47c-.39,5.52,1.31,11.16-1,16.56C310.42,242.46,310.2,236.91,311.91,231.47Z" style="fill:#0e0e0e"/><path d="M463.88,300.33l7,4.7c.33.22.45.43.34.65s-.22.33-.34.33c-3.2-1.68-6.57-3.08-9.2-5.69a1,1,0,0,1,.77-.85A1.18,1.18,0,0,1,463.88,300.33Z" style="fill:#dedede"/><path d="M447.06,277c0-1,0-1.94,0-2.92-.1-2.81,1.77-4.25,3.85-5.54a2.05,2.05,0,0,1,2,.43Q450,273,447.06,277Z" style="fill:#f5f5f5"/><path d="M245.08,263.19l-.21-1.5c.37-3.94.49-7.92,2-11.67C247,254.51,247,259,245.08,263.19Z" style="fill:#2f2f2f"/><path d="M139.05,166c-.4-.27-.92-.45-1.17-.82-.8-1.15-2-2.28-.65-3.81.57-.61,1.23-1.19,2-.45,1.51,1.36,1.23,2.75,0,4.14-.18.21-.13.62-.19.94Z" style="fill:#f9f9f9"/><path d="M352.09,275.25c2.64-2.21,4.11-6.82,9-4.39l-.1.13c-1.51,1.37-3.49,1.89-5.23,2.85l.11-.08C354.85,274.86,353.78,275.84,352.09,275.25Z" style="fill:#f4f4f4"/><path d="M343,300c.73-.21,1.51-.94,2.12.21l0,5.66-.37,1.16a2.35,2.35,0,0,1-2.55-1.62C341.59,303.47,341.57,301.62,343,300Z" style="fill:#373737"/><path d="M380.91,314l-1.94,0c-3.24.53-3.26-2.12-4-4.05a7.56,7.56,0,0,0-.14-.83c.05-.39.1-.78.16-1.17C377,310,379.45,311.51,380.91,314Z" style="fill:#737373"/><path d="M347,285c-1.51-.09-1.59-.7-.68-1.76,1.15-1.31,2.91-2.28,2.58-4.45.33-.36.66-.72,1-1.09A2.72,2.72,0,0,0,351,280a1.43,1.43,0,0,1,.19,1.34C350.12,282.94,349,284.53,347,285Z" style="fill:#292929"/><path d="M347.08,295.15c-.12-.41-.24-.83-.35-1.24,1.06-2.56,1.78-5.42,5.18-6,.62,2.71-2.29,3.18-3.13,5Z" style="fill:#606060"/><path d="M347,331c-.05-.62-.11-1.24-.16-1.86.08-.78.17-1.55.26-2.33,1.94,1.65.92,4.55,2.64,6.29.89.42.81,1.06.41,1.77l-.35.35C347.36,334.79,348.52,332,347,331Z" style="fill:#595959"/><path d="M337.85,355.32l-1.83-.39a3.66,3.66,0,0,1-2.32-2c-.19-.37-.4-.74-.61-1.1a1.57,1.57,0,0,1,.13-.88C336.52,350.54,337.21,352.9,337.85,355.32Z" style="fill:#f5f5f5"/><path d="M442.86,277.16l-.81-.33c.43-3-.29-6.22,1.85-8.85l.56.53a4.85,4.85,0,0,1,.4,3C444.15,273.39,444.66,275.69,442.86,277.16Z" style="fill:#5a5a5a"/><path d="M447.05,263l1.07.18a4.79,4.79,0,0,1-.79,3.9,2.94,2.94,0,0,1-3.12.93l-.31-.07C444.38,266,444.88,264,447.05,263Z" style="fill:#4f4f4f"/><path d="M348.78,292.93c.14-2.23,2.31-3.18,3.13-5a2.34,2.34,0,0,1,.95,0l1.17.12A9.52,9.52,0,0,1,348.78,292.93Z" style="fill:#f4f4f4"/><path d="M345.63,337.14c2,.09,3.08,1.61,4.33,2.86,0,.74-.09,1.48-.13,2.22C348.25,340.68,346.52,339.25,345.63,337.14Z" style="fill:#595959"/><path d="M313.05,187.11a3.62,3.62,0,0,0,.74-.27c2.2.09,2.32,1.54,2.08,3.21l-2.82,1Z" style="fill:#0e0e0e"/><path d="M453,269l-2,.06c.22-3.2,2.2-4.15,5.07-4l.06,1.21c-.1.23-.21.46-.32.69C454.39,267,454,268.4,453,269Z" style="fill:#393939"/><path d="M300,342.93l-1.19.14c-2.28-.39-3.17-2.19-4.06-4C297.09,339.54,298.39,341.44,300,342.93Z" style="fill:#181818"/><path d="M221.93,385c-.8.32-1.6,1.4-2.43.25a1.71,1.71,0,0,1,.13-1.68c.86-.92,1.68-.39,2.34.44A3.66,3.66,0,0,0,221.93,385Z" style="fill:#b8b8b8"/><path d="M474.87,337.79l-1.84,1.4a1.7,1.7,0,0,1-.59-1.81c.23-.71.94-.92,1.42-1.37l1.1-1a1.05,1.05,0,0,1,1.66,0h1.28C477.2,336.25,475.06,336,474.87,337.79Z" style="fill:#525252"/><path d="M454,353.08l-.94.76c-1-1-2-1.93-3-2.9-.1-.64-.19-1.28-.29-1.91A8.85,8.85,0,0,1,454,353.08Z" style="fill:#4e4e4e"/><path d="M292,318c-1.42,1.48-.42,3.43-1,5.08a7.72,7.72,0,0,1,.07-7C292,316.34,292,317.16,292,318Z" style="fill:#383838"/><path d="M457,296.86l3,1c1.53-.13,2.27.5,2,2.1l-.3.35C460,299.37,457.74,299.14,457,296.86Z" style="fill:#dedede"/><path d="M465.86,292.42c-1.72-1.18-4.89,0-5.31-3.3C462.38,290.12,464.61,290.47,465.86,292.42Z" style="fill:#f5f5f5"/><path d="M364.92,342c.49-2,1.71-2.4,3.73-2.92C367.72,341,366.73,341.92,364.92,342Z" style="fill:#f6f6f6"/><path d="M376.59,340.37c.09.9-.28,1.33-.76,1.17a2.35,2.35,0,0,1-1.37-1.08.75.75,0,0,1,.93-1.08C375.92,339.53,376.31,340.12,376.59,340.37Z" style="fill:#f6f6f6"/><path d="M352.09,275.25l3.79-1.49c-.91,2.48-3,3-5.27,3.11Z" style="fill:#292929"/><path d="M291,323c2,2.23.93,4.83.88,7.31A14.16,14.16,0,0,1,291,323Z" style="fill:#383838"/><path d="M455.7,325.11A5,5,0,0,1,452,322,3.76,3.76,0,0,1,455.7,325.11Z" style="fill:#a2a2a2"/><path d="M350.76,343.1c2.22-.24,3.26,1.26,4.23,2.86A4.49,4.49,0,0,1,350.76,343.1Z" style="fill:#424242"/><path d="M354.93,339a4,4,0,0,1-3.8-3.23c.74-.32,1.41-.42,1.71.57.65.58,1.31,1.15,2,1.72C355.51,338.3,355.55,338.61,354.93,339Z" style="fill:gray"/><path d="M355.66,346.1,358,346c.59,1.09,2.36,1.45,1.92,3.17Z" style="fill:#2e2e2e"/><path d="M148.69,148.06a2.92,2.92,0,0,1,2.25-2.76C151.62,147.07,150.18,147.25,148.69,148.06Z" style="fill:#f9f9f9"/><path d="M470.89,306a1.64,1.64,0,0,0,0-1c1.69.84,3.21,1.82,3,4.07Z" style="fill:#616161"/><path d="M465.64,348.85l1.39-2.54c.42-1,1.09-.87,1.84-.42l.23.26C468.13,347.29,467.3,348.6,465.64,348.85Z" style="fill:#eee"/><path d="M354.93,339a1.9,1.9,0,0,0-.12-.94c1.72.12,3.42.29,4.05,2.33Z" style="fill:#ececec"/><path d="M324.72,351.14A4.42,4.42,0,0,1,328,354,3.83,3.83,0,0,1,324.72,351.14Z" style="fill:#202020"/><path d="M352.84,336.35l-1.71-.57-1-.92c-.14-.6-.28-1.19-.41-1.78A4,4,0,0,1,352.84,336.35Z" style="fill:#ececec"/><path d="M442.94,323.76c.77-.11,1,.31.87.78a1.5,1.5,0,0,1-.72,1,.59.59,0,0,1-.78-.76A3.33,3.33,0,0,1,442.94,323.76Z" style="fill:#fafafa"/><path d="M158.07,181c2-3.16.5-6.66,1-10,1.84-3.18,2.49-6.84,4.05-10.15,2-.6,3.74-1,2.92,2.17l-1.45,2.57c4.07.1,6.12-3.53,9.44-4.56.78,1,2.07,1.24,3,2h0c-2.29,3-.15,6,0,9h-2c-.81.25-1.28,1-2.07,1.34a2.25,2.25,0,0,1-1.23-.12,4.2,4.2,0,0,0-3.51-.61,3.75,3.75,0,0,1-1.88-.1,3.18,3.18,0,0,1-1-.77c-3.62,1.35-4.15,2.1-4,5.74,0,.67.18,1.06.08.4a1.87,1.87,0,0,0,.92-.38,2.59,2.59,0,0,1,1.86.18,4.67,4.67,0,0,1,2.07,2.72c-1.73,2.5-4.46,2.59-7.09,2.95C158.25,182.87,157.59,182.2,158.07,181Z" style="fill:#141414"/><path d="M208,309c0,2.05-.2,4.12,1.06,5.94a1.84,1.84,0,0,1,.26,2.06,2.39,2.39,0,0,1-2,.51c-.46-.14-.9-.37-1.37-.48-1.58-.36-3.16,2.45-4.73,0-1.27-2,.7-3.29,1-4.95-.14-1.44-1.43-2.8-.34-4.33.42-.36,1.28-.39,1.17-1.17-.06-.47-.59-.68-1.07-.75-.94-.13-1.79.59-2.76.29-2.24-2.17-1.39-5-1.63-7.6.52-1.62,1.77-.76,2.8-.8-1-1.11-2.69-1.26-3.59-2.51a2.6,2.6,0,0,1-.3-1.31c.5-2.07,3.84-1.48,3.79-4.07a5.58,5.58,0,0,1,1.74-2.9c1.1.75.91,1.93,1,3,.86.72,2.26,1.28,2.07,2.55C204.24,298.37,207.08,303.53,208,309Z" style="fill:#292929"/><path d="M190,277c1.13,4.33-2.73,6.88-3.8,10.63-1.59-4.72-5.93-8.22-5.16-13.71.77-1.34.11-2.85.49-4.24.33-.6.72-1,1.49-.68,1.77,1.82,1.24,4.19.83,6.1-.6,2.75.57,3.93,3,5,.09-2,.17-3.9.26-5.82C188.64,274.67,187.9,277.39,190,277Z" style="fill:#0e0e0e"/><path d="M177,172c-1.91-2.14-1.94-5.45-4.64-6.73,1.13-2.52,4.37,1.38,4.66-2.25,1.58,1.15,3.52,1.63,5.11,2.55a4.12,4.12,0,0,1,.91,4.81C181.57,173.33,179,171.49,177,172Z" style="fill:#080808"/><path d="M172,173c.34,0,.67,0,1,0,3.15.11.13,3.27,2,4l0,1.94c2,.79,4.53.48,6,2.59a6.77,6.77,0,0,0,1.42,2.72,4.37,4.37,0,0,1,0,1.35,9.75,9.75,0,0,1-6.56,3.41c-1.13-1.47-.38-3.1-.36-4.66a4.33,4.33,0,0,0-2.49-3.87c-1.26-.67-1.15,1.74-2.44,1.71C167.06,177.33,167.51,174.59,172,173Z" style="fill:#282828"/><path d="M176,193.07l-.93,5c1,.77,3,.69,2.4,2.83a2.65,2.65,0,0,1-2.18,1.62c-2.19-.73-5.44-.1-5.24-4,.1-.19.22-.38.32-.57.25-.35.52-.69.78-1,1.1-1.95-.88-2.63-1.57-3.84a3.06,3.06,0,0,1-.12-2.61c.63-1.09,1.86-1.1,2.83-1.58a2.78,2.78,0,0,1,1.31-.13,2.48,2.48,0,0,1,1.26,1.44C175.16,191.18,175.06,192.33,176,193.07Z" style="fill:#333"/><path d="M166,163c-.39-2.14-1.34-2.63-3-1a1.39,1.39,0,0,1-2,0c-.87-1.64,3.06-2.12,1-4.05-1.28-1.33-.06-2.65,0-4,3,.25,5.1,2.47,6.76,4.24C170.25,159.82,168.48,162.26,166,163Z" style="fill:#060606"/><path d="M181.06,211c2.23,1.41,4.68,2.67,4,6-3.9,4.6-5,4.49-8.44-.78a2.91,2.91,0,0,1,.77-3.15c1-.73,2.24-1,3.15-1.86Z" style="fill:#1c1c1c"/><path d="M178,203c.17,2.1-1.53,5.2,2.76,5.19a25.91,25.91,0,0,1,.27,2.77l-.05.05a6.93,6.93,0,0,0-3.3,1.59c-1.38,1.33-1.25,2.81-.71,4.49s1.37,3.4,0,5.09c-2.51-.07-2.84-1.93-3.18-3.81a38.5,38.5,0,0,0-.49-6.06,7,7,0,0,1,0-2.23,14,14,0,0,1,3.43-7.16A1.05,1.05,0,0,1,178,203Z" style="fill:#1b1b1b"/><path d="M182,185l0-1c-1-.34.12-1.72-1-2a18.89,18.89,0,0,1-6-3c2.16.24,1.67-2.29,3-2.9a1.15,1.15,0,0,0,2,0c1.28.38,2.82-1.94,3.84.2.66,1.39,1.53,3,0,4.53-1.14,1.18-.78,2.77-.85,4.23C182.71,185.43,182.38,185.45,182,185Z" style="fill:#1b1b1b"/><path d="M182,185l1,0c.61,1.56,2.88,2.66,1.51,4.77-1.49,2.3-2.83-.14-4.24-.26-2.63-.23-4,1-4.28,3.54-1.94-.15-2.05-1.49-1.92-3,.42-.77.79-1.63,1.94-1.08Z" style="fill:#060606"/><path d="M194,273c-2.15,0-5.68-.87-5.44-1.95a8.45,8.45,0,0,1,4.47-6.05c2.15-.21,2,1.69,2.67,2.86a5.39,5.39,0,0,1,0,2.9A3.64,3.64,0,0,1,194,273Z" style="fill:#020202"/><path d="M208,309c-2.09-5.3-5.27-10.35-3.62-16.53.18-.67-.87-1.66-1.34-2.51l1,0c3.44,2.74,1.53,7,2.8,10.4.6,1.6.87,3.32,2,4.71C207.58,306.21,208.19,307.7,208,309Z" style="fill:#101010"/><path d="M187.08,242c-1.91,4.05-5,7.52-6.05,12l-.66-.24c-2.51-2.58-2.06-5.25-.21-7.93a34.69,34.69,0,0,1,3.37-4.79,2.3,2.3,0,0,1,1.29-.46A3,3,0,0,1,187.08,242Z" style="fill:#151515"/><path d="M158.07,181l1,2a2.51,2.51,0,0,1,.56,2.82c-.58.95-1.29,1.59-2.51,1.19-.43-3.13-.81-6.3-4-8-1.56-1-2-2.32-1-4v-2a1.12,1.12,0,0,1,1.22-.06,3,3,0,0,0,2.25,2.25c1,1.18,1.27,2.81,2.51,3.81C158,179.69,158.06,180.34,158.07,181Z" style="fill:#1a1a1a"/><path d="M161.06,162.08l2,0c-.47,3.37,0,7.17-4,9C157.05,167.44,158.07,164.54,161.06,162.08Z" style="fill:#202020"/><path d="M188,224c-2,2.62-1.64,2.35.55,5.11a4.84,4.84,0,0,1-.49,5.93c-1.14-.64-1.16-2.42-2.69-2.66a10,10,0,0,1-3.22-.89,2.71,2.71,0,0,1-.94-2.5,4.7,4.7,0,0,1,.39-1.31c.55-1,1.2-1.9,1.82-2.83a6,6,0,0,1,2.49-2.13C187,222.51,187.48,223.32,188,224Z" style="fill:#131313"/><path d="M188,224l-2-1a1.66,1.66,0,0,1-1.87-.3,2.55,2.55,0,0,1-.67-1.17c0-1.72,1-2.45,2.56-2.55,2.33-1.88-.26-5.13,2-7,1.05-.33,1.31.13,1.09,1.08A41.46,41.46,0,0,1,188,224Z" style="fill:#1d1d1d"/><path d="M194,273a2.24,2.24,0,0,1,1-2,6.38,6.38,0,0,1,3,3c-.28,2,.92,4.32-1,6.06-1,.72-2,.15-3,0-1-.73-.77-1.52-.11-2.35.93-1.15.39-1.59-.83-1.67C193.37,275,193.7,274,194,273Z" style="fill:#0f0f0f"/><path d="M202.05,287c-.07,1.12.16,2.33-1,3a1.65,1.65,0,0,1-1.27.44c-2.1-.86-1.76-3.09-2.62-4.65a10.58,10.58,0,0,1-.68-2,2.1,2.1,0,0,1,.61-1.9C201.55,280.81,201.76,283.93,202.05,287Z" style="fill:#2f2f2f"/><path d="M181.06,266c-1.55-1.27,2.12-5.46-2.77-5-.22,0,0-1.49.75-2,1.71,1.29,3.71.95,5.71.7.41,2.87-2.25,4.72-1.71,7.32C182,267.51,181.49,266.81,181.06,266Z" style="fill:#111"/><path d="M198,273.94c-1.33-.66-2.91-1.06-3-3,0-1,0-2,.05-3,.17-1.76-1.13-3.24-1-5,2.67,0,3.48,1.85,4,4,1,2-.21,4,0,6C198,273.31,198,273.63,198,273.94Z" style="fill:#262626"/><path d="M186,219c-.62,1-2.16,1.45-2,3-5.52.43-6.94-.79-7-6,2.2,3.92,5,3.28,8,1C185.37,217.68,185.7,218.35,186,219Z" style="fill:#0e0e0e"/><path d="M178,203l-1,0a1.28,1.28,0,0,1,0-2c.24-1.59-1.47-1.9-2-3a3,3,0,0,0,2.72-1.69c2.09-3.92,3.31-2.46,4.22.71-2.91.21-1.43,2.59-2,4A1.86,1.86,0,0,0,178,203Z" style="fill:#060606"/><path d="M160.06,189c.35,2.36-3.56.4-3,3a19.64,19.64,0,0,1-8.26-7.84c1.76-.26,2.64.81,3.42,2.16,1.05,1.8,2.53,2.95,4.77,2.73a2.24,2.24,0,0,1,1.88-.71A2.27,2.27,0,0,1,160.06,189Z" style="fill:#161616"/><path d="M188,194.41c.74,4.54,3.18,7.51-.22,12.19C188.3,202.12,186.2,199.13,188,194.41Z" style="fill:#111"/><path d="M186.47,192.12c1.82-2.84,1.55-5.57,4.35-5.83,1.09-.11.66,1.14.81,1.9C192.28,191.72,189.65,191.13,186.47,192.12Z" style="fill:#080808"/><path d="M187.08,242a2.14,2.14,0,0,1-2-1c-1.24-1.47-.75-2.83.27-4.15.77-.72,1.57-1.36,2.72-.84.14,1.28-.19,2.59.76,3.78C191,242.53,188.18,241.69,187.08,242Z" style="fill:#161616"/><path d="M158,179c-2.56-.17-3.09-1.85-3-4-.65-1.36,0-2.29,1-3C159.74,173.53,157.36,176.7,158,179Z" style="fill:#131313"/><path d="M156.1,172l-1,3c-2.46,1.11-1.9-.8-2-2a1.26,1.26,0,0,1,.06-1.94,2.23,2.23,0,0,0,1-2c.54-.55.8-1.63,1.94-1Z" style="fill:#252525"/><path d="M193.67,233c3,2.37,2,4.3.6,6.54C192.52,237.53,192.87,235.6,193.67,233Z" style="fill:#0a0a0a"/><path d="M196.85,244.85c.09,1.36-.39,2-1.33,2-1.41,0-1.76-1.29-2.12-2.32-.29-.83.07-1.81,1-1.82C196,242.67,196.38,244.07,196.85,244.85Z" style="fill:#0b0b0b"/><path d="M179.05,258c-.57-1.39-2.14-2.26-2-4,1.34-2.81,2.67-.29,4,0l0,0C180.84,255.57,181.75,257.68,179.05,258Z" style="fill:#181818"/><path d="M162.05,154.05c1.8,1.33-.35,2.65,0,4l-3.84,1.37C158.84,156.92,159.91,155.13,162.05,154.05Z" style="fill:#111"/><path d="M156,168.07l-1.94,1-.15-1c-.19-1.25-1.55-2.25-.92-3.61.14-.3,1.27-.42,1.78-.22C156.63,165,155.86,166.7,156,168.07Z" style="fill:#161616"/><path d="M180.06,201c-.81-1.68-1.8-3.39-.39-5.15.12-.14,1.54.76,2.36,1.17C180.52,197.94,182.74,200.7,180.06,201Z" style="fill:#202020"/><path d="M188,236l-2,1a3.07,3.07,0,0,1-.93-1.34A4.76,4.76,0,0,1,186,231c2.7.32,1.78,2.48,2.05,4C188.05,235.36,188,235.68,188,236Z" style="fill:#2b2b2b"/><path d="M181.06,266l2,1c1.1.65.09,1.33,0,2l-1,1c-.67.64-1.37,0-2,0C178,268.09,180.87,267.41,181.06,266Z" style="fill:#191919"/><path d="M189.1,213.07,188,212a8.74,8.74,0,0,1,1.5-1.18c1-.46,2.11-2.48,3-.28.72,1.74-1.38,1.26-2.16,1.85A9.22,9.22,0,0,1,189.1,213.07Z" style="fill:#141414"/><path d="M175,177.06c-2.53-.42-.23-3.22-2-4,.2-1.27.4-2.52,2-1C176.14,173.71,174.73,175.39,175,177.06Z" style="fill:#080808"/><path d="M197.05,282c0,.67,0,1.34,0,2-4.48,1.32-1.48-3-3-3.95l0,0c1-1.62,2-.39,3,0Z" style="fill:#313131"/><path d="M190,252.12c0,.94-.39,1.63-1.39,1.7a1,1,0,0,1-1.14-1.21c.24-.89.41-2.12,1.72-2.05C190,250.61,190,251.45,190,252.12Z" style="fill:#121212"/><path d="M153.09,171.07,153,173c-.33,0-.65,0-1,0-1.67-.1-2.5-1.35-1.84-2.54C151.26,168.59,152.05,171.09,153.09,171.07Z" style="fill:#0b0b0b"/><path d="M194.06,263c.88,1.56,2.64,2.95,1,5l-2-3A2,2,0,0,1,194.06,263Z" style="fill:#0f0f0f"/><path d="M198,273c-1.59-2,.33-4,0-6A4.56,4.56,0,0,1,198,273Z" style="fill:#0f0f0f"/><path d="M193.39,194.07a3,3,0,0,1,0,3.64C191.22,196.26,193.74,195.25,193.39,194.07Z" style="fill:#080808"/><path d="M180,176.06c-.16.89.39,2.38-1,2.39s-.83-1.47-1-2.36Z" style="fill:#292929"/><path d="M159.15,189H157c0-.66.06-1.32.1-2l1.9-1A2.14,2.14,0,0,1,159.15,189Z" style="fill:#2b2b2b"/><path d="M185.68,266.57c-.23-.57-.54-1-.46-1.27s.54-.59.84-.87c.21.32.63.69.58,1S186.13,266.05,185.68,266.57Z" style="fill:#101010"/><path d="M152.05,175a6.67,6.67,0,0,0,1,4C150.21,178.33,150.68,176.8,152.05,175Z" style="fill:#0b0b0b"/><path d="M177,163c-1.45,0-2.9,0-3-2A3,3,0,0,1,177,163Z" style="fill:#080808"/><path d="M194,280c1.67.81.12,4.05,3,3.95l1,1c0,1.94-.94,4.23,1.95,5.06h1c1.1,3.76-2.07,3.28-4,4,.11,4.43.34,8.83,3.12,12.59A1.77,1.77,0,0,1,202,308c-.11,1.73,1.45,2.58,2,3.94-2.67,1.54-5.33,3.17-8,0-.55-2.87,1.63-6.94-3.44-7.82,1.26-3.06-1.34-6.26.47-9.42,1.2-2.1,3-6,1.78-6.76C190.32,285.3,194.42,282.56,194,280Z" style="fill:#1c1c1c"/><path d="M196.05,312c2.67,1.67,5.34-.19,8,0a2.59,2.59,0,0,1-1.52,2.31,1.47,1.47,0,0,0-.52,2.44c1.18,1.48,1.49-.11,2.06-.67,1.53-1.55,2.5-1.31,2.88.87a2.32,2.32,0,0,1-.83,2c0,.32-.07.64-.08,1a6.43,6.43,0,0,1,.88,2.15c.11.35-.43,1.16.47,1,.18,0,.3-.83.66-1.16l4,3.05c.68.57,1.52,1,1.23,2.17-.67,1.28-1.95,1.84-3.05,2.61s-2.11,1.93-3.72,1.32c-2.83-1.57-5-3.53-4.21-7.17.39-.8.39-.8-.14-.81-.85-.6-.83-1.6-1.21-2.41s-.43.35-.76.37c-2.44,1.58,1.38,3.41-.22,5-1.65.82-3.3,1.67-3.93-1.1v-1a5.45,5.45,0,0,0,0-5Z" style="fill:#0e0e0e"/><path d="M200,321c.33-1.19-1.37-2.33-.13-3.6,2.78.92,1.32,4.18,3.14,5.59-1.13,3.91,2.52,5.42,4,8a2.16,2.16,0,0,1,.6,2c-.57,2.69-2,4.4-5,4.3L202,337c-1.34-1.82-2.67-.46-4,0-.67-.73-1.34-.49-2,0-.28-.38-.87-.83-.8-1.13.85-3.59,2.64-7.08.84-10.87,1.33,1.39,2.66,1.43,4,0C199.19,323.65,198.87,322.32,200,321Z" style="fill:#050505"/><path d="M204,354c-.81-.9-3.41-.54-2.07-3-2.47-1.34,1-6.3-3.86-6.28-.82,0-.94-1.88-.79-1.84,5.93,1.5,1.83-4.62,4.32-5.64a1.79,1.79,0,0,0,.38-.3l0,0c2.27,1.38,3.75,3.73,6.1,5a3,3,0,0,1,.9,1v2c-1.52.33-1.83.95-1,2-3.63,1-1.35,4-2,6A2.06,2.06,0,0,1,204,354Z" style="fill:#070707"/><path d="M220,320c.74-2,.5-4.26,2-6a1.8,1.8,0,0,1,.43,2.17,14.35,14.35,0,0,0,1.82-5.4,2.22,2.22,0,0,1,2.19-1.42c1.3.43,3.79-.28,2.54,2.62-2.34,4.52-4.69,9-6,14-4.6,3.2-5.19,2.9-5.95-3l1-1A2.7,2.7,0,0,0,220,320Z" style="fill:#282828"/><path d="M217.05,323c1.29,2.37,2,5.87,5.95,3l-2,3c-.52,2.13-2.71,2.62-4,4-.57,1.71-2.31-.23-3,1-1.08,1.43-1.46,3.8-4.14,3.08-1.42-2.72,2-5.37.13-8.11l3-2c2.11.82,1.15-1.53,2-2,0-.32,0-.65,0-1Z" style="fill:#252525"/><path d="M181.05,254c-1.34.48-2.67-1-4,0l-2,1h0c-1-1.23,0-2.34.23-3.5,1.43-3.4,1.84-7.06,2.6-10.64,2.46-4.18,3-4.17,6.18.15.08,1.81-1.22,3-2.2,4.19C179.38,248.06,179.14,250.88,181.05,254Z" style="fill:#050505"/><path d="M229,312c.46-1.79-1.56-1.11-2-2-1-2.52.29-4.74.92-7.05,1.31-3.08,4-5.73,3-9.54.18-1.57.47-3.08,2.39-3.45,1.59,1.07,2.35,2.93,1.55,4.33C231.72,299.82,232.54,306.62,229,312Z" style="fill:#141414"/><path d="M208,356c.74-3.09,3.23-2.46,4.61-1.38,2.05,1.59,0,2.85-1.3,3.72-2.08,1.38-2.55,4.37-5.25,5.12-.93.25-2,.94-2.56-.3s.67-1.67,1.51-2.17C206.69,359.7,206.44,357.29,208,356Z" style="fill:#070707"/><path d="M210,336.93l4-3c-1.27,3.22,1.91,8.89-5,9l-1,0a2.32,2.32,0,0,1-.62-1.33C207.85,339.83,207.19,337.43,210,336.93Z" style="fill:#131313"/><path d="M233.33,290a5.79,5.79,0,0,0-1.28,4.06c-1.23,1.24-.57,3.39-2.16,4.45a2.23,2.23,0,0,1-2.71-.5q.93-4,1.84-8c.8-.85,1-2.1,1.92-2.88s2-2.14,3.23-.7c1.05,1.22-.55,1.91-1.07,2.8A1.53,1.53,0,0,0,233.33,290Z" style="fill:#555"/><path d="M208,356c0,2.25.34,4.72-3,5,0-.33,0-.66,0-1-1.62-1.42.15-3.5-1-5v-1a2.09,2.09,0,0,1,2-1Z" style="fill:#151515"/><path d="M233.1,289.21c0-.89,1.3-1.8.27-2.48-.35-.23-1.54.81-2.34,1.27-1.59-3.59,1.94-5.28,2.93-7.91a2.7,2.7,0,0,1,1.56-1.33l.66.21-.2,4c-1.14,1.52.21,3.51-1,5Z" style="fill:#4b4b4b"/><path d="M217,333c.29-2.35,2.56-2.76,4-4,.33,1,3.81,2.26-.19,3.07C219.53,332.27,218.28,332.66,217,333Z" style="fill:#0b0b0b"/><path d="M212.86,369.13c0,1.13-.49,1.69-1.43,1.67a1.84,1.84,0,0,1-2-1.65,1.52,1.52,0,0,1,1.71-1.8A1.83,1.83,0,0,1,212.86,369.13Z" style="fill:#0d0d0d"/><path d="M204,355c1.65,1.41.76,3.32,1,5l-3.84-1.11C200.88,356.56,204.42,357.23,204,355Z" style="fill:#070707"/><path d="M238,276a2.94,2.94,0,0,1-1.86,3l-.31.09c-2-2.29-3.19-4.46.93-5.76C238.68,273.52,238.38,274.76,238,276Z" style="fill:#313131"/><path d="M180,270c.66-1.12,1.36-.16,2,0,.94,1.61,1.24,3.07-1,3.91A6.13,6.13,0,0,1,180,270Z" style="fill:#292929"/><path d="M238,276c-1.12-.66-.08-1.4-.08-2.09a.87.87,0,0,1-.26-1,1.77,1.77,0,0,1,1.36-.93l1.82-.05c.07,1.13.29,2.3-.88,3.07Z" style="fill:#252525"/><path d="M207.28,376.27c1.16.56,1.82,1.28,1.54,2.42-.09.34-.8.86-1,.78a2.48,2.48,0,0,1-1.41-2.39C206.44,376.79,207,376.51,207.28,376.27Z" style="fill:#0e0e0e"/><path d="M220.61,342.69c-.26-.31-1-.8-.93-1.2s.77-.86,1.29-1.11c.12-.06.77.53.85.89C222,341.92,221.79,342.56,220.61,342.69Z" style="fill:#090909"/><path d="M204.79,369.17c-.84-.22-.74-.91-.67-1.52s.38-1.35,1.18-1.13c.29.08.54.79.56,1.22A1.3,1.3,0,0,1,204.79,369.17Z" style="fill:#0d0d0d"/><path d="M196,337c.25-.92-.47-2.59,1.24-2.43,1,.1.7,1.52.77,2.41C197.34,337.09,196.68,338.07,196,337Z" style="fill:#161616"/><path d="M208.05,347l-2.47-1.83L209,345A2,2,0,0,1,208.05,347Z" style="fill:#181818"/><path d="M196,319a3.38,3.38,0,0,1,0,5Z" style="fill:#050505"/><path d="M212.41,362.38c.72-.09,1.23.1,1.12.65-.06.32-.61.64-1,.78-.2.07-.54-.25-.82-.39Z" style="fill:#070707"/><path d="M235,288c.18-1.7-.63-3.59,1-5C235.88,284.7,236.64,286.57,235,288Z" style="fill:#2c2c2c"/><path d="M239.06,272l-1,1c-1.3-2-3.54.74-4.9-1a11.44,11.44,0,0,0,2-5.93c.57-8.45,4.53-16.17,5.6-24.54a4.53,4.53,0,0,1,2.22-3.68c1.58,2.94-.22,6,.29,9A3.87,3.87,0,0,0,244,248c0,1.31,0,2.63-.05,4-1.07,1.54.21,3.52-.92,5q-1.53,4-3,8c-1.2,1.87.22,4.15-.92,6C239.05,271.34,239.05,271.66,239.06,272Z" style="fill:#3c3c3c"/><path d="M235.06,279.92c-.33,3.2-4.16,4.65-4,8.08l-2,2c.1-5.64-.26-11.39,4-16C235.12,275.48,233.74,278.17,235.06,279.92Z" style="fill:#2c2c2c"/><path d="M257,206c-.85,3,1,7-3,9a.74.74,0,0,1-1.1.17c-.81-.41.69-2.6-1.51-1.95l-.49-.27c-.64-3.56,2.85-5.66,3.16-8.89C256.21,203,257.07,203.81,257,206Z" style="fill:#2e2e2e"/><path d="M246,228c2.64-.89,3.83,0,1.92,2.27a3.83,3.83,0,0,0-.86,3.77,1.92,1.92,0,0,1-.14,2.87L246,238c-1.12.43-1.72-.14-2.11-1.12C244,233.79,243.6,230.56,246,228Z" style="fill:#414141"/><path d="M235.06,279.92c-3.87-.87-.47-4.25-2-5.92l.12-2c2.21.57,2.7-1.64,3.85-2.65,1.55,1.05.82,2.46,1,3.63,0,.3-.06.6-.08.9-4.84,0-1.67,3.31-2.09,5.14Z" style="fill:#4c4c4c"/><path d="M229,303c-.67,2.34-1.33,4.67-2,7a2.07,2.07,0,0,0-2,1c-.55.54-.84,1.58-2,1a31.08,31.08,0,0,0,2-9.09l1.05-.93c.8-.37,1.34.41,2,.46A1.29,1.29,0,0,1,229,303Z" style="fill:#2e2e2e"/><path d="M253,215h1l-1,2c-.39.29-1,.51-1.11.87-.39,1.63-.26,4.07-2.62,3.62s-.82-3-1.29-4.49c.82-1.46,1.3-3.17,2.92-4.05l.19.09C252,213.44,250.87,215.82,253,215Z" style="fill:#2b2b2b"/><path d="M256,191l2-2,1-1c.76-1.05,1-3.78,3-1,.53,1.32,2.73,2.75.32,4C260.4,192,258.09,193.93,256,191Z" style="fill:#202020"/><path d="M257,206a2.86,2.86,0,0,0-2.93-1.94,11.39,11.39,0,0,0,1-6c.85-.75,2.08-.42,3-1h1C259.09,200.2,259.2,203.37,257,206Z" style="fill:#1b1b1b"/><path d="M243.87,236.9,246,238a5.46,5.46,0,0,1,0,1c-.61,3.13-1.94,6-3,9-2.34-3.35-.46-6.74-.08-10.12Z" style="fill:#505050"/><path d="M228,303c-1.38,1-1.05-1.11-1.92-1,.36-1.34.72-2.67,1.07-4H230C230.7,300.17,228.88,301.39,228,303Z" style="fill:#484848"/><path d="M262.12,180.11l2.35-2.94c-.18,2.42-.69,4.59-.53,6.85C263.33,182.72,262.73,181.42,262.12,180.11Z" style="fill:#0c0c0c"/><path d="M258,197c-.57,1.56-1.61,1.77-3,1C255.19,195.28,256.26,195.15,258,197Z" style="fill:#0c0c0c"/><path d="M262,187.05c-1.49-1.17-2.08.4-3,1,.11-1.07-.29-2.47,1.26-2.77C261.58,185,261.88,186,262,187.05Z" style="fill:#0c0c0c"/><path d="M311.87,305.13c0,1.4,0,2.8,1.12,3.86,1.14,2.88.95,6.1,2.28,8.93A68.79,68.79,0,0,1,320,330.33c.32,4.27,0,8.35-3.48,11.46-5.07,2.27-9.8,2.29-13.86-2.11-3.6-2.83-3.41-7.09-4.16-11-1.57-4.47-.71-8.89.32-13.3a7.82,7.82,0,0,1,.45-1.42c1.34-3,3.46-5.66,4-9a21.48,21.48,0,0,1,1.06-2.8c1.07-1.72,2.34-3.36,4.63-2.66C311.66,300.33,311.14,303.12,311.87,305.13Z" style="fill:#fcfcfc"/><path d="M304.12,305.17c.3,3.71-2.49,6.05-4,9a2.71,2.71,0,0,0-2.72-.15c-3.37,1.2-3.16-.76-2.43-3,.85-2.43,1.06-5.13,3-7.12a2.37,2.37,0,0,1,.91,1.63c.17.62.35,1.28,1.13.53s1.23-2.25,2.65-2.52C303.63,303.61,304.66,303.71,304.12,305.17Z" style="fill:#505050"/><path d="M295,311c.15.92-.28,2.28.93,2.55,2.24.48,1.45-2.72,3.22-3,1.44.95.56,2.47,1,3.64V314c-1.66,1.66-.45,5.09-3.6,5.84a3.63,3.63,0,0,1-2.19-.4l-.49-.57C294.56,316.3,293.18,313.4,295,311Z" style="fill:#414141"/><path d="M308.76,294.89,307,296.1c-.91.79-1.8,1.62-3.14,1.5a1.81,1.81,0,0,1-1.16-.76c.68-3.56,4-5.53,5.32-8.69,1.34-1.14,2.19-.47,2.37.9C310.7,291.18,310.68,293.34,308.76,294.89Z" style="fill:#4f4f4f"/><path d="M302.73,296.84l1.36.17a3.84,3.84,0,0,0,2.92,1c4.13.64,5.54,3.15,4.86,7.09a12.64,12.64,0,0,1-.59-1.3c-.56-1.65-.87-3.71-2.95-3.93-1.92-.19-2.18,2.1-3.37,3.08-1.16.59-1.57-.61-2.33-.93-1.1-.17-1.64,2-3,.73a1.91,1.91,0,0,1,.29-1.91C300.2,299.06,301.59,298,302.73,296.84Z" style="fill:#5c5c5c"/><path d="M318.87,330.27l-4.1-12.2A.71.71,0,0,1,316,318l.09.91c1.87.18.64,3.31,2.94,3.09a5.51,5.51,0,0,0,1.1,3.88C320.14,327.46,320.48,329.15,318.87,330.27Z" style="fill:#161616"/><path d="M316.7,293.68c.09,1.82,1,3.74-.71,5.32-1.76-1.24-2.9-2.71-1.94-5-.38-.75-.14-1.21.66-1.39C315.67,292.39,316.23,293,316.7,293.68Z" style="fill:#4a4a4a"/><path d="M308.76,294.89c.38-2.31,3.51-4.91-.71-6.74.73-1.22,1.9-2.21,3.18-1.59s.37,2,0,3C310.69,291.48,311.72,294.14,308.76,294.89Z" style="fill:#151515"/><path d="M319,322c-3.29,1.16-1.77-2.25-2.94-3.09,1.41-1.1.72-2.73,1-4.1a.58.58,0,0,1,.91.16l1,4.05C319,320,319,321,319,322Z" style="fill:#101010"/><path d="M316.7,293.68c-.91-.11-1.93-1.16-2.65.32-2.68-3.66,2-3.25,2.76-5C316.78,290.57,316.74,292.12,316.7,293.68Z" style="fill:#151515"/><path d="M316,318l-1.23.08A21.31,21.31,0,0,1,313,309C315.5,311.49,314.36,315.2,316,318Z" style="fill:#101010"/><path d="M307,298c-.63.67-1.07,1.89-2.18,1.51s-.6-1.65-.74-2.54l2.94-.91C307,296.75,307,297.39,307,298Z" style="fill:#151515"/><path d="M318,315a3.11,3.11,0,0,1-.91-.16L317,310a2.4,2.4,0,0,1,.08-3l1.62,1.26Q318.34,311.58,318,315Z" style="fill:#4a4a4a"/><path d="M294,328.05c-1.77-2.85-.77-6-.86-9,.26,0,.51-.1.76-.16l.31.18c1.6,2.05,1.15,4.41,1,6.73A3.31,3.31,0,0,1,294,328.05Z" style="fill:#383838"/><path d="M317.07,307c0,1-.05,2-.08,3-1.91-2.1-.61-4.65-1-7C317.41,304,316.67,305.66,317.07,307Z" style="fill:#101010"/><path d="M299.94,300.87c0,.7,0,1.4.05,2.1,0,1.47.23,3-2,3.09,0-.74-.06-1.48-.08-2.22A3.8,3.8,0,0,1,299.94,300.87Z" style="fill:#505050"/><path d="M175,218c0,1.69.22,3.23,2,4.05a2.13,2.13,0,0,1,.54,2.6c-2.74,1.37-2.1,3.6-1.25,5.67.68,1.64,1.89,3,2.46,4.76s.18,3.24-.2,4.85a2,2,0,0,1-.44,1.29c-1.61.1-1.91-1-2.12-2.25-2.88-3.08-2.58-7.4-4.26-10.95-1.26-2.68,2.41-5.21.31-8a1,1,0,0,1-.35-.8c0-.29.09-.44.16-.44C172.75,218,173.72,217.39,175,218Z" style="fill:#282828"/><path d="M159.15,189l-.15-3c0-1,0-2,.05-3l7-3c-.06-1.86,1.23-1.83,2.34-1.39,1.87.74.93,2.61,1.24,4a2.46,2.46,0,0,1-1.72,3.15c-1.47.51-3-.1-4.44.16a19.67,19.67,0,0,0-2.38,2.09l-1,1h-.91Z" style="fill:#030303"/><path d="M161.07,188c0-1.09-.2-2.27,1-3,.26-.23.73-.5.85-.36,1.55,1.76,3.71,1.13,5.61,1.49a4.86,4.86,0,0,1-.47,5.58c-1.49.88-3,1.73-3.78,3.44a.9.9,0,0,1-1.18-.13Z" style="fill:#282828"/><path d="M177.06,201v2c0,2.77-2.24,4.58-3,7a2.62,2.62,0,0,0-3,.18,1.31,1.31,0,0,1-1.19-.06,12.12,12.12,0,0,1-1.59-2.57c-.07-.18-.13-.37-.19-.56-.05-1.41-1-1.68-2.17-2-2.12-.62-.74-1.37.14-2a5.86,5.86,0,0,1,3.85.48c.34.2.5.84.89.73s-.15-.64.09-1c1.14-1.38,2.63-1.45,4.21-1.19Z" style="fill:#232323"/><path d="M179.05,241c-.89,3.7-.61,7.73-3,11-2.47-3-2.75-6.39-2-10a2.25,2.25,0,0,1,1-2c1,.34,1.45,2.35,3,1h.12C178.43,240.57,178.73,240.55,179.05,241Z" style="fill:#161616"/><path d="M174,242q1,5,2,10c-.33,1-.67,2-1,3-1-3.69-2-7.37-2.92-11.09C171.81,242.63,171.82,241.07,174,242Z" style="fill:#020202"/><path d="M163.06,195l1,0a3.76,3.76,0,0,1,1,.74c1.77,1.86,3.13-.88,4.77-.42,1.37.45,2.2,1.14,1.2,2.66h0a2.66,2.66,0,0,0-1.32,2.33c-.31,2.39-1.64,2.91-3.68,1.67C164.64,199.86,162.29,198.11,163.06,195Z" style="fill:#1f1f1f"/><path d="M166,202c3.58,1.06,2.22-4.05,5-4-1.08,3.75,3.22,2.12,4,4l-4,2a.6.6,0,0,1-1,0c-1.4-.15-3,.44-4.05-1.06C166,202.66,166,202.34,166,202Z" style="fill:#2a2a2a"/><path d="M167.05,211c-.63,2.61,3.27,4,1.71,6.95-2-2.29-4.14-4.48-2.72-8A1.21,1.21,0,0,1,167.05,211Z" style="fill:#151515"/><path d="M172.06,219c0,.35,0,.71,0,1.07-3.6-2.35-1.25-6-2-9l.65-.24a2.82,2.82,0,0,1,1.48,2.18C172.44,215,173,217,172.06,219Z" style="fill:#232323"/><path d="M178,241c-.09,1.06-.4,2.06-1.71,1.79-1.55-.31-1.12-1.74-1.31-2.81.33-.33.66-.67,1-1Z" style="fill:#2b2b2b"/><path d="M167.05,211l-1-1a3.16,3.16,0,0,1,2-3l.05.05c1,.78.95,2.22,2,3h0c.3.22.4.43.31.65s-.19.34-.28.34l-.06.05Z" style="fill:#232323"/><path d="M272.75,349a9.29,9.29,0,0,0-.52,7.45c1,3,.09,5.09-3.4,5.42-3.76-9-2.64-18.49-2.66-27.86a1,1,0,0,1,1.37.38,6.36,6.36,0,0,1,.77,3.1c.06,2.37.05,4.74.06,7.11,0,1,0,2,0,3a19.41,19.41,0,0,0,.58,4.65c.22-.8-.07-1.85.3-2.81,1.12-2.07-.84-5.5,2.82-6.46C273.93,344.74,271.68,347,272.75,349Z" style="fill:#444"/><path d="M270.85,330c0,2.63,0,5.25,0,7.87-2.14.13-2-1.79-2.66-3-.52-2.56-.54-5.24-1.91-7.58-.16-1.16-.93-2.26-.42-3.49v-2.61c-.37-1.4-1.1-3.24,1.06-3.46,1.89-.2,1.4,1.73,1.53,2.95.2,1.75-.49,3.6.52,5.28C270.61,326.88,269.48,329,270.85,330Z" style="fill:#4e4e4e"/><path d="M269,296c.53,2.8-.58,5.42-1.09,8-.67,3.38-1.77.29-2.68-.08a9.63,9.63,0,0,1,.81-6C266.89,297.17,266.5,294.44,269,296Z" style="fill:#5d5d5d"/><path d="M269,326c-1.66-1.46-.77-3.42-1-5.15-.13-.91.2-2.4-1.18-2.21-1.07.15-.74,1.65-.91,2.59-1.37-1.94-.6-4.11-.7-6.19a2.34,2.34,0,0,1,2.8,0C269.31,318.57,269,322.29,269,326Z" style="fill:#4b4b4b"/><path d="M265.91,323.83,267,327c.79,2.35,1.78,4.69-.08,7-.26,0-.52,0-.77,0C265.81,330.59,264,327.26,265.91,323.83Z" style="fill:#4b4b4b"/><path d="M268,315a2.37,2.37,0,0,1-2.8,0c0-.69-.05-1.38-.08-2.06,1.24-1,2.47,0,3.71,0A1.85,1.85,0,0,1,268,315Z" style="fill:#4e4e4e"/><path d="M269,296c-1.56-.21-1.93,1.37-3,1.95,0-1.09,0-2.22,1-3,1.27-.21.58-2.66,1.91-2.15C270.71,293.54,269.35,294.94,269,296Z" style="fill:#4e4e4e"/><path d="M415,340c-3.7-.25-6.94-2.39-10.9-2.1-2.59.2-2.73-3.23-4-5-.63-9.24-1.24-18.49,1-27.63,2.18-2.82,2.39-7.36,7-8.06,2.69,4.88-1.9,7.47-3.61,10.83-4.21,8.31-2.52,16.71-.82,25.07.63,3.1,4.18,2.13,6.42,2.61C412.76,336.24,414.89,336.8,415,340Z" style="fill:#f8f8f8"/><path d="M408,297.06c-3.4,1.8-4.1,5.87-6.9,8.17,0-.75-.07-1.49-.1-2.23a14.5,14.5,0,0,0,1.22-1.52c3.17-5.2,6.79-9.54,14.25-7.56-1.37-1.72-4.25-2.31-2.44-5,3,.48,4.46,2.75,5.93,5,.69.58,1.66,1,1.05,2.24a3.32,3.32,0,0,1-1.21.62c-3.71.1-7.44-1.5-11.13.16Z" style="fill:#282828"/><path d="M315.87,190.05a5.25,5.25,0,0,0-2.08-3.21c.37-1.66,1.19-2.72,2.19-.57s2,4.54.23,6.89C316.1,192.12,316,191.08,315.87,190.05Z" style="fill:#434343"/><path d="M448.68,347.15c-2.82-2.6-3.32-5.87-2.69-9.45q1-5.83,2.05-11.68c1.91-1.41,3-2.41,4.16,1.2,1.32,4,.07,7.78.56,11.62-2.17,1.41-2.56,3.15-.94,5.24l2,1.05C452.94,347.94,450.69,347.24,448.68,347.15Z" style="fill:#252525"/><path d="M468.87,345.89l-1.84.42c-.51-2.75.73-5,1.91-7.34a4.58,4.58,0,0,1-.12-4.23l1.07-1c.16,2.79,2.29,2.16,4,2.29l-.9,1a10.7,10.7,0,0,1-2.86,4.28Z" style="fill:#2a2a2a"/><path d="M463.07,346.24c-.48-2,.54-2.68,2.38-2.9C465.57,345.21,464,345.46,463.07,346.24Z" style="fill:#575757"/><path d="M468.82,334.74l.12,4.23-2.39-2.18A4.15,4.15,0,0,1,468.82,334.74Z" style="fill:#4c4c4c"/><path d="M407.83,345.33c-.47-2.73-3.1-3.19-5.91-5.41,6.47.55,11.82,1.53,17.2,1.18-.16,2.84-2.35,2.8-4.33,3.06-1.85,0-4-.68-4.7,2a1,1,0,0,1-1.19-.17Z" style="fill:#4a4a4a"/><path d="M414.42,349.08l-.75-.76a1.69,1.69,0,0,1,.94-1.1c3.05,0,5-4.69,8.7-2a2.52,2.52,0,0,1-.26,2.9l0-.05A11.68,11.68,0,0,1,414.42,349.08Z" style="fill:#525252"/><path d="M423.05,348.11l-.14-3.21.38-.51c1.09-.69,2.16-1.53,3.46-.41L427,345C425.84,346.25,425.13,348.06,423.05,348.11Z" style="fill:#535353"/><path d="M414.42,349.08l8.67-1C420.5,350.94,417.52,350.47,414.42,349.08Z" style="fill:#535353"/><path d="M408.9,346l1.29-.23a2.11,2.11,0,0,1,1.87-.3c1,.45,2,.93,2.14,2.24l-.53.6Z" style="fill:#535353"/><path d="M142.83,201.08c-2.21-.1-3.48-.82-3.64-2.88-.18-2.35,1.6-2.71,3.18-2.88s3.25.37,3.35,2.13A3.38,3.38,0,0,1,142.83,201.08Z" style="fill:#3d3d3d"/><path d="M318.87,330.27c.38-1.48-.35-3.27,1.26-4.4L323,327c-.1,4.94,0,9.93-3.06,14.24-.4.95-.66,2-1.13,2.89a2.94,2.94,0,0,1-2,1.66c-1.92.08-3.53-.16-2.76-2.76a7.07,7.07,0,0,1,2-2.09C318.41,337.78,318.4,334,318.87,330.27Z" style="fill:#101010"/><path d="M330.06,350.94c-.87-.74-2.33-1.36-2.51-2.24-.66-3.22-2.62-2.16-4.48-1.7a2.07,2.07,0,0,1-.07-3c3.26-1.82,4.22,1.4,5.71,2.89C329.62,347.77,329.64,349.55,330.06,350.94Z" style="fill:#242424"/><path d="M323,344c0,1,.05,2,.07,3-.72,1.23-2,.86-3.06,1a2.1,2.1,0,0,0-2,.94c-1.45.57-2-.37-2.52-1.45a2.69,2.69,0,0,1,.1-1.32,3.38,3.38,0,0,1,1.62-1.11c.4-.68.8-1.37,1.21-2.05,1.33-.13,2.3,1.23,3.68.91Z" style="fill:#474747"/><path d="M322.07,343.94c-1.38,2.48-1.54,2.44-3.69-.91a2.16,2.16,0,0,1,1.55-1.81C320.76,342,322.16,342.41,322.07,343.94Z" style="fill:#5b5b5b"/><path d="M333.09,351.82a1.85,1.85,0,0,1,.8.38c.59,1.16,1.52,2.24.93,3.69L333.9,357a2,2,0,0,1-.75-.18c.62-1.61-2.28-2.15-1.2-3.9Z" style="fill:#565656"/><path d="M326.05,331.91c1.37,1,1.54,2.63,2.12,4C326.12,335.31,325.9,333.71,326.05,331.91Z" style="fill:#3a3a3a"/><path d="M481,313.94c2.07,6.87,2.09,13.42-2.93,19.21-.55-.32-.6-.71-.16-1.17L479,323C480.17,320.11,478.58,316.59,481,313.94Z" style="fill:#4b4b4b"/><path d="M481,313.94c-1,3,1.79,6.75-2,9.1a10.94,10.94,0,0,1,0-10.11c1.09-.49,1.37.57,2,1Z" style="fill:#252525"/><path d="M477.92,332l.15,1.17L476.62,335,475,335a7.45,7.45,0,0,0-2.93-5l2.8-4.34C474.86,328.25,472.23,332.14,477.92,332Z" style="fill:#343434"/><path d="M462,300l-2-2.1c.06-1.21.66-1.85,1.9-1.78,1.34,1.1,2.5,2.28,2,4.25Z" style="fill:#050505"/><path d="M481,314l-2-1c-.8-1.61-2.07-3-2-5A8.81,8.81,0,0,1,481,314Z" style="fill:#4b4b4b"/><path d="M462,296c-.34-.64-.69-1.28-1-1.92,2.47-1.64,3.21.2,4,2Z" style="fill:#3d3d3d"/><path d="M476.73,305c.09,1,.19,1.94.29,2.91l-3.13-3.87Z" style="fill:#4b4b4b"/><path d="M223.07,312l2-1c0,1.63.35,3.45-1.18,4.6-2.73,2-1.39-.82-1.8-1.57Z" style="fill:#363636"/><path d="M220,320c.19.86,1.39,1.78.23,2.54-.44.29-1.47-.33-2.23-.54Z" style="fill:#252525"/><path d="M294,328.05l.12-2.18c1.09-2.16.27-4.84,1.89-6.86,3-.27,1.79-4.15,4.17-5-.93,4.93-1.74,9.88-1.05,14.93a.78.78,0,0,1-1.14.1h0c-1.25-1.5-2.64,1.63-3.88-.12C294,328.65,294,328.35,294,328.05Z" style="fill:#474747"/><path d="M298,329.06l1.14-.1c1.21,3.39,1.49,7.14,3.87,10.09.58,1,1.79,1.76,1,3.18a1.49,1.49,0,0,1-2-.31C296.7,338.89,298.2,333.7,298,329.06Z" style="fill:#353535"/><path d="M311,347l-1-.05c-1.31-.39-2.78-.16-4-1l-1-1a.89.89,0,0,1,.13-1.37c2.26-1.09,4.6-.51,6.93-.38,1.52.65,1.26,2,1.2,3.2C312.79,347.41,312,347.76,311,347Z" style="fill:#2f2f2f"/><path d="M294.06,329a6.61,6.61,0,0,0,1.66-.83c.52-.49.32-1.9,1.42-1.58s.72,1.61.8,2.52C296.67,328.34,295.17,334.94,294.06,329Z" style="fill:#353535"/><path d="M306.05,346c1.17.9,3.3-1.91,4,1-1.32,3.47-2.67-1.26-4,0C306,346.64,306,346.29,306.05,346Z" style="fill:#242424"/><path d="M305.09,343.84v1.1c-2.06.05-2.38-1.68-3.07-3l2,0A1.44,1.44,0,0,1,305.09,343.84Z" style="fill:#181818"/><path d="M446.68,289.09c-.51-2-3.57-2.81-2.8-5.52-.39-2.23-.95-4.47.21-6.65,2.36.07.74,2.32,1.72,3.14,1.7,7.05,3.65,8.77,10.12,8.94l-1.76,1.9-1.27.11C450.47,291.52,448.68,290,446.68,289.09Z" style="fill:#363636"/><path d="M451.82,344.08c-2.38-.69-3-2.5-2.45-4.57s2.26-.35,3.39-.67C453.46,340.77,452,342.31,451.82,344.08Z" style="fill:#494949"/><path d="M343,306l1.74,1c.45,2.2,1.81,1.92,3.33,1.23,1.44,1,4,.42,4.4,3a3.94,3.94,0,0,1,0,.91,1,1,0,0,0,0-.94c.43-1.5-2.08-1.58-1.47-3.14,4.65-.33,9.29-2.86,14-.08.71.61,1.72,1.1.94,2.31a3.85,3.85,0,0,1-3.3.53c-.42.05-.88-.66-1.27.08a1.88,1.88,0,0,1-.44,2.13l-5.83,3.62c-2.63,1-5.66-.63-8.16,1.25-2.54-.08-1.15-1.94-1.39-3.07.35-4.45-3.81-2.38-5.55-3.82a2,2,0,0,1-1-2c1.05-.56,2.32-.81,2.91-2a.81.81,0,0,1-.23-.74c.06-.25.12-.38.18-.38A.79.79,0,0,1,343,306Z" style="fill:#242424"/><path d="M342,306.05c0,.3,0,.59-.09.88-3.42-1.89-2.11-4.43-1-6.95.33,0,.66,0,1,0A8.44,8.44,0,0,1,342,306.05Z" style="fill:#575757"/><path d="M243,248c-.54-3.5.76-6.4,3-9,1.15,3.41-.49,6.19-2,9Z" style="fill:#414141"/><path d="M246.91,236.9c.05-1,.09-1.92.14-2.87l1.51-1.17c.16.73.33,1.46.5,2.19l-1.2,2.88C247.55,237.58,247.23,237.24,246.91,236.9Z" style="fill:#0c0c0c"/><path d="M239.07,271c.23-2-.83-4.24.92-6C239.72,267,240.8,269.22,239.07,271Z" style="fill:#252525"/><path d="M243,257c.22-1.7-.56-3.58.92-5C243.83,253.68,244.67,255.57,243,257Z" style="fill:#252525"/><path d="M347,285a11.19,11.19,0,0,1,4-4c1.72,0,1.71.84,1,2L350,285c-1.09.54-1.5,2.14-3.05,2C347,286.32,347,285.65,347,285Z" style="fill:#434343"/><path d="M361.08,271.83c2.63.18,3.57,2.13,3.9,4.22s-1.11,2.83-3,2.85c1.66-2.31,1.92-4.38-1-5.89A.8.8,0,0,1,361.08,271.83Z" style="fill:#454545"/><path d="M353,279c1.93-1.33,3.88-2.53,7-.81L354,280A1.2,1.2,0,0,1,353,279Z" style="fill:#292929"/><path d="M361.08,271.83,361,273l-5.18.83A6.49,6.49,0,0,1,361,271,4.78,4.78,0,0,0,361.08,271.83Z" style="fill:#292929"/><path d="M353,279l1,1a3,3,0,0,1-2,3,2.07,2.07,0,0,0-1-2c0-.31,0-.62.07-.93Z" style="fill:#373737"/><path d="M414.2,347.72,412,346c-.8-2,1.22-2.1,2-3,1.93,0,3.91.07,5.16-1.85a7.16,7.16,0,0,0,4.82-4.16c-.43-2.9,2.68-4,3.27-6.35a5,5,0,0,1,1.43-1.53l1.17-.83c2.55-4.11,2.91-8.68,2.86-13.36a18,18,0,0,1,.37-5.42c.34-.72.68-1.42,1.68-1.17l1.31.66c1.85,6.61,1.83,13.1-1.13,19.46A53.24,53.24,0,0,0,433,334l-1.82,1.11a17.29,17.29,0,0,1-3,4.14l-.3,1.7c-1,2.13-3.38,2.6-5,4v0C419.57,344.48,418.05,349.7,414.2,347.72Z" style="fill:#0a0a0a"/><path d="M311,347a2.06,2.06,0,0,0,2-1,2.37,2.37,0,0,1,3,0c0,.31-.06.63-.07.94-.53.59-.14,1.62-1,2.05C312.79,350,312.23,347.86,311,347Z" style="fill:#242424"/><path d="M315,349a2.23,2.23,0,0,1,1-2.05l2,2C317,350.3,316,350.19,315,349Z" style="fill:#3d3d3d"/><path d="M317.24,351.43c-1.1.73-2.77.69-2.89.24-.34-1.3,1-.49,1.52-.64C316.22,350.93,316.68,351.25,317.24,351.43Z" style="fill:#0b0b0b"/><path d="M429,329.83,427.88,331a49.17,49.17,0,0,0-5.8,6.18l0,0c-1.95,1.18-3.85,2.48-6.15,2.92l-1,0c-1.94-3.19-5.09-3.57-8.36-3.45-3.09.11-4.12-1.31-4.77-4.3-1.44-6.63-1.05-13.29-.66-19.86a12.39,12.39,0,0,1,5.49-9c2.16-1.56,0-4.39,1.32-6.32l0,0c5.3-1.83,10.2-1.24,14.63,2.36,1.39,1.13,2.69,2.45,4.56,2.85a4.17,4.17,0,0,1,1.21.69,17.21,17.21,0,0,1,1.74,2.24c3.9,6,3.13,12.38,1.71,18.84a4,4,0,0,1-.51,1.31,4.65,4.65,0,0,1-1.5,1.12c-.46.23-3.75-.44-.47,1.31C430,328.07,429.59,329.21,429,329.83Z" style="fill:#fdfdfd"/><path d="M422.08,337.15c-.37-3.51,4-4.22,4.31-7.34l1.49,1.16c.12,2.93-2.57,4-3.94,6Z" style="fill:#f6f6f6"/><path d="M416,340c2-1.09,3.7-2.78,6.15-2.92C420.67,339.34,418.76,340.61,416,340Z" style="fill:#f6f6f6"/><path d="M373,346.05c1.39.94,1.11,2.73,2,3.93a1.93,1.93,0,0,1-1.89,2.09C373,350.06,373,348.06,373,346.05Z" style="fill:#1a1a1a"/><path d="M364,347l5.92-.78C368.2,348.4,366.23,348.71,364,347Z" style="fill:#1a1a1a"/><path d="M373.05,352a4.85,4.85,0,0,1-6-.07Z" style="fill:#1a1a1a"/><path d="M341.09,322.89c1.51-1,.05-2,.05-3,1.71-1.07,2.95-.66,3.76,1.17,0,.5,0,1,0,1.49,0,1.48.28,3.39-1.68,3.58S342,323.89,341.09,322.89Z" style="fill:#202020"/><path d="M344.9,321a6.64,6.64,0,0,0-3.77-1.17c0-.63-.07-1.26-.11-1.88.94-.69,2.29-.73,2.91-1.91a3.13,3.13,0,0,1,1.9-1.59A1.52,1.52,0,0,1,347,315c-.19,1-1.62,1.91-.05,2.9Z" style="fill:#363636"/><path d="M366,310c-.34-.68-.67-1.36-1-2l2.06.16a7.44,7.44,0,0,0,4.95.13l2,.9a1.9,1.9,0,0,1-1,1.86C370.05,314.52,368.05,312,366,310Z" style="fill:#282828"/><path d="M351,308c1.09,1.09,2.37,2.09,2,3.93a.66.66,0,0,1-1,0c0-2.64-3.39-1.69-3.94-3.74Z" style="fill:#282828"/><path d="M372,308.25c-1.7,1.85-3.32.82-4.95-.13Z" style="fill:#2a2a2a"/><path d="M456,265c-1.74,1.27-4,1.91-5.07,4l-3.86,5.05L446,274c-1.9-2.62-.65-4.84.91-7a5.72,5.72,0,0,1,1.25-3.77A4,4,0,0,1,449,263c1.72-.47,3.37,1.39,5.11.13L456,263c.39.31,1,.41,1.06,1Z" style="fill:#2e2e2e"/><path d="M466.12,262.8a48.84,48.84,0,0,1,5.53,3,3.1,3.1,0,0,1,.89,4c-1,2.15-2.38.72-3.65.33l-3-3C467.19,265.7,459.36,263.93,466.12,262.8Z" style="fill:#272727"/><path d="M457,264,456,263l2.93-1A1.7,1.7,0,0,1,457,264Z" style="fill:#393939"/><path d="M366,310c2.37,0,4.38,2.34,6.94,1-2,.62.91,6.08-3.89,3.92-1.61-.69-3.37-.66-5.06-1-1.1,0-2.31.22-3.07-.95-.29-1-.58-2-.88-3A1.28,1.28,0,0,1,362,310Z" style="fill:#050505"/><path d="M375,310a10.47,10.47,0,0,0,4,4.05l-1.05,1A1.29,1.29,0,0,1,376,315,7.16,7.16,0,0,1,375,310Z" style="fill:#5d5d5d"/><path d="M376,315l1.9.06,1.08,2c-.49.74-.89,1.65-2.06,1h-.48l-.48,0C375.16,317,373.5,315.94,376,315Z" style="fill:#1f1f1f"/><path d="M364,314c2.06-1.59,3.45.25,5.06,1C367.33,314.76,365.41,315.61,364,314Z" style="fill:#1f1f1f"/><path d="M428.19,339.23c-.11-2.16,1.49-3.1,3-4.14C432.19,337.92,431.27,339.35,428.19,339.23Z" style="fill:#383838"/><path d="M422.91,344.94c1-2.13,3.12-2.93,5-4,1.31,1.65-.44,2.15-1.14,3.05Z" style="fill:#525252"/><path d="M208.06,321.93c-.49,1.18,1.59,2.37.09,3.41a2.51,2.51,0,0,1-2.3.11c-1.32-.92.26-2,.15-3.07a20.08,20.08,0,0,1,.05-2.45A3.39,3.39,0,0,1,208.06,321.93Z" style="fill:#060606"/><path d="M209,317c0-.68,0-1.35.05-2l2,0a13.48,13.48,0,0,1,.42,2.32c0,.74.74,1.81-.25,2.17s-1.28-1.21-2.15-1.55c-.27-.2-.37-.41-.29-.62S209,317,209,317Z" style="fill:#191919"/><path d="M209,317c0,.32,0,.63,0,.95-.19,2.61-1.92.8-2.94,1a2,2,0,0,1,.84-2Z" style="fill:#3f3f3f"/><path d="M215,325c0,1.35.39,3.12-2,2l-.93-2Z" style="fill:#373737"/><path d="M446.87,267q-.45,3.51-.91,7l-.15,6.05c-1-.82-.81-2-.87-3-1.74-1.77-.44-4-1-6,.08-1,.15-2,.22-3Z" style="fill:#4a4a4a"/><path d="M347,315h-1c-.61-.26-1.38-.58-1.8,0-.68.93.36,1.4.84,2a2.75,2.75,0,0,1-4,1c-1.8-2.12-.67-4.67-1-7C343.83,309.68,346.89,309.73,347,315Z" style="fill:#3b3b3b"/><path d="M342,306.05c0-2,0-4,0-6l1,0c0,2,0,4,0,6C342.66,306,342.35,306,342,306.05Z" style="fill:#4b4b4b"/><path d="M421,295.88c-.35-.63-.7-1.26-1.06-1.89a13.37,13.37,0,0,1,8.93,5.18c.08.56.15,1.12.22,1.68.34.88-.15,1.25-.9,1.46a4.43,4.43,0,0,1-2.17-1.59C424.79,298.68,421.4,298.83,421,295.88Z" style="fill:#1a1a1a"/><path d="M454.07,263.13c-1.75,1.66-3.42.62-5.11-.13C450.71,261.24,452.35,263.71,454.07,263.13Z" style="fill:#4f4f4f"/><path d="M376.94,318l2.06-1,1.25.57C379.25,318.41,378.26,319.38,376.94,318Z" style="fill:#2c2c2c"/><path d="M272.08,342.9c-2.32,1.91.16,5.18-2,7.12a2.78,2.78,0,0,1-.93-1.26,12.66,12.66,0,0,1-.26-4.75,4.06,4.06,0,0,1,.93-2.19A1.81,1.81,0,0,1,272,342C272,342.29,272.06,342.59,272.08,342.9Z" style="fill:#545454"/><path d="M272,342h-2a5.57,5.57,0,0,1-1.75-3,7,7,0,0,1-.19-2.15,2.4,2.4,0,0,1,.95-1.88l1.85,2.92Z" style="fill:#5b5b5b"/><path d="M334.82,355.89c-.5-1.18-1.17-2.32-.93-3.69,1.37.4,1.32,1.9,2.13,2.73Z" style="fill:#848484"/><path d="M444,271c1.81,1.75.64,4,1,6-1.83,1.94-.59,4.39-1.06,6.55a10,10,0,0,1-1-6.41C443.39,275.15,442.76,272.92,444,271Z" style="fill:#393939"/><path d="M429,304.93a2,2,0,0,1-.81-2c1.29-1.12,2.56,0,3.84,0a5.52,5.52,0,0,1,2.73,5.31c-.26.24-.52.48-.77.73a1.77,1.77,0,0,1-1.23.49C430.68,308.63,431,305.83,429,304.93Z" style="fill:#292929"/><path d="M432,303c-1.3,1.85-2.56-.3-3.84,0l-.35.13A.76.76,0,0,1,428,302l1.13-1.14A3.35,3.35,0,0,1,432,303Z" style="fill:#222"/><path d="M470.1,341.28c.35-1.83,1.72-3,2.86-4.28,0,.73.05,1.46.07,2.19A3.07,3.07,0,0,1,470.1,341.28Z" style="fill:#4c4c4c"/><path d="M168,186c-2.54,2.75-4-.65-6-1,1.45-1.87,2.94-.14,4.42-.06.79,0,2.07.15,2.05-.7,0-1.56,1.09-3.23,0-4.63-.75-1-1.73-.44-2.43.42a1.82,1.82,0,0,1-2-2c-.93-1.05-2-2-2.33-3.45.9-1.76,1.67-3.75,4.32-2.55h0c.66.7,1.32.88,2,0,1.76-1.4,3.29-1.84,4,1-4.64,2.52-2,5.86-1,9a2.3,2.3,0,0,1,.51,2.19C170.8,185.65,170.14,187.23,168,186Z" style="fill:#171717"/><path d="M166,172c-2,.1-3.11,1.4-4,3a2.15,2.15,0,0,1,0,3c-.19.74-.38,2-1.22.47-2.81-5.26,2.08-6.95,4.42-10C166.43,169.75,165.9,170.94,166,172Z" style="fill:#1d1d1d"/><path d="M162.06,178v-3c2,.08,2,1.54,2,3Z" style="fill:#0e0e0e"/><path d="M168,172.05c.28.85,1.11,2.06-.31,2.32s-1.51-1.25-1.68-2.33Z" style="fill:#0a0a0a"/><path d="M200.09,306.94c-.22.71-1.24,1.82-1.25,1,0-4.73-4.75-8.85-1.83-13.89,0,.33.05.66.1,1a3.13,3.13,0,0,1,.87,3c2.12,2.3,0,5.69,2,8a.58.58,0,0,1,.26.6C200.22,306.83,200.15,306.94,200.09,306.94Z" style="fill:#070707"/><path d="M198,298c-1.15-.74-.89-1.91-.87-3a4.84,4.84,0,0,1,1.41.27c1.86,1.06,4.93,2.5,3.52,4.57C200.12,302.69,200.23,296.92,198,298Z" style="fill:#343434"/><path d="M200.09,306.94c0-.31-.06-.61-.08-.92.28-2,1.59-2.41,3.12-1.68a2.94,2.94,0,0,1,1.69,3.2c-.43,1.76-1.89.08-2.8.48Z" style="fill:#3e3e3e"/><path d="M171,184v-2c.47-1.52-.27-5.07,1.19-4.22,1.93,1.12,5.08,3,4.74,6.41A46.34,46.34,0,0,1,176,189l-1.94,1.08L173,189C172.52,187.31,169.7,186.5,171,184Z" style="fill:#282828"/><path d="M181,182l.63-1.05c.82.94.2,2.05.36,3.06-.84.19-1.78,1.36-2.44.17C179.39,183.85,180.51,182.76,181,182Z" style="fill:#2e2e2e"/><path d="M171,184c-.4,2.1,4.49,2.07,2,5h0c-.82.89-2.94-2.09-3,1v3c1.73,1.24,3.35,2.53,2,5h-1a1.81,1.81,0,0,0-2-2c-1.27-.56-2.39-1.26-2.57-2.81a1.6,1.6,0,0,1,.55-1.16c1.19-1.86,1-3.95,1-6C169.59,186.19,170,184.66,171,184Z" style="fill:#282828"/><path d="M170.05,190.05c-.29-4.13,1.7-1.56,3-1C172.48,190.63,171.43,190.81,170.05,190.05Z" style="fill:#282828"/><path d="M172,198c.42-2.1-1.11-3.42-2-5C173.24,193.68,173.85,195.37,172,198Z" style="fill:#282828"/><path d="M177,225c0-1,0-2,0-3-.09-3.37-3.19-7,1-10a.56.56,0,0,1,.28.61q-.09.33-.21.33c-.33,1-.66,2-1,3,.07,4.63,3.87,4.92,7,6h0c-.63,2.72-4.57,3.22-4.35,6.52a2.11,2.11,0,0,1-1.07.93,2.27,2.27,0,0,1-1.47-.25A2.82,2.82,0,0,1,177,225Z" style="fill:#030303"/><path d="M178.06,213c0-.32,0-.63-.07-.94.17-.89-.3-2.13.82-2.53s1.33,1.17,2.2,1.5C180.91,213,180.22,214.12,178.06,213Z" style="fill:#2a2a2a"/><path d="M172.06,219c-1.27-1.83-.19-4-1-5.95.69-1.24,1-3.6,3-1.05,1.7,1.78.62,4,.93,6Z" style="fill:#3a3a3a"/><path d="M174.08,212c-1.48-1-2.13.31-3,1.05a2.27,2.27,0,0,0-1-2c0-.33,0-.66,0-1,1.28-.43.61-2.79,2.34-2.58,1.28.16,1.59,1.4,1.66,2.58C174.05,210.68,174.07,211.34,174.08,212Z" style="fill:#2e2e2e"/><path d="M179.05,241h-.92L178,235c.05-.21.1-.41.14-.62,1.21-1.61-.67-3.77.92-5.31h0c.74-1.1,1.53-2.07,3-1l0,3c.44.41,1.05.61,1.45,1.07.64,1,1,2.13,1.72,3.08.25.29.5.59.76.88,0,.31,0,.62.05.94a6.76,6.76,0,0,0-1,4l-1,0C182.37,242.73,180.76,234.49,179.05,241Z" style="fill:#030303"/><path d="M182,228l-3,1c-1.17-4.36,2.09-5.55,5-7l2,1a3.4,3.4,0,0,1-2,2c-1.39.52-1.49,1.9-2,3Z" style="fill:#0e0e0e"/><path d="M182,228c-.51-1.79-1.36-3.8,2-3A3.05,3.05,0,0,1,182,228Z" style="fill:#050505"/><path d="M186,236.07l-.94-.07c-1.1-1.1-.7-3-2-4l-1-1,4,0Z" style="fill:#1e1e1e"/><path d="M200,290c-.25.85-.71,2.45-1.55,1-1-1.71-2.67-3.92-.4-6.06Z" style="fill:#060606"/><path d="M210,336.93c-1.53,1.34-.71,3.59-2,5-3.22-.08-2.61-2.67-2.32-4.3A19.53,19.53,0,0,1,207,333c0-.65,0-1.3.05-1.95,1-.67,1.41-2.16,2.94-2.08C215.22,331.6,209.8,334.27,210,336.93Z" style="fill:#353535"/><path d="M200,321v4a3,3,0,0,1-1.91-3.58C198.37,320.09,199.31,320.83,200,321Z" style="fill:#1c1c1c"/><path d="M204.08,320.39c.23.26.65.54.74.89a1.13,1.13,0,0,1-.85,1.47c-.24.06-.95.83-.92-.25C203.08,321.74,202.94,320.87,204.08,320.39Z" style="fill:#1c1c1c"/><path d="M207,333c.74,3-2.09,6.32,1,9,0,.33,0,.66,0,1a9.13,9.13,0,0,1-6-6C204.22,336.29,206.06,335.19,207,333Z" style="fill:#1f1f1f"/><path d="M202,330.09c2.14,0,2.07,1.86,2.48,3.16s-.65,1.62-1.71,1.69c-1.84.14-2.82-.61-2.73-2.56C200.12,331.07,200.51,330.12,202,330.09Z" style="fill:#131313"/><path d="M228,303q1-2.52,1.94-5c0-1.69.21-3.26,2.08-3.95,1.54,3.85-1.63,6.12-3,9Z" style="fill:#383838"/><path d="M240.52,260.59c-2.07-3.32-1.75-5.48-.72-7.54a.91.91,0,0,1,1.6.13C242.7,255.55,240.69,257.37,240.52,260.59Z" style="fill:#525252"/><path d="M253,215c-2.47,1.13-1.9-.68-1.89-1.95,1.16-.3.54-2.78,1.85-2.14C255,211.92,253.56,213.62,253,215Z" style="fill:#464646"/><path d="M305.09,343.84,304,342c-.27-1-1.4-1.69-1.08-2.91,3.92,3.47,8.28,3.95,13,1.88l-1.08,1.7a2.27,2.27,0,0,1-1.95,1.22Z" style="fill:#6e6e6e"/><path d="M303,301l2,2-.84,2.19A2.06,2.06,0,0,0,302,304C301.43,302.72,302,301.8,303,301Z" style="fill:#606060"/><path d="M303,301c-.32,1-.64,2-1,3-.28,1.84-.95,3.43-2.78,4.27-.6.28-1.47.66-1.69,0s.29-1.49.47-2.24l2-3.08c1.05-.52.84-1.73,1.38-2.5C302.33,299.1,302.83,299.64,303,301Z" style="fill:#6f6f6f"/><path d="M296,319a9.74,9.74,0,0,1-1.9,6.86c0-2.26.06-4.53.1-6.79Z" style="fill:#606060"/><path d="M177,225c.26,1.36-.38,2.94.95,4.05.85,2,1.34,3.93.16,5.94L178,235c-3.43-3-3.77-7-3.69-11.54Z" style="fill:#3a3a3a"/><path d="M167,192.06c0,.31,0,.63,0,.94-.69,1.28-.37,3.57-2.95,2.95,0-.3,0-.61-.05-.91C164.36,193.37,163.06,190.05,167,192.06Z" style="fill:#414141"/><path d="M170.05,204l1,0c.88.12,2-.27,2.42.88.07.2-.43.84-.76.93C171.21,206.21,170.21,205.71,170.05,204Z" style="fill:#1b1b1b"/><path d="M170.05,210c-2-.09-2-1.5-2-3C170.14,207.12,170,208.61,170.05,210Z" style="fill:#2e2e2e"/><path d="M164.08,196c1.6-.36,1.75-2.18,2.95-2.95.67,1,1.34,2,2,3C167.36,198,165.66,200.7,164.08,196Z" style="fill:#282828"/><path d="M269.05,335,269,337a1.52,1.52,0,0,1-1,.55,1.44,1.44,0,0,1-1-.54l-.15-3c0-2.33.05-4.66.08-7C269.69,329.14,268.82,332.19,269.05,335Z" style="fill:#666"/><path d="M270,348.9c0,.37,0,.75.07,1.12-.37,1.74.81,3.9-1.67,5.45l-1.3-7.56C268.36,347.3,269.14,348.18,270,348.9Z" style="fill:#585858"/><path d="M267.09,337a7.53,7.53,0,0,1,1,0,2.23,2.23,0,0,1,.46,1.65,2.86,2.86,0,0,1-.08.88c.54.16.22-.6.62-.58,1.17.73.93,1.93,1,3,0,.67,0,1.34,0,2-.72.94-1.35,2.1-2.8,1Q267.14,341,267.09,337Z" style="fill:#727272"/><path d="M267.2,345l2.8-1c0,1.64,0,3.27,0,4.91l-2.9-1Z" style="fill:#7d7d7d"/><path d="M428,302l-.18,1.07c-1,.05-2.48.52-2.8.09-4.35-5.79-10.46-6.46-17-6.12,3.62-4,7.78-.89,11.71-.9,2.17,1.7,4.94,2.41,7,4.24Z" style="fill:#f8f8f8"/><path d="M426.76,300.37a10.53,10.53,0,0,1-7-4.24l1.29-.25C422.27,298.23,426.22,297.12,426.76,300.37Z" style="fill:#424242"/><path d="M414,343c-.66,1-1.33,2-2,3l-1.78-.21C409,342.53,409,342.53,414,343Z" style="fill:#1f1f1f"/><path d="M312.94,343.85l1.95-1.22c-.86,2.33.65,2.44,2.29,2.45L316,346h-3C311.88,345.31,313,344.57,312.94,343.85Z" style="fill:#161616"/><path d="M352,312l1,0c1,.77.89,1.59,0,2.29-.31.24-1,.41-1.24.23C350.7,313.61,351.82,312.83,352,312Z" style="fill:#3d3d3d"/><path d="M362,310,360,310c-.55-.37-1.09-1-.46-1.44C361,307.7,361.38,309.1,362,310Z" style="fill:#282828"/><path d="M432.81,309.05l1.14,0c.32,5.43.46,10.87-1.2,16.12-.55,1.76-.47,4.09-2.88,4.8-.67-1.92.05-3.45,1.32-4.84l-.06.07C432.67,319.9,432.28,314.42,432.81,309.05Z" style="fill:#3c3c3c"/><path d="M431.19,325.09l-1.32,4.84-.47.09-.44-.19c.36-2-.72-2.55-2.43-2.41-1.37.11-1.75-.63-1.5-1.75.42-1.8,1.34-.69,2-.22C428.56,326.48,429.83,325.38,431.19,325.09Z" style="fill:#f6f6f6"/><path d="M432.81,309.05c.21,5.45.6,10.92-1.68,16.11,0-1.3-.38-2.72,0-3.89,1.95-5.85.56-11.16-2.18-16.34C431.68,305,431.52,307.68,432.81,309.05Z" style="fill:#f6f6f6"/><path d="M410,300c.27,1.09,1.67,2.06.33,3.39-1.52-1-1.78-2.12-.33-3.38Z" style="fill:#f8f8f8"/><path d="M410,300c.87-1,1.75-1.89,3.32-1.47-.62,1.83-2.1,1.32-3.32,1.46Z" style="fill:#f8f8f8"/><path d="M345,317c-1.29,0-2.68.15-2.88-1.67-.09-.8,0-1.68.88-2,1.57-.55,2.34.46,3,1.68Z" style="fill:#565656"/><path d="M269,339c-.19.68.31,1.59-1,2.26V337h1C269,337.65,269,338.3,269,339Z" style="fill:#848484"/><path d="M178.08,235q-.08-3-.16-5.94L179,229C178.57,231,182,233.61,178.08,235Z" style="fill:#0e0e0e"/><path d="M183,232c2.72.27,1.8,2.41,2,4C183.22,235.28,183,233.74,183,232Z" style="fill:#111"/></g></g></svg>