<?xml version="1.0" encoding="utf-8"?>
<!-- Generator: Adobe Illustrator 26.0.1, SVG Export Plug-In . SVG Version: 6.00 Build 0)  -->
<svg version="1.1" id="Layer_1" xmlns="http://www.w3.org/2000/svg" xmlns:xlink="http://www.w3.org/1999/xlink" x="0px" y="0px"
	 viewBox="0 0 645 567" style="enable-background:new 0 0 645 567;" xml:space="preserve">
<style type="text/css">
	.st0{fill:#020202;}
	.st1{fill:#0E0E0E;}
	.st2{fill:#FAFAFA;}
	.st3{fill:#C3C3C3;}
	.st4{fill:#F9F9F9;}
	.st5{fill:#0F0F0F;}
	.st6{fill:#0A0A0A;}
	.st7{fill:#3C3C3C;}
	.st8{fill:#171717;}
	.st9{fill:#151515;}
	.st10{fill:#474747;}
	.st11{fill:#0D0D0D;}
	.st12{fill:#5A5A5A;}
	.st13{fill:#676767;}
	.st14{fill:#B2B2B2;}
	.st15{fill:#2E2E2E;}
	.st16{fill:#8F8F8F;}
	.st17{fill:#F6F6F6;}
	.st18{fill:#F8F8F8;}
	.st19{fill:#585858;}
	.st20{fill:#363636;}
	.st21{fill:#424242;}
	.st22{fill:#212121;}
	.st23{fill:#2A2A2A;}
	.st24{fill:#737373;}
	.st25{fill:#F5F5F5;}
	.st26{fill:#F2F2F2;}
	.st27{fill:#434343;}
	.st28{fill:#070707;}
	.st29{fill:#505050;}
	.st30{fill:#303030;}
	.st31{fill:#777777;}
	.st32{fill:#292929;}
	.st33{fill:#4E4E4E;}
	.st34{fill:#626262;}
	.st35{fill:#7B7B7B;}
	.st36{fill:#222222;}
	.st37{fill:#A2A2A2;}
	.st38{fill:#707070;}
	.st39{fill:#545454;}
	.st40{fill:#BDBDBD;}
	.st41{fill:#5F5F5F;}
	.st42{fill:#3E3E3E;}
	.st43{fill:#252525;}
	.st44{fill:#4B4B4B;}
	.st45{fill:#8B8B8B;}
	.st46{fill:#282828;}
	.st47{fill:#3D3D3D;}
	.st48{fill:#606060;}
	.st49{fill:#767676;}
	.st50{fill:#787878;}
	.st51{fill:#6A6A6A;}
	.st52{fill:#5B5B5B;}
	.st53{fill:#595959;}
	.st54{fill:#B3B3B3;}
	.st55{fill:#656565;}
	.st56{fill:#6C6C6C;}
	.st57{fill:#F4F4F4;}
	.st58{fill:#5C5C5C;}
	.st59{fill:#181818;}
	.st60{fill:#232323;}
	.st61{fill:#9E9E9E;}
	.st62{fill:#1F1F1F;}
	.st63{fill:#797979;}
	.st64{fill:#F7F7F7;}
	.st65{fill:#757575;}
	.st66{fill:#2D2D2D;}
	.st67{fill:#FCFCFC;}
	.st68{fill:#353535;}
	.st69{fill:#A5A5A5;}
	.st70{fill:#464646;}
	.st71{fill:#616161;}
	.st72{fill:#373737;}
	.st73{fill:#AFAFAF;}
	.st74{fill:#535353;}
	.st75{fill:#646464;}
	.st76{fill:#131313;}
	.st77{fill:#8C8C8C;}
	.st78{fill:#A0A0A0;}
	.st79{fill:#C6C6C6;}
	.st80{fill:#4D4D4D;}
	.st81{fill:#2B2B2B;}
	.st82{fill:#5D5D5D;}
	.st83{fill:#727272;}
	.st84{fill:#888888;}
	.st85{fill:#161616;}
	.st86{fill:#CECECE;}
	.st87{fill:#262626;}
	.st88{fill:#F3F3F3;}
	.st89{fill:#1E1E1E;}
	.st90{fill:#2F2F2F;}
	.st91{fill:#494949;}
	.st92{fill:#1A1A1A;}
	.st93{fill:#121212;}
	.st94{fill:#080808;}
	.st95{fill:#2C2C2C;}
	.st96{fill:#414141;}
	.st97{fill:#1B1B1B;}
	.st98{fill:#090909;}
	.st99{fill:#1C1C1C;}
	.st100{fill:#111111;}
	.st101{fill:#6E6E6E;}
	.st102{fill:#A3A3A3;}
	.st103{fill:#7F7F7F;}
	.st104{fill:#818181;}
	.st105{fill:#717171;}
	.st106{fill:#6B6B6B;}
	.st107{fill:#9B9B9B;}
	.st108{fill:#C5C5C5;}
	.st109{fill:#929292;}
	.st110{fill:#565656;}
	.st111{fill:#999999;}
	.st112{fill:#393939;}
	.st113{fill:#CDCDCD;}
	.st114{fill:#686868;}
	.st115{fill:#575757;}
	.st116{fill:#979797;}
	.st117{fill:#323232;}
	.st118{fill:#909090;}
	.st119{fill:#4A4A4A;}
	.st120{fill:#202020;}
	.st121{fill:#101010;}
	.st122{fill:#030303;}
	.st123{fill:#313131;}
	.st124{fill:#515151;}
	.st125{fill:#060606;}
	.st126{fill:#5E5E5E;}
	.st127{fill:#333333;}
	.st128{fill:#3A3A3A;}
	.st129{fill:#343434;}
	.st130{fill:#CBCBCB;}
	.st131{fill:#C0C0C0;}
	.st132{fill:#0C0C0C;}
	.st133{fill:#484848;}
	.st134{fill:#404040;}
	.st135{fill:#4C4C4C;}
	.st136{fill:#272727;}
	.st137{fill:#1D1D1D;}
	.st138{fill:#666666;}
	.st139{fill:#383838;}
	.st140{fill:#EDEDED;}
	.st141{fill:#040404;}
	.st142{fill:#E4E4E4;}
	.st143{fill:#454545;}
</style>
<g id="Layer_2_00000135686925538202179020000014488214848275361463_">
	<g id="Layer_1-2">
		<path class="st0" d="M177,139.1c4.7,5.4,8,11.8,9.7,18.6c2.2,8.9,6.7,17.1,8.4,26.3c-0.3,3.1-1,6.1-2.2,9
			c-1.1,1.4-0.9,3.1-0.9,4.7c0.1,1.2,0.4,2.4-0.4,3.5c-0.9,1.7-0.1,5.2-4,3.9c-0.7-1.1-1.1-2.5-1-3.8c0.5-5.1,2.6-9.9,2.2-15.2
			c-0.2-2.3,0.2-4.7-1-6.8c-0.8-1-1.4-2.1-1.9-3.3c-1-4-2.6-7.9-4.8-11.5c-0.8-1.4-1.7-2.7-3.5-2.3s-1.5,2.1-1.8,3.6
			c-2.5,11.8-1.7,24.1-4.7,35.9c-0.6,2.3-1.3,4.4-2,6.7c-3.2,9.8-7.1,19.4-8.1,29.9c-0.6,6.4-2.9,12.5-3.1,19
			c-0.7,2.2-4.9,3.4-1.8,6.6c0.2,0.5,0.2,1,0,1.4c-1.3,2.2-2.9,4.1-5.8,3.6c-2.3-0.4-3.1-2.2-3-4.4c4.2-6.4,2.2-14.2,4.7-21
			c-0.4-0.8-0.6-1.8-0.6-2.7c1-2.2,2.2-2.6,3.8-0.6c-0.8-3.3-3.8-1.2-5.6-2.2c-1.9,6.2-7.7,11.1-6.1,18.5c0.6,5-2.6,8.5-4.8,12.4
			c-2.5,3.1-1.6,7.3-3.2,10.7c-0.6,1.3-0.9,2.8-1.6,4.1c-0.7,1.3-0.7,2.9,0.1,4.2c1.3,2.4,0.6,4.8-0.3,7.1c-0.6,2.1-1.9,3.9-3.7,5.2
			c-2.4,2-4.3,4.6-5.3,7.6c-0.5,5.2-2.2,10.2-5,14.7c-3.1,1.2-4.1,3.4-3.7,6.6c0.5,2.3-0.2,4.7-1.8,6.4c-1.1,1.4-2.4,2.6-3.4,4
			c-0.9,1.4-1.5,3-1.9,4.7c-0.2,2.5,0.1,4.9,2.8,6.1c1,0.6,2,0.8,2.9-0.2c4.2-1.4,4.5,1.5,4.9,4.3c0.6,1.4,1.7,2.8,0.7,4.4
			c-2.2,1.6-4.8,2.1-7.3,2.8c-0.6,0.3-1.1,0.7-1.6,1c-0.5,0.4-1.1,0.7-1.8,0.8c-1.2,0-2.5-0.1-3.1-1c-2.5-3.6-2.1,0.5-3,1.1
			c-1.5,1.5-3,3-4.8,0.2c-0.1-1.5-0.1-3,0-4.5c1.1-1.9,2.2-3.7,1.9-6c-0.1-0.9,0.1-1.9,0.6-2.6c1.9-1.9,1.5-4.5,2-6.9
			c0.1-0.5,0.3-0.9,0.5-1.3c0.7-1.8,1-3.6,1.8-5.4c0.4-3.8,2.1-7.2,2.8-10.9c2-10.6,6-20.7,11.6-29.8c0.4-0.7,0.7-1.5,0.9-2.3
			c5-7.9,7-17.1,10.4-25.6c0.9-2.2,2.1-4.1,2.9-6.3c3.1-9,4.4-18.5,8.3-27.3c2.7-6.2,4-13.2,6.2-19.8c0.6-2.4,1.7-4.6,3.1-6.6
			c2.5-3.1,3.2-7,3.4-10.8c0.1-3.3,1-6.5,2.6-9.4c3.9-6.9,1.6-15,4.4-22.2c2.2-5.8,2.9-12.1,5.3-17.9l0.8-2.1
			c0.8-1.1,0.7-2.5,1.1-3.7C170.7,136.7,171.7,136.3,177,139.1z"/>
		<path class="st1" d="M495.9,388c5.4,0.9,10.8,2.8,15.8-1.1c4.9-3.8,9.6-7.8,14.1-12.1l-0.1,0.1c1.6-0.4,2.4-1.6,3.2-2.8
			c2.1-1.5,3.2-3.7,4-6c1.3-1.9,2.8-3.8,4-5.8c0.2-0.4,0.4-0.8,0.7-1.2c0.5-1.4,0.2-2.9,0.7-4.2c0.3-3.3,0.7-6.6,1.3-9.9
			c0.2-1.4,0.4-3.3,2.4-3.2s1.9,1.9,2.2,3.4c0.1,0.5,0.1,1,0.1,1.5c0,2-0.5,3.9-0.6,5.9c0,0.5-0.1,1-0.2,1.4
			c-2.7,11.7-8.6,21.4-18.4,28.6c-0.5,0.5-1,0.9-1.7,1.2c-3.3,1.1-5.7,3.4-7.8,6c-1.6,2-4,3.3-5.7,5.2c-3.1,1.9-5.8,0.5-8.4-1.1
			c-5.3-0.9-10.6-0.1-15.8,0c-1.4,0.3-2.7,1.1-4.1,0.2c-3.3-1-6.2-3.1-9.7-3.8h0.1c-1.8-1.6-4.1-2.3-6.1-3.7c-2.6-0.7-4-2.7-5.5-4.6
			c-0.8-1.3-1.8-2.3-3.1-3.1c-0.3-0.3-0.7-0.6-0.9-0.9c-0.7-1.1-1.6-2.1-2.4-3.1c-0.2-0.4-0.4-0.8-0.6-1.2c-0.1-1.6,0.1-2.9,2-3
			c0.5,0.1,0.9,0.3,1.2,0.5c1.2,1.3,2.2,2.7,3.5,4c0.3,0.3,0.5,0.6,0.8,1c0.8,1.5,2,2.7,3.5,3.5c0.9,0.7,1.7,1.5,2.5,2.2
			c3.1,2.7,6.7,4.8,10.6,6.3C483.5,389.4,489.7,388,495.9,388z"/>
		<path class="st2" d="M234.6,346.1c1.4-0.5,4.4,1.2,4-1.1c-0.5-2.9,3.2-7-2-8.8c4.5-3.8,5.6-8.9,2.9-14.7c-0.7-1.5-3.1-2.8,1-2.6
			c0.6,0,1.5-3.3-0.6-4.2c-3-1.4-2.7-3.2-1.1-5.3c3.4-4.4,3-9.1,2.8-14.4c-0.1-3.3-3.1-7.4,0.7-10.7c1-0.9-0.6-1.3-0.6-1.9
			c-0.3-4.5-1.5-9.4,3.4-12.5c1.5,1.4,1.2,3.2,1.1,4.9c-0.1,0.5-0.2,0.9-0.3,1.4c-0.5,1.6-0.6,3.3-0.4,5c0,0.8,0.1,1.5,0.1,2.3
			c0,0.6,0,1.1,0,1.7c-1.7,8.5-0.5,17.2-1.3,25.8c0.1,0.5,0,1.1-0.1,1.6c-0.5,4.6-2.1,9.2-1.2,14c0.3,1.5,0.5,3,0.6,4.6
			c0.5,2,1.5,3.8,1.7,5.9c0.2,1.3,0.3,2.6,0.2,3.9c0.1,3.4-0.4,6.8,0.6,10.1c0.1,0.5,0.2,1,0.2,1.5c0.1,1-0.1,2.1-0.4,3.1
			c-1,2.4-2.5,3.1-4.9,1.8c-1.6-1.1-2.8-2.7-3.4-4.6C236.9,350.6,233.9,349.1,234.6,346.1z"/>
		<path class="st2" d="M151,292c0.4,3.9,0.4,3.9,4.4,5.1c0.9,0.3,0.6,1,0.6,1.5c-0.1,2.1-1.3,5.4-2.6,5.2c-8.3-1.5-5,5.3-6.1,8.5
			c-1.3,3.9-1.4,8,1.1,11.8c-2.3,0.5-1.6-1.3-3.4-2.4c1.2,7.8-0.2,14.9,3.9,21.7c-3.6-0.1-0.8-3.5-3.8-3.4c1,3.2-2.6,7.1,2.1,9.8
			c1.3,0.8,0.6,3.4,0.4,3.6c-5.4,4.9-2.6,11.3-1.4,16c1.1,4.3,2.2,7.2-0.6,10.9c-0.4,0.5,1.3,2.5,1.9,3.8c0.7,1.6,1.2,3.4-0.3,4.5
			c-0.7,0.5-3.3,2.3-3.1-1.2l-5.3,0.6c4.9-6.8,4-14.5,3.9-22.2c-0.2-4.5,0.5-9.1-0.6-13.5c-0.6-6.5,0.6-13,0.2-19.5
			c0.1-1.3,0-2.6-0.2-3.9c-0.5-3.1,0.6-5.9,1.3-8.8c0.9-4.8,1.5-9.6,1.7-14.4c1.2-3.2,2.9-6.2,3.1-9.6
			C149,294.6,148.5,292.2,151,292z"/>
		<path class="st3" d="M167.2,148.1c-0.4,5.1-2,10-3.5,14.8s-2.9,9.6-2.4,14.6c0.4,4.1-2,7.3-3.3,10.8s-2.6,7.2-2.6,11
			c0.1,5.9-4.5,9.8-6.1,14.9c-2.5,8.3-5,16.6-7.7,24.8c-5.4,16.3-10.9,32.5-16.5,48.7c-0.8,2.3-2.6,4.2-4,6.2c-0.4,0.4-0.7,0.5-1,0
			c5.9-12.5,10.8-25.4,14.6-38.7c2.4-8.2,5.3-16.2,7.6-24.4s4.1-17,9.3-24.4c1.1-1.5,1.7-3.3,1.9-5.1c0.3-6.8,3-12.8,5.2-19
			c1.8-5.3-0.1-11.3,2.4-16.5C163.8,160.3,162.8,153.3,167.2,148.1z"/>
		<path class="st4" d="M358,342c1.7-0.5,2.1-4.9,5.6-1.5c0.8,0.8,5.4-3.4,5.9-7.2c0.1-0.8-0.5-2,0.5-2.1c4.8-0.2,5.4-4.7,7.8-7.3
			c1.1-1.2,3-1.7,0-2.9c-0.8-0.3,0.1-1.4,1.1-1.3c1.5,0.1,1.8,1.7,2.8,2.7c4-6.3-0.6-14.2,4.8-19.4c-2.2-2.4-3,2.7-4.2-0.3
			c-0.5-1.1-1.9-5,2.5-3c0.2,0.1,0.8-0.4,0.8-0.4c-1.7-3.9,2.3-8.5-1.3-12.2c-0.2-0.2-0.5-0.4-0.7-0.6c4.3-4.9-1.6-8.7-1.5-13.1
			c0-1.1,0.1-2.3,0.1-3.5c2.9,1,2.1,4.2,3.7,6c0.8,1.6,1.6,3.3,2.2,5c1.6,5,1,10.3,2.1,15.3c-0.3,3.9-0.7,7.8-2.5,11.4
			c-1.9,3.8-1,8-1.3,12.1c0.1,1.6-0.4,3.2-1.4,4.4c-2.9,2.3-5.7,4.9-8.2,7.6c-1.9,1.6-3.5,3.5-5,5.5c-1.2,1.6-2.2,3.3-3.1,5
			c-0.3,0.4-0.6,0.7-0.9,1c-1.9,1.7-3.7,3.8-6.7,2.6C359.6,344.6,357.7,344.2,358,342z"/>
		<path class="st5" d="M473.9,258.1c2.2,1.4,4.7,2.4,6.2,4.7c2.1,3.5,3.2,7.5,4.7,11.2c0.2,0.2,0.3,0.6,0.2,0.9
			c-0.6,4.9,0.6,9.8-0.6,14.6c-0.5,1.7-0.5,3.6-1.1,5.3c-0.6,2.5-0.8,5.2-2.3,7.4c-0.7,0.4-1.6,0.3-2.3-0.2c-1.1-2.8,1-5.2,0.8-7.9
			c2.4-6.7,2-13.7,1.8-20.7c-0.1-3.5-3-5.4-5.1-7.6c-6.9-3.1-10.4,1.7-14,6.1c-2.5,3-2.3,7.3-5.1,10.2c-0.7,0.2-1.5-0.1-1.8-0.9l0,0
			c-0.1-0.5-0.2-1-0.1-1.5c0.4-1.7,0.6-3.4,1.1-5.1c0.9-5.4,4.3-9.6,7.4-13.7C466.1,258.1,469.8,256.3,473.9,258.1z"/>
		<path class="st6" d="M499.9,289.9c0.4-2.5,1.4-4.8,2.9-6.9c1.9-6.4,5-11.9,11.1-15.2c1.3-0.1,1.7,0.8,1.9,1.8
			c0.1,1.7-0.3,3.4-1,4.9c-0.2,0.4-0.4,0.9-0.7,1.2c-3,2.9-5.2,6.5-6.5,10.4c-0.6,1.5-1.4,3-2.3,4.4c-2.6,1.8-3.2,4.7-4.2,7.4
			c-0.7,2-1.7,3.9-2.9,5.5c-0.8,3.5-0.1,6.9,0.3,10.4c-1.1,2.5-2.4,1.1-3.6,0.2c-0.5-2-2-3.8-1.1-6c1.2-1.5,0.2-3.2,0.7-4.8
			C496.8,298.9,499.6,294.9,499.9,289.9z"/>
		<path class="st7" d="M102,380.1c-0.7-1.6-1.4-3.1-2.1-4.7c-0.1-0.5-0.2-0.9-0.2-1.4c0.4-0.9,1.2-1.5,2.2-1.5
			c0.7,0.1,1.3,0.3,1.9,0.7c2.7,1.2,3.1,4.2,4.9,6.2c0.8,0.8,1.6,1.6,2.5,2.2c5.5,1.5,10.9,3.6,16.8,3c2.5-0.3,5-0.6,5.8-3.6
			c0.7-0.7,1.5-1.2,2.4-1.4c1.4-0.4,2.9-2.3,4.2,0.1c-0.4,2.1-0.9,4.2-1.1,6.3c-4.4,4.5-9.7,6.2-15.9,4.9c-4.6-1.2-9.1-3-13.8-4
			c-1.2-0.2-2.3-0.9-3-1.9c-1-1.5-2.2-2.8-3.6-4C102.6,380.8,102.3,380.5,102,380.1z"/>
		<path class="st8" d="M383.8,323.7l1-3.7c1.8-3.8-0.7-8.2,1.8-11.9c0.6-0.7,1.6-0.7,2.3-0.1c0.2,0.2,0.4,0.4,0.4,0.7
			c0.1,0.6,0,1.1-0.3,1.6c0.3,0.9,0.5,1.8,0.8,2.7c-1.2,2.6-1,5.5-1.4,8.2c-0.2,3.8-2.6,7.3-6.1,8.9c-0.7,2-1.8,3.8-3.3,5.2
			c-3,1.5-4.3,4.7-6.9,6.5c-1,0.8-1.8,1.9-2.3,3.1c-3.5,6.9-6.9,7.5-12.2,2.2c-1.7-2.3-0.7-3,1.7-2.8c4.2,3.5,6.2,0.2,8.4-2.7
			l-0.1,0.1c1.8-1.2,2.2-3.4,3.2-5.1c0.2-3.2,3-4.2,5-5.8C378.9,329,381.3,326.2,383.8,323.7z"/>
		<path class="st9" d="M515,270c0.1-0.8-0.3-1.6-0.9-2c-0.3-0.1-0.4-0.4-0.4-0.7c0.1-0.3,0.1-0.4,0.2-0.4l0,0c3.3-1.5,6.4-3.6,9-6.2
			c2-3.3,5.9-4.7,8-8.1c1.1-1.8,3.2-1.6,4.8-0.1s3.6,2.9,4.4,5.3c1,2.8-1,3.6-2.8,3.1c-4.8-1.4-7.6,1.6-11,4S519.3,269.4,515,270z"
			/>
		<path class="st10" d="M264.9,218.8c0.2-1-1.3-1.8-0.2-2.9c2.1-2.7-0.1-6.1,1.3-8.9l0,0c1.8-1.6-1.1-4.8,2-5.9
			c0.2,0.2,0.3,0.5,0.2,0.7c1.1,1.9,1.5,4.1,1.2,6.3c-0.7,2.5,0,5.1-0.5,7.6c-0.8,3.5,0.3,7.1-0.6,10.6c0.1,0.2,0.1,0.4,0,0.5
			c1.3,3.3-0.1,6.8,1,10.1c1.1,5.3-0.6,10.4-1.2,15.6c-0.3,0.5-0.8,0.8-1.3,0.9c-1.6-0.1-0.9-1.7-1.7-2.3c-0.1-0.3-0.1-0.6-0.2-0.9
			c1-8.6,1.1-17.4,0.2-26l0,0C264.2,222.3,264.5,220.5,264.9,218.8z"/>
		<path class="st11" d="M201.2,264.9l1,0.9c1.9,1.9,4.4,2.9,6.5,4.5c3,2.4,3.3,5.2,0.5,7.4c-1.9,1.5-1.4,3.1-1.7,4.8
			c-1.6,1.5-2-0.1-2.6-1.1c-0.4-1.4-1.2-2.6-2.3-3.5c-1.7-2.5-5.3-1.6-7.2-3.8c-0.2-0.7-0.1-1.4,0.3-2c2,0.3,1.4-1.5,2-2.4
			c1.3-1.4,1-3.5,2.3-5C200.3,264.6,200.8,264.6,201.2,264.9z"/>
		<path class="st12" d="M360,345.2h-2.3l0.5,1.7c0.2,0.2,0.2,0.6,0,0.9c0,0.1-0.1,0.1-0.2,0.1c-4-2.7-7.1-6.5-9-10.9
			c-1.1-4-1.1-8.1-2-12.1c-0.5-0.9-1.3-1.6-1-2.8c-1.1-3.2-2.5-6.3-1.7-9.9c0.3-1.3,0.4-2.6,2.1-2.8c0.9,0.1,1.3,0.8,1.6,1.5l0.1,1
			c-0.5,4.6,1,9,2.2,13.4c0.5,0.9-0.5,2,0.5,2.9c0.5,1.4,0.3,3.1,1.2,4.4c0.9,3.9,4.6,5.9,6.2,9.4l0,0l3,3
			C360.8,345.3,360.4,345.4,360,345.2L360,345.2z"/>
		<path class="st8" d="M502.7,324.1l-1.7-1.2c-0.5-1.5-3.1-2.1-1.7-4.4c0.5-0.3,1-0.4,1.5-0.4c7.3,1.4,14.7,2,22,3.4
			c0.5,0,1,0.2,1.4,0.5c0.1,0.5,0,1-0.3,1.4c-2.5,2.5-5.7,2.9-9,3.1C510.6,326.5,506.4,326.6,502.7,324.1z"/>
		<path class="st13" d="M267,253c1.5-5.1,2.1-10.5,1.9-15.8c-0.3-0.4-0.3-1,0.1-1.3c0.1-0.1,0.1-0.1,0.2-0.1
			c1.1,2.1,1.4,4.5,0.8,6.8c-1.5,8-0.4,16.1-1.7,24.1c-0.3,1.8-1.9,5.4,2.6,5.3c0.3,0.4,0.5,0.9,0.4,1.4c-0.9,1.6-2.1,2.7-4.2,2.2
			c-1-0.5-1.1-1.6-1.4-2.5c-0.1-0.4-0.1-0.6,0.1-0.7c-0.6,1.1,0.5,2.3,0.2,3.5c0,0.5-0.1,0.9-0.2,1.4c-0.2,0.4-0.5,0.8-0.9,1
			c-2.5-4.2-0.2-8.8-1-13.1c0.9-4.6,1.2-9.3,1.1-14l1.2,2c1.2,3.7,0.8,7.4,0,10.9C267.5,260.4,266.8,256.7,267,253z"/>
		<path class="st14" d="M120.2,294h1c-1.7,3.7-3,7.6-5.2,11c-4.6,7.4-5.4,15.9-7.6,23.9c-0.8,2.9-3.4,5.4-2.5,8.8
			c-1.2,1.5-1.1,3.5-2.1,5.1l0,0c-1.3,2.5-0.1,5.7-2.1,8c-0.8,0.5-0.8,1.3-0.8,2c-0.2,0.5-0.4,0.6-0.8,0.2
			c0.6-7.5,3.6-14.4,5.8-21.5c1.5-4.8,3.2-9.6,3.7-14.7c0.7-6.3,4.5-11.6,7.2-17.2C117.9,297.7,119.1,295.9,120.2,294z"/>
		<path class="st15" d="M457,282c1.8-3.3,2.1-7.2,4.6-10.1c0.7,0.2,0.9,0.6,0.4,1.2c-3.5,8.6-4.9,17.9-9.5,26.1
			c-1,1.5-1.4,3.4-1,5.1c1,4.7,0.2,9.2-3.6,12.8c-1.6-1.7-0.8-3.4-0.1-5.1c1-2.6,0.9-5.3,1.1-7.9c-0.5,2.6,0.7,5.9-3.3,6.8
			c0.7-3.9,1.5-7.9,2.2-11.9c0.3-0.3,0.6-0.6,1-0.9c3.2-2.5,4.5-6.1,5.5-9.8C455,286.1,455.5,283.9,457,282z"/>
		<path class="st16" d="M336.9,278.1c2.9,6,2.9,12.4,3,18.8c2.6,4.8,2,9.1-1.9,13l-1.1,0.9c-0.8-0.4-1.3-1.2-1.6-2
			c-0.3-0.9-0.2-1.8,0.2-2.6c0.2-0.4,0.5-0.8,0.8-1.1c1.5-1.5,1.7-3.9,0.3-5.5c-0.2-0.4-0.4-0.8-0.5-1.3c-0.3-1.4-0.3-2.8-0.1-4.2
			c0.1-0.5,0.1-0.9,0.3-1.4c0.6-2.4,1-4.8-0.4-7.1c-0.7-1.2-1.1-2.5-1.1-3.9c-0.2-1.7-0.3-3.5-2.1-4.4c-0.9-0.7-1.4-1.7-1.3-2.9
			c0.1-1.1,0.1-2.1,0.1-3.2c0.1-0.4,0.3-0.8,0.6-1.1l3.9,4C337.1,275.2,336.2,276.9,336.9,278.1z"/>
		<path class="st17" d="M466,381.9l-2-1.9c-1.6-1.1-3.2-2.2-3.9-4.2l0.1,0.1c-1.5-1.5-2.9-3.2-4.3-4.8l-0.1-0.1
			c-3.7-0.9-2.1,1.6-2,3.1V374c1.3,1.2,2.3,2.6,3,4.1V378c0.8,0.3,0.8,0.9,0.6,1.5l-0.5,0.5c-2.3-0.9-4.2-2.8-5.2-5.1
			c-1-2.2-1.9-5,0.5-6.7c1.8-1.3,4.1-2.1,6.1,1.2c4.2,7.2,10.7,12.1,17.7,16.2c-0.3,0.4-0.7,0.7-1.2,0.7
			C471.6,385.6,468.6,384,466,381.9z"/>
		<path class="st18" d="M338,310c2.2-4.1,2-8.6,1.9-13c1.5,0.7,1.5,3,4.2,3.2v-11.3c2.5,0.6,2.1,2.7,2.2,4.4c0.2,3.6,0.1,7.3,0,10.9
			c-1.2,4.9-1.9,9.8-2.3,14.8c-2.7-1.3-0.7-4.1-2-6C341,311.5,340.7,309.3,338,310z"/>
		<path class="st19" d="M205.1,280.8l1.8,2c0.6,0.1,0.8,0.8,1.2,1.2c1,3.3,2,6.6,3,9.9c0.6,2.7,0.9,5.5,1.9,8.1l2.1,4.9
			c-0.2,2.6-1.7,1.8-3.1,1.1l-7.1-20.7C204.4,285.1,204.1,283,205.1,280.8z"/>
		<path class="st20" d="M239.9,200.2c-3-4-1.7-8.7-1.9-13c-0.3-6.7,0.7-13.5-1.3-20.2c-0.5-1.6-1.3-4.1,1.5-4.4s4.3,1.7,4.5,4.3
			c0.1,3,0,6-0.2,8.9l-0.6,0.4c-2.4-1.2-1.4-3.4-1.8-5.2c-0.1-0.6-0.3-1.3-0.5-1.9c-0.1,0.7,0.5,1.2,0.5,1.9c0,0.5,0.1,1,0.1,1.5
			c-0.2,2.6,1.7,4.8,1.1,7.4c0,0.5-0.1,1-0.3,1.6c-1.1,3.8-0.1,7.4,0.4,11.2c0.3,2.1,0.2,4.3-0.3,6.3
			C240.7,199.5,240.4,199.9,239.9,200.2z"/>
		<path class="st21" d="M240.9,227.3c-2.4-5.6-1.6-11.4-1.3-17.2c0.2-3.3,0.4-6.6,0.3-9.9c0.1-0.2,0.2-0.4,0.4-0.6
			c0.4,0,0.7,0.1,1,0.4c0.3,0.3,0.2,0.5-0.1,0.8c0.6-0.4,0.4,0.5,0.4-0.2s-0.4-1.5-0.5-2.3c-0.6-3.5-0.1-7-0.4-10.5
			c0-0.6,0-1.1,0-1.6c0.2-3.4-0.1-6.9,1.2-10.1c0.2-0.1,0.4-0.1,0.6-0.2c2.4,2.5,0.6,5.4,0.7,8.1c0.2,7.7-0.1,15.4,1.1,23.1
			c-0.4,0.3-0.7,0.5-1.1,0.8c-1.5,4.4-0.3,8.9-0.7,13.3C242.2,223.3,242.9,225.6,240.9,227.3z"/>
		<path class="st22" d="M445.7,310.9c2.4-2.1,1.4-5.6,3.6-8c2.4,5.1-0.7,9.5-1.3,14.2c0,0.5,0,1,0,1.5c-0.3,1.7,1.2,4.7-1.8,4.7
			c-2.7,0-3.4-2.8-3.3-5.2C443.1,315.4,443.3,312.7,445.7,310.9z"/>
		<path class="st23" d="M416,296c0.6-1,1.2-2,1.9-3c0.3-0.4,0.9-0.4,1.3-0.1c0.3,0.4,0.5,0.8,0.6,1.3c-0.2,0.9-0.1,1.9-0.8,2.7
			l-7,25.2c0.3,1.2-0.3,1.2-1.2,1c-1.5-2-0.7-4-0.3-6.1c0.4-1.9,1.3-3.8,0-5.6c-0.3-0.7-0.4-1.4-0.4-2.1c0.3-1.9,1.4-3.6,1.9-5.5
			C412.8,300.8,415.1,298.8,416,296z"/>
		<path class="st24" d="M411,323l1-1c2,1.6,0.6,3.3,0.2,4.9c-0.7,3.2-1.6,6.4-2.1,9.6c-0.4,2.4-0.7,5.3-3.3,5.2
			c-2.8-0.1-2.6-3.1-2.8-5.5c-0.5-6.8,2.4-12.9,3.3-19.4c0.5-0.2,1.1,0,1.4,0.5c1.5,5.1-1.9,9.7-1.5,14.6c-0.2,1.3-0.8,2.5-0.7,3.9
			c0.1,0.7,0.5,1,0.2,0.5s0.8-0.1,0.2-0.5s0.6-0.9,0.1-0.5C407.7,331.1,408.1,326.6,411,323z"/>
		<path class="st18" d="M316.1,333c-3.3,4.5-8.4,6-13.2,7.9c-0.2-1.2,0.4-2.4,1.5-2.9c6-3,10.2-8.4,16-11.7c3.3-1.6,5.5-5.2,9.5-5.7
			c0.8,3.6,1.5,0.1,2-0.1s1.1-1.3,2-0.8c0.4,0.3,0.5,0.7,0.5,1.2c0.1,0.9-0.4,1.7-1.3,1.9c-3,1.5-6.6,1.8-9.2,4.2
			c-0.5,2.8-1.8,4.6-5,4C317.7,330.9,316.5,331.8,316.1,333z"/>
		<path class="st12" d="M244.1,283l-0.1-2c1.2-1.5-0.1-3.5,0.9-5.1v0.1c1.5-3-0.1-6.3,1-9.3v-1.3c-1.1-1.6,0.7-3.9-1.3-5.2
			c-0.6-2.7-2.3-5.1-1.7-8.1c0.6-0.4,1.4-0.6,2.1-0.5c0.4,0,0.7,0.2,0.9,0.5c0.9,3.1-0.9,6.9,2.1,9.5c-0.2,2.9,1.9,5.6,1,8.6
			l0.1-0.1c-1.7,1.7,0.2,4.1-1.2,5.8c-1.2,1.2-0.6,2.7-0.9,4.1C245.7,280.6,247.6,284.5,244.1,283z"/>
		<path class="st2" d="M224.1,324c2.7,1.8,5.6,3.1,4.2,7.6c-0.4,1.4,0,4.3,3.8,5c4.8,1,1.5,4.9,0.9,7.6c-0.4,0.3-0.9,0.4-1.4,0.4
			c-5.1-2.6-4.8-8-6.3-12.4c-0.3-2.2-2-3.9-2.1-6.2C223.2,325.1,223.5,324.4,224.1,324z"/>
		<path class="st25" d="M536.6,324.1c9.6,4.8,11.7,13.1,10,22.8c-0.7,4-2,8-1.7,12.2c0.1,1.3-0.9,2.5-2.2,2.7c-0.1,0-0.1,0-0.2,0
			c-0.5-2.9-0.3-5.9,0.6-8.8l0,0c0.4-1.4,0.2-2.9,0.6-4.2c0.5-5.4,1.9-10.9-1.4-16C540.7,329.7,536,328.6,536.6,324.1z"/>
		<path class="st26" d="M541.8,259.1c2.6,0.8,1.6,2.6,0.9,4c-0.9,1.7-2.9,1.4-4,0.6c-4.8-3.3-8.1-1.1-10.9,2.7
			c-1.4,1.9-3.6,2.4-5.4,3.2c-2.9,1.2-5.2,3.5-6.4,6.4c-0.8,0.9-0.5,2.6-2,3s-1.8,2.2-2.9,3.2l-0.5-0.5c-1.1-3.4,2.3-4.4,3.6-6.5
			l-0.1-0.1c1.4-4.2,4.1-7.1,8.5-8.2c1.7-0.4,2.8-1.8,4-2.8c3.2-2.8,6.5-5.2,11.1-3.3C539.5,261.5,540.8,260.6,541.8,259.1z"/>
		<path class="st27" d="M523.9,322.2L500,319c-1.9-1.1-1.6-3.2-2-5c-0.4-3.7-2.7-7.4-0.1-11.1c0.3-0.3,0.9-0.3,1.2,0
			c0.1,0.1,0.1,0.1,0.1,0.2c-0.1,0.6-0.2,1.3-0.3,2c-1.3,9.3,1.8,13.4,11.1,14c6.9,0.5,13.6,2.7,20.7,2.5c1-0.1,2,0.4,2.6,1.2
			c-0.3,0.5-0.7,0.8-1.2,1c-1.3,0.4-2.6,0.4-3.9,0C526.7,323.6,525.2,323.1,523.9,322.2z"/>
		<path class="st28" d="M424.8,273.8c0.1-1-0.6-2.3,0.8-3c4.4-5.4,10.6-5.6,16.9-5.7c0.5,0.1,1,0.3,1.5,0.6c0.9,1.4,0.2,2.5-0.8,3.5
			c-1.7,0.6-3.4,0.2-5,0.1c-1.5-0.8-2.9-0.3-4.2,0.4c-2.9,0.2-3.9,2.9-5.9,4.3s-0.2,2.6,0,4c-1.2,1.1-1.5,3.1-3.3,3.6
			c-0.8,0.2-1.5-0.1-2-0.7C422.3,278.2,424.7,276.3,424.8,273.8z"/>
		<path class="st29" d="M123,389.8c6,0.7,11.6-0.1,15.9-4.9c-0.3-1.5,1.1-2.3,1.5-3.5c1.1-1.9,1.4-4.1,0.9-6.2
			c-0.7-3.1-0.2-6.4,1.4-9.1c0.4-0.3,0.9-0.3,1.3,0c0.2,4.1-0.3,8.2,0.2,12.3s-2.6,6.9-5.4,9.6l-1.7,1.2c-5.6,4.5-11.2,4.9-16.2,1.2
			C121.4,389.2,122.2,389.5,123,389.8z"/>
		<path class="st30" d="M543.1,353c0.4,2.9,0.2,5.9-0.6,8.8c-0.6,0.3-0.9,1.1-0.7,1.7c-3.8,5.6-5.5,12.7-11.9,16.4l0,0
			c-1.6,1.7-3.1,3.5-5.8,2.3c1.2-3.4,5.2-3.6,7.1-6.4C536.2,368.7,540.7,361.4,543.1,353z"/>
		<path class="st31" d="M192,193c1-3,2-6,3.1-9.1c1.3,2.8-0.1,5.5-0.9,8c-1,3.5-1.5,7.1-1.3,10.7c-0.7,5.1-0.7,10.3,0,15.4v-0.1
			c1.3,4.8,0.3,9.6,0.6,14.5c-1.5,1.3-1.9-0.1-2.4-1c-0.9-3.8,0.2-7.7-0.8-11.5c-0.6-1.5-0.9-3.1-0.6-4.7c0.2-2.6,0.1-5.2-0.4-7.7
			c1.3-2.3,0.8-5.1,2.1-7.5c0.9-0.7,0-1.3-0.2-1.9C192.1,196.6,190.9,194.6,192,193z"/>
		<path class="st2" d="M120.9,390c5.5,2,11,2.8,16.2-1c-1.9,3.3-4,6.2-8.5,4.7c-0.1,0-0.4,0.2-0.5,0.1c-3-1.4-2.9,2.6-4.8,2.8
			c-3.8,0.4-0.1-4.1-2.6-4.5s-5.8,1.1-6.7-3l0.5-0.5C116.7,388.1,119,388.7,120.9,390z"/>
		<path class="st32" d="M531.9,323.2l1.3-0.4c0.2-0.1,0.5,0,0.7,0.2c0,0,0,0,0,0.1c1.7,1.8,3.7,3.3,4.5,5.8
			c-0.2,1.5-1.1,2.7-2.4,3.4c-0.7,0.3-1.5,0.2-2-0.3c-0.4-0.6-0.8-1.1-1.1-1.7c-1.5-1.8-3.6-1.2-5.4-1.3s-3.7,0.1-4.9-1.6
			c-0.7-1.9,0.2-3.2,1.5-4.4l0,0c0.7-0.4,1.3,0,1.8,0.2C527.8,324,529.8,324.8,531.9,323.2z"/>
		<path class="st2" d="M102,380.1c0.2,0,0.4,0,0.7,0c1.5,1.4,2.8,2.8,4.3,4.2c0.4,0.9,0.8,1.7,1.9,1.8c1.6,1.2,4.5-0.1,5.3,2.7
			l-0.3,0.3c-2.2,0.2-4.4-1-6.8,0.2c-1.7,0.9-10.7-7.7-10.3-9.7c0.2-0.9,1.1-1.1,2-1C100.1,378.7,100.3,381,102,380.1z"/>
		<path class="st33" d="M409.1,282.3c1.9-5.6,3.3-11.4,4.2-17.3c0.2-1.1-0.1-2.5,1.5-2.8c1.1-0.1,1.6,1,2.1,1.8
			c-2,5.5-3.2,11.3-3.5,17.1c0.5,1.8-1.3,3.3-0.8,5.1c0,2,0,4.1,0,6.1c-0.1,0.5-0.5,0.9-1,0.9c-2-1.2-1.4-3.6-2.2-5.3
			C408.3,286.1,409.5,284.2,409.1,282.3z"/>
		<path class="st23" d="M541.8,259.1c0.1,2.4,0.8,5.2-3.3,2.8c-3.4-2-6.5-1.5-9.5,1.1c-2.7,2.5-5.8,4.4-9.1,5.8
			c-2.9,1.1-4,4.1-5.8,6.3c0.3-1.7,0.7-3.4,1-5c5.1-3.7,11.2-5.8,15.9-10.2c1.4-1.4,3.4-0.9,5.1-0.3s3.6,0.9,4.1-1.8L541.8,259.1z"
			/>
		<path class="st34" d="M201.2,264.9L200,265c-0.8,1.9-0.8,4.4-3.6,4.7c-2.9-0.1-5.7-0.6-8.3-1.7c-2-1-4-0.7-6.1-0.5
			c-1-0.1-1.9-0.7-2.3-1.7c0-0.5,0.2-1,0.6-1.3c2.4-1.2,4.9-0.7,7.3-0.6c0.5,0.1,0.9,0.2,1.4,0.3c1.7,0.5,3.4,0.8,5.1,0.8l1.2,0.1
			c2.5-0.8,0.3-2.8,1-4c0.3-1.3,0.2-2.7-0.3-4c-0.5-2.7-0.5-5.5,0.2-8.2c0.2-0.5,0.5-0.9,1-1.1C198,253.7,198.8,259.5,201.2,264.9z"
			/>
		<path class="st10" d="M522.9,327c1.6,1.6,3.7,0.8,5.5,1s3.6,0.3,4.4,2.3c-8-0.1-15.6-2.4-23.5-3c-2.5-0.2-4.8-1.4-6.6-3.2
			c4,1.1,8.1,1.8,12.2,1.9C517.7,325.3,520.5,324.7,522.9,327z"/>
		<path class="st18" d="M193,233l-0.1-15c1.7,0.7,1.9,1.7,1.5,3.5c-0.4,2.4-0.5,4.9-0.3,7.4c0,1.1,0.2,2.7,1.7,2.4
			c6.2-1.3,2.9,2.7,2.5,4.6c-0.3,1.4-2.4,2.3-2.3,4.2c-0.6,0.5-1.5,0.5-2.1,0.1c-1.2-1.5-1.3-3.3-1.6-5.1
			C192.2,234.3,192.5,233.6,193,233z"/>
		<path class="st35" d="M347.9,311l-0.9-0.9c-1.2-1.6-1-3.5-1-5.3c0-4.9,0-9.7,0-14.6c-0.4-3-0.5-6-0.4-9c0.3-1.7-0.3-3.9,2.3-4.2
			C349,288.3,349,299.7,347.9,311z"/>
		<path class="st36" d="M479.1,301.9h1.8c0.6,6.1-1.1,11.9-2.5,17.8c-0.9,1.6-0.9,3.4-1.1,5.1c-0.3,0.4-0.9,0.5-1.4,0.3
			c-1.4-1.5-0.6-3.4-1.2-5.1c-0.1-0.5-0.1-1,0.1-1.5c1.2-2.1,0.5-4.5,1.1-6.7C477.4,308.8,476.5,304.8,479.1,301.9z"/>
		<path class="st37" d="M481.9,393.4c1.1,0.9,2.1,0.3,3.1-0.3c0.9-1,2.2-0.8,3.2-0.6c3.6,0.8,7.4,0.8,11,0c0.9-0.4,2-0.1,2.7,0.6
			c2.5,1.9,5.1,2.6,8,0.8c0.6,0.7,0.7,1.4-0.3,1.9c-0.7,0.3-1.7,1.1-2.2,0.9c-8.5-3.8-17.5-0.9-26.2-2.1c-1.8-0.2-4.1,0.5-5.3-1.8
			C478,392.5,480,391.6,481.9,393.4z"/>
		<path class="st19" d="M267,173c0.1,0.2,0.2,0.5,0.1,0.8c0.9,7.7,0.1,15.4,0.4,23.1c-0.1,0.8,0.2,1.9-0.8,2c-1.3,0.3-1-1.4-1.8-1.9
			v0.1c-0.9-7.4-0.2-14.9-0.4-22.3C264.5,173.2,265.1,172.1,267,173z"/>
		<path class="st38" d="M196,274.2c2.3,1.4,5.5,1,7.2,3.5c0.3,0.4,0.2,0.9-0.1,1.2c-8.1-4.7-16.9-4.1-25.6-3.5
			c-1.8,0.1-3.6,0.8-5.4,0.5c-0.3-0.5-0.3-1.1,0.1-1.6c1.2-1.4,2.9-1.6,4.6-1.7c4-0.1,8,0,11.9-0.1c1.7-0.1,3.4,0,5.1,0.2
			C194.7,273,195.5,273.5,196,274.2z"/>
		<path class="st39" d="M477.8,320l3.1-18c-0.1-2.5,0.6-5,2-7.1c0.4-0.4,0.8-0.4,1.1,0.1c-2.3,9-2,18.6-5.9,27.2
			C477.4,321.7,477.3,320.7,477.8,320z"/>
		<path class="st5" d="M484.7,355.1c-0.6-0.2-0.9-0.5-0.6-1.1c0.6-1-0.6-3.1,1.8-3c0.2,0.1,0.3,0.4,0.2,0.6l0,0
			c1.5,1.8,3.4,3.3,5,5.1c1.5,1.2,3.2,2.3,4.9,3.1l0,0c0.8,1.6,4.5,3.2,0.2,5c-1.2-0.1-2.4-0.6-3.3-1.4
			C490,360.8,487.6,357.7,484.7,355.1z"/>
		<path class="st14" d="M244.2,370c0.2-3.7-4.4-3.3-5.1-6.2c0-1.3-0.1-2.5-0.1-3.8c3.2,0.1,2.1,3.6,3.8,4.8c0.2,0.6,0-0.1,0-0.1
			c-1.1-1.1-0.8-2.3-0.4-3.6c0.5-1.1,1-2.2,2.4-2.4c1.1,0.8,1.7,2.4,3.4,2.3c0,2,0,4,0,6C246.4,367.5,246.2,369.9,244.2,370z"/>
		<path class="st25" d="M509.6,395.9l0.3-1.9l5.1-4.7c2.5-2.4,5-4.8,8.3-6.1l0.7-1c2.3,0,3.8-1.7,5.8-2.3c-1,4.2-6.2,3.7-8,7
			c-0.9,0.8-1.6,1.9-3,2l-3,2c-0.1,0.5-0.5,0.9-1,1C512.8,392.8,512,395.4,509.6,395.9z"/>
		<path class="st40" d="M473.9,258.1c-5.5-0.3-9.5,2-12,6.9c-1.6,3.2-3.4,6.4-5.1,9.6c0,0.4-0.3,0.7-0.7,0.7l-0.5-0.3
			c1.3-7,5.3-13.2,11.2-17.2C469,256.2,471.6,256,473.9,258.1z"/>
		<path class="st41" d="M208.1,284l-1.2-1.2c0-2.4-0.4-4.5,2.3-6.4c2.3-1.6,0.7-4-1.1-5.8s-4.8-2.2-5.9-4.9c4.1,2.2,9.2,3.3,9.9,9.2
			c0.2,1.4,0.7,3-1,3.3C207.4,279,208.1,281.6,208.1,284z"/>
		<path class="st12" d="M224.1,326c0.7,2,2.8,3.4,2.2,5.9c-0.1,0.2-0.1,0.4-0.2,0.6c-0.8,1.5,1.1,4.7-2.6,4.3
			c-1.6-4.5-2.9-9.1-3.9-13.8c0.1-1-0.2-2.3,1.5-2l0.9,1.1C223.2,323.1,223.2,324.8,224.1,326z"/>
		<path class="st20" d="M240.9,227.3c0.1-6.4,0.1-12.9,0.2-19.3c0-0.9-0.3-2.1,1.1-2.3c0.3,0,0.6,1,1,1.5c0.1,7.1,0.8,14.2-0.3,21.2
			c-0.7,0.3-1.6,0.1-2.2-0.5C240.6,227.7,240.7,227.4,240.9,227.3z"/>
		<path class="st42" d="M391.1,279.2c1.7,7,2,14.2,1,21.4c0.3,1.1,0.7,2.3-1,2.6c-1.2-1-1.4-2.4-1.2-3.8c0.2-1.8,0.2-3.6-0.1-5.4
			c0.6-3.4,0.9-6.8-0.9-10c-0.7-2.9-1.2-5.7,0.8-8.4C392.2,275.9,391.5,277.6,391.1,279.2z"/>
		<path class="st43" d="M358,348c0-0.3,0.1-0.7,0.2-1c5.3,4.3,7.6,3.8,11-2.3c0.8-1.4,1.1-3.2,3.1-3.5c0.3,0.6,0.2,1.4-0.3,1.8
			c-0.3,0.9-0.7,1.8-1.2,2.7C365.9,353.4,365,354.6,358,348z"/>
		<path class="st35" d="M345,305c-0.9-5.3,0.6-10.8-0.9-16.1v0.1c-0.9-4.3-0.9-8.7,0-13c1.5-1.3,1-3.9,3-5c0.7,0.8,1,1.8,0.7,2.9
			c-2.3,4.7-2,9.6-1.3,14.5c0,0.8,0,1.6,0,2.4c0,4.6,0.1,9.1-0.1,13.7c-0.1,0.5-0.6,0.8-1.1,0.6C345.2,305.1,345.1,305.1,345,305z"
			/>
		<path class="st4" d="M358,342c-3.3-2.2-5.2-5.5-6.9-9c-1.4-1.4,0.2-3.5-1.1-5c0-0.7,0-1.4,0-2.1c-0.7-0.9-0.6-2.2,0.2-3
			c2.2,2.9,1.9,6.5,2.8,9.8c0.5,1.9,1.5,4,2.9,4.2C359.7,337.6,358.8,339.6,358,342z"/>
		<path class="st21" d="M240.7,227.9h2.1c1,0.3,0.4,1.6,1.3,2l0,0c0.7,2.5,1,5,0.9,7.5c0.1,2.4-0.2,4.8,0.2,7.2
			c-0.1,2.4,0.6,4.9-0.2,7.4c-0.7,1.1-1.4,0-2.1,0c-0.2-0.2-0.2-0.5,0-0.8c-0.6-6.7-0.5-13.4-1.4-20.1c-0.1-0.8,0.2-1.7-0.9-2
			C240,228.7,239.8,228.3,240.7,227.9z"/>
		<path class="st44" d="M475.9,265.3c4.6,2.4,6.7,6,6.3,11.3c-0.4,5.9,0.3,11.9-2.1,17.6c-0.7-0.6-0.8-1.7-0.2-2.5
			c0.3-4,0.5-7.9,1-11.9c0.7-5.5-0.3-10.2-5-13.6c-0.3-0.2-0.3-0.5-0.2-0.7S475.8,265.3,475.9,265.3z"/>
		<path class="st42" d="M382,330.1c4.2-3.3,6.6-8.4,6.3-13.7c-0.1-1.4,0.6-2.6,1.7-3.3c-0.4,4.5-0.7,9.1-1.2,13.6
			c-0.4,3.2-4.2,1.9-5.5,3.9C382.8,330.7,382.3,330.5,382,330.1z"/>
		<path class="st17" d="M534,363.1c4.6-7.4,2.9-16.1,4.8-24.1l0.8-0.3c0.5,0.2,0.9,0.7,1.1,1.2c0.2,4.6-1.7,9.1-1.3,13.8
			c-1.3,1.8-0.3,4.3-1.6,6.2v-0.1C536.9,361.3,536.2,363.2,534,363.1z"/>
		<path class="st45" d="M332,270.1c0,0.4-0.1,0.8-0.1,1.2c-4-0.3-4-4.9-6.8-6.5c-2.1-1.8-3.4-4.2-3.9-6.9c-0.1-0.8,0.3-1.5,0.9-2
			l2.8,2.2c1.1,1.2,2.1,2.6,3.1,3.9L332,270.1z"/>
		<path class="st46" d="M276.8,265.9c0.9-3.2,3.6-4.5,6.1-6c0.3-0.3,0.8-0.4,1.2-0.1c0.5,1.6-0.7,2.2-1.6,3.1
			c-1.7,1.6,1.2,0.3,0.8,1.2c0.2,4.1-3.5,5.6-5.5,8.3c-0.8,0.9-1.8,1.6-2.8,2.1c-0.7,0.2-1.4,0.1-2-0.3c-0.6-2.2,1-3.4,2.2-4.7
			c0.8-0.7,1.7-1.3,2-2.4C277,266.7,276.9,266.3,276.8,265.9z"/>
		<path class="st47" d="M437.9,268.1c1.5,1.2,3.4,0.4,5.1,1c1.5,0.2,2.3,1.2,3.2,2.3c0.2,0.4,0.4,0.8,0.5,1.3
			c0.1,0.7-0.2,1.4-0.9,1.7c-5.3-5.1-9.2-5.4-15.6-1c-0.7,0.3-1.4,0.6-2.2,0.7c1.1-2.7,2.4-5.2,5.9-5.1
			C435.2,268.6,436.4,267.7,437.9,268.1z"/>
		<path class="st38" d="M411,293h0.9c1.1,3.6,0.4,7.3,0,10.9c-0.1,0.5-0.4,0.9-0.7,1.3c-2.8,2.5-0.5,5.3-0.6,8
			c-0.1,0.5-0.3,0.9-0.7,1.2c-0.7,0.3-1.5,0.2-2-0.3c-0.2-4.4-0.6-8.8,0.8-13c1.6-1.9,0.1-4.3,1.1-6.2l-0.1-1.6
			c0.3-0.4,0.8-0.4,1.1-0.2C410.9,292.9,411,293,411,293z"/>
		<path class="st48" d="M212,308c1.2,0,2.4,0.1,3.1-1.1c1.4,3.7,2.8,7.3,4.2,11c-0.2,0.7-0.7,1.2-1.4,1.4
			C214.3,316.4,214.2,311.6,212,308z"/>
		<path class="st49" d="M329.8,320.7l-8.7,6.5c-0.8-0.6-1.1-1.7-0.8-2.7c0.8-2.5,3.4-3.3,4.8-5.3c1-1.1,2.1-2.1,3.7-2
			c0.5,0.1,0.9,0.4,1.2,0.8L329.8,320.7z"/>
		<path class="st50" d="M232,344.1c0.3-0.1,0.7-0.1,1,0c0.6,0.7,1.1,1.3,1.7,2c0.8,2.3,3.7,3.4,3.5,6.3c0.2,1,1,2.3-0.9,2.5
			c-1.4-3.5-4.2-5.7-6.9-8.1c-0.6-0.2-0.9-0.9-0.8-1.5C230,344.3,231.3,344.8,232,344.1z"/>
		<path class="st13" d="M232,344.1c-0.1,2-1.5,0.9-2.4,1c-1.4-0.1-1.9-1.3-2.6-2.2l-1.3-2c-0.9-0.9-1.6-1.9-1.1-3.2
			c1.6-1.6,0.4-3.7,1-5.5c0.2-0.1,0.4-0.3,0.6-0.4C228.2,335.9,228,341,232,344.1z"/>
		<path class="st51" d="M265,224c2.3,5.9,0.8,12,0.9,18c0,2.6,1.1,5.6-1.1,8C264.9,241.3,264.9,232.7,265,224z"/>
		<path class="st25" d="M529.9,379.9c5.1-4.6,7.2-11.4,11.9-16.4C539.1,369.9,537.6,377.2,529.9,379.9z"/>
		<path class="st15" d="M350,271.9l-1,1.1c-1.9,0-1.5-1.1-1.1-2.2c0-3,2-5.2,2.8-7.9c1.7-0.9,0.6-3.9,3.1-4c0.4,0.3,0.7,0.6,0.9,1.1
			c0.3,3.1-1.6,5.5-2.6,8.3l0,0C350.8,269,350.8,270.7,350,271.9z"/>
		<path class="st13" d="M237.2,355c0.7-0.7,1-1.6,0.9-2.5l3.1,4.5c0.8,1.3,2.3,2.2,2,4c-0.1,1.4-0.2,2.8-0.4,4.3
			c-2.9-0.7-2.1-3.9-3.9-5.2L237.2,355z"/>
		<path class="st52" d="M244.1,230c-0.9-0.4-1.1-1.2-1.3-2c-0.6-6.9-0.5-13.9,0.3-20.8h1l-0.2,8.9L244.1,230z"/>
		<path class="st53" d="M384.9,276.2c-2.1-1.6-1.4-4.5-2.8-6.4c0.3-2.2-0.4-5.7,2.3-5.9c3.1-0.2,4,3.3,4.8,6l-0.6,0.4
			c-1.2,0.1-1.8-1.2-3-1.2c-1,2,0.6,4,0.1,6C385.6,275.5,385.3,275.9,384.9,276.2z"/>
		<path class="st54" d="M474.9,386l1.1-0.3c4.5,3.1,9.5,2.2,14.4,1.8c1.9-0.2,3.8-1.2,5.5,0.5c-6.7,2.1-13.4,1.2-20.1,0
			C475.2,387.5,474.4,387.1,474.9,386z"/>
		<path class="st55" d="M267,173c-2.8,0.5-1.9,2.7-1.9,4.3c-0.1,6.6-0.1,13.2-0.1,19.8c-2.1-4.8-0.6-9.8-1-14.6
			c-0.3-3.8,0-7.6,0-11.4c1.5-1.2,2.2,0.1,3,1V173z"/>
		<path class="st56" d="M268.2,226.2V215c1-2.3-0.1-4.8,0.7-7.1c0.5-2.1-1.5-4-0.7-6.2c1.7,0.3,1.9,1.6,1.9,2.9
			C270.1,211.9,269.4,219.1,268.2,226.2z"/>
		<path class="st57" d="M224.9,338.1l0.9,2.9c-5.3-4.8-5.2-11.7-6.7-17.9c0.4-0.6,0.7-0.6,0.9,0.1l4.2,13.8
			C224.6,337.2,224.8,337.6,224.9,338.1z"/>
		<path class="st58" d="M475.9,265.3c0,0.3,0,0.7-0.1,1c-7-2.6-9.9,3.1-13.8,6.9l-0.4-1.2c1.7-2.3,3.5-4.6,5.5-6.7
			C469.9,262.6,473,264.5,475.9,265.3z"/>
		<path class="st59" d="M475.2,320c1.3,1.5,0.5,3.4,0.8,5c0.8,2,0.2,4,0,5.9c0,0.6,0,1.1,0,1.7c0,1.6,1.7,3,0.4,4.6
			c-2.5,0.2-3-1.4-3.1-3.3c0-2.3,0-4.5,0-6.8C473.7,324.8,474.3,322.3,475.2,320z"/>
		<path class="st52" d="M240.6,229.2c2.6,2.4,1.9,5.8,2.2,8.7c0.5,4.4,0.1,8.9,0,13.4C241,244,241.9,236.5,240.6,229.2z"/>
		<path class="st46" d="M483.8,289.9c0.9-5-0.8-10.1,1.2-15c1.6,6.5,0.6,12.9-0.9,19.3C483.1,292.8,483.4,291.4,483.8,289.9z"/>
		<path class="st36" d="M474,327c0,2.2,0,4.3,0,6.5c0,1.9,0.6,3.3,2.7,3.5c1.4,0.9,2.2,2.5,2,4.2c-0.1,0.5-0.4,0.9-0.7,1.2
			c-0.7,0.4-1.5,0.3-2-0.3c-3.8-4.4-3.7-9.7-3.1-15C473.2,326.5,473.6,326.5,474,327z"/>
		<path class="st23" d="M513.9,266.9c0,0.4,0.1,0.8,0.2,1.1c-5.6,3.6-8.3,9.3-11.2,14.9C503.7,275.7,507.5,270.4,513.9,266.9z"/>
		<path class="st60" d="M423.1,280.9h1.7c1,1,0.8,1.9,0.1,2.9l-1,2.1c-0.6,2.2-0.8,4.5-2.3,6.3c-0.9,0.6-1.1,2.2-2.6,1.7
			c0-0.4,0-0.7,0-1.1C418,288.1,422.1,285,423.1,280.9z"/>
		<path class="st61" d="M177,139.1c-4.3-2-6.6-0.4-7.3,4.1c-0.1,1.2-0.7,2.2-1.7,2.9c-0.6-2.8,0-5.6,1.5-8
			C172,133.9,174.7,137,177,139.1z"/>
		<path class="st62" d="M525.8,374.8c-3.8,5-8.2,9.5-14.1,12.1C516.1,382.5,520.4,377.9,525.8,374.8z"/>
		<path class="st63" d="M345,305h1.1c0.2-0.4,0.5-0.5,0.8-0.1c0,1.8,0,3.5,0,5.2c-2.9,2.1-1.7,5.1-1.7,7.7c0,1.4,1,2.8,0.6,4.4
			c-0.6-1.1-1.2-2.1-1.8-3.2C344.2,314.3,344.1,309.6,345,305z"/>
		<path class="st59" d="M485.9,351l-1.8,3l-1.3-1.8c-0.4-1.6-2-2.5-2.4-4.1c-1.2-1.9-3.4-3.3-2.4-6.1l0,0c0.5-0.6,1.3-0.6,1.8-0.2
			c0.1,0,0.1,0.1,0.2,0.2c0.2,0.1,0.3,0.4,0.2,0.7c2.3,2.2,3.7,5,5.6,7.4L485.9,351z"/>
		<path class="st64" d="M504.8,290l2.1-4.1c1.4-1.2,1.5-3.8,3.9-4.1l0.3,0.3c-0.6,4.2-2.2,7.8-6.3,9.8
			C504.4,291.4,504.4,290.6,504.8,290z"/>
		<path class="st55" d="M267,198c0-8.1,0-16.2,0.1-24.2c2.2,2.8,0.8,6,1,9c0.3,5.1,0,10.1,0,15.2C267.8,198.5,267.4,198.5,267,198z"
			/>
		<path class="st65" d="M493,362.8l2.6,1.4c1.4,0.9,3.3,0.5,4.1-0.9c0-0.1,0.1-0.1,0.1-0.2c3.2,1.1,2.1,3.4,1,5s-2.7,0.1-3.8-0.7
			c-1.8-1.4-3.4-3-5.1-4.5c0.2-0.3,0.6-0.4,0.9-0.2C492.9,362.7,493,362.8,493,362.8z"/>
		<path class="st66" d="M504.8,290v2c-3.1,3.1-2.3,8.1-5.6,11.2l-1.4-0.2C500.6,298.8,500.6,293.2,504.8,290z"/>
		<path class="st39" d="M479.9,291.8c0.1,0.8,0.2,1.6,0.2,2.5c0.3,2.6-1.6,5-1,7.7c-1.5,3.2-1,7.1-3.2,10
			C476.7,305.1,478,298.4,479.9,291.8z"/>
		<path class="st67" d="M319,331c2.9,0.3,3-3.1,5-4c3.5,3.7-1.5,4.8-2.2,7.5C320.7,333.2,319.8,332.1,319,331z"/>
		<path class="st17" d="M460.8,381.5l4.9,4.6c0.4,0.1,0.6,0.3,0.5,0.5s-0.2,0.4-0.3,0.4c-4.5-0.3-6.2-4.3-9-6.9l0.3-0.4
			C459,379.1,460,380.1,460.8,381.5z"/>
		<path class="st68" d="M298.9,250.8c4.5-2.3,8.5-1.2,12.1,2.1c0.1,0.2,0.2,0.4,0.4,0.6c-0.2,0.5-0.5,0.8-1,1
			c-3.7-1.3-7.5-2.1-11.4-2.4C298.7,251.8,298.6,251.2,298.9,250.8z"/>
		<path class="st69" d="M151,292c-1.6,0.9-0.4,3.2-2,4c-1.5-1.5-1.2-3.3-0.9-5.2c0.3-1,0.7-1.9,1.2-2.7c1.6-1.9,3-4.2,5.9-4.6
			c0.5,0.1,0.8,0.4,0.9,0.9C154.8,287.1,150.5,287.9,151,292z"/>
		<path class="st66" d="M499.9,289.9c1.2,5.4-2.5,9.2-4.7,13.4c-0.7-0.4-0.8-0.8-0.3-1.4L499.9,289.9z"/>
		<path class="st44" d="M537.8,329.1c-1.3-2-2.6-4-3.9-6l2.7,1c1.2,3.3,4.4,5.1,6.3,8c0.3,0.1,0.4,0.4,0.3,0.7
			c-0.1,0.3-0.2,0.4-0.2,0.4c-2.1,0.3-3.1-1.4-4.6-2.4C537.9,330.3,537.7,329.7,537.8,329.1z"/>
		<path class="st67" d="M243.4,380.6c-2,0.2-4.1,1.3-5.2-1.2c-0.4-0.7-0.2-1.6,0.5-2c0.2-0.1,0.4-0.2,0.6-0.2
			C241.5,377.1,242.9,378.2,243.4,380.6z"/>
		<path class="st55" d="M372,343c0.1-0.6,0.1-1.3,0.2-1.9c2-2.2,3.2-5.5,6.6-6.3c0.4,0.2,0.6,0.7,0.4,1.1c0,0.1-0.1,0.1-0.1,0.2
			C376.5,338.2,375.2,341.6,372,343z"/>
		<path class="st47" d="M100.1,373.9l-0.2,1.5c-3.4-5.7-2.5-11.6-1-17.6c0.4,0.2,0.6,0.7,0.4,1.2c0,0.1-0.1,0.1-0.1,0.2v4.7
			c1.5,2.7,1.2,5.7,1.3,8.6C100.5,373,100.4,373.5,100.1,373.9z"/>
		<path class="st38" d="M350.1,323c-0.1,1-0.1,2-0.2,3c-1.6-4.5-3.7-9-2-14L350.1,323z"/>
		<path class="st33" d="M311.1,253.9v-1c4.1-0.4,7.9-0.1,11,3c0,0.7-0.1,1.4-0.1,2.1C318.2,257.1,314.5,255.7,311.1,253.9z"/>
		<path class="st52" d="M345.9,288c-1.6-4.7-1.2-9.8,1-14.1c0.9,0.4,0.5,1.6,1.2,2.1l-0.1,1c-1.5,1.1-0.8,2.7-1.1,4.1
			C345.7,283.3,347.3,285.9,345.9,288z"/>
		<path class="st70" d="M284.1,260.2l-1.2-0.2l12-7.1l0.4,0.5c0,0.9-0.4,1.8-1.2,2.4c-2.4,2.4-5.4,4-8.7,4.7
			C284.9,260.5,284.5,260.4,284.1,260.2z"/>
		<path class="st57" d="M446,266l1-0.1c2.4,3,4.8,6,5.1,10l-0.6,0.3c-1.9-0.7-2.2-2.7-3.4-4C446.7,270.4,445,268.6,446,266z"/>
		<path class="st58" d="M391.1,279.2c-0.3-1.3,0-2.9-1.9-3.3c-2.6-1.6-2.3-3.5-0.6-5.6c0.2-0.1,0.4-0.3,0.6-0.4
			C391,272.7,392.5,275.6,391.1,279.2z"/>
		<path class="st18" d="M193,218.1c-1.7-5-1.7-10.4,0-15.4V218.1z"/>
		<path class="st22" d="M448.9,299h-1.1c-2.1-4.5-0.2-9.3-1-13.9c-0.4-0.6-0.3-1.1,0.4-1.4c2.7,1.3,2.1,3.9,2.1,6
			C449.3,292.9,450.1,296,448.9,299z"/>
		<path class="st23" d="M522.8,260.8c-2.3,3-4.5,6.3-9,6.2C516.5,264.4,519.5,262.4,522.8,260.8z"/>
		<path class="st44" d="M484.8,274c-2.5-3.3-3.7-7.2-4.7-11.2C483.6,265.8,484,270,484.8,274z"/>
		<path class="st7" d="M479.9,342h-2c0.3-1.9-0.8-3.4-1.3-5.1c-0.3-1.4-1-2.8-0.6-4.2C477.6,335.7,479.8,338.4,479.9,342z"/>
		<path class="st71" d="M267,198h1l-0.1,3c-2,1.5,0.3,4.5-2,5.9c-0.3-3.3-0.7-6.6-1-9.9C265.9,196.9,265.7,199.1,267,198z"/>
		<path class="st72" d="M493,362.8l-1,0.1c-2.9-2.1-5.4-4.8-7.3-7.9C488.5,356.5,490.2,360.3,493,362.8z"/>
		<path class="st73" d="M169,277c-2.3,1.9-5,3.3-7.9,4.1c-0.4-0.3-0.6-0.7-0.6-1.2c0.2-1.2,1-2.1,2.1-2.5c1.2-0.3,2.4-0.8,3.5-1.4
			l0.6-0.3c0.4-0.1,0.8-0.2,1.2-0.1C168.5,275.8,168.9,276.4,169,277z"/>
		<path class="st74" d="M485.8,350c-3.2-1.4-4.3-4.5-5.6-7.4C483.1,344,485.2,346.8,485.8,350z"/>
		<path class="st17" d="M533.9,332l1.8,0.1l0.7,0.1c2.4,1.6,4,3.5,2.6,6.6l-0.3,0.2C537.9,336.2,533.9,335.5,533.9,332z"/>
		<path class="st42" d="M391,303c0.8-0.6,1.2-1.5,1.1-2.5c1.2,3.9-0.4,7-3,9.7l-0.3-1.4C389.5,306.9,388,304.1,391,303z"/>
		<path class="st57" d="M452,275.9c1.9,2.7,2.6,0.5,3.5-0.8c0.1,0.1,0.3,0,0.4-0.1c0.5,1,0.6,2.2,0.1,3.3c-0.9,1.5-1.5,3.9-3.8,2.9
			s-1.9-3.1-0.6-5L452,275.9z"/>
		<path class="st75" d="M269.2,235.7c-0.1,0.5-0.2,1-0.3,1.5c-1.7-3.4-0.5-6.9-0.7-10.4C270.3,229.5,269.8,232.6,269.2,235.7z"/>
		<path class="st62" d="M499.9,363.1c-0.3,4.7-2.3,2.8-4.2,1.1c3.8-1.1,0-2.9,0.4-4.3C498.1,360,498.2,362.4,499.9,363.1z"/>
		<path class="st38" d="M346.9,325c1.4,3.9,2.1,8,2,12.1C347.2,333.3,346.5,329.2,346.9,325z"/>
		<path class="st76" d="M481.9,393.4l-5.8-0.5l-4.2-2.8C475.4,390.2,478.9,391.3,481.9,393.4z"/>
		<path class="st66" d="M498,314c1.3,1.4,1.6,3.2,2,5h-1c-2.3,0.4-1.7-2.5-3.3-2.9c-0.9-0.5-0.8-1.3-0.7-2.1
			C496,313.7,497,315.1,498,314z"/>
		<path class="st34" d="M330,318l-1.2-0.1c-1-2,0.2-3.3,1.5-4.5c0.8-0.7,1.9-0.8,2.8-0.4c0.5,0.6,0.4,1.5-0.2,2
			C332,316,331.9,317.8,330,318z"/>
		<path class="st77" d="M332.9,314.9l-0.1-2c0-2.4,1.3-3.7,3.6-3.9l0.5,1.9C336.5,313.1,334.4,313.7,332.9,314.9z"/>
		<path class="st18" d="M344.1,276c0,4.3,0,8.7,0,13C342.3,284.9,342.3,280.1,344.1,276z"/>
		<path class="st78" d="M379.1,336.1c-0.1-0.4-0.2-0.9-0.3-1.3l3.2-4.8l1.2,0.4C382.6,332.9,381.6,335,379.1,336.1z"/>
		<path class="st10" d="M420.9,292l3-6c0.8,3.3-0.6,5.8-2.9,8C420.4,293.5,420.4,292.6,420.9,292z"/>
		<path class="st79" d="M351.9,256.9c1-1.5,2.4-1.2,3.1-0.1c1.2,1.9,1.8,4.1-0.1,6.1c-1-1.2,0-2.8-0.8-4.1l0,0
			C353.2,258.5,352.4,257.8,351.9,256.9z"/>
		<path class="st52" d="M351.9,256.9c1.2,0.1,2.3,0.4,2.2,2c-1.7,0.9-1.3,3.5-3.4,4L351.9,256.9z"/>
		<path class="st52" d="M354.1,258.9c1.6,1.1,0.6,2.7,0.8,4.1c-0.9,1.7-1,3.9-2.8,5.2C352.1,264.9,354.4,262.2,354.1,258.9z"/>
		<path class="st80" d="M194.2,239.6l1.8,0.5c0.4,2.6,0.9,5.2,1.3,7.8h-0.5C193.4,246,193.1,243,194.2,239.6z"/>
		<path class="st10" d="M424.9,283.9c0-1,0-2-0.1-2.9c0.9-1.1,1.1-2.9,3.1-2.9C428.2,280.6,426.3,282.1,424.9,283.9z"/>
		<path class="st27" d="M495.6,316.1c1.9,0,2,2.1,3.3,2.9c0.5,1.4,2.2,2.2,2,3.9C498.1,321.5,496.8,318.9,495.6,316.1z"/>
		<path class="st76" d="M465.8,387c0-0.3,0-0.6-0.2-0.9c2.7-0.1,5.2,1.5,6.2,4l-1.8-0.2C468.4,389.4,466.8,388.8,465.8,387
			L465.8,387z"/>
		<path class="st38" d="M219.9,323.2l-0.9-0.1c-0.8-1.1-1.2-2.4-1.1-3.8l1.4-1.4c1.1,0.7,1.7,1.8,1.8,3.1
			C220.1,321.4,220.1,322.3,219.9,323.2z"/>
		<path class="st30" d="M534,363.1l3.8-3.3c-0.1,3.2-2.7,4.5-4.8,6.1C533.3,365,533.7,364.1,534,363.1z"/>
		<path class="st72" d="M490.9,357.1c-1.9-1.6-4.1-2.9-4.8-5.5c3,0.6,4.1,3.4,6,5.2c-0.2,0.4-0.6,0.6-1,0.4
			C491,357.2,491,357.2,490.9,357.1z"/>
		<path class="st41" d="M203.1,278.9c0.1-0.4,0.1-0.8,0.1-1.2c1,0.7,1.7,1.9,1.9,3.1c-0.1,2.2-0.1,4.3-0.2,6.5
			C204.3,284.5,203.7,281.7,203.1,278.9z"/>
		<path class="st7" d="M478,342c0.1,2.5,2,4,2.9,6c-0.4,0.5-0.7,0.6-1.2,0.1c-1.7-1.7-3-3.8-3.8-6.1H478z"/>
		<path class="st55" d="M245.9,266.7c-0.2,3.1,1.2,6.4-1,9.3c0-2,0.1-4,0.1-6C245.3,268.9,245.6,267.8,245.9,266.7z"/>
		<path class="st47" d="M447.2,284c-0.1,0.4-0.2,0.8-0.4,1.2c-1.5-2.9-0.8-6.1-0.9-9.2c0.5-0.3,1.2-0.2,1.5,0.4l0,0
			C448.5,279,448.8,281.5,447.2,284z"/>
		<path class="st20" d="M474,327h-1c0.5-2.8,0.5-5.7,1.9-8.4l0.5,1.4C474.8,322.4,474.4,324.7,474,327z"/>
		<path class="st81" d="M447,276h-1l-0.2-1.6c0.1-0.8,0.1-1.6,0.2-2.4c2.8-1.2,2.6,1.4,3.4,2.7c0.1,0.5,0,1-0.3,1.5
			C448.5,276.6,447.6,276.6,447,276z"/>
		<path class="st71" d="M266,207c-0.4,3,1.5,6.3-1.3,8.9C265.3,213,264.2,209.8,266,207z"/>
		<path class="st82" d="M160.9,279.9c0.1,0.4,0.1,0.7,0.2,1.1c-1.3,1.6-3.1,2.7-5,3.3c0.1-0.2,0.1-0.4,0-0.7c-0.2-0.4-0.2-0.9,0-1.3
			c0.7-1.2,1.7-2.2,3-2.8C159.7,279.3,160.4,279.5,160.9,279.9z"/>
		<path class="st24" d="M213,302c-1.9-2.4-2.2-5.2-1.9-8.1C212.4,296.4,213.1,299.2,213,302z"/>
		<path class="st83" d="M411,293l-1.2,0.1c-0.2-1.7-0.4-3.4-0.6-5.1C410.5,289.3,411.1,291.2,411,293z"/>
		<path class="st17" d="M518.9,389c0.4-1.3,1.7-2.1,3-2C521,387.7,522.6,392.2,518.9,389z"/>
		<path class="st62" d="M490.9,357.1l1.2-0.3c1.6,0.5,3,1.6,3.9,3C494,359.9,492.1,358.8,490.9,357.1z"/>
		<path class="st2" d="M135.3,397.8c-2.2,1.4-3-0.2-4.2-0.1C132.3,396.6,133.4,397,135.3,397.8z"/>
		<path class="st32" d="M99.2,359.1l-0.2-1.3c0.1-1.6,1.6-2.9,1.2-4.7c0.3,0,0.6-0.1,0.8-0.2C101.7,355.3,100.6,357.2,99.2,359.1z"
			/>
		<path class="st20" d="M476.1,331c-1.1-2,0.2-4,0-5.9l0.7-0.3c0.5,0.2,0.7,0.8,0.5,1.3c0,0.1-0.1,0.2-0.2,0.2
			C477.2,328,476.9,329.6,476.1,331z"/>
		<path class="st17" d="M465.9,387.1c1.5,0.9,3.2,1.3,4.2,2.8C468.1,389.8,465.7,390.4,465.9,387.1z"/>
		<path class="st74" d="M348.1,276c-0.8-0.4-1.2-1.3-1.2-2.1c0-0.9,0.1-1.9,0.1-2.8c0.2-0.2,0.5-0.3,0.8-0.3l1.1,2.2
			C349.6,274.2,348.9,275.2,348.1,276z"/>
		<path class="st17" d="M514.9,392l1-1c0.9,0.1,1.6,0.3,1.2,1.4c-0.2,0.6-0.6,1.4-1.3,1.1C515.4,393.3,515.2,392.5,514.9,392z"/>
		<path class="st60" d="M270.9,273v-1.1c0.8-1.2,1.6-2.4,3-2.9c0.2,0.2,0.3,0.4,0.5,0.5C274.2,271.6,273.4,273.1,270.9,273z"/>
		<path class="st84" d="M267.1,172l-3-1c-0.1-0.8-0.1-1.8,1-1.7C266.5,169.4,267.2,170.5,267.1,172z"/>
		<path class="st30" d="M494.9,301.9c0.1,0.5,0.2,0.9,0.3,1.4c-0.6,1.5,0.5,3.5-1.3,4.7C493.5,305.8,493.3,303.7,494.9,301.9z"/>
		<path class="st85" d="M408,314h2c0.5,1.8-0.5,2.6-2,3.1c-0.2-0.1-0.5-0.2-0.8-0.2C406.9,315.9,407.2,314.7,408,314z"/>
		<path class="st60" d="M276.8,265.9l1.2,0.2c0.4,1.6-1.1,2.2-1.9,3.1c-0.6,0.3-1.3,0.3-1.9,0.1l-0.4-0.4
			C274.4,267.5,275.5,266.5,276.8,265.9z"/>
		<path class="st20" d="M477.1,326.4c-0.1-0.5-0.2-1-0.3-1.6c0.4-1.6-0.4-3.5,1-4.9c0.1,0.8,0.2,1.5,0.3,2.3
			C478.2,323.7,477.9,325.2,477.1,326.4z"/>
		<path class="st83" d="M409.9,294.7c-0.2,2.1,1.1,4.5-1.1,6.2C408.6,298.8,408.6,296.6,409.9,294.7z"/>
		<path class="st20" d="M169,277l-1.1-0.5c-0.7-1,0-1.5,0.7-2.1c1.1-0.5,2.4-0.3,3.3,0.6c0,0.3,0,0.7,0.1,1L169,277z"/>
		<path class="st20" d="M420.9,292v2c-0.3,1.2-1,2.2-2,2.8V294C419.6,293.4,420.3,292.7,420.9,292z"/>
		<path class="st86" d="M328,262c-1.6-0.7-2.8-2.1-3.2-3.8C326.6,258.8,327.9,259.9,328,262z"/>
		<path class="st57" d="M227,343l2.6,2.2l0.7,1.7C228.4,346.5,227,344.9,227,343z"/>
		<path class="st74" d="M479.7,348.1l1.2-0.1c0.7,1.4,2.5,2.2,1.9,4.2C481.6,350.9,480.1,350,479.7,348.1z"/>
		<path class="st64" d="M513.9,279l2-3C515.7,277.3,516.6,279.4,513.9,279z"/>
		<path class="st70" d="M298.9,250.8c0,0.4,0.1,0.8,0.1,1.2l-0.4,0.5c-1.1,0.8-2.1,1.5-3.5,0.6l-0.3-0.4
			C295.7,251.5,297.3,250.7,298.9,250.8z"/>
		<path class="st51" d="M264.9,218.8l0.1,5.2C263.8,222.3,264.1,220.5,264.9,218.8z"/>
		<path class="st62" d="M528.9,372c-0.1,2-1.1,3-3.2,2.8C526.3,373.4,527.5,372.4,528.9,372z"/>
		<path class="st38" d="M224.1,326c-1.2-0.9-2-2.4-2.1-3.9c1.2,0.1,1.5,1.2,2.1,1.9V326z"/>
		<path class="st48" d="M244.6,260.1c2.4,1.2,1.1,3.4,1.3,5.2C244.7,263.8,245.1,261.9,244.6,260.1z"/>
		<path class="st18" d="M336.9,278.1c-1.1-1.2-1-2.7-1.1-4.1C337.6,275,337.8,276.4,336.9,278.1z"/>
		<path class="st87" d="M483.8,289.9c0.1,1.5,0.2,2.9,0.3,4.4c0.2,0.2,0.2,0.5,0,0.7c0,0-0.1,0-0.1,0.1l-1.1-0.1
			C483.2,293.2,482.5,291.4,483.8,289.9z"/>
		<path class="st17" d="M520.3,396.4c0.7-0.1,1.2,0.1,1.1,0.6c-0.1,0.3-0.6,0.6-1,0.8c-0.2,0.1-0.5-0.2-0.8-0.4L520.3,396.4z"/>
		<path class="st74" d="M350,271.9c-0.2-1.8,0.2-3.2,2.2-3.8C351.9,269.6,351.5,271.1,350,271.9z"/>
		<path class="st88" d="M187,176c-2.8-0.7-2.9-3.3-3.8-5.4c-0.5-1.2-0.6-2.6-1.2-3.8c-1-1.8-1.5-4.8-4.1-4.3
			c-2.9,0.6-1.4,3.6-1.8,5.5c-2.4,12.8-0.9,26.2-5.6,38.7c-0.9,2.4,1.5,6-2.6,7.1c-2-2.1,0.9-4,0.3-6.1c2.4-8.6,4.6-17.2,4.1-26.3
			c-0.2-4.2,1.3-8.4,2.2-12.6c0.2-1.1,0.8-2.2,0.2-3.4c-1.2-2.4,0.2-4.1,1.9-4.9c2.1-1,4.1,0.5,5,2.2C183.8,167,186.6,171.1,187,176
			z"/>
		<path class="st46" d="M168.2,207.8c1.5,2.1-1.4,4-0.3,6.1l0,0c-0.7,1.1,0.1,2.6-0.9,3.7c-2.7,8.6-4.3,17.5-5.8,26.4
			c-0.9,5.2-1.3,10.5-1.1,15.8c0.1,4.4,3.1,6.7,7.2,5.3c1.8-0.6,3.4-1.3,5.2-0.4c1.2,1.3,0.1,1.9-0.8,2.5c-1,0.5-2,0.9-3.1,1
			c-2.4,0.4-4.8,0.3-7.1-0.2c-2-1-3.9-2.3-5.5-3.9l0,0c-1.8-2.3-0.4-4.2,0.9-6.1c-0.4-9.4,3.1-18.1,4.1-27.3
			C162,222.5,165.7,215.4,168.2,207.8z"/>
		<path class="st43" d="M143,256c-2.8-3.2,0.2-6.1,0.8-8.9c0.8-3.7,4.8-6.4,4.1-10.8c0.2,0,0.4-0.1,0.5,0c0.3,0.2,0.5,0.4,0.7,0.7
			c1.2,1.1,2.2,2.5,3,4l1,2c0.7,1,0.9,2.3-0.1,3.1c-2.9,2.3-3,5.5-3.4,8.7c-1.5,2.8-3.9,0.7-5.9,1.2H143z"/>
		<path class="st89" d="M152.1,226c-1.6-4.8,3.6-7.7,3.6-12.3c0-1.6,3.4-1.9,4.7-1.1c1.7,1.1-0.8,2-1,2.9c-0.6,3.2-4.2,5.4-2.6,9.6
			c1,2.8-1.2,6.1-3,8.9c-0.8,1.2-2,1.1-3.1,0.8c-1.6-0.3-0.8-1.6-0.6-2.4C150.6,230.3,150.5,227.9,152.1,226
			c0.8,0.8,1.1,2.1,0.7,3.2C153.2,228.1,153,226.8,152.1,226z"/>
		<path class="st90" d="M137.1,381h-3c-2.2,1.7-4.3,0.9-6.4-0.2c-1-1.1-2.3-1.1-3.6-1.4c-1.2-0.5-2.3-1.3-3.5-2
			c-2.7-3-6.7-4.8-10.8-4.7c-0.4-0.2-0.8-0.5-1.1-0.9c-0.6-1.1-0.3-2.4,0.7-3.1c1-0.4,2.2-0.1,3-1c1.4-2.1,1-3.6-1.4-4.5
			c-0.3-0.4-0.2-0.9,0.1-1.2l1-1c3.7-1,6.1,0.3,7,4.1c-1,5,0.9,7.8,7.4,10.7c1.8,0.4,3.3,1.6,5,2.3c1.5,0.7,3.3,0.5,4.8,1.1
			C136.9,379.6,137.4,380.1,137.1,381z"/>
		<path class="st81" d="M118.1,355c0.1-2.2,1.7-5.4-3-4c-0.9,0.8-2.1,0.8-3,0c-5.3-0.1-4-4-4-7c0.3-0.3,0.7-0.6,1.2-0.7
			c4.4,3.7,9.7,2.8,14.8,3c1.4,0.2,2.7,0.6,3.9,1.3c1,1.6-1.5,2.2-1,3.6c-2.4,1.1-5.7,0.7-6.8,4.1
			C119.4,355.6,118.6,355.5,118.1,355z"/>
		<path class="st87" d="M133,283c1.2-3.1,2.7-6.2,2.7-9.6c-0.1-1.8,0.8-3.6,2.3-4.5c2.3-1.7,6.3-0.5,7.4-4.3
			c0.4-0.6,1.1-0.9,1.7-0.8c0.7,2.4,1.2,4.9,1.4,7.4c0,2.7-1.7,5.2-4.2,6.2c-5.1-1-7,3.6-10.1,6C133.8,283.5,133.4,283.3,133,283z"
			/>
		<path class="st91" d="M123.9,307c1.1-5.5,6.8-7.5,9.1-12c0.9-1,1.4-2.3,2.3-3.2c0.9-2.1,0-4.7,1.5-6.7c1.6-0.7,2.1,0.7,2.8,1.6
			c0.5,1.4,0.9,2.8,1.1,4.2c0.1,0.5,0,0.9-0.1,1.4c-3,3.9-4.5,8.2-3.8,13.1c-2,1-4,1.7-6.3,1.2c-2.2-1.5-0.4-3,0.1-4.5
			c-1.4,0.6-1.7,1.9-2.2,3c-1,1.4-2,2.7-4,2.3L123.9,307z"/>
		<path class="st22" d="M193,233v2c-0.7,0.6-1.7,0.6-2.3-0.1c-0.2-0.3-0.4-0.6-0.4-0.9c-0.9-3.6-2.5-7-2-11
			c0.5-3.7-1.2-7.4-0.7-11.2c0.2-2.3-1.4-4.7,0.6-6.8c3.2-0.1,0.6-4.2,3.2-4.8c-0.4,2.6-0.8,5.2-1.2,7.8c1.1,2.6-0.2,5.5,0.7,8.1
			c-0.5,0.9-0.3,2.1,0.3,2.9c1.1,4-0.3,8.1,0.8,12.1L193,233z"/>
		<path class="st92" d="M148.1,271c-2.2-2.1-0.8-4.7-1-7c-0.2-1,0.2-1.2,1.1-1.1c0.2,0.2,0.3,0.5,0.2,0.8c-0.1,0.2-0.2,0.4-0.3,0.4
			c1.9,5.4,2.7,5.4,8,0c2.4-0.2,3.9,1,5,3l0.4,0.6l-0.3,0.6c-0.8,0.1-1.7,0.1-2.5-0.1c-3.3-0.1-2.7,1.4-1.3,3.2
			c-0.8,2.2-2.6,3.1-4.8,3.4c-1.1-0.4-2.2-0.8-3.2-1.5C148.6,272.6,147.5,272.3,148.1,271z"/>
		<path class="st1" d="M160.1,203c0.1-6.5,1.3-12.6,6.1-17.6c0.5,2.4,1,4.6,1.4,6.8c0.4,1.8,0.3,1.6-1.8,2.6s0.3,3.9-1.8,5.2
			c-0.9-0.8-1.5-1-1.9,0.5C161.9,201.6,162,203.3,160.1,203z"/>
		<path class="st93" d="M148.1,264v-1c-3.8-3.2-0.8-5.5,1-8c-1.7-3.8,0.7-6.5,2.8-9c0.8-0.8,1.2-1.9,1.2-3c1,0.6,1.4,1.9,0.8,2.9
			l-0.1,0.1c-2.2,3.1-3.1,5.9-1.7,10C152.7,258.2,150.7,262,148.1,264z"/>
		<path class="st32" d="M111.1,361.9l0.1,1.1c0.5,0.6,0.8,1.3,0.9,2c0,0.7-0.2,1.5-0.6,2.1c-3,1.8-7,0.3-9.7,3.1
			c-0.2,1.1-0.8,2.1-1.7,2.8c-1.7-2.9-0.6-6.1-0.8-9.2c1.7,1.6,2.6-0.6,3.8-0.9c2.3-2.4,4.7,0.9,7,0L111.1,361.9z"/>
		<path class="st94" d="M113.1,335c2.6-1.9,2-4.6,1.8-7.2c-0.2-3.1,0.3-5.7,4.3-5.7c0.4,1-0.1,1.8-0.6,2.7
			c-3.1,4.4-0.1,8.2,1.4,12.1c0.3,1.2,0.2,2.4-0.1,3.5c-0.2,0.7-0.6,1.3-1.2,1.8c-0.6,0.4-1.3,0.6-2,0.6c-0.5-0.1-0.9-0.2-1.3-0.4
			c-0.8-0.4-1.6-0.9-1.9-1.9C113.6,338.6,115.1,336.6,113.1,335z"/>
		<path class="st95" d="M146.1,265c-0.6,5.6-5,3.3-8.1,3.9c1.1-4.5,5.4-7.8,5-12.9h0.1c2.4,0.1,1.7,1.9,1.6,3.1
			C144.7,261.2,144.5,263.3,146.1,265z"/>
		<path class="st96" d="M118,323.9l1.2-1.9c2-4.9,4.1-9.8,4.8-15.1l0.2,0.1c3.6,5.1,3.4,8.9-0.7,11.5c-0.6,0.5-0.9,1.4-0.6,2.1
			c0.1,0.7,0,1.4-0.2,2c-0.9,1.8-2.2,2.6-4.2,1.9L118,323.9z"/>
		<path class="st22" d="M187.1,201c-1.4-4.4,1.6-8.2,1.5-12.5c-0.1-3.4,0.1-6.9,0.2-10.3c3,5.8,1.5,11.7,0.3,17.6
			c-0.4,1.8-1.1,3.4-1,5.3C187.7,201.5,187.4,201.5,187.1,201z"/>
		<path class="st59" d="M160.1,203c1.3-0.9,0.8-2.3,1.1-3.5s0.5-3,2-2.8s0.7,2.2,0.9,3.3l0,0c-1.4,1.8,0.6,4.7-2,6l0,0
			c-0.8,1-1.5,2.2-3,1C157,205.1,160,204.4,160.1,203z"/>
		<path class="st89" d="M118.1,355h2c2.1-3.2,4.2-0.1,6.3-0.1c1.3,0.4,2.2,1.1,2.2,2.6c-0.2,1-1,1.7-2,1.9c-2.1-0.7-4.2,1.5-6.3,0.2
			L120,359C120.5,357.1,119.1,356.1,118.1,355z"/>
		<path class="st23" d="M136,293c-1,0.7-2,1.3-3.1,2c0.2-2.6,1.8-5.3-0.6-7.9c-0.9-1.3-0.6-3.1,0.7-4.1h1.1
			C136,286.1,137,289.4,136,293z"/>
		<path class="st1" d="M152.1,241c-1.8-0.7-3.4-1.6-3-4c3.2,0.4,8.2-1.8,6.8,5C154.6,242,154.3,237,152.1,241z"/>
		<path class="st89" d="M118.1,366c-0.2-3.9-2.8-4.7-6-5c2.8-0.3,4.8-3.4,8-2v0.1c0.5,0.6,0.7,1.4,0.7,2.2
			C120,362.9,121,365.5,118.1,366z"/>
		<path class="st89" d="M110.1,363c-0.3,0.8,0.2,3.2-1.3,1.7c-1.9-1.8-3.7-1.6-5.8-1.8c0.8-1.7-0.1-3.9,1.9-5.7
			C105.9,360,107,362.5,110.1,363z"/>
		<path class="st22" d="M113.1,335c6.7,0.9,0.7,4,1,5.9c-0.3,0.3-0.8,0.4-1.2,0.3c-0.9-0.5-1.8-1.1-2.6-1.8l-0.3-0.5L113.1,335z"/>
		<path class="st97" d="M156.9,257.9c-0.3,2-0.6,4-0.9,6.1c-1.4-0.1-2.8-0.5-2.6-2.1C153.7,259.9,154.6,258.2,156.9,257.9z"/>
		<path class="st7" d="M187.1,201c0.3,0,0.6,0,0.9,0c0.1,1.3,0.1,2.6,0.1,3.9c-0.8,2,1,4.1-0.2,6.1c-0.4,0.4-0.7,0.4-1.1,0
			C185.6,207.7,187.2,204.4,187.1,201z"/>
		<path class="st1" d="M159,207l3-1c0,1.3,0,2.7-1.3,3.5c-1,0.6-2.3,1-3.1-0.2S158.8,207.9,159,207z"/>
		<path class="st32" d="M101.8,350.8c1.1-2.6-0.3-5.8,2.2-8C103.8,345.7,105,348.8,101.8,350.8z"/>
		<path class="st98" d="M168.7,164.4c-1.5-0.2-1.6-1.2-1.6-2.2c0-0.5-0.3-1.5,0.8-1.1c0.9,0.3,1.7,0.7,2.5,1.2L168.7,164.4z"/>
		<path class="st99" d="M107.8,353.9c-0.8,0.1-1.5-0.5-1.5-1.3v-0.1c0-0.7,0.4-1.3,1.1-1.1c1,0.1,1.7,0.9,1.8,1.9
			C109.2,354.1,108.4,353.9,107.8,353.9z"/>
		<path class="st22" d="M109.1,344h-1c0.4-1.8,0.7-3.6,1.9-5l0.1,0.1C112.3,341.2,112.2,342.9,109.1,344z"/>
		<path class="st1" d="M162.1,206c1.5-1.7,0.2-4.4,2-6C163.4,202,165.6,205,162.1,206z"/>
		<path class="st32" d="M103.9,342.9c0.1-1.9,0.3-3.8,2.1-5.1C105.7,339.7,105.6,341.6,103.9,342.9z"/>
		<path class="st100" d="M112.1,351h3C114.1,354.1,113.1,352.5,112.1,351z"/>
		<path class="st22" d="M192,193c-0.3,1.7,0.2,3.6-0.9,5.2C191.1,196.4,190.3,194.5,192,193z"/>
		<path class="st98" d="M255,361c-2.8-2.4-2.5-4.7,0.1-7c0.9-1.9,3.2-1.7,4.5-3c0.9-1.2,1-2.8,1.7-4c0.6-1,1.6-1.6,2.2-0.3
			c2.3,5.5,5.9,1.9,9,1.4c0.6-0.2,1.2-0.5,1.6-1c4.1-2.5,7.9-5.4,12.5-7.1c3.2-1,5.8-3,8.4-5.1c1.5-1.2,2.9-2.8,5.2-1.9
			c1.4,2.3,0.1,4.1-1.2,6c-0.8,1-2,1.7-2.9,2.6c-0.7,0.8-1.1,1.8-1.8,2.6c-0.3,0.2-0.7,0.4-1.2,0.4c-2.6,2.2-5.7,3.5-8.7,5.1
			c-1.8,0.9-2.9,2.6-4.3,4c-0.6,0.7-1.6,0.9-2.5,0.5c-2.7-3.1-5.6-0.5-8.5-0.5c-1.8,0.5-4.9-0.8-4.4,3c0.9,1.6,3.3,2.6,1.7,5
			c-1.5,2.1-3.5,2-5.7,1.6C258.7,363.1,256.7,362.3,255,361z"/>
		<path class="st101" d="M262.9,315.6l1-12.5c0.2-2.4,0.1-4.9,0.8-7.3c0.4-1.3,0.3-3.2,2.6-2.8c1,1.2,1,2.6,1.1,4.1
			c-1.1,4.6,0.1,9.2,0.1,13.8c0,2.8,0.3,5.6-1,8.3c-1.2,1.8-1.6,4-2.2,6c-0.5,1.5-1,3.3-3.3,2.9l0,0
			C261.9,323.9,262.7,319.8,262.9,315.6z"/>
		<path class="st19" d="M321.1,324v3.1l-18.2,13.8l-4.8,2.3c-0.4-0.3-0.7-0.7-0.8-1.2c-0.1-0.5,0-1,0.1-1.4c4.1-3,7.7-6.6,12.6-8.2
			c1.2-0.5,2.2-1.3,2.8-2.4c0.5-1,1.1-1.9,1.9-2.7C317,326.3,318.6,324.4,321.1,324z"/>
		<path class="st102" d="M243,312c0-9.4-0.5-18.8,1.2-28.1c0.9-0.6,2-0.6,2.8,0.1c0.6,4.1-1.7,7.9-1.1,12c-1.9,4.6,0.2,9.5-1.4,14.2
			C244.2,311.1,244.5,312.2,243,312z"/>
		<path class="st103" d="M243,312c2.1-4.9,0.7-10.1,1-15.2c0.1-2.3,0.6-2.1,2-0.8c0.4,4.3,1.8,8.6-0.5,12.9
			c-0.9,1.7,1.4,3.9,0.7,6.1c-1.2,0.6,0.1,3.4-1.8,2.8c-2.2-0.7-2-3-1.5-5C242.8,312.5,242.9,312.2,243,312z"/>
		<path class="st104" d="M248.1,361c-3.1,2.5-3.2,0.3-3.2-2c-0.2-0.2-0.3-0.5-0.3-0.8s0-0.4,0.1-0.4c0.7-1.5,1.4-3.1,0.4-4.8l-0.1-1
			c-0.9-3.6,0.1-7.4-0.9-11c0-1.3,0-2.7-0.1-4c0.4-0.4,0.6-1,1.1-1.4c0.4-0.1,0.8,0,1,0.4c0.8,1.9,1.2,3.9,1,6
			c-0.4,3.7-0.1,7.4,0.9,11l0,0c1.1,2.4,0.2,4.7-0.2,7L248.1,361z"/>
		<path class="st72" d="M255,361c1.7,0.3,3.5,0.7,5.2,1.2c2.2,0.8,4.3,1.1,5.6-1.1c1.5-2.6-2.1-2.5-2.7-4.1c0.8-0.7,1.1-3.5,2.3-1.7
			c1.9,3,2.7-0.3,4-0.1c1.5-0.5,3.1-0.4,4.4,0.4c0.2,3.4-3.3,2.8-4.7,4.5C264.6,365.5,258.9,365.9,255,361z"/>
		<path class="st105" d="M262,328c3.6-2,1.5-6.6,4.2-9c0.5,0.5,1,1.1,0.8,1.7c-1.2,5.9-0.1,11.9-1.3,17.7c-0.3,0.5-0.8,0.8-1.3,0.8
			c-0.7-0.4-1.2-1.1-1.2-1.9c-0.2-1.2-0.1-2.4,0.1-3.6c-0.1,0.8-0.2,1.7-0.2,2.5c-0.1,1.5,0.3,3,0.1,4.4s0.3,3.7-2.5,3
			c0-3.3-0.7-6.5,0.4-9.8C261.4,332,261.7,330,262,328z"/>
		<path class="st84" d="M246.1,336h-1c-1.2-1.1-0.5-3.7-2.9-4c-0.1-1.6-0.1-3.3-0.2-4.9c-0.7-2.6-0.9-5.1,1.7-7.4
			c1.6,2,0.3,4.4,1.2,6.2C245.4,329.3,246.7,332.5,246.1,336z"/>
		<path class="st106" d="M266.9,293c-1.8,3.1-0.8,7.1-3,10.1c-1.6-4.3-0.2-8.7,0.1-13c1.1-0.8,2.7-0.6,3.5,0.5
			C267.9,291.4,267.7,292.5,266.9,293z"/>
		<path class="st107" d="M244.9,326c-1.5-1.4-0.4-3.5-1.2-5.2c-2.3,1.8-1.3,4.2-1.7,6.3c-1.8-4.9,0.4-9.6,0.9-14.3
			c0.3,1.5,0.1,3.2,1.5,4.4l1.7-2.2C245.7,318.7,245.3,322.3,244.9,326z"/>
		<path class="st52" d="M245,252c-0.2-2.3-1.4-4.6-0.1-6.9c-1-2.3,0.4-4.8-0.8-7.1c0-2.7,0-5.4,0-8.1c2.7,3.6,1.3,7.9,1.6,11.8
			c0.2,3.4,0.2,6.8,0.4,10.3H245z"/>
		<path class="st108" d="M261.1,334c0,3.3,0,6.7,0.1,10c1,2.9-0.2,5.4-1.4,7.8L255,354c5.3-4.9,5.2-11.4,5-17.9
			C260,335.4,260.7,334.7,261.1,334z"/>
		<path class="st109" d="M269.1,360.1c0.7-2.6,3.7-2.3,5-4.1c-0.5-1.5,0.6-1.5,1.5-1.7c1.9,0.6,3.7,0.7,5.2-1
			c1.1-1.2,2.4-2.2,4.2-1.3c-0.6,2.3-2.5,4.1-4.8,4.5C276.3,357.1,273,359.3,269.1,360.1z"/>
		<path class="st104" d="M244.2,370c1.5-0.8,0.2-4.9,3.8-3.1c0.1,1.1,0.1,2.3,0,3.4c-0.2,1.3,0.5,3.3-1.8,3.3S244.1,371.7,244.2,370
			z"/>
		<path class="st110" d="M285.1,352c-3.4,0.4-5,5.4-9.2,3.5c0-1.5,1.1-1.4,2.2-1.5l2-1.1c0.7-1.2,2.1-1.5,3-2.5
			c2.1-0.5,3.7-2.6,6.2-2.1c0.4,0.2,0.8,0.5,1,0.9C288.8,350.6,287.2,351.9,285.1,352z"/>
		<path class="st59" d="M267.1,290.1c-1,0.6-2.2,0.6-3.1,0c-1.7-2.7-3.9-5.4,0-8.2l0.5,0.4c0.1,1.9,1.2,3.6,2.9,4.5
			c0.5,0.8,0.6,1.8,0.2,2.7L267.1,290.1z"/>
		<path class="st111" d="M248.1,353c-1.7-3.5-3.2-7.1-0.9-11C248.5,345.5,247.8,349.3,248.1,353z"/>
		<path class="st110" d="M298,342l0.1,1.2c-2.6,2-4.6,4.8-7.9,6l-0.3-0.4c0-2.7,2.6-3.4,4-5v0.1C295.1,343,295.6,340.4,298,342z"/>
		<path class="st105" d="M262.9,315.6c0.4,4.2,0.1,8.3-0.9,12.4C260.3,323.7,262.7,319.8,262.9,315.6z"/>
		<path class="st111" d="M247.9,359.9c-1.1-2.4,0.6-4.6,0.2-7C249.3,355.3,249.6,357.6,247.9,359.9z"/>
		<path class="st48" d="M249.1,270.1c-0.3-2.9-1.7-5.6-1-8.6C249.3,264.3,250.7,267,249.1,270.1z"/>
		<path class="st48" d="M248,275.9c0.4-2-0.9-4.2,1.2-5.8C249.1,272,249.9,274.2,248,275.9z"/>
		<path class="st55" d="M247,284l-2.8-0.1c-0.1-0.3-0.1-0.6,0-0.9c2.1,0.1,1.6-2.4,3-3L247,284z"/>
		<path class="st59" d="M264.9,278.1l0.4-1c2.4,2.7,2.2,3.4-1.2,5l-0.2-0.2L264.9,278.1z"/>
		<path class="st60" d="M413,281c-1.4-4.3,0.9-14.6,3.8-16.9c5.1,4.8,0.5,8.2-1.7,12c-1.2,1.3-0.6,3.2-1.7,4.5L413,281z"/>
		<path class="st78" d="M411,305c-0.7-4.1,1.3-8,0.8-12l0.4-6.7c0.2-0.7,0.5-0.8,0.9-0.1V298c1.9,0.7,1.7-1.6,2.9-2
			c0.4,3.2-2.1,5.3-3,8C412.5,304.5,412.1,305.6,411,305z"/>
		<path class="st10" d="M423.1,280.9c-0.2,4.4-4,7.6-4.2,12h-1.1c1.8-6.6,3.8-13.1,6.9-19.2C425.8,276.5,423,278.4,423.1,280.9z"/>
		<path class="st60" d="M443,265.9c-6.4-0.5-12.3,0.8-17.4,4.9c2.4-5.4,7.2-5.8,12.2-5.9C439.6,264.8,441.7,263.2,443,265.9z"/>
		<path class="st47" d="M449,275c-1.4-0.7-0.8-3.2-3-3l0,0c-1-1.7-2-3.5-1.4-5.6l0.5-0.5c0.3,0,0.6,0.1,0.9,0.1l3,6
			C449.6,272.9,449.6,274.1,449,275z"/>
		<path class="st47" d="M443,265.9c-1.5-1.5-3.5-0.5-5.3-1.1c2.6-1.1,5.3-2,7.3,1l-0.4,0.4c-0.2,0.2-0.6,0.2-0.8,0l-0.1-0.1
			L443,265.9z"/>
		<path class="st83" d="M413.1,286.1h-0.5l-0.4,0.1c-0.6-1.9,0.7-3.5,0.7-5.2l0,0c0.4-0.5,0.8-0.5,1.1,0L413.1,286.1z"/>
		<path class="st33" d="M414.1,281H413c0.5-1.8,0.5-3.7,2.2-4.9C415.5,277.9,414.7,279.5,414.1,281z"/>
		<path class="st59" d="M538.8,353.8c0.4-4.9,0.7-9.8,1.1-14.7c-0.3-2-2-4.9,2.5-3.3c3.7,3.5,1.9,7.8,2,11.9
			c-0.1,0.5-0.7,0.8-1.1,0.6c-0.1,0-0.1,0-0.2-0.1c-0.3-1.8,0.3-3.8-1.4-6.8c-0.9,5.7-1.7,10.2-2.4,14.7
			C538.2,355.4,538.4,354.6,538.8,353.8z"/>
		<path class="st76" d="M501.9,393.1c-5.7,0-11.3,0.9-17,0C488.1,391.7,498.9,391.7,501.9,393.1z"/>
		<path class="st76" d="M474.9,386l1,2c-3.9-1-7.5-2.7-9.9-6.1L474.9,386z"/>
		<path class="st62" d="M523.4,383.1c-2.7,2.1-5,4.8-8.3,6.1C516.9,386,519.2,383.2,523.4,383.1z"/>
		<path class="st76" d="M455.9,371.1c1.8,1.3,3.5,2.6,4.3,4.8C458,375.1,456.4,373.3,455.9,371.1z"/>
		<path class="st76" d="M460.1,375.8c1.6,1.1,3.2,2.2,3.9,4.2C461.5,379.6,460.1,378.4,460.1,375.8z"/>
		<path class="st76" d="M460.8,381.5l-3.6-1.7c-0.1-0.5-0.3-1.1-0.4-1.6C459.1,378,460.3,379.3,460.8,381.5z"/>
		<path class="st30" d="M538.8,353.8c0.1,0.8,0.3,1.5,0.4,2.3c-0.4,1.3,0.4,3.1-1.5,3.9C537.9,357.8,537.5,355.6,538.8,353.8z"/>
		<path class="st76" d="M453.8,374.1c-1.2-0.9-1.5-2.6-0.6-3.8c0,0,0-0.1,0.1-0.1c0.9-1.1,2-0.5,2.6,0.8
			C453.8,371.1,454.1,372.8,453.8,374.1z"/>
		<path class="st76" d="M456.8,378.2c-1.5-0.9-2.6-2.4-3-4.1C455.7,374.8,457,375.9,456.8,378.2z"/>
		<path class="st112" d="M543,348.1l0.7-0.2c0.4,0.1,0.6,0.5,0.6,0.9c0,0.1-0.1,0.3-0.2,0.4c0,1.4,0,2.8-1,3.9
			C541.5,351.4,543.3,349.8,543,348.1z"/>
		<path class="st111" d="M244.1,341c1.5,3.6,1.2,7.3,0.9,11C243.5,348.4,244.4,344.6,244.1,341z"/>
		<path class="st113" d="M245.1,358c-0.1,0.3-0.1,0.6-0.2,1c-0.6,0.6-1.1,1.3-1.7,1.9c-0.7-1.3-2.6-2-2-4c1.5,0.6,2.8,0.7,3.7-1
			C245.5,356.4,245.6,357.3,245.1,358L245.1,358z"/>
		<path class="st114" d="M242.1,332c4.5-1.3,2.3,2.4,2.9,4l-1,1C243.4,335.3,242.8,333.7,242.1,332z"/>
		<path class="st55" d="M244.9,275.9c0,1.8,0.7,3.6-0.9,5.1C243.6,279.2,243.9,277.4,244.9,275.9z"/>
		<path class="st111" d="M245.1,358c-0.1-0.7-0.1-1.4-0.2-2.1c0.1-1,0.1-1.9,0.2-2.9C246.6,354.6,246.4,356.3,245.1,358z"/>
		<path class="st29" d="M146.2,305.1c0.7,8.2-2.3,15.9-3,23.9l-0.6,0.3c-2.1-1.7-3-4.4-4.9-6.3c-0.5-2.2,1.4-3.7,1.6-5.7
			s3.4-0.2,3.2-2.6c0.5-1.8,0.4-3.7,0.9-5.5c0.5-1.4,0.5-3,1.6-4.1C145.3,304.7,145.9,304.7,146.2,305.1z"/>
		<path class="st115" d="M143.2,328.9c0.6,5.5,0.6,11.1,0.1,16.6c-0.2,2.1-0.2,4.3-0.3,6.5c0.8,1.2,0.4,2.6,0.3,3.9
			c-1.4,0.8-1.8-0.3-2.2-1.2c-2.2-3.4-1.4-7.1-0.8-10.7c-0.1-0.7-0.1-1.4,0-2.1c0.5-2,0.6-4.1,0.4-6.1c-0.3-1.1-0.3-2.2-0.2-3.3
			c1.9-0.4,0.7-2.8,2.3-3.4L143.2,328.9z"/>
		<path class="st42" d="M146.2,305.1L145,305c-1.5-4.5,1.3-8.6,1.3-13c0.5-1.3,1-2.4,2.8-1.9c0,2-0.1,4-0.1,5.9
			C148.9,299.2,148.4,302.4,146.2,305.1z"/>
		<path class="st116" d="M143,356c0-1.4,0.1-2.7,0.1-4c2.6,4.5,0.6,9.4,0.9,14h-0.5l-0.5-0.1c-0.4-0.3-0.8-0.8-0.9-1.3
			c-0.5-2.4-0.5-4.9,0-7.3C142.3,356.8,142.6,356.4,143,356z"/>
		<path class="st15" d="M390.9,293c0,2,0,4-0.1,6.1c-0.3,0.2-0.8,0.2-1.1,0c-0.5-1,0.2-2.1-0.7-3c-0.7-5.3-1.5-10.5-2.2-15.8
			l0.6-0.4c2,0.9,0.6,3.4,2.1,4.5C390.9,287,390.3,290.1,390.9,293z"/>
		<path class="st42" d="M389,296c1.2,0.7,1,1.9,1,3c-0.1,3.3,0.5,6.8-2.9,9.1c-2.3,3.7,0.5,8.3-2.2,11.9
			C383.5,311.5,388.2,304.1,389,296z"/>
		<path class="st117" d="M383.8,323.7c-1.5,3.4-4.4,6.1-7.9,7.3C378.2,328.2,380.9,325.7,383.8,323.7z"/>
		<path class="st43" d="M360,345.2l1-0.3c3.5,1.5,4.3-2.6,6.8-3.2C366.1,344.8,365,349.3,360,345.2z"/>
		<path class="st43" d="M370.9,336.7c-0.1,2.3-0.7,4.3-3.2,5.1C368.3,339.8,369.4,338.1,370.9,336.7z"/>
		<path class="st15" d="M384.9,276.2l0.3-1.1c2.8,0.8,3.1,2.5,2,4.9l-0.4,0.3L384.9,276.2z"/>
		<path class="st1" d="M447,276h1.9c0.4,0.2,0.7,0.6,0.9,1c1.4,1.7-1.2,5.9,3.5,5.3c0.9-0.6,1.3-1.8,2.6-1.7l1.2,1.3
			c-1,5.9-2.4,11.6-6.3,16.4c-0.5,0.6-0.9,1.5-1.9,0.6c-1.6-3.1-0.6-6.5-0.9-9.8c-0.1-1.8,0.4-3.7-0.8-5.3L447,276z"/>
		<path class="st118" d="M455.8,280.7l-1.8,2.5c-1.9,1.9-2.7,0.4-3.7-1.1s-0.4-3.6-1.2-5.3c0-0.3-0.1-0.6-0.2-0.8
			c0-0.4,0.1-0.7,0.1-1c0-1,0-2,0-3c1.7,0.9,1.5,3,2.8,4.2c0.4,1.5-0.5,3.6,1.1,4.3c1.8,0.8,1.5-2.1,2.9-2.5c0.6,0.5,0.7,1.3,0.3,2
			c0,0,0,0.1-0.1,0.1C455.9,280.2,455.8,280.5,455.8,280.7z"/>
		<path class="st15" d="M456,280c0-0.7-0.1-1.4-0.1-2.1l0.1-2.9c0.2-0.1,0.5-0.3,0.7-0.3C457.1,276.5,457.6,278.4,456,280z"/>
		<path class="st39" d="M510.8,281.8c-1.4,1.3-1.7,3.5-3.9,4.1c1.1-4.4,2.6-8.7,7.2-10.8C513.9,277.8,510.3,278.8,510.8,281.8z"/>
		<path class="st27" d="M142.9,365c0.1,0.3,0.2,0.6,0.1,0.9c-0.2,3.6-1.6,7-0.2,10.8c0.7,1.9-0.1,3.9-1.9,5.3
			c-1.6-0.1-1.6-0.8-0.9-2c-1.8-2-1.9,0.8-3,1c-0.3-0.3-0.6-0.7-1-1c-0.8-0.9-1.3-2-1.5-3.2c-0.3-2.8-5.3-2.6-4.1-6.4
			c0.2-0.4,0.6-0.6,1-0.7c0.7,0.1,1.8,0.8,1.4-0.9c-0.1-0.6-0.1-1.3,0-1.9c0.3-2.9,1.5-3.9,4.2-2.1c0.8,0.5,1.4,1.5,2.6,1
			c0.7-0.5,1.4-0.9,2.2-1.1C142.2,364.5,142.7,364.7,142.9,365z"/>
		<path class="st119" d="M128.1,380c1.9,0.9,3.9,0.9,6,1c1.1,2,1.7,3.5-1.6,4.1c-5,0.9-10,2-14.8-0.7c-2.3-1.3-5.9,1-7.5-2.4
			c-0.2-1.9,1-2.6,2.3-1.8c3.3,2.1,7.2,0,10.5,1.9c0.6,0.3,1.2-0.4,1.6-0.9C125.5,380.2,126.3,378.7,128.1,380z"/>
		<path class="st82" d="M125,382c-0.1,0.8-0.8,2.1-1.2,1.7c-3.5-3.3-8.7,1.2-12-2.9c-0.6-0.7-1.3,0.4-1.7,1.1l-2-2
			c-0.9-1.1-0.8-2.7,0.2-3.6c0,0,0.1,0,0.1-0.1c3.2-2.1,6-1.8,8.4,1.2c2.1,2.2,5.8,0.5,7.6,3.2C124.6,381.1,124.8,381.5,125,382z"/>
		<path class="st47" d="M101.1,369.9c-0.4-1.1-1.5-3.2,0.7-2.7c3.2,0.7,6.2-0.8,9.3-0.3c0.5,1.1-0.2,1.6-1,2c-1.2,0.7-1,1.9-1,3
			c-2,0.8-4.5-0.1-6,2l-1-1.1C101,372.1,101.1,371,101.1,369.9z"/>
		<path class="st119" d="M103.1,374c0.7-4.5,3.2-3.6,6-2l0,0c1.4,1.7,1.1,3.3,0,5c-1.2,0.7-1,1.9-1,3
			C105.3,378.9,106.2,374.7,103.1,374z"/>
		<path class="st70" d="M114.2,388.8l-5.3-2.8c5.1-0.3,9.5,2.3,14.2,3.7l-2.2,0.3L114.2,388.8z"/>
		<path class="st120" d="M140,380c0.3,0.7,0.6,1.3,0.9,2c0.2,1.5-1.3,1.9-2,2.9C137,382.7,138.9,381.4,140,380z"/>
		<path class="st85" d="M101.1,369.9c1.2,0.7,0.9,1.9,1,3l-2,1L100,373C100.1,371.9,99.9,370.7,101.1,369.9z"/>
		<path class="st47" d="M107,384.3c-1.9-0.9-3.4-2.3-4.3-4.2C104.8,380.7,106.4,382.3,107,384.3z"/>
		<path class="st87" d="M387.1,308.1c2.5-2.5,1.3-6.2,2.9-9.1c0.3,0,0.6,0,0.8,0c0.1,1.3,0.1,2.6,0.2,4c-1.6,1.7-0.2,4.4-2.1,5.9
			C388.5,308.2,387.8,307.9,387.1,308.1z"/>
		<path class="st91" d="M267,253c1.9,4,0.8,7.9-0.7,11.8c0-4,0-7.9,0-11.8L267,253z"/>
		<path class="st19" d="M268.9,208c-0.1,2.4,0.8,4.8-0.7,7.1C268.3,212.7,267.3,210.2,268.9,208z"/>
		<path class="st121" d="M194,274l-5-0.1c-0.8-0.5-1.8-0.2-2.5-0.9c-1.2-1.9-2.5-3.7-3.9-5.5c0.1-0.5,0.5-0.8,1-0.9
			c1.5,0.1,3.1-0.3,4.6,0.3l8.7,2c1.1-0.4,1.3,0.1,1.1,1.1c-0.1,1.3,0.4,3.1-2,2C195.6,272.9,193.3,271.9,194,274z"/>
		<path class="st89" d="M198,270l-1.1-1.1c1.5-0.7,2.5-2.3,2.4-3.9c0-0.1,0.2-0.2,0.4-0.2s0.3,0.2,0.4,0.3
			C199.6,266.8,201.2,269.4,198,270z"/>
		<path class="st122" d="M194,274c-1.1-2.5,0.8-1.9,2-2c0,0.7,0,1.5-0.1,2.2L194,274z"/>
		<path class="st38" d="M350,328c1.4,1.4,1.1,3.2,1.1,5C349.3,331.7,350.1,329.7,350,328z"/>
		<path class="st112" d="M522.9,327c-2.6-0.8-5.3-1.2-8-1l9-2.9L522.9,327z"/>
		<path class="st22" d="M525,324l-1-1c0-0.2,0-0.5,0-0.7c1.5-0.1,2.9-0.4,4.2,0.6C527.6,324,526.2,324.5,525,324z"/>
		<path class="st9" d="M264.1,282.1c2-1.3,2.6-2.9,1.2-5c-0.1-0.4-0.1-0.7-0.2-1.1c0.5-0.7,0.9-1.7,2.1-1.2c1.8,0.4,2.4-1.5,3.7-1.8
			c1.6-0.7,2.8-2,3.3-3.7l1.7-0.2c0.3,0.2,0.4,0.4,0.3,0.6s-0.2,0.3-0.3,0.3l-2.9,4.2c0.3,1.6-0.9,2.5-1.8,3.4
			c-1.3,1.1-2.2,2.7-2.5,4.4c-0.2,0.6-0.4,1.3-0.5,2c-0.2,1.1-0.3,2.3-1.4,3C262.7,287.2,263.1,284.8,264.1,282.1z"/>
		<path class="st123" d="M267.2,274.8l-2.1,1.2v-4C266.8,272.3,266.8,273.7,267.2,274.8z"/>
		<path class="st33" d="M325.9,264.3c3.2,1.4,3,5.5,6,7c0.4,0.9,1.6,1.7,0.1,2.7c-0.5,0.5-1.3,0.8-2,0.9c-5.5-1.7-6.4-6.9-8.5-11.2
			C323.3,261.1,324.3,265.1,325.9,264.3z"/>
		<path class="st10" d="M329.5,274.2l2.5-0.2c0.3,1,0.7,2,1,3c1,1,1.7,2.3,1.8,3.7c-0.1,0.4-0.2,0.9-0.4,1.2
			c-1.2,2.3,0.3,4.6-0.1,6.9c-0.3,1.9,0.3,3.9-1.4,5.4c-0.5,0.1-1-0.1-1.4-0.5c-1.3-5.3-1.4-10.8-3.1-16
			C328,276.4,328.4,275,329.5,274.2z"/>
		<path class="st124" d="M334,282c0-0.4,0-0.7,0.1-1.1c0.4-0.5,1.1-0.5,1.6-0.1c0.1,0.1,0.2,0.2,0.2,0.3c0.3,1.4-0.3,2.9,1,4
			c1.2,2,0.4,4.1,0.6,6.2c-3.3,1.1-2.1-1.9-3-3.1c-0.1-0.5-0.3-0.9-0.4-1.4C334.2,285.2,333.6,283.7,334,282z"/>
		<path class="st12" d="M337.1,298.9c2.9,2.4,2.3,4.7-0.2,6.9C334.4,303.5,334.4,301.1,337.1,298.9z"/>
		<path class="st87" d="M336.5,309l-3.6,3.9l-1.9,1c-1.1-0.5-1.6-1.5-0.7-2.3c2-1.8,3-4.3,5.2-5.8l0.6,0.3L336.5,309z"/>
		<path class="st38" d="M335.9,281.1L334,281c-0.3-1.3-0.7-2.7-1-4C336.4,276.7,335.2,279.5,335.9,281.1z"/>
		<path class="st87" d="M337.1,298.9c-1,2.2-1.1,4.7-0.2,6.9l-0.7,0.2l-0.4-0.2c-2.8-2.2-2.4-4.6-0.2-7
			C336,298.6,336.6,298.6,337.1,298.9L337.1,298.9z"/>
		<path class="st124" d="M337,298.9c-0.3,0-0.6,0-0.9-0.1c-2.7-1.5-2.8-3.2-0.6-5.2c0.5-0.1,1.1,0,1.5,0.4V298.9z"/>
		<path class="st38" d="M337,292c0-2.3-0.1-4.6-0.1-6.9c1.9,2.6,1.4,5.2,0.4,8c-0.3-0.1-0.5-0.4-0.5-0.6
			C336.8,292.2,336.9,292,337,292z"/>
		<path class="st87" d="M337,292l0.3,1.1c-0.1,0.3-0.2,0.7-0.2,1L336,294c-2.8-2-2.4-4.4-0.9-7C336.8,288.2,335.2,290.7,337,292z"/>
		<path class="st62" d="M241,200.1c-0.3,0-0.6-0.2-0.8-0.4c0.7-6.2-2.8-12.4-0.3-18.6c2.2,1.9-0.1,5,1.8,7c-0.5,3.7-0.4,7.4,0.1,11
			C241.6,199.3,241.6,199.9,241,200.1z"/>
		<path class="st62" d="M241.8,176.1c0,3.7,0,7.3,0,11c-3-1.7-0.1-4.9-1.8-7c-0.3-2.8-0.5-5.5-0.8-8.2c0.5-0.6,0.1-2.1,1.6-1.8
			C241.3,172,240.3,174.2,241.8,176.1z"/>
		<path class="st125" d="M240.8,170l-1.6,1.8c-0.8-2-1.7-4-0.6-6.5C240.7,166.4,239.6,168.8,240.8,170z"/>
		<path class="st94" d="M240,180.1c2.2,1.9-0.1,5,1.8,7c0.1,0.3,0.1,0.6,0,0.9c-1.2,0.6-1.8,0.4-1.8-1.1c0-2,0-3.9,0-5.9
			C240,180.7,240,180.4,240,180.1z"/>
		<path class="st20" d="M241,200.1l0.9-1.1c0.1,1.5,0.2,3,0.3,4.8C240.5,202.6,241.3,201.2,241,200.1z"/>
		<path class="st100" d="M407.9,317.1c0.7-1,1.3-2.1,2-3.1l-0.1-0.2c1.3-0.5,0-2.2,1.2-2.7c2.4,0.3,1.7,1.7,1.3,3.2
			c-0.6,2.9-1.9,5.6-1.4,8.7c-1,4.3-2,8.7-3,13c-2.4,0.1-2.8-1.2-2.1-3.2C404.5,327.3,408.4,322.5,407.9,317.1z"/>
		<path class="st33" d="M411.1,311c-0.3,1,0.3,2.3-1.2,2.7c-0.9-2.8-1.1-5.8-0.6-8.7c0-0.1,0.2-0.2,0.4-0.2c0.2,0,0.3,0.1,0.5,0.2
			c1.3,1.1,0.5,2.6,0.9,3.9L411.1,311z"/>
		<path class="st50" d="M410.9,308.9c-1.3-1-0.8-2.5-0.9-3.9h1l2-0.9C412.8,305.8,412,307.5,410.9,308.9z"/>
		<path class="st120" d="M405.9,332.8c0,1.4,0.8,2.7,2.1,3.2c0,1.3,0.2,3.1-1.4,3.2c-1.9,0.1-1.3-1.9-1.4-3.1
			C405,335,405.2,333.8,405.9,332.8z"/>
		<path class="st126" d="M544,349.1c-0.1-0.4-0.2-0.9-0.3-1.3c0.7-4,0-8.2-1.9-11.8c-0.4-1.1,0-2.4,1-3c0-0.3,0-0.6,0.1-0.9
			C547.3,337.5,545.5,343.3,544,349.1z"/>
		<path class="st8" d="M525,324l3.2-1.1l3.8,0.3C530,326.9,527.4,324.9,525,324z"/>
		<path class="st60" d="M443.8,266.2c0.3,0,0.6,0,0.9,0.1c1,1.7,1.4,3.7,1.3,5.7c-1.3-0.6-2.4-1.6-3-2.9
			C443.2,268.1,443.5,267.1,443.8,266.2z"/>
		<path class="st60" d="M437.9,268.1c-1.2,0.7-2.6,0.9-4,0.8C435.1,268.2,436.1,266.1,437.9,268.1z"/>
		<path class="st21" d="M191.9,231c-1.9-3.9-0.5-8.1-0.8-12.1C192.9,222.9,191.4,227,191.9,231z"/>
		<path class="st21" d="M190.8,216.1c-1.6-2.6-0.6-5.4-0.7-8.1C191.6,210.6,190.6,213.4,190.8,216.1z"/>
		<path class="st60" d="M537.8,329.1l1,1c0.6,3.1-1.2,2.6-3.1,2.1l0,0L537.8,329.1z"/>
		<path class="st4" d="M172.9,264.9c-2.6-0.6-4.8,1-7.3,1c-4.2,0-6.2-1.6-6.7-6c-1-9.1,1.9-17.6,3.4-26.4c1-5.6,2.1-11.3,4.8-16.4
			c0.2-0.3,0.5-0.4,0.8-0.2c0.1,0.1,0.2,0.1,0.2,0.2c-1.7,7.6-3.6,15.2-5,22.9c-0.4,2.2-1.9,5,0.9,7c0.8,0.6,0.8,0.7-0.2,1.6
			c-2.7,2.4-3.8,10.3-2,13.5c0.7,1.2,1.3,2.8,3.7,2.6c2.9-0.3,2.4-2.2,2.8-3.9c0.9,1,2.4,1,3.3,0.2c0.2-0.2,0.4-0.4,0.7-0.5
			c2.7,3.2,6.9-0.6,9.9,2.3c1.7,1.6,5.5-1,6.9,2.5l-8.8-0.3c-2.2,0.5-4.4,0.5-6.6,0.2L172.9,264.9z"/>
		<path class="st21" d="M186.9,211h1.1c0.5,6.6,0.2,13.4,2.2,19.8c0.5,1.5,0.2,3.9,2.8,4.1c1.3,1.3,1.3,2.9,1.2,4.6
			c0.9,2.8,0.9,5.8,2.6,8.3c0.1,3.3,0.2,6.7,0.3,10c-3.4-1.2-3.7-4.3-3.9-7.1c-0.1-2.6-0.3-5.3-0.7-7.9c-0.6-1.8-0.4-3.7-1.9-5.2
			c-1-0.7-0.9-2-1.5-3C187.2,227,187.6,219,186.9,211z"/>
		<path class="st4" d="M189.1,234.9l1.8,2.2c1.8,2.1,1.3,5,2.5,7.3c-0.8,6,1.3,11.4,3.4,16.7c1.7,5.2,1.6,5.6-2,5
			c3.1-0.6,1.7-2.9,0.8-3.6c-2.8-2-3-5-3.1-7.7C192.2,248,190.4,241.5,189.1,234.9z"/>
		<path class="st98" d="M183,267v1c0.2,1.2,2.1,1.9,0.8,3.4c-1.9,0.9-3-0.2-4.3-1.3c-1.4-1.3-3-2-4.7-0.3c-0.6,0.5-1.3,0.7-2,0.5
			c-1.5-1-3-1.9-1.7-4.1c0.8-0.2,1.6-0.4,1.8-1.3l0,0c2.6-0.5,5.2-1,7.4,1l1.6,1C182.2,266.6,182.7,266.6,183,267L183,267z"/>
		<path class="st80" d="M196.9,261.1c-4-5-3.5-11-4-16.9c-0.4-0.8-0.6-1.6,0.3-2.3c1.8,4.8-0.2,10.4,2.9,15c0.3,0.4,0.6,0.7,0.9,1.1
			C198.4,259.1,198.2,260.1,196.9,261.1z"/>
		<path class="st89" d="M180.3,265.9c-2.4-1.1-4.9-0.6-7.4-1c2.4-0.9,4.8-1.9,7.3-0.1L180.3,265.9z"/>
		<path class="st89" d="M183,267l-1.2-0.1c2.1-1.5,4.2-0.9,6.4,0L183,267z"/>
		<path class="st4" d="M188.9,265.1c2,0.2,4.4-1,6.1,1C193,265.9,190.8,266.3,188.9,265.1z"/>
		<path class="st115" d="M346.9,304.9c-0.3,0.1-0.6,0.1-0.9,0.1v-15c0.3-0.4,0.6-0.4,0.9,0C347,294.9,347,299.9,346.9,304.9z"/>
		<path class="st70" d="M347,290h-0.5H346c0-0.6-0.1-1.3-0.1-1.9c0.5-2.3-0.9-4.8,1-6.9C346.9,284.1,347,287,347,290z"/>
		<path class="st97" d="M172,275h-3c-1.6-0.3-2.9-1.3-3.7-2.7c-0.7-2.2-4.2-1.5-4.3-4.3l0,0c2.5-1.3,5.2,0.4,7.7-0.2
			c1.3-0.3,2,0.4,2.5,1.4c0.1,0.3-0.1,0.6-0.4,0.7l0.9-0.1c0.9,0.7,1.5,1.8,2.8,2c0.4,0.2,0.8,0.3,1.1,0.6c0.2,0.1,0.3,0.3,0.5,0.4
			c0.2,0.4,0.1,0.9-0.2,1.1L172,275z"/>
		<path class="st127" d="M176,273.9c0-0.3,0-0.6,0.1-0.9c1.4-2.3,2.7-5.3,5.6-1.4c1.7,0.7,3.9-0.4,5.4,1.2l2,0.9L176,273.9z"/>
		<path class="st15" d="M224.9,338.1l-0.7-1.1c2.2-1.1-0.9-3.8,1.5-4.8C226,334.3,226.8,336.4,224.9,338.1z"/>
		<path class="st62" d="M387.1,279.9c-0.1-1.8-0.8-3.5-2-4.9c-0.4-0.9-0.7-1.8-0.9-2.8c-0.2-1.9-1.4-4.6,0.5-5.4
			c2.5-1.1,2.2,2.6,3.9,3.5c-0.3,1.9-0.4,3.8,0.6,5.6c2,2.5-1.2,5.6,0.8,8.1c-0.2,0.3-0.7,0.3-1,0.1l-0.1-0.1
			C387.4,283.1,388.5,281,387.1,279.9z"/>
		<path class="st95" d="M389,284h1.1c1.8,2.8,1.6,5.9,0.9,9C389.5,290.2,389.7,287,389,284z"/>
		<path class="st12" d="M244.1,238c1.8,2.2,0.7,4.7,0.8,7.1C243.3,242.9,244.3,240.4,244.1,238z"/>
		<path class="st128" d="M535.7,332.2c1.2-0.4,3.1,0.1,3.1-2.1l4,2.9c0.3,1.2-0.5,2.1-1,3c-3.9-1.1-0.8,2.3-1.9,3
			c-0.3-0.1-0.5-0.2-0.8-0.2C539.2,336,537,334.3,535.7,332.2z"/>
		<path class="st129" d="M325.9,264.3c-2,2.1-2.6-1.8-4.3-1c-0.4,0.1-0.9,0-1.2-0.2c-1-0.8-1.9-1.7-2.8-2.6c-2.7-2.1-6.7-1.9-8.9-5
			c0.2-1.3,1.5-0.7,2.1-1.3l0.2-0.2c4-0.3,8,1.2,10.8,4.1C323.6,259.9,323.7,262.8,325.9,264.3z"/>
		<path class="st130" d="M320.9,263.1c-5.1-1.9-9.9-4.3-15.3-5.5c-3.8-0.9-6.7-0.5-9.7,1.9c-3.2,2.6-6.3,5.1-10.6,6
			c-3.5,0.7-4.1,6.1-8.4,6.4l6.6-7.6c0-1.1,0.8-1.6,1.7-2.1c4.8-1.9,8.7-5.3,13.2-7.8c0.5-0.2,0.9-0.4,1.4-0.5
			c1.8-0.3,3.6-0.3,5.3,0.1c4.2,2.8,9.4,3.7,13.7,6.3L320.9,263.1z"/>
		<path class="st100" d="M285.2,263.3c-0.3,0.6-0.9,1-1.6,1l-4,0.7c0.5-2.9,3.6-2.8,4.5-4.8c0.3-0.1,0.6-0.2,1-0.1
			c1-0.7,1.8-0.5,2.3,0.6C287.4,262.1,285.5,262.1,285.2,263.3z"/>
		<path class="st131" d="M275,274c0,2.6-2.4,3.6-3.7,5.3c-0.4,0-0.7-0.3-0.9-0.7c-0.2-0.6,0-1.2,0.5-1.6l2.1-2.8L275,274z"/>
		<path class="st100" d="M276,269.9c0-0.3,0-0.6,0-0.9l2.1-2.9C279.7,268.6,277.2,268.9,276,269.9z"/>
		<path class="st132" d="M335,287c-0.1,2.4-0.4,4.8,0.9,7c-1.8,1.7-1,3.3,0.2,4.9c-1.6,2.3-1.4,4.6-0.4,7c-0.1,3.6-4.8,4.4-4.8,8
			l-2.1,4c-1.3,0.1-2.4,0.8-3,1.9c-2.9,2.2-6.1,4.1-9.3,6c-2.9,1.2-4,4.3-6.5,6c-3.3,2.7-7.5,4.1-10.4,7.4c-0.4,0.5-1.2,0.3-1.8-0.2
			c0.8-1.9,2.2-3.6,2-5.9c0.7-0.8,1.8-1.1,2.4-2c0.3-0.3,0.6-0.6,0.9-0.9c1.7-1.1,4-1.6,4.8-3.9c3.2-5.8,8.9-8.6,14.5-11.4
			c3.2-2.6,4.9-6.5,7.6-9.5c1.8-2.6,2.6-5.7,2.3-8.8c0.1-0.5,0.2-1,0.4-1.4c0.9-1.9,0.4-3.9,0.5-5.8C333.6,288.4,333,286.9,335,287
			L335,287z"/>
		<path class="st29" d="M316,325l9.9-5.2c-0.7,2.4-3.3,2.7-4.8,4.2c-1,2.9-3.9,2.9-6.1,4C313.9,326.5,315,325.8,316,325z"/>
		<path class="st132" d="M310.9,254.1c-0.4,0.8-1.1,0.8-1.9,0.9c-2.3,0.4-4.4-1.9-6.8-0.7c-0.4,0.1-0.9,0.1-1.3,0
			c-0.9-0.5-2.4-0.6-1.8-2.3l0,0C303.4,250.2,307.2,251.8,310.9,254.1z"/>
		<path class="st94" d="M149.1,290c-1,0.3-1.8,1-2.2,1.9c-1.4,1.8-1.5,4-2.5,5.9c-1.5,0.7-3,1.9-4.9,0.9c-0.7-1.5-0.6-3.3,0.4-4.6
			c2.2-1.6,0-3.6,0.4-5.4c0.2-1.5,0.6-3,1-4.4c0.9-1.2,1.6-2.6,2-4c0.2-0.4,0.4-0.8,0.7-1.1c1.9-2.2,5.5-1.7,7-4.5
			c0.3-0.3,0.6-0.6,1.1-0.8l4.9-3c0.8-0.3,1.3,0.2,1.7,0.8c0.3,0.9,0.5,1.8,0.7,2.7c1,2.1,0.2,4.7-1.8,5.9c-0.4,0.5-0.9,1-1.4,1.4
			c-2.5,1.6-6.1,2.2-6,6.3C149.8,288.8,149.5,289.4,149.1,290z"/>
		<path class="st68" d="M150.2,288.1c-3.1-3-0.1-4.4,1.8-5.8c1.1-0.8,2.7-0.9,4.1-1.3c0.5,0.4,0.6,1.2,0.2,1.8
			c-0.1,0.1-0.1,0.1-0.2,0.2c0,0.2,0,0.5,0,0.7C153.4,284.3,152.1,286.6,150.2,288.1z"/>
		<path class="st46" d="M286.9,260.9c-0.4-0.6-1.2-1-1.9-0.9l9-5c0.4,0.4,0.6,0.8,0.7,1.3C293.2,259.6,290.1,260.3,286.9,260.9z"/>
		<path class="st68" d="M294,256c0-0.4,0-0.7,0-1.1l1.1-1.8l3.9-1.2l2.1,1.9c-0.4,0.8-1.7,0.3-2,1.3l0,0
			C297.4,255.2,296,257.1,294,256z"/>
		<path class="st20" d="M157,280c0.5-1.6,3.2-2.7,1.1-4.9c4.7-2.3,6.9-2,9.2,1.2l-0.1,0.2c-1.5,0-3,0.5-4.2,1.5l-2.1,1.9l-1.8,0.1
			C158.5,280.7,157.6,280.6,157,280z"/>
		<path class="st11" d="M167.3,276.3c-2.8-2.4-6.2-0.8-9.2-1.2c0-1,0-2.1,0-3.1c2.7-1.1,5.3-0.4,8,0l3,3l-1.1,1.5l-0.4,0.1
			L167.3,276.3z"/>
		<path class="st27" d="M163.1,278c0.9-1.8,2.3-2.4,4.2-1.5C166.1,277.6,164.6,278.2,163.1,278z"/>
		<path class="st27" d="M157,280l2.1,0.1c-0.7,1.3-1.8,2.3-3.1,2.9c0-0.6,0-1.3,0-2L157,280z"/>
		<path class="st88" d="M168.1,217.1h-1c0-1.1-0.2-2.3,0.9-3.1C166.1,215,172.6,215.8,168.1,217.1z"/>
		<path class="st121" d="M171.1,270c-0.3-0.9-1.1-1.7-2-2c-0.2-0.1-0.3-0.4-0.2-0.7c0.1-0.2,0.1-0.3,0.2-0.3l2.1-0.9
			c-0.2,1.7,1.4,2.5,1.9,3.8c0.9,0.9,2.5,1.2,2,3C172.5,273.7,172.2,271.2,171.1,270L171.1,270z"/>
		<path class="st98" d="M169,267c0,0.3,0,0.7,0,1c-2.7,2-5.3-1-8,0c0-0.3,0-0.7,0-1H169z"/>
		<path class="st127" d="M146.1,265c-4.1-0.2-2.2-3.5-2.6-5.4c-0.2-1.1,1.1-2.4-0.4-3.5c0.1-1.5,0.7-2.1,2.2-1.3
			c1.2,0.6,2.4,1.2,3.7,0.4c0.1,2.7-3.4,5-1,8l-1,1L146.1,265z"/>
		<path class="st90" d="M147.8,248.5c0.4,1.7-0.5,3.4-2.1,3.9c-0.2,0.1-1-0.5-1-0.8C144.9,250.1,146.1,249.3,147.8,248.5z"/>
		<path class="st66" d="M152.1,226c4.2,2.2,0.6,4.3-0.4,6.4L152.1,226L152.1,226z"/>
		<path class="st28" d="M118.1,366c1.9-1.2,0.1-3.8,2-4.9c1.3,0.1,2.5,0.1,3.8,0c1.6,0,3.1,1,3.7,2.5c0.5,1.2,0.6,2.5,1.2,3.7
			c0.3,0.6,0.6,1.2,0.9,1.8c0.1,0.4,0.2,0.9,0.2,1.3c0,0.5-0.2,0.9-0.4,1.3c-1,1.1-2.1,0.4-3.4,0c-0.1,1.8,2.8,3.6,0,5.3
			c-4.4-0.4-5.8-4.8-9.1-6.9C115,368.9,117.7,367.4,118.1,366z"/>
		<path class="st133" d="M109.1,377v-5c5-0.6,9.3,0.3,12,5c-0.1,0.2-0.1,0.5-0.2,0.7c-1.2,1.8-2.8,2.3-4.8,1.3
			C114.5,375.5,112.1,375.3,109.1,377z"/>
		<path class="st99" d="M126,376.9c1.6-3.2-2.8-4.5-2.5-7.4c2.2-0.9,3.2,3.1,5.6,1.4c2.6,1.5,2.4,4.5,3.3,6.9
			c-0.1,0.8-0.3,1.5-1.4,1.1L126,376.9z"/>
		<path class="st47" d="M111.1,365v-2c4.4-0.5,4.6-0.2,2,6C111.6,368,112.6,365.9,111.1,365z"/>
		<path class="st81" d="M131.1,379l1-1c1-1.4,2.1-2.5,4-2c0,1.3,0,2.6,0,4C134.4,379.7,132.5,380.6,131.1,379z"/>
		<path class="st134" d="M111.1,365c3.8-0.2,1.1,2.8,2,4c-0.9,0.6-2.1,0.6-3,0c0.3-0.7,0.7-1.4,1-2
			C111.1,366.3,111.1,365.6,111.1,365z"/>
		<path class="st27" d="M125,382h-1c-0.5-0.7-0.7-1.7-0.5-2.5l0.5-0.5c1.4,0,3.2-1.4,4,1C126.5,379.8,126.1,381.4,125,382z"/>
		<path class="st133" d="M121.1,377c1.3,0,2.5,0.8,3,2l0,0C122.3,379.5,120.3,380.4,121.1,377z"/>
		<path class="st98" d="M127,351c-1.1-1.5,0.4-2.1,1.1-3c1.2-3.1,3.2-6.1,2.2-9.7c1.9-3.6,3.6-1.3,5.4,0.1c2.3,3-0.1,6.7,1.5,9.8
			c0.3,2.9,0,5.4-3.6,5.9c-2.6,0.5-4.9,0.1-6.4-2.5C127.1,351.5,127.1,351.2,127,351z"/>
		<path class="st127" d="M109.1,344c2.4-1.2,1.3-3.2,1-5c1.5,0,2.9,0,3,2c0.7,1.3,2.2,0,3,1l0,0c0.7,2,1.3,0.6,1.9-0.1l1-1.1
			l0.5,0.4c0.8,1,0.5,2.4,1.5,3.3c0.6,0.2,1.2,0.4,1.8,0.6c0.8,0.4,1.7,0.7,1.3,1.9c-3.3,0.9-6.8,0-10.1,0.5
			C111.1,347.8,111.5,343.9,109.1,344z"/>
		<path class="st133" d="M124,347c-0.4-0.7-1.2-1.1-2-1c-1-1.8,0.1-2.6,1.6-2.5c1.6,0,3.2,0.2,4.8,0.7c-1.1-0.7-2.9,0-3.5-1.9
			c2.5-0.1,1.3-1.8,1.3-3c0.1-0.5,0.2-0.9,0.5-1.3c1.1-0.8,2.2-0.3,3.3,0.1c0.4,0.3,0.7,0.5,1,0.9c1.9,4,0.1,6.7-2.9,9.1
			C126.7,347.8,125.1,348.5,124,347z"/>
		<path class="st112" d="M126,356c-2.2,0.8-3.6-3-6-1c-0.1-5.6,4-3.7,7-4l0,0C127.8,352.9,128.3,354.7,126,356z"/>
		<path class="st7" d="M136,293c0.4-3.5-2.5-6.4-1.9-10c0.5-0.4,1.3-0.8,1.4-1.2c0.7-5.5,4.5-5.4,8.5-4.8c1.9,0.9,1.9,1,0,3l0,0
			c-1.1,0.8,0.1,2.8-1.6,3.3c-0.4-0.1-0.8-0.3-1-0.7c-0.2-0.3-0.1-0.9-0.7-1c0.1,0.3,0,0.6-0.1,0.9c-0.2,0.4-0.4,0.7-0.8,1
			c-0.9,0.7-2.1,0.7-2.9,1.5C136.6,287.6,138.1,290.5,136,293z"/>
		<path class="st95" d="M144.1,280c0.2-1,1.6-2,0-3c1.7-1.7,3-3.8,4-6c0.4,0.7,1.2,1.1,2,1c-0.2,1.5,0.7,2.4,1.9,3
			C151,279.2,146.7,278.3,144.1,280z"/>
		<path class="st8" d="M138.9,275.4c2-1.2,0-4.8,2.9-5.2c0.9-0.1,1.2,0.9,1.2,1.8C143,274.6,140.9,275,138.9,275.4z"/>
		<path class="st135" d="M122.1,318c6.4-2.6,2.3-7.1,2.1-11c1.7,0.1,2.6-1.5,3.9-2c0.8,0,1.5,0.3,2,1l7-1c0.9-0.3,1.3,0.2,1.5,1
			c0,0.5-0.2,0.9-0.5,1.3c-0.8,0.5-1.7,0.8-2.6,0.9c-1.6,0.2-2.9,0.7-3.2,2.6c-1.2,2.8-0.1,5.7-0.2,8.6
			C128.3,321.7,125.2,319.7,122.1,318z"/>
		<path class="st7" d="M138.2,306.1l-1.1-1.1c-2-0.9-3.1-2.4-1.7-4.4c1.9-2.7,0.4-7.2,4.7-8.6c1.9-0.1,1.6,0.9,1,2
			c-0.9,1.5-1.3,3.2-1.1,4.9c0.7,0.6,1,1.6,0.8,2.5C139.5,302.8,140.6,305.5,138.2,306.1z"/>
		<path class="st110" d="M130.1,306c-0.8,0.1-1.6-0.3-2-1c-0.5-4.2,2-4.8,5.6-4.8C133.1,302.9,129.8,303.3,130.1,306z"/>
		<path class="st7" d="M142.1,284.1c-0.4,1.6,0.5,3.5-1,5c-0.8,0.5-0.3,1.5-1.1,2c-1.4-1.1-0.8-2.6-1-4c0.4-1.3-0.2-2.9,1-4l0,0
			c0.5-0.6,1.3-0.6,1.9-0.1l0.1,0.1h0.1c0.3,0.2,0.4,0.5,0.3,0.7S142.2,284.1,142.1,284.1z"/>
		<path class="st33" d="M140.1,283c0,1.4,1.4,3.2-1,4l-2-2C137.1,283,138.6,283,140.1,283z"/>
		<path class="st66" d="M140,291c-0.1-0.8,0.3-1.6,1.1-2c-0.8,1.7,3.4,3.4,0,5c0.1-0.8-0.3-1.6-1-2C140.1,291.7,140,291.3,140,291z"
			/>
		<path class="st46" d="M166,272c-2.7,1.8-5.3,0.7-8,0l-1-0.9c-1.4-0.1-3.3,0.1-2.8-2.3c0.4-1.6,1.1-1.7,3-1.7
			c1.3,0.1,2.6,0.4,3.8,0.9C162.4,269.7,166.2,268.4,166,272z"/>
		<path class="st72" d="M152,275c-1.2,0-3.1,0.5-3.5,0c-1-1.4,1.1-1.9,1.6-2.9c1,0.4,1.7,1.1,2.1,2L152,275z"/>
		<path class="st96" d="M127.1,337.9v1.1c-2.5-1.1-5.8,0.6-7.9-2c-2.4-4.2-5.6-8.2-1.2-13l0.1,0.1c1.8,2.1-0.6,5,1.3,7.1
			c0-0.2,0.3,1,0.2-0.1c-0.1-0.3-0.2-0.6-0.3-1c1.6-3.5,2-3.5,5.6,0C126.4,332.5,127.1,335.2,127.1,337.9z"/>
		<path class="st32" d="M119.2,336.9c2.5,1.2,6-1.4,7.9,2c0.3,1.6,0.9,3.5-2,3l-0.6-0.2c-1.6-1.5-3.6-0.1-5.4-0.7l-0.1-0.2
			C119,339.5,119.1,338.2,119.2,336.9z"/>
		<path class="st81" d="M118,341.9c0,1.2,0.3,2.7-1.5,3c-0.6,0-1.1-0.2-1.7-0.4c0.4-0.8,0.8-1.6,1.2-2.5L118,341.9z"/>
		<path class="st81" d="M116.1,342c-1.2-0.4-2.3,1.6-3.6,0.2c-0.1-0.1,0.4-0.8,0.6-1.2h1C114.9,340.9,115.6,341.3,116.1,342z"/>
		<path class="st70" d="M124.1,331c-1.3-0.5-1.3-3-3.2-2.5c-1.2,0.3-0.7,1.6-0.8,2.5c0.3,1-0.1,1.2-1,1c-3.6-2.3-0.9-5.3-1-8
			c1.7,0,3.2-0.2,4-2c1.1-0.7,2.1-0.1,3.1,0c1.3,0.3,2.5,0.4,3.8,0.3c0.4,0.1,0.9,0.3,1.2,0.5c0.2,0.4,0.2,0.8,0.1,1.3
			c-1,1.7-2,3.3-3.1,5C126.2,329.7,125,330,124.1,331z"/>
		<path class="st58" d="M129,323c-1.2,0.9-2.8,0.9-4,0c-1.2-0.8-2.2-1.8-3-3c-1-0.7-1-1.4,0-2c3.4-0.5,6.5,2.4,10,1
			c0.3-0.3,0.8-0.3,1.2,0c0.2,0.9-0.2,1.8-0.9,2.3C131.4,322.1,129.9,321.9,129,323z"/>
		<path class="st135" d="M122,320c1.3,0.6,2.4,1.7,3,3l-3-1V320z"/>
		<path class="st87" d="M126,356c1.4-1.4,0-3.4,1-5c1.8,0.4,2.5,3.5,5,2c0.3,0.3,0.5,0.7,0.6,1.1c-0.1,1.4-1.1,2.3-1.9,3.2
			c-0.5,0.7-1.1,1.3-1.9,1.7c-0.7,0-1.3-0.1-0.9-1.1c0.1-1-0.7-1.9-1.7-2C126.2,356,126.1,356,126,356z"/>
		<path class="st92" d="M128,358l1,1l0.6,0.2c2.7,3.6,0,4.1-2.6,4.8c-1.1-1.1-2.1-2.4-4-2.1c-0.2-2.2,1.5-2.5,3-3L128,358z"/>
		<path class="st87" d="M126.1,359c-0.4,1.6-2.2,1.8-3,3c-1.3,0.8-2.4,0.6-3-0.9l0.1-2C122.1,360.2,124.1,356.2,126.1,359z"/>
		<path class="st21" d="M265.2,349.9c3.3-0.4,6.4-2.2,9.8-2c-2.6,2.8-6.2,2.6-9.5,3.1c-2.8,0.4-2.4-2.3-2.7-4.4
			c-1.3,2-0.7,4.5-3,5.3c0.5-2.6,0.9-5.2,1.4-7.8c1.8-2.8,0.4-5.9,1-8.8c2-0.8,1,1.5,1.9,1.8c0,0.6,0.1,1.3,0.1,1.9
			C265.4,342.5,263.4,346.4,265.2,349.9z"/>
		<path class="st87" d="M278,354l-2.2,1.5l-1.7,0.5H269c-2.6-1-1.5-2,0-3c1.8-0.7,3.6-1.3,5.4-1.8C276.7,350.6,278.3,351.3,278,354z
			"/>
		<path class="st23" d="M298,339c3.5-3.5,8-5.3,12-8l0.6,0.2c0.6,0.4,0.8,1.2,0.5,1.8c-5,1.6-8.3,6.1-13.1,7.9
			c-0.8,0.7-2,0.8-2.8,0.2C295.7,339.8,297,339.6,298,339z"/>
		<path class="st135" d="M294,343.9l-4,5c-2.6-0.3-4.2,2.6-6.9,2.2c-0.7-1.1,0.4-1.5,0.9-2c2-2.5,6.2-2.1,7.4-6.1
			C292,340.9,292.5,345.1,294,343.9z"/>
		<path class="st23" d="M302.9,330.9c0.7,2.9-1.3,2.3-2.9,2.2c-4.9,1.8-7.5,7.2-13,7.9c1.8-2.9,6-3.2,7.1-6.8
			C296.7,332.3,299.4,330.3,302.9,330.9z"/>
		<path class="st136" d="M269,353c-0.3,1-1.6,2,0,3c-1,1-2,2.4-3.4,0.3c-1.3-1.8-1.7,0.5-2.6,0.7C262.7,352.1,265.7,352.4,269,353z"
			/>
		<path class="st137" d="M284,349l-0.9,2c-0.8,1-1.9,1.7-3.1,1.9C280.5,351,282,349.5,284,349z"/>
		<path class="st135" d="M295.1,341.1l2.8-0.2c0,0.4,0,0.7,0,1.1c-1.7-0.1-2.6,1.5-4.1,2C294.3,343,294.7,342,295.1,341.1z"/>
		<path class="st131" d="M271.3,279.3c-3.1,5.5-1.8,12.1-4.3,17.7c0-1.3-0.1-2.7-0.1-4c0.1-1,0.1-2,0.2-2.9l0,0
			c0.9-2.4,0.2-4.8,0.4-7.2l0.5-0.8c0.9-1.1,0.6-3.2,2.7-3.2L271.3,279.3z"/>
		<path class="st23" d="M316,325c-0.3,1-0.6,2-1,3l-1.1,2.8c-1.1,1.2-2.4,0.9-3.7,0.4L310,331C312,329,313.1,326.1,316,325z"/>
		<path class="st29" d="M310.2,331.1l3.7-0.4c-0.5,1.4-1.8,1.6-2.8,2.2L310.2,331.1z"/>
		<path class="st138" d="M265.2,349.9c-2.6-3.4-0.7-7.3-1.1-11c0.3,0,0.6,0,0.9,0C265.1,342.6,265.1,346.3,265.2,349.9z"/>
		<path class="st138" d="M264,337l-1.9-1.8c0.4-1,0.8-2.1,1.2-3.2h0.7L264,337L264,337z"/>
		<path class="st106" d="M267.5,282.8c1.2,2.3,1.1,5.1-0.4,7.2l-0.2-3C267.1,285.6,267.3,284.2,267.5,282.8z"/>
		<path class="st66" d="M144.1,298c0.1-2.4-1-5.4,2.8-6.1c1.3,4.6-1.4,8.7-1.9,13c-0.2,1.4,0.4,3-0.9,4.1l-0.6-0.4
			c-0.9-2.1-2.8-3.8-2.1-6.4C142.3,300.9,143.8,299.8,144.1,298z"/>
		<path class="st112" d="M132,321l1-2c0.9-0.9,1.9-0.6,2.9-0.5c1.4,0.2,2-1.1,3-1.7c0.4-0.1,0.8-0.1,1.1,0.2c0.8,2.5-1.5,4-2,6
			c-0.1,0.6-0.6,1.2-1.1,1.5c-1.8,0.3-1.3,4.1-4.1,2.8c-1-1-3.1-1.1-2.7-3.3c0-0.3,0-0.6,0-1C130.4,322,131.5,321.7,132,321z"/>
		<path class="st21" d="M137.1,324l1-1c3.3,0.6,3.7,3.6,4.7,6c-0.7,0.9,0.5,3-1.7,3c-2.1,0.7-1.2-3.2-3.5-2.3
			C136.8,327.8,135.7,326,137.1,324z"/>
		<path class="st68" d="M140,317h-1c-1.4-1.1-1.9-2.6-2.6-4.1c-0.3-0.9-0.2-1.9,0.4-2.7c1.9-0.9,2.7,0.9,3.4,1.9
			c0.9,1.3,1.7,1.8,3.1,0.9c0.3,0.7,0.2,1.4-0.2,2c-0.4,1.2,1.4,2.5-0.4,3.6S141.7,316.1,140,317z"/>
		<path class="st128" d="M143.1,315v-2.1c-2-3.2-1.9-3.7,0.9-4.1l0.1,0.3C143.7,311.1,144.8,313.3,143.1,315z"/>
		<path class="st139" d="M136.1,348c-2.4-2.7,0.8-6.1-1.1-8.9c-0.7-1.1-0.5-1.9,0.8-2.3c1.8,0.6,2.5,1.8,2.2,3.7
			c0.9-1.3-1.3-4.5,2.4-4.3c1.2,1.9,0.4,4,0.7,5.9v2l-0.5,0.5c-2.1,0.3-2.4,2.3-3.3,3.6C136.9,348.4,136.4,348.4,136.1,348z"/>
		<path class="st127" d="M136.1,348h1c1.5-1.1,2.2-3.2,4-4l0,0c0.3,0.4,0.9,1,0.8,1.1c-2,3-0.7,5.9,0.2,8.9c-0.4,0.5-1,0.7-1.6,0.5
			s-1.1-0.3-1.7-0.5c-1.6,0.2-3.1,1.2-4.9,0.9c-0.7-0.1-1.3-0.5-1.7-1c0-0.3,0-0.7,0-1C136.2,353.6,136.3,350.9,136.1,348z"/>
		<path class="st135" d="M140.1,336c-1.8,1.3-0.6,3.3-1.5,5.7L136,337c0-2,0.9-3.9,1.2-5.9c0.2-0.4,0.5-0.8,0.9-1
			c2.5-1.5,1.6,1.8,2.9,2c0.3,1.1,0.6,2.1,0.8,3.2C141.4,335.7,140.7,336,140.1,336z"/>
		<path class="st46" d="M140.1,336c0.3-0.7,1.1-1,1.8-0.8c-0.2,2.3,1,4.7-0.8,6.9C139.2,340.3,140.4,338,140.1,336z"/>
		<path class="st43" d="M140.1,354h1.9c0.1,0.8,0.2,1.6,1,2c0.1,0.3,0.1,0.7,0,1c-0.4,0.4-0.8,0.6-1.3,0.7c-1.1,0.2-2.2-0.6-2.4-1.7
			C139.1,355.3,139.4,354.5,140.1,354L140.1,354z"/>
		<path class="st29" d="M142.2,357h0.8l-0.1,8h-0.8C139.7,362.3,139.2,359.6,142.2,357z"/>
		<path class="st81" d="M449.1,276.8c1.8,1,0.9,2.9,1.5,4.4c0.7,1.8,1.5,2.9,3.5,2c-1.1,2.8-2.5,1.9-3.8,0.2
			C448.8,281.4,448.8,279.1,449.1,276.8z"/>
		<path class="st100" d="M451.6,286c0.5,0.8,0.8,1.2,0.9,1.6s-0.3,0.7-0.5,1.1c-0.3-0.3-0.8-0.5-0.9-0.8S451.3,287,451.6,286z"/>
		<path class="st44" d="M129,359c-0.1-0.8,0.3-1.6,1-2.1c2.4-1.5,3.5,0.9,5.1,1.7c0.4,0.1,0.9,0.4,1.3-0.1c0.1-0.9-0.9-1.7-0.4-2.6
			c1-1,2.1-2.1,3.5-0.5c0.5,2.2,0.4,4.6,1.1,6.8c0.6,1.3,0.4,2.7-0.6,3.8c-0.1,4.3-1.5,1.9-2.8,0.5s-2.9-4-3.3,0.5
			c-2.1-0.3-3.9,0.1-5,2.1L128,368c-0.7-1.7-1.2-3.4,1-4.6c2.8-1.5,1.8-2.9,0.1-4.4L129,359z"/>
		<path class="st123" d="M136,376c-1.4,0.6-2.3,2.1-4,2c-2.6-1.7-1.2-5-2.9-7c0-0.4,0-0.7,0.1-1.1c0.5-0.5,1.3-0.5,1.8,0
			c0,0,0,0,0.1,0.1C130.4,373.9,136.1,372.5,136,376z"/>
		<path class="st58" d="M131,370l-1.9-0.1c-0.1-0.3-0.2-0.5-0.1-0.8c0.3-1.3-0.6-3.1,1.3-3.9s2.6,1,3.7,1.8v2c-0.6,0.6-0.8,1.6-2,1
			H131z"/>
		<path class="st32" d="M140.1,365.9v-4c-0.7-1.6-0.7-3.4,0.1-5l2.1,0.1c-1.6,2.6-0.4,5.3,0,7.9
			C141.8,365.7,140.9,366.1,140.1,365.9z"/>
		<path class="st44" d="M137.4,374.6c1.2,0.5,2.8,0.6,2.7,2.5c0,0.3-1.1,0.8-1.6,0.6C136.7,377.4,137,376.1,137.4,374.6z"/>
		<path class="st44" d="M132.1,370l2-1c-0.4,0.9,1.4,2.3-0.4,2.8C132.5,372.1,132.2,371,132.1,370z"/>
		<path class="st119" d="M121.1,377c0.1,2,1.5,2,3,2v3c-1.7-3.5-5.8-0.7-8-3C118.1,379.4,119.5,377.9,121.1,377z"/>
		<path class="st89" d="M187.1,272.9c-2-0.2-4.2,0.8-6-0.9c0.8-0.9,2.2,0,3-1c-0.1-1.1-3-1.2-1-3
			C186.7,267.7,186.2,270.9,187.1,272.9z"/>
		<path class="st123" d="M270.7,278.8L268,282c0.1-2.2,0.1-4.4,3-5C270.9,277.6,270.8,278.2,270.7,278.8z"/>
		<path class="st140" d="M333,296v1c0.7,3.3-1,6.1-2.1,9c-2.4,3.2-4.7,6.5-7.8,9.1c-0.5,0.5-0.9,0.4-1.2-0.2
			c5.1-6.1,10-12.3,10.1-20.9c0.2,0.1,0.5,0.3,0.8,0.4C333.7,294.8,333.5,295.4,333,296z"/>
		<path class="st87" d="M333,296c-0.1-0.6-0.1-1.1-0.2-1.7c0.4-4.1,0.8-8.1-0.5-12.1c-0.1-0.4-0.6-1.4,0.6-1
			c0.4,0.1,0.7,0.6,1.1,0.9c0.9,1.5,1.3,3.2,1.1,4.9C332.5,289.5,335.5,293.4,333,296z"/>
		<path class="st52" d="M193.2,241.9l-0.3,2.3c-0.7-2.4-1.4-4.8-2-7.1C193.4,237.9,192.9,240.1,193.2,241.9z"/>
		<path class="st121" d="M184,271c-0.7,1.2-1.9,1-3,1c-0.8,0.3-2-4.2-2.5,0.2c-0.1,1-1.6,0.6-2.5,0.8v-0.1c-0.9-1.2-0.8-2.9-2-3.9
			c1.9-3.4,4.1-1.7,6-0.2C181.3,269.8,182.1,271.4,184,271z"/>
		<path class="st141" d="M174.1,269c3.1,0.1,2.4,2.1,2,3.9c-0.3,0.1-0.7,0.1-1,0c-0.6-1-2.2-1.4-2-3L174.1,269z"/>
		<path class="st62" d="M171,270c-0.1,1-0.3,2-1.6,1.8c-0.2,0-0.6-0.4-0.6-0.5C169,270.1,170.1,270.1,171,270L171,270z"/>
		<path class="st68" d="M301.9,253.9c2.7-2.1,4.9-0.4,7.1,1.1c2.8,2.7,7.5,1.9,9.9,5.4L305,255C304.2,254,302.7,255,301.9,253.9z"/>
		<path class="st142" d="M321.9,314.8l1.2,0.2c-3.3,2.2-6.6,4.6-10,6.6c-2,1.1-3.5,3-4.2,5.1c-1.6,2-4.1,2.6-6,4.1l0,0l-8.8,3.3
			c2.1-3.9,6.8-3.7,9.6-6.5c3.5-3.3,6.9-6.5,10.6-9.5C316.4,316.3,319,315.1,321.9,314.8z"/>
		<path class="st70" d="M294,256c1.7-0.1,3.2-1.5,5.1-0.9c-4.5,2.9-8.6,6.5-13.9,8.2c-0.1-1.3,0.8-1.9,1.7-2.4
			C289.4,259.5,292.5,258.9,294,256z"/>
		<path class="st70" d="M301.9,253.9c1.1,0.1,2.4-0.1,3.1,1.1l-5.9,0.1c0.3-1,1.2-1.1,2-1.3L301.9,253.9z"/>
		<path class="st87" d="M330.9,306c0.7-3,1.4-6,2.1-9C335,300.6,333,303.3,330.9,306z"/>
		<path class="st23" d="M302.9,330.9c1.5-2.2,3.6-3.3,6-4.1C308.2,330.1,305.5,330.3,302.9,330.9z"/>
		<path class="st125" d="M144.1,298c2,2.6,0.3,3.5-2,4c-0.8,0.6-1.5,2.2-2.1-0.1c0-1,0-2,0-2.9C141.2,297.8,142.4,296.7,144.1,298z"
			/>
		<path class="st87" d="M142.1,284.1c0-0.4,0-0.7,0-1c0.7-1,1.3-2,2-3C143.9,281.6,144.6,283.6,142.1,284.1z"/>
		<path class="st96" d="M129.1,359c3,1.2,2.8,3.3,0.7,4.8c-1.8,1.2-1.6,2.6-1.7,4.2c-1.4-1-0.8-2.6-1-4
			C127,362,132.1,362.1,129.1,359z"/>
		<path class="st81" d="M138,331c0.2,2.3-0.1,4.4-2,6c-0.7,0.5-1.1,1.3-1,2.1c-1.3,0.1-2.5-4-3.9-0.1h-1c-0.3-0.3-0.6-0.7-0.7-1.1
			c-0.2-2,1.1-3.4,2.1-4.8c0.3-0.3,0.7-0.6,1.1-0.8c1.5-0.3,2.9-0.8,4.3-1.6C137.3,330.6,137.7,330.7,138,331z"/>
		<path class="st110" d="M125.1,342c1.3,1.6,3,1.4,4.8,1c0.2,2.2-1.4,1.4-2.5,1.9c-1.8,0.8-4.4-2.5-5.3,1.1h-2
			c-0.8-1.7-1.2-3.5,0.8-4.6C122.3,340.6,123.8,340.2,125.1,342L125.1,342z"/>
		<path class="st133" d="M125.1,342c-3.5-1-5.4,0-5,4c-1.7-1.4-0.8-3.2-1-4.9C121.3,340,123.7,337.7,125.1,342z"/>
		<path class="st75" d="M130,338l0.1,1l-3-1.1c-2.4-1.7-1.4-4.9-3-7c-0.2-2.5,0.6-3.3,3-2c2.3,0.2,4.3,0.8,4.6,3.6
			C131.8,334.6,128.6,335.6,130,338z"/>
		<path class="st80" d="M142,283h-2c0.7-1.5-1.9-4.2,0.8-4.4C143.1,278.5,141.6,281.5,142,283z"/>
		<path class="st132" d="M140,301.9c0.6,1.2,1.4,0.1,2.1,0.1c-0.5,2.6,2.9,4.1,1.8,6.8c-2.6,0.8-0.3,2.8-0.9,4.1
			c-4.1,3.1-3.9-2.1-5.9-3l-0.4-0.5c-0.4-1.3,0.6-1.8,1.4-2.5c0.1-0.3,0.1-0.6,0.1-0.9C139.8,305.2,137.5,302.5,140,301.9z"/>
		<path class="st68" d="M136.1,320l-3.1-1h-0.9c-3.8-2.6-0.9-6-0.9-9c3.9-3.2,3.8,1.1,5.1,2.7C137,315.1,138.9,317.6,136.1,320z"/>
		<path class="st128" d="M136.1,313c-2.5,0.3-1.5-5-5-3c0.2-2.4,2.1-2.6,3.9-3c1,0.7,1.1,2.1,2,2.9l0,0c0,1,0,2,0,3
			C136.8,313.2,136.4,313.3,136.1,313L136.1,313z"/>
		<path class="st68" d="M137.1,310c-1.3-0.4-2.1-1.6-2-2.9l3-0.1L137.1,310z"/>
		<path class="st124" d="M119.1,332l1-1c1,0.6,2.1,1.2,1.5,2.6c-0.2,0.7-0.9,1.1-1.6,0.9C118.7,334.1,119.2,332.9,119.1,332z"/>
		<path class="st134" d="M131.1,333c-0.1-2.6-3.1-2.3-4-4c-0.2-2.4,1-3.9,3-5c0.7,1.3,3.2,0.8,3,3c0.8,1.4,0.2,2.7,0.1,4.1
			c-0.2,0.7-0.5,1.3-0.9,1.9H132C131.7,333.4,131.4,333.5,131.1,333z"/>
		<path class="st135" d="M132,321c0.1,1-0.6,1.9-1.6,2c-0.1,0-0.3,0-0.4,0h-1C129.1,321,130.6,321,132,321z"/>
		<path class="st47" d="M124.9,325.1c-0.6,0.3-0.9,0.7-1.3,0.7c-0.7,0-1.2-0.4-1-1.1c0.1-0.3,0.8-0.5,1.2-0.5
			S124.4,324.7,124.9,325.1z"/>
		<path class="st96" d="M135.1,360c-1.8-0.7-2.7-3.1-5-3l2-3h2c0.6,1.1,1.3,2.1,2,3c1-0.1,1.9,0.6,2,1.6c0,0.1,0,0.3,0,0.4
			C137.1,359.4,136,359.6,135.1,360z"/>
		<path class="st136" d="M132.1,331c-0.2-1.4,0.1-2.8,0.9-4c0.9-0.1,1.5-0.3,1.3-1.5c-0.6-3.2,1.1-2.3,2.7-1.6l1.1,6
			c0,0.3-0.1,0.6-0.1,1h-0.9C135.4,327.3,133.8,331.8,132.1,331z"/>
		<path class="st120" d="M136.1,313h1c1.8,0.8,2.1,2.3,2,4c0.1,1.5-1.1,2.9-2.6,3c-0.1,0-0.3,0-0.4,0
			C138,317.6,134.4,315.3,136.1,313z"/>
		<path class="st143" d="M141.1,344c-0.2,2-1.8,3.2-2.5,5c-0.5,1.5-1.2-0.2-1.5-1C136.9,345.1,137.1,342.7,141.1,344z"/>
		<path class="st80" d="M136.1,357c-2.4,0.2-3.4-0.6-2-3c1.9,0.9,3.1-1.8,5-1c0.6,0.5,0.6,1.4,0.1,1.9l-0.1,0.1L136.1,357z"/>
		<path class="st96" d="M139,355c0-0.7,0-1.3,0-2l1,1v3c0,1.7,0,3.3,0,5C138.1,359.9,139.4,357.3,139,355z"/>
		<path class="st128" d="M135.1,360c0.2-2.6,1.7-1.6,3-1C137.3,360.1,136.8,361.8,135.1,360z"/>
		<path class="st132" d="M132.1,331c1.3-1.3,2-3.8,4.4-3.2c1.1,0.3,0.4,2,0.6,3.1c-0.6,3.1-3.1,1.7-4.9,2L132.1,331z"/>
		<path class="st133" d="M131.1,333h0.9c0.4,2.1-2.2,3-2,5C127.7,335.8,130.5,334.6,131.1,333z"/>
	</g>
</g>
</svg>
