<?xml version="1.0" encoding="utf-8"?>
<!-- Generator: Adobe Illustrator 26.0.1, SVG Export Plug-In . SVG Version: 6.00 Build 0)  -->
<svg version="1.1" id="Layer_1_copy" xmlns="http://www.w3.org/2000/svg" xmlns:xlink="http://www.w3.org/1999/xlink" x="0px"
	 y="0px" viewBox="0 0 645 567" style="enable-background:new 0 0 645 567;" xml:space="preserve">
<style type="text/css">
	.st0{fill:#030202;}
</style>
<g id="Layer_2_00000103959098281748464650000017858885235633733302_">
	<g id="Layer_1-2_00000091702440147362623500000009567120175932086960_">
		<path class="st0" d="M91,215.8c1.3-3,2.1-6.1,2.2-9.4c1.1-8.8,6.1-16,9.8-23.7c4.8-5.4,8.8-11.4,14.4-16.1
			c0.7-0.6,1.5-1.2,2.3-1.6c4.3-3,8.7-5.8,11.9-10.1c6.5-4.3,14.2-5.7,21.2-8.9c3.6-1.6,6.7,1.5,9.9,3.1c5.6,3.7,11.9,6.2,17.1,10.7
			c5.8,5,8.2,10.9,7.7,18.3c-1.3,4.3-2.6,8.5-7.1,10.7c-2.1,1-4.1,1.7-6.2,0.8c-7.2-3.2-14.8-3.7-22.5-2.8c-1.1,0.2-2.3,0-3.4-0.4
			c-1.3-1.3-0.5-2.4,0.2-3.6c0.7-0.8,1.7-1.3,2.7-1.6c1.9-0.6,3.9-0.4,5.8-0.7c1.9,0,3.1-1.6,4.7-2.3c1.5-0.4,3-0.8,3.4-2.6
			c0.8-5.6-1.8-9.8-5.7-13.4c-0.8-0.6-1.5-1.2-2.1-2c-1.8-2.9-3-1.7-4,0.6c-0.4,3.1,0.9,3.7,3.5,2.4c3.6,2.6,3.1,6-1.2,9.4
			c-2.2-0.2-4.5-0.7-6.5-1.7c-1.5-0.7-3-1.2-4.5-1.8c-1.7-0.9-3.7-1-5.6-0.4c-0.8,0.2-1.6,0.4-2.4,0.7c-0.8,0.4-1.4,0.9-0.4,1.7
			s1.6,1.5,1.2,2.8c-1.1,1.4-2.5,2.5-4.1,3.2c-0.9,0.6-2-2.2-2.8,0.2c-0.5,0.7-1,1.8-1.8,1.6c-4.9-1.2-5.6,2.2-6.1,5.6
			c-0.4,3.2-0.9,6.3-4.7,7.7c3.3,1.9,5-1,7.2-2.1c0.8-0.5,1.6-0.9,2.5-1.3c4.4-2.2,9.3-2.1,11.7,0.1c-0.2,1.6-1.5,2.2-2.7,2.6
			c-5.9,1.4-10.7,5-15.7,8c-4.4,2.6-7.2,7.2-10.8,10.8c-1.6,0.9-2.7-0.4-3.9-1.1c-1.7-1.2-0.4-2.4,0-3.6c0.1-0.4,0.1-0.9,0.1-1.3
			c-0.1-1.2,0.3-2.3,1.3-3c3.8-3.1,2.5-7.5,3.1-9.7c0.3,3.2-0.8,5-5.3,6.6c-1,0.2-1.9,0.4-2.8,0.7c0.3,0.4,0.9,0.5,1.3,0.8
			c1,2.3-1.6,3.3-1.7,5.1c-3.8,1-1.6,4.1-2.7,6.8c2.7-1,4.6-2.1,6.7-2.6c1.6,1,2.5,2.7,1.1,4.1c-2,1.9-1.2,4.2-1.8,6.3
			c-0.7,4.8-4.3,7.8-6.8,11.4c-2.1,0.9-3.9,0.9-5-1.6c-0.3-1.1-0.1-2.3,0.5-3.2c2.9-4.4,2.9-4.4-2.2-6.2
			C90.2,218.8,90.4,217.4,91,215.8z"/>
		<path class="st0" d="M91,215.8c0.1,1.4-0.1,3.1,2.1,3.2c2.7,3.2-0.2,6.5,0.2,9.8c0.1,0.7-0.1-0.1,0.2,0.5c0.3,0.7,0.4-0.2,0.7-0.2
			c1.1,1.6,2.7,1.3,4.3,1.1c0.8,1.2,0.3,2.3-0.3,3.4c-1,1.4-1.8,2.8-2.5,4.4c-1.9,5.6-2.6,11.6-1.9,17.5c0.4,4.7-0.3,9.5,0.3,14.2
			c1.2,8.9,0.8,18,4.9,26.4c0.1,0.1,0.1,0.3,0.2,0.5c-0.2,9.8,7.2,15.6,11.9,22.8c2.3,6.1,8.5,8,13,11.8H124
			c4.2,2.3,8.9,3.4,13.1,5.8l1,0.2c5.9,3.7,12.6,4.8,19.3,6l11.6-1.2c4.8-0.7,7.8-4.9,12.4-6.2c0.5-0.1,1-0.1,1.4,0
			c1.9,1.4,1.1,2.9,0.2,4.5c-0.4,0.6-0.9,1.1-1.4,1.6c-2.7,2.6-4.9,6-9.2,6.3c-1.3,0.7-2.6,1.4-3.8,2.1c-9.9,4.4-19.1,1.1-28.3-2.4
			h0.1c-4.1-2.7-9.4-2.5-13.2-5.8l-0.2-0.3l-0.4,0.1c-2.1-0.9-3.5-3-5.7-3.6c-9.1-4.9-16.7-11.4-21.5-20.7c-1.6-3.1-4.8-5.2-5-9
			l0.2-0.3l-0.2-0.2c-0.6-0.8-1.2-1.5-1.8-2.4c-1.2-6.1-3.7-11.8-5.2-17.8v0.1c-3-3.6-1.2-8-1.9-12c-1.4-8.8-1.6-17.7-1.9-26.6
			c-0.1-7.6,1-15.2,3.5-22.3C88.8,223.4,88,219,91,215.8z"/>
		<path class="st0" d="M372,280.1c1-2.7,2-5.4,2.9-8.1l2-3.1c0.5-0.7,1.2-1.4,1.9-1.9c2.7-1.8,5.2,1.1,7.9,0.4
			c2.1,0.7,5.3-0.6,5.6,3.2c-1,1.8-2.8,1.6-4.4,1.5c-2.5-0.5-5,1-5.8,3.5c-0.6,1.9-1.5,3.6-2.8,5.1c-3.5,4.8-4.1,10.4-4.5,16
			c-0.6,2.1-0.9,4.4-2.7,5.9c-1.7,1.4-1.7,3.2-1.5,5.2c0.1,1.7,0.7,3.5-0.4,5.1c-1,0.6-2.1-1-3.1,0.1c-2.2-3.4-0.3-6.9-0.2-10.4
			c1.8-4.2,0.6-8.8,1.5-13.1c0.4-1.9,1.1-3.8,1.6-5.7C370.8,282.8,370.9,281.1,372,280.1z"/>
		<path class="st0" d="M195.2,312.6l0.1-0.4l-0.3-0.3c-0.9-1.9-1-4.1-0.2-6c0.9-4.6,0.5-9.3,0.2-14c-1-4.7,1.6-7.7,4.7-10.5
			c0.5,0,1,0.2,1.4,0.6c-3.5,7.8-2.9,16.2-3.3,24.4c-0.4,5.8,2.3,11.3,7.1,14.5c3.2,0.1,6.1,1.1,8.2,3.8c1,1.3,2.4,1.6,3.9,1.9
			c0.8,0.5,1.4,1.3,1.7,2.2c0.2,0.8,0.7,1.5,1.5,1.8c1.3,0.5,3.4,0.5,2.7,2.7c-0.6,2-2.4,2.6-4.4,2.5c-2.6-0.1-4.4-2.3-6.9-2.7
			C202.2,329.5,198.5,321.2,195.2,312.6z"/>
		<path class="st0" d="M109.9,209.9c3.7-4.9,7.6-9.3,13-12.8c5.2-3.4,11-4.9,16.2-8.1c2.4-2.9,5.6-3.4,9-3c9.2-0.7,18.2-0.9,27,2.7
			c3.2,1.3,8.8-2.6,9.9-6.4c0.3-1.6,0.9-3.1,1.9-4.5l0.6,0.6c-0.1,1.8,0.7,3.8-0.6,5.5l0.1-0.1c-4.1,7.3-8.3,8.9-15.8,6
			c-8.8-3.2-18.3-3.2-27.1-0.1c-3.5,2.4-7.7,3-11.3,5.1l-0.4-0.1L132,195c-5.7,4.1-12,7.2-17.2,11.8h0.1c-1.5,1.6-2.2,4.1-5,4.4
			c-0.2-0.2-0.3-0.5-0.3-0.8C109.8,210.1,109.8,209.9,109.9,209.9z"/>
		<path class="st0" d="M294.9,331.7c-2,2-0.2,3.3,1,4.5c1.9,1.8,3,4,1.4,6c-1.8,2.2-3.3-0.9-5.1-1.3c-4-3.5-5.4-8.3-6-13.4l0.1-0.3
			l-0.2-0.3c0.4-4.7-1.8-9.6,0.8-14.2c1.7,1.3,1.5,3.3,1.4,5c-0.1,4.8,0.7,9.6,2.3,14.1c-0.3-6.1-1.4-11.4-0.7-16.6
			c0.4-2.7,0.4-5.8,3.9-6.9c0.5,0,1,0.2,1.3,0.5C291.5,316.5,292.1,324.1,294.9,331.7z"/>
		<path class="st0" d="M307,351.9c0,1.4,0.1,2.7,0.1,4.1c-0.2,9.7-0.4,19.3-0.7,29c-0.1,3,0.5,6.2-1.4,9c-0.4,0.3-0.9,0.3-1.2-0.1
			c0,0,0,0,0,0c-1.4-4.4,0.5-8.8,0-13.2c-0.2-1.5,0.8-3.4-1.4-4.3c-0.4-0.2-0.8-0.5-1-0.9c-0.4-0.9-0.2-1.9,0.5-2.6
			c0.1-1.7,0.1-3.3,0.2-5c-0.8-0.7-0.9-2-0.2-2.8c0.1-0.1,0.1-0.1,0.2-0.2c0-1,0-2-0.1-3c0.8-3-0.7-6.1,1-9l0.6,0.5
			c0.3,0.4,0.4,1,0.5,1.5c-0.1,2.7,0.5,5.5,0.3,8.2c0.1,1.5-0.1,3,0.8,4.3c-0.3-1.1-0.5-2.3-0.4-3.5c0-1.4,0-2.8-0.1-4.2
			c-0.1-3.2-1.9-6.9,2.3-9c0.3,0.2,0.5,0.5,0.4,0.7S307.1,351.9,307,351.9z"/>
		<path class="st0" d="M162.1,149.9c2.1-0.2,3.8,1.7,6,1.2l0.9,0.1c2.9,1.2,5.6,2.8,8,4.8l0.2,0.3l0.4-0.1c2.8,1,4,3.6,5.4,5.9l0,0
			c3.8,1.4,4.4,4.8,4.9,8.1l-0.1-0.1c1,1.7,1,3.7,1.5,5.5c0.4,1.4,0.3,3.1-2.1,2.7l-0.4-0.4c-0.2-13.8-9.7-19.9-20.5-24.9
			C164.7,152.2,162.8,151.9,162.1,149.9z"/>
		<path class="st0" d="M169.1,349l3-2.2c5,1.1,7-2.3,8.9-5.9l1.1-1c1.8-1.4,3.2-2.8-0.1-4.1l0,0c-1,0.9-2.5,1.1-3.7,0.5
			c-1-3.1,2.3-1,2.8-2.4c1.8-1.5,3.2-0.6,3.9,1.1c1,2.2,2.7,4.2,2.8,6.8c-1.2,2.4-3.7,2.2-5.8,3.1l-1.9,2c-0.3,1-1.1,1.7-2.1,1.8
			h0.1C175.1,349.7,172,349.8,169.1,349z"/>
		<path class="st0" d="M314.1,288.2c-1.2-1.9,0.8-4.4-1.1-6.2c1-3.4-0.4-7.1,3.3-10.2c1.3-1.1,1.1-2.2,3.3-1.4
			c1.3,0.5,2.3-1.5,3.4-2.5l0,0h0.9c0.4,0.3,0.6,0.7,0.7,1.1c0,0.5-0.1,0.9-0.3,1.3c-1.8,2.6-4.5,4.5-6,7.3
			c-1.5,1.5-2.1,3.7-1.5,5.8C317.2,285.6,317.1,287.9,314.1,288.2z"/>
		<path class="st0" d="M371,324.1l-0.9-2.1c-0.8-1.1-1.9-2.1-1.5-3.7c0.2-0.4,0.7-0.6,1.1-0.6c1.9,0.5,3,2,4,3.5
			c4.5,6.9,7.6,7.9,15.2,5c0.9-0.4,1.8-0.9,2.6,0.2c0.6,1.2,0.8,2.6,0.4,3.9c-0.1,0.6-0.4,1.1-0.7,1.5c-4.2,0.7-8.3,1.4-12.2-1h0.1
			C376.3,328.7,373.1,327.1,371,324.1z"/>
		<path class="st0" d="M199.9,282l0.2-2.7c0.8-1.3,1.2-2.9,2.1-4.2v0.1c0.5-2.2,1.8-4,3.6-5.2c0.4-0.4,0.8-0.8,1.2-1.2
			c1.1-1.5,2.6-2.7,4.2-3.6l-0.1,0c1.7-3.1,4.2-2.8,6.9-1.5c0.6,2.4,3.9,2.7,4.1,5.4c-0.6,0.5-1.3,0.7-2,0.5c-2.2-0.2-3.8-3.5-6.2-2
			c-3.3,2.1-6.6,4.3-8.6,7.9c-1.2,2.3-2,4.9-4.4,6.4L199.9,282z"/>
		<path class="st0" d="M523.1,292.4c1.1-5.2,1.3-10.6,0.4-15.9c-0.3-2.1-0.8-4.9,2-5.2c2.6-0.2,2.3,2.7,2.5,4.5
			c0.3,0.7,0.3,1.4,0.2,2.1c-0.4,0.8-2.7-0.8-2,1.5c1.2,3.9,0,7.8-0.2,11.6c-0.1,1.5-0.8,2.9-1.9,4c-0.5,0.3-1,0.2-1.4-0.1
			C522.9,294.1,523,293.2,523.1,292.4z"/>
		<path class="st0" d="M329,330.9c-5.5,1.6-11.6,1.5-16,6.1c-0.3,0.3-0.7,0.4-1,0.1c-0.1,0-0.1-0.1-0.1-0.2c0.2-5.5,4.6-5.8,8.5-6.4
			c1.5-0.2,2.2-0.4,1.6-1.9c0.6-1.1,1.8-2.1,2.8-1.8c3.4,1,6.9-0.5,10.2,0.8c0.4,0.3,0.5,0.8,0.2,1.2c0,0-0.1,0.1-0.1,0.1L329,330.9
			z"/>
		<path class="st0" d="M386,268c-2.4,2.2-4.8-2.2-7.2-0.1c-0.7-1.6,0.1-2.4,1.5-2.7l1.6-0.1l-0.1,0.1c1.7,0.8,2.9-0.3,4.1-1.2
			c4.8-1.4,7.2,2.2,10.2,4.8l-0.4,0.5C392.3,270,389.6,265.8,386,268z"/>
		<path class="st0" d="M303.9,393.9l1,0.1c-1,5.3-1.2,10.8-0.7,16.1c0.2,1.7,1.1,3.6-1.2,4.8c-2-0.7-3.7-2.2-4.5-4.1
			c-0.1-0.9,0-1.9,0.2-2.8c0.4-0.3,0.8-0.4,1.3-0.4c1.9,0.3,1.6-1.1,1.7-2.2c0.1-2.4-0.1-4.9,0.1-7.3
			C302,396.5,301.3,394.3,303.9,393.9z"/>
		<path class="st0" d="M353,261.1c1.4,2.3,4,3.9,4,7c-0.3,0.3-0.7,0.5-1.1,0.5c-0.4-0.1-0.8-0.3-1.1-0.5c-0.8-1.2-1.1-2.6-2.4-3.5
			c-0.7-0.5-1.4-1-2.1-1.4c-4.8-2-9.5,0.7-14.2,0.4c-0.5,0.1-1,0.2-1.5,0.1c-0.8-0.1-1.5-0.3-1.6-1.3c2-3.8,5.9-0.8,8.5-2.3
			C345.1,260.8,349.2,258.8,353,261.1z"/>
		<path class="st0" d="M269.1,300.2c1-1.7,0.9-4.1,2.8-5.4c2.1,2.3,0.5,4.7,0.1,7c-0.7,4-1.2,7.9,2.3,10.9c0.4,0.7,0.4,1.6,0,2.4
			c-1.8,1.3-3.1,0.5-4.2-1l-1.1-2.1c-0.7-3.6-0.6-7.4,0.1-11c0.2-0.1,0.3-0.4,0.2-0.7C269.2,300.3,269.2,300.3,269.1,300.2z"/>
		<path class="st0" d="M104,183l0.1-1.9c1.2-3.2,3.3-6,5.9-8.1v-0.1c1.1-2.1,2.8-3.8,4.8-4.9c0.2,0,0.4-0.2,0.4-0.5
			c0-0.1,0-0.1,0-0.2l2.8-0.4L104,183z"/>
		<path class="st0" d="M348,319.9c-3.9,1-5.9,5.2-10,6c1-5.4,6.3-6.7,9.5-9.9c1.4-1.4,3-3.3,5.5-2.2c0.5,2.8-1.1,4.1-3.4,5
			L348,319.9z"/>
		<path class="st0" d="M368.7,318.2l1.3,3.8c-5.5-1.8-4.9-6.7-5.3-11c0.8-2.6-0.9-5.6,1.3-8c0.3,0.6,0.8,1.2,0.7,1.8
			C365.8,309.6,367.1,313.9,368.7,318.2z"/>
		<path class="st0" d="M488.7,336.7c2.5-1.8,3.4,0.3,4.3,2c1.5,2.6,1.2,5.4,0.6,8.1H491c-2-0.2-2.6-1.8-3.3-3.2
			c0-0.5,0.3-0.9,0.7-1.1c3.2,0,3.5-1.4,1.8-3.8C489.6,338.1,488.8,337.6,488.7,336.7z"/>
		<path class="st0" d="M492,280.2c-0.5-0.1-1.1,0-1-0.8c-0.9-0.8-0.6-1.6,0-2.5c2.2-0.5,3.7-2,5.2-3.5c2-0.7,3.8-0.6,5,1.5
			c0.1,0.5,0,1-0.4,1.3C497.4,276.6,494.9,278.8,492,280.2z"/>
		<path class="st0" d="M429,282c0.3,1.7-0.7,3.6,1,5c2.4,3.5,7,2.7,10,5c-1.3,1.3-3,1.2-4.6,1.2c-1.4,0-2.7-0.4-3.8-1.2
			c-1.6-1.4-3.4-2.4-4.3-4.5c-0.7-1.8-0.6-3.8,0.3-5.5C427.9,281.8,428.5,281.7,429,282C429,282,429,282,429,282z"/>
		<path class="st0" d="M414.9,340H414c-5.8,0.3-4-3.9-4.1-6.9l0.2-0.2c1.7-0.5,2.5,0.8,3.5,1.7c1.1,1.2,1.8,2.7,2,4.3
			C415.5,339.4,415.3,339.8,414.9,340z"/>
		<path class="st0" d="M435,292l5,0.1c0.1,0.2,0.4,0.3,0.6,0.2c0.1,0,0.1-0.1,0.1-0.1c3.3,1.7,7.4,1.3,10.5,3.7
			c-1.3,1.6-3,1.4-4.8,1.1c-2.6-0.8-5.4-1.5-8-2.3C437,294.2,434.9,294.4,435,292z"/>
		<path class="st0" d="M483.1,279c0.1-3.3,4.2-4,4.8-7c0.8-1,1.9-1.8,3.1-2.1l3-0.9C492,274.1,487.9,277,483.1,279z"/>
		<path class="st0" d="M527.9,314.2c-1.1-2.2-2.7-4.1-4.8-5.5c-1.9-1.9-0.3-4.6-1.3-6.7c-0.2-0.4-0.1-0.9,0.2-1.2l0.7-0.1l0.6,0.3
			c0.3,0.3,0.6,0.7,0.7,1.1c1,2.1,0.9,4.8,2.8,6.5c1,1,1.7,2.3,2,3.6C528.8,313,528.5,313.7,527.9,314.2z"/>
		<path class="st0" d="M178.2,336.1l3.7-0.3c-4.1,2.5-7.8,6.1-13.1,6c2.1-2,5.4-2.1,7.3-4.6C176.5,336.3,177.4,336.2,178.2,336.1z"
			/>
		<path class="st0" d="M536,333c3,2.1,1.2,5.4,2.1,8c-1.7,3.2-3.2,0.5-4.8-0.1l-0.5-1.8C537,338.7,533.9,334.5,536,333z"/>
		<path class="st0" d="M323,268c-2.2,0-4.7,0.5-6.2-1.9c-1-1.6-0.1-2.7,1.8-4.4C316.4,267.3,322.8,264.8,323,268L323,268z"/>
		<path class="st0" d="M299.2,407.9l-0.3,3.2c-0.4,0.4-0.7,0.2-0.8-0.2v-10.7c1.5-1.7-0.3-4.5,2.1-5.9c0.7,0.8,1.1,1.9,1.1,2.9
			c0.1,1.3-0.1,2.7-0.4,4C300,403.3,300.8,405.9,299.2,407.9z"/>
		<path class="st0" d="M432,262.9c0-0.3,0-0.6-0.1-0.9c2.6-4.7,7.2-2.5,11-3.1l0.2,0.3C440.2,262.8,435.9,262.4,432,262.9z"/>
		<path class="st0" d="M500.9,270c4.3,0.6,4.4,3.7,4.2,7c-1.7,1.4-3,0.1-4.4-0.8l0.5-0.6c1.5-1.6-0.1-2.5-0.7-3.7
			C500.3,271.3,500.4,270.5,500.9,270z"/>
		<path class="st0" d="M341.3,260.1c-2.5,1.9-6.6-1.1-8.3,2.8c-0.1,1-1.1,1.7-2,1.5c-0.2,0-0.3-0.1-0.5-0.1l-0.4-0.5
			C332.5,258.7,337.1,260.1,341.3,260.1z"/>
		<path class="st0" d="M251.1,334.1l-3.1-2.9c0.2-0.4,0.6-0.7,1-0.8c1.9,0.4,3.9,0.6,5.8,0.4l0.4,0.3
			C254.5,333.1,253.9,335.1,251.1,334.1z"/>
		<path class="st0" d="M270,314.1c1.4,0.1,2.4,1.9,4,0.9c0.8-0.8,2.1-0.9,2.9-0.2c-0.6,0.7-1.3,1.5-1.9,2.2
			C272.8,317,270.3,317.4,270,314.1z"/>
		<path class="st0" d="M473.1,293.2l2.9-3.1c1.2,3.3,1,5.9-3,6.9l-0.1-2L473.1,293.2z"/>
		<path class="st0" d="M460.2,327.2c-0.2,1.7-1.8,2.3-2.6,3.6h-0.4L457,331l-2-0.1c-0.3-0.4-0.3-0.9-0.1-1.3
			c1.2-1.4,2.3-2.9,4.3-3.1C459.7,326.5,460,326.8,460.2,327.2z"/>
		<path class="st0" d="M328.4,265.1l1.7-1.4c0.1,0.2,0,0.4-0.1,0.6c0.5,0.4,0.7,1.2,0.4,1.8c-0.3,0.6-0.7,1.2-1.2,1.7
			c-1.3,1-2.5,2.4-4.4,1.2C324.7,266.6,326.6,266,328.4,265.1z"/>
		<path class="st0" d="M487.8,343.1l-3.8-1.2c-0.3-0.9-1-1.7-1.9-2c-0.3-0.2-0.4-0.5-0.4-0.8c0-0.3,0.1-0.4,0.2-0.4
			c0.4-0.2,0.9-0.4,1.3-0.4c1.9,0.5,3.2,1.8,4.6,3c0.3,0.4,0.4,0.8,0.3,1.3L487.8,343.1z"/>
		<path class="st0" d="M328.4,265.1l-3.5,3.8c-0.3,0.5-0.6,0.5-0.9,0c0-0.3,0-0.6-0.1-1C324.5,265.7,326.2,265,328.4,265.1z"/>
		<path class="st0" d="M393,331l-1.9,0.1V330c1-1.5,2-3,4.2-2l-0.3,1.6L393,331z"/>
		<path class="st0" d="M241,292l1.8,1.3c0.4,1.2,0.8,2.5,1.1,3.7l-0.7,0.2C241.1,296.1,239.7,294.6,241,292z"/>
		<path class="st0" d="M522,301l-0.1-5l0.9-1.1h1.1c0.9,2,0.5,4.5-1,6.1L522,301z"/>
		<path class="st0" d="M380.3,265.2l-1.5,2.7l-1.8,1C377.3,267,377.5,264.9,380.3,265.2z"/>
		<path class="st0" d="M245,299v2c-3-0.5-3.3-1.8-1.2-3.9l0.2-0.1C245,297.3,244.5,298.4,245,299z"/>
		<path class="st0" d="M155,172.1c3.5-3.2,3.9-6.4,1-8c0-2.8-3.1-1.5-4-3c2.6-5.9,2.3-5.5,6.9-1.1c1.3,1.2,1.5,7.1,6.1,3.7
			c0,0,0.9,0.7,0.8,0.9c-1,3.5-0.6,6.5,2.4,8.9l-2.1,2.5c-0.6,0.5-1.3,0.8-2.1,0.6c-1.7-0.5-3.4-0.9-3.4-3.2
			c0.4-1.1,1.8-2.2,0.3-3.5c-0.4,0.9,0.3,1.9-0.3,2.8c-0.8,1.4,0.4,2.5,0.5,3.8c0.1,1-0.2,1.9-0.8,2.7c-1.5,0.9-2.8,0.4-4-0.4
			c-1.7-1.5-0.2-3.8-1.4-5.4C154.8,172.9,154.8,172.4,155,172.1z"/>
		<path class="st0" d="M126.1,191c-2,1.1-3.4,3.3-5.8,3.8c-1.8,0.3-3.4-0.3-4-2.1c-0.6-2,0.7-2.7,2.4-2.7c2.1,0,1.8-1.6,2.4-3
			c1.1-2.5-1.3-6.3,3.2-7.7c1.5-0.5-1.9-2.1-1-3.3c2.6-2.6,4.2,5.4,6.7,0c2.9,5,2.6,5.7-2.7,6.1c-1.5,0.1-2.8,0.4-1.7,2.4
			C127.2,186.7,126.8,188.8,126.1,191z"/>
		<path class="st0" d="M148.1,186l-9,3c-2.5-0.9-8.5-0.3-11,1c-0.3-0.3-0.5-0.8-0.4-1.2c0.5-2.6,4.2-2.5,4.5-5.3
			c0.2-0.6,0.4-1.3,0.7-1.9c0.3-0.9,0.8-1.6,1.6-2.2c0.6-0.4,1.2-0.7,1.9-0.8c0.9,0.1,1.8,0.6,2.2,1.5c0.7,2.6,2.1,3.8,4.9,2.8
			c1.9-0.1,3.7-1.2,5.6,0.1L148.1,186z"/>
		<path class="st0" d="M105.1,197c5-0.2,5.2-3.7,4.7-7.4c-0.2-1.2-1.5-2.9,0.5-3.3c2.2-0.4,1,1.8,1.5,2.6c2.6,4-1.9,7.6-0.4,11.5
			c0.5,1.2-1.4,1.4-2.5,1.6c-2.3,0.4-1.2,1.8-0.8,3c-2.1,1.8-3.6-0.4-5.4-0.8l-0.6-0.2c-1.9-2.6,2.2-2.2,2-4
			C104.1,199,104.4,197.9,105.1,197z"/>
		<path class="st0" d="M149.1,183c-2,0.3-3.9,1.4-6,1c-1.2-2.7,1.7-5.2,0.1-7.9c-1.8-0.8-1.3,0.7-1.5,1.5c-0.4,2.1-1.8,2.6-3.6,2.4
			l-2-1c-0.4-2,1-3.5,1.5-5.2c0.8-2.3-3.4-3.2-1.5-5.8h2.9c1.7,2,3.7,3.5,6.5,3.6c1.6,0.9,1.6,2.6,2.2,4.1c0.3,1.3,0.6,2.5,1,3.7
			c0.5,0.9,1.2,1.6,2,2.2l0.3,0.5C150.6,182.7,149.8,183.1,149.1,183z"/>
		<path class="st0" d="M108.1,206c-0.6,1-2.2,1.5-2,3l0,0c-0.9,2.2-4.2,1.8-4.9,4.5c-0.2,0.5-2.8-0.4-2.8-1.8
			c0.1-2.4,0.5-4.8,0.5-7.3c0-2.2,2.4,1.9,3.2-0.4l0,0C104.2,204.1,105.9,205.8,108.1,206z"/>
		<path class="st0" d="M134.1,182l-1,1c-0.8,2.7-2.7,3.8-5.4,3.6c-0.8-0.6-1.3-1.8-2.6-1.6c-1.4-0.1-2.2-0.8-1.7-2.2
			s2.4-2.8,3.4-2.3c7.7,3.3,2.3-3,3.3-4.4c1.5-1.1,2.1,0.4,3,1l0.5,0.5C134.7,178.9,132.8,180.6,134.1,182z"/>
		<path class="st0" d="M94.1,229c-0.1,1.2,0.3,2.7-1.3,3.3c-1.3-4.4,0.5-8.8,0.3-13.3c2.2-0.2,4,0.7,4.7,2.8s-0.6,3.2-2.4,4.1
			C94.6,226.4,94.5,228,94.1,229z"/>
		<path class="st0" d="M145.1,172c-3.8,1.4-5.5-0.5-6-4c2-1.8,4-0.9,6.1,0C145.8,169.4,147.4,170.7,145.1,172z"/>
		<path class="st0" d="M156.1,178l4,1c0.5,1.8-1.8,1.7-2,3h-7l0,0c-0.5-0.5-0.7-1.2-0.5-1.9c0.4-0.8,1-1.4,1.9-1.8
			c0.6-0.2,1.2-0.3,1.8-0.4C154.9,177.9,155.5,177.9,156.1,178z"/>
		<path class="st0" d="M119.7,165.9c3.7-3.9,7.3-7.8,12.3-9.9C129,160.6,124.7,163.7,119.7,165.9z"/>
		<path class="st0" d="M152,161c1,0,1.9,0,2.9-0.1c4.4-0.4,2.3,1.5,1.1,3.1l-1.9,2.7C153.4,164.7,151.8,163.3,152,161z"/>
		<path class="st0" d="M110.1,211.1c0.2,0.3,0.1,0.6-0.1,0.9c-3.8,1-3.1,5.5-5.9,7.3c0.5-2.1,0-4.5,2.1-6.2c1.5-1.2,0.4-2.7-0.2-4.1
			l0,0l3.8,0.9C109.9,210.3,110,210.7,110.1,211.1z"/>
		<path class="st0" d="M117.3,184.9c-2.5,0-1.7-1.9-2-2.9s0-2.4,1.7-2.3c1.9,0.2,2.3,1.8,2.4,3.2
			C119.5,184.6,117.6,184.1,117.3,184.9z"/>
		<path class="st0" d="M138.1,174.1c0.4,1.9-0.4,3.9-2,5l-1,1c-1.1-0.7-0.9-2.2-2-3l0,0c0.9-1.6,2-2.9,4-3
			C137.4,173.6,137.7,173.5,138.1,174.1z"/>
		<path class="st0" d="M138.5,163.1c-1.6-0.2-3.4,0.4-3.7-1.7c-0.1-0.6,1.2-1.3,1.3-1c1.3,3.3,4.4-2.1,5.1,1
			C141.7,163.3,139.5,162.8,138.5,163.1z"/>
		<path class="st0" d="M145.1,172c1-1.3,0-2.7,0-4l4.1,1.9c0,0.2,0,0.4,0,0.6c-0.1,0.8-0.2,1.6-0.4,2.3c-0.4,1.1-0.6,2.4-1.7,3.2
			C145.4,175.2,146.7,172.9,145.1,172z"/>
		<path class="st0" d="M138.1,174.1h-1c-0.3-0.6-0.5-1.5-0.9-1.6c-5.4-1.4-1.9-2.9-0.1-4.4C136.1,170.3,138.7,171.6,138.1,174.1z"/>
		<path class="st0" d="M175.8,180.9c-0.3,1.4-1,2-2.1,2c-1.3,0-1.6-0.9-1.6-1.9s0.6-1.8,1.8-1.7C174.8,179.4,175.5,180,175.8,180.9z
			"/>
		<path class="st0" d="M158,182c-0.1-1.6,1.4-2,2-3v-3c0.9-0.8,1.9-0.5,2.9-0.3c1,1.5-0.1,2.3-0.9,3.3
			C160.8,180.2,159.7,181.5,158,182z"/>
		<path class="st0" d="M105.1,197c0.8,1.4,0.6,2.4-1,3l-3.5-0.2C101.6,197.7,103.3,197.3,105.1,197z"/>
		<path class="st0" d="M125.1,185c1.1-0.5,2-0.8,2,1c1.4,0.7,1.3,1.8,1,3v1l-2,1C124.4,189.2,126.7,186.8,125.1,185z"/>
		<path class="st0" d="M162.1,179c0.3-1,0.7-2,1-3c0.3-0.4,0.7-0.4,1,0h2C166.4,179.2,164.2,179.1,162.1,179z"/>
		<path class="st0" d="M155,172.1c0,0.3,0,0.6,0,1l-0.5,0.4c-2.8,0.4-5.7,1.1-5.5-3.4l0.1-0.1C151.1,170.8,153.4,170.6,155,172.1z"
			/>
		<path class="st0" d="M108.1,206c-2.4,0.4-4.2-0.7-6-2c2.5-2.8,3.7,2.4,6,1V206z"/>
		<path class="st0" d="M115.6,200.3c-0.3,0.1-0.7,0.5-1.1,0.5s-1-0.3-0.7-0.9c0.2-0.3,0.5-0.5,0.8-0.6
			C115.2,199.3,115.6,199.5,115.6,200.3z"/>
		<path class="st0" d="M181,341c-1.2,5.7-4,7.6-8.9,5.9C176.3,346.8,177.9,342.7,181,341z"/>
		<path class="st0" d="M182,335.8c1.4-1.4,2-0.4,2.3,0.8c0.4,1.8,0.1,3.3-2.3,3.3C182.6,338.6,183.8,337.2,182,335.8z"/>
		<path class="st0" d="M97.2,233.1l-0.2,2.7l-1.8,1.4C95.2,235.5,95.5,233.9,97.2,233.1z"/>
		<path class="st0" d="M310,308.9c1.3-5.2,0.8-10.8,3-15.9c1.7-3.6,4.6-6.8,3.3-11.3c-0.5-1.7,1-3,2-4.3c0.6-1.6,1.7-2.9,3.2-3.8
			c1.2-0.3,2.4,0,3.3,0.7c0.4,0.3,0.7,0.6,0.9,1c0.3,0.8,0.4,1.7,0.4,2.6c2.6,4.1-0.7,6.5-2.8,9.2c-4.8,4.9-5.8,11.2-6.8,17.6
			c-0.1,1.3-0.3,2.6-0.6,3.9c-0.3,0.6-0.8,1.1-1.4,1.5c-0.9,0.6-1.5,1.6-1.6,2.6c-0.4,1.5-0.5,3.1-0.4,4.7c0.1,2,0.1,4,0,6
			c-0.5,3.5,1.2,4.8,4.4,4.7c2.6,2.9,2.6,2.9-2.5,4c-1.6,0.4-3.8-0.1-4.3,2.4c0.1,4.4-2.2,8.4-2.1,12.8c0,0.8-0.2,2-1.6,2
			c-2-1.7-1-4.1-1.2-6.1c1.7-4-0.9-7.6-0.8-11.5c0.5-1,1.2-1.9,2.1-2.6c1.9-2.3,1.3-5,1.3-7.6C307.7,317,308,312.8,310,308.9z"/>
		<path class="st0" d="M302,278.9c2.6,2.8,2.8,6.3,2.8,9.9l0,0c-1.2,2.5-1.4,5.5-4.1,7.1c-2.9,4-3.9,8.7-5.6,13.1l-1.3-0.1
			c-2-3-1.1-6,0.3-8.9c1-2.3,2.3-4.4,3.7-6.5c2.6-3.4,4.4-7,3.2-11.5C300.7,281,301.1,279.7,302,278.9z"/>
		<path class="st0" d="M319,277c-3.1,4.1-1,9.6-3.9,13.8c-0.6,0.9-0.8,2.1-2.2,2.1l1.1-4.8c2-1.2,2.5-2.8,1.6-5
			c-1.1-2.7-0.2-4.8,2.1-6.3C318.3,276.4,318.7,276.5,319,277z"/>
		<path class="st0" d="M306.7,329.9c1.5-6.2,1-12.6,1.3-18.9c0.4-0.9,0.6-2.1,2-2.1c-0.5,5.7-1.2,11.3-1,17
			C309.2,327.6,308.3,329.2,306.7,329.9z"/>
		<path class="st0" d="M300.8,295.9c1.5-2.3,2-5.1,4.1-7.1c-0.1,0.5-0.1,1,0,1.5C306.7,294.5,304.7,295.9,300.8,295.9z"/>
		<path class="st0" d="M310.3,286.5c-0.1,1.5,0.9,3.2-0.8,4.1c-0.4,0.2-1.9-0.7-1.9-1.2C307.4,287.6,309.1,287.3,310.3,286.5z"/>
		<path class="st0" d="M430.1,275.3l-0.2,1.7c-1,1.1-0.8,2.7-1.7,3.9c-1.1,1.7-1,3.7-0.8,5.6c0.3,3-1,3.8-3.7,3.2
			c-1.4-0.7-1.4-2-1.7-3.3c-0.1-2-0.1-4,0-6c0-0.5,0.1-0.9,0.3-1.3c1-1.4,1.8-2.8,2.5-4.4l0.7-0.9c0.9-0.2,1.1-1.2,1.9-1.6
			c0.5-1,3.5,0,2-2.5c0.3-1,1.1-1.8,1.4-2.8l-0.1,0c1.4-2.5,2.7-5.2,6.2-5.1c1.9,1.6,1.9,1.6,0,2.5c1.2,0.9,4.7-1.6,3.7,2.5
			c-0.7,1-2,1.3-2.7,2.4v-0.1C435.2,270.9,432.8,273.3,430.1,275.3z"/>
		<path class="st0" d="M408.4,312.2c-0.5,0.6-0.9,1.2-1.4,1.9c-1.4,0.6-2.4,0-3.3-1c-0.8-2.9,2.4-4,3.5-5.7c4.6-7.2,2.9-13.3-1-19.7
			c0-4.4-2.2-8.2-3-12.4c0.1-0.5,0.4-1,0.8-1.3c2.4,2.7,4.5,5.5,4.7,9.4c0.2,2.2,0.5,4.9,1.8,6.6c3.5,4.4,2.3,9.2,2.3,14
			C411.9,306.9,411.1,310,408.4,312.2z"/>
		<path class="st0" d="M440,302l-0.4-0.2l-0.4,0.1c-1.6-1.1-3.7,0.8-5.1-1l0,0l-5.2-2.7c-0.2-0.2-0.3-0.5-0.3-0.8
			c0.1-0.3,0.1-0.4,0.2-0.4c0.9-0.3,1.9-0.3,2.8,0c1.8,0.6,3.6,0.9,5.4,1c1.2,0.2,2.3,0.5,3.4,0.9c1.6,0.5,3.1,1,4.7,1.5
			c1.9,0.7,3.8,0.4,5.7,0.7c0.5,0.1,1,0.2,1.5,0.3c4.6,0.9,6.9,3.7,6.8,8.4c0,0.8-0.2,1.6-0.5,2.4c-0.2,0.5-0.7,0.9-1.1,1.1
			c-0.5,0-1-0.3-1.2-0.8c0-6.4-0.5-6.7-6.8-8.1C446.3,303.6,442.9,303.7,440,302z"/>
		<path class="st0" d="M436.8,262.2c-2.8,0.6-4,3.1-6,4.7c0.4-1.3,0.8-2.7,1.2-4c3.3-2.5,7.5-2.1,11.1-3.8c4.1-0.7,8.2-1.7,10.8,3
			c0.4,0.5,0.3,0.9-0.3,1.2C448.2,260.5,442.4,263.4,436.8,262.2z"/>
		<path class="st0" d="M422.9,286.2c0,1.1-0.1,2.2,1,2.9c0.8,0.6,1,1.7,0.5,2.5l-0.5,0.5c-4.6-6-4.5-13.1,0.1-16.9
			c1.1,1.7-0.5,2.6-1.1,3.8l0,0C422.2,281.3,422.2,283.8,422.9,286.2z"/>
		<path class="st0" d="M404,273.9l-0.2,1.2c-3.4-0.6-6.3-2.8-7.9-5.8c0.1-0.1,0.2-0.3,0.2-0.4C399.5,268.8,402.6,270.8,404,273.9z"
			/>
		<path class="st0" d="M408.4,312.2c1.5-2.8,3-5.6,4.5-8.4l0.4,1.2c-1.1,2.6-2.2,5.3-3.3,7.9L408.4,312.2z"/>
		<path class="st0" d="M427.9,273l-2.4,0.8c0.9-2.9,2.7-5.4,5.3-7c0.4,1.2-0.5,2.1-0.9,3.1C429.3,271,428.7,272,427.9,273z"/>
		<path class="st0" d="M429,297l-0.1,1.2c-3.3-0.7-3.3-4-5-6.1l0.4-0.4c0.9-0.3,1.9,0.1,2.5,0.8C427.9,293.8,429.8,294.7,429,297z"
			/>
		<path class="st0" d="M422.9,279l1.1-3.8c0.2-0.2,0.5-0.4,0.8-0.4C426.2,277.1,424.7,278.1,422.9,279z"/>
		<path class="st0" d="M385.9,264c-0.7,2.5-2.1,3-4.1,1.2L385.9,264z"/>
		<path class="st0" d="M492.2,302.9c7.1-0.6,14.3,0.1,21.4-1.2c1-0.2,2,0.3,2.5,1.2c0.5,5.2-0.6,6-5.2,6.7
			c-5.8,0.9-11.7-0.3-17.5,0.8c-1.7,0.3-3.6,0.6-5.3-0.5c-0.7-0.5-0.4-1-0.2-1.6c-0.5-0.9-1.6-1.4-1.6-2.6c-0.1-1.7,1.1-3.2,2.9-3.5
			C490.1,302.1,491.2,302.4,492.2,302.9z"/>
		<path class="st0" d="M527.9,314.2c0-0.8,0.1-1.5,0.2-2.2c2.6,0.2,1.5,3.5,3.4,4.3c1.7,4.1,1.7,8.5,2.5,12.8l0.9,2.2
			c0,2.1-0.7,4.1-3,4.1c-2.7,0-2-2.8-2.8-4.4c-2.3-2.4-0.1-5.4-1.1-8C527.8,320,527.8,317.1,527.9,314.2z"/>
		<path class="st0" d="M488,309.9c7.3-0.3,14.6-0.6,22-1c3.8-0.2,6.2-1.8,6.1-6c1.7,0.9,1,2.7,1.6,3.9l-1.1,3
			c-3.6,2.4-7.7,0.4-11.5,0.8c-5.1,0.4-10.4,1-15.5,0.4C489,310.9,488.5,310.3,488,309.9z"/>
		<path class="st0" d="M529,331c1.8,4.8,3.8,3.3,5.8,0.2c1,0.2,0.9,1.1,1.2,1.8c0.2,1.3,0.5,2.5,0.7,3.8s0.5,2.4-0.4,3.2
			c-1.4,1.2-2.2-0.9-3.4-1C530.3,337.1,528.9,334.1,529,331z"/>
		<path class="st0" d="M487,306l0.9,2.3c-4,0.6-8.6-3.1-12.1,1.6c-0.4,0.3-1,0.1-1.2-0.3c-0.1-0.1-0.1-0.2-0.1-0.3
			c-0.2-3.9,2.1-5.4,5.5-5.3C482.3,304.1,484.9,304.3,487,306z"/>
		<path class="st0" d="M474.9,309.7c0.3,0,0.6,0.1,0.9,0.2c-1.1,2-1.6,4.1,0,6.1c-0.2,1.3,1,2.6,0.1,3.9c-2.8-0.4-2.7-3-3.6-4.9
			C472.5,313,470.3,309.8,474.9,309.7z"/>
		<path class="st0" d="M329,267l1.1-1c0.9-2.1,3.6-1.5,4.8-3.2v0.1c5.5-0.3,10.9-1,16.4,0l1.8,0.9c1,1.2,1,3,2.2,4.1
			c0.2,0,0.5,0.1,0.6,0.3c1.6,3,2.9,6.1,4.3,9.2c0.7,1.5,2.2,3.1,0.6,5c-2.3,2.1-0.3,4.1,0.1,6.1c0.1,3,0,5.9,0.1,8.9
			c0,1.9-0.2,3.6-2,4.8c0,0.3-0.1,0.6-0.3,0.8c-1,0.9-2.3,1.3-3.6,1c-0.5-0.1-1-0.4-1.3-0.7c-1.1-2.1,0.5-3.8,0.8-5.8
			c0.2-1.7,0-3.4,0.8-5c0.2-0.4,0.6-0.7,1.1-0.7c0.5,0,0.9,0.3,1.1,0.8c0.4-0.6-0.3-0.8-0.5-1.2c-0.4-0.5-0.7-1.1-0.9-1.6
			c-0.4-1.6-0.5-3.2-0.9-4.8c1.2-6.1,0.6-11.6-5.7-14.9c-4.6-3.3-8.7-3.5-13-0.3c-2.7,2-5.9,3.1-8.4,5.3c-0.8,0.9-2.3,1-3.2,0.1
			c0,0,0,0,0,0l0,0c-0.9-0.7-1.5-1.8-1.6-2.9c0-0.4,0.2-0.9,0.5-1.2C326.1,270.4,327.9,269,329,267z"/>
		<path class="st0" d="M360,282c1-3.4-1.6-5.9-2.7-8.7c-0.6-1.7-1.5-3.2-1.5-5.1l1-0.2c6.4,9.5,4.9,20.2,4.8,30.8
			c0,1.7-0.2,3.5-2.6,3.3c1.8-4.9,0.6-10,0.9-15C358.8,285.4,359.2,283.7,360,282z"/>
		<path class="st0" d="M368.7,318.2c-4.6-4.4-2.2-10.1-2.7-15.2c0.3-0.1,0.5-0.2,0.8-0.3c1,1.5,1.3,3.5,0.7,5.2
			c-0.6,1.7-1.1,3.5,0.4,5.1c0.4,0.3,0.7,0.6,0.9,1c0.5,1.2,1.2,2.5,0.3,3.9L368.7,318.2z"/>
		<path class="st0" d="M355,303l3.7-0.1l-1.7,5.2c-1.4,1-1.3,3.1-3,3.9c-1.6-1.3-2.2-2.8-0.8-4.6C354.2,306.1,354.3,304.4,355,303z"
			/>
		<path class="st0" d="M372,280.1c-0.2,1.6-0.6,3-2.1,3.9C369.6,282.4,370.5,280.7,372,280.1z"/>
		<path class="st0" d="M302,278.9c2.8,7.9-1.3,13.8-5.7,19.6c-2.4,3.1-2.3,6.8-2.4,10.4c-4.6,4.9-2.7,10.9-2.4,16.4
			c0.1,3.3,0.8,6.6-0.4,10.4c-4.2-7.6-4.1-15.3-4.2-23c1.3-8.3,2.6-16.5,8-23.5c1.8-2.7,2.2-6.1,1-9.1c-0.2-0.4-0.5-0.8-0.8-1.1
			c-2.8-3.7-3.5-3.7-6-0.3c-0.4,0.5-1,0.7-1.7,0.6c0.6,0.2,1.3-0.1,1.7-0.6c0.6-0.7,1.1-1.5,2.2-0.7c0.4,0.6,0.2,1.4-0.3,1.9l-1,0.9
			c-5.3,2-7.4,6.2-7.8,11.5c-1.1,5.5-4.1,10.4-4.6,16c-0.2,2-1.6,3.8-3.6,4.4c-3.6,0.1-3.7-2.5-4-5c-0.5-4.6,1.8-8.7,1.9-13.1
			c2.8-3.5,4.4-7.3,3.7-11.8c-0.4-2.2-0.2-5-3.4-5.2c-3-0.2-6-0.1-7.5,3.4c-1.5,3.6-3.1,7.3-4.6,10.9c-1.2,1.2-1.4,3.1-3,4
			c-2,1.6-1.2,3.8-1.2,5.9c-0.3,9.7-4.2,19.2-1,29c-1.9,2.1-3.8,2.4-5.7,0c-4.8-4.2-2.2-9.2-1.4-14c0.7-1.4,1-3,0.9-4.5
			c0-2.4,0-4.8-0.1-7.2c0.6-2.7-0.7-5.5,0.4-8.1c0-1.9-1-3.4-1.7-5.1c0.3-4,3.2-7,3.9-10.8s1.6-7.6,2.3-11.4
			c0.6-2.8,1.8-4.4,4.8-2.6c1.9,1.1,4.2,1.3,6.3,0.7c4.4-1,8.5,0,12.6,1.3c0.7,0.4,1.6,0.6,2,1.2c2.8,4.2,5.4,3.2,8-0.1
			c1.2,0,2.3-0.2,3.4-0.6c3.1-1.6,5.5-2,6.6,2.4C297.8,274.8,302,275.4,302,278.9z"/>
		<path class="st0" d="M274,313c3.8-6.6,4.7-14.3,8-21.1c0.3-0.3,0.8-0.2,1.1,0.1c0,0,0,0,0,0.1c-1.1,6.8-5,12.9-4.2,20.1
			c0.2,1.5-1.3,1.8-1.9,2.6l-3,0.2C274,314.4,274,313.7,274,313z"/>
		<path class="st0" d="M283.1,292.1l-1.1-0.2c0.1-1.3,0.8-2.8,0.2-3.8c-2.1-4,0.3-4.7,3.3-5.4c1.5-0.4,3-1,4.4-1.7
			c-0.6,1.9-1.6,3.6-2.9,5C285.3,287.7,284.4,290,283.1,292.1L283.1,292.1z"/>
		<path class="st0" d="M283,292c0.5-2.6,1.3-5,4-6C285.8,288.1,285.9,291,283,292z"/>
		<path class="st0" d="M296,279l-0.1,1.2l-4.9-0.1V278C293.1,276.4,294.7,277,296,279z"/>
		<path class="st0" d="M436.8,262.2c3.5-0.6,7-1.1,10.5-1.9c2.9-0.6,4.3,2,6.5,2.7c1.5,0.7,2.7,1.8,3.7,3.1c0.9,1,1.6,2.2,0.7,3.5
			s-2.2,1.1-3.5,0.4l-0.8-1c-1.2-2.5-3.2-3.7-5.9-4.5c-1.9-0.5-2.1,0.6-2.9,1.5l0.1-0.1c-1.8,0.3-3.3,2-5.3,0.8l0.4-1.4
			C438.5,265.4,437,264,436.8,262.2z"/>
		<path class="st0" d="M454.7,270.1c2.7-0.2,4.5-0.9,2-3.8c-1-1.1-2-2.2-2.9-3.3c0-0.3,0-0.6,0.1-0.9c2.5,1.2,4.1,3.4,5.5,5.7
			c1,1.7,0.6,3.2-1.2,4.1C456.1,273,454.9,272.5,454.7,270.1z"/>
		<path class="st0" d="M445.1,266.2c0.8-1.3-0.5-2.3-0.7-4.1c3.6,2.3,8.8,1.5,9.5,7.1C451.3,267.1,448.9,264.7,445.1,266.2z"/>
		<path class="st0" d="M430.1,275.3c2.3-2.6,4.3-5.5,8-6.2C436,272,433.7,274.5,430.1,275.3z"/>
		<path class="st0" d="M439.9,267c1.8,0,3.4-1.4,5.3-0.8c-1.8,2.4-4.8,1.9-7.1,3C438.2,268.2,438.9,267.4,439.9,267z"/>
		<path class="st0" d="M427.9,280c-0.1-1.3,0.7-2.6,2-3c0.8,1.9-0.6,3.4-1,5c-0.3,0-0.7,0.1-1,0C427.4,281.5,427.4,280.6,427.9,280
			C427.9,280,427.9,280,427.9,280z"/>
		<path class="st0" d="M533.9,329c-2-4.1-1.6-8.8-3-13c-1.7-3.3-3.2-6.7-2.9-10.5c0.6-1.9,0.6-4,0.9-5.9c0.7-2.1,0.6-4.3,1.3-6.4
			c1-1.6-0.2-5.4,3.9-4c-2.3,7.7-4.2,15.1-2.2,23.4C533.2,317.8,535,323.3,533.9,329z"/>
		<path class="st0" d="M549.9,279l-1,0.9c-4-0.2-6.9,2-9.8,4.2c-0.3,0.4-0.8,0.4-1.1,0.1c-0.1-0.1-0.1-0.1-0.2-0.2
			c0.1-4.3,3.9-5.2,6.6-6.6c4.8-2.4,9.8-4.8,15.5-2.8c0.3,0.4,0.4,1,0.1,1.5C556.8,277.6,553.3,278.2,549.9,279z"/>
		<path class="st0" d="M537.9,284l1.2,0.1l-5,5c-3.7,0-1.3,3.8-3.1,5c-1.6-1.5-1.3-3.3-1-5.1C531.9,286.4,534.7,284.6,537.9,284z"/>
		<path class="st0" d="M257,296c1-1.4,1.1-3.3,3-4C259.9,294,259.5,295.8,257,296z"/>
		<path class="st0" d="M395.9,269.2l7.9,5.8c1.9,4.1,4.1,8.1,3.1,13l-0.7,0.2c-3.4-3.4-3.1-8.8-6.6-12c-2.6-1.7-6.9-0.9-7.7-5.3
			c-0.7-3.6-4.7-0.6-6-2.9c1-3.2,3.1-2.1,5.1-1.2C392.7,267.5,394.3,268.4,395.9,269.2z"/>
		<path class="st0" d="M371.3,302.1c-0.1,3.5-0.6,6.9,0.4,10.3c1.9,6.7,8.8,10.6,15.5,8.8l0.4-0.6c1.5-1,2.9-1.9,4.6-0.5
			c-0.2,3.1-2.7,3.5-4.9,4.1c-7.3,1.9-13.7-1.4-17.9-9c-0.2-0.7,0-1.5,0.5-2.1C370.7,309.4,366.9,305.2,371.3,302.1z"/>
		<path class="st0" d="M392,270.9c2,2.9,5.3,3.4,8.1,5c-0.3,0.6-0.8,0.7-1.3,0.2c-2.4-0.4-4.8-1.3-6.8-2.7c-4-3-7.4,0.6-11,1.9
			C382.7,268.7,387.9,271.3,392,270.9z"/>
		<path class="st0" d="M373.9,296.9c-0.3-6.2,0.3-12.2,5-17l0.2,0.2c0.6,5-0.1,7.1-3.5,10.4c-0.1,0.1-0.3,0-0.5,0
			c0.3,0.4,0.5,0.8,0.7,1.2c0.3,2,1.1,4.3-1.8,5.2L373.9,296.9z"/>
		<path class="st0" d="M369.9,313l0.1,2c-1.1,0.6-1.5-0.4-2-1c0-0.3,0-0.6,0-1C368.6,309.6,369.2,313.4,369.9,313z"/>
		<path class="st0" d="M415,339l-2.2-3.7c-0.2-1.5-2.4-2.8-0.5-4.4c1.2-1,2.1,0.2,2.9,1v0c1.6,1.4,3,3.1,5,4.1c4,1.1,7.7-0.9,11.6-1
			c2.4-1.1,4.3-0.2,6,1.4c1.2,0.7,2.9,0.5,3.5,2.2c-6.8,1.6-13.3,5.4-20.7,4.1C418.1,342.2,417.1,339.7,415,339z"/>
		<path class="st0" d="M398.1,325.3l-1,0.7c-2.4-0.1-2.4-0.1-1.6-4.5c2.8-2.2,4.5-6.1,8.9-6c1,3.1-0.5,5.4-2.8,7.2
			C400.4,323.6,398.9,324,398.1,325.3z"/>
		<path class="st0" d="M437,337c-1.7-0.8-3-2.7-5.3-2.1l2.6-1.8c2-1.6,4.8-0.3,6.7-2c1.8-0.9,3.6-0.6,5.5-0.5
			c1.1,3.6-2.2,2.1-3.5,3.1c-0.4,0.2-0.9,0.3-1.3,0.4c-1.9,0.2-2.8,1.9-4.1,2.9L437,337z"/>
		<path class="st0" d="M396,322c1.1,0.7,0.8,1.5,0.1,2.4c-1,1.3,0,1.5,1,1.7l-1.9,2L391,330l-0.1-4C392.2,324.1,393.2,321.9,396,322
			z"/>
		<path class="st0" d="M398.1,325.3c0.8-3.4,5.9-3.6,6-7.6c0-0.6,0.5-1.2-0.1-1.7c-0.8-0.7-0.9-2-0.2-2.8c0.1-0.1,0.1-0.1,0.2-0.2
			l3,1C405.2,318.7,404,323.9,398.1,325.3z"/>
		<path class="st0" d="M415.1,331.9c-5.4-2.1-1.3,2.4-2.3,3.4l-2.7-2.3c0.3-1.4-0.5-3.5,2-3.7C414,329.1,415.2,329.7,415.1,331.9z"
			/>
		<path class="st0" d="M420.1,335.9c-2.6-0.2-4-1.9-5-4.1C417.5,332.2,418.7,334.2,420.1,335.9z"/>
		<path class="st0" d="M474.9,309.7c-3.1,0.8-1,3.6-2,5.2c-0.8,0.8-2,0.8-2.8,0.1c0,0,0,0-0.1-0.1c-0.8-6.3,0.6-12.2,3-18
			c2.5-1.6,2.7-4.2,3-6.9c2.4-3.7,3.6-8.1,7.1-11.1l10.9-10l0,0c2.3-0.8,4.4-0.8,6.4,0.9c0.2-0.1,0.5,0,0.6,0.2
			c0.1,0.6,0.2,1.2,0.3,1.8c-0.8,2.9-3.6,0.2-4.9,1.7c-1.7,0.9-2,3.5-4.3,3.5c-0.7,0.6-1.1,1.5-1,2.4l-1.8,1.6
			c-3.6,3-5.4,7.3-8.1,10.9c-3.1,4.2-1,8.2,4.2,9.4c1.2,0.3,3.5-1.1,3.8,1.6c-1.3,0.4-2.1,1.7-2,3c-1.8-0.1-3.7,0.2-5.4-0.4
			C477.5,304.2,475.7,306.1,474.9,309.7z"/>
		<path class="st0" d="M470,315h2.9c1,1.7,2,3.3,3,5c0.2,1.6,2.2,2.9,1.1,4.8c1.9,1.7,2.3,4.4,4.1,6.2l7.6,5.8l2.3,1.2
			c1.1,3-0.1,4.3-3.1,4.1c-2.2-0.2-3.3-2.2-4.9-3.3c-3.2-2.1-5.8-5.1-7.3-8.6c-2.2-1,0.6-4.6-2.7-5c-0.1-0.3-0.1-0.7,0-1
			c-0.6-2-0.8-4.2-2-6.1C470.3,317.1,469.5,316.2,470,315z"/>
		<path class="st0" d="M452,302c-0.3,0-0.6-0.1-0.9-0.1c-0.3-0.2-0.7-0.5-0.9-0.8c-0.8-1.4-2.1-1.9-3.5-2.3c-0.9-0.3-1.6-1-1.9-1.9
			c0.1-0.7,0.3-1.5,1.3-0.8l5.3-0.2c0.3-0.1,0.6,0,0.7,0.2c1.4,0.9,3,0.7,4.5,1.4c0.8,0.5,1.2,1.5,1,2.4c0.1,0.5,0.1,0.9,0.1,1.4
			C456,303.8,453.9,301.9,452,302z"/>
		<path class="st0" d="M462.9,314.9c-1.5,2.3-1,5-1.2,7.5c-0.1,1.7,0.1,3.6-1.5,4.8l-0.5-0.5c-0.4-0.6-0.5-1.3-0.4-2
			c0.4-1.6,0.4-3.2,0-4.8c-0.6-2.5-1-5-0.2-7.5c0.4-1,1.3-1.7,2.4-1.9c0.5,0,1.1,0.1,1.5,0.5C463,312.3,463,313.6,462.9,314.9z"/>
		<path class="st0" d="M463,311l-1.2-0.2c-1.4-0.4-1.9-1.7-2.6-2.8c-0.4-1.5-1.1-3-0.1-4.5c0.2-0.4,0.6-0.6,1-0.8
			C462.1,305.2,463.9,307.6,463,311z"/>
		<path class="st0" d="M470.9,318c2,1.6,2.3,3.8,2,6.1C472.1,322.1,470.6,320.3,470.9,318z"/>
		<path class="st0" d="M457,300c-0.3-0.7-0.6-1.4-0.9-2.1c-0.7-0.5-1.7-0.7-1.1-2c2.4,0.2,3.3,1.7,3.2,4
			C457.9,300.3,457.4,300.3,457,300C457.1,300.1,457,300,457,300z"/>
		<path class="st0" d="M455,295.9l1.1,2c-1.6,0-3.1-0.6-4.1-1.8L455,295.9z"/>
		<path class="st0" d="M457,300l1.2-0.1l2,2.9l-0.4,0.3c-1.7,0.3-2.2-1-2.8-2.1L457,300z"/>
		<path class="st0" d="M233.1,331.2c-0.1,0.5-0.2,0.9-0.9,0.8c-1.7,0.4-3.4,1.1-5.1,1.6c-3.7,1-4.6-0.1-3-3.5
			c2.2-1.8,5.1-2.5,7.1-4.7c2.1-1.9,3.1-4.6,5.7-6c0.4-0.2,0.9-0.3,1.4-0.3c1.8,0.3,2.3,1.1,1.3,2.7s-1.9,3.5-3.1,5.1
			C235.4,328.4,234.6,330.1,233.1,331.2z"/>
		<path class="st0" d="M236,327l3.1-5.6c0.7-1.2-0.2-1.3-1-1.4c-0.1-2.6,2.7-3.2,3.4-5.2c1-1.1,1.9-2.4,2.8-3.6
			c0.8-1.4,0.4-3.2,1.8-4.3c1.6-0.1,1.8,1.1,2.1,2.3c0.3,1.4,0.1,3,1.7,3.8c0.3,1.5,0,3-0.9,4.2c-1.4,0-2.8-0.2-4,0.8
			c-3.9,2.6-5.8,6.9-8.8,10.4c-0.4-0.1-0.6-0.6-0.5-1C235.8,327.2,235.9,327.1,236,327z"/>
		<path class="st0" d="M225,330c-1,2-2,4,1.9,3c1.8-0.4,3.6-0.6,5.3-0.9c-2.3,2.3-5.8,1.9-8.3,3.8c-4.9,1.4-9.1,0.2-12.4-3.6
			c1.9-0.6,3,1,4.4,1.7c2.9,1.5,3.4,1.4,6.4-1.1c-0.7-2.1-6.1,0.9-4.3-3.8c2.4-0.4,4.9-0.3,7.3-0.9C225.6,328.7,225.5,329.5,225,330
			z"/>
		<path class="st0" d="M244.9,317.9c1.1-1.2,2-3.9,4-0.8c-2.4,4.6-2.6,9.2,0.2,13.8l-1.2,0.4c-2.6-2.7-2-6-2-9.3
			C246,320.6,247.7,318.5,244.9,317.9z"/>
		<path class="st0" d="M236,327c0.1,0.4,0.1,0.9,0.2,1.3c-0.5,1.4-1.6,2.5-3,3L236,327z"/>
		<path class="st0" d="M543.8,271.9c3.2-3,7.7-1,11.2-2.8c3-0.1,5.9-0.1,8.9,0.1c2.5,0.3,4.8,1.1,6,3.8c0.8,1.7,1.2,3.7-0.2,5
			s-3-0.1-4.5-0.7c-0.4-0.3-0.6-0.8-0.5-1.2c-0.1-1.1,3.3-0.6,1.3-2.7c-1-0.4-1.9-0.8-2.8-1.3c-2.2-1-4.3,0.4-6.4,0.2
			c-0.7,0-1.4,0-2.1,0c-1.9-0.1-3.9,0.1-5.8,0.6c-1,0.3-2,0.3-3.1,0.2C545,273,544.3,272.5,543.8,271.9z"/>
		<path class="st0" d="M564.7,276.3c5,2.5,5,2.5,5.2-3.3c1.4,1.2,1.2,3,1.6,4.6c0.6,1.9-1,3.4-2.4,2.3c-6.3-5-12.8-1-19.2-1
			c3-2.1,6.6-2.1,10-3.1C561.6,274.8,563.2,274.4,564.7,276.3z"/>
		<path class="st0" d="M201,282c2.2-6.4,6.5-12,12.2-15.7c3.8-2.7,4.4,2.1,6.8,2.7c-0.4,1-1.1,1.9-1.8,2.6c-0.6,0.6-1.5,1-2.4,0.9
			c-4.9-2.7-2.6,1.9-3.4,3.4c0.6,3.4-1.5,5.4-4,7.1c-3.5,3.3-2.9,7.9-3.5,12c-0.5,1.6-0.7,3.3-0.6,5c0,1.2-0.1,2.5-0.4,3.7
			c-0.3,1.4-0.7,2.7-1.2,4.1c-1.1,1.6-1.8,3.4-1.1,5.4c0.2,0.4,0.3,0.8,0.4,1.2c0.9,2.3,2.8,3.9,3.4,6.4c0.1,0.4-0.1,0.9-0.4,1.2
			c-6.5-2.1-8.4-8.3-8.5-13.3c-0.1-6.1-0.2-12.5,0.9-18.6C198,287.1,199.2,284.3,201,282z"/>
		<path class="st0" d="M225.1,328c-2,2.7-4.5,2-7,0.9c-0.3-0.6-0.7-1.3-1-1.9c1.4-1.8,4-1.9,5.3-3.9c3-1.4,4.9-4.6,8.4-5.4
			c1.2,0.8,0.8,2.4,1.7,3.4c0,1.4-0.6,2.7-1.6,3.5C228.8,325.8,227.8,328.4,225.1,328z"/>
		<path class="st0" d="M223,323.9c-1.2,2.6-3.5,3-6,3.2c-1.7,1-3.2,0.7-4.2-1c-1.8-3-4.6-3.9-7.7-4.2c0-0.3,0-0.6,0-1
			c-0.4-1.6-0.2-3.3,0.6-4.8c2.9-1,2.9,2.3,4.6,3c0.5,0.4,1,0.9,1.5,1.4c2.1,2,3.6,5,7.4,3.5C220.4,323.7,221.6,322.8,223,323.9z"/>
		<path class="st0" d="M303,353c1.6-4,0.3-8.3,1.9-12.3c0.8,0.6,0.6,1.6,0.6,2.4c-0.1,2,0,3.9,0.1,5.9c0.3,2-0.1,3.6-2.3,4.3
			L303,353z"/>
		<path class="st0" d="M305.2,343.2c-0.1-0.9-0.3-1.7-0.4-2.5c-0.6-1.5,0.7-3.4-0.7-4.8c0.5-1.5-1.7-3.5,0.9-4.7
			c0.4,3.9,1.5,7.8,0.9,11.8l-0.2,0.4L305.2,343.2z"/>
		<path class="st0" d="M545.9,272.1l2.9-0.2c1.9-1.1,4.2,0.3,6.1-0.9h2c2.3,1.9,4.6-1.1,6.9,0c0.7,1.1,2,1,3,1.2
			c1.3,2.1,0.5,3.1-1.8,3.2c-1.7-0.1-3.3,0.4-5-0.4c-8.5,0.3-16.4,1.9-22.2,8.8c-2.3,1.4-3.8,4.2-7,4.1c-1.6,2.5-1.2,5.8-3.1,8.1
			c-0.5,0.8-0.9,1.5-1.4,2.3c-0.9,1.2-1.4,3.1-3.5,2.5l0,0c0-2.1-0.1-4.2,1-6.1c0.4-1.3,0.8-2.7,1.2-4c0.7-1.6-0.2-3.6,1.3-5
			c0.8-1,1.5-2,2.1-3c0.7-0.8,1.8-0.8,2.6-1.5c0.5-0.6,1.2-0.9,1.7-1.5l4.3-4.7l1.7-0.3C541.3,274.2,543.4,272.7,545.9,272.1z"/>
		<path class="st0" d="M532.8,279.9L532,282c-2,0.6-3.9,1.3-4.9-1.5c-0.2-0.9,0.1-1.8,0.6-2.5l0.4-2.3
			C529.5,277.4,527.8,282.6,532.8,279.9z"/>
		<path class="st0" d="M481.1,330.9c-3.2-0.8-2.7-4.1-4.1-6.2C479.3,326.2,480.9,328.1,481.1,330.9z"/>
		<path class="st0" d="M306.9,348.9c0.7-5,1.4-9.9,2.1-14.9c1-0.6,1.6,0,2.2,0.7c0.4,0.7,0.1,1.6,0.8,2.2l1,0.1
			c-4.9,3.8-3.4,10.2-6,14.9l-0.1-1.1C306.3,350.3,306.4,349.4,306.9,348.9C306.9,348.9,306.9,348.9,306.9,348.9z"/>
		<path class="st0" d="M419.8,342.1c7.5,1.2,14.2-2.5,21.2-4.1c1-1.3,2.5-1.6,4-2c1.7-0.2,3.4-1.2,5.1,0c-1.5,4.9-6.1,2.4-9.1,3.8
			c-1.5,0.7-3.6-0.5-5,1.2c-5.3,1.1-10.4,3.6-16,2.2c-0.2-0.1-0.3-0.4-0.3-0.7C419.6,342.2,419.7,342.1,419.8,342.1z"/>
		<path class="st0" d="M419.8,342.1c0,0.4,0.1,0.7,0.1,1c-2.4,0.1-3.1-2.5-5-3.1c0-0.4,0.1-0.7,0.2-1
			C417.6,338.5,418.5,340.5,419.8,342.1z"/>
		<path class="st0" d="M500.3,269.9l-6.4-0.9C496.2,268,498.6,266.5,500.3,269.9z"/>
		<path class="st0" d="M545.9,272.1c-2.1,1.6-4.3,3-7.1,2.8c1.4-1.4,3.1-2.4,5-3.1L545.9,272.1z"/>
		<path class="st0" d="M299.9,400.6l0.3-3.7c2-3.5,1.9-7.3,1.7-11.1v0.1c1.7-3.2-0.2-6.8,1.1-10c1.4-2.7,1.9-1.5,2,0.5
			c0.2,5.8-0.1,11.6-1,17.4c-2,4.5-0.5,9.2-1,13.7c-0.1,1.1,0.2,2.6-1.4,2.7c-1.2,0-1.4-1.2-1.5-2.2
			C299.4,405.6,299.3,403.1,299.9,400.6z"/>
		<path class="st0" d="M306.9,348.9v1.9c-1.9,2.5-2.5,5.1-1,8c-0.7,1.7-0.2,3.5-0.4,5.3c0.2,2.3-0.5,4.6,0.5,6.8
			c-1.1,1.1-1.7,0.5-1.9-0.7c-0.3-2.1-0.6-4.2-0.8-6.3c0.5-3.3,0.5-6.7,0-10c0-0.3,0-0.5,0.1-0.8c3.1-2.9,1.2-6.7,1.9-10
			c0.2-0.1,0.5-0.2,0.7-0.3C306.4,344.9,305.2,347.1,306.9,348.9z"/>
		<path class="st0" d="M303.2,354c1.2,3.2,1.2,6.8,0,10C303.2,360.7,303.2,357.3,303.2,354z"/>
		<path class="st0" d="M303,376c-0.5,3.3,1.2,6.9-1.1,10l0.1-10C302.4,376,302.7,376,303,376z"/>
		<path class="st0" d="M306,371c-1.8-2.1-0.6-4.7-0.9-7c0.3-0.5,0.6-0.4,0.8,0.1C305.9,366.4,305.9,368.7,306,371z"/>
		<path class="st0" d="M305.9,364.1c-0.3,0-0.6-0.1-0.9-0.1c0.1-1.7-0.5-3.6,0.8-5.1C305.9,360.6,305.9,362.3,305.9,364.1z"/>
		<path class="st0" d="M489,303c-0.6-0.8-1.3-0.6-2.2-0.5c-3.3,0.3-6.1-1-7.4-3.9c-1.5-2.9-0.7-6.5,1.9-8.5c3-2.6,3.3-7.6,7.8-9
			l-7.4,11.8c-1.4,2.1-1.9,4.2,0.1,6.2c1.4,2.4,3.9,0.9,5.7,1.7c1.5,0.7,3.7,0.1,4.6,2.2L489,303z"/>
		<path class="st0" d="M301.9,385.9c1.9,3.7,1.2,8.1-1.7,11.1v-2.7C302.6,391.8,300.5,388.5,301.9,385.9z"/>
		<path class="st0" d="M324.1,271.1c-0.1,0.3-0.2,0.6-0.2,0.9c-0.3,0.9-1.1,1.7-2,2c-1.3,0.6-2.4,1.7-3,3l-1.2-0.1
			c1.2-3.1,3.7-5,6-7.1c0.3,0.2,0.4,0.5,0.4,0.8C324.3,270.9,324.2,271.1,324.1,271.1z"/>
		<path class="st0" d="M324.1,271.1c-0.1-0.4-0.2-0.9-0.3-1.3c0-0.3,0-0.6,0.1-0.9c0.3,0,0.6,0,0.9,0c1.9,0.5,2.8-1.3,4.1-1.9
			C328.2,269.4,327.6,271.9,324.1,271.1z"/>
		<path class="st0" d="M450,336l-5.1,1c-1.9-0.6-0.9-3.5-3-4c1.1-1.9,4,0.1,4.9-2.3c-0.4-1.8,0.9-2.7,2-3.7c0.4-0.4,0.7-0.8,1.1-1.1
			c1.7-1,1.3-4.2,4.3-3.8c0.6,0.8,0.7,1.8,0.4,2.7c-0.6,1.5-1.9,2.7-2.9,4c-2.6,2.3,0.1,3.1,1.2,4.3L450,336z"/>
		<path class="st0" d="M453,333c-1.6-0.1-3.6,0-4.2-1.6s1.4-2.3,2.2-3.4c1.4-0.5,3-0.3,4.1,0.7c0.3,0.4,0.3,0.9-0.1,1.2c0,0,0,0,0,0
			c0,0.3,0,0.6,0,0.9L453,333z"/>
		<path class="st0" d="M404,313c0,1,0,2,0,3c-3.5,0.9-5,4.5-8,6c-1.9,1.1-2.7,3.5-5,4c-6.6,5.9-13.1,4-18.2-4.1
			c-1.1-1.4-2.3-2.8-3.6-4c-0.4-1.3-0.8-2.6-1.2-3.9l2,1c3.8,5.1,8.3,9.3,15.3,8.4c2.5-0.3,5.3-0.7,6.6-3.6c0.7-3.2,4-4.3,5.6-6.7
			c3.2-3.4,4.3-7.8,6.4-11.8c0.9-1.8,1.5-3.7,2.9-5.2c2.2-2.7-1.9-5.5,0.2-8.2l0,0c5.6,6.4,5.3,10.9,1.8,18.8
			C407.5,309.6,404.9,310.5,404,313z"/>
		<path class="st0" d="M218,271c-0.1-1,0.7-1.9,1.7-2c0.1,0,0.2,0,0.3,0h1.9l1.1,1c0.3,0.4,0.5,0.8,0.5,1.3c0.1,0.8,0.1,1.6-0.2,2.4
			c-1.4,2.8-4,3.1-6.2,1.9C213.9,273.8,218.6,272.7,218,271z"/>
		<path class="st0" d="M527.7,278.1l0.1,1.8c-0.7,1.2,0,2.3,0.1,3.4c0.1,1-0.2,1.9-0.9,2.6l-1.8,5c0.4-5.4,0.3-10.8-0.2-16.1
			C527.5,275,526.6,277.3,527.7,278.1z"/>
		<path class="st0" d="M355,303c0.7,1.5,1.7,3.3-0.2,4.3c-2.4,1.4-1,3-0.9,4.6l-1.2,2c-5.7,3-10.4,7.3-14.8,11.9l-3.1,2.1
			c-4.2,1.9-8.7-1-12.9,1c-1.1,0.8-1.9,0.4-2.2-0.8c0.6-1.8,2.2-2.3,3.8-2.8c4.1-1.3,8-3,11.6-5.3c3.6-0.9,6.5-2.9,7.9-6.5
			c1-1.7,2.5-3.2,4.1-4.3c1.4-0.8,1.8-2.2,2.2-3.7c0.5-1.6,1.8-2.8,3.4-3.1c0.5,0,0.9,0.2,1.2,0.5L355,303z"/>
		<path class="st0" d="M319.9,328.1l2.1,0.9c2.8,4-1.9,2.7-2.4,2.7c-3.7,0.2-6.2,1.8-7.6,5.2c-1.9,0.2-1.4-0.9-1-1.9
			c-0.7-2,1-2.9,2-4c1.1,0,2.2,0,3.3-0.1c0.7,0,1.4-0.4,1.2-1c-0.1-0.4-0.9-0.6-1.5-0.9C316.8,326.4,318.3,326.9,319.9,328.1z"/>
		<path class="st0" d="M223,271.1V270c2.4,1.1,4.5,2.7,6.1,4.8c0.3,0.4,0.3,0.9,0,1.3C225.8,276,223.6,274.5,223,271.1z"/>
		<path class="st0" d="M229,276l0.1-1.2l1.8,0.3c1.4,1.7,2.4,3.5,2.1,5.9c-2.8,0.4-3-2.3-4.2-3.7C228.7,276.9,228.7,276.4,229,276z"
			/>
		<path class="st0" d="M299.9,400.6c0,2.5,0,4.9,0.1,7.4l-0.8-0.1C299.2,405.5,298.7,403,299.9,400.6z"/>
		<path class="st0" d="M351.3,262.9c-5.5,2.2-10.9-0.2-16.4,0C340.4,262.3,345.8,259.6,351.3,262.9z"/>
		<path class="st0" d="M334.9,262.9c-0.6,2.5-3.3,1.9-4.8,3.2l-0.1-1.7l3-1.4L334.9,262.9z"/>
		<path class="st0" d="M355.2,267.9c-1.7-0.9-2.1-2.4-2.2-4.1C354.8,264.7,355.1,266.2,355.2,267.9z"/>
		<path class="st0" d="M487.9,342.1c1.8-0.8,3.5-1.7,3.1-4.1c1.1,1.6,2.5,3.5,1.5,5.2c-1.1,1.9-2.8-0.2-4.3-0.4
			C488,342.6,487.9,342.3,487.9,342.1z"/>
		<path class="st0" d="M495.9,273c1.5-1.7,3.7,0,5.2-1.2c1.6,0.2,2.7,1,2.6,2.8s-1.5,1.2-2.5,1.1c-1.4-1.8-3.2-2-5.2-1.5
			c-0.2-0.2-0.4-0.4-0.3-0.7C495.8,273.1,495.9,273,495.9,273z"/>
		<path class="st0" d="M495.9,273c0,0.4,0,0.7,0.1,1.1c-0.5,2.2-1.2,4-4.1,2.9C493.9,276.2,493.5,273.2,495.9,273z"/>
		<path class="st0" d="M447,298c2.2-0.1,3.9,0.4,4,3c-1.9,0.7-4.1,0.7-6,0l-5-1c-0.9-3-3.9-3-6.1-4.1c-2.5-1.2-5.3-1.4-7.7-2.9
			l-1.8-1.4c-0.1-0.9-0.3-1.7-0.4-2.6c1.7-0.1,3.3,0,2.8-2.7c-0.5-2.2,0-4.5,1.3-6.4c0,0.7,0,1.4,0.1,2.1c-0.7,1.9-0.3,3.8,0,5.7
			c0.4,2.1,2.2,2.5,3.7,3.2c0.8,1.2,2.1,0.6,3.2,1c3.3,2.4,7.9,1.3,11,4.1c-0.3,0.3-0.6,0.6-0.9,0.9
			C444.9,298.8,445.9,298.4,447,298z"/>
		<path class="st0" d="M431.8,291c-2.3,0.1-4.3-0.1-3.7-3.2C429.3,288.8,430.6,289.9,431.8,291z"/>
		<path class="st0" d="M229,276c0.1,0.3,0.1,0.6,0.1,0.9c0.9,1-3,0.9-0.6,2.6c1.4,1,3,2.2,3.5,3.9c0.5,1.9,1.4,0.1,2,0.5l6,7.1
			c-0.1,2.9,1.7,5.5,1,8.5c-0.6,1.5-0.2,2.9,0.2,4.2c0.5,2.4-0.1,4.8-0.3,7.2c-0.1,0.4-0.3,0.9-0.5,1.2c-0.6,0.9-1.3,1.8-2.1,2.6
			c-1.6,2-3.7,3.8-5,6.1c-0.3,0.3-0.8,0.3-1.2,0.1c-2.7-0.2-0.8-2.2-1.3-3.2l0.1-0.7c5-5.5,5.1-12.1,4.6-19
			c-0.1-1.5-0.8-2.9-1.9-3.9c-0.9-0.6-1.9-1.1-2.9-1.5c-1.4-0.7-2.2-2.1-3.3-3.2c-0.9-1-1.9-1.9-2.7-2.9c-0.3-0.3-0.6-0.7-0.8-1.1
			c-3.9-4.7-6.4-5.4-12-3.5c-0.9,0.4-1.9,0.6-2.8,0.5c-0.5-0.1-0.8-0.4-1.1-0.9c1.8-1.5,4.4-2.6,3-5.8c1.4-1.6,2.6-3.6,5-4l2-1
			c1.4,1.7,0.2,2.7-1.1,3.7c3.4,0.9,5.7,0.2,6.1-3.6C224.3,273.5,227,274.4,229,276z"/>
		<path class="st0" d="M240,299.9c0.7-3-2.1-5.9,0-8.8l1,0.9c0.2,2,1.2,3.9,2.7,5.2c-0.7,1.6-0.8,3.1,1.2,3.9
			c0.2,0.2,0.3,0.5,0.2,0.8c0.4,0.8,1.4,1.1,1.2,2.2c-0.2,0.9-0.6,1.7-1.4,2.3c-0.4,0.1-0.9,0.1-1.3-0.1
			C241.6,304.6,240.9,302.2,240,299.9z"/>
		<path class="st0" d="M234,284c-0.9-0.4-0.8,4.6-2.6,0.3c-1.2-2.9-5.3-4-5.6-7.8c1.2-1.1,1.9,2.1,3.2,0.5c2.6,0.1,1.6,3.7,4,4
			c0.2,0.3,0.3,0.7,0.5,1C233.7,282.7,233.9,283.3,234,284z"/>
		<path class="st0" d="M475.7,330.1l7.3,8.6c-0.3,0.1-0.6,0.1-0.9,0.2l-3.9-3.2C477.7,333.7,475.1,332.6,475.7,330.1z"/>
		<path class="st0" d="M522.9,301c1.6-0.4,1.8-2.2,3-3c0.8,1,2.1,0.2,3,0.7c0.3,0.4,0.5,0.8,0.5,1.3c-0.2,1.7,0.4,3.4-0.4,5
			c-0.2,3.8,1.3,7.3,1.9,10.9c-3.9,0.7-0.6-3.6-2.9-4c-0.7-1-1.4-2-2.1-2.9c-1.8-2,0.4-5.7-3-7C522.9,301.7,522.9,301.3,522.9,301z"
			/>
		<path class="st0" d="M523,302c5.9,0.2,2.6,4.4,3,7C523,307.5,524.2,304.2,523,302z"/>
		<path class="st0" d="M245.9,304c-0.2-0.7-0.5-1.5-0.7-2.2c1.7,0.6,3.2,0.9,2.9-1.8c-0.1-1-0.6-2.3,0.8-3.1l0.9,8
			c-0.7,1.5-0.1,3.2-0.4,4.7c-0.5,2.3-1.4,1.7-2.3,0.2c-0.1-1.1-0.1-2.3-1-3.1S245.5,305,245.9,304z"/>
		<path class="st0" d="M455,330c0-0.3,0-0.6,0-1c-0.7-1.2-0.1-2.4,0.4-3.5c1-1.5,2.9-2.2,4.7-1.7c0.4,0.3,0.4,0.8,0.1,1.2
			c0,0-0.1,0.1-0.1,0.1c-0.1,0.6-0.2,1.1-0.3,1.7L455,330z"/>
		<path class="st0" d="M147.1,176c-0.1-1.4,0.3-2.8,1-4c2.2,0.9,4.4,2.3,7,1.1l0.1-0.1c4,0.9,0.5,3.4,1,5l-1,0.9
			c-0.7-0.7-1.3-0.9-2,0.1l-2,1c-0.8,0.8-2.2,0.8-3,0C146.6,179,147.2,177.4,147.1,176z"/>
		<path class="st0" d="M160.1,173c0.1-1.7-0.5-3.3-1.6-4.6c3.5-1.2,4.4,1.4,5.1,3.3c0.5,1.5-1.5,1.1-2.5,1.3
			c-0.2,0.3-0.5,0.4-0.8,0.2C160.2,173.2,160.1,173.1,160.1,173z"/>
		<path class="st0" d="M160.1,173h1c-0.2,2.2,2.3,1.7,3,3h-4C160.4,175,158.9,174,160.1,173z"/>
		<path class="st0" d="M138.1,180c0.7-1.3,3.2-0.8,3-3l0.4-0.4c0.7-0.3,1.4-0.7,2-1.3l0.5-0.3c2.4,3.3-0.2,6-1,9
			C138.4,186.4,138,183.5,138.1,180z"/>
		<path class="st0" d="M128.1,189l-1-3c2.6,0.3,4.4-1.3,6-3C134.2,187.4,129.4,186.8,128.1,189z"/>
		<path class="st0" d="M133.1,177.1c2,0.1,2,1.5,2,3c-0.7,0.4-1.1,1.2-1,2C132.4,180.6,133.3,178.7,133.1,177.1z"/>
		<path class="st0" d="M141.1,177c-0.9-0.7-1.3-1.7-0.4-2.4c0.9-0.8,2.3-0.8,3.2,0.1c0.1,0.1,0.2,0.2,0.2,0.3l0,0
			C143.3,176,141.8,176,141.1,177L141.1,177z"/>
		<path class="st0" d="M148.1,180h3v2C149.6,182.1,148.1,182.1,148.1,180z"/>
		<path class="st0" d="M153.1,179c-0.4-1.1-1-2.4,0.7-2.6s1.1,1.6,1.2,2.6H153.1z"/>
		<path class="st0" d="M155,173.1c-2.7,1.9-4.9,1.1-7-1.1c-0.1-0.8,0.3-1.6,1-1.9C149.8,173.5,152.9,172.3,155,173.1z"/>
		<path class="st0" d="M325,275c4.4-2.5,8.7-5.3,13.2-7.5c4.1-2.1,8.2-2.1,11.8,1.4c-0.2,0.4-0.6,0.8-1.1,1
			c-0.7,0.1,0.2,0.2-0.5,0.1c-7-0.7-12.4,2.1-16.7,7.4c-2.4-1.5-4.5,0.9-6.8,0.6C325,277,325,276,325,275z"/>
		<path class="st0" d="M319.9,328.1c-1.4-0.1-2.8-0.5-3.9,0.8c-4,1-5-1.3-5-4.7l0-7.3c1.1-1.5-0.1-3.5,0.9-5
			c0.2-1.1-0.2-2.5,1.5-2.8c1.6,2.8,0.8,5.9,0.9,8.9c0,0.5-0.1,1-0.2,1.5c-1.3,6.1-1.1,6.3,4.9,5.3c4.4-0.6,8.7-2,12.5-4.3
			c1.4-0.9,2.8-1.8,4.6-0.9c0.2,0.2,0.3,0.5,0.3,0.8c-0.1,0.3-0.2,0.4-0.2,0.4C331.2,324.7,325.2,325.7,319.9,328.1z"/>
		<path class="st0" d="M325,277.9c0.8-0.5,1.6-1.1,2.2-1.7c1.9-2.4,2.8-0.7,3.8,0.8c1.3,4.2-3.3,5.2-4.4,8.1c-0.4,0.6-1,1-1.7,1.3
			c-0.7,0.2-1.5,0-2-0.6C324.2,283.4,327.5,281.4,325,277.9z"/>
		<path class="st0" d="M313,331c0.1,1.8-1.5,2.6-2,4l-2-1C308.7,330.8,310.9,330.9,313,331z"/>
		<path class="st0" d="M322,274l2-2c0.4,1,0.7,2,1,3L322,274z"/>
		<path class="st0" d="M311.9,312c-0.1,1.7,0.6,3.5-0.9,5C311.2,315.3,310.4,313.5,311.9,312z"/>
		<path class="st0" d="M440,302c4.4,0.6,8.8,0.8,13,2s4.4,5.1,3.9,8.8c0.1,1.3-0.2,2.3-1.8,2.5c-0.9-2-3.4-3.5-0.1-6.1
			c1.2-1-1.2-3.7-4.1-4.2C447.2,304.3,443,305.4,440,302z"/>
		<path class="st0" d="M448.9,327c0.1,1.7-1.4,2.4-2,3.7c-1.9,0.5-3.9,0.6-5.9,0.3L448.9,327z"/>
		<path class="st0" d="M455.1,315.3c0.7-0.7,0.3-2.2,1.8-2.5c0,0.2,0.1,0.4,0.2,0.5c1.4,3,1.7,5.6-2.3,6.7c-0.6-1.4-0.9-2.7,0.2-4
			c0.2-0.1,0.3-0.4,0.2-0.6C455.2,315.4,455.2,315.3,455.1,315.3z"/>
		<path class="st0" d="M453.9,321.9c-1.2,1.4-1.7,3.6-4,4c0-0.6,0-1.2,0-1.8c1-1.3,2-2.7,3-4c0.3-0.3,0.8-0.4,1.1-0.1
			c0,0,0,0,0.1,0.1C454.5,320.6,454.4,321.4,453.9,321.9z"/>
		<path class="st0" d="M454,320h-1c1.3-1-1.1-3.9,2-4c-0.1,1.3-0.3,2.6-0.4,3.9C454.5,320.3,454.3,320.4,454,320z"/>
		<path class="st0" d="M434,300.9c1.8-0.3,3.6,0,5.1,1C437.4,302,435.1,304.2,434,300.9z"/>
		<path class="st0" d="M450.1,324.1c-1.9-0.6-2.6-1.3-2.3-2.7C449.3,321.7,449.3,323.1,450.1,324.1z"/>
		<path class="st0" d="M422.9,286.2c-1.5-2.2-1.5-5,0-7.2V286.2z"/>
		<path class="st0" d="M427.9,273c0-1.3,0.8-2.5,2-3C431.2,272.3,429,272.3,427.9,273z"/>
		<path class="st0" d="M454,320c0.2-0.1,0.4-0.1,0.7-0.1c2.9-1.4,2.1-4.2,2.5-6.5l1.1-1.2c0.4-0.5,1.2-0.6,1.7-0.2
			c0,0,0.1,0.1,0.1,0.1c0.2,2.6-0.7,5.4,0.7,7.9c-0.7,1.3,0.3,2.8-0.8,4l-4,2c-1.1,0.5-1.6-0.1-2-1v-3.1
			C453.9,321.2,453.9,320.6,454,320z"/>
		<path class="st0" d="M426.1,293c4.8-0.7,8.6,2.5,13,3.3c2.3,0.4,0.7,2.4,0.9,3.7l-3.1-1c-1.7-1.2-3.8-1.6-5.8-1.1L429,297
			L426.1,293z"/>
		<path class="st0" d="M457,301l2.8,2.1l0.2,4.9c0.8,1.9,0.3,2.6-1.7,2c0.1-4.4-2.1-7-6.3-8C453.4,300.6,455.7,303.1,457,301z"/>
		<path class="st0" d="M431.1,297.9c2.2-0.9,4.4-2.4,5.8,1.1C434.9,299.3,433,298.5,431.1,297.9z"/>
		<path class="st0" d="M458.2,310c1,0,1.8-0.9,1.7-1.9c0,0,0-0.1,0-0.1l1.9,2.8L460,312l-1.8,0.1C458.2,311.4,458.2,310.7,458.2,310
			z"/>
		<path class="st0" d="M445,301h6c0,0.3,0,0.6,0.1,0.9C449,301.7,446.8,302.7,445,301z"/>
		<path class="st0" d="M348.7,269.2l1.3-0.4c7.4,5,8.4,7.5,6.1,16.1c0.5,2.4,0.6,4.9,0.1,7.3L356,298c-0.4,0.3-1.1,0.3-1.4-0.2
			c0,0,0,0,0,0c-1.7-4.5-1.3-9.2-0.6-13.6c0.7-4.7-0.1-8.4-3.4-11.6C349.6,271.6,348.6,270.6,348.7,269.2z"/>
		<path class="st0" d="M360,282c0,1.7-0.1,3.4-0.1,5C356.3,285.3,358.8,283.7,360,282z"/>
		<path class="st0" d="M354.8,297.9l1.2,0.1l-2.1,5l-1.3-0.2c-0.5-0.8-0.6-1.8-0.3-2.7C352.9,299,353.3,297.9,354.8,297.9z"/>
		<path class="st0" d="M356.2,292.2l-0.1-7.3c1.3,1.5,0.7,3.4,0.8,5.1c0.5,0.4,0.6,1.2,0.2,1.8c-0.1,0.1-0.1,0.1-0.2,0.2
			C356.7,292,356.5,292,356.2,292.2z"/>
		<path class="st0" d="M357,291.9V290c0.5,0.6,1,1.2,1.4,1.9c0.4,0.8,1.2,2-0.1,2.3C357.1,294.4,357.1,292.9,357,291.9z"/>
		<path class="st0" d="M296,279c-1.5-0.8-3.3-1.2-5-1l-2,1l0,0c-0.3-1.7-1.5-3.4,1.9-3.7S295.7,275.9,296,279z"/>
		<path class="st0" d="M261.9,278.3c-0.5,1.3-1.2,2.6-1.9,3.9c-0.8,1.1,0.3,3.1-1.7,3.6c-0.3,0-0.6-0.1-0.8-0.4
			c-1-1.8,0.3-3.2,0.9-4.6C258.8,280,260,279.7,261.9,278.3z"/>
		<path class="st0" d="M277.7,274.5c2,0.8,3.8,1.5,3.8,3.6c0,0.7-0.9,0.9-1.6,0.8C277.2,278.4,278,276.1,277.7,274.5z"/>
		<path class="st0" d="M247.1,309.9c0.9,0.4,1.8,0.7,1.9-0.9c0.1-1.4-0.4-2.9,0.8-4.1c0,2.6,0,5.3,0,7.9
			C246.2,314.4,247.2,311.6,247.1,309.9z"/>
		<path class="st0" d="M266.6,273.3c-0.8,1.5-1.4,2.4-3.2,2.4C263.9,274.3,265.2,273.3,266.6,273.3z"/>
		<path class="st0" d="M289,279c-0.9,1-1.8,1.9-3.3,1.5C286.3,278.6,287.8,279.1,289,279z"/>
		<path class="st0" d="M526.9,296c1.9-2.4,0.7-6.3,4-8c0,2,0,4,0,6l-1.1,5c-0.3,0.5-0.6,0.5-0.9,0l0,0
			C528,298.2,527.3,297.2,526.9,296z"/>
		<path class="st0" d="M528.9,299c0.3,0,0.6,0,0.9,0c-0.2,2,0.8,4.2-0.8,6.1C529,303,529,301,528.9,299z"/>
		<path class="st0" d="M560.1,275.1h4.7c0.3,0.1,0.4,0.2,0.4,0.4s0,0.3-0.1,0.3c-0.2,0.2-0.3,0.3-0.4,0.5l-4.8-0.4
			C559.9,275.7,560,275.4,560.1,275.1z"/>
		<path class="st0" d="M404.1,288.6l0.1-0.3L404,288c0.3-4.8-3.3-8-5.2-11.9l1.3-0.2c3.8,3.2,3.4,8.8,6.9,12.1
			c-0.2,3,3.9,5.6,0.7,8.9C405.5,294.5,405.3,291.3,404.1,288.6z"/>
		<path class="st0" d="M442,333c3.6-0.6,1.6,2.9,3,4l-4,1c-1.4-0.2-2.9,0.5-4-1l0,0c1.7-1,2.1-3.3,4-4C441.3,333,441.6,333,442,333z
			"/>
		<path class="st0" d="M441,333c-1.3,1.3-1.7,3.7-4,4C437.9,335.3,438.3,333,441,333z"/>
		<path class="st0" d="M447,298c-1.1,1.5-2.7,0.8-4.2,1c0.3-1.4,1.4-1.5,2.2-2L447,298z"/>
		<path class="st0" d="M459.9,324c0.1-1.4-0.3-2.8,0.8-4c0,1.8,0.6,3.6-0.7,5.1C460,324.7,460,324.3,459.9,324z"/>
		<path class="st0" d="M238,314l2-2c0.8,0.6,1.4,1.5,1.8,2.4c0.1,0.2,0.1,0.4,0.2,0.6c-0.1,2.7-2.6,3.4-4,5c-0.3,0-0.6,0-0.9,0
			c-1,0.8-1.8,0.5-2.3-0.6C235.5,317.4,237.3,316,238,314z"/>
		<path class="st0" d="M235,319c0.4,0.7,1.2,1.1,2.1,1l-5,6c-2.1,0.7-2.8,0.1-2-2l2.1-2.9c0.3,0,0.6-0.1,0.9-0.1
			C233.9,320.5,233.1,318.3,235,319z"/>
		<path class="st0" d="M230,324c-0.1,1,0.7,1.9,1.7,2c0.1,0,0.2,0,0.3,0c-1.8,2.2-3.9,4-7,4c0-0.6,0-1.3,0-1.9L230,324z"/>
		<path class="st0" d="M244.1,305.9l0.9,0.1c0.8,1.9,0.8,4,0,5.9c-0.6,1.3-1.7,2.4-3,3l0,0C241.3,311.6,242.6,308.8,244.1,305.9z"/>
		<path class="st0" d="M245,312c0-2-0.1-4-0.1-5.9c0.3-0.7,0.6-1.3,1-2c0.1,0.9,0.1,1.8,0.2,2.8C245.6,308.5,246.7,310.5,245,312z"
			/>
		<path class="st0" d="M565.1,275.8c-0.1-0.2-0.2-0.5-0.3-0.7c1.8-0.1,2.2-1.3,2.1-2.9c1.5,0.4,2.2,1.5,1.6,2.8
			C567.8,276.6,566.3,275.8,565.1,275.8z"/>
		<path class="st0" d="M563.8,271c-2.3,0.2-4.6,2.3-6.9,0C559.2,271.9,561.5,269.1,563.8,271z"/>
		<path class="st0" d="M554.9,271c-1.8,1.7-4.1,0.7-6.1,0.9C550.7,270.6,552.9,271.2,554.9,271z"/>
		<path class="st0" d="M208,281.8l1.2,0.2c-1.8,6.2-3.5,12.5-3,19c-0.1,0.5-0.2,1-0.4,1.5c-0.3,0.7-0.9,1.3-1.6,1.5
			c-0.4,0.2-0.9,0-1.1-0.5c0,0,0-0.1,0-0.1c0-1.2,0-2.4,0-3.6c1.2-1.5-0.1-3.5,0.9-5C204.1,290.3,203.4,285.2,208,281.8z"/>
		<path class="st0" d="M216,272c-1.8,1.2-2.3,3.9-5,4c-0.1-1.5,0.1-3,0.7-4.4c0.5-1.3,1.7-2.1,3-2.3
			C216.2,269.4,214.5,271.6,216,272z"/>
		<path class="st0" d="M206,316.2c0.2,1.7-0.1,3.4-1,4.8c-1.3-2.3-4.1-3.9-4-7c1.3-0.7,2.9-0.8,4.2-0.2
			C205.8,314.4,206.1,315.3,206,316.2z"/>
		<path class="st0" d="M205.1,314c-1.3,0-2.7,1-4,0l0,0c-0.9-2.2,0.8-4,1-6c0.1-1.5-0.4-3.2,1-4.4c0.2,0.2,0.2,0.4,0.2,0.7
			c0.8,0.9,1.3,1.9,1.6,3c0.5,1.3,0.9,2.6,1.1,4C206.2,312.3,205.8,313.3,205.1,314z"/>
		<path class="st0" d="M202,308c2.1,2.4-0.5,4-1,6C199.9,311.8,198.5,309.5,202,308z"/>
		<path class="st0" d="M200.1,289.1c0-1.4,0.4-2.4,1.9-2.8v4.7C200.1,291.6,200.9,289.5,200.1,289.1z"/>
		<path class="st0" d="M200.3,299c0.5,1.7,2.1,3.4,0,5.3V299z"/>
		<path class="st0" d="M202,292c-0.2,1.2,0.6,3-0.8,3.3c-1.7,0.4-1-1.5-1.2-2.4C200.6,292.4,201,291.4,202,292z"/>
		<path class="st0" d="M202,292l-1.9,0.9v-3.9l1.9,1.9V292z"/>
		<path class="st0" d="M204,295c-0.1,1.7,0.7,3.6-0.9,5C203.2,298.3,202.4,296.5,204,295z"/>
		<path class="st0" d="M526.9,296c2,0.1,2,1.5,2,3c-0.9-0.8-3.3,3.3-3-1C525.9,297.2,526.2,296.4,526.9,296z"/>
		<path class="st0" d="M527,283c-0.1-1.1-0.2-2.2,0.8-3c0.4,2.6,2.4,2.2,4.2,2.1c-0.7,1.2-1.8,1-2.9,1.1
			C528.5,283.7,527.5,283.6,527,283z"/>
		<path class="st0" d="M527,283l2.1,0.2c-0.1,1.4-0.1,2.9-2.1,2.9C527,285,527,284,527,283z"/>
		<path class="st0" d="M453.9,325l2,1c-0.3,1-0.6,2-1,3c-1.4,0.1-2.8-0.3-4-1C451.6,326.7,452.6,325.6,453.9,325z"/>
		<path class="st0" d="M342.1,314.1l1.7-0.6c-0.8,4.4-3.8,6.5-7.8,7.5c0-0.4,0-0.8-0.1-1.2c0.8-2.9,4-3.3,5.6-5.4L342.1,314.1z"/>
		<path class="st0" d="M347.7,309.9c0.7-1.4,1.5-2.9,2.2-4.3C350.1,307.5,350.1,309.3,347.7,309.9z"/>
		<path class="st0" d="M234.1,311c0.3-0.7,0.6-1.4,0.9-2.1c0-3.9-0.4-7.7-1.2-11.5c-0.4-1.4-1-2.8,0-4.3c1.5,0.2,2.1,1.4,2.6,2.7
			c2.9,6.8,0.3,17.2-5.6,22.1C231.2,315.3,233.9,313.7,234.1,311z"/>
		<path class="st0" d="M244.1,305.9c0.5,3.3-0.8,6.1-2.1,9c-2-0.1-2-1.5-2-3l0,0c0.3-2.7,2.4-5.3,0.2-8c0.3-1.4-2.1-2.6-0.2-4
			C242.4,301.2,242.7,304,244.1,305.9z"/>
		<path class="st0" d="M235,319c-0.7,0.6-1.4,1.2-2,1.9c-0.2-3.6,3.2-4.8,5-6.9C238.3,316.4,237,317.9,235,319z"/>
		<path class="st0" d="M240.2,304c4.1,2.8,0.7,5.4-0.2,8C240.1,309.3,240.2,306.7,240.2,304z"/>
		<path class="st0" d="M141.1,177c0.1-2,1.5-2,3-2C144.5,177.9,142.7,177.4,141.1,177z"/>
		<path class="st0" d="M381,288.6c-0.3,0.3-0.5,0.8-0.9,0.9c-0.3,0.1-0.7-0.1-0.7-0.5c0-0.1,0-0.3,0.1-0.4c0.2-0.4,0.7-0.6,1-0.9
			L381,288.6z"/>
		<path class="st0" d="M347.6,288.3c1.5,2.6,3.7,3.4,2.8,5.8c-0.1,0.3-2,0.3-2.7-0.2"/>
		<path class="st0" d="M349.4,279.3c-1.2-0.6-2.6-1.1-1.7-2.8c0.5-0.4,1.1-0.6,1.8-0.4C350.4,277,350.2,278.2,349.4,279.3z"/>
	</g>
</g>
</svg>
