<?xml version="1.0" encoding="utf-8"?>
<!-- Generator: Adobe Illustrator 26.0.1, SVG Export Plug-In . SVG Version: 6.00 Build 0)  -->
<svg version="1.1" id="Layer_1" xmlns="http://www.w3.org/2000/svg" xmlns:xlink="http://www.w3.org/1999/xlink" x="0px" y="0px"
	 viewBox="0 0 645 567" style="enable-background:new 0 0 645 567;" xml:space="preserve">
<style type="text/css">
	.st0{fill:#020202;}
	.st1{fill:#0C0C0C;}
	.st2{fill:#050505;}
	.st3{fill:#090909;}
	.st4{fill:#353535;}
	.st5{fill:#F5F5F5;}
	.st6{fill:#1A1A1A;}
	.st7{fill:#5E5E5E;}
	.st8{fill:#313131;}
	.st9{fill:#303030;}
	.st10{fill:#424242;}
	.st11{fill:#2F2F2F;}
	.st12{fill:#FAFAFA;}
	.st13{fill:#F8F8F8;}
	.st14{fill:#272727;}
	.st15{fill:#E8E8E8;}
	.st16{fill:#5F5F5F;}
	.st17{fill:#E9E9E9;}
	.st18{fill:#ECECEC;}
	.st19{fill:#464646;}
	.st20{fill:#373737;}
	.st21{fill:#636363;}
	.st22{fill:#F9F9F9;}
	.st23{fill:#2C2C2C;}
	.st24{fill:#6C6C6C;}
	.st25{fill:#202020;}
	.st26{fill:#656565;}
	.st27{fill:#F7F7F7;}
	.st28{fill:#EFEFEF;}
	.st29{fill:#F4F4F4;}
	.st30{fill:#696969;}
	.st31{fill:#9B9B9B;}
	.st32{fill:#505050;}
	.st33{fill:#535353;}
	.st34{fill:#3E3E3E;}
	.st35{fill:#F6F6F6;}
	.st36{fill:#4C4C4C;}
	.st37{fill:#333333;}
	.st38{fill:#2E2E2E;}
	.st39{fill:#3B3B3B;}
	.st40{fill:#404040;}
	.st41{fill:#242424;}
	.st42{fill:#111111;}
	.st43{fill:#3D3D3D;}
	.st44{fill:#989898;}
	.st45{fill:#393939;}
	.st46{fill:#969696;}
	.st47{fill:#4B4B4B;}
	.st48{fill:#414141;}
	.st49{fill:#EEEEEE;}
	.st50{fill:#717171;}
	.st51{fill:#626262;}
	.st52{fill:#5B5B5B;}
	.st53{fill:#343434;}
	.st54{fill:#383838;}
	.st55{fill:#565656;}
	.st56{fill:#595959;}
	.st57{fill:#484848;}
	.st58{fill:#151515;}
	.st59{fill:#EAEAEA;}
	.st60{fill:#282828;}
	.st61{fill:#525252;}
	.st62{fill:#949494;}
	.st63{fill:#444444;}
	.st64{fill:#494949;}
	.st65{fill:#222222;}
	.st66{fill:#010101;}
	.st67{fill:#171717;}
	.st68{fill:#141414;}
	.st69{fill:#101010;}
	.st70{fill:#F3F3F3;}
	.st71{fill:#1E1E1E;}
	.st72{fill:#040404;}
	.st73{fill:#191919;}
	.st74{fill:#131313;}
	.st75{fill:#0B0B0B;}
	.st76{fill:#070707;}
	.st77{fill:#1B1B1B;}
	.st78{fill:#0F0F0F;}
	.st79{fill:#2A2A2A;}
	.st80{fill:#1D1D1D;}
	.st81{fill:#686868;}
	.st82{fill:#0A0A0A;}
	.st83{fill:#121212;}
	.st84{fill:#212121;}
	.st85{fill:#3A3A3A;}
	.st86{fill:#292929;}
	.st87{fill:#0E0E0E;}
	.st88{fill:#8F8F8F;}
	.st89{fill:#454545;}
	.st90{fill:#363636;}
	.st91{fill:#434343;}
	.st92{fill:#0D0D0D;}
	.st93{fill:#3C3C3C;}
	.st94{fill:#4E4E4E;}
	.st95{fill:#2B2B2B;}
	.st96{fill:#585858;}
	.st97{fill:#262626;}
	.st98{fill:#060606;}
	.st99{fill:#323232;}
	.st100{fill:#676767;}
	.st101{fill:#545454;}
	.st102{fill:#181818;}
	.st103{fill:#232323;}
	.st104{fill:#4F4F4F;}
	.st105{fill:#6B6B6B;}
	.st106{fill:#1C1C1C;}
	.st107{fill:#080808;}
	.st108{fill:#575757;}
	.st109{fill:#FBFBFB;}
	.st110{fill:#030303;}
	.st111{fill:#4A4A4A;}
</style>
<g id="Layer_2_00000093146060825017487270000005114721013243660189_">
	<g id="Layer_1-2">
		<path class="st0" d="M225.9,204.9c1.5-11.1-0.9-22.1-0.5-33.1c0.3-8.2-3.9-14.8-5.7-22.2c-3.3-14-2.7-21.3,10.6-28.2
			c9.4-4.8,18.4-10.4,29-12.1c2.1-0.2,4.3-0.3,6.4-0.3c0.9-0.4,1.9-0.5,2.8-0.4c1.8,2,0.6,2.8-1.4,3.1c-1.3,0-2.6-0.1-3.9-0.2
			c-4.4,0-6.5,2.2-6.5,6.5c0,1.5,0.7,3.4-1.3,4.3c-1.3,0.1-3.9-1.7-3,1.9c-0.1,2.2,0.1,4.5-2.6,5.4c1.4,0.2,1.9-1.4,3-1.9
			c2.9,0.2,5.1-0.2,3.8-4c1.8-3.1,4.1-0.3,6.4-0.6c-1.5-1.1-2.2-2.6-0.7-4.1c2.8-2.8,5.7-0.3,8.4,0.3c3.2,0.7,0.7,3.3,1.1,5.4
			c2,0.1,5.1-1.3,5.3,2.6c0.1,1.7,1,0.7,1.6,0.5c2.5-0.7,3.3,0.7,3.7,2.8c-0.2,1.1-0.8,2.2-1.5,3.1c-1.5,2-3,4-4.5,6.1
			c-7.3,7.4-13.3,16-17.7,25.4c-1.9,4-5.3,6.4-8.9,8.7c-2.1,1.7-3.6,4-4.2,6.6c-0.2,0.4-0.4,0.8-0.7,1.2c-2.9,1.3-3.8-0.5-4.3-2.8
			c2.7-4.6,3.7-10.3,9-13.1c3.6-3.5-0.5-4.3-2.1-5.9c-0.5-1.3-0.3-2.9,0.6-4c0.4-5.2,5.1-7.5,8.5-9.7c3.7-2.4,3.1-4.8,2.7-7.8
			c-0.6-0.8,0.9-4.4-2.3-1.6c-0.8,0.8-1.6,1.6-2.4,2.4c-3.2,3.1-4.1,2.8-5.4-1.9c0.2-0.8,0.6-1.5,1.1-2.1c0.4-0.4,1-0.8,0.9-1.6
			c-2.6,0.9-4.9,2.2-6.9,4.1c-0.5,0.1-0.9,0.1-1.4,0c-2.6-1.1-1.3-5.7-5.8-5.8c3.7,2.3,2.5,4.8,0.9,7.3c-0.5,0.8-0.9,1.6-1.4,2.3
			c-3.1,1.3-1.8,2.6,0,3.8c0.5,1.1,0.5,2.4,0,3.5c1.3,1-3.7,0.3-0.5,2.2c2.3,1.4,2.6,4.3,2.1,7c-2.9,2.6-5.6,5.2-3,9.6
			c1.1,1.9-0.8,2.9-1.9,4c-1.2,3.9,1.5,8.2-1.4,11.9c-1.2,3.3-0.1,6.8-0.6,10.1c0,1.4,0,2.8-0.2,4.1c-1.6,6.6-0.4,13.3-0.7,19.9
			c-0.3,5.5,0,11-0.1,16.5c-0.2,2.8-0.4,5.5-2.2,7.8c-0.6,0.2-1.3,0-1.6-0.5c-0.4-6.2-1.7-12.4-0.6-18.7c0.6-3.3-0.6-6.6-0.8-9.8
			C225,210.4,224.4,207.5,225.9,204.9z"/>
		<path class="st1" d="M187.1,244.9c-0.7-0.9-1.5-1.8-2.4-2.6c-9-7.7-17.8-15.5-25.5-24.7c-3.2-3.8-7.4-6.7-9.2-11.7
			c1.2-2.1,2.7-1.6,4.2-0.5c1.2,1.4,2.3,2.9,3.5,4.4c4.2,5.8,10.9,8.9,15.4,14.4c3.4,4,6.9,8,12.2,9.6c1.7-0.1,3.3,0.7,4.2,2.2
			c3.5,3,7.6,5.5,10,9.6c0.6,1,1.6,0.9,2.6,1c2.2,0.2,4.1,1.5,6.2,2.2c0.4,0.2,0.8,0.4,1.2,0.7c1.4,0.1,2.9,0,4.3,0.2
			c3.9,0.6,7.5,1.9,11.4,2.9c-1.1,2.6-3.1,2.6-4.8,3.1c-1.5,0.2-3.1,0-4.5-0.5c-1.5-0.4-3-1.1-4.5-1.5c-1.5-0.6-1.9,0.9-2.8,1.5
			c-3.1,0.4-4.8-3-7.8-3c-0.4,0-0.9-0.2-1.2-0.4c-1.4-1.6-3.3-2.8-5.3-3.5C191.9,247.5,189,247.2,187.1,244.9z"/>
		<path class="st2" d="M280.1,133.3c0.2-1.1,0.9-1.9,1.9-2.3c0.5-1.1,0.6-2.4,1.7-3.1c2.9-2.4,6.1-4.2,10.1-4.3
			c1.8-0.1,3.5-0.8,4.9-2c4.1-0.4,7.9-2,12.2-1.7c3.8,0.3,6.9,2.2,10.3,3.3c2,0.7,3.9,1.8,6.2,1.5c1.5-1.2-0.8-0.7-0.6-1.3
			c-1.5-1.1-0.4-2.8-1-4.1l0.4-0.5c5.4,0.3,8.6,4.2,12,7.6c0.9,0.9,1.5,2.1,2.8,2.5c2.1,1.7,4.5,3.1,5.8,5.6c0.7,1.9,2.2,3.3,3,5.2
			c0.6,2.7,1.6,5.1,4.4,6.1c0.3,0.6,0.3,1.3,0.1,2c-2.8,3.9-4.2,1.4-5.7-1.1c-0.3-0.4-0.5-0.7-0.8-1.1c-3.4-5-8.1-9.1-13.6-11.7
			c-3.8-1.4-6.9-4.3-10.9-5.3c-2.4-1-4.7-2.4-7.2-3.3c-11.1-4-20.4,1.8-30,5.8C284.3,132.1,282.8,134.4,280.1,133.3z"/>
		<path class="st3" d="M260.8,380.1l-2.7-1.2c-3-8.6-2.5-17.6-1.6-26.4c0.4-3.6-0.7-6.8-0.5-10.2c0.1-2.9-0.7-5.8-0.3-8.7
			c0.2-1.6-0.1-3.8,2.7-3.6c4,1.8,0.9,5.8,2.6,8.3s1.5,5.1,0.8,7.8c-0.4,1.2-0.6,2.5-0.5,3.8c0,2.6-0.9,5.6,3,6.4
			c0.5,0.1,0.6,1.1,0.6,1.7c0,1,0,2,0,3c-2.4,5-2.9,10.6-1.4,15.9c0.3,1.3,0.4,2.7-1.1,3.5C261.8,380.5,261.3,380.4,260.8,380.1z"/>
		<path class="st4" d="M350.8,360.4c1.2,1.6,1.6,3.4,0.2,5c-1.1,1.1-2.8,1.4-4.2,0.6c-9.7-4.5-19.8-2.3-29.8-1.9
			c0.2-3.4,3.2-3.1,5.2-3.2c5.4-0.2,10.8-2,16.3-0.3c3.6,1.1,3.1-1.7,3.1-3.8c1.3-5.2-1.4-10.5,0.1-15.8c0.3-0.3,0.9-0.3,1.2,0
			c0,0,0,0,0,0l2,4C347,350.1,349.1,355.2,350.8,360.4z"/>
		<path class="st5" d="M256.9,342.3c0.7,12.2-1.1,24.5,1.2,36.6c-1.4-0.1-2-0.9-2.1-2.3c-0.4-8.9-2-17.6-0.2-26.6
			c0.7-3.2-0.2-6.9-1.1-10.2c-1-3.8-0.6-7.6-0.6-11.4c0-2.4,0.8-5,3.2-5.7c1.9-0.5,3.5,1.5,4.4,3.3c0.8,1.7,1.9,1.6,3.6,1.4
			c4.4-0.5,7.6-4,12-4.4c0.1,1-0.2,1.9-0.9,2.6c-0.5,0.5-1.1,1-1.7,1.4c-3.2,2-7.1,2.2-10.3,4.2c-1.4,0.9-2.8,0.1-3.9-1
			c-0.8-0.7-1-2.5-2.4-2.1c-1.1,0.3-1.5,1.7-1.5,2.9C256.6,334.8,256.1,338.6,256.9,342.3z"/>
		<path class="st6" d="M325.8,387c-3.3-0.7-5.8-2.9-8.8-4.2c-1.2-1.8-0.6-3.3,1-4.5s2.6-0.1,3.7,0.9c0.7,2.2,2.4,0.9,3.8,1
			c0.4,0.1,0.9,0.2,1.3,0.4c2.3,1.4,4.4,1.7,5.7-1.3c4-2.2,8.4-1.6,12.6-1.9c1.7-0.1,3.3,0.8,4.1,2.3c-0.1,3.9-3.2,3.9-5.9,4.5
			c-0.5,0.1-0.9,0.2-1.4,0.3c-2.3-0.8-4.8-0.3-6.6,1.2C332.5,387.7,329,388.2,325.8,387z"/>
		<path class="st7" d="M277.2,263.2c-11.8,0.8-23.5,2.9-35.3,1.7c-4.1-0.4-5.6,1.4-5.8,4.7c-0.2,4.1,0.1,8.2,0.2,12.4
			c-0.4,0.3-0.9,0.4-1.3,0.2c-0.3-0.3-0.6-0.7-0.7-1.2c1-5-3.8-7.7-5-11.8c-0.2-0.5-0.3-0.9-0.4-1.4c-0.8-3-1.1-5.8,2.2-7.5
			c2.5-0.4,4.6-0.5,6.1,2.3c0.6,1.1,2.3-0.1,3.5,0.1h8.3c1.9,0,3.8,0,5.7,0c1.9,0.2,3.7,0,5.5-0.7c2.5-0.7,5-1.6,7.6-1
			c2.6,0.7,5.3,0.9,8,0.4c0.5,0,1,0.1,1.4,0.4C277.5,262.1,277.5,262.7,277.2,263.2C277.2,263.2,277.2,263.2,277.2,263.2z"/>
		<path class="st8" d="M235,281c0.1,0.3,0.1,0.6,0.1,0.9c1.9,1.5,1.8,3.4,1,5.2c-0.7,1.8-1.1,3.7-1.2,5.6c-1,2.4-1.6,5-2,7.6
			c-1,1.5-1.6,3-0.5,4.8c0.8,1.9,0.9,3.9,0.2,5.9c-0.4,0.7-1.1,1.2-1.9,1.4c-0.5,0-1-0.3-1.3-0.8c-0.5-3.5-1.3-7-0.7-10.5
			c-0.5,4.2,0.4,8.3,0.6,12.4c0,1.4-0.2,2.7-1.5,3.6l-0.9,0c0.9-7.8-1.3-15.5-0.1-23.2c0.4-0.2,0.8,1.3,1.2-0.1c0-1.3,0-2.5,0-3.7
			s0-2.3,1.2-3c0.8-1,1.3,2.1,2.1,0.1c0.7-1.6,0.4-3.4,1.2-5C233.2,281.2,233.9,280.6,235,281z"/>
		<path class="st2" d="M269,109.1l-3.3-0.1c5.4-2.7,11.4-2,17.1-2.1c9.5-0.2,18.9,1.7,28.1,3.7c5.7,1.3,10.5,5,15.2,8.4l-0.2,0.3
			c-0.7,0.7-1.8,0.9-2.7,0.4c-2.6-1.2-5.2-3.9-7.6,0.5c-0.4,0.7-1.7-0.5-2.3-1.3c-0.4-1.4-1.8-2.4-3.2-2.1c-2-0.4-2.5-2.6-4.1-3.6
			c-6-2.6-12.3-3.3-18.8-3.4C281.2,109.6,275.1,109.8,269,109.1z"/>
		<path class="st9" d="M424.1,329.4c0.4,2.1-0.8,4.4,1,6.2c0.1,0.4,0.3,0.8,0.6,1.2c0.4,1.9,2.6,3.1,2.4,5.3
			c-0.3,0.3-0.7,0.6-1.2,0.7c-1.4,0.2-2.2-0.6-3-1.6l-2.8-1.2c-3.1-0.9-4-3.5-5-6.1l0.1,0.1c-2-4.4,0.1-8,1.9-11.8l-0.1,0.1
			c4.1-5.8,9.7-7.1,14.1-3.3c-2,2.2-5.2,0.8-7.3,2.5c-0.8,0.4-1.5,0.9-2.2,1.4c-1.3,0.9-1.6,2.4-2.3,3.7c-1.4,1.9-1.7,4.3-0.9,6.5
			c0.8,0.5,0-0.2,0.1-0.2c-0.1-0.3-0.2-0.6-0.3-0.9c-0.1-0.7,0.1-1.3,0.5-1.9c3.1-0.6,1.2-3.5,2.3-5.1c1.1-1.1,2.9-1.2,4.2-0.2
			C427.5,327.2,424.7,327.8,424.1,329.4z"/>
		<path class="st10" d="M233.9,293.2c-0.7-3.9,3.7-7.2,1.2-11.3h1.1c1.4,2.2,0.6,4.4,0.3,6.7c-0.7,7.8-1.1,15.6-1.7,23.4
			c1.3,2.3,0.8,4.9,0.5,7.3c-0.9,8.2-0.5,16.5-1.5,24.7c-1.7,0.5-2-1-2.6-1.9c-0.9-2.5-0.5-5.2-0.6-7.8c0-1.4,0.1-2.7,0.2-4.1
			c0.6-2.2,0.8-4.6,1.2-6.8c0.7-2.1,0.8-4.3,0.2-6.4c0-2.2-0.4-4.4,0.2-6.6c0.1-2.6,0.2-5.3,0.2-8
			C233.4,299.4,232.5,296.1,233.9,293.2z"/>
		<path class="st11" d="M431.3,381.8l0.8,1c1.5,1.7,3.2,2.4,5.2,0.8c0.5-0.1,1,0,1.4,0.2c1.9,4.1-2.5,3.4-3.8,5
			c-1.5,0.5-3.1,0.6-4.6,0.3c-2.8-2.7-5.9-5.3-7.6-8.9c0.3-0.7-0.1-1-0.7-1c-1.4-0.7-1.7-2-1.9-3.4c0.2-2.3-1-4.9,1.2-6.9
			c1.5-0.5,2.6,0.2,3.6,1.2c0.2,0.2,0.3,0.4,0.5,0.6c0.3,0.4,0.5,0.9,0.6,1.4c0.2,0.9,0.3,1.9,0.3,2.9c-0.3,1.8,0.7,3.5,2.3,4.2
			C429.6,379.8,430,381.2,431.3,381.8z"/>
		<path class="st12" d="M372.8,382c-0.7,0.1-1.5,0.2-1.4,1c0.1,1.2,2.8,2.3,0.5,3.6s-4.5-0.3-6.7-0.9c-2-0.5,0-2.2-0.2-2.9
			c-0.7-2.5,1.5-4.5,1-6.8c1-0.8,3.2-0.8,2.5-3c-0.5-1.2,0-2.6,1.2-3.1c0.1-0.1,0.2-0.1,0.3-0.1c1.8-0.6,2.4,1.2,3.1,2.5
			c0.5,2.2-2.7,3.6-1.2,6c0.6,0.9,1.5,1.5,1.6,2.7C373.5,381.3,373.2,381.8,372.8,382z"/>
		<path class="st13" d="M358.9,215c-0.3,2.7,0,5.7-4.2,5.8c-1.4,0.2-2.4,1.4-2.4,2.8c0.5,3.4-2,4.9-3.9,6.2c-3.1,2.1-5.7,4.2-7,8
			c-1,2.9-4.4,2.1-6.9,2c-0.3-0.7-0.3-1.4,0-2.1c7.8-6.8,13.8-15.4,21.7-22.1C357,215,358,214.7,358.9,215z"/>
		<path class="st14" d="M367.1,343l0.2,0.2l-0.1,0.3c0.4,1.4,1.7,1.3,2.7,1.9c1.1,0.4,2.2,0.6,3.4,0.6c4.6,0.4,4.9,1,2.7,5.5
			c-1.6,0.8-3.5,1-5.2,0.4c-3.9-2.3-7.3-5.5-9.9-9.2c-0.1-0.2-0.2-0.4-0.2-0.7c0-0.5,0.1-0.9,0.4-1.3c0.7-0.8,1.8,0,2.8-0.7
			c-1.4,0.3-2-0.5-2.5-1.4c-0.6-2.3,0.4-4.1,1.9-5.6c1.2-0.9,2.9-0.5,4.1-1.3c0.4,0,0.8,0.2,1.1,0.5c0.7,0.9,1,2,1,3.2
			C368.3,337.8,365.3,339.6,367.1,343z"/>
		<path class="st15" d="M233.1,344.2c1.5-9,0.8-18.1,1.6-27.2c0.1-1.6,0.1-3.3,0.1-5c2.5,4.5,1.1,9.3,0.9,13.9
			c-0.4,9.3-1.9,18.6-0.8,28c0.6,5.2-1.9,10.5-0.7,15.8c1.2,5-0.2,9.7-1,14.5l-0.8-0.6c-1-1.5-0.9-3.2-0.9-4.8c0-9.6,0-19.3,0-28.9
			C231.6,347.8,231.4,345.7,233.1,344.2z"/>
		<path class="st16" d="M185.2,234.9c-3.4,0.1-6.1-2.4-7.9-4.3c-5.6-6.4-11.9-12.3-18.6-17.6c-0.9-0.6-1.2-1.9-1.8-2.9
			c0.3-0.4,0.7-0.7,1.2-0.8c0.8-0.1,1.5,0.2,2.1,0.7c3.1,5.2,8.8,7.6,12.7,12c1.3,1.4,2.7,2.8,4.1,4.1c0.9,1.3,2.2,2.1,3,3.4
			l0.9,0.7C182.9,231.2,184.8,232.3,185.2,234.9z"/>
		<path class="st17" d="M398.9,357.9c-0.8-4.3-4.2-4.6-7.5-4.6c-5.5,0-11,0.4-16.5,0.6c-0.5-0.9-2.7,0-1.9-2.1
			c6.9-2.1,14-1.3,21.1-1.2c4.8,0.1,6.1,1.9,7.6,8.6c0.4,1.9,0.6,3.9,0.5,5.8c0,0.8-0.1,1.5-0.3,2.3c-0.5,1.8-0.9,3.6-1,5.5
			c-0.1,0.4-0.3,0.9-0.5,1.3c-0.9,1.2-1.9,2.4-3,3.5c-1.1,0.7-1.4,3-3.5,2.1c0.1-0.8,0-2,0.5-2.4c5.5-4.8,4.5-11.2,4.5-17.4
			C398.4,359.4,398.4,358.5,398.9,357.9z"/>
		<path class="st18" d="M205.7,247.2c5.2-0.2,10,1.6,14.9,2.9c3.3,0.9,3.5-0.1,3.9-3.2c1-8.2-0.9-16.3,0.2-24.4
			c0.6-4.1-0.5-8.5-0.7-12.8c-0.1-1.6-0.6-3.4,1-4.6c-0.1,7.2,1.9,14.1,0.9,21.5c-0.6,4.4,0.4,9.4,0.5,14.2c0.1,1.7,0.3,3.3,0.6,4.9
			c0.2,6.7-1.4,8-7.9,6c-1.7-0.5-3.4-1.3-5.3-1.2c-1.4-0.7-3.2,0.3-4.4-1.3v-0.1C207.9,249.2,206.3,249.3,205.7,247.2z"/>
		<path class="st19" d="M354.9,147.2c3.5,4.6,6.9,9.1,9.3,14.4c3.4,7.5,3.1,15.5,3.7,23.4c-0.4,0.4-1,0.3-1.4-0.1
			c-3.5-4.5-3.6-9.9-3.5-15.2c0.2-2.6-0.3-5.3-1.5-7.6c-0.9-1.8-2.4-3.3-3.1-5.3c-0.2-0.4-0.4-0.8-0.6-1.2c-1-2.5-3.6-4.3-3.5-7.3
			C354.5,148,354.7,147.6,354.9,147.2z"/>
		<path class="st12" d="M424,341.1l2.9,0.9c6.5,1.4,13.1,2.4,18.8,6.1c0.3,0.4,0.5,0.9,0.5,1.4l-0.5,0.6c-4.6-1.3-9.6-1.5-13.9-4.6
			c-0.4,2.8,3.5,2.5,2.2,4.5c-1.5,2.3-3.9,0.1-6,0.3c-2.6,0.3-1.1-2.3-0.9-3.1C428.4,343.8,423.8,343.8,424,341.1z"/>
		<path class="st20" d="M400.9,367.5l0.1-1.5c0.5-0.6,0.7-1.3,1.5-1.6c1.4-0.5,3.1,0.1,3.8,1.4c1.1,2,0.2,4.2,0.8,6.3l0,0
			c-2.1,1.5-3.1,4.1-2.8,6.6c-0.8,1-1.3,0.5-1.8-0.3c0.1,1,1,1.2,1.6,1.5c0.2,0.4,0.2,0.9-0.1,1.3l-2.3,2.7
			c-1.5,0.7-2.9,3.1-4.4,0.1c0-0.5,0-0.9,0.2-1.3c0.7-1.3,1.7-2.5,2-4c0.1-1,0-2-0.2-3c0.1-0.6,0.2-1.2,0.5-1.8v0.1
			C401.7,372,399.7,369.5,400.9,367.5z"/>
		<path class="st21" d="M451.1,358.7c0.1-0.2,0-0.5-0.3-0.6c0,0,0,0,0,0c-1.1-0.5-1.6-1.8-1.1-2.9c0,0,0-0.1,0.1-0.1
			c2.9,0.3,2.9,0.3,1.8-2.9c0.3-0.7,0.8-1.2,1.5-1.3c7,3.9,5.1,10.8,5.8,16.9c-1,3.4,1,7.7-3,10.2l0,0c-0.5,0.8-1,1.7-2.1,0.9
			c-1.4-3.2,2.3-5.4,1.9-8.4c0.3-3.1,1.9-6.3-0.5-9.4c-1.4,0.6-0.8,1.9-1,2.8c0,0.7-0.2,1.4-0.4,2.1c-0.4,0.7-0.8,1.2-1.7,1
			c-0.6-0.5-0.7-1.3-0.2-1.9c0,0,0,0,0,0c0-0.7,0-1.3,0-2C451,361.6,451.9,360,451.1,358.7z"/>
		<path class="st12" d="M432,319c-5.9-4.4-9.6,0.6-13.9,3.2c0.2-2.2,0.3-4.5,0.5-7.2c2.1,1.3,3.2,3.4,6.2,1.1
			c2.1-1.5,6.4-0.1,9.8,0.1c0.6,0,1.3,0.6,1.8,0.5c1.4-0.5,2.9-2.7,4-0.1c0.8,2-1.4,2.7-2.6,3.7c-0.4,0.3-0.7,0.7-1,1.1
			c-1,0.2-2.1-0.1-3-0.6C433,320.3,432.4,319.7,432,319z"/>
		<path class="st22" d="M317,331.9c0.7-2.1,4-2.7,3.3-5.6c2.2-0.1,4.5-0.7,6.7,0c0.6,0.2,1,1.5,1.9,1.2c4.5-1,4.5-1,7.7,1.8
			c-1.7,0.2-3.1,0.7-3.6,2.3c-0.1,0.4-0.4,0.8-0.9,0.9c-1.1,0-2.2-0.4-3.1-1.1c-2.1-1.4-4.7-1.6-7-0.5
			C320.4,331.4,319,333.5,317,331.9z"/>
		<path class="st23" d="M372.8,382l0.3-1.1c-0.2-2.7-2.4-6.5,3.4-5.8c2.4,3,4.1,6.5,7.9,8.2c2.4,2.1,5.5-1.6,7.8,1
			c-0.1,1-0.6,1.8-1.4,2.3c-1.4,0.8-2.9,1.4-4.5,1.7c-0.5,0.1-0.9-0.1-1.3-0.4c-0.3,0.1-0.7-0.1-0.9-0.3c-3.8-1.5-7.8-2.7-10.9-5.8
			L372.8,382z"/>
		<path class="st24" d="M366.8,184.9l1.2,0.1c0.2,9.3-2.6,17.7-7.1,25.7c-0.5,1.5-0.8,3.1-2,4.2l0,0l-1.9,1.1
			c-1.5-2.1,0-3.8,0.7-5.5c3.1-6.9,6.9-13.5,6.4-21.5C364.1,187.4,364.5,185.4,366.8,184.9z"/>
		<path class="st25" d="M277.2,332.4l-8,8.7c-2.2,1,0.1,4.5-2.8,5.1c-0.5,0.1-1,0.1-1.4-0.1c-1.2-1.2-1.2-2.7-1.2-4.2
			c0-1.5,0.5-3,1.5-4.3c2.2-2,3.6-4.9,6.3-6.6C275.9,329.7,276.1,329.7,277.2,332.4z"/>
		<path class="st26" d="M264,361c0-1,0-2,0-3c0.5-4-0.6-8.4,1.9-12.1l0.1,0.1c0.5-0.6,1.3-0.6,1.9-0.1c0,0,0.1,0.1,0.1,0.1
			c-2.3,10.6-2.9,21.5-2,32.3c0.1,1.3,0.6,3.3-1.4,3.8c-1.6,0.4-3.4,0.3-3.9-1.9l1.2-0.1c1.9,0.5,2.1-1,1.7-1.9
			c-2.2-5.4-0.4-10.6,0.7-15.8C264.5,361.8,264.4,361.3,264,361z"/>
		<path class="st27" d="M185.2,234.9l-4.4-4.7c0.8,1,1.9-4.5,2.6,0.1c0.2,0.8,0.7,1.5,1.4,1.9c8.8,1.8,13.8,8.9,19.9,14.5
			c0.1,0.1,0.2,0.3,0.3,0.4c-0.8,0.8-1.8,0.4-2.8,0.5c-0.7,0-1.4-0.3-1.9-0.8c-2.8-4.4-6.8-7.3-11.3-9.8
			C188.3,235.1,186.7,235.2,185.2,234.9z"/>
		<path class="st15" d="M233.3,384.2c-1.1,7,0.9,14.1-0.2,21.2c-0.4,2.6-1.7,4.6-3.9,5.2c-2.1,0.7-4.4-0.5-5-2.6
			c0-0.1,0-0.2-0.1-0.2c0.6-0.4,1.2-0.6,1.9-0.5c2.4,0.3,2.9-1.7,3.8-3.2c1.3-2.3,1-4.8,0.5-7.2c-0.9-3.7-0.7-7.5,0.4-11.2
			c0.1-0.5,0.4-1,0.6-1.4c0.3-0.4,0.8-0.7,1.4-0.5L233.3,384.2z"/>
		<path class="st28" d="M313.3,379.8c-10.5-6.7-13.8-21.9-9.3-31.8c0.8-1.3,1.2-3.8,3.2-0.9c0.1,1-0.1,1.9-0.6,2.7
			c-2.8,5.8-2.1,11.7,0,17.5c0.9,2.3,2.2,4.4,3.9,6.2c0.9,1.5,2.1,2.8,3,4.4C313.7,378.5,313.7,379.2,313.3,379.8z"/>
		<path class="st29" d="M363.9,348c-3.4-0.9-4.5-3.6-4.9-6.6c-0.9-7.5,7.7-18.7,15-19.8c1.5-0.3,3,0.2,4,1.4
			c-5.8,1.8-10.9,5.3-14.6,10.1c-1.9,2.6-2.8,5.8-2.5,9l0,0C362.2,343.9,364.3,345.3,363.9,348z"/>
		<path class="st22" d="M306.9,342.9c0-0.8,0.1-2.3-0.4-2.1c-6.8,2.4-0.2-4.2-3-4.4c1-2,3.9-3.8,4.5-3.1c1.8,2,3.3,1.2,5.1,1
			c0.4,3-2.1,4.6-3.3,6.9c-0.7,0.8-1.2,1.8-2.4,2.1L306.9,342.9z"/>
		<path class="st30" d="M295,331.2c-3.1-2.3-6.5-1.5-9.9-1c-0.3-0.3-0.5-0.7-0.5-1.1c0.1-0.4,0.3-0.8,0.5-1.2c0.8-1,1.2-2.3,2.7-2.5
			c2.9,1.5,5.1,1.1,6.6-2c3.6-0.3,4.9,2.5,5.9,4.9c0.8,2.1-1,3.2-3,3.6C296.5,332,295.7,331.7,295,331.2z"/>
		<path class="st31" d="M277.2,263.2l-0.1-1.1c0.9-3.4,3.9-0.8,5.5-2c1.3-0.3,2.6-0.5,3.9-0.6c1.3,0,2.5-0.1,3.7-0.4
			c1.8-0.2,3.8-0.2,5.1-1.9c0.5-0.5,1.1-0.9,1.7-1.2c2.3-0.7,4.4-2.2,7-1.3c0.2,0.2,0.4,0.5,0.3,0.9c-0.1,0.3-0.1,0.4-0.2,0.4
			C296.1,261.2,286.7,263.7,277.2,263.2z"/>
		<path class="st32" d="M434,319.9l2.9,1.3l1,0.8c0.9,0.8,1.7,1.6,2.4,2.5c0.8,1.3,1.3,3,0.2,4.1c-1.5,1.6-2.6,0-3.7-0.9
			c-4.8-4.2-8.6-0.7-12.5,1.6l1.8-4.4c0.5-0.6,1.1-0.9,1.8-1.1c2.3-0.5,4.6-0.5,6.9,0c0.3-0.1,0.9,0.5,0.8,0s-0.8-0.9-1.1-1.5
			C433.9,321.7,433.4,320.9,434,319.9z"/>
		<path class="st29" d="M422.7,380c1.8,3.2,5.4,4.8,7,8.1c0.6,0.2,1.3,0.4,1.9,0.6c2.4,0.2,4.8,0.6,7.2,0.9c1.6,0.1,2.9-0.8,4.4-1.2
			c0.7-0.1,1.4,0.1,1.9,0.6c-2.5,3.6-5.2,3.5-9.8,3.1c-7.4-0.7-8.2-7.7-13-10.4C422.3,381.1,422.5,380.5,422.7,380z"/>
		<path class="st33" d="M407.1,372.1c-2.4-1.6-0.7-4.1-1.2-6.1c-2-3-1.7-7-4.4-9.6c-0.7-2-0.5-4.3-1.8-6.2c-0.1-0.4-0.1-0.9,0.1-1.3
			c0.4-0.3,0.9-0.2,1.2,0.1C406.6,355.7,409,363.4,407.1,372.1z"/>
		<path class="st34" d="M362.9,333c3.3-5.9,7.7-10.2,15-10c1.6,0.9,3.9,0.1,5.1,2c-0.3,0.4-0.7,0.7-1.2,0.9
			c-1.4,0.4-2.9,0.4-4.3,0.1c-1,0.2-3.2-1.6-2.6,1.6c0.2,0.9-1,1.2-1.8,1.4c-2.7-0.2-5.1,0.1-6.2,3.1c-0.2,2.6-2,0.7-3,1
			c-0.2,0.3-0.6,0.4-0.9,0.2C363.1,333.2,363,333.1,362.9,333z"/>
		<path class="st35" d="M420.8,376.1l1.2,2.9c-1,0.4-1.8,0.7-2.1-0.9c-1-5.1-2.9-10.3,2.5-15c2.1,4.3,7.3,6.4,7.6,12
			c-0.4,0.3-0.9,0.3-1.3,0.1c-1.5-1.2-2.2-2.9-3.4-4.3l-0.1,0.1c-0.8-0.7-1.3-1.8-2-2.5c-1.8-1-2.4,0-2.5,1.5
			C420.3,372,420.4,374.1,420.8,376.1z"/>
		<path class="st36" d="M226.1,242.1c-0.3-12.3-0.7-24.7-1-37c0.3-0.1,0.5-0.2,0.8-0.2c1.3,12.4,1.1,24.8,1.2,37.2
			C226.9,242.3,226.5,242.3,226.1,242.1C226.2,242.1,226.1,242.1,226.1,242.1z"/>
		<path class="st37" d="M277.2,332.4c-1.9-2.9-4.2,0.3-6.2-0.4c-0.3,0.3-0.7,0.4-1.1,0.1c-0.1-0.1-0.1-0.1-0.2-0.2
			c0-3.8,3-3.8,5.5-4.5c0.8,0,1.1,1.4,2,1.1c1-0.3,0.4-1.4,0.5-2.1c0.6-1.6,2.3-2.4,3.9-1.9c0.9,1.7,3.3,2.2,3.3,4.4l0,0
			c-1.1,2-3.4,2-5,3.1L277.2,332.4z"/>
		<path class="st8" d="M226,356c0-11.8,0-23.5,0-35.3c0-1.3-0.1-2.7,1-3.7l0.4,0.3c1.5,1.9,1,4.1,1.1,6.2c0.1,9.1,0,18.2,0,27.4
			c0,1.8,0.1,3.7-1.4,5.1L226,356z"/>
		<path class="st10" d="M390,386l1.9-1.1l0.6,0.1c1.1,1.3,5.3-1.6,4,3c-1.2,1-2,2.5-3.6,2.8L392,391c-1.5,1.8-2.8,2.2-3.9-0.4
			l-3.2-2.6c0.3-0.1,0.7-0.2,1-0.2C387.2,387.1,389.3,388,390,386z"/>
		<path class="st38" d="M325.8,387c2.8-0.2,5.7-0.1,8.3-1.3c1-0.5,2.7-0.6,2.5-2c-0.3-1.9-0.1-2.8,2-2.8c2.5,0,1.8,1.4,1.4,2.8
			l2,0.3c0.4,0.2,0.5,0.4,0.4,0.7s-0.2,0.3-0.4,0.3C336.7,386.1,331.6,389.1,325.8,387z"/>
		<path class="st8" d="M225.9,390c-0.3-10.4-0.6-20.9-0.9-31.3c-0.1-1,0.3-2,1-2.7l0.4,0.3c1.2,1.6,0.9,3.5,1.1,5.2
			c-0.2,7.5,1.5,14.9,1,22.4c-0.1,2,0.2,4-0.9,5.8C227.1,390.2,226.4,390.4,225.9,390z"/>
		<path class="st39" d="M227.1,279c-0.1-3.6-0.1-7.3-0.2-10.9c-0.1-4.5-2-7.2-6.9-7c-1.2,0.2-2.3-0.2-3.3-0.9c0.3-0.5,0.7-0.8,1.2-1
			c2.4-0.7,5-0.5,7.2,0.6c1.2,0.6,2.1,1.6,2.7,2.8c0.3,2,0.9,3.9,1.6,5.7c0.4,2.6-0.6,5.3,0.4,7.9c0.2,1,0,2.1-0.6,2.9
			C228.6,279.6,227.7,279.6,227.1,279z"/>
		<path class="st40" d="M391.9,384.9c-2.6-1.2-5.5,1.5-8.1-0.7l0.4-0.6c3,0.2,5.5-1.1,8-2.5l1.7-1.3l3-2.8c0.3,0.3,0.5,0.6,0.6,1
			c0.1,0.4,0.1,0.8,0.2,1.2c0.2,1.2,1.3,2.4,0.2,3.7h-0.1c-0.3,0.3-0.6,0.5-0.9,0.7c-1,0.2-1.9,0.6-2.8,1c-0.7,0.3-1.4,0.8-2.2,0.3
			L391.9,384.9z"/>
		<path class="st27" d="M451.9,365l-0.1,1.8c0,0.2,0.1,0.4,0.1,0.6c0.2,1.6-0.5,3-0.9,4.4c-0.1,0.4-0.3,0.8-0.5,1.2
			c-0.7,1-1.4,2.1-2,3.1c-0.4,0.8-0.8,1.5-1.3,2.2c-0.7,1-1.9,1.4-3,1l-0.5-0.5C446,373.9,447.8,368.8,451.9,365z"/>
		<path class="st11" d="M373,328c1.2-2.5,2.1-3.2,4-3c2.6,1.6,3.2,3.5,1,5.9l-4.9,2.1c-0.3,0.3-0.8,0.4-1.2,0.2
			c-0.8-1.5,1-2.7,0.6-4.2C372.5,328.6,372.7,328.2,373,328z"/>
		<path class="st22" d="M295,331.2l2-0.2c3.5,0,3.5,0,3.8-4.9c0.6,0.3,1.1,0.7,1.7,1c0.9,0.4,1.1,2.4,1.3,2.9c0.5,1.6,0.5,3.5-1,3.3
			c-2.6-0.3-5.2,0.8-7.7-0.4C294.2,332.5,294.8,331.7,295,331.2z"/>
		<path class="st41" d="M227.1,279h1.9c1.8,2.3,2.2,5.4,1,8c-1.1,0.8-0.9,2-1,3c-0.8,1.5-0.8,3.4,0,4.9c-0.1,0.6,0,1.5-0.9,1.3
			c-1.1-0.3-0.9-1.6-1.2-2.5v-7.5c-0.5-2.2-0.5-4.4,0-6.6C226.8,279.4,226.8,279.2,227.1,279C227.1,279,227.1,279,227.1,279z"/>
		<path class="st42" d="M378,330.9c0.3-2.1,0.3-4.1-1-5.9l4.8,0.2c0.8,0.2,1.5,0.7,2.1,1.3c0.8,0.8,1.9,1.5,1.4,2.9
			s-1.7,1.2-2.9,1.1c-1.1-0.2-2.3-0.1-3.4,0.3L378,330.9z"/>
		<path class="st43" d="M313.3,379.8l-0.5-1.7c0.3-0.3,0.6-0.6,1-0.7c1.8-0.5,1.3-2.6,2.4-3.6c3.3,1,4.5,4.3,7.2,6
			c-0.3,0.5-0.9,0.7-1.4,0.4c0,0-0.1,0-0.1-0.1c-4-3.2-4.6-0.5-4.8,2.8C315.5,382.2,315.1,380.1,313.3,379.8z"/>
		<path class="st44" d="M300.9,326c0.3,1.7,1.8,3.5,0,5.1c-0.8,1-2.4,1.2-3.4,0.4c-0.2-0.1-0.3-0.3-0.4-0.5c1.3-0.3,3.3-0.8,2.5-2.2
			c-1.2-2-2-5.1-5.5-4.8c-0.9,0.2-1.2-0.1-1-1C296.9,320.6,298.3,324.8,300.9,326z"/>
		<path class="st4" d="M308.9,340.9l4.3-6.7l0,0c0.8-1,2-1.8,3.2-2.1c0.2,0.1,0.5,0.1,0.6-0.1c0,0,0-0.1,0.1-0.1
			c2,0.2,3-2.1,4.9-2.1c0.3,0.3,0.5,0.8,0.5,1.2c-0.1,0.7-0.5,1.3-0.9,1.9c-4.2,1.6-7.7,4.6-10.1,8.4c-0.6,0.4-1.3,0.4-2,0.1
			L308.9,340.9z"/>
		<path class="st45" d="M369.1,346c-1.1-0.5-2-1.1-1.9-2.5c7,1.9,13.9-0.5,20.8-0.6c0.4,0.4,0.3,1.1-0.1,1.4c0,0,0,0,0,0
			c-1.6,1.1-3.6,1-5.3,1.6c-4,0.9-8-0.5-12,0.2C370.1,346.3,369.5,346.2,369.1,346z"/>
		<path class="st12" d="M416.2,333.8c2.6,1.2,3,4.3,5,6.1c-1.3,1.7-2.6,1-4.4,0.6c-3.4-0.6,0.5-1.9-0.5-2.7
			C414.8,336.6,416,335.1,416.2,333.8z"/>
		<path class="st46" d="M160.1,210h-2.1c-1.7-0.9-2.7-2.7-4.3-3.8c-1-1-2.6-1.1-3.7-0.2c-1-1.6,0.1-2,1.3-2.2
			C155.2,203.2,158.7,205.6,160.1,210z"/>
		<path class="st47" d="M293,323l1,1c-0.3,1.2,1.5,2.6,0.1,3.6c-1.3,0.7-2.9,0.8-4.2,0.1c-1-0.4-1.5-1.7-2.9-1.6
			c-0.3-0.4-0.3-0.9-0.1-1.3c0.3-0.3,0.7-0.5,1.1-0.6c0.7-0.3,2.4,0.8,2-1.3L293,323z"/>
		<path class="st48" d="M383.8,384.2c-3.5-0.5-4.5-4.3-8-5.6c-2.5-0.9,2.1-0.4,1.8-2c0-0.2-0.1-0.3-0.2-0.4
			c-0.1-0.1-0.3-0.2-0.4-0.3c-0.3-0.2-0.5-0.6-0.3-0.9l0.5-0.3c3.2,0.9,2.4,5.3,5.5,6.3c0.9,0.6,1.5,1.6,1.5,2.6L383.8,384.2z"/>
		<path class="st49" d="M343,341c-0.3-0.2-0.6-0.3-0.9-0.2c-2-0.1-3-1.9-4.5-2.8c-0.5-0.4-1-0.8-1.5-1.3c-1.1-1.5-3.6-2-3.1-4.6
			l0.1-0.4C336.6,334.5,342.6,334.8,343,341z"/>
		<path class="st11" d="M379,330.8c0.4-0.3,0.8-0.6,1.2-0.8c1.4-0.5,3.7,0.9,4.2-1.1c0.5-1.7-1.7-2.5-2.6-3.8l1.2-0.2
			c2.7,1.4,4.3,4.2,4.1,7.2L379,330.8z"/>
		<path class="st5" d="M346.1,134.9l-5-5.9c5.6,0.6,7.5,4.7,8.8,9.4C347.8,138.1,347,136.4,346.1,134.9z"/>
		<path class="st35" d="M454,379l1.9-1.1c0.2,2.4-2.5,4.5-0.7,7c-2.5,0.1-3.5,3.4-6.3,2.8c-0.3-1.9,1.4-2.9,2-4.3
			c0.2-0.4,0.4-0.7,0.6-1c0.5-1.1,1.2-2.1,1.9-3.1L454,379z"/>
		<path class="st14" d="M335.2,238.1c-0.2,0.6-0.4,1.1-0.6,1.7l-0.8,0.7c-0.5,3.1-3.1,2.8-5.2,3.3c-1.4-0.3-2.2,1.2-3.5,1.3
			l-0.4-0.5c0-1.9,1.4-2.7,2.7-3.6c0.8-0.5,1.6-0.9,2.3-1.4C331.5,238.9,332.8,236.4,335.2,238.1z"/>
		<path class="st27" d="M450,355c0.3,1,0.5,2,0.8,3.1c-0.9,0.5-1.1,2.2-2.9,1.7c1.9-3.8-2.1-6.2-2.1-9.6l0.2-0.1
			C449.2,350.1,450.8,351.5,450,355z"/>
		<path class="st48" d="M342,385c0-0.3,0-0.7,0-1l1.1-0.3c2.2-0.9,5.8,1.2,6.5-3c0-0.4,0.2-0.8,0.6-1c1.9,0.4,2.1,2.6,3.7,3.4
			c0.2,3.5-2.1,3.2-4.2,2.6C347.2,385,344.6,384.8,342,385z"/>
		<path class="st45" d="M363.9,348l-3.1-5.9l9.3,8.8c-0.3,0.4-0.7,0.7-1.2,0.8c-1.5,0.2-2.3-0.7-2.9-1.8
			C365.9,348.6,364.4,348.9,363.9,348z"/>
		<path class="st50" d="M388.1,343.9c-0.1-0.3-0.1-0.6-0.1-0.9c5.8-1.1,10.1,1,13.1,6L400,349c-2,0.3-2.7-1.6-4.2-2.2
			c-0.5-0.3-1.1-0.5-1.7-0.7c-1.7-0.4-3.4-0.8-5-1.4C388.7,344.6,388.3,344.3,388.1,343.9z"/>
		<path class="st51" d="M429.1,374.9c0.3,0,0.5,0,0.8,0.1c-0.4,2.4,0.5,4.6,1.4,6.8l-3.2-1.9c-0.8-1.8-3.2-2.6-3.1-5l0-3
			C428.2,370.4,427,375,429.1,374.9z"/>
		<path class="st29" d="M350.8,360.4c-2.9-4.7-4.9-10-5.8-15.4c2.9,2,2.4,5.5,3.8,8.2c0.8,1.8,1.9,3.4,3.2,4.8
			C351.1,358.5,351,359.5,350.8,360.4z"/>
		<path class="st39" d="M346.1,134.9l3.8,3.5c2.3,2.6,5.3,4.8,5.1,8.8l-0.2,1.1l-0.6-0.3l-0.5-1.8c-2.1-1.6-3.2-4-4.6-6.2
			C348.3,138.2,345.6,137.4,346.1,134.9z"/>
		<path class="st52" d="M397,383c0.3,0,0.7,0,1,0c0.5,3.5,2.6,0.6,3.9,1c-0.5,2.1-3,2.1-3.9,3.8c-0.5,0.9-1.2,0.8-1.9,0.3
			c0.1-0.8,1.1-2.2-0.9-1.6c-1.6,0.5-2.9,0.9-3.1-1.5l2-1C395.1,384.2,396.2,383.8,397,383z"/>
		<path class="st49" d="M187.1,244.9l7.9,3.1c1.9,1,3.6,2.4,5,4.1v-0.1c0.6,0.3,0.6,0.6,0,1C195.1,251.3,190.7,248.5,187.1,244.9z"
			/>
		<path class="st12" d="M418.2,322.1c-0.8,3.9-2.9,7.6-1.9,11.8c-1.2-0.7-3,0.3-3.9-1.4C417,330.5,413.8,324.1,418.2,322.1z"/>
		<path class="st20" d="M275.7,324.8l1.6-1.7c3.9-1.2,7.6-4.3,11.9-1.2c-0.7,0.8-1.8,1.3-2.9,1.3c-2.4,0-4.8,0.6-7.1,1.6
			C278,325.4,276.8,326.2,275.7,324.8z"/>
		<path class="st53" d="M225.8,408.5l-1.7-0.7c-1.6-4.4-1-8.6,0.8-12.8l0.6,0.5c0.6,1.1,0.9,2.4,0.8,3.7
			C225.4,402.2,227,405.4,225.8,408.5z"/>
		<path class="st54" d="M371.8,332.9l1.3,0.2c-1.9,3.4-6.5,5.1-6,9.9c-2.5-3.4,0-5.6,1.9-8C369.4,333.5,370.2,332.6,371.8,332.9z"/>
		<path class="st13" d="M366,349.9l2.7,1.2c1.3,0.8,2.9,0.7,4,1.8c0.8,0.2,1.7,0.2,2.2,1.1c-2.6,0.5-5.4,0.5-8,0l0,0L366,349.9z"/>
		<path class="st48" d="M373.2,381.9c4,1.3,7.3,3.6,10.9,5.8l-6.9-1.7c-1.2-0.7-2.3-1.6-3.1-2.7L373.2,381.9z"/>
		<path class="st55" d="M452.1,383.1c-0.1,2.2-2,3.2-3.2,4.6c-1.6-0.4-2.8,0.4-3.9,1.3l-1.9,0.2c-0.7-2.3,1.5-2.7,2.6-3.8
			C447.8,384.7,449.4,382.2,452.1,383.1z"/>
		<path class="st56" d="M444.9,341.1c1.5-0.1,1.6,1.9,3,2c0.7,1.8,3,2.6,3.2,4.7l-0.5,0.5c-0.5,0.1-0.9,0.2-1.4,0.1
			c-2.4-1-3.4-3.2-4.6-5.3C444.3,342.5,444.4,341.7,444.9,341.1z"/>
		<path class="st57" d="M371,378.9c-2.3-3.1,0.6-4.7,2.1-6.7c1.9,0,3.9-0.2,4.1,2.5c-0.1,0.2-0.3,0.4-0.4,0.5
			C373.1,373.8,372.2,376.7,371,378.9z"/>
		<path class="st14" d="M325.2,245.2c-2.3,2.9-6.1,3.1-9,4.9l-0.4-0.6c-0.1-1.5,0.8-2.9,2.2-3.5c2.2-0.7,4.3-2.2,6.9-1.4
			C324.9,244.9,325,245.1,325.2,245.2z"/>
		<path class="st27" d="M437.8,383.8c-0.3,0-0.6,0.1-0.8,0.2c-0.6,0.4-0.9,0.3-1-0.5c1.8-3,4.6-4.3,7.9-4.8l0.3,0.3
			c0,1.3-1,1.8-1.8,2.5C441,382.7,439.4,383.5,437.8,383.8z"/>
		<path class="st35" d="M396,388l1.9-0.3c-1.5,1.4-0.9,3-0.1,4.9l-4.9-1.8C393.6,389.6,394.7,388.6,396,388z"/>
		<path class="st58" d="M200,253c0-0.3,0-0.7,0-1c3.7-1,5.8,2.8,9.1,2.9c0.3,0.4,0.3,0.8,0.1,1.2c-0.4,0.2-0.9,0.1-1.3-0.1
			C204.8,256.1,203,253.1,200,253z"/>
		<path class="st12" d="M421.9,348.9c0.2,1-0.5,1.9-1.5,2c-0.2,0-0.5,0-0.7,0c-0.6-0.1-1.5-0.1-0.9-1.1c0.3-0.4,1.1-0.4,1.7-0.6
			c0-0.3-0.1-0.6-0.2-0.8c-0.3-0.6-2.5-0.2-1-1.8c0.4-0.3,0.9-0.3,1.4-0.1C421.5,347,422,347.9,421.9,348.9z"/>
		<path class="st35" d="M455.9,377.9c3.1-2.8,1.4-7,3-10.2C458.9,371.4,460.8,375.6,455.9,377.9z"/>
		<path class="st17" d="M384.2,383.7l-1.5-2.6c3.2,3.1,6.3,0.4,9.5,0C390.1,383.6,387.5,384.7,384.2,383.7z"/>
		<path class="st33" d="M403.8,379.1c0.5-2.6-1-6.2,3.3-7c-2.5,2.6-0.9,6.5-3,9.1l-0.4-1.4l-0.2-0.4L403.8,379.1z"/>
		<path class="st59" d="M316,250.9l-8.7,3.4l-0.5-0.4c0-1.3,1.1-1.8,1.9-2.6c0.5-0.4,1.1-0.8,1.8-1.1c0.5-0.2,0.9-0.3,1.4-0.3
			C313.3,249.6,314.8,250,316,250.9z"/>
		<path class="st60" d="M202,247l3,0.1c0.1,0.2,0.4,0.3,0.6,0.2c0,0,0.1,0,0.1-0.1l3.8,1.9c-2.9,2.4-4.8-1.9-7.5-1.2
			c-0.4-0.2-0.5-0.4-0.4-0.7C201.8,247.1,201.9,247,202,247z"/>
		<path class="st27" d="M202.6,240.8c-1.7-1.6-3-3.8-3.6-6.1C201.7,236.7,203.5,237.4,202.6,240.8z"/>
		<path class="st61" d="M268.1,346h-2c2.2-0.9-0.7-5.1,3.1-4.9C269.3,342.8,268.9,344.5,268.1,346z"/>
		<path class="st62" d="M120.1,192c2.4-1.4,3,0.2,2.9,2.1c-0.2,2.1-1.3,2.5-3,1C120.3,194.1,120.3,193,120.1,192z"/>
		<path class="st38" d="M285.8,322.2l3.3-0.3c0.3,0.3,0.6,0.6,0.9,0.9c0.3,0.7,0.6,1.3,0.9,2l-3,0.1c-0.5-0.7-1.3-1-1.9-1.5
			C285.8,323,285.7,322.6,285.8,322.2z"/>
		<path class="st22" d="M306.5,346.9c-1.6-1.5-1.6,1-2.5,1.1c-0.3-2.4,1-3.9,2.9-5.1l0.2,0.1c0.9,0.9,1.1,2.2,0.6,3.3
			C307.5,346.8,307,347,306.5,346.9z"/>
		<path class="st12" d="M442.4,320.3c-0.6-1.5-0.9-2.8,0.6-4C444.6,318,443.5,319,442.4,320.3z"/>
		<path class="st16" d="M120.1,192c1.6,1.1,3.1,2.1-0.1,3.1C118.6,194,118.4,193,120.1,192z"/>
		<path class="st13" d="M398.9,357.9c0,0.7,0,1.4,0,2.1c-1.3-0.4-3.5-0.2-3-2.1C396.3,356.4,397.9,357.6,398.9,357.9z"/>
		<path class="st56" d="M453,350.8l-1,1.2c-2.6-0.5-2-2.1-1.2-3.8l0.3-0.3C452.2,348.4,452.9,349.5,453,350.8z"/>
		<path class="st39" d="M218.3,259.8l-1.6,0.4c-1.9,0.4-3.8-0.4-4.9-2c0.3-0.4,0.7-0.7,1.2-0.8c1.7,0,3.4,0.4,4.9,1.1
			C218.2,258.9,218.3,259.3,218.3,259.8z"/>
		<path class="st63" d="M280,332c1.2-1.7,3.3-2,5-3.1c0,0.4,0.1,0.8,0.1,1.2C283.7,331.4,281.9,332.1,280,332z"/>
		<path class="st13" d="M328.6,243.9l5.2-3.3C334,244.6,331.2,244,328.6,243.9z"/>
		<path class="st25" d="M225.9,390h1.1c1.2,2.2,0.7,3.9-1.6,5l-0.2,0l-0.3,0.1C225.2,393.3,225.6,391.6,225.9,390z"/>
		<path class="st12" d="M366.1,376.7c-1.2-2.2-2.4-3.2-1.7-4.9C366,372.9,365.9,374.5,366.1,376.7z"/>
		<path class="st35" d="M388.1,390.6c1.1,1,2.7,1.1,3.9,0.4c0.1,1-0.7,1.9-1.7,1.9c-0.1,0-0.3,0-0.4,0
			C388.4,392.8,388,391.9,388.1,390.6z"/>
		<path class="st25" d="M213,257.9l-1.2,0.2l-4-2l1.1-0.3C211.1,255.1,212.6,255.4,213,257.9z"/>
		<path class="st27" d="M447.4,365.3c-0.2,0.1-0.6,0.4-1,0.4c-0.7,0-1.2-0.5-0.9-1.2c0.1-0.3,0.8-0.4,1.2-0.4
			S447.7,364.5,447.4,365.3z"/>
		<path class="st39" d="M226.9,279.7c0,2.2,0,4.4,0,6.6C226.2,284.1,225.7,281.9,226.9,279.7z"/>
		<path class="st12" d="M423.6,344.3c0.1,0.9-0.3,1.3-0.8,1.1c-0.5-0.3-0.9-0.8-1.1-1.4c-0.3-0.6,0.2-1,0.7-0.8
			C422.8,343.6,423.2,343.9,423.6,344.3z"/>
		<path class="st64" d="M436,383.6l1,0.5c-2.2,1.6-3.9,1.3-4.9-1.3C433.4,383,434.5,384,436,383.6z"/>
		<path class="st13" d="M354.4,230.5c-1.4,0.4-2.7-0.3-2.6-1.1c0.2-1.6,1.3-0.7,2-0.1C354,229.7,354.2,230.1,354.4,230.5z"/>
		<path class="st13" d="M358.9,215l2-4.2C361.1,212.6,361,214.2,358.9,215z"/>
		<path class="st12" d="M374,383.2c1.3,0.5,2.4,1.5,3.1,2.7c-1.5,0.2-2.9-0.8-3.1-2.3C374,383.5,374,383.4,374,383.2z"/>
		<path class="st59" d="M304.1,256l-0.1-1c-0.2-0.2-0.4-0.5-0.3-0.8c0-0.3,0.1-0.4,0.2-0.4c0.4-0.3,0.8-0.5,1.3-0.6
			c0.7-0.1,1.4,0.2,1.9,0.8l0.3,0.2C306.9,256.1,305,255.2,304.1,256z"/>
		<path class="st27" d="M451.1,358.7c1.2,1.3,0.9,2.8,0.8,4.3C449,362,451.7,360,451.1,358.7z"/>
		<path class="st27" d="M179.9,229.5c-1.6-0.4-2.8-1.8-3-3.4C178.5,226.5,179.7,227.9,179.9,229.5z"/>
		<path class="st13" d="M367,354c-0.1,1-0.4,1.9-1.7,1.8c-0.2,0-0.6-0.4-0.6-0.5C365,354.1,366.1,354.1,367,354L367,354z"/>
		<path class="st65" d="M316,250.9l-5,0.2c0.9-3.3,2.8-2.3,4.8-1.3l0.3,0.3C316.2,250.4,316.1,250.7,316,250.9z"/>
		<path class="st22" d="M316.3,332.1c-0.8,1.1-1.7,2.1-3.2,2.1C313.6,332.6,314,330.8,316.3,332.1z"/>
		<path class="st66" d="M314,118c1.3,2.4,2.5,1.4,2.4-0.5c-0.1-3.5,1.3-2.6,3.1-1.5c2.1,1.2,3.7,3.2,6.4,3.1c2.4,0.7-0.2,2.8,1,3.9
			c0.2,0.7,1,1.2,1,2c-0.9,2.9-2.7,0.7-3.9,0.5c-4.1-0.8-7.5-3.4-11.8-4c-3.2-0.4-6.2-0.8-9,0.9c-1.6,0.9-2.8-0.4-4.3-0.4
			c-1.1,1.7-2.5,1.3-3.8,0.4c-2.5-1.8-4.9-1.6-7.1,0.5c-0.8,0.7-1.9,1.1-3,1.2c-2.1,0.3,0.4,1,0.1,1.7c-0.3,1.1-0.8,2.2-1.3,3.1
			l-2,2c-0.9-1.9-1.7-3.9-4.2-1.3c-1.4,1.4-2.4,0.4-2.1-0.9s0.9-2.6-0.6-3.3c-2.2-1.1-1.8,2-3.5,2.2c-1.1-2.2-3.5-4.3,0-6.6
			c-1.2-1.3-2.5-1-3.5-1c-1.9,0.1-4.1-3.3-5.4,0.2c-1.1,2.8,3.3,1.4,3.6,3.7c-3,3.1-6.3-2.5-9.3,0.1c0.3,3-2.2,3.2-4,4
			c-1.5,1.9-3.1,3.8-6.9,0.5c5.8,1.6,4.6-2.5,5.9-4.5c-0.1-2.3,1.6-2,3-2c1.9-1.1,0.2-2.7,0.6-4.1c0.5-1.9-0.6-3.7-0.7-5.6
			c3.5,0.5,5.8-4,9.9-2.2c1,0.4,3.7,2.1,4.2-1.2c4.4-2.2,9.1-0.4,13.6-0.8c6.5-0.6,13,0.8,19.4,1.8c2.1,0.3,4.4,0.2,5,3
			c-0.1,0.2-0.2,0.4-0.2,0.6c-0.2,0.3-0.7,0.5-1,0.8c0.4,0.2,1,0,1.4,0.3c0.6,0.6,1.1,1.3,1.5,2c1.1,1.4,2.7,0.9,4.1,0.8
			C313.3,117.5,313.7,117.7,314,118z"/>
		<path class="st67" d="M238,158.1c-1.6-2.3-0.3-6.1-4-7.4c-0.2-0.1,1.3-1.1,2-1.6c0.4-0.5,0.6-1.1,1.2-1.4c0.6-0.2,1.3-0.1,1.9,0.2
			c0.2,0.4,0.3,0.8,0.3,1.2c0.8,2.6,2.1,4.4,5.2,3.2c0.7-0.6,1.7-0.7,2.6-0.4c1.2,1.6,0.4,3.2-0.2,4.7c-0.8,1.6-0.2,3.4,1.4,4.3
			c1,1.5,1.6,3.3,1.6,5.1c-0.2,3.6-5.5,3.1-5.4,6.8c0.1,2.9-1.6,4.6-3.6,6.2c-0.3,0.3-0.7,0.5-1.2,0.6c-1.5-0.2-3.3-1.8-4.4,0.7
			c-1.2,1.4-2.1,3.2-4.5,2.7c2.9-3.8-0.6-8.1,1-12c2.1-0.3,3.9-0.9,3.9-3.5c0.2-0.4,0.5-0.8,0.7-1.1c0.9-0.9,1.4-2.2,2.6-2.9
			c1.1-1.4,3.4-1.9,3.5-4.1c0-0.3,0-0.8-0.2-0.8c-0.7-0.1-0.7,0.6-1,1c-0.7,1.5-1.4,3-2.9,3.8c-2.1,0.1-2.8-1.2-3-3
			S237.1,158.8,238,158.1z"/>
		<path class="st68" d="M240,179h1.1c1.2,1,1.9,2.9,4.1,2.1c0.7,0.8,0.9,2,0.6,3c-2.6,6.6-2.5,14.2-6.4,20.4c-1.5,2-0.9,4.7-1.9,6.9
			c-1.2,3.5-0.2,7.1-0.1,10.6c0.1,2.1,0.6,4.2-0.3,6.3c-0.3,0.9-1.1,1.7-2,2.1c-1.9-0.2-2.1-1.9-2.7-3.2c-0.3-1.2-0.4-2.4-0.3-3.6
			c0.1-0.9,0.4-1.8,0.6-2.6c0.3-1.5,0.3-3-0.2-4.4c-0.1-0.4-0.2-0.9-0.2-1.3c0.2-2.2,0.8-4.4,0.4-6.6c-0.2-1.8,0-3.7,0.6-5.4
			c1.1-2.2,1.8-4.6,2.9-6.9c1.7-1.7,0.8-3.5,0.2-5.2c0-0.4,0.1-0.9,0.2-1.3c0.7-2.1,2.2-3.6,3.1-5.6C241,182.4,238.9,180.6,240,179z
			"/>
		<path class="st69" d="M250,137c0.1,1.3,0.4,2.9,1.6,3.2c1.1,0.3,1.8-1.2,2.3-2.2c0.5-1.2,1.7-2,3-2.1c1.5-0.2,2.2,1,3,2
			c0.4,3.4,4.3,8.2-3.3,8.7c-1.4,4.1-7,4.7-7.7,9.3c-1.6-1.9-1-3.9-0.3-5.9c1.1-1.5,1.5-3.8,4.1-3.7c-1.3-2-4.4-1.8-5.4-4.3
			c-0.2-1.8,0.2-3.5,1.2-5C249,136.7,249.6,136.7,250,137z"/>
		<path class="st70" d="M280.1,133.3c6.8-5,14.8-6.8,22.6-9.4c6.3-2.2,11.3-0.6,16.6,1.5c1.7,0.8,3.3,1.6,4.8,2.6
			c-0.3,0.4-0.8,0.7-1.3,0.8c-0.7,0.2-1.4,0.1-2-0.1c-7.3-3.4-14.6-2.6-22.3-0.8c-6.2,1.3-11.9,4.3-16.5,8.5
			c-1.5,1.3-2.8,2.9-4.9,3.2c-0.5,0-1-0.2-1.4-0.6C276.6,136.6,279.1,135.5,280.1,133.3z"/>
		<path class="st36" d="M228,242l1.2-6.9c0.3-0.6,0.6-1.3,1-1.8c1.1-0.8,2.1-1.2,3.1,0c0.4,2.2-0.2,4.3-0.3,6.4
			c-0.3,4.4,2.3,8.3,2,12.7c-0.3,3.8-1.6,4.7-5.2,3.2c0.6-1.2,1.5-2.4,1.3-4.1c-0.6,1.2-0.3,2.5-1,3.5c-0.5,0.8-1.3,1.3-2.3,1.4
			c-1.2-0.2-1.4-1.1-1.4-2.1c0.1-0.7,0.2-1.4,0.3-2.1c0.2-1.4,0.4-2.8,0.5-4.1C228.2,246.1,226.6,243.9,228,242z"/>
		<path class="st38" d="M230.1,234l-0.9,1c0-10.9,0-21.8-0.2-32.7c0-1.9,0.8-3.5,1.1-5.3c0.4-0.3,0.9-0.3,1.3,0
			c0.3,0.4,0.5,0.8,0.6,1.3c0.2,1.2,0.3,2.4,0.2,3.6c0,1.6-0.5,3.1-0.6,4.8c-0.1,2.2,1.4,1.3,2.4,1.3c0.2,2.7-0.1,5.4-1,8
			c-2.7,2.6-1.2,6-1.6,9.1C231.3,228.1,232,231.3,230.1,234z"/>
		<path class="st71" d="M241,185c-1.3,1.7-2.7,3.3-4,5c-3-0.3-3.6,2.2-4.7,4c-1.2,0.6-1.7-0.3-2.2-1c1.1-3.3-1.2-6.9,1-10l4-3
			C237.5,181.1,238.3,184.2,241,185z"/>
		<path class="st27" d="M244.8,183.9c0.1-0.9,0.2-1.8,0.3-2.8l0,0c1.1-2.8,1.9-5.8,4.2-8c3.4-2.2,6.5-4.6,8.5-8.2
			c0.4-0.3,0.9-0.4,1.3-0.1c-0.6,4.3-2.4,7.7-4.8,11.5s-6.7,4.6-8.9,7.9L244.8,183.9z"/>
		<path class="st29" d="M259,165.1l-1.2-0.1c4.2-9.8,10.3-18.7,18-26l1.1,0.1c0.8,2.5-0.9,4.1-2.5,5.5c-5.2,4.7-8.8,10.5-11.9,16.7
			C261.9,162.9,261.1,164.6,259,165.1z"/>
		<path class="st42" d="M249,137c0.2,1.7-0.1,3.5-1,5c-5.3-1-9.1,0.6-11,6l-1,1c0-1.3,0-2.7,0-4c-1.6-1.3,1-2.7,0-4
			c-0.1-0.8,0.3-1.6,1-2c1.9-1,4.1-0.9,6-2h1c1.2,0.8,1.6-0.6,2.4-1C247.5,135.6,248.9,134.7,249,137z"/>
		<path class="st72" d="M243,137.1c-1.2,3-3.4,3-6,2c0.1-2,4.5-4.6-0.9-5.7c-0.8-0.3-1.2-1.2-0.9-2c0.1-0.2,0.2-0.3,0.3-0.5
			c0.6-1,1.7-0.8,2.7-0.5C241.7,131.1,242.3,134.1,243,137.1z"/>
		<path class="st68" d="M239,164c0.1,1.3-0.7,2.6-2,3l0,0c-1.1,2-0.9,5.7-5,4c2-1.1,3.1-1.9,1.5-4.6c-2.2-3.6-0.2-6.8,4.6-8.4
			c-2.4,2.2-2.3,3.9,1,5c0.3,0.2,0.4,0.4,0.3,0.7S239.1,164,239,164z"/>
		<path class="st73" d="M249,137c-1.7-2.6-3.3,2.6-5,0c1.3-3.4,5.3-3.3,7.6-5.5c0.8-0.8,2,0.4,1.6,1.9c-0.4,1.8-2.3,2.3-3.3,3.6
			L249,137z"/>
		<path class="st74" d="M250,150.1c-1.2,1.9-1,3.9-1,6c-0.8,1.2-1.1,2.6-1,4c0.2,0.2,0.3,0.5,0.2,0.7s-0.2,0.3-0.3,0.3
			c-2.7-0.7-3.2-2.4-2.1-4.8c0.8-1.3,1.2-2.8,1.1-4.3c-1.1-2-1-3.4,1.9-3C249.4,149.2,249.7,149.6,250,150.1z"/>
		<path class="st72" d="M230,139.1c-1.4-0.1-3.1-0.7-2.6-2.2c0.8-2.3,3.3-1.5,5.2-1.6c1.2-0.1,2.2,0.7,1.7,2.3
			c-0.3,0.9-0.3,2-1.3,2.6C232.1,139.4,231.4,138.2,230,139.1z"/>
		<path class="st75" d="M248,161c0-0.3,0-0.7,0-1c1.7,0.3,4.5-0.8,4.3,2.1c0,0.7,1.6,4.6-2.3,3.9C248.6,164.8,247.8,162.9,248,161z"
			/>
		<path class="st76" d="M253,128.1c1.3-1.3,2.7-2.7,4-4c3.2,0.8,1.9,2.3,0.6,3.9C256.1,129.8,254.6,130.3,253,128.1z"/>
		<path class="st72" d="M236,141c1.8,1.4-0.4,2.7,0,4c-1-2.2-3,2.6-3.9-0.5C231.1,140.8,235,142.5,236,141z"/>
		<path class="st77" d="M228,242c0.1,2,2.4,4,0.1,6.1c-0.3,0.3-0.8,0.4-1.2,0.1c-0.7-0.9,0.3-2.4-1.2-3c-1.5-1.3-0.2-2.1,0.4-3.1h1
			L228,242z"/>
		<path class="st76" d="M255,122.1l-3,2c-1.5-0.3-2.8-1.2-1.3-2.4C251.6,120.9,254,118.4,255,122.1z"/>
		<path class="st3" d="M260,138.1l-3-2c0.2-1.1,0.2-2.7,1.7-2.3C261.2,134.3,260.3,136.4,260,138.1z"/>
		<path class="st68" d="M249.3,173.2c-1.4,2.7-1.8,5.9-4.2,8C244.2,177.2,246.8,175.2,249.3,173.2z"/>
		<path class="st68" d="M230,193l2,1c0.9,1.4,0.4,2.3-1,3l-0.9,0.1L230,193z"/>
		<path class="st78" d="M230,139.1c1.7-1.6,2.6-1.1,3,1L230,139.1z"/>
		<path class="st3" d="M316.1,373.8c0.8,3.6,0.4,4.5-2.1,4.2c-1.8-0.9-2.8-2.6-4.3-3.9c-1.9-1.6-3.6-3.3-3.9-5.9
			c-0.2-2.1-2.4-4-0.8-6.3c3.5,0.1,3.7,3.6,5.9,5.5c0.6-2.1,1.5-4.1,2.6-6c1.8-3.1,4.9-4.2,8-5.3c3.6-0.1,7-1.6,10.7-1
			c0.6,0.2,1.6,0.4,1.6,0.8c0.3,3.4,2.1,2.1,3.8,1.4c0.5-0.4,1.1-0.8,1.6-1.1c1.2-0.9,2.4-2.3,3.7-0.1c0.3,7,0.4,6.4-7,5.6
			c-6.3-0.7-12.9-0.8-18.9,2.5C314.4,367.1,316.9,370.6,316.1,373.8z"/>
		<path class="st48" d="M349,380c-5.6-3.5-11.2-1.6-16.8,0c-1.7,2.5-4,1.3-6.1,0.9l0,0c-0.5-0.8-1.8-0.2-2.3-1.2
			c6.9-0.5,13.5-2.7,20.5-3c2.9-0.1,4.8,0.3,6.1,2.9l-0.5,0.5c-0.2,0.2-0.5,0.2-0.7,0C349.1,380.1,349,380.1,349,380z"/>
		<path class="st79" d="M323.7,379.8l2.3,1.2c-1.1-1.5-3.5,2.9-4.1-0.9l1.5-0.3L323.7,379.8z"/>
		<path class="st39" d="M225.7,245.2c1.6,0.4,1.2,1.8,1.4,2.8c1.1,1.5-0.4,3.5,0.9,4.9l-0.9,1.1c-0.7,1.8-1,3.8-2.3,5.4
			c-1.5,0.1-2.9-0.2-4.1-1c-0.9-1-1.6-2-0.6-3.4l4-1.4c-3.9,0.1-7.1-2.4-10.9-2.6c-0.3-0.2-0.4-0.4-0.3-0.7s0.2-0.4,0.3-0.4
			c1.9,0.2,3.8,0.5,5.7,0.9C225.9,252.9,226.2,252.7,225.7,245.2z"/>
		<path class="st80" d="M220,255l1,3c-0.3,2.5-1.9,1.3-3.1,1.1c-1.7,0.2-3.4-0.2-4.9-1.2c-1.1-1.1-2.5-1.8-4-2.1
			c0-0.3,0.1-0.6,0-0.8c-0.3-0.8-1-1.7,0.1-2.4c0.5-0.4,1.3-0.4,1.7,0.1c0.1,0.1,0.2,0.2,0.2,0.3c1.6,0.8,2.9,2.8,5,1.1
			C217.2,254.8,218.6,255.1,220,255z"/>
		<path class="st60" d="M189.1,236.9c5.4,1.3,9,4.8,11.9,9.1c-0.7,1.1-1.6,2-3,1c0.1-4.3-4.6-4.7-6.3-7.5
			C191.1,238.6,189.3,238.4,189.1,236.9z"/>
		<path class="st25" d="M216,254c-0.2,0.8-0.3,1.5-0.5,2.3c-1.9-0.5-3.9-1-4.5-3.4L216,254z"/>
		<path class="st60" d="M199.9,252.1c-2.1-0.8-4-1.9-5-4.1C197.3,248.6,199.8,248.9,199.9,252.1z"/>
		<path class="st58" d="M213.1,249.9c0,0.4,0,0.7,0,1c-1.3-0.3-3.5,1.1-3.5-1.8C210.8,248.8,212.1,249.1,213.1,249.9z"/>
		<path class="st81" d="M153.8,206.2c2.1,0.4,3.3,2,4.3,3.8l-1.2,0.1L153.8,206.2z"/>
		<path class="st58" d="M198,247l3-1l1,0.9c0,0.3,0,0.7,0.1,1C200.7,247.9,199.1,248.5,198,247z"/>
		<path class="st78" d="M354.1,148c0.2,0,0.5,0.1,0.6,0.3c0.8,2.9,3.7,4.6,4.4,7.6c-0.5,0.4,0.2-0.1-0.3,0.3c-0.1,0.1,0,0,0.3-0.3
			l3,5.1c-1.1,4.4,1.6,8.5,1,12.9c-0.2,1.7,0.2,3.6-1,5.1c-2.4,0.3-2.3-1.6-2.3-2.9c0.1-8.4-3.1-16.4-8.9-22.5
			c-1-1.1-1.7-2.5-2.1-3.9c-0.2-0.5-0.3-0.9-0.4-1.4c-0.1-0.7,0-1.5,0.5-2.1C350.8,146.2,351.1,151.1,354.1,148z"/>
		<path class="st0" d="M284,129c-0.1-1.6,1.2-3.8-1.9-4c0.1-0.9-0.7-2.7-0.1-2.4c4.5,2,7-3.7,11.4-2.7c2.1,0.5,2.6,4.4,5.5,2.2
			c-0.4,2.7-2.9,2.9-4.5,2.8C290.2,124.5,287.2,126.9,284,129z"/>
		<path class="st27" d="M348.8,146.2c0.1,0.6,0.2,1.1,0.3,1.7c-2.2,1.6-3.4-0.4-4.5-1.6c-5.7-6.6-13-10.9-20.4-15.1
			c-1.1-0.5-1.7-1.7-1.3-2.9l1.2-0.3c4.4,0.1,6.8,4.2,10.8,5.1C340.1,136.9,345.4,140.6,348.8,146.2L348.8,146.2z"/>
		<path class="st78" d="M348.9,146.2L335,133.1C340.9,136.1,346.3,139.7,348.9,146.2z"/>
		<path class="st78" d="M349,140c2.2,1.6,4.2,3.3,4.6,6.2C349.3,146.3,349.4,142.9,349,140z"/>
		<path class="st82" d="M328,125.1c-0.6-0.5-2.2-0.6-1-2c0.7,0.2,1.5,0.4,2.1,0.8c0.5,0.4,1.6,0.8,0.9,1.7
			C329.9,125.8,328.7,125.2,328,125.1z"/>
		<path class="st4" d="M425,336.9l0.2-1.4l15.1,3.3c-0.3,0.5-0.7,0.8-1.2,1c-1.3,0.4-2.6,0.5-3.9,0.5
			C431.4,341.4,427.3,340.1,425,336.9z"/>
		<path class="st79" d="M438.8,339.3l1.4-0.4c2.1-0.3,3.1,1.6,4.7,2.3c0,0.6,0.1,1.2,0.1,1.8l-0.5,0.5
			C441.8,343.1,440.2,341.4,438.8,339.3z"/>
		<path class="st77" d="M276,328c-2.3,0.9-4.9,1.3-6.1,3.9c-1.5,1.6-3.6,1.9-5.4,2.9c-2.6,0.2-2.7,3.1-4.5,4.2c-2.8-2.4,0.9-5.5-1-8
			c0.4-0.7,1.2-1.1,1.9-1c4.2,1.6,6.5-2.9,10.2-3.1c1.3-0.2,2.5-0.6,3.6-1.2c0.9,0.3,1.8,0.4,2.4,1.3C277.3,327.8,277,328.2,276,328
			z"/>
		<path class="st38" d="M266,345.9c0.3,4.1-0.3,8.3-2,12.1c-0.1-0.3-0.1-0.8-0.2-0.9c-4.1-1.8-4.9-5.1-2.8-11.1
			c0.5-0.4,0.7,2.8,1.5,0.2c0.3-1.1,0.4-2.2,0.8-3.2c0.3-0.7,0.9-1.1,1.6-1C265.2,343.2,264.5,344.9,266,345.9z"/>
		<path class="st61" d="M264,361c1.7,2.1,1,4.4,0.6,6.6c-0.5,3.2-1.9,6.1,0.1,9.5c0.9,1.5,0.6,4.1-2.7,2.9c0.6-0.3,0.9-1,0.7-1.6
			C261.1,372.4,260.1,366.5,264,361z"/>
		<path class="st19" d="M264,342.9c0.1,2.3-0.1,4.5-2.2,6.5c-1.2-1-0.6-2.3-0.8-3.5c0-2.4,1.2-4.9-0.9-7c0.8-2.1,0.2-5.3,4-5
			c0.7,1.1,0.3,2.3,0.3,3.5C264.2,339.2,263.6,341.1,264,342.9z"/>
		<path class="st83" d="M261,330c-0.4,0.7-1.2,1.1-1.9,1c-1.5-0.6-2.1-0.2-2.1,1.4c0,3.3-0.1,6.6-0.1,9.9c-1.6-4.5-1.1-9-1-13.6
			c0-1.4-0.4-3.4,1.4-3.8c2.1-0.4,2.5,1.7,3.1,3.2C260.7,328.7,260.8,329.4,261,330z"/>
		<path class="st84" d="M343,356c-1.5-1.2-2,0.5-3,0.9c-1.8-1.3-2.1-3.2-2.2-5.2c0-2.1-0.8-4.2-2.2-5.8c-1.8-1.8-4-0.9-6.1-1.1
			c-3.2-0.4-3.3-1.6-1-3.6c1.7-1.1,3.6-2,5.5-2.8c0.4-0.1,0.9-0.1,1.4,0c1.9,1.1,2.6,0.4,2.6-1.5c2.1,0.4,3,2.2,4.1,3.8
			C342,345.9,344.9,350.8,343,356z"/>
		<path class="st64" d="M346.9,359.7c-3.6-0.7-2.9-2.8-2.6-5.4L346.9,359.7z"/>
		<path class="st78" d="M277,327c-0.9,0.1-1.8-0.5-2.2-1.3l0.8-0.9c3.7,0.4,6.2-3.7,10.1-2.6c0.1,0.2,0.2,0.5,0.2,0.8
			c0.4,0.8-0.1,1.2-0.7,1.6c-1.1,0.5-2.2,0.6-3.4,0.3c-1.5,0.2-2.9,0.9-4,2c-0.1,0.3-0.5,0.4-0.8,0.2
			C277.1,327.1,277.1,327.1,277,327z"/>
		<path class="st77" d="M349,380c0.3,0,0.5,0.1,0.8,0.2c0.9,1.1,1.9,2.2,1.8,4.1l-8.4-0.7C345.3,382.9,347.5,382.1,349,380z"/>
		<path class="st79" d="M326,381c1.9-1.5,4.3,0.4,6.1-0.9c0.2,1,3.4,2.2-0.1,2.8C329.9,383.2,327.4,383.7,326,381z"/>
		<path class="st68" d="M305,254.1l-0.2,0.2l-0.3-0.1c-2.6,0.6-5.3,1.2-7.5,2.8l-1,1c-1.6,1.9-4.1,0.9-6,2.1c-1,0.5-2,0.8-3,0
			c-1.6-0.8-2.7,0.5-4,0.9c-1.6,2.2-4.1-0.3-5.9,1c-0.3,0-0.5,0-0.8,0.1c-2.8,0.6-5.7,0.6-8.5,0c-2.6-0.5-5,1-7.6,1
			c-1,0.5-1.9,0.6-2.5-0.6c0-1.4,0.9-2.2,1.8-2.9c0.4-0.2,0.8-0.4,1.2-0.5c1.5-0.1,2.9-0.6,4.2-1.4c0.9-0.2,1.7-0.1,2.5,0.2
			c1.4,0.4,2.8,1,4.4,0.7c1.3-0.3,2.6-0.6,3.9-0.8c1.6-0.2,3.1-0.8,4.7-1.1c1.4-0.3,2.7-0.8,4.1-1c1.9-0.6,3.7-0.2,5.6,0
			c2,0.2,3.9-0.6,5.2-2c1.7-1.7,3.9-2.9,6.3-3.4c1.9-0.4,3.6-1.3,5.4-1.9c0.8-0.1,1.5,0,2.2,0.4c0.8,0.7,1.4,1.6,0.8,2.7l-0.8,0.7
			C307.8,252.5,306.2,252.8,305,254.1z"/>
		<path class="st79" d="M249,264l-9-0.3c-2.4-2-5.3-3.3-8.4-3.6c-0.6-0.4-0.9-1-1-1.6c-0.1-0.7,0.2-1.7,0.8-1.6
			c3.4,0.8,2.6-6.1,6.8-3.7c8.9-0.1,17.9,0.6,26.7-0.3c2.5-0.2,5-0.5,7.5,0.4c0.5,0.2,0.9,0.6,1,1.2c-0.3,1.5-1.7,1.5-2.8,1.9
			c-1.1,0.2-1.6,1.3-2.4,2c-0.4,0.2-0.8,0.2-1.2,0c-0.6-1.1-1.9-1.6-3.1-1.2c-1.2,0.2-2.4,0.3-3.5,0.3c-3.4,0-6.8,0-10.2,0
			c-2.9-0.4-5.7,0.6-8.6,0.4c-0.7,0-1.1,0.1-0.4,0.1c0.1,0,0.3,0.5,0.6,0.7c0.9,1.3,2.8,1.2,3.6,2.6c-0.2,1.4-1.2,1.1-1.9,1.3
			c1.4,0.3,2.9-1,4.6-0.3C248.7,262.6,249.2,263.1,249,264z"/>
		<path class="st85" d="M237.1,254c-0.6,0-1.7-0.2-1.8,0c-0.6,1.8,0.2,4.5-3.5,3.6c-0.9-0.2,0,1.6,0.2,2.4c-0.1,0.6-0.7,0.7-1,1
			c-2.6,2-1.6,4.5-1,7c-0.3,0.5-0.7,0.5-1,0c-1.4-1.4-1.6-3.3-1.9-5.1c0.6-1.2-0.2-2-0.7-2.9c-0.1-0.4-0.2-0.9-0.2-1.3
			c0.1-1.1,0.8-2.2,1.8-2.7c0.4-0.7,1.2-1,2-1l0,0c3.5,2,3.8-0.2,3.9-2.8c0.1-4.2-2.6-7.9-1.9-12.2c0.2-0.3,0.5-0.5,0.8-0.8
			c1-1.4,0.7-3.2,1-4.8c0.3-1.1,0-2.3,0.3-3.4c0.2-0.4,0.4-0.8,0.8-1.2c0.4-0.6,0.8-1.2,1.1-1.9c0.4-0.3,1-0.2,1.3,0.2
			c0,0.1,0.1,0.1,0.1,0.2C237.4,236.9,237.3,245.5,237.1,254z"/>
		<path class="st63" d="M230,287c-0.8-2.6-1.1-5.3-1-8c0-1,0-2,0-3c-0.4-0.5-0.2-0.9,0.2-1.2c0.8,0.1,0.2-0.4,0.2-0.5
			s-0.2-0.5-0.3-0.8c-0.1-1.6-0.2-3.3,1-4.6c2.4,3.7,6.5,6.8,4.8,12.1l-1.9,1c-1.3,1.8,0.2,4.1-1,6l-1.5,1.2L230,287z"/>
		<path class="st77" d="M249,264l-1-1c-0.3-0.4-0.3-0.9,0-1.3c1.5-1,3.2-1.2,4.9-1.6c1-0.2,2-0.2,3,0.1c0.7,0.2,1.3,0.8,1.6,1.5
			c0.2,1.8-1.3,1.8-2.4,2.1L249,264z"/>
		<path class="st39" d="M231,261l1-1c2,0.3,4,0.4,6.1,0.4c3.3-0.3,0.3,2.8,1.9,3.3c-1.2-0.2-2.7,1.3-3.7-1
			C235.4,260.6,233,261,231,261z"/>
		<path class="st14" d="M230.1,268.9c0,2-0.1,4-0.1,6.1l0,0l-1,1c-2.2-2.7-0.4-5.4,0-8h1C230.1,268.3,230.1,268.6,230.1,268.9z"/>
		<path class="st50" d="M232.6,266.4c-0.9-0.2-1.6-1.1-1.4-2.1c0-0.9,0.5-1.7,1.4-1.7c0.7,0,1.2,0.6,1.2,1.3c0,0.2,0,0.3-0.1,0.5
			C233.4,265.2,233,265.8,232.6,266.4z"/>
		<path class="st80" d="M267.8,262.1h8.5C273.6,263.3,270.5,263.3,267.8,262.1z"/>
		<path class="st80" d="M255.1,263.8l1.9-1.8c0.3-0.3,0.7-0.3,0.9,0c0,0,0,0,0.1,0.1c0.5,0.9,1.3,0.9,2.2,1.1
			C258.6,264.1,256.8,263.9,255.1,263.8z"/>
		<path class="st74" d="M226.3,361c0-1.6,0-3.2,0-4.8c1.6-5.2,0.5-10.5,0.7-15.7c0.3-7.8,0.2-15.5,0.3-23.3c0.3-1,0.6-2.1,0.9-3.1
			c0.3-0.3,0.8-0.3,1.1,0c0,0,0,0,0,0.1c0.4,0.6,0.6,1.2,0.6,1.9c0,1.3,0.7,2.6,0.5,4c0,0.4,0,0.7,0,1.1c0-0.6,0-1.2,0-1.9
			c-0.1-1.5-0.6-2.9-0.5-4.4c-0.1-1.1,0.3-2.1,1-2.9l1-1c0.4-0.5,0.7-0.4,1,0.1c0,2,0,4,0,6c0.7,1.9,0.8,4,0.1,6
			c-0.2,2.3,0.2,4.7-1.3,6.8c-0.3,0.6-0.6,1.1-1.1,1.5c-0.3,1.2-1.1,2.4-0.4,3.7c0.3-0.7,0.6-1.3,1.5-0.8l0.1,7.7
			c0.7,1.9,0.8,4,0.1,5.9c-2.7,0.8-2.3-1.3-2.6-2.5c-0.1,0.8,0.1,1.7,0.4,2.5c0.3,1.1,0.5,2.2,0.7,3.4c0,0.5-0.1,1-0.2,1.4
			c-1.7,2.5-0.4,5.8-2,8.4C227.8,361.5,226.9,361.5,226.3,361z"/>
		<path class="st65" d="M229,314c-0.2,0-0.5,0-0.7,0.1V300h0.5c0.4,4,0.9,8,1.3,12C230.6,313.1,229.9,313.6,229,314z"/>
		<path class="st76" d="M233.9,293.2c0,3.3,0.1,6.6,0.1,9.8c-0.6,0.5-1.5,0.6-2.1,0.1c-0.5-0.7-0.4-1.6,0.1-2.1
			C232.3,298.3,231.3,295.3,233.9,293.2z"/>
		<path class="st86" d="M232.1,302.9l1.9,0.1l-1,8l-1-0.1c0-2,0.2-4.1-1-6C231.6,304.4,231.2,303.3,232.1,302.9z"/>
		<path class="st48" d="M232.1,302.9c0,0.8-0.4,1.6-1.1,2.1c-0.5-1.5-2.3-3.4,1-4C232,301.6,232.1,302.3,232.1,302.9z"/>
		<path class="st53" d="M229,314l1-2h1c0,1,0,2,0,3c-0.6,0.5-0.8,1.6-2,1V314z"/>
		<path class="st10" d="M232,288c0.3-2-0.8-4.2,1-6C232.7,284,233.8,286.2,232,288z"/>
		<path class="st87" d="M229,294.9c-1.4-1.2-1.5-3.3-0.2-4.7c0.1-0.1,0.1-0.2,0.2-0.2V294.9z"/>
		<path class="st82" d="M308,117.1c-0.7-0.4-1.1-1.2-1-2c-0.6-0.5-0.6-1.4-0.1-1.9c0,0,0.1-0.1,0.1-0.1l0,0c2.3-0.3,1.7,3.3,4,3
			c0.3,0.4,0.2,1-0.2,1.3C309.9,118,308.7,117.8,308,117.1z"/>
		<path class="st68" d="M311,117.1c0-0.3,0-0.7,0-1c2.6-1.8,2.5,0.5,3,2h-1C311.9,118.6,311.4,117.9,311,117.1z"/>
		<path class="st79" d="M427.9,324.9l-2,0.1c-1.4,0.2-3-0.5-3.9,1.1c0.1,1.6-0.5,2.4-2.2,1.9c-0.4-0.6-0.3-1.5,0.2-2
			c-0.1-1.7,0.2-3.2,2-4c1.1,0.3,1.9,0.3,2-1.1c2.1-3.2,5.3-1.4,8.1-1.9c0.8-0.1,1.6,0.3,2,1l1.1,1.9c-0.4,0.8-1.1,1.4-2,1.7
			C431.3,324,429.1,322.7,427.9,324.9z"/>
		<path class="st42" d="M425,336.9c3.4,0.5,6.2,3.8,10,2.2c0.5,0.5,0.7,1.1,0.6,1.8c-0.3,1.2,0.6,2.8-1.2,3.4
			c-1.9-1.3-4.8-0.2-6.3-2.6C426.9,340.2,424.4,339.6,425,336.9z"/>
		<path class="st64" d="M428.1,341.7l6.9,1.9c1.1-0.6,2.1-0.2,3.2,0c0.6,0.1,1.3,0.2,1.9,0.4c0.4,0.1,0.9,0.2,1.3,0.4
			c1.9,1,4.6,0.9,5.1,3.8c-0.1,0.4-0.4,0.8-0.8,1c-4.1-2.5-8.9-3.4-13.5-4.8c-1.9-0.5-3.8-1.3-5.4-2.4L428.1,341.7z"/>
		<path class="st83" d="M420,326c0,0.7,0,1.4,0.1,2.1c0.5,0.5,0.5,1.3,0,1.9c0,0,0,0-0.1,0.1c0,0.7,0,1.4-0.1,2
			c-0.3,0.6-0.3,1.3-0.9,1.8C417.9,331,416.3,328.2,420,326z"/>
		<path class="st1" d="M424,320.9c0.8,0.6,2.4,1.1,0.6,2.3c-1.4,0.9-2.4,0.8-2.5-1.2L424,320.9z"/>
		<path class="st19" d="M420,330l0.1-1.9l2-1.9C423.2,328.4,423.7,330.3,420,330z"/>
		<path class="st78" d="M419,333.8l0.9-1.8c0.4,1,1.4,1.8,0.8,3L419,333.8z"/>
		<path class="st4" d="M230,351c-1.1-0.7-0.9-1.9-1-2.9c0.6-0.7,1.3-0.1,2-0.1c1.8-1.8,0.7-4,1-6c0.9,0.5,1,1.4,1.1,2.2
			c-0.1,13.2-0.2,26.3-0.4,39.5c-0.2,0.1-0.5,0.2-0.7,0.3c-0.9-0.2-1.6-0.9-1.8-1.8c0.4-5.7,0.4-11.4,0.4-17.2
			C230.3,360.4,231.4,355.6,230,351z"/>
		<path class="st4" d="M231.9,334.2c-1.2,0.6-0.8,1.7-0.9,2.6c-2.7-2-1.4-4.5-0.9-6.8l1.7-0.3C231.8,331.2,231.9,332.7,231.9,334.2z
			"/>
		<path class="st8" d="M233.1,323c0-2-0.1-4-0.1-6C234.5,319,234.3,321,233.1,323z"/>
		<path class="st64" d="M437.8,383.8c0.3-2.1,2.6-1.9,3.8-3c0.7-0.3,1.5-0.3,2.2-0.2c1.3,4.5-1.4,6.9-4.8,8.8
			c-1.2,0.1-2.5-0.2-3.5-0.9L435,388c0.5-1,1.5-1.8,2.6-2C439.1,385.4,438.8,384.6,437.8,383.8z"/>
		<path class="st88" d="M420.8,376.1c-1.7-2.5-1.1-5.4-0.5-8c0.7-3,2.3-2.8,3.6-0.1c-0.6,0.7-1.5,0.5-2.2,0.7
			C420,371,421.4,373.7,420.8,376.1z"/>
		<path class="st43" d="M425,374.9c1.4,0,0,2.8,2.8,2.1c1.9-0.5,0.3,1.8,0.3,2.8C425.4,379.3,424.6,377.5,425,374.9z"/>
		<path class="st26" d="M429.1,374.9c-2.4,0.5-1.8-3.2-4.1-3c0-0.4,0.1-0.8,0.1-1.2C428.1,370.6,428.1,373.2,429.1,374.9z"/>
		<path class="st64" d="M430.9,389l-1.2-0.9l5.3-0.1l0,0C434.2,390.6,432.4,389.3,430.9,389z"/>
		<path class="st43" d="M421.7,368.8l2.2-0.7c0.8,0.8,1.5,1.6,1.2,2.9L421.7,368.8z"/>
		<path class="st78" d="M371,378.9c1.2-5.3,2.2-5.9,5.8-3.7c0.1,0.2,0.2,0.5,0.2,0.7c-5.3-1.5-2.2,3.6-3.9,5
			C373,379.7,371,380.4,371,378.9z"/>
		<path class="st76" d="M361.8,179.4c0.7-5.6,0.1-11.2-1.7-16.5c-0.8-2.2-0.4-3.1,2-1.9c2.1,2.5,3,5.9,2.2,9.1
			c-0.9,4.9,1.4,9.9,2.5,14.8c-0.4,0.9-1.2,1.8-1.1,2.7c0.7,10.1-4.5,18.4-8.5,27c-0.1,0.5-0.2,1-0.1,1.4
			c-7.5,7.1-13.2,16-21.8,22.1c-2.5-0.6-3.4,2.1-5.2,2.8c-0.6-0.4-1-1-1.1-1.7c-0.4-1.1-0.5-2.3-0.1-3.4c1.2-1.4,3.1-3.6,4.1-3.3
			c3.4,1.1,2.1-1.5,2.6-2.6c0.5-3.2,4.4-3.8,5.1-6.8c0.4-1.1,1.3-1.9,2.4-2.4c2.4-0.5,3.6-2,4.3-4.4c1.1-3.4,4.7-5.4,5.7-9
			c0.8-2.8,2.4-5.4,3.5-8.1c2.7-5.1,3.1-10.8,4.2-16.3C360.8,181.8,360.8,180.4,361.8,179.4z"/>
		<path class="st89" d="M372.8,352.9c-1.6,0.3-3.2-0.4-4-1.8l1.4-0.2l6-0.1c0.9-0.7,2-1.1,3.1-1.1c2.2,0,4.4-0.1,6.6,0
			c1.6,0,3.2,0,4.7,0c1.2,0,2.5,0,3.7,0.1c1.8,0,3.5,0.6,5.3,0.3l0.6-0.1c3.1,1.3,1.9,3.8,1.9,6.1c0.2,1.1,0.1,2.2-0.3,3.3
			c-0.2,0.4-0.5,0.7-1,0.9c-2.2-8.4-2.4-8.7-11.5-8.3C383.8,352.1,378.2,351.5,372.8,352.9z"/>
		<path class="st87" d="M378.9,350.8h-2.8c0.6-3.1-0.2-4.7-3.7-3.5c-1.3,0.4-2.7-0.1-3.4-1.2l0.9-0.1c2.7-1,5.5-0.3,8.3-0.5
			c1.5-0.1,3-0.1,3.3,2S380.7,350.4,378.9,350.8z"/>
		<path class="st90" d="M373,328c0,0.3,0,0.7,0,1c-1,2.1-2,4.2-4.9,3.1l-1-0.1C366.9,328,368.4,327,373,328z"/>
		<path class="st69" d="M368,332c2.2-0.1,3.1-2.3,4.9-3.1c3,2.3-1.2,2.4-1.1,3.9l-2.8,2.1C367.8,334.2,368,333.1,368,332z"/>
		<path class="st45" d="M362.9,333l1.1,0.1c-0.9,1.9-2.2,3.7-2,6c0,0.8-0.3,1.5-0.8,2.1c-0.1,0.3-0.2,0.6-0.3,1
			C358.5,338.4,361.4,335.8,362.9,333z"/>
		<path class="st90" d="M361.2,341.1c-0.2-0.8,0.1-1.7,0.8-2.1l2.9,1.6L361.2,341.1z"/>
		<path class="st54" d="M400.9,367.5c-0.9,2,2.3,4.8-1.1,6.4C399.7,371.7,400.1,369.6,400.9,367.5z"/>
		<path class="st34" d="M397.1,378.1L397,377l2.8-3.2c0,0.7,0.1,1.4,0.1,2.1C399.6,377.4,398.8,378.4,397.1,378.1z"/>
		<path class="st89" d="M402,365l-1,1c-0.1-1.9-0.1-3.9-0.2-5.8l0.3-0.2C404.1,361.1,403,363.1,402,365z"/>
		<path class="st64" d="M450.8,348.2c0.4,1.3-0.3,2.9,1.2,3.8c0,0.3,0,0.8,0.2,0.9c1,1,2.5,2,0.8,3.4s-1.7-1.5-3-1.4
			c-0.9-2-1.7-4.1-4-5c-0.1-0.3-0.2-0.5-0.2-0.8l0.5-0.5c1-1.1,2.5-0.1,3.6-0.6C450.1,348,450.5,348.1,450.8,348.2z"/>
		<path class="st91" d="M402,365c-0.3-1.7,0.6-3.6-1-5.1c0-1.4-0.5-2.9,0.9-4c3.4,2.5,4,6.1,3.9,10C404.7,365.1,403.4,364.8,402,365
			z"/>
		<path class="st20" d="M398,383c0.6-1.6-2.2-2.3-1-4c1.1-1,2.9-1,4,0C400.1,380.4,399.8,382.2,398,383z"/>
		<path class="st41" d="M401,379h-4c0-0.3,0-0.6,0.1-0.9l2.9-2.1C401.1,376.7,401,377.9,401,379z"/>
		<path class="st92" d="M403.8,379.1c0,0.3,0,0.5-0.1,0.7c-1.6-0.4-1.6-0.4-1.5-3.2L403.8,379.1z"/>
		<path class="st93" d="M452.1,383.1c-2.1,0.8-3.7,2.8-6.2,2.8c-0.2-0.4-0.3-0.9-0.2-1.3c1.5-2.5,4.1-4.4,4-7.8
			c-0.1-1.3,0.2-2.6,0-3.9c0-0.3,0.1-0.7,0.3-0.9c1.6-1.4,1.2-3.4,1.8-5.2l0,0l1.2-0.8c0.8-0.4,1.3,0.1,1.7,0.6
			c0.9,1.3,1.6,2.7,2,4.2L454,379l0,0C453,380.2,452.4,381.6,452.1,383.1L452.1,383.1z"/>
		<path class="st34" d="M456.8,370.9c-0.9-1.3-2.7-2-2.8-4c0.9-1.3,1-2.5-0.8-3.1c0-1.2-0.1-2.3,0-3.5s0.6-2,1.8-2s1.5,0.9,2,1.9
			C458.5,363.8,457.2,367.4,456.8,370.9z"/>
		<path class="st94" d="M453.1,363.9c3.3,0.2,2.4,1.5,0.8,3.1l-1-0.9C453,365.3,453.1,364.6,453.1,363.9z"/>
		<path class="st95" d="M322,331l-0.1-1.2c2.9-1.1,5.6-0.9,8.1,1.2c-0.3,0.4-0.8,0.7-1.3,0.9c-1.5,0.4-3.1,0.5-4.7,0.2
			C323.2,332,322.5,331.6,322,331z"/>
		<path class="st83" d="M329,331.3c0.3,0,0.7-0.2,1-0.3l3,1l3.8,4C332.4,337.4,330.5,334.7,329,331.3z"/>
		<path class="st40" d="M390,386c0.2,4.1-2.8,1-4.1,1.9L390,386z"/>
		<path class="st32" d="M263,337c0.3-1,0.6-2,1-3c1.7-1.4,3.8-2.1,5.9-2l1,0.1c-1,2.5-2.7,4.6-5,6.1C266,335,263.8,337.9,263,337z"
			/>
		<path class="st96" d="M263,337c1.4-0.8,3.2-2.8,3,1.1c-0.8,1.1-1.2,2.5-1.1,3.8l-0.9,1.1C262.2,341.2,263.3,339,263,337z"/>
		<path class="st83" d="M231,382.8l1,1.2c0.1,0.3,0.1,0.7-0.2,1c-0.7,2-1.8,3.9-1.6,6c-1.7,1.1-2.2,2.2,0.1,3.1
			c0.1,0.9,0.2,1.7,0.3,2.6c-0.1,0.7-0.5,1.3-1.1,1.7c-0.6,0.3-1.3,0.5-1.9,0.6c-0.9,0.3-1.8,0.2-2.6-0.2c0.1-1.3,0.2-2.6,0.3-4
			c0.5-1.7,1.1-3.3,1.6-5l-0.6-28.9h1.6c1.5,0.4,1.9,1.6,2.1,3c-0.4,2.7,0.1,5.4,0.3,8.1C230.9,375.6,229.1,379.4,231,382.8z"/>
		<path class="st25" d="M225.1,398.9l2-0.8c0.7,2.8,1.2,0.5,1.9,0l1.1-1.1c3.1,2.8,1.2,5.6,0.2,8.5c0.3,3.6-1.2,4.6-4.4,3
			C224.1,405.4,224.8,402.1,225.1,398.9z"/>
		<path class="st9" d="M230.2,405.4c-0.2-2.8,2-5.7-0.2-8.5c-0.1-1-0.1-1.9-0.2-2.9c-1.4-1.1-1.4-2.2,0-3.3c-0.7-2.4,0.3-4.2,2-5.9
			c-0.7,4.6-0.7,9.2,0,13.8C232.2,401.1,232.9,403.8,230.2,405.4z"/>
		<path class="st65" d="M306,362c-2.2,2,0.9,4.2-0.1,6.2c-2.9-6.5-3.6-13,0-19.4c1,0.8,1.6,2,1.6,3.3
			C305.9,355.2,306.8,358.7,306,362z"/>
		<path class="st82" d="M307,352c-1.2-0.8-0.7-2.1-1.1-3.2c-0.2-0.8,1.3-1,0.6-1.9l0.2,0.2l0.2-0.1c0.4-0.3,1-0.3,1.4,0.1
			c0.6,0.9,0.8,2,0.6,3C308.7,351.1,308.5,352.3,307,352z"/>
		<path class="st97" d="M309.8,374.1c2.1,0.5,3.2,2.2,4.3,3.9l-1.2,0.1C311.4,377,310,376,309.8,374.1z"/>
		<path class="st4" d="M308,346.9c-0.3,0-0.7,0-1,0c-0.9-1.3,0.1-2.6,0-4c0.6-0.7,1.2-1.4,1.8-2.1l0.4,0.4
			C310.4,343.5,309.6,345.3,308,346.9z"/>
		<path class="st63" d="M282,324.9c0.7-1.2,1.9-0.9,3-1c0.5,0.6,1.6,0.2,2,1.1c0,0.3,0,0.6,0,0.9c0.1,1.3-0.7,2.6-2,3
			C284.2,327.4,280.2,328.3,282,324.9z"/>
		<path class="st6" d="M297,257c1.9-2.7,4.6-2.9,7.5-2.8c-0.2,0.3-0.3,0.6-0.5,0.9L297,257z"/>
		<path class="st6" d="M290,260.1c1.7-1.6,4-1.3,6-2.1C294.6,260.6,292.2,260,290,260.1z"/>
		<path class="st80" d="M283,261c1.2-1,2.1-2.9,4-0.9L283,261z"/>
		<path class="st54" d="M427.9,324.9c-0.9-1.9-1.1-3.3,1.8-2.5c1.1,0.3,2.2,0.4,3.3,0.6s2.1,0.4,2,1.9L427.9,324.9z"/>
		<path class="st98" d="M435.1,324.8l-2-1.9c0.4-0.8,1.2-1,2-1.1l3.3,3.5C437,326.2,436.2,324.7,435.1,324.8z"/>
		<path class="st99" d="M446,384.9l-0.1,1l-2.9,3.3c-1.1,1.3-2.2,2.3-4.1,1.8c-0.6-0.7-2-0.3-2.1-1.6c0-0.5,0.5-0.7,1-0.5
			c3.8-1.3,4.4-5,6.1-7.9c0.4-0.5,1.2-0.7,1.8-0.4C446.9,382,446.4,383.5,446,384.9z"/>
		<path class="st36" d="M437.9,388.9c-1.1,1.4,1.1,1.1,1.1,2.1l-8.1-2c1.4-0.2,3,0.4,4.1-1C436,388,437.2,387.8,437.9,388.9z"/>
		<path class="st89" d="M396,345.9l4,3.1c0,0.3,0.1,0.6,0.1,0.9L400,350c-2.3,1.2-3.2-0.6-4.4-1.9
			C395.3,347.3,395.5,346.5,396,345.9z"/>
		<path class="st57" d="M277,327c0.3,0,0.6-0.1,0.9-0.1c0.7,0.2,1.9,0.2,1.6,1.4c-0.4,1.6-1.8,1.8-3.1,1.6s-0.6-1.2-0.4-1.9L277,327
			z"/>
		<path class="st25" d="M227,259c0,0.3,0,0.6,0.1,0.9c-0.4,0.8-1.3,0.5-2,0.9c-2.2-1.1-4.6-0.8-6.9-1c-0.1-0.2-0.3-0.5-0.3-0.7
			c1.1-0.1,2.4,0.1,3.1-1.1l4,1c0.5-0.6,1.3-0.6,1.8-0.2C226.9,258.9,226.9,258.9,227,259z"/>
		<path class="st6" d="M225.1,260.8l2-0.9c1.7,1,2.2,1.9,0,2.9L225.1,260.8z"/>
		<path class="st100" d="M397,383c-0.4,2.2-1.4,2.6-3,1C394.7,382.8,395.9,383,397,383z"/>
		<path class="st36" d="M446,384.9c-0.9-1.1-1-2.7-0.1-3.9c-0.1-1.3,0.8-2.3,1-3.6c-0.1-0.8,0-1.4,0.8-1.6c1.9-2,2.7-0.6,3.3,1.1
			C451,380.7,448.9,383.1,446,384.9z"/>
		<path class="st36" d="M446.8,377.5c0.1,1.3,0.4,2.6-1,3.6L444,381l-2.5-0.2l2.6-1.6C445.5,379.3,446,378.1,446.8,377.5z"/>
		<path class="st101" d="M451,377c-0.9-0.9-1.8-1.9-3.3-1.1c0.4-1.2,0.8-2.4,2.1-3C451.4,373.9,450.8,375.5,451,377z"/>
		<path class="st101" d="M451.8,366.8c-0.3,1.8,1.5,4.3-1.8,5.2C450.3,370.1,450.4,368.2,451.8,366.8z"/>
		<path class="st95" d="M311,340.9c1.6-5,5.5-7.3,10-8.9c2.9,0.1,5.4,1.5,8,2.7c0.3,0.4,0.4,0.9,0.2,1.3c-1.4,1.4-3.4,1.5-5,2.4
			c-0.5,0.1-0.9,0.1-1.4-0.1c-2.4-1.7-3.2,1.6-5.1,1.6c-1.2,0.2-2.3,0.8-3.2,1.7c-0.7,0.7-1.3,1.7-2.6,1.5
			C311.3,342.7,310.9,341.8,311,340.9z"/>
		<path class="st65" d="M311,340.9c0.7,0.5,1.1,1.3,1,2.1c0.2,2.7-0.8,5.3-2.7,7.2c-0.4,0.2-1,0.1-1.3-0.2v-3
			c0.4-1.9,0.8-3.8,1.3-5.7L311,340.9z"/>
		<path class="st83" d="M329,335c-2.9-0.1-5.8-1.1-8-3c0.3-0.3,0.7-0.7,1-1h2C325.8,332.1,329.5,331,329,335z"/>
		<path class="st86" d="M378.9,350.8c1.2-0.9,2.1-1.8,1.5-3.6c-0.6-2-2.1-1.1-3.2-1.2c-2.4-0.1-4.9,0-7.3,0c4.2-2,8.7-0.4,13-1
			c2,0.5,2.7,2.1,3.5,3.8c0.2,0.6,0.1,1.4-0.3,1.9L378.9,350.8z"/>
		<path class="st75" d="M386,349c-1-1.4-2-2.7-3-4c1.5-1.5,3.5-0.5,5.1-1.1c0.3,0,0.6,0.1,0.9,0.2c1.3,1,2.5,2.2,3.6,3.4
			c0.3,1.2,0.2,2.2-1.1,2.8C389.8,349.6,387.9,349.2,386,349z"/>
		<path class="st102" d="M287,325.1c-0.8-0.1-1.6-0.3-2-1.1l1-1c1.1,0.1,3.1-0.5,2,1.9L287,325.1z"/>
		<path class="st1" d="M329,335c-0.8-2.4-3.4-2.6-5-4l5,0.3c2.5,1.7,4.2,4.7,7.8,4.7l1.2,1c-0.3,2,2.1,2.7,2.3,4.9l-6.5-2.9
			c-2.3,0.1-3.6-1.5-4.8-3.2C329,335.6,329,335.3,329,335z"/>
		<path class="st55" d="M452.1,383.1c-0.3-1.8-0.1-3.4,1.9-4.1C453.7,380.5,453.5,382.1,452.1,383.1z"/>
		<path class="st1" d="M329,236l1,3c-1.4,0.5-1.2,2.1-2,3l-3.2,2.7l-6.7,2.1c-0.6-0.5-0.7-1.3-0.4-1.9c1.5-1.5,3.2-2.8,5.1-3.7
			c1.8-1,0.6-1.7,0-2.6c-0.1-0.7,0-1.4,0.3-2c0.5-1,1.4-1.8,2.5-2C326.7,235.1,328.4,234.3,329,236z"/>
		<path class="st71" d="M328,242c0.4-1.2-1.5-2.4-0.2-3.5c0.3-0.3,1.4,0.3,2.2,0.6c0,0.6,0,1.3,0.1,1.9L328,242z"/>
		<path class="st65" d="M391.9,347c-2.6,0.6-2.2-1.7-2.9-3c2.2-0.7,3.9,1.3,6,1C395.9,348.8,393.5,347.2,391.9,347z"/>
		<path class="st38" d="M391.9,347c0.7-1.2,3.3,0.7,3-1.9l1.1,0.8c0,0.7,0,1.4,0,2c-0.5,0.9-0.8,1.8-1,2.8h-4.2l-0.1-0.4l0.3-0.3
			C392.1,349.3,392,348.1,391.9,347z"/>
		<path class="st79" d="M449.8,348c-1,1.4-2.3,0.9-3.6,0.6c-0.9-2.6-3.8-2.1-5.3-3.7c0.8-1.7,2.8-0.9,3.9-1.9l0.2-0.2
			C447.1,344.2,447.5,347,449.8,348z"/>
		<path class="st102" d="M318,245l0.1,1.8l-2.2,3c-1.6,0.5-3.6-0.6-4.8,1.3c-0.2,0.2-0.5,0.3-0.8,0.3L309,249c0.4-1.1,1.3-2,2.4-2.3
			c0.1,0,0.5-0.1,0.4-0.1c-4.2-1.8-0.6-2.9,0.3-4.3c1.6-0.9,3.3-1.5,5.1-0.6C318.3,242.6,319,243.6,318,245z"/>
		<path class="st84" d="M305,254.1c0.9-2,2.5-2.3,4.4-1.9L307,254L305,254.1z"/>
		<path class="st2" d="M307,113.1c0,0.7,0,1.3,0,2c-0.5,0-1,0.1-1.5,0.3c-1.1,0.4-2.6,1-2.8-0.6s1.1-1.5,2.4-1.3
			C305.8,113.5,306.4,113.3,307,113.1z"/>
		<path class="st2" d="M311,117.1l2,1c-2,1.3-3.9,2.1-5-1H311z"/>
		<path class="st2" d="M301.5,116.4c0.4,0.2,1.3,0.5,1.5,0.9c0.4,1.2-0.9,1.1-1.5,1.3s-1.3-0.2-1.3-1S300.5,116.4,301.5,116.4z"/>
		<path class="st80" d="M250,150.1h-1c-2.9-2.9-6.7-1-10-2h-2c0.5-7.2,5.1-9.7,11-6c0.5,0.4,1,0.7,1.6,0.9c4.2,1.4,4.4,2.1,1.6,5.1
			C250.8,148.7,250.3,149.3,250,150.1z"/>
		<path class="st103" d="M241,185c-4.6,1.4-4.4-2.8-6-5c0.4-6.9,3.2-1.5,5-1C240.8,181,241.7,182.9,241,185z"/>
		<path class="st73" d="M239,148c3.7-1.3,7.4-2.2,10,2c-2.4-1.1-1.9,0.7-2,2l-2,1C241.7,153,241.4,149.3,239,148z"/>
		<path class="st74" d="M239,148.1c4.2-1,3.4,4,6,5c-1.3,1.8-2.3,3.4-4.2,0.2C239.8,151.5,236.7,150.9,239,148.1z"/>
		<path class="st74" d="M239,164c0-0.3,0-0.7,0-1c0.1-1.6,0.8-3,2-4c0.8-0.8,2.2-0.8,3,0C244.6,163,241.2,162.9,239,164z"/>
		<path class="st71" d="M244,159h-3c0.1-1.1-0.3-2.6,1.3-2.7C244.3,156.1,243.9,157.9,244,159z"/>
		<path class="st13" d="M238.2,204.1c4-6.2,3.3-13.8,6.6-20.2l0.3,0.2c1.8,1.3,1.7,3.1,1.1,4.9c-1.6,5.3-3.6,10.6-1.4,16.2
			c0.2,0.5,0,1-0.5,1.2c0,0,0,0,0,0c-6,1.4-4.2,6.6-5.1,10.5c-0.4,1.6,0.4,3.8-2.2,4.2c-1.1-3.2-0.8-6.5-0.5-9.7
			C238.5,209.2,236.5,206.2,238.2,204.1z"/>
		<path class="st85" d="M231,197l1-3c0.4-5,1.7-6,5-4l0,0c-1.5,2,2.2,4,0,6c-0.7,2.5-1,5.1-2.9,7.1c-0.9-0.2-1.5-0.9-1.8-1.7
			c-0.4-1.1-0.1-2.5-1.3-3.4L231,197z"/>
		<path class="st19" d="M230.1,234v-10c0.7-1.1,1.3-2.2,2.8-1l0.2,3.9c0,1.7,0.9,3.3,0.7,5c-0.2,0.4-0.4,0.8-0.8,1L230.1,234z"/>
		<path class="st38" d="M237.3,211.1c0.4,3.4-0.6,6.9,0.6,10.2c1.7,2.5,2.6,4.9-0.9,6.7h-1c0.9-4.1-0.4-8.2-0.5-12.2
			c0-1.6,0.2-3.2,0.5-4.7c0.2-0.3,0.7-0.4,1-0.2C237.1,211,237.2,211,237.3,211.1z"/>
		<path class="st104" d="M233,201l1.1,2.1c0.2,1.6-1.1,3.3-0.1,4.9c-0.5,0.8-1,2.1-1.6,2.2c-1.3,0.1-1.5-1.5-1.9-2.5
			c-1-2,0.9-3.7,0.6-5.7C231.6,201.5,231.9,200.4,233,201z"/>
		<path class="st85" d="M232.9,223.1l-2.8,1c0.1-2.4,0.4-4.7,0.4-7c0-3,1.9-0.3,2.6-1l0,0c1.1,1.5-0.2,3.5,0.9,5L232.9,223.1z"/>
		<path class="st71" d="M237,196c0.7-2-2.2-4,0-6C237.1,192,241.1,194,237,196z"/>
		<path class="st41" d="M237.3,211.1h-1.2c1.7-2-0.3-5.2,2.1-7C237.9,206.4,238.4,208.9,237.3,211.1z"/>
		<path class="st41" d="M233,232c0.3-1.7-1.1-3.3,0.1-5l1.8,2.9c0,0.4,0,0.7,0,1.1C234.5,231.7,234.2,232.6,233,232z"/>
		<path class="st41" d="M234,221c-1.6-1.4-0.7-3.3-0.9-5C234.7,217.4,233.8,219.3,234,221z"/>
		<path class="st105" d="M230.1,255c-1.5-2.4-0.2-4.3,1.2-6.1C231.4,251,235.2,253.9,230.1,255L230.1,255z"/>
		<path class="st38" d="M233,232l1.9-1c0,1.4,0,2.7,0,4.1c-1.5,1.3-0.9,3.5-1.9,4.9h-1c0.1-2.4-0.3-4.8,0.9-7
			C233,232.7,233,232.4,233,232z"/>
		<path class="st39" d="M227,259h-2c-1-2.4,1.4-3.3,2-5c-0.1,0.8,0.3,1.6,1,2L227,259z"/>
		<path class="st106" d="M228,252.9c-2.9-1.2,0.1-3.4-0.9-4.9h1C228,249.7,228,251.3,228,252.9z"/>
		<path class="st40" d="M233,201l-2,1c0-1.3,0-2.7,0-4C233.1,198.1,233,199.6,233,201z"/>
		<path class="st0" d="M237,167c-1-0.1-2-0.4-1.8-1.7c0.1-0.3,0.7-0.8,0.9-0.8C237.3,165,236.9,166.1,237,167L237,167z"/>
		<path class="st6" d="M308,350h1c0.3,0.3,0.6,0.6,0.8,1c0.3,1.3,0.4,2.6,0.1,3.8c-0.1,0.4-0.2,0.8-0.3,1.2c0.1,0.6,0.5,1.1,1,1.4
			c1.1,0.9,1.1,2.1,0.9,3.4c-0.3,1.5,0.7,0.9,1.4,0.8c0.4,0,0.8,0.1,1.1,0.4c-0.6,1.7-1.2,3.4-2,5c-0.4,0.9,1.5,2.4-0.7,2.5
			c-0.8,0-1.5-0.7-2-1.8c-1-2-2.1-3.9-3.4-5.8c-1.3-3.5-2.2-6.9,1-10C307.7,351.6,308.1,350.8,308,350z"/>
		<path class="st63" d="M336.1,344.7c4.1,3.2,2.3,8.3,3.9,12.2l-1,1c-2.5,0.9-3.8-2.1-6-1.8l-11.8,1c-3.3-0.1-3.3-2.4-3.2-4.7
			c0.1-0.5,0.3-1,0.7-1.4c0.4-0.3,1-0.4,1.4-0.2c1.5,3.4,4,4.5,7.6,3.2c0.5-0.1,1-0.2,1.5-0.2c7.7-0.8,7.7-0.8,6.2-8
			C335.5,345.4,335.7,345,336.1,344.7z"/>
		<path class="st54" d="M318.9,351.9c0,2.1-0.1,4.2,2.3,5.3c-2.4,1.6-5.5,2.2-7.1,4.9h-1c-0.4-4,3.4-6.4,3.7-10.1
			C317.4,351.4,318.3,351.4,318.9,351.9z"/>
		<path class="st84" d="M333,356.2c2.2-0.6,4.5,0.1,6,1.8c-2.1,2-4.6,0.6-6.9,1C331.4,357.6,336.1,358.2,333,356.2z"/>
		<path class="st27" d="M357,197c1.7-6.6,3.1-13.1,3.1-20c0-4.4-1.4-8.5-2.3-12.6c-0.2-1-0.4-3.8-2.9-1.7c-1.1,0.9-1-0.4-0.8-0.7
			c2-4-1.7-5.4-3.3-7.9c-1.1-1.8-4.5-3.3-1.6-6.2c1.3,2.2,2.2,4.8,3.9,6.6c5.8,6.1,8.1,13.4,8.3,21.6c0.1,1.1,0.3,2.3,0.5,3.4
			c-0.6,7.2-0.9,14.5-4.7,20.9C356.3,199.3,356.3,198,357,197z"/>
		<path class="st76" d="M359.1,156c-0.3,0.8,0.5,2-0.9,2.3c-0.2,0-0.6-0.3-0.6-0.6C357,156.2,358.2,156.3,359.1,156L359.1,156z"/>
		<path class="st107" d="M444.8,343.1c-0.4,2.4-2.7,1.1-3.9,1.9l-0.8-0.2c-1.2-0.8-1.8-2.5-3.5-2.8c-0.6-0.2-1.2-0.6-1.6-1.1
			c0-0.6,0-1.2,0-1.8l3.8,0.1C441.4,339.6,442.6,342.1,444.8,343.1z"/>
		<path class="st108" d="M329,335.9c2.1,0.2,3.2,2.1,4.8,3.2c-0.8,2.4-3.3,1.7-4.8,2.9c-2.5,0.4-4,2.9-6.6,2.8
			c-0.5-0.1-0.9-0.2-1.3-0.5c-0.5-2.9,2-3.5,3.6-4.6c2.9-2.2-2.5-0.4-0.8-1.8C325.1,335.8,327.1,336,329,335.9z"/>
		<path class="st54" d="M322,344c2.4-0.5,4.2-2.8,7-2c0.4,0.6-2.9,1.7,0.2,1.9c2.3,0.1,4.8-1.4,6.9,0.8c-0.1,0.2-0.2,0.4-0.3,0.5
			c-5.7,0.6-10.7,3-15.5,5.8l-1.2-0.1c-0.8-1.5,0.6-2.8,0.4-4.3C319.6,345.2,320.9,344.7,322,344z"/>
		<path class="st41" d="M302,251.1c-2.5,0.8-4.8,2.3-6.7,4.2c-1.4,1.6-3.3,1.9-5.3,1.7c-0.6-1.8-1.4-3.6,0.5-5.2
			c0.6,0.3,1.2,0.9,2.1,0.6c-0.7,0.1-1.5-0.1-2.1-0.6c-3.7,1.7-7.4,4.1-11.5,1c3.6-3,8.3-2.2,12.4-3.4c2.7,0.5,4.9-0.6,7-1.9
			c0.7-0.2,1.4-0.3,2.1-0.1c0.4,0.2,0.8,0.5,1,0.9C302,249.2,302.1,250.1,302,251.1z"/>
		<path class="st58" d="M278.9,252.9c4.2,1.5,8-1.8,12.1-0.8l0,0c-1.4,1.4-0.2,3.4-1,5c-1.7-0.1-3.4-1.4-5,0
			c-2.8-2.1-5.2,0.1-7.8,0.7c-0.4,0.2-0.9,0.3-1.4,0.3c-1.2,0-2.4,0.1-3.6,0.2c-0.7,0-1.5-0.2-2.1-0.5c-0.8-0.6-1.4-1.3-1-2.5
			l3.9-0.2c1.5-1.4,3.4-1.8,5.3-2.2L278.9,252.9z"/>
		<path class="st84" d="M312,243.2c-0.4,0.9-1.5,1.3-1.3,2.5c1.9,1.1,2.7-1.6,5-1.1c-1.4,3.1-4.7,2.9-6.7,4.4H307
			c-0.8,0-1.6-0.3-2.2-0.8c-0.3-0.8-0.2-1.7,0.4-2.3c0.3-0.3,0.6-0.6,0.9-0.8h-0.1c1.1-1.6,2.9-2.6,4.8-2.7
			C311.4,242.5,311.8,242.8,312,243.2z"/>
		<path class="st3" d="M260.9,256.3l4.1-0.3c1.8-0.1,1.2,0.6,0.5,1.4c-1.6,0.7-3,1.8-4.6,2.6h-1c-1.1,0.4-1.7-0.1-2.3-0.9
			c-0.2-0.4-0.2-0.9-0.2-1.3C258,256,259.8,256.9,260.9,256.3z"/>
		<path class="st41" d="M277,257c2.7-0.9,5.3-4.3,8,0c-1.4-0.1-2.8,0.3-4,1C279.9,256.8,278.1,258.2,277,257z"/>
		<path class="st19" d="M305.1,247.9l2,1.1c-1.3,1.4-3.2,2.1-5.1,2c-0.7-0.4-1.1-1.2-1-2C302.2,248,303.4,247.1,305.1,247.9z"/>
		<path class="st37" d="M258.1,259l1.9,1c-0.6,0.7-1.3,1.3-1.9,2l-1,0l-1-1c-0.7-0.4-1.5-1-0.9-1.9C255.9,258,257.1,258.2,258.1,259
			z"/>
		<path class="st25" d="M272,257h4c0.5,0.5,0.6,1.3,0.1,1.8c0,0-0.1,0.1-0.1,0.1c-1.4-0.1-2.8,0.3-4,1C270.4,259,270.5,258,272,257z
			"/>
		<path class="st80" d="M272,257c-0.6,0.9-0.6,2.1,0,3l-5-1c-0.3-0.2-0.4-0.5-0.3-0.7s0.2-0.3,0.3-0.3h1c0.5-0.6,1.2-1,2-1L272,257z
			"/>
		<path class="st25" d="M261,260c0.9-1.6,2-3,4-3c0.3,0.2,0.4,0.4,0.3,0.7s-0.2,0.3-0.3,0.3C264.7,260.7,262.6,259.8,261,260z"/>
		<path class="st14" d="M276,259c0-0.6,0-1.3,0-1.9h1c1.4,0.1,3-0.5,4,1L276,259z"/>
		<path class="st77" d="M265,258c0-0.3,0-0.7,0-1c0.7-0.4,0.7-0.7,0-1c2.7-1.4,1.7,1,2,2c0,0.3,0,0.7,0,1L265,258z"/>
		<path class="st35" d="M291.8,249.9l-12.9,2.9h0c-1.8,0.9-3.9,1.3-5.9,1l-8,0.1c5.3-3.2,11.5-2,17.2-3.9c2.5-0.8,5.4,0,7.5-2.4
			c1.1-1.2,1.5,1.4,2.6,1.5C292.4,249.5,292.2,249.8,291.8,249.9z"/>
		<path class="st37" d="M253,261c-1.5,0.9-3.3,1.2-5,1c-1.1,0-2.2,0.1-3-1c-1.6-0.2-3.7,0.6-4.1-2.1l0.6-0.5
			c1.8-0.5,3.7-0.7,5.6-0.8c0.6,0,1.1,0,1.7,0C250.6,258.2,253.8,257.1,253,261z"/>
		<path class="st2" d="M248,259h-0.4h-0.4c-2-0.8-4.1-0.8-6.1,0l0,0c-1.2-0.4-2.1-1.5-2.3-2.8c3.6,1.3,6.9-0.4,10.3-0.1
			c0.7,0.7,2.5,0.2,2.1,2.1C250.2,258.8,248.9,258.1,248,259z"/>
		<path class="st3" d="M251,258l-2-1.9l11.9,0.2L258,258C255.7,258.8,253.3,259.3,251,258z"/>
		<path class="st82" d="M245,261c1.1,0,2.3-0.2,3,1v1h-6.6L245,261z"/>
		<path class="st25" d="M273,253.9l5.9-1c-1.6,1.8-3.7,2.1-6,2.1C273,254.6,273,254.2,273,253.9z"/>
		<path class="st25" d="M270,257c-0.4,0.7-1.2,1.1-2,1c0.1-1.1-0.3-2.3,1.1-2.9L270,257z"/>
		<path class="st79" d="M233,240c0.1-1.9-0.4-3.9,1.9-4.9C233.7,236.5,236,239.3,233,240z"/>
		<path class="st33" d="M230,275c0.8,0.5,1.8,0.9,1.6,2.1c-0.1,0.2-0.4,0.4-0.7,0.4C229.7,277,230.2,275.9,230,275L230,275z"/>
		<path class="st79" d="M251,258l7,0.1c0,0.3,0,0.6,0.1,0.9c-1.1,0.2-3.2-0.5-2.1,2h-3c-0.7-3.2-3.3-1.5-5-2
			C248.7,257.9,249.9,258.1,251,258z"/>
		<path class="st83" d="M229.1,372.1c0.1-2.7-1.3-5.5,0-8.2c1.7-2-0.3-4-0.1-6.1c0.2-1.9-0.3-3.9,1-5.7l0-1.1
			c2.5,0.4,1.9,2.3,1.9,3.9c0,3.3-0.1,6.6-0.1,10c-0.7,2.4-0.2,4.9-0.4,7.4c-0.1,0.8-0.1,1.9-1.1,1.8
			C229.5,373.9,229.6,372.7,229.1,372.1z"/>
		<path class="st53" d="M230,352.1c0.2,2.9-0.3,5.8,0.8,8.6c0.6,1.4,0.5,3-1.7,3.1l-1.2-2.9C228.8,358.1,226.3,354.4,230,352.1z"/>
		<path class="st80" d="M230.1,330c0.2,2.3-1,4.8,0.9,6.8c-0.5,0.6-1.3,2.4-1.7,0.7C228.8,335.2,228.1,332.3,230.1,330z"/>
		<path class="st80" d="M231,348c-0.6,1.1-1.3,0.1-2,0.1c0.1-1.8-0.4-3.7,0.7-6C230.9,344.3,229.5,346.5,231,348z"/>
		<path class="st23" d="M231,320c0,0.5,0,1,0,1.5c-0.1,0.9,0.4,2-0.6,2.7c-0.5,0.1-1,0-1.3-0.3c-1-1.1,0.4-1.6,0.6-2.5
			c0.1-0.5,0.2-1,0.3-1.4C230.4,319.5,230.7,319.5,231,320z"/>
		<path class="st65" d="M231,320h-0.5h-0.5l-1-4l2-1L231,320z"/>
		<path class="st92" d="M435,341l2.1,0.1c1.4,1,2.4,2.1,0.7,3.7l-2.8-1.1C435.2,342.8,433.8,341.9,435,341z"/>
		<path class="st79" d="M437.8,344.7c0.4-1.4-0.2-2.5-0.7-3.7c2.5,0.1,3,1.8,3,3.8C439.3,344.8,438.6,344.8,437.8,344.7z"/>
		<path class="st99" d="M229.1,372.1c0.7-0.1,1.7,2.5,2-0.3c0.3-2.3-0.7-4.8,0.8-7c0.2,6,0.6,12.1-0.8,18c-1.6,0.9-2,0.3-2-1.4
			C229.1,378.4,229.1,375.2,229.1,372.1z"/>
		<path class="st109" d="M357,197c0,1.1,0.1,2.2,0.1,3.3l-3.2,7.5c-3.6,4-6.2,8.9-10.3,12.4c-1.3,0.8-2.4,1.9-3.2,3.2
			c-0.4,1.8-2.2,2-3.2,3c-0.6,0.3-1.3,0.3-1.9,0c0.1-1.5,1.4-2.5,0.7-4.4s-1.7-5.4,3.3-4.5c1.4,0.2,4.9-3.4,4.7-4.9
			c-0.4-3.8,6.1-5.5,2.4-10.2c-0.9-1.1,2.8-3,4-2.2C354.7,203.1,355.3,199.1,357,197z"/>
		<path class="st80" d="M343,220.1c4-3.8,6.3-9,10.9-12.2c0.2,3-2.7,4-3.9,6.1c-1.6,2.7-2.6,5.7-5,7.9c-1.2,1.1-1.1-0.7-1.8-0.7
			C342.6,220.9,342.5,220.5,343,220.1z"/>
		<path class="st71" d="M329,236l-3-1c-0.3-2,1.4-2.2,2.6-2.9c2.8-0.4,4.5-3.5,7.5-3.3c0.2,0.2,0.3,0.5,0.2,0.8
			c-0.1,0.2-0.2,0.4-0.3,0.4C336,234.8,331.3,234,329,236z"/>
		<path class="st80" d="M336,230.1V229c-0.7-1.3,0.4-2.2,0.9-3.2l3-2.8c0.5-0.4,1-0.3,1.2,0.3c0.5,1,1.2,2.9-0.1,2.9
			C338,226.2,338,229.2,336,230.1z"/>
		<path class="st57" d="M341.1,223.3l-1.2-0.3c0.8-1.2,1.6-2.4,3.1-2.9c0.1,0.4,0.1,0.7,0.2,1L341.1,223.3z"/>
		<path class="st25" d="M395,350.7c-0.4-0.7-2-0.8-1.5-2c0.4-1,1.6-0.6,2.5-0.7c1.3,0.7,2.7,1.3,4,2
			C398.8,353.7,396.5,349.8,395,350.7z"/>
		<path class="st110" d="M391,350c0,0.2-0.1,0.5-0.2,0.7h-4.6L386,349C388,347.6,389.9,346.9,391,350z"/>
		<path class="st53" d="M229,398c0.2,1.6-0.3,3.2-1.5,4.4c-2.4-1.4-0.2-3-0.4-4.4L229,398z"/>
		<path class="st25" d="M229.9,390.8c-0.4,1-0.4,2.2,0,3.3c-0.7,0-1.6,1.5-1.6,0.7C228.2,393.5,226.3,390.8,229.9,390.8z"/>
		<path class="st63" d="M322,344l-2,3c-0.2,1.1-1.1,2-2.2,2.4c-0.4,0.1-0.9,0.1-1.3,0c-1.6-1-3.8-1.1-5-2.9c0-2.2,2.3-3.3,2.5-5.5
			c0.5-1.3,1.8-2.1,3.1-2c0.7,0.6,0.2,2.4,2,1.9c0.9,0.9,0.8,2.4,1.9,3.1H322z"/>
		<path class="st50" d="M321,344c-3.6,1-1.4-1.8-1.9-2.9c0.4-2.2,1.8-3,3.9-3.1c0.3,0,0.6-0.1,0.9-0.1h4.5L321,344z"/>
		<path class="st4" d="M314,341c0.6,2.4-2,3.8-2,6c0.3,0.9,0.5,1.9,0.4,2.9c-0.2,1.2,0,2.5-0.7,3.6c-0.2,0.4-0.6,0.6-1,0.8
			c-0.4,0-0.8-0.1-1.1-0.4c-0.4-0.9,0.2-2.1-0.7-2.9c0-0.3,0-0.7,0-1c1.2-2.2,1-5.1,3-7L314,341z"/>
		<path class="st73" d="M323,338l-3.9,3.1c-0.8,0-1.3,1.5-1.9,0.7c-0.5-0.6-0.1-1.9-0.1-2.9c1.2-0.1,2.2-0.8,2.7-1.8
			C321.6,334.4,322.4,336.1,323,338z"/>
		<path class="st109" d="M328.9,233l-2.9,2c-1.2-0.1-1.6,0.9-2.2,1.6c-1.3,1.3-2.8,2.3-4.5,3.1c-2.6,1.6-5.7,1.9-8.4,3.2
			c-1.8,0.4-2.7,2.6-4.8,2.2c-0.6-2-1.5-4.9-0.2-6c2.3-1.9,5.9-4,8.3-3.5c2.8,0.7,3.9-0.2,5.3-1.7c0.3-0.4,0.7-0.7,1.1-1
			c4.2-1.9,4.2-1.9,2.9-5.8h10.9C334.5,230.9,331,231.2,328.9,233z"/>
		<path class="st103" d="M318,245c-0.4-1-0.7-1.9-1-2.9c-0.1-1.2,0.7-2.3,1.8-2.6c1.4-0.5,2.5-2.2,4.3-1.4c0.4,1.5,2.8-0.6,2.8,1.7
			c0,1.8-1.2,1.9-2.5,2.4C321.5,242.9,320.4,245.1,318,245z"/>
		<path class="st45" d="M323.1,238.2L319,240c-0.6-0.4-0.6-0.7,0-1.1c1.3-1.3,3-2.2,4.8-2.3L323.1,238.2z"/>
		<path class="st48" d="M319,238.9c0,0.4,0,0.7,0,1.1l-2,2.1c-1.8-0.3-3.3,0.6-4.9,1.1l-1.1-0.3L319,238.9z"/>
		<path class="st111" d="M328.9,233c1.4-2.3,4.3-3.2,5.5-5.8l0.8-0.8l1.7-0.7c0.3,1.2-0.4,2.2-0.9,3.2
			C333.7,230.4,332.1,233,328.9,233z"/>
		<path class="st35" d="M300.9,247.7L299,248c-0.9,0.7-2.1,0.7-3,0.1c0.5-2.3,2-2.8,4-2.3c0.6-0.4,1.3-0.4,1.9-0.1
			C302.5,246.9,302,247.5,300.9,247.7z"/>
		<path class="st109" d="M305.4,236.6c-1.4,0.7-2,2.6-3.9,1.8c-0.2-0.1-0.4-1-0.2-1.3C302.3,235.4,303.6,235,305.4,236.6z"/>
		<path class="st90" d="M296,248.1l3-0.1c-2,2.3-4.5,2.2-7.2,1.9c0.2-0.2,0.4-0.5,0.5-0.7C293.7,249.5,295.1,249.1,296,248.1z"/>
		<path class="st13" d="M247.9,199.7c-2.6-0.8-2.7-2.6-4.5-3.9C246.4,196.1,247,197.4,247.9,199.7z"/>
		<path class="st13" d="M245.2,191.8c2.9-0.1,2.1,2,2.8,4C246.5,195,245.4,193.5,245.2,191.8z"/>
		<path class="st109" d="M302.1,246l-2-0.2c1.9-1.6,4-0.7,6.1-0.8c-0.1,0.2-0.1,0.5-0.2,0.7C304.7,247,303.4,247.2,302.1,246z"/>
		<path class="st109" d="M330,218.1c0.2,0.5,0.4,0.9,0.5,1.4c-0.1,0.3-0.3,0.6-0.6,0.7c-0.7,0.3-0.9-0.3-0.8-0.8
			S329.6,218.7,330,218.1z"/>
		<path class="st63" d="M310,354h1c2,0.8,3.5,0.9,3.8-1.9c0.1-1.3-0.2-3.2,2.1-3.2l0.2,0.1c0.7,0.8,0.7,2.1-0.1,2.8
			c1.3,4.4-2.7,6.7-4,10.1c-0.8,1-1.4,3.1-3.1,2s-0.1-2.2,0.5-3.2s0.8-2.1-0.4-2.9c-0.6-0.5-1.6-0.8-1-2l0,0
			C309.7,355.5,309.3,354.5,310,354z"/>
		<path class="st65" d="M310,354c-0.4,0.7-0.7,1.3-1,2v-5C310.2,351.7,310,352.9,310,354z"/>
		<path class="st65" d="M309,356l1,2c-0.9-0.1-2.1,0.3-2.5-0.7S308.3,356.2,309,356z"/>
		<path class="st35" d="M320.2,351.1c4-5.1,9-7.5,15.5-5.8c0.8,1.4,1.4,3,1.9,4.6c0.6,3,0,5.4-3.9,5c-3-0.3-5.9,0.6-8.8,1.1
			C321.2,356.6,319,355.4,320.2,351.1z"/>
		<path class="st71" d="M317,351.9c0-1,0.1-1.9,0.1-2.8l2.9-2.1c2,1.9-1,2.6-0.9,4c0,0.3-0.1,0.6-0.2,0.9L317,351.9z"/>
		<path class="st53" d="M302.1,246l3.9-0.2l-0.8,2.1c-1.2,0.8-2.6,1.2-4,1.1c0-0.4-0.1-0.9-0.1-1.4L302.1,246z"/>
		<path class="st93" d="M291,252c1.6-0.1,3.5-1.4,4.7,1.3C294,253.7,292.2,253.2,291,252z"/>
		<path class="st79" d="M241,259c1.8-1.4,4.3-1.4,6.1,0H241z"/>
		<path class="st16" d="M317,349c-1.3,1.2-0.9,2.7-1,4.2s0,3-1.5,3.4c-1.4,0.5-2.9-0.2-3.4-1.6c-0.1-0.3-0.2-0.6-0.2-0.9l0,0
			c0.9-1.2,1.7-2.4,1-4c-0.3-1-1.6-2,0-3C314.4,345.9,315.5,347.8,317,349z"/>
		<path class="st63" d="M312,350c2,1.9,0.5,3-1,4L312,350z"/>
	</g>
</g>
</svg>
