<?xml version="1.0" encoding="utf-8"?>
<!-- Generator: Adobe Illustrator 26.0.1, SVG Export Plug-In . SVG Version: 6.00 Build 0)  -->
<svg version="1.1" id="Layer_1" xmlns="http://www.w3.org/2000/svg" xmlns:xlink="http://www.w3.org/1999/xlink" x="0px" y="0px"
	 viewBox="0 0 645 567" style="enable-background:new 0 0 645 567;" xml:space="preserve">
<style type="text/css">
	.st0{fill:#030102;}
</style>
<g id="Layer_2_00000088841839469696074370000016067406023397301159_">
	<g id="Layer_1-2">
		<path class="st0" d="M269.1,189.2l-0.9,2.9c-2,1.9-1,4.4-1.2,6.6c-0.2,4.9-2.6,9.5-6.4,12.7c-2.6-0.6-2.6-3.1-3.3-5
			c-0.8,2.5-3.3,3.9-5.8,3.2c-2.9-0.5-2.2-3.2-2.3-5.3c0.1-0.7,0.6-1.2,1.2-1.6c1.3-0.1,2.4-0.7,3.2-1.7c5.1-3.1,2.7-7.5,2.1-11.6
			c-0.3-1.7-0.2-3.4,1.3-4.6c2.2-1.5,4.1,0,6.5,0.7c-4.7-2.6-5.5-4.6-4.6-10.3c-0.5,1.9-1,3.8-0.1,5.8c0.6,1.1,0.1,2.5-1,3
			c-0.1,0.1-0.3,0.1-0.5,0.2c-1.2-0.2-2.2-1-2.8-2.1c-0.9-1.9-1.1-4.1-0.6-6.1c0.7-1.4-0.1-3.1,0.9-4.5c0.7-0.6,1.5-1.1,2.3-1.4
			c1.8-0.6,3.9,0.2,5.8-0.9c-2.1-0.5-4.1,1.1-6.1-0.2c-1.7-4,0.5-4.5,3.4-4.2c-3.6-1.9-7.5-3.1-11.5-3.6c1.6,0.9,4,1,6.1,1.9
			c1.2,0.5,1.9,2.6,1,2.6c-3,0-2.1,3.7-4.4,3.9c-3.2,3.1-7.4,3.6-11.6,4.2c-1.7,0.4-2.8,1.9-2.6,3.6c0.5-1.6,1.1-3,2.8-3.7
			c2-1,3.1,0.5,4.3,1.6c0.7,0.7,1.1,1.6,1.4,2.6c1,3.1-0.9,5.2-2.6,7.4c-1.2,1.3-2.3,2.7-3.3,4.2c-0.5,0.8-1.2,1.5-2,2
			c-1,0.3-2.1-0.1-2.6-1c-0.2-0.5-0.3-0.9-0.4-1.4c0-0.5,0-1,0.2-1.4c0.2-0.8,0.9-1.4,0.8-2.2c-3.3,0.7-4-3.7-7-3.6
			c-0.7,0.1-1.4,0.2-2.1,0.1c-0.5-0.1-0.9-0.2-1.4-0.4c-3.8-2.5-2.5-4.6,0.4-6.8c-3,1.7-4.9,4.9-8.6,5.9c-2.6,0.7-1,4.5-2.8,6.5
			c-2.4,2.7,0.2,4.1,1.8,6.1c1.8,2.3,7.2,3.3,3.9,8.1c-0.3,3.8,0.6,4.2,5.4,2.1c2.2-1.1,4.4-2.3,4.7,1.8c0.2,2.6,3.2,2.6,4.6,4.2
			c0.3,0.4,0.6,0.8,0.7,1.3c0.1,0.8-0.2,1.5-0.9,2c-1.7,0.8-3.5,1.3-5.4,1.5c-5.9-1.3-11.9-0.3-17.8-1c-1.9-0.2-3.6-3.1-5.7-0.4
			c-4.9,1.9-9.9,3.5-14.5,6.1c-1.3,0.6-2.7,1-4.1,1.3c-9.5,0.2-14,7.6-19.5,13.6c-2,1.5-3.6,3.4-4.9,5.5c-1.2,2.4-3,2.9-5.4,1.4
			c1.3,1.3,3.7,1.1,4.1,3.3c0,0.5-0.1,0.9-0.2,1.4c-1.7,4.7-1.8,9.2,0.8,13.6c0.3,0.4,0.5,0.8,0.8,1.1c1.3,2.2,2.6,4.4,5.1,5.4
			c0.6,0.3,1.2,0.7,1.6,1.3c0.7,0.7,0.9,1.7,0.5,2.6c-2.9,1.7-6.1,5-6.8-1.9c-0.2-1.7-2.4-1.5-3.8-1.8c-1.8-0.8-3.1-2.4-3.4-4.3
			c0-0.5-0.1-1.1,0.2-1.3c2.2-1.9-0.2-1.1-0.8-1.4c-2.2-1.8-2.9-4.2-3.2-6.9c0.1-1.6,2.8-3.2,0.1-4.9c-0.3-0.6-0.5-1.3-0.6-2
			c-0.2-1.9,0-3.9-0.7-5.8c-0.1-0.8-0.1-1.5-0.2-2.3c1-13.9,3.5-27.2,13-38.2c0.3-0.4,0.7-0.7,1.1-1c1.9-0.5,3.1-1.8,4.4-3.1
			c6.3-6.2,13.1-11.6,21.9-14.1c2.9-0.9,5.5-2.6,7.3-5.1c1.1-1.4,2.6-2.4,4.3-1.6c3,1.3,6.2,0.8,9.3,1.2c5.6,0.7,9-2.2,12-6.3
			c1.2-1.8,2.4-3.6,3.5-5.4c6.9-10.7,18.9-13.9,30.4-8.2c4.7,2.3,9.2,4.6,11.8,9.5C274.4,172.7,273.3,181,269.1,189.2z"/>
		<path class="st0" d="M262.4,351.8c-2,2.1-4.7,4.1-4.1,7.4c0.5,3.1-2.8,7.3,2.3,9.4c0.5,0.2,0.6,2,0.5,1.9
			c-1.9-1.5-2.7,1.9-4.5,0.8c-2.1-1.3,1.3-2.1-0.1-3.5c-0.9,1.3-2.9,0.8-3.2,3.6c-0.3,2.5-1.6,0.2-2.3-0.7c-0.4-0.6-0.6-1.3-0.4-2
			c1.4-3.7,3.2-7.2,2.5-11.4c0.5-3.4,1-6.8,0.4-10.3c0.6-3.6,0.3-7.4-1.1-10.8c-0.9-2-1.4-4.1-1.5-6.3c0.1-4.5-1.7-8.9-4.9-12.1
			c-1.7-3-2.8-6.4-5.4-8.8c-0.4-0.3-0.7-0.6-1-1c-4.5-6.4-10.4-11.4-16.1-16.5c-2.8-2.8-6.4-4.4-9.9-6.2c-2.7-1.3-6-1.9-7.6-4.9
			l0.4-0.6c1.2-0.9,2.9-0.5,3.8-1.9l0,0l1.4-2c1.1,0.8,0.5,1.9,0.2,2.8c-0.5,1.3-0.3,2.6,1.2,2.4c1.3-0.2,3.2,0.3,3.9-1.4
			c0.4-0.8,0-1.3-0.9-0.6c-0.8,0.5-1.3,0.4-1-0.7s1.6-2.4,1.7-2.1c1.3,1.9,3,0,4,0.5s0.7,2.1-0.6,2.8c-0.5,0.3-0.9,0.4-1.1,1.3
			c-0.7,3.1,6.7-3.5,3.6,3.2c-0.8,1.8,3.7,1.4,6,1.4c1.1,0,2.9-0.8,3.5,0.7c0.5,1.3-0.7,2.1-1.8,2.6c-1.1,0.3-1.8,1.5-1.4,2.6
			c0,0.1,0,0.1,0.1,0.2c0.8,2.1,1.7-0.2,2.4,0c2.4,0.5,2.1,3.5,4.5,4.6c3.6,1.6,3.3,2.1,7-0.4c-0.7,2.4-3.3,3.8-1.5,6.4
			c1.6,2.2,3.9,2.3,6,3.1c2.4,0.9,4.4,6,4.6,8.5c0.2,2.6-0.9,5.5,0.7,7.7s3,4,2.2,6.9c-0.2,1,0.9,1,1.8,1.1c1.7,0.1,2.5-0.6,2.6-2.2
			c0.3-3.4,2.1-3.8,4.8-2.4l0.5,0.5c0.3,1.8-0.5,3.3-1.3,4.9c-0.2,0.5-0.5,0.9-0.7,1.3c-1.7,4.3-1,8.7-0.5,13
			C262.1,347,263.2,349.3,262.4,351.8z"/>
		<path class="st0" d="M240.9,366.7c-0.1-1.2,0.6-2.3,1.8-2.8c1.2-0.9,2.2-2,2.9-3.3c0.7-1.1,1-2.4,1-3.8c-0.1-0.9,0.2-1.9,0.9-2.5
			s1.7-0.8,2.7-0.5c0.8,0.9,1.3,2,1.5,3.2c0.1,0.5,0.1,0.9,0,1.4c-0.3,2.3-2.2,3.6-3.5,5.4c-2,2.7-5.7,4.5-2.7,9.1
			c1.1,1.6-1.4,3.5-3,4.7c-3.4,2.7-7.3,4.5-10.9,6.9c-1.9-0.2-3.2-2.7-5.5-1.5s-4.8,1-6.8,2.6c1,0.8,1.8-0.6,2.8-0.2
			c1.8,0.4,4.4,0.2,4.4,2.9c-0.1,2.1-2.5,2.3-4.1,2.8c-1.1,0.4-2.3,0.3-3.3,0.7c-2.5,1.4-5.4,0.1-8,0.9c-0.8,0.4-1.8,0.3-2.6-0.1
			c-1.6-3.2-4.6-3-7.4-3.1c-1.8-1.2-3.8-1.1-5.8-1c-4.7-0.5-9.5-0.9-13.5-4c-1-0.8-2.2-0.6-3.4-0.7c-4.8-0.9-6.5-6.1-10.7-7.7
			c-4.6-3.3-10.1-5.5-13.6-10.3c-2.3-2-1-5.7-3.6-7.6c-1.9-5.3-1-6.6,4-6.1c0.4,0.2,0.9,0.4,1.3,0.7c3.1,2.3,4.4,5.8,6.2,8.9
			c2.3,3.7,6.8,5,9.2,8.5l0,0c3.3,1.4,6.2,3.5,9.3,5.1c1.3,1.6,3.4,2.1,5,3.3c1.2,1,2.5,2,3.8,2.8c2,1.5,4.3,1.8,6.7,2.1
			c5.1,0.6,10.2,0.6,15.2-0.1c2-0.9,3.9-2.1,6-2.9c1.6-0.5,3.3-0.6,4.9-1.1C230.1,377.8,235.1,371.7,240.9,366.7z"/>
		<path class="st0" d="M156.1,380.2c-0.2-2.5-2-5,0.3-7.3c0.7-0.1,1.4,0.1,1.9,0.5c1.1,0.8,2.2,1.6,3.2,2.5c1.9,2.2,2.9,5.2,6,6.3
			c2.2,1.3,4.5,2.2,7,2.9c1.4,0.4,2.8,1,4.1,1.6c3.4,1.7,6.9,3.1,10.4,4.4c10.5,3.9,21.4,4.9,32.2,0.4c3-1.4,6.6-1.4,9.1-4
			c3.1-2.4,6.7-3.9,9.9-6.1c1.2-0.5,2.6-0.4,3.7,0.4c-0.3,2-1.6,3.6-1.3,6.1c0.4,3.6-3,4.2-5.6,3.9c-3.3-0.5-4.2,1-4.8,3.7
			c-0.7,3.2-2.8,4.1-5.6,2.3c-1.2-0.8-2.9-0.5-3.8,0.7c0,0.1-0.1,0.1-0.1,0.2c-1.7,2.9-4.6,2.4-7,2.9c-0.7,0.1-3.6,1.7-2.6-2.1
			c0.3-1-4-0.7-5.4,0.3c-2,1.4-3,0.8-4-0.7c-2.5-3.7-6.2-3.8-8.9,0c-1,1.4-2.9,2.1-3.7,1.5c-1.1-0.7-0.6-2.3,1.1-2.8
			c0.7-0.2,0.7-1,0.2-1.6s-1.1-0.2-1.7-0.2c-2.8,0.4-5.8,0.9-6.8-3c-0.1-0.8-0.9-1.4-1.8-1.3c0,0,0,0-0.1,0c-5,0.7-9.9-1.5-15.2-0.1
			c-3.5,1-7.4-0.1-9.8-2.8c4.2,0.1,4.9-1.7,3-4.8c-0.3-0.3-0.5-0.7-0.6-1.1c-0.3-0.8-0.9-1.4-1.7-1.7
			C157.2,380.9,156.6,380.6,156.1,380.2z"/>
		<path class="st0" d="M484.8,365.1c1.1-0.1,2.1-4.7,3.5-0.1c1.5-1.6,2,5.3,3.8,0.4c2.2,1,3.2,3.5,2.4,5.8c-0.6,1.7-1.5,4.6-5.2,3.4
			c2,3.1,4,1.3,5.7,0.9c1.2,1.5-1.2,1.9-0.9,2.9c1.4,3.7-1.7,3.7-3.3,3.1c-5-1.7-9.7,0.1-14.6,0.5c-3.1,0.2-5.3,0-3.5-4.4
			c1.1-2.7-2.5-4-4-3.6c-2.2,0.5-3-0.4-3.9-1.7c-0.8-1.1-1.1-2.2-2.8-0.5s-5.9-0.5-6.2-2.9c-0.1-0.6,0-1.1,0.5-1.1
			c1.3,0,2.8,0.5,2.2-1.8c-0.5-1.8-2-1.5-3.3-1.3c-2.2,0.2-3.5-3.4-6-1.5l-0.5-0.5c-0.3-0.7-0.3-1.5,0-2.3c4.1-5.1,7.3-4.6,11.9,1.9
			c2.1,3.5,5.8,5,9,7.1c2.9,1.9,6.1,3.2,9.4,4.1c2.2,0.5,4.2,0.9,5.9-0.9s0.9-3.6,0.1-5.4C484.7,366.4,484.6,365.7,484.8,365.1z"/>
		<path class="st0" d="M269.1,189.2c2.1-5.9,2.9-12.2,2.3-18.4c-0.6-6.7-5.8-11.1-11.7-14.2c-17-8.9-27.3-0.2-34.5,12.4
			c-2.4,4.5-7.2,7.2-12.3,6.9c-3.6-0.3-7.2,0.7-10.6-1.6c-1.2-0.8-2.1,0.4-2.7,1.5c-1.8,3.1-4.9,4.8-7.9,5.6
			c-8.6,2.5-15.4,7.4-21.4,13.7c-1.5,1.6-2.9,3.4-5.4,2.7c-0.4-1,0.6-1.3,1-1.9l1.1-1c1.2-1.9,3.4-2.4,4.8-4l1.2-1.3
			c1.3-2.1,3.2-3.6,5-5.2c1.4-0.7,2.8-1.4,4.3-2c2.1-1,4.2-2.3,6.4-2.6c5-0.7,7.1-5.1,10.6-7.7L199,172l0.2,0.2
			c2.2-2.1,4.1-1.7,5.7,0.8l0,0c1.4,0.3,2.7,0.8,4.1,0.1l0,0c1.2-1.4,2.8-1,4.1-0.8c4.3,0.8,7.3-1,9.6-4.4l1.2-1.2
			c1.2-2.9,3-5.5,5.2-7.8c1-1,2-2,2.9-2.9c5.3-6.5,19.2-7.4,26.2-3.8c1.8,0.9,3.6,1.8,5.4,2.7c4,3.3,7.9,6.8,9.3,12.1l0.3,0.9
			c1.9,6.1,2.4,12.2-1.6,17.8C270.3,186.6,271.6,189.3,269.1,189.2z"/>
		<path class="st0" d="M274,310l2-2.1c0.8-1.3,2-2.2,3.4-2.8c4.1-2.1,7.4-1,10.1,2.6c0.4,2.2,2.8,3.9,1.6,6.5h0.1
			c-2,1.6-3.3,4.3-6.3,4.4c-2.7-1.5-0.8-3.1-0.1-4.7c0.3-0.7,0.8-1.6-0.2-2c-1.9-0.9-2.7,0.9-3.8,1.9c-0.5,0.5-1,0.9-1.6,1.2
			c-3,0.9-4,3.2-4.3,6c-0.5,1.6-2,2.4-3.1,3.6c-0.5,0.5-0.9,1-1.3,1.5c-2.1,3.3-4.9,6.4-4.7,10.7c-0.4,1.2-0.6,2.5-0.8,3.8
			c-0.3,1.1,0,2.4,0.8,3.2l0.9,0.8c0.7,0.5,1.3,1,1.7,1.8c0.3,1.3,1.3,2.1,2.1,3.1c0.4,0.9,0.5,1.8,0.4,2.8c-0.1,0.8-0.4,1.5-1,2
			c-2.9-0.9-4.7-3.5-7.2-4.9c-3.3-6.3-2.8-12.7-0.8-19.2h0.1c3.6-5.4,6-11.4,9.1-17C271.9,311.9,272.9,310.8,274,310z"/>
		<path class="st0" d="M308,247c0-0.3,0.1-0.6,0-0.9c0.4-0.4,0.9-0.7,1.4-0.8c5.3,3,5.5,8.1,5.5,13.3c-3.1,5.4-4.4,10.9-1.1,16.8
			c0.6,1.1-0.1,2.6-0.3,3.9c-1,5.4-2.3,10.7-2.1,16.2c0,1.6,0.2,3.8-2.6,2.4c-1.8-4.3-1.6-8.9-2.4-13.4c-0.1-0.6-0.1-1.1,0-1.7
			c1.3-4.5,0.6-9.1,0.8-13.6C307.7,261.8,304.9,254.3,308,247z"/>
		<path class="st0" d="M304.9,282c-1.3-0.4-3.2,2.2-4-0.8c-0.6-2.1-0.3-4.4,0.8-6.3c0.7,0.5,1.1,0.3,1.5-0.5s-0.1-1.2-0.5-1.8
			c-0.4-0.7-0.6-1.4-0.6-2.2c5.6-2.8,0.9-5-0.4-7.4c-0.7-1.1-1-2.6,0.1-3.1c4.7-2,2.6-5.5,1.5-8.1c-1.4-3.3,1.3-6.6-0.6-9.8
			c-0.2-0.3,0.7-1.2,1.9,0c1.5,1.5,0.9,3.7,2.4,5c0.7,5.4,0.8,10.8,0.5,16.1c-0.5,5.3,1.1,10.5,0.3,15.8
			C307.4,280.4,306.3,281.5,304.9,282z"/>
		<path class="st0" d="M262,330c0.5,4.5-2,8.8-0.7,13.2c0.6,2,0.9,4.2,2.7,5.8c2.9,2.9,4.9,6.6,8.5,8.8c0.4,0.2,0.7,0.5,1.1,0.7
			c1.2,0.8,2.5,1.5,3.8,2.1c1.1,0.9,2,2.1,3.4,2.6c2.3,1.8,4.8,0.9,7.2,0.3c1.6-0.5,3.2-0.8,4.9-0.8c1.9,0.1,3.7-0.5,5.6-0.5
			c2.9,0.1,5.5,1.8,8.4,1.8c0.7-1.3-0.1-2.6,0-3.9c-0.1-1.9-0.1-3.8-0.1-5.7c0-0.5,0-1,0-1.5c0.4-3.2,1.4-6.3,3-9.1
			c0.5-1.1,1.2-2.1,2.1-3c0.4-0.2,1-0.1,1.3,0.2c-1.1,3.2-2.1,6.5-3.2,9.7c-0.7,3.9-0.6,7.8,0.4,11.6c0.7,2.5,0.9,5.4-2.6,6.5h-1.4
			c-4.8-3.6-10.2-3.4-15.6-2.2c-3.6,0.6-7.2,0.9-10.8,0.8c-7-3.2-12.3-8.3-16.6-14.6l-0.9-1.1C260.1,344.6,257.5,337.4,262,330z"/>
		<path class="st0" d="M158.1,345l-4.2,1.9c4.1,1.5,7.7,3,5.4,7.9l-0.4,0.5c-1.6-0.2-2.4-1.6-3.7-2.3l0,0c-1.4-0.7-2.7-2.3-4.4-0.9
			s-1.1,3.2-0.6,5c0.7,2.3,2.6,4.4,1,6.9l-1.7,2.1c0.8-3.2-4.1-1-3.9-4.2c0.3-4.5,0.2-9-0.2-13.5c-0.4-3.7,2.1-5.3,4.5-4.9
			C152.5,343.9,155.6,343.2,158.1,345z"/>
		<path class="st0" d="M253,221h-1c-6.1-0.7-12.9,1.4-18-4c-7.3-2-14.8-1.7-22.2-1.8c-4.5-0.1-9.3-0.8-9.4,6c0,0.8-1,0.8-1.6,0.7
			c-0.9,0-1.2-0.4-0.8-1.3c0.3-0.6,1.5-1.5,0.4-1.9c-1.1,0-2.1,0.4-2.9,1.1c0.5,3.9-1.3,1.9-3,1.5s-3.4,0.8-4.4,2.6l0,0
			c-1.6-0.8-4.2,3-5-1.2c1-4.1,5.5-3.3,7.9-5.3c2.6-0.5,4.8-2.2,7.3-3.1c8.5-3.2,17.3-1.1,25.9-1.1c5.3,0.1,10.5,1,15.5,2.7
			c5.4,1.7,11.2,1.8,16.6,0.4c2.2,2.6,1.6,4.3-1.8,4.7C255.3,221.2,254.1,221,253,221z"/>
		<path class="st0" d="M408,290c-0.1,5.7-0.1,11.4-1.4,17.1c-0.9,4.1-2,8.7,0.7,12.9c0.8,1.2,0.5,3.3-0.1,3.7
			c-5.2,3.9-0.6,9.2-2.2,13.5c-0.1,0.3,0,0.7,0.2,0.9c1.2,1.4,1.1,2-0.6,3.2c0.7,1.2,1.8-0.9,2.7,0.5c-2.1,2.6-5.8,4.7-4.1,9.1
			c1.1-0.1,0.4-1.5,1.4-2.1c0.5,2.4,0.6,4.1-2.5,4.2l-0.7-0.5c-1.5-3.6-1-7.4-0.4-11.1c2.5-5.8,0.6-12,1.2-18
			c0.9-5.3-0.1-10.7,0.6-16c1.5-5.6,0.3-11.4,1.5-17c0.4-0.7,1.2-1.2,2-1.2C407.1,289.4,407.6,289.6,408,290z"/>
		<path class="st0" d="M150,237l-1.9,3.4c-2.1-2.4-1.1-5.7-2.5-8.2c-0.3-0.6-0.4-1.6,0.2-1.8c3.6-0.7,4.2-3.6,5-6.3
			c0.4-1.1,0.2-2.4-0.6-3.3c-2.8-3.8-1.6-6.7,1.6-9.8c2.9-2.6,6.3-4.9,4.5-10.4c-0.9-2.9,2.2-2.8,4.5-1.7c0.4,0.3,0.7,0.8,0.7,1.4
			c-2.9,5.3-4.3,11.2-7.5,16.5c-2,3.2-0.8,7.4-1.5,11.1c-0.3,1.6-0.2,3.3-1,4.8C150.8,234.1,151.5,236,150,237z"/>
		<path class="st0" d="M347,374.9c-1.3,1.8-0.4,4.9-3.3,5.7c-1,0.3-2.1,1.7-3,0.2c-0.5-0.9-0.6-1.9-0.2-2.8c0.9-1.6,1.8,1.2,3.4-0.2
			c-3.9-1.2-4.1-8-10.4-5.1c-1.2,0.6-5.1-0.5-3.5-3.6c1.9-3.8-0.6-7.8,1.2-11.4c1.6,0,2.5,1.1,3.4,2.3c1.6,3.3,3.9,6.2,6.9,8.4
			C343.5,370.3,346.4,371.7,347,374.9z"/>
		<path class="st0" d="M510.8,298.1c3,1.1,4.8,2.7,3.6,6.4c-0.3,1,0.4,2.3,0,3.4c-0.4,1.2,2,3.3-0.7,3.4c-2.5,0.1-3.7,5.4-7.4,1.1
			c-2.5-3-11.1-2.4-14.3,0.6c-2.3,2.1-2.7-0.1-3.9-0.8l-0.4-0.7c0.2-1.8,1.5-2.8,2.9-3.6c5.2-2,10.6-1.1,15.9-0.9
			c5.4,1,3.8-3,4.1-5.7c-0.2-0.4-0.3-0.8-0.4-1.2C510.2,299.3,510.3,298.6,510.8,298.1z"/>
		<path class="st0" d="M150,237c0.3-1.4-0.7-3.1,1.1-4.1c1.1,1.2-0.1,2.9,1,4.1c0,0.6,0,1.3,0.1,2c1.1,1.9-0.3,4.2,0.9,6l0.1,1.9
			c0.9,1.3,0.4,2.6,0.1,4c0.1,2.7,1.7,4.8,2.7,7.1c1.2,0.7,0.1,2.2,1.1,3c0.1,2,1.4,3.1,2.9,4c3.5,2.5,3.2,7.4,6.5,10
			c0.7,0.6,1.4,1.1,2.1,1.5c3,1.9,5.9,4,9.4,4.7c1.8,0.5,3.5,1.2,5.2,2c0.9,0.4,1.7,1.1,2.1,2c0.1,0.5-0.2,1-0.6,1.3
			c-2.2,0.8-3.9-0.7-5.7-1.5c-2.2-1-4.6-1.8-6.7-2.9c-5.7-3-11-6.2-12.7-13.2c-0.6-2.5-3-4.5-4.6-6.8c-1-2-2.1-4-3-6
			c-2-2.8-0.2-6-0.9-9c-1.7-1.9,0.2-4.4-1-6.4L150,237z"/>
		<path class="st0" d="M204,277c0.6,1,2.1,1.5,2.2,2.9l-0.2,0.2c-0.8,0.7-1.9,1-2.9,0.7c-8.7-0.6-16.2-5.5-24.7-7
			c-3-0.5-5.5-2.9-7.2-5.7c-0.5-0.9-0.5-2-0.2-3c3.3,1.4,6.7,2.5,10.3,1.3c-0.1,1.7,2.5,1.7,2.2,3.5c-0.2,0.9-0.2,1.8,1.1,1
			c2.9-1.7,3.8-1.4,2.1,2c-0.3,0.7,0.9,1.2,1.4,0.9c3.4-1.9,5.3,1.8,8,2.1c1.1-0.7,1.5,0.3,2.1,0.9h3
			C201.9,276.2,203.1,276.2,204,277z"/>
		<path class="st0" d="M225.2,304.8c-2.9,0.2-5.3-1.5-8.1-2c-2.3-0.4-4.7,1-6.9-1.1c-1.7-1.6-4.6-2.6,1-5.6c-5.2,1.4-7.2,0.1-8.2-3
			c1.3-1,3-0.4,4.4-0.9c1.7,0.1,3.3,0.5,4.8,1.3c3.2,1.5,6.2,3.2,9.1,5.1C223.4,300.1,226.1,301.4,225.2,304.8z"/>
		<path class="st0" d="M182.1,223.3c-2.2,5.5-3.5,7.2-7.3,9.2c-1.7,0.9,5.5,1.1,0.1,3c-3.7,1.3-6.7,4.4-10.7,5.5
			c-1.1-1.7,0.3-3.1,0.7-4.6c0.4-1.1,1.2-2.1,2.1-2.8c2.2-2.5,4.7-4.8,7-7.3c1.9-2.1,3.9-4,7-3.9
			C181.5,222.6,181.9,222.9,182.1,223.3z"/>
		<path class="st0" d="M341.8,360.1c0.9,0.4,0.8-4.9,2.9-0.4c0.5,1.1,4.6,2.4,7.3,3.2c5.6,1.7,8,7.7,5,13l-3.4,2.5
			c-1.1-1.3,0.6-4.3-2.4-4.3l-0.5-0.4c-0.1-0.4-0.1-0.8,0-1.2c0.3-0.8,0.5-1.5,0.7-2.3c0.1-2.3-1.3-3.5-3.1-4.4
			C345.9,364.2,342.4,363.7,341.8,360.1z"/>
		<path class="st0" d="M234,217c5.5,3.5,12.4,1,18,4c-0.5,1.6,3,2.5,1,4.2c-2.7,2.3-5.8,0.8-8.5-0.2s-4.7-3.1-7.5-0.9
			C233.6,222.7,234.2,219.7,234,217z"/>
		<path class="st0" d="M274,310c0.2,1.6-1.2,2.1-2,3.1c-2.2,2.4-2.8,5.6-4.5,8.3c-0.9,1.4-1.4,3.3-3.5,3.6l-0.2-0.1
			c0.2-2.9,2.4-5.4-1.3-8.5c-1.8-1.5-0.4-7.1,0-10.8c0.1-1.2,1.5-1.8,2.7-0.8c1,0.7,1.9,1.6,0.7,2.8s-2.2,2.3-0.2,4s2.6-0.4,3.5-1.2
			C270.7,308.8,272.2,308.9,274,310z"/>
		<path class="st0" d="M264,156.2c-2.1-0.1-3.8-1.2-5.4-2.3c-7.5-5-14.8-4.5-22.1,0.3c-1.4,0.9-2.7,1.9-4.5,1.9
			c-0.9-2.5-2.4-4.2-6.6-3c3.1-3,4.7-5.2,8.1-2.3c1.2,1,4.3,0,5.6-0.4c6.5-1.9,12.6-0.7,18.9,0.7c1.1-1.1,2.9-1.1,4,0
			C263.3,152.5,264.8,153.9,264,156.2z"/>
		<path class="st0" d="M461.9,354.3c1.2,1.9,3.8,2.6,4.8,4.8c3.8,2.5,8.3,3.6,12.3,5.7l5.8,0.3c2.4,2,3.8,4.6,1.7,7.3
			c-1.7,2.5-5,3.5-7.8,2.2c-3.4-1.3-6.8-2.4-9.7-4.7c0.7-0.7,1.7-1,2.7-0.7c1.8,0.5,3.4,1.4,5.2,1.9c2.4,0.1,5.1,3,6.9-1
			c-0.5-1.5-1.9-1.9-3.2-2.4c-1.4-0.4-2.9-0.7-4.4-0.7c-0.5-0.1-0.9-0.2-1.3-0.3c-1.1-0.4-2.2-0.7-3.3-1c-7-2.2-11.6-7.2-11.8-12.6
			C461.1,352.3,461.4,353.3,461.9,354.3z"/>
		<path class="st0" d="M341.8,360.1c2.4,1.7,4.4,3.9,7.2,4.9c0.3,0.3,0.3,0.9,0,1.2l-0.1,0.1c-8.3-0.3-13.1-4.7-14.2-13.2
			c-0.2-2.5-0.3-5-0.1-7.5c0.1-1.5,0.1-3,0-4.6c-0.1-1.5,0.1-3,0.6-4.5c0.8-1.4,1.7-2.9,1.5-4.6c0-0.5,0-1,0-1.5
			c1.2-3.8-0.2-8.1,2.1-11.8c0.5-0.1,1.1,0.1,1.4,0.5c1.6,5-1,9.9-0.4,14.9c-4.4,6.2-2.7,13.3-2.8,20
			C337.1,356.6,339.4,358.7,341.8,360.1z"/>
		<path class="st0" d="M264,156.2c-0.7-1.7-2.4-3-2-5.2c1.1-0.4,2.4-1.5,3.1,0.7c0.6,1.5,1.2,3.1,2,4.5c1.8-0.9,2.1-1.9,0.8-3.4
			s-0.9-2.4,0.9-2.7s2.5-0.2,1.8,2.2c-0.3,1,0.6,2.5,0.2,4.2c-0.9,3.9,4,2.2,5.1,4.5l-0.4,0.5c-0.9,0.8-1.8,1.6-1,3
			c0.1,0.1,0.2,0.3,0.4,0.4c0,1.4-0.8,2-2.1,2.1C269.8,163.5,267.6,159.2,264,156.2z"/>
		<path class="st0" d="M468.9,307c-1.4-0.3-2.4-0.8-0.7-2.1s3.8-1.1,5.8-0.8c2.5,0.4,3.5-0.2,2.6-2.7c0-0.2-0.1-0.3-0.2-0.5
			c-2.1-3.5,4.6,1.6,2.9-3.1c-1.2-3.5,1.7-1.6,3.8-1.2c2.5,0.5,5.4-0.4,7.8,1.5c-1.4,2.5-4.8,1.3-6.4,3.4c-0.2,0.4-0.5,0.7-0.7,1.1
			c-0.4,0.7-1,1.4-1.6,2c-0.3,0.3-0.7,0.6-1,0.8c-1.6,1.1-2.3,3.5-4.8,3.3c-0.4-0.1-0.8-0.3-1.2-0.6
			C473.5,305.2,471.1,307.2,468.9,307z"/>
		<path class="st0" d="M406.7,289.9l-1.4,0.4c-0.4-0.1-0.8-0.5-1-0.9c-0.3-0.9-0.4-1.9-0.3-2.9c0-0.8,0.2-1.5,0.3-2.2
			c0.3-7.6,1.7-15.1,0.9-22.8c0.3-1.8,0.4-3.6,0.3-5.4c1.5-4.1,0.2-8.5,1.5-12.6c0.4-1.4,0.6-4.4,3-1.1c-0.1,4.2,1,8.5-0.8,12.7
			c-0.2,0.2-0.3,0.5-0.2,0.8c-0.7,2.8-0.7,5.8,0,8.6c-0.4,2.5-0.4,5.1,0.1,7.6c0.6,1.2-0.3,1.5-1.1,1.9l0,0
			c-0.9,3.7-0.2,7.6-0.5,11.3C407.3,286.8,408.1,288.5,406.7,289.9z"/>
		<path class="st0" d="M271.6,185.9c2.2-5.8,1.7-11.8,1.6-17.8c2.2,2.1,4.8,3.9,2.9,7.6c-1,1.8,1.6,1.8,1.7,3.1s0.8,2.8,0.4,3.8
			c-0.6,1.3-2-0.3-3.4,0c0,1.7,3.2,3.1,0.9,5C273.5,189.1,273,186.2,271.6,185.9z"/>
		<path class="st0" d="M468.9,307c2.7-2.4,5.3-3.9,7,1c-6.1-0.9-4.4,4.1-5.4,7.1c-0.6,8.3,1.2,16.6,1,24.9c0.2,0.5,0.3,1,0.4,1.5
			c0.1,2,0.9,4,0.3,6.1l-0.5,0.5c-5.1-4.6-2-10.9-3.2-16.3c-0.4-2,0.5-4.3-1.7-5.8v-1c-0.2-1.1,0.2-2.2,0.9-3.1
			C467.4,316.9,467.8,311.9,468.9,307z"/>
		<path class="st0" d="M409.1,255c0-4.7-0.1-9.3-0.2-14c-1.8-1.1-1.1-2.3-0.3-3.6c2.6-2.6,2-5.7,1-8.7c-0.3-2.3-2.3-3.3-3.7-4.7
			c1.7-3.9,3.3,0.1,5,0c2.6,4.2,2.4,8.6,1.4,13.3c-0.8,3.8-1.7,7.7-1.4,11.7c0.8,1-1,2,0,3C411.1,253.3,410.3,254.5,409.1,255z"/>
		<path class="st0" d="M395,380c-1-1.5-1.1-3.5-0.2-5.1l0.6,0.2c1,0.5,2,3.1,2.9-0.2c0.9-3.5,0-6.9,0.3-10.4c0.1-1.7,0-3.3-0.3-5
			c0.2-1.1,0.6-2,2.1-1.5c2.5,3.1,0,7,1.5,10.2c0,2.5,0,4.9,0,7.4c-0.5,1.1,0.1,2.2-0.1,3.4c-0.3,1.8-0.3,3.5-2.6,4.1
			C396.2,384,395.9,381.7,395,380z"/>
		<path class="st0" d="M263.3,352.9c4.6,5.3,10.2,9.6,15.8,13.9c0.5,0.4,0.5,0.8-0.1,1.2c-1,0.9,0.1,1.4,0.5,2c1.3,2-1.1,1.4-1.6,2
			c-0.9,0.9-1.5-0.2-1.6-0.9c-0.4-4.8-4.5-6.9-7.2-10.1c-1.2-0.8-3.5-0.6-3-3C265,356.3,262.1,355.7,263.3,352.9z"/>
		<path class="st0" d="M444.8,308.1c2.1,0.4,4.4,2,6.2-1.5c0.4,2.8-1.6,6.2,3.3,5.6c1-0.1,1.9,4.3,1.6,6.9c-0.3,0.3-0.8,0.6-1.2,0.6
			c-3.9-0.7-6-3.6-8.3-6.4C445.9,311.5,444.5,310.1,444.8,308.1z"/>
		<path class="st0" d="M225.2,304.8c-2-5.1-7.1-6.4-11.2-8.9c-0.8-0.5-1.9-0.6-2.2-1.7c0.2-0.5,0.5-0.8,1-1c1.3-0.5,2.8-0.4,4.1,0.1
			c1,0.6,1.7,1.4,2.6,2c2.3,1.6,4.6,3.3,6.7,5.1c0.7,0.8,1.3,1.7,1.8,2.6c0.9,1.2,2.4,1.7,3.6,2.5c2.4,2.1,4.4,4.6,6,7.3
			c0.2,0.6,0.1,1.3-0.2,1.9c-1.8,0.7-2.8-0.8-4.1-1.4l0.1-0.3l-0.2-0.2C230.7,310,227.7,307.7,225.2,304.8L225.2,304.8z"/>
		<path class="st0" d="M306.8,279.9c0.9-1.7,0.4-3.6,0.4-5.4c0-9.1-0.1-18.3-0.1-27.4c0.3,0,0.7,0,1-0.1c0.4,8.5-0.1,17,0.9,25.5
			c0.7,4-0.1,8.1-2.1,11.5C304.4,282.7,305.7,281.3,306.8,279.9z"/>
		<path class="st0" d="M454.8,319.1l1.2-0.1l2.1,6c1.2,1.5,0,3.5,0.9,5c0.1,1.1-0.2,2.2-1,3c0,3,0,5.9,0,8.9c0,1.7,0.2,3.3,2,4.1
			l1.9,8.3L460,353c-3.1-1.9-3.4-5.2-4.1-8.3C455.5,336.1,454.8,327.6,454.8,319.1z"/>
		<path class="st0" d="M397.9,341c0.3-9.4,1.3-18.9,0.2-28.3c0-1.5,0-3.1,0-4.6c0.2-0.8,1-1.4,1.9-1.2c0.4,0.4,0.7,0.8,0.9,1.4
			c0.8,10.5,0.7,20.9-0.2,31.4C400.1,340.7,399.3,341.4,397.9,341z"/>
		<path class="st0" d="M225.2,304.8c3,2.4,7.6,3.2,7.9,8.2c-2.9,2.2-6.1-0.8-9.2,0.6c-0.9,0.4,0-2.3-0.7-3.5
			c-0.4-0.7-0.1-1.5,0.6-1.9c0.1-0.1,0.2-0.1,0.3-0.1c1.9-0.7,0.7,2.6,2.5,2.1C228.1,307.8,224.7,306.9,225.2,304.8z"/>
		<path class="st0" d="M426.9,310.9c0.7-5.3,2.8-6.9,8.7-5.8c3.1,0.6,6.1,0.1,8.4,2.7c-0.4,0.6-1.1,0.9-1.8,0.9
			c-5.1-0.5-9.9,1.1-14.7,2.6L426.9,310.9z"/>
		<path class="st0" d="M483.1,301.1c1.8-3,5.3-1.9,7.8-3.1c6.6,0.9,13.2-2.4,19.8,0l0.3,2c-0.4,0.4-1,0.6-1.6,0.6
			c-7.1-0.5-14.2-0.1-21.1,1.3C486.5,302.2,484.7,302.5,483.1,301.1z"/>
		<path class="st0" d="M260,211c3.5-3.7,6-7.8,6-13.1c0-2.1-0.9-4.8,2.2-5.8l-1.3,13.8c-1.6,2.5-2.1,5.8-4.8,7.6
			c-1,0.1-2,0.5-2.9-0.1C258.3,212.2,259.1,211.6,260,211z"/>
		<path class="st0" d="M198.8,382.1c6.2,2.1,12.2,0,18.3-1.1l-5,3c-5.6,0.7-11.4,0.7-17,0c-2.5,0.5-5.1-0.3-7-2
			c-0.3-0.3-0.4-0.9,0-1.2l0.1-0.1c1.7-0.9,3.8-0.4,4.9,1.2C194.9,382.4,196.9,382.5,198.8,382.1z"/>
		<path class="st0" d="M482.2,325c0,0.3,0,0.6,0,0.9c0.4,0.7,0.4,1.5,0,2.2c-0.8,6.5-1.5,13-2.2,19.5c-0.2,1.6-0.9,3.2-1.9,4.5
			l-0.6-0.5c-1-2.8,0.4-5.4,0.4-8.1c1.3-3.8,0.2-7.8,1.1-11.6c1.1-3.5,0.4-7.2,0.7-10.7c0.3-3.3,0.9-6.6,4.9-7.5
			c1.9,1.5,0.3,3-0.2,4.3C483.4,320.3,482.3,322.5,482.2,325z"/>
		<path class="st0" d="M279,368l0.1-1.2c4.3,1.3,8.7,0.3,12.6-1c5.8-2,10.3-0.6,14.6,3.1C297.3,365.3,288.1,368.8,279,368z"/>
		<path class="st0" d="M248,355c-0.8,0.4-0.9,1.2-1,2c-0.3,0.5-0.6,0.5-0.9,0c-0.8-5.1,1.1-10,1.1-15c-1.4-1.5-0.5-3.5-1-5.2
			L246,335c-0.5-0.6-0.4-1.5,0.1-2c0.4-0.3,1-0.2,1.4,0.2c1.3,1.9,1.8,4.2,2.5,6.3C250.9,344.9,249.5,349.9,248,355z"/>
		<path class="st0" d="M165.9,236.7c-0.6,1.4-1.2,2.9-1.7,4.3c0,1-0.1,2-0.1,2.9c0.1,1,0.1,2,0,3v1c-0.8,1.9,0.6,4.2-1,6
			c1.8,1.3,1.9,2.6,0,4c-0.4,0.4-1,0.4-1.4,0l0,0c-2.5-4.2-1.7-8.5-0.4-12.8l0,0c0.2-2.4,0.9-4.7,1.9-6.8
			C163.6,237.1,164.3,236.1,165.9,236.7z"/>
		<path class="st0" d="M253,221c1.1-2.6,6.1,0.3,6-4.2c-0.1-1.5,0.5-2.2,2-1.9c0,0.9-0.5,2.2-0.1,2.7c2.7,3.1-0.2,4-1.9,5.3l0,0
			c-2-0.5-0.9,2.2-2.4,2.3C255.4,223.9,254.2,222.5,253,221z"/>
		<path class="st0" d="M199.3,172.3c-3.3,7.5-10.8,8.3-17.2,10.9c-0.2-0.2-0.4-0.5-0.3-0.8c0.1-0.3,0.2-0.4,0.2-0.4
			c2.2-1.1,4.4-2.2,6.7-3.1c6.4-2.6,6.4-2.6,6.5-9C196.7,170.7,197.6,172.3,199.3,172.3z"/>
		<path class="st0" d="M193.1,381.9l-4.9-1.1c-0.7-0.3-1.2-1-1.4-1.7c0-0.4,0.1-0.7,0.3-1c1.6-0.8,3.9-0.9,3.5-3.7
			c-0.1-0.9,0.5-1.2,1.2-0.9c1,0.4,2.2,0.6,2,2.3C193.5,377.7,194,379.9,193.1,381.9z"/>
		<path class="st0" d="M314,259c0.6-5.2-0.4-9.9-5-13c1.4-2,1.7-2,4,0l0.2,2c1.3,0.9,2.1,2.4,2,4l0.5,2.2c1.9,3.4,0.6,6.6-0.7,9.9
			l0,0c-1.4,1.1,0.6,3.4-1.6,4.2C309.7,264.9,314.2,262.1,314,259z"/>
		<path class="st0" d="M313.9,268.1c0.5-1.3-0.8-3.1,1.1-4.1c1.1,7,1.9,13.9-0.8,20.8l-0.8,0.4c-0.1-0.1-0.4-0.2-0.4-0.3
			C313,279.3,312.8,273.6,313.9,268.1z"/>
		<path class="st0" d="M222,380c0.5-1.8,2.1-1.7,3.5-2.2c4.1-1.7,8.1-3.7,10.4-7.8c2-0.5,2.7-3.1,5-3.3
			C236.1,373.1,230.9,379.2,222,380z"/>
		<path class="st0" d="M179,285l5.9,1.2c1.3-0.4,2.7-0.4,4,0.1c1.6,0.8,3.6,1.2,4.2,3.2l-0.4,0.6c-0.9,0.4-1.8,0.8-2.6,1.4
			c-1.7,1.2-3,2.1-2-1.2c-1.7,0-1.7-2.6-3.8-2.4C182.1,288.1,180,287,179,285z"/>
		<path class="st0" d="M428,370l-2.2-1c-0.4-0.7-0.4-1.5,0-2.1c2.8-1.4,4.5,1.7,7,1.7c1.8,0.1,3.6,0.1,5.5,0.1s3.4,0,4.8,1.2
			c-2.3,2.9-9.2,3.7-13.1,1.6C429.2,371.1,428.6,370.6,428,370z"/>
		<path class="st0" d="M314.3,284.8c2.4,4.3,2.1,9,1.4,13.6c-0.5,3,0.4,3.6,3,3.4l0.6,0.6c0,0.6-0.3,1.1-0.8,1.3
			c-4.5,0.9-5.6-1.6-5.6-5.4c0.3-4.4-1.5-8.9,0.9-13.1L314.3,284.8z"/>
		<path class="st0" d="M417,332c-1.2,1.5-2.6,1.7-4,0.4c-1.1-1-2.5-1.5-4-1.4c0.3-1.1-1.2-4.1,2.3-1.6c1,0.8,3.4-2.7,6-2.2
			C418.4,328.6,418.3,330.7,417,332z"/>
		<path class="st0" d="M261,215c-0.9,0.3-1.6,1-2,1.9c-5.7,2.5-11.4,2.1-17.1,0.3c1.9-2,4.3-1.4,6.5-1.2c2.5,0.3,5-0.1,7.2-1.2
			c0.8-0.3,1.6-0.7,2.3-1.1c0.4-0.2,0.7-0.4,1.1-0.5l2.9-0.2c0.6,0.3,0.6,0.7,0,1L261,215z"/>
		<path class="st0" d="M222.9,168c-0.8,4.5-4,5.9-7.9,5.4c-2-0.3-3.9,0-5.8-0.2c0.4-1.1,1.3-2.6,2.1-2.3
			C215.9,172.7,219.3,170.1,222.9,168z"/>
		<path class="st0" d="M421.9,318.9c-0.6-2.7-1.2-5.4-4.4-6.8c3.3-0.4,7,3.6,9.4-1.1l0.3,0.3c0.5,3.9-1.6,6.2-4.7,8L421.9,318.9z"/>
		<path class="st0" d="M482.2,325c-1.4-4.3,1.6-7.5,2.6-11.3c-0.1-0.4-0.1-0.8,0.2-1.1c0.9-0.7,1.7-1.2,2.9-0.7l0.2,0.2
			C485.8,316.3,485.4,321.2,482.2,325z"/>
		<path class="st0" d="M428,370c5,1.6,10.1,3.6,15.1,0c0.5-2.1,1.2-4.1,3.9-4.2c0.3,0.2,0.4,0.5,0.4,0.8s-0.1,0.4-0.2,0.4
			C443,374.1,432.4,375.8,428,370z"/>
		<path class="st0" d="M351.2,374.1c0.3,1.4,0.6,2.9,0.8,4.3c0.1,1,0.5,2.6-0.9,3c-1.3,0.3-2.7-0.2-3.5-1.2
			c-0.7-0.9-0.8-2.4,0.5-2.9c2.5-0.9,0-1.6,0-2.3c0.8-1,1.7-1.6,3-0.9H351.2z"/>
		<path class="st0" d="M395,380c1.5,0.7,1.7,3.5,4.2,2.4c2.2-1,1.8-2.8,1.8-4.6c-0.1-0.8,0.3-1.6,0.9-2.1c1.4,1.4,5.6,2.4,0.5,4.5
			c0,0,0.4,1.1,0.6,1.8C397.8,385.3,396.1,384.9,395,380z"/>
		<path class="st0" d="M400.1,292c0.6-0.7,0.3-2,1.6-2.3c0.5,0.2,0.9,0.6,1.1,1.1c1,4.5,0.2,8.9-0.5,13.3c-0.2,1.2-0.4,2.7-2.1,2.9
			l-0.4-0.3c-0.6-4.2-0.5-8.5,0.3-12.7V292z"/>
		<path class="st0" d="M151.1,364c-0.6-2.9-1.2-5.8-1.8-8.6c-0.4-1.7-0.2-3.5,1.4-4.3c2-1,3.4,0.1,4.4,1.9c-5.1-1-5.2-0.8-4,5
			c1.6,2.4,2.2,5.3,1.9,8.2C151.8,365.9,151.7,364.7,151.1,364z"/>
		<path class="st0" d="M159.2,354.8c1.7,0.3,3.6-1.9,4.9,0.1s-0.7,4.1-1.1,6.1c-0.5,0.6-1.4,0.6-2.1,0.2c-0.3-2.2-2.5-3.8-1.9-6.2
			L159.2,354.8z"/>
		<path class="st0" d="M262,214c0-0.3,0-0.7,0-1c3.1-1.4,1.2-6.2,5-7.1c2.3,2.4,0.7,5.2,1.1,8c-1.9-0.7-0.3-2.8-2-3.4
			C264.1,210.9,264.5,214.2,262,214z"/>
		<path class="st0" d="M161.2,361h1.9c0.7,2.4,2.9,3.2,4.8,4.5c1.6,1,3.2,2.2,3.2,4.5c-3.8-2.1-6.8-5.2-10.1-8
			C160.6,361.6,160.6,361.2,161.2,361z"/>
		<path class="st0" d="M333.8,360.1l-2.6-2.5c0-1,0-2-0.9-2.7c-0.1-2.3-0.2-4.6-0.3-6.9c0.4-0.3,1-0.3,1.4-0.1
			c1.9,1.4,1.7,3.5,1.9,5.5c-0.4,2.7,3.8,3.9,2.5,6.9C335.2,360.6,334.4,360.5,333.8,360.1z"/>
		<path class="st0" d="M420.3,362.8c-2.3-4-2.4-13.9-0.2-16.7c2,2.7,0.6,6,1.5,9c0.2,0.7,0.3,1.4,0.4,2.1c0,0.5,0,0.9,0,1.4
			c-0.1,0.4-0.2,0.9-0.3,1.3C421.4,360.9,420.9,361.9,420.3,362.8z"/>
		<path class="st0" d="M401.9,368.3c-0.6-3.4-1.1-6.8-1.7-10.2l-0.1-0.7c0-1.8-0.8-3.8,1.8-4.6l0.4,0.2c0,1.1-0.5,2.3,0.4,3.3
			c0.8,1.3,0.9,2.9,0.1,4.3C401,363.1,402.6,365.8,401.9,368.3z"/>
		<path class="st0" d="M289,308.2c-2.8-2.9-6-4.4-10-2.1c-0.6-1.1,0.4-1.5,1-2c1.8-1,3.8-0.9,5.8-0.9c1.7,0.5,3.1,1.6,4.2,3l0,0
			c0.3,1,1.3,1.9,0.9,3.1C289.9,309.5,289.6,308.5,289,308.2z"/>
		<path class="st0" d="M207.3,292.9c-1.4,1-2.8,0.2-4.2,0.1l-5.7,0.5c-0.7,0.1-1.8,0.7-1.8-0.6c0-0.6,0.9-1.2,1.4-1.8l0.6-0.7
			C201.2,289.6,205,288.2,207.3,292.9z"/>
		<path class="st0" d="M330,298c3.6,1,4.8,4.1,5.8,7.2c-2.3,1-3-1-4.1-2.2c-0.3-0.3-0.5-0.6-0.8-1c-1.8-1.6-4.8-0.4-6.2-2.8
			c-0.2-0.4,0-0.9,0.3-1.1L330,298z"/>
		<path class="st0" d="M243.9,381.6c-1.3,0.3-2.7,0.7-4-0.1c-0.2-0.4-0.3-0.9-0.3-1.3c1.2-2.8,3.5-4.2,6.3-4.9
			c0.5,0,0.9,0.2,1.3,0.5c0.1,1.6-0.7,3.2-2,4.2L243.9,381.6z"/>
		<path class="st0" d="M478.9,364.8c-4.6-0.7-9-2.1-12.3-5.7c1.9-0.5,2.9,1.3,4.4,1.8C474.5,360.4,477,362,478.9,364.8z"/>
		<path class="st0" d="M229.1,159c-1.6,2.6-2.1,6-5.1,7.8C221.3,161.3,226,160.7,229.1,159z"/>
		<path class="st0" d="M157.9,344.6c3.5,1.7,7,2.3,6.4,6.8c-0.1,1-0.2,1.5-1.2,1.5c-0.6,0-1.6-0.1-1.3-1
			C162.8,348.4,158.9,347.5,157.9,344.6z"/>
		<path class="st0" d="M417,332l0.2-4.8l0,0c0.1-0.7,0.5-1.3,1.1-1.7c0.6-0.2,1.4-0.1,1.9,0.4c0.6,1.6-1.2,3.1-0.2,4.8
			c0.7,1.2,2.2,1.2,3.2,2c0.3,0.3,0.2,0.8-0.1,1.1c0,0,0,0-0.1,0.1c-1.6,1.7-3.3,0.4-4.9,0.1C417.6,333.3,417.3,332.7,417,332z"/>
		<path class="st0" d="M306.8,279.9c-0.3,1.4-1,2.8,0.1,4.2V284c1,2.9,1,6.1,0.1,9c-1.7-1.3-0.5-3.7-1.9-5.1
			c-1.7-1.9-0.1-3.9-0.1-5.9C305.2,281,305.3,279.9,306.8,279.9z"/>
		<path class="st0" d="M473,358c1.1-3.5-2.6-6.4-1.1-9.9l0.2-0.2c1.2-0.3,1.5,0.6,1.9,1.4c0.2,1.5,1.6,2.4,2.1,3.9
			C475.1,354.9,476.8,358.2,473,358z"/>
		<path class="st0" d="M307.7,368.9c2.7-1.8,2.5-4.1,1.8-6.9c-1-3.7-1.6-7.6,0.4-11.2c0.1,1.8,0.1,3.5,0.2,5.3c-0.6,2.8,1,5.4,1,8.2
			C311,366.5,311.2,369,307.7,368.9z"/>
		<path class="st0" d="M351,374l-3,0.9l-0.5-0.1l-0.5,0.1l-6.1-5.9c0.3-0.3,0.7-0.5,1.1-0.6c1.8,0,3.5,0.1,4.5,2
			c1.2,1.5,3.5,1,4.6,2.7C351.2,373.4,351.1,373.7,351,374z"/>
		<path class="st0" d="M162.1,258c0.3-0.1,0.7-0.1,1,0c0.6,1.3,1.5,2.4,2.7,3.2c2.3,0.5,3.4,2.8,5.2,4l0,0l0.9,2.1
			c-0.9,0.7-2.1,0.5-2.8-0.3l-1-1c-2.4-1.6-4.4-3.7-5.8-6.2l0.1,0.1C161.4,259.4,161.5,258.7,162.1,258z"/>
		<path class="st0" d="M180.1,375.9c-3.6-1.1-6.3-3.5-9.1-5.9c2.8-1.8,3.6,2.5,6,2c1.2,1.8,4.2,0.6,5.1,3c0,0.3,0,0.6,0,0.9
			c-0.3,0.5-1,0.7-1.6,0.4C180.3,376.1,180.2,376,180.1,375.9z"/>
		<path class="st0" d="M359.3,380.6c0.3,1-0.1,2-1,1.7c-1.2-0.5-3.1-1-2.8-2.8c0.2-1.2,1.5-3.3,2-3.2
			C360,376.6,358.4,379.3,359.3,380.6z"/>
		<path class="st0" d="M400,294l-0.3,12.8l-1.6,1.3C399.1,303.4,397.6,298.4,400,294z"/>
		<path class="st0" d="M245.2,380l1.7-4.1c-0.2-0.8,0.2-1.2,1-1.3c2.2,1.4-1.5,4.6,1.7,5.7C248,382.1,246.5,382,245.2,380z"/>
		<path class="st0" d="M153,366.1c-0.6-2.7-1.2-5.5-1.9-8.2c3.6,1.2,1.5,4.9,3,7c1.4,1,2.6,2.1,2.6,4c-0.1,0.5-0.4,0.9-0.8,1.1
			C154.3,369.2,153.9,367.5,153,366.1z"/>
		<path class="st0" d="M246.1,333l-0.1,2c-4.6-2.6-2.7-7.5-3.8-11.2c2.1-0.1,2.7,1.5,3.4,3c0.2,0.6,0.3,1.3,0.2,2
			c-0.3,1.2-0.2,2.5,0.3,3.6C246,332.5,246,332.8,246.1,333z"/>
		<path class="st0" d="M182.1,223.3c-0.3,0-0.7,0-1-0.2c0.3-3.8,4.2-2.3,5.9-4.1l4-1.2c0.3-0.3,0.8-0.2,1.1,0.1
			c0,0.1,0.1,0.1,0.1,0.2c-1.9,2.3-5.3,2.3-7.2,4.7L182.1,223.3z"/>
		<path class="st0" d="M205,173.1c-1.9-0.7-3.7-1.6-5.7-0.8c-0.5-1.1-1.7-2.6,0.8-2.6C202.4,169.6,205.4,169,205,173.1z"/>
		<path class="st0" d="M171,265.1c-2.4-0.5-3.7-2.4-5.2-4c2.3,0.1,3.2-2.1,5.7-3.1C170.5,260.6,168.4,262.9,171,265.1z"/>
		<path class="st0" d="M406.7,289.9c0.7-5.3-0.6-10.8,1.2-16c0,5.4,0,10.7,0.1,16.1L406.7,289.9z"/>
		<path class="st0" d="M233.2,313.5c2-1.1,2.3,1.5,3.7,1.7c1.7,0.7,2.6,2.3,3.7,3.6c0.5,1,1.1,2,0.6,3.1
			C237.1,320.4,236,316.2,233.2,313.5z"/>
		<path class="st0" d="M290,306c-1.9-0.3-3-1.6-4.2-3c1.9,0.8,0.6-3.3,3-1.9C290.9,302.4,289.7,304.4,290,306z"/>
		<path class="st0" d="M419.7,325.7l-1.7,0.4c-0.6-1.3,0.5-2.1,1-3.1c-1.4-3,1.4-3.1,2.9-4.1l0.3,0.2c0.9,1.7,0,3.1-0.5,4.7
			C421.4,324.7,420.6,325.4,419.7,325.7z"/>
		<path class="st0" d="M241.1,321.9L240,319c3.9,0.1,5,3,5.8,6.1c0,0.8-0.3,1.6-0.9,2.1l-2.8-3.5C242.2,323,241.8,322.3,241.1,321.9
			z"/>
		<path class="st0" d="M178.3,185.1l-5.3,4.6c0-2.8,1.4-4.3,4-4.9C177.4,184.6,178,184.7,178.3,185.1z"/>
		<path class="st0" d="M247.9,374.7c-0.3,0.4-0.6,0.9-1,1.3h-1c-0.7-3.4,1.2-5.5,3.8-7.2c0.5-0.1,1,0,1.4,0.2
			c-0.1,0.6-0.1,1.1-0.2,1.7C249.1,371.4,249,373.4,247.9,374.7z"/>
		<path class="st0" d="M482.2,328.2c0-0.7,0-1.5,0-2.2c3.2-0.4,2,2.6,3,3.9c-0.4,0.3-0.7,0.9-1.1,0.9
			C482.6,330.7,483.3,328.7,482.2,328.2z"/>
		<path class="st0" d="M178.3,185.1l-1.3-0.3c0.8-2.6,2.9-2.7,5-2.8l0.1,1.1C181.2,184.5,179.8,185.2,178.3,185.1z"/>
		<path class="st0" d="M315.2,252c-0.6-1.4-2.2-2.2-2-4c0.9-0.3,1.9-1.9,2.4-1C316.5,248.6,316.4,250.6,315.2,252z"/>
		<path class="st0" d="M414.9,268.7c-2.1-0.8-2.9-2.7-4.2-4.7C414.5,263.8,413.3,267.5,414.9,268.7z"/>
		<path class="st0" d="M266,358c0.8,1.2,2.6,1.4,3,3c-0.9,0.3-1.3,2.3-2.7,0.7C265.2,360.5,264.3,359.3,266,358z"/>
		<path class="st0" d="M156.1,380.2h1.9c0.5,1.1,1.2,2,2,2.9c0,0.3-0.1,0.6-0.1,0.9C154.7,386.9,156.7,382.1,156.1,380.2z"/>
		<path class="st0" d="M163.1,254c0.3-2-0.8-4.2,1-6C164.2,250.1,166.6,252.6,163.1,254z"/>
		<path class="st0" d="M411,252c-1.6-1-0.3-2,0-3c0.7,0.4,1.3,0.9,1.9,1.4c0.8,0.8,1.7,1.9,0.6,2.9C411.8,254.8,412.6,251,411,252z"
			/>
		<path class="st0" d="M315,264c0.7-3.2,1-6.6,0.7-9.9C317.9,257.6,317.7,260.9,315,264z"/>
		<path class="st0" d="M152.1,256c2.6,1.2,2.8,3.6,3,6C153.3,260.4,151,259,152.1,256z"/>
		<path class="st0" d="M190,224c1.2,0.3,2.8-0.7,3.4,1c0.3,0.9-0.9,1.3-1.6,1.5C189.6,227,190.2,225.2,190,224L190,224z"/>
		<path class="st0" d="M420.9,356.1c-2.3-3.2-0.5-6.7-0.8-10c0.3,0,0.5-0.1,0.8-0.1c0.7,0.6,1.1,1.5,1.3,2.4
			C422.2,351,423.1,353.8,420.9,356.1z"/>
		<path class="st0" d="M182.1,375c-1.6-1.1-4.1-0.7-5.1-3C178.5,373.3,182.4,370.6,182.1,375z"/>
		<path class="st0" d="M180.1,375.9h1.9c0.1,0.2,0.4,0.3,0.6,0.3c1.6,0.2,3.1,0.8,4.3,1.8l0,0v1c-0.4,0.6-1.2,0.6-1.8,0.2
			c-0.1-0.1-0.1-0.1-0.2-0.2C182.9,378.8,181.4,377.5,180.1,375.9z"/>
		<path class="st0" d="M442,307.9h2c0.2,0.2,0.5,0.3,0.8,0.2c1.1,1.5,3,2.6,2.2,4.9c-0.3,0.3-0.7,0.5-1.1,0.5
			c-1.3-0.2-0.9-1.8-1.8-2.3C443.3,310.1,441.4,309.9,442,307.9z"/>
		<path class="st0" d="M447.1,367c-0.1-0.4-0.2-0.9-0.3-1.3c-0.6-1.9,0.1-2.7,2-2.8l0.3,0.2c0,0.2-0.1,0.4,0,0.5
			C450.3,365.8,451.2,367.8,447.1,367z"/>
		<path class="st0" d="M466.4,378.6c1.1-0.9,1.8,0.1,2.7,0.4s1.5,0.8,1.2,1.8C468,380.5,468,380.5,466.4,378.6z"/>
		<path class="st0" d="M421.1,348l-0.1-2.1c-0.3-1.8,1.4-2.5,2.1-3.8l1.9-1.3C426,344.5,423.8,346.4,421.1,348z"/>
		<path class="st0" d="M345.8,304.1c2.7,0.5,3.6,1.4,3.9,3.3C347.4,307.8,346.9,306.3,345.8,304.1z"/>
		<path class="st0" d="M280,304l-1,2c-0.9,0.8-1.6,2-3,1.9C275.8,305,277.8,304.3,280,304z"/>
		<path class="st0" d="M420.3,362.8c-0.2-1.1-0.6-2.2,0.5-3.1c2,1.5,4.1,3.1,3.5,6.1c-1.4,0.9-1.7-0.2-2.1-1.1
			C421.9,363.8,421.2,363.1,420.3,362.8z"/>
		<path class="st0" d="M325.1,298.1v1.1c-1.1,2.8-3.4,3.1-6,2.9c-0.1-0.1-0.3-0.2-0.4-0.4C320,299,322.8,299.1,325.1,298.1z"/>
		<path class="st0" d="M150.2,240.6c0.8,2,1.2,4.2,1,6.4c-1.1,0.4-2.3,0.9-1.9-1.2C149.6,244.1,149.9,242.3,150.2,240.6z"/>
		<path class="st0" d="M259,223c4.2,0,1.8,2,1.4,3.8C258.4,225.7,259.2,224.2,259,223z"/>
		<path class="st0" d="M365.6,306.5c-2.3,1.6-3.5,2.3-5.6,1.7C361.5,306.8,362.8,306.4,365.6,306.5z"/>
		<path class="st0" d="M226,148.9c-0.9,2.2-1.5,3.4-2.2,5C222.7,151.6,222.8,150.2,226,148.9z"/>
		<path class="st0" d="M276,161c1.5,0.7,2.3,1.9,1.9,3.5c-0.5,1.8-1.9,0.1-2.9,0.5l0,0C274.5,163.6,274.9,162,276,161z"/>
		<path class="st0" d="M407.9,273.9c0.4-0.6,0.7-1.3,1.1-1.9c0.9,0.9,2.6-0.1,3.5,1.3C411.1,275,409.5,275,407.9,273.9z"/>
		<path class="st0" d="M171.8,191c-0.5,2.6-2.8,3.1-4.8,4C167.3,192.1,169.6,191.6,171.8,191z"/>
		<path class="st0" d="M158.3,373.9l-1.9-1c-0.2-0.9-0.4-1.8-0.6-2.7l0.2-0.2C158.4,370.4,160.5,370.9,158.3,373.9z"/>
		<path class="st0" d="M422.1,364.7l1.8,1.5c0.8-0.3,1.6,0.2,1.9,0.9c0,0.6,0,1.2,0.1,1.9C423.4,368.5,422,367.3,422.1,364.7z"/>
		<path class="st0" d="M161.1,200.1l-0.2-1.1c1.1-1.7,3-2.8,5.1-3l-1,1.9l0,0C163.9,199,163.1,200.6,161.1,200.1z"/>
		<path class="st0" d="M262,151h-4c-0.1-1,0.7-1.9,1.8-2c0.2,0,0.3,0,0.5,0C261.5,149.2,261.9,150,262,151z"/>
		<path class="st0" d="M313,246c-1.3-0.7-2.7-1.6-4,0c-0.3,0-0.6,0.1-0.9,0.2c0-2.1,1.4-2.3,2.9-2.1C312,244.2,313.8,243.9,313,246z
			"/>
		<path class="st0" d="M268.2,307.7l5.4-2C271.9,307.7,271.9,307.7,268.2,307.7z"/>
		<path class="st0" d="M467.8,321.9c0.1,1.1,0.3,2.3-0.9,3.1c-1.3-1.2-1.3-2.6-0.6-4.1L467.8,321.9z"/>
		<path class="st0" d="M408.9,264.4c-1-2.9-1.9-5.8,0-8.6C408.9,258.6,408.9,261.5,408.9,264.4z"/>
		<path class="st0" d="M164.1,247c-1.3-1-1.3-2,0-3C166.1,245,166.1,246,164.1,247z"/>
		<path class="st0" d="M345.6,307.4c0.2,0.3,0.8,0.8,0.9,1.3c0.2,0.9-0.5,1.1-1.2,0.8c-0.5-0.2-1.5,0-1.3-1
			C344.2,307.8,344.5,307.3,345.6,307.4z"/>
		<path class="st0" d="M476,353.2c-1.8-0.4-3.2-1.2-2.9-3.4c1.9-0.2,3.2,0.9,4.6,1.9l0.5,0.5L476,353.2z"/>
		<path class="st0" d="M246.1,336.7c1.1,1.5,1.4,3.4,1,5.2C245.1,340.6,244.8,338.8,246.1,336.7z"/>
		<path class="st0" d="M240.7,224.2c-1.3,1.8-2.2,2-3.2,1.1c-0.3-0.3-0.3-0.9-0.4-1.3L240.7,224.2z"/>
		<path class="st0" d="M197.9,399.9c-0.3-0.1-1-0.3-1.1-0.5c-0.1-0.8,0.6-1.1,1.2-1.3s1.4,0,1.5,0.8S198.8,399.8,197.9,399.9z"/>
		<path class="st0" d="M408.9,331.3c-0.2,0.8-0.4,1.4-1.2,1.5s-1.5,0-1.2-0.9c0.1-0.4,0.9-0.6,1.5-0.8
			C408.2,331,409,330.5,408.9,331.3z"/>
		<path class="st0" d="M278.4,167.3c0.4,0.6,0.8,1.2,1.1,1.8c0.2,0.8-0.2,1.4-0.9,1.3c-0.4-0.1-0.8-1-0.9-1.6
			C277.5,168.4,277.9,168,278.4,167.3z"/>
		<path class="st0" d="M452.8,366.8c1-0.1,1.2,0.4,1,0.9c-0.2,0.6-0.5,1.1-1,1.5c-0.5,0.3-0.9-0.4-0.7-0.8
			C452.2,367.8,452.5,367.2,452.8,366.8z"/>
		<path class="st0" d="M209.1,173.1c-1.4,0.9-2.8,1.7-4.1-0.1C206.4,170.9,207.8,173,209.1,173.1z"/>
		<path class="st0" d="M419,323c-0.3,1-0.6,2.1-1,3.1l-0.8,1.1C416.2,325.1,416.7,323.7,419,323z"/>
		<path class="st0" d="M187,378c-1.4-0.6-3.3-0.2-4.3-1.8C185,374.7,186.1,376.2,187,378z"/>
		<path class="st0" d="M196.9,291.1c-1.2-0.8-3.2,1.6-4-1l0.2-0.2c1.6-1,3.2-1.4,4,1L196.9,291.1z"/>
		<path class="st0" d="M280.3,178.4c0.4,0.4,1,0.6,1.1,0.9c0.2,0.4,0,1-0.5,1.1c-0.2,0.1-0.4,0.1-0.5,0c-0.4-0.1-0.7-0.5-0.9-0.9
			C279.5,179.2,280,178.9,280.3,178.4z"/>
		<path class="st0" d="M449,372.1c-0.8,0.2-1.2,0.5-1.5,0.4s-0.5-0.7-0.7-1.1c0.3-0.1,0.6-0.4,0.9-0.3
			C448.1,371.4,448.6,371.7,449,372.1z"/>
		<path class="st0" d="M263.6,363.6c-0.5,0.1-1,0-0.9-0.6c0.2-0.5,0.6-1,1-1.4c0.3,0.1,0.5,0.3,0.7,0.5
			C264.7,362.9,264.1,363.3,263.6,363.6z"/>
		<path class="st0" d="M246,361c-0.7,1.4-1.6,2.6-3.3,2.9l2.1-3C245.2,360.4,245.6,360.4,246,361z"/>
		<path class="st0" d="M210,278c-0.9-0.1-2-0.1-2.2-1.3c0-0.1,0.4-0.5,0.6-0.5C209.7,276.1,209.9,277,210,278L210,278z"/>
		<path class="st0" d="M204,277h-3C202.1,275.4,203.1,273.9,204,277z"/>
		<path class="st0" d="M198.1,276.9L196,276c0.5-1,1.7-1.4,2.7-0.9c0.1,0,0.1,0.1,0.2,0.1C199.8,275.9,198.2,276.2,198.1,276.9z"/>
		<path class="st0" d="M246,361l-1.2-0.1c0.4-1.3,0.9-2.6,1.3-3.9c0.3,0,0.6,0,0.9,0C247.1,358.4,246.8,359.8,246,361z"/>
		<path class="st0" d="M198.1,224.8c-0.7,0.2-1.5,0.4-2.2,0.5c-0.1,0-0.4-0.5-0.3-0.6C196.3,223.7,197.2,224.2,198.1,224.8z"/>
		<path class="st0" d="M181.8,226.9c1.4,1.8,1.6,2.6,1.4,3.6c0,0.1-0.7,0-0.7-0.1C182.3,229.6,182.2,228.9,181.8,226.9z"/>
		<path class="st0" d="M173.7,262.5c-0.7,0.2-1.2,0.4-1.5,0.3s-0.5-0.7-0.4-1s0.5-0.6,0.8-1L173.7,262.5z"/>
		<path class="st0" d="M259.1,213.2c0,0.3-0.1,0.6-0.2,0.8c-1.9,0.8-3.8,0.3-5.6,0.1c-2.1-0.3-3.8-2.6-6.4-1.6
			c1.4,2.4,4.9-0.5,5.6,2.8c-5.1,2.4-10.3,1.7-15.4,0.1c-1-0.9-2.3-1.6-2-3.3c0-0.7,0-1.4,0.1-2.1c0.7-0.8,2.1-1.4,1.3-4.3
			c-0.3,2.3-0.1,3.7-1.3,4.3c-1.9-2-8.1,0.1-6-6.2c0.4-1.1-2,0.1-3.1,0.3c-3.1-1-4.9-2.4-1.7-5.4c-0.4,0.3-0.8,0.6-1.1,1
			c-0.4,0.4-0.6,0.8-0.6,1.3c-0.1,1.1,0.6,2.8-0.9,3c-1.8,0.3-2.4-1.4-2.7-2.9c1.4-1.8,2.2-3.3-0.8-4.4c-2.2-0.8-3.2-3.3-5.5-4.5
			c-1.4-0.7-0.6-3.6,0.1-5.8c1.7-5.6,6.6-7.5,10.2-11c2.6-2.5,4-1.8,6.3-0.7c-0.7,2.5-9.1,0.9-3.4,6.5c-0.5,0.9-2,0.4-2.3,1.5
			c-0.1,0.3,0.3,0.6,0.7,0.6c1.4,0,1.7-1.4,2.6-2.1h2c1,2.8,4.4,3.8,5.3,6.6c-0.4,1.3-1.9,1.3-2.7,2.2c-0.2,0.5-0.3,1.1-0.2,1.7
			c1.2,2.4,2.7,4.5,3.9,6.8c0.2,0.4,0.4,0.8,0.6,1.2c1,1.6,1.9,0.9,2.5-0.2s0.5-3,2.1-3.8c4.7,0.9,6.1,2.5,6.7,7.8
			c0,0.7-0.2,1.4-0.4,2.1c0,0.7-1.3,0.7-0.9,1.2s1-0.4,1.3-0.8c0.5-0.7,1.1-1.3,1.7-1.9c0.4-0.2,0.8-0.1,1.1,0.1
			c0.1,3-0.1,6,4.8,4.1c3.4-1.3-0.4-3.4,1.2-4.9c3.4,1.6,2.4,5.4,4,7.8L259.1,213.2z"/>
		<path class="st0" d="M207,206c-0.5,1.2-1.1,2.4-1.8,3.4c-1.5,2-3.1,2.7-4.1-0.6c1.5-1.6,1.1-3.1,1.2-5.3c-1.4,2,0.2,4.1-1.2,5.3
			c-6.1-2.2-4-7.4-3.9-11.6c0.1-2,0.8-3.6-1.3-5.1c-1.2-0.8-1.5-2.4-0.7-3.5c0.2-0.3,0.5-0.6,0.8-0.8c2.1-1.3,1.6,1.2,2.2,2.1
			c1.2,1.7,3.3,1.2,4.9,2c2.2,1.2,4.8,1.6,3.1,5.2c-0.4,0.9-0.7,3.4,1.7,3.8C209.5,203.1,209.2,204.7,207,206z"/>
		<path class="st0" d="M246,204c0.3-4.4-1.5-7.1-6-8c-2.9-0.8-3-2.7-2-5l1-2c2.6-2.8,7-4.3,6.9-9.2c4.6,1.7,5.8,4.2,5.2,11
			c-0.1,3.9,0.1,7.9-1.7,11.5C248.5,203.3,248.1,205.4,246,204z"/>
		<path class="st0" d="M237,214c4.6,2.8,12.3,2.8,15.1,0c0.3-0.3,0.8-0.5,1.2-0.5c1.4-0.1,2.8,0.5,3.7,1.6c-4.7,3.9-10.2,0.9-15.2,2
			c-4.5,0.4-8.7-1.7-13-2.5c-7.1-1.2-14.2-0.2-21.2-1c-3.4-0.4-7.2,1.9-10.7,3.2c-1.6,0.6-3,1.4-4.7,1.2l-1.2-0.3
			c4.6-3,9.8-4.6,15-6c1.3-0.8,2.9-0.7,4.1,0.1c6.7,0.4,13.4-0.9,20,1.1C232.4,213.3,234.8,212.7,237,214z"/>
		<path class="st0" d="M251,169c0.7-0.4,1.9-1.1,1.9-1.3c-0.5-1.4-2.3-0.1-3.1-1.3c1.2-3.4,4.3,1,5.9-1.6l-11.1-4l0.3-1.2
			c4,1.5,8.4,0.4,12.4,2.6c0.5,0.2,0.9,0.5,1.2,0.9c1.1,1.9,5-1.2,4.6,1.9c-0.4,3.4-3.1,0.2-4.7,0.7s-1.4,2.1-1.4,3.4l-0.3,0.6
			c-0.7,0.8-1.5,1.4-1.7,2.5c-0.4,1.3,1.8,2.7,0,4c-2.4,0.3-4.7-0.7-6.1-2.6C248.1,171.2,251.1,170.9,251,169z"/>
		<path class="st0" d="M249,202c0.3-3.7,0.7-7.3,1-11c2.1-1.4,4.8-1,7-2c0,0.3,0,0.7,0,1c1.2,4.6,2.9,9.2-3,12c-1.4-0.9-2,0.6-3,1
			l-1,1h-1C248.5,203.5,248.4,202.6,249,202L249,202z"/>
		<path class="st0" d="M178,212c0.3-0.8-0.2-2.9,1-2.1c4.6,3.2,6.9-1.5,6.9-3.3c0.2-4.5,3.9-2.6,5.6-4c0.8-0.7,1.3,0.4,1.5,1.3
			c0.4,2.2,0.9,4.4,1.5,7.3c-0.7-0.4-1.4-0.8-2-1.4c-0.9-1.2-1.4-3.2-3-3c-2,0.2-1.2,2.4-1.7,3.7c-1.1,3.2-3.3,4.9-6.7,4.6
			C179.6,214.4,179.1,212.9,178,212z"/>
		<path class="st0" d="M166.1,276c-3.5-2.8-4.4-7.1-6.1-10.9c4-0.6,5.5,1.1,4.6,5.6l5.4-1.6c1.6-0.1,3.1,1,3.5,2.6
			c-0.3,2.8,0.2,6.3-4.6,5C168.1,275.7,166.9,276.6,166.1,276z"/>
		<path class="st0" d="M161.1,200.1c1.5-0.4,2.1-2.3,3.9-2.2c-4.4,5.7-6.1,12.8-9.9,18.8c-1.6,2.5-0.6,5.2-1,7.7
			c-0.6,4.2-1.3,8.4-2,12.7c-1.3-1.1-0.6-2.8-1-4.1c0.2-0.6,0.4-1.3,0.5-1.9C151,219.6,156.4,210,161.1,200.1z"/>
		<path class="st0" d="M173.1,272l-3-3l-1-2l2.8,0.2c3.1,3,6.1,5.4,10.9,6.4c6.9,1.4,13.5,4.6,20.6,6.2c-0.3,0.5-0.7,0.8-1.2,1
			c-3.7,1.1-7.7,0.7-11-1.3c-2.9-1.7-6.3-2-9.5-2.9S175.2,274.8,173.1,272z"/>
		<path class="st0" d="M238,191c0.4,1.8,0.6,3.6,2,5c-0.1,1.3,0.2,2.8-0.3,3.9c-0.7,1.4-2.1,2.9-3.8,2.5s-0.7-2.2-0.9-3.4
			c0.4-0.3,0.9-0.5,1-1c-0.4,0.2-0.6,0.7-1,1c-2.1-2.4-3.8-5.1-5-8c1.9-0.7,3.7-2.4,6-1C236.4,190.7,237.2,191.1,238,191z"/>
		<path class="st0" d="M257,189c-1.4,3.7-4.6,1.5-7,2c0.5-4.3,0.3-8.4-4-11c-0.7-0.5-0.3-1.5-1-2l-1-2c-0.8-1-0.6-1.9,0.5-2.3
			c1.3-0.5,2.1,0.5,2.8,1.4c1.2,1.4,1,4.2,3.9,4.1c1.1,2.5,0.7,6.3,5.2,5.4l0.6,0.4C257,186.4,256,187.7,257,189z"/>
		<path class="st0" d="M257,184c2.4-2.7-0.7-5.6,0.2-8.4c0.3-1-0.1-2.2,1-3c0.6-0.4,1.3-0.3,1.8,0.2c0.9,0.8,1.1,2.1,0.5,3.1
			c-1.8,4.1-2.1,7.2,3.8,7.5c1.6,0.1,1.1,1.7,0.5,2.8s-1.6,2.2-2.6,0.9c-1.4-1.9-3.2-2.1-5.2-2l0,0c-0.2-0.2-0.3-0.4-0.2-0.7
			C256.9,184.1,257,184,257,184z"/>
		<path class="st0" d="M160.2,224.6c0,3-0.6,5.9,0.1,8.3c1.7,5.3-1.9,3.3-4.1,3.4c-0.6,0-1.2-0.4-1-0.7
			C157.7,232.4,154,226.9,160.2,224.6z"/>
		<path class="st0" d="M251,179c-2.2,2.2-3,1.3-3.6-1.3c-0.2-0.7-0.4-5-3.4-1.7c-1.4-0.6-2.3-2.1-4-2l0,0c0-1.4,1.3-2.7,2-2.3
			c4.2,2.5,6-2,9-2.7c2.1,2.7-1.6,2.5-2,4c0.1,2.1,3,3,2.4,5.5L251,179z"/>
		<path class="st0" d="M219,201l2.8,2.2c0.4-2.8,0.1-5.9,3.8-6.5c0.9-0.2,1.7-0.1,1.9,0.9c0.2,0.8-0.3,1.2-1,1.4
			c-5.2,1.2-1.9,3.2-0.5,5c-1.9,3.6-5,1.6-7.4,1.2C217.6,205.1,217.6,202.4,219,201z"/>
		<path class="st0" d="M187,219c-1.4,2.2-4.5,1.9-5.9,4.1c-5.5,1.1-7.9,6.1-11.8,9.3c-0.7,0.6-1.1,1.7-2.3,1.6
			c-0.3-0.2-0.4-0.4-0.3-0.7s0.2-0.4,0.3-0.4C172.5,226.6,177.2,219.2,187,219z"/>
		<path class="st0" d="M234,188c-1.2-2.7-6.3-2.6-5-7c1.2-1.2,3.5-1.6,3.6,0c0.2,5.4,3.8,2,5.8,2.4c0.6,2.4-2,3-2.4,4.6
			C235.5,188.6,234.6,188.6,234,188L234,188z"/>
		<path class="st0" d="M167,233l0.1,1l-1.1,2.7c-3.3,1.8-2.9,5.8-4.8,8.4c-0.4-2.2-2-3-3.9-3.1c-2.6-0.1-0.7-1.6-0.7-2.3
			c0-2.1,1.4-0.9,1.8-0.4c1.9,2,3,1.5,3.8-1S165,234.4,167,233z"/>
		<path class="st0" d="M257,184v1c-0.8,0-1.6,0.2-2.4,0.4c-3.5,1.8-3.9-0.1-3.6-2.9c0.1-1.1,0-2.3,0-3.5l0,0c3.3-1.6,2.9,1.6,4,3
			L257,184z"/>
		<path class="st0" d="M255,182c-1.4-1-1.8-3.2-4-3c0-2-1.6-3-2.8-4.3c-1-1.1-0.5-1.6,0.8-1.7l6,3C253.9,178,255.5,180,255,182z"/>
		<path class="st0" d="M162.1,258c0.1,0.6,0.1,1.3,0.2,1.9c-4.2-4.6-4.8-11.7-1.1-14.8C162.5,249.3,159.8,253.8,162.1,258z"/>
		<path class="st0" d="M216,202c0.2,1.8-3.9,2.4-1.2,5c0.7,0.7-0.3,1.8-1.4,2.1c-1.2,0.4-1.3-0.6-1.4-1.4c-0.1-1.2-0.9-1.7-2-1.8
			C209.3,201.6,210,201.1,216,202z"/>
		<path class="st0" d="M257,169l8.2-1.7c-0.7,6.2-5.2,3.2-8.2,3.7C256.5,170.5,256.4,169.6,257,169L257,169L257,169z"/>
		<path class="st0" d="M216,202c-1.9,1.5-6.7-1.3-6,4h-3c0.8-1.5,1.2-3.3,1-5C210.6,202.2,213.8,198.3,216,202z"/>
		<path class="st0" d="M245,178c0.7,0.4,1.1,1.2,1,2c1.1,5.6-3.2,7.1-7,9c0.4-2.6,2.9-3.8,4.3-5.6C244.5,181.9,245.1,180,245,178z"
			/>
		<path class="st0" d="M227,181c-0.2,1.5,0.7,3.5-1.8,3.9c-1.2,0.1-2.3-0.4-3-1.3c-0.7-0.6-0.7-1.5-0.2-2.2c1.2-1.6,2.8,0.2,4.1-0.4
			H227z"/>
		<path class="st0" d="M190.1,199c-1.7-0.3-2.1-1-1.8-1.9c0.7-2.1,2.8-2.7,4.5-3.6c0.6-0.3,1.4,0.7,1,1.2
			C192.7,196.4,190.5,197,190.1,199z"/>
		<path class="st0" d="M243.2,163.1c1.4,0.1,2.6,0.6,2.4,1.7c-0.4,1.9-2.6,1.7-3.9,2.5c-0.7,0.4-1.6-0.5-1.3-1.5
			C240.8,164.5,241.8,163.5,243.2,163.1z"/>
		<path class="st0" d="M167,216c2.4-3.3,4.4-3.5,6.1-0.6c0.4,0.7,1,1.6,0.1,2.1c-0.5,0.3-1.5-0.3-2.3-0.5
			C169.9,215.8,168.2,217,167,216z"/>
		<path class="st0" d="M178,212c1.6-0.1,2.9,1.1,3,2.6c0,0.1,0,0.2,0,0.4c-0.1,1.2-0.4,2.5-1.7,2.5c-1.7,0-1.1-1.6-1.2-2.6
			S178,213,178,212z"/>
		<path class="st0" d="M240,174c-0.3,0.6-0.4,1.4-0.9,1.7c-1.5,0.8,1.2,3-1.1,3.2c-0.9,0.2-1.7-0.4-1.9-1.3c0-0.2,0-0.3,0-0.5
			c0-1.8,0.7-3.2,2.5-3.6C239,173.5,239.5,173.9,240,174L240,174z"/>
		<path class="st0" d="M167,216c1.5-0.5,3.4-2.3,4,1c-1.1,0.6-1.5,2.6-3.4,1.7C166.2,218.1,166.6,217.1,167,216z"/>
		<path class="st0" d="M162.2,259.8c1.9,2.1,4.5,3.5,5.8,6.2C164.2,265.7,162.9,263,162.2,259.8z"/>
		<path class="st0" d="M251,203c0.2-1.5,0.4-3.2,2.1-3.4c1.2-0.1,0.8,1.5,0.9,2.4C253.3,203.1,252.7,204.8,251,203z"/>
		<path class="st0" d="M237,214c-2.3-0.4-4.9,0.8-7-1c1.5-0.9,3.3-1.2,5-1L237,214z"/>
		<path class="st0" d="M170,209.3c-0.1,0.9,0.2,2.2-1.1,2.2c-0.4,0-1.1-1.1-1.3-1.8c-0.3-0.9,0.3-1.9,1.2-2.2h0.1
			C169.9,207.4,170,208.5,170,209.3z"/>
		<path class="st0" d="M236,190c-2.1-0.1-3.7,2.4-6,1v-2c1.9-0.8,4.1-0.8,6,0C236,189.4,236,189.7,236,190z"/>
		<path class="st0" d="M166.2,207.3c-0.3,0.8-0.8,1.6-1.7,1.2c-0.5-0.3-0.9-0.8-1-1.4c0-1.1,1-1,1.8-1S166.5,206.6,166.2,207.3z"/>
		<path class="st0" d="M263.6,178.2c0.8,0.1,1.2,0.6,0.9,1.3c-0.3,0.6-0.8,1-1.4,1.1c-0.9,0.1-1-0.6-0.9-1.3
			S262.9,178.3,263.6,178.2z"/>
		<path class="st0" d="M153.3,251c0-1.3-0.1-2.7-0.1-4C158.4,248.2,154.2,249.6,153.3,251z"/>
		<path class="st0" d="M257,169c0,0.7,0,1.3,0,2c-0.4,0.7-1.2,1.1-2,1C253.2,169.4,255.5,169.5,257,169z"/>
		<path class="st0" d="M210.1,211.9l-4.1-0.1C207.5,207.4,208.7,210.4,210.1,211.9z"/>
		<path class="st0" d="M162.8,227.2c-0.9-0.2-0.8-0.9-0.7-1.5s0.4-1.4,1.2-1.1c0.3,0.1,0.5,0.8,0.6,1.2
			C163.9,226.5,163.5,227.1,162.8,227.2z"/>
		<path class="st0" d="M236,189.1h-6c1.1-1.5,2.6-0.8,4-1h2C236,188.4,236,188.7,236,189.1z"/>
		<path class="st0" d="M153,245.1c-1.6-1.8-0.7-4-0.9-6C153.8,240.8,152.8,243,153,245.1z"/>
		<path class="st0" d="M157,261c-1.1-0.7-1-1.9-1.1-3C160.4,257.5,156.3,260.2,157,261z"/>
		<path class="st0" d="M361.1,315.2l2-1.2c2.6-1.1,5.6-0.8,7.9,1l0,0c0.3,0.4,0.3,0.9,0,1.3c-6.2-0.2-10.6,2.8-13.2,8.3
			s-1.8,10.9,0.5,16.2c0.2,0.4,0.1,1,0.5,1.4c0.1-0.4,0.6-0.6,0-1.1c-0.5-0.5-0.8-1.1-0.9-1.7c-1.4-3.8-2.8-7.6-0.3-11.5
			c1.1,0.4,1.3,1.4,1.5,2.3c1.4,2,3.9,3.7,2.7,6.8c2,6.3,9.6,8.9,14.7,5.2c1.3-1,2.4-2.4,4.1-2.6c0.5,0,0.9,0.2,1.3,0.4
			c-1.1,5.4-5.2,8.5-10.5,8c-2.1-0.2-4.1-1-6.6-0.8c3.6,2.6,7.1,4.6,11.5,4.2c1.5,0.4,2.9,1.9,4.6,0.6c1.6-0.8,3.1-2.1,5.1-1.1
			c0.2,0.2,0.3,0.5,0.3,0.8s-0.1,0.5-0.1,0.5c-2.8,0.8-4.2,3.5-7.6,4.1c-10.8,1.9-16.4-5.3-21.7-12c-6.1-7.7-4.8-17.7,1.9-25.1
			C359.6,317.9,360.4,316.6,361.1,315.2z"/>
		<path class="st0" d="M395,350.1c0.6-2.1,1.2-4.1,1.9-6.2c2.9,4.2,0.8,8.9,1,13.4c0.1,1.1-0.5,2.2-0.5,3.4c-0.1,3,0.1,6-0.1,9
			c-0.1,1.7,0.3,3.9-2.3,4.3c0.3-5-0.1-10.1-1-15c-0.4-1.5,0.8-2.7,1.1-4L395,350.1z"/>
		<path class="st0" d="M332,302c1.3,1,1.7,3.1,3.8,3.2c0.8,2.2,1.5,4.5,2.3,6.7l-0.6,0.5c-0.5,0.1-1,0-1.5-0.2
			c-1.6-1.9-2.4-4.3-4-6.2C331.1,304.8,330.7,303.3,332,302z"/>
		<path class="st0" d="M395,374c2.5-2.6,0.6-5.8,1-8.7c0.1-1.8,0.1-3.5-0.1-5.3c1-0.1,1.9,0.6,2,1.5c0,0.1,0,0.1,0,0.2
			c0.5,3.6,0.6,7.3,0.2,10.9c-0.2,1.4-0.6,3.1-2.8,2.4l-0.3-0.1l-0.3,0.1C394.8,374.6,394.8,374.3,395,374z"/>
		<path class="st0" d="M386.2,352l-0.1-1.1c-0.5-0.7-0.1-1.2,0.3-1.7c1.4-1,2.4-2.6,4.3-2.5l0.3,0.3
			C390.2,349.4,391.1,353.6,386.2,352z"/>
		<path class="st0" d="M340.3,319.1l-1.5-0.2c-0.5-0.5-0.8-1.2-0.9-1.9c-0.1-1.6-1-3.2-0.2-4.8l0.4-0.4
			C340.7,313.7,342.2,315.9,340.3,319.1z"/>
		<path class="st0" d="M395.1,355"/>
		<path class="st0" d="M202,280.2l1.3-0.4l2.7,0.2c4.1,3.6,9.8,4.2,14.2,7.4c1.5,1,3,1.9,3.8,3.6c3,4.6,8.1,7,11.3,11.5
			c1.4,2,3.1,3.8,5.1,5.3l0.4-0.1l0.3,0.3c1.5,4-0.4,5.1-4,5c-2.8-1.6-3.7-4.8-6-6.9c-0.8-1.5-2.4-1.8-3.9-2.2l-1.1-2.8
			c-2.1-2-3.7-4.7-7-5.1c-1,0.1-1.9-0.6-2-1.6c0-0.1,0-0.3,0-0.4l-0.9-1.1c1.3-3.7-1-5.1-3.9-6.3c-2.4-1-4.8-2.1-7.1-3.2
			C203.7,282.8,201.9,282.4,202,280.2z"/>
		<path class="st0" d="M237,313c2.2-1,4.4-1.9,4-5c2.9,2.3,4.2,5.5,5,8.9c0.6,1.2,1.8,2.2,1.7,3.8c-1,1.4,0.6,4.4-2.8,4.3
			c-1.2-2.4-2.5-4.7-5-6c-1.3-1-2.7-2-3.1-3.8C236.9,314.5,237,313.8,237,313z"/>
		<path class="st0" d="M247,321l-1-4.1c1.3,1.5,3.1,2.7,3.8,4.4c2.8,7.3,3.4,15.2,5.3,22.7c0.4,1.1,0,2.4-1,3.1
			c-0.4,0.3-0.8,0.5-1.3,0.5c-0.5-0.1-0.9-0.3-1.2-0.6c-0.3-0.4-0.4-0.8-0.6-1.3c-0.1-0.9-0.1-1.8,0.1-2.6c0.5-1.1,0.5-2.4,0-3.5
			c-0.4-0.7-0.8-1.4-1.2-2.2c-0.4-0.7-0.6-1.6-0.6-2.4c0.1-0.8,0.2-1.6,0.1-2.5c-1.7-1.9-3.5-3.5-1.6-6.5
			C248.9,324.5,247.7,322.6,247,321z"/>
		<path class="st0" d="M252.1,347h1c2.3,3.5,0.2,7.3,1.1,10.9c1.5,4.4-1.3,7.6-3.1,11h-1c-2.1-3.9,0.4-7.4,1-11v-1
			c-0.9-1.5-0.5-3.1-0.8-4.7C250.7,350.5,250.5,348.4,252.1,347z"/>
		<path class="st0" d="M240.4,307.9c-1.3-0.1-2-1.1-2.9-1.8c-4-3.6-6.8-8.5-11.8-11.1c-1.5-0.8-1.9-2.2-1.8-3.8
			C230.3,295.8,236.2,301,240.4,307.9z"/>
		<path class="st0" d="M264,325c2.2-2.3,3.5-5.1,4.7-8c0.7-1.6,1.1-3.5,3.3-3.9c-2.5,6.1-4.9,12.3-9.9,16.9L264,325z"/>
		<path class="st0" d="M254.1,358c-1.7-3.5-0.5-7.3-1.1-10.9l1.1,0.1C255.3,350.7,254.7,354.3,254.1,358z"/>
		<path class="st0" d="M251,358c0.3,3.7-0.5,7.3-1,11c-1.6,2.2-3.8,4-4.2,6.9c-2.2,1.3-4.8,2.2-6.1,4.8c-1.3,3.6-5.3,3.4-7.7,5.5
			c-0.5,0.1-0.9,0-1.3-0.3c-0.4-0.6-0.3-1.5,0.2-2c1.3-1.3,3.8-1.4,3.7-4.1c0-0.8,0.7-1.4,1.5-1.3c0.1,0,0.2,0,0.3,0
			c4.3,2.1,4.8-2.8,7.3-4c0.9-0.4,1.3-1.4,0.9-2.3c-0.2-0.4-0.5-0.7-0.9-0.9c-3.4-2-1.2-3.9,0.3-5.2
			C246.9,363.8,248.6,360.6,251,358z"/>
		<path class="st0" d="M178.1,382.9c2.2-1.1,3.4-0.5,5.6,1.2c3.3,2.2,7.3,3.2,11.3,2.9c1.6,1.7,4.6,1,5.6,3.4c0.7,1.1,2.3,1.5,2.6,3
			c-4.7,2.8-9.5,0.9-12.9-1.5c-3.6-2.6-7.5-3-11.3-4.4c-0.6-0.8-1.5-1.4-1.8-2.4C177.2,384.3,177.5,383.5,178.1,382.9z"/>
		<path class="st0" d="M158.3,373.9c1.2-2.4-1.1-2.8-2.2-3.9c-0.7-1.6-1.4-3.3-2.1-4.9l14,9.9c1.8,2.8-1.6,4-1.8,6.1
			c-3.4,0.2-3-3.7-5.3-4.7C159.8,375.8,158.9,375,158.3,373.9z"/>
		<path class="st0" d="M231.1,388.1c-1.9,3.9-6,2.7-9,3.9c-1.3,0.4-2.7,0.1-3.8-0.6l-0.4-0.5c2.2-1.7,5.5-0.5,7.9-3.1L221,386
			c-0.9-0.7-2.3,0.2-3-1c2.1-2.4,5.4-2,8-3c2.8-1.1,2.5,1.2,2.8,2.7c0.3,0.4,0.7,0.7,1.2,0.8c0.3,0.1,0.7,0.2,0.9,0.5l0.1,0.1
			C231.5,386.6,231.6,387.5,231.1,388.1z"/>
		<path class="st0" d="M165.9,381.2c-1-2.7,2.6-3.9,2.1-6.4c4.1,1.7,6.3,5.8,10,8c0,0.7,0,1.4,0,2c-1.1,2.3-2.8,0.4-4.1,0.5
			c-2.3-0.7-4.6-1.7-6.7-3C166.5,382.4,165.9,382.1,165.9,381.2z"/>
		<path class="st0" d="M203.1,393c-1.4-0.1-3,0-3.1-2.1c-0.5-1.1,0.1-1.7,1.1-2c5.1-1.6,7.4-0.7,6.9,3c0.3,1.5-0.9,1.7-1.9,1.9
			C205,394,203.9,393.7,203.1,393z"/>
		<path class="st0" d="M251,337l1,2c0.2,0.2,0.3,0.5,0.3,0.8s-0.1,0.4-0.1,0.4c-1.7,2-1.1,4.5-1.2,6.8c0,0.7,0,1.3-0.1,2
			c-0.6,1.7,0.2,3.6-0.9,5.1l-1.9,1c-1-5.4,1.9-10.6,1-16C248.7,337.3,249.4,336.7,251,337z"/>
		<path class="st0" d="M195,384h17C206.4,385.6,200.6,385.6,195,384z"/>
		<path class="st0" d="M161.2,361l-0.2,1.1c-2.2-2.9-3.2-6.5-5.8-9.1c1.8-0.3,2.6,1.5,4,2L161.2,361z"/>
		<path class="st0" d="M201.1,388.9c-0.4,0.7-0.7,1.4-1.1,2c-1.1-0.8-1.6-2.3-3.6-1.8s-1.2-1.2-1.5-2.1
			C197.1,387.5,200,385.5,201.1,388.9z"/>
		<path class="st0" d="M211,392c0.4-0.9,0.3-3.7,1.4-2c2,3,3.8,0.3,5.4,0.9l0.1,0.1c-0.3,3.9-3.2,2.8-5.5,2.7
			C211.8,393.5,211.2,392.8,211,392z"/>
		<path class="st0" d="M228,386c-2-0.7,1.4-4-2-4c2.8-2.2,3.7,0.4,5,2c0,0.6,0,1.3-0.1,1.9c-0.3,0-0.7,0.1-1,0.1
			C229.3,385.9,228.6,385.9,228,386z"/>
		<path class="st0" d="M218,385c1.1,0,2.3-0.2,3,1c-1.1,0.8-1.8,2.9-3.4,2.2C216.4,387.5,216.9,385.9,218,385z"/>
		<path class="st0" d="M211,392l1,1c-2,3-4,2.3-6,0c0.8,0.1,1.6-0.3,2-1H211z"/>
		<path class="st0" d="M250,354c0.8-1.7-1.7-3.4,0.1-5c2.5,0.3,1.4,1.8,1,3c0,1.7,0,3.4,0,5C249.8,356.3,250.1,355.1,250,354z"/>
		<path class="st0" d="M185.1,378.9h2l1.1,1.8c0,0.4-0.1,0.8-0.1,1.2C186.5,381.5,185.8,380.2,185.1,378.9z"/>
		<path class="st0" d="M239.1,373.1c0.4,0.6,0.8,0.9,0.8,1.3s-0.4,0.6-0.6,0.9c-0.3-0.3-0.8-0.6-0.8-1S238.7,373.6,239.1,373.1z"/>
		<path class="st0" d="M312,341c-0.4,1-0.7,2-1.1,2.9c-1.4,0.4-1.5-0.7-1.9-1.6c-0.2-1.1-0.2-2.3,0-3.5c0.1-0.4,0.3-0.9,0.5-1.2
			c0.9-1.2,1.4-2.7,1.4-4.2c0.2-1.1,0.5-2.2,0.8-3.3c0.2-1.2,0.8-2.2,1.7-3c3.7-2,3.2-6.3,5.2-9.2c2.2-0.3,3.1-0.8,5.5-2.6
			c0.7-0.2,1.5,0,2.1,0.4c0.3,0.4,0.2,1-0.1,1.3l-3,2.9c-0.8,1.3-1.1,2.9-1.9,4.1l-1.8,3c-2.6,2.2-2.1,6.3-5.2,8.2
			c0,0.5,0,1.1,0,1.6C313,338,313.9,340.3,312,341z"/>
		<path class="st0" d="M326.1,317.2L326,316c0-2.1,1.6-2.3,3.2-2.6c2.1,0.2,4.1,0.7,5.4,2.7c0.8,3.2,0.9,6.5,0.4,9.7
			c-1,2.6-0.4,5.3-0.4,7.9c-0.3,1.3-1.6,2.1-2.9,1.8l0,0l-0.6-0.5c0.5-4.6,1.4-9.2,1.3-13.8C332.2,315.5,331.5,315.3,326.1,317.2z"
			/>
		<path class="st0" d="M331.1,348H330c-1.8-4.5-0.4-8.8,1-13.1c0,0.2,0.1,0.4,0.3,0.5C332.4,338,332.3,345.9,331.1,348z"/>
		<path class="st0" d="M314.1,335.3c2.2-2.5,1-7,5.2-8.2C318.3,330.3,318,333.9,314.1,335.3z"/>
		<path class="st0" d="M321.1,324.1c-0.2-1.6,0.6-3.2,1.9-4.1C323,321.7,322.8,323.2,321.1,324.1z"/>
		<path class="st0" d="M312,341c0.9-1.2,0.6-3.1,2.2-4c0.2,1.4-0.1,2.9-1.1,4.1L312,341z"/>
		<path class="st0" d="M206.1,393c1.7,1.5,4.3,1.5,6,0c2.2-0.2,4.6,0.5,6-2c1.4-0.1,2.9,0.2,4.1,1c-3.4,3.7-8.6,3.6-12.4,3.3
			c-6.3-0.5-13.1,1.5-18.9-2.2c-4.1-2.6-9.2-2.8-12.9-6.1c0.2-0.4,0.6-0.6,1-0.4c0.1,0,0.2,0.1,0.2,0.2c5.8-0.2,10.3,3.1,15,5.9
			c2.8,1.6,6.1,1.7,9,0.4L206.1,393z"/>
		<path class="st0" d="M231.1,388.1c0-0.7,0-1.4-0.1-2.1l8.7-5.3c0.1,0.3,0.1,0.6,0.2,0.9C238.2,385.4,233.8,385.6,231.1,388.1z"/>
		<path class="st0" d="M165.9,381.2l1.1,0.9c0.4,0.2,0.5,0.3,0.4,0.5s-0.2,0.3-0.4,0.3c-3.7-0.7-4.5-4-6-6.7
			C163.5,377.1,164.3,379.5,165.9,381.2z"/>
		<path class="st0" d="M167,383c0-0.3,0-0.5,0-0.8c2.7,0.1,4.5,2.1,6.9,2.9c0.4,0.1,0.6,0.3,0.5,0.6s-0.2,0.4-0.3,0.4
			C171.4,385.7,169.2,384.4,167,383z"/>
		<path class="st0" d="M160.1,383c-2,0-3.6-0.3-2-2.9C160.4,379.9,160.2,381.5,160.1,383z"/>
		<path class="st0" d="M174.1,385.9c0-0.3-0.1-0.6-0.1-0.9c1.4-0.1,2.7,1,4.1,0l1.2,1.8L178,387L174.1,385.9z"/>
		<path class="st0" d="M395.3,374.9c3-4.9,1.9-9.9,0.6-15l1-16c0.3-1-0.4-2.4,1-3l2-1c0.9,0.2,1.5,1,1.5,1.9
			c-0.1,5.4-0.6,10.9-1.5,16.2l0.1,0.1c-1.1,0.1-1,0.9-1.1,1.7c0.9,1.6-0.1,3.5,0.8,5.1c0.2,4.9,0.5,9.9-1.7,15
			C396.7,378.2,395,377.2,395.3,374.9z"/>
		<path class="st0" d="M390.7,346.8c-1.4,0.9-1.8,3-3.8,3.2c-1.1-3.2,0.3-6.3,1.4-8.9c1.9-4.6,0.1-7.9-2-11.5
			c-1-1.8-2.9-3.2-2.5-5.7c0.4-0.3,0.9-0.4,1.3-0.1c4.5,4,7.7,8.7,7.3,15C392.2,341.5,389.6,343.7,390.7,346.8z"/>
		<path class="st0" d="M385.1,323.9L384,324c-4.3-2.8-10.2-3-13.2-8l0.2-1c4.2,1.1,7.5,4.5,12.1,5c1.6,0.3,2.5,1.9,2.2,3.4
			C385.2,323.6,385.2,323.7,385.1,323.9z"/>
		<path class="st0" d="M371,315l-7.9-0.9C365.9,312.4,368.6,312.5,371,315z"/>
		<path class="st0" d="M448.8,362.8c-1.2,0.4-2,1.5-2,2.8c-1.3,1.5-2.5,2.9-3.8,4.4h-5c-0.9-1.2-2.5-1.8-3.3-3.2
			c2.3-3.4,6.3-4.9,8.8-8.1c1,0.8,1.9,0.7,2.4-0.6c0.9-0.7,1.8-1.8,2.9-1c1.4,1,0.8,2.5,0.2,3.9L448.8,362.8z"/>
		<path class="st0" d="M449,361c0.1-2.3,0.1-4.5-3-2c-0.4,0.3-0.9,0.3-1.2,0l-0.1-0.1c-1.2-1.8-0.9-4.2,0.6-5.7
			c0.4-0.3,0.8-0.4,1.3-0.4c1.2,0.4,2.2,0.6,2.1-1.3c0-1.5-1-3.2,0.3-4.6c1.4-0.3,2.9,0,4,1c1.2,5,1.3,4.9,6.2,10
			c1.8,1.8,4.2,3.3,3.7,6.5c-1.5,0.8-2.2-0.4-3.1-1.2c-0.7-0.9-1.4-1.8-2.1-2.6C454.2,356.4,452.1,356.5,449,361z"/>
		<path class="st0" d="M459.8,363l3.1,1c3.3,1.5,7.4,2,8.9,6.1L469,370C465.5,368.3,461.9,366.6,459.8,363z"/>
		<path class="st0" d="M458,333c0-1.1-0.2-2.3,1-3C460.6,331.6,460.1,332.6,458,333z"/>
		<path class="st0" d="M460.4,345.9c-1,0.2-0.4-0.6-0.4-0.9c0-0.5-0.2-1.3,0.9-1.3"/>
		<path class="st0" d="M466.2,349.2c-0.4,0.4-0.7,0.7-1.1,1c-0.5-0.3-1-0.8-1.4-1.3c-0.3-0.7,0.2-0.9,0.8-0.7
			C465.1,348.6,465.7,348.9,466.2,349.2z"/>
		<path class="st0" d="M290,318c-1.8,0.8-2.1,2.3-2,4c0.2,0.2,0.3,0.4,0.2,0.7c-0.1,0.2-0.1,0.3-0.2,0.3c-5.7,0.1-7.4,1.5-9.1,8.4
			c-0.3,1.3-0.3,1.7-1.6,2.3c-2.3,0.9-4.1,2.3-1.3,5c1.7,1.6-1.4,4,0.1,5.8c2.2-0.2,1.1-1.9,1.6-2.7s0.8-2.3,1.8-2.1
			c1.6,0.3,1,1.3,0.6,2.5c-0.4,1.6,3.6,3.8,5,2.9c0.5-0.5,1.2-0.5,1.7,0c1.2,1.1-0.1,1.7-0.7,2.3c-2.1,2.2-6.2,1.1-7.6,4.7
			c2.6,1.8,4.7,3.2,7.4-1c2.2-3.4,5.9-6,9.2-8.5c2-1.5,2.1-3.7,2.6-5.6c0.6-2.2,1.1-4.2,3.6-4.8c0.3,0.6,0.4,1.4,0.2,2.1
			c-1.4,3.2-2.3,6.5-1.7,10.1c0.7,3.2-0.6,6.4-3.4,8.1c-0.4,0.3-0.9,0.5-1.4,0.6c-2.6,0.6-5.1,1.5-7.6,2.3
			c-4.5,1.5-8.8,1.4-12.8-1.6c-4.7-3.7-6.3-10.5-4.2-17.6c0.5-1.8,1.3-3.5,2.3-5c0.4-0.6,0.9-1.1,1.5-1.6c1.7-1.5,3.3-3.3,4.5-5.2
			c3-3.6,6.4-6.7,11.3-7.5V318z"/>
		<path class="st0" d="M307,293c0-3-0.1-6-0.1-9c2.2,4.4,1,9.4,2.2,14l0.1,0.8c0.4,4.1,0.1,8.3,0.1,12.5c0.1,1.3-0.3,2.6-1.1,3.6
			c-0.4,0.3-1,0.3-1.4-0.1C306.5,307.5,306.5,300.2,307,293z"/>
		<path class="st0" d="M300.9,334l0.4-1.8c0.6,0,0.9-0.3,0.7-1c2.5-3.5,1.5-7.9,2.7-11.7c0.5-1.6,0-3.7,2-4.7l0.3,0.4
			c0.4,0.4,0.7,0.9,0.8,1.4c0,4.6-1.2,9-2.1,13.5c-0.4,1.9-1.1,3.8-3.4,4.4C301.9,334.5,301.3,334.4,300.9,334z"/>
		<path class="st0" d="M290,316.9c-4.2,2-7.5,5.1-10.8,8.2c-0.4,0.2-1,0.1-1.3-0.2c-0.1-4.9,3.9-5.4,7.1-6.9
			c2.1-1.2,3.5-3.5,6.2-3.9C290.8,315,290.4,315.9,290,316.9z"/>
		<path class="st0" d="M289,308.2l1.9,0.9c0.3,1.7,3.4,3.2,0.2,5L289,308.2z"/>
		<path class="st0" d="M287.9,364.9c-2.7,0.4-5.6,1.9-7.9-1c-1.4-1.4-0.7-4.6-3.9-4.4c-1.1,0.1-2.2,0.3-3.2-0.5l0,0
			c-0.8-1.8-2.1-3.3-3-5c0-0.7,0-1.4,0-2.1c1.6-1,2.7,0.2,4,0.8c4.3,4.9,9.6,3.2,14.7,1.8c2.5-0.7,4.9-1.6,7.2-2.7l-0.1,0.1
			c1.4-0.6,2.7-0.8,3.7,0.7c0.1,4.9-2.4,9.2-6.4,10.7c-1.4,0.2-2.9,0.5-4.2-0.2c-0.4-0.1-0.1-1-0.8-0.7c0.1,0.3,0.2,0.6,0.4,0.9
			C288.7,363.8,288.4,364.5,287.9,364.9z"/>
		<path class="st0" d="M274,353.2l-3.9-1.4c-0.1-1-0.1-1.9-0.2-2.9c-0.5-0.5-0.8-1.1-0.8-1.8c0.2-2.5-0.7-3.3-3-2.2l0,0
			c-1-1.2-1.1-2.8-1.9-4.1c0.1-1.4-0.5-2.8,0.9-3.9c-0.1-4.7,4.3-7.6,5-12l1-0.9c1,0.4,1.9,1.1,2.3,2.1c0.1,1.5,0.5,3.1-0.8,4.3
			l-0.4,0.1h0.5c0.5-0.2,1-0.1,1.3,0.4c-2.2,4-3.3,8.6-3.1,13.2c0.2,3.6,1,6.7,4.2,8.8C274.9,353.3,274.4,353.4,274,353.2z"/>
		<path class="st0" d="M285,318c-2,2.7-6.1,3.2-7,6.9l-0.3,0.6c-0.7,0.8-1.4,1.6-2.2,2.4c-0.4,0.3-0.8,0.4-1.3,0.3
			c-1-0.5-0.7-1.6-0.9-2.4c-0.6-1.5,0.1-2.7,1.1-3.8c0.7-0.9,0.5-2.2,1.2-3.1c1.3-1.3,3.2-1.6,4.7-2.6s2.6-2.6,4.5-2.8
			c0.5,0,0.9,0.2,1.2,0.6C285.9,315.4,282.9,316,285,318z"/>
		<path class="st0" d="M270,354c2.3,0.9,4,2.2,3,5c-4.9-1.6-6.9-5.8-9-10C266.6,349.8,268.7,351.6,270,354z"/>
		<path class="st0" d="M270,325c1.1,5.1-4.1,7.7-5,12C263.8,331.8,267.5,328.6,270,325z"/>
		<path class="st0" d="M281,317c-1.4,1.4-3.2,1.6-5,2c-2-3.5,1.6-3.6,3-5l1-1c0.6-0.6,1.5-0.7,2.1-0.2
			C283.3,314.6,281.7,315.7,281,317z"/>
		<path class="st0" d="M279,314c-0.8,1.8-3.7,2.3-3,5c0,1.1,0.2,2.3-1,3c-0.4-0.2-0.7-0.5-0.9-0.9C273.8,317.3,274.7,314.5,279,314z
			"/>
		<path class="st0" d="M282,313h-2c1.2-2.3,2.8-3.8,5.5-2.6c1.6,0.7,2,2.1,0.5,3.6h-1C284.3,312.8,282.9,313.7,282,313z"/>
		<path class="st0" d="M266,344.9c1.4-0.7,0.6-3,2.7-3.4c2,1.4,0.9,3.6,1.1,5.4c-1,0.5-1-1.1-1.8-1C267.2,346,266.4,345.6,266,344.9
			z"/>
		<path class="st0" d="M274.1,321l0.9,0.9c-0.7,1.2-1.1,2.6-1,3.9c-0.3,0.5-0.6,0.6-0.9,0.1c-1,0.1-1.9-0.6-2-1.6c0-0.1,0-0.2,0-0.3
			C271.4,322.4,273.2,322.1,274.1,321z"/>
		<path class="st0" d="M268,346c0.3-0.3-0.2-2,1-0.6c0.3,0.5,0.6,1,0.9,1.6c0,0.7,0,1.3,0.1,2C265.3,350.5,268.6,347,268,346z"/>
		<path class="st0" d="M264.1,340.9c2.5,0.5,1.8,2.5,1.9,4.1C264.4,344.1,262.7,343.2,264.1,340.9z"/>
		<path class="st0" d="M313.8,285.2l0.3,12.9c-1.7,2.2,0.6,7-4.4,7.1c-2-2.2-0.8-4.7-0.7-7.1l0,0c0.9-0.1,1.5-0.4,1.3-1.6
			c-0.6-4,0.4-7.7,1-11.6c0.7-4.5,2.5-9-0.2-13.6s0.6-8.4,3-12.1c1,3-3.2,6-0.1,9.1C314.9,273.8,313.4,279.5,313.8,285.2z"/>
		<path class="st0" d="M421.1,348c0.7-2.7,3.6-4.2,3.8-7.1c2-5.4,5.8-9.3,10.1-12.9c3.2-0.5,4.3-4.3,7.5-4.8
			c0.5,0.1,0.9,0.2,1.3,0.5c0.3,0.4,0.4,0.8,0.4,1.3c-1.6,3.2-4.5,5.1-7.5,7c-2.5,2-3.4,5-5.2,7.5c-1,2.7-3,4.9-4.2,7.5
			c-0.6,1-1.2,1.9-2,2.6c-1,0.9-1.4,2.3-1,3.6c0.1,0.4,0.2,0.9,0.2,1.3c0,0.7-0.1,1.4-0.4,2c-0.8,1.1-1.5,2.6-3.3,1.4l-0.1-1.9
			C421,353.4,421,350.7,421.1,348z"/>
		<path class="st0" d="M434.1,319.2l-0.9,0.9c-1.9,0.5-2.7-1-3.6-2.2c-0.5-2.7,0.5-4.4,3.4-4.8c1.5,0.2,2.9,1.2,4.5,0.3
			c0.4-0.2,0.8-0.3,1.3-0.4c2.1,0.8,6.6-1.7,5.4,3.8c-0.4,0.2-0.8,0.4-1.2,0.4c-1.6-0.4-3.3-0.2-4.8,0.4
			C436.7,318.3,435.1,317.9,434.1,319.2z"/>
		<path class="st0" d="M430.1,324.3c-0.5,2.4-3.8,2.2-4.3,4.7c-0.5,1-1,1.9-2.2,0.8c-0.7-1.9,0.2-3.5,0.7-5.2
			c1.3-2.4,1.8-6.1,6.1-4.2C430.7,321.6,430.6,323,430.1,324.3z"/>
		<path class="st0" d="M434.1,319.2c0.6-1.8,2.4-1.8,3.9-2.3c1.6-0.8,3.4-0.7,4.9,0.1l0.1-0.1c1.3,1.3,1.5,3.3,0.4,4.8
			c-0.4,0.4-1.1,0.5-1.5,0.1l0,0C441,315.7,436.7,320,434.1,319.2z"/>
		<path class="st0" d="M441.8,321.9h1.1c0.6,0.5,0.7,1.5,0.1,2.1l0,0c-3.3,0-4.2,4.7-7.9,4L441.8,321.9z"/>
		<path class="st0" d="M430.1,324.3l-0.2-4.4c-0.5-0.4-1.1-0.7-1-1.4c0.1-0.5,0.5-0.7,1-0.5c1.6-0.1,2.1,1.6,3.3,2.2L430.1,324.3z"
			/>
		<path class="st0" d="M424.1,330.1l1.7-1.2c0.4,2.5-1,3.8-2.9,4.9l-0.2-1.1c-0.2-0.3-0.4-0.7-0.4-1.1c0.1-0.4,0.3-0.8,0.5-1.1
			C423.2,330.3,423.7,330.1,424.1,330.1z"/>
		<path class="st0" d="M293,363c3.4-2.5,4.6-6.3,6-10c0.5-1.4,2.4-2.1,2-4c-0.2-2.1,0.4-4.3,1.7-6c0.7-0.3,1.6,0,1.9,0.8
			c0.1,0.2,0.1,0.4,0.1,0.7c0.1,3.2,1.7,5.9,3,8.7c0,0.3,0,0.6,0,0.9c-0.5,2.3-0.5,4.8,0.1,7.1c-0.2,1.3,1.9,2.6,0.2,4
			c-0.8,0.4-1.9,0.4-2.2-0.3c-1.6-3.4-4.2-2.3-6.8-1.7c-2,0.3-3.9,1.3-6,0.8c-0.4-0.2-0.5-0.3-0.4-0.5S292.9,363,293,363z"/>
		<path class="st0" d="M307.8,353c-6.2-1.2-2.3-7.1-4.7-10.1c-0.8-3-1-5.7,2.5-7.2c1.9,1,1.9,2.8,1.5,4.3c-1.1,4,1.9,1.3,2.9,2
			c-0.1,0.8,0.3,1.6,1,2C309.6,346.9,308.2,349.8,307.8,353z"/>
		<path class="st0" d="M299,363c2.8-2,5.7-5.4,7.4,1c0.1,0.4,1.1,0.7,1.7,1c-0.4,0.8-1.3,1.8-1.7,1.3C304.4,364,301.2,364.5,299,363
			z"/>
		<path class="st0" d="M276,358c3.8,0.3,4.9,2.4,4,5.9c-2,0.1-2.3-1.6-3-2.8C276,360.2,274.8,359.5,276,358z"/>
		<path class="st0" d="M276,358l1,3.1c-1.7,0.1-3.3-0.2-4-2.1L276,358z"/>
		<path class="st0" d="M307.9,361c-1.3-2.2-1.3-4.9-0.1-7.1L307.9,361z"/>
		<path class="st0" d="M293,363v0.8l-5.1,1.1c0-0.6,0-1.3,0.1-1.9c-0.4-1.1,0.1-1.2,1-1C290.1,363.4,291.6,362.8,293,363z"/>
		<path class="st0" d="M403.2,324.1c1.2,4.9-0.3,9.8,0.5,14.7c0.2,1-0.4,2-1.5,2.3l-0.6-0.6c-0.8-5.4-1.3-10.8,0.1-16.2
			C402,323.9,402.7,323.8,403.2,324.1L403.2,324.1z"/>
		<path class="st0" d="M403.9,306.8c0.1,4.3,0.2,8.6,0.2,12.8c0,1.5,0.9,3.3-0.9,4.5l-0.4-0.3c-2-4.9-1.4-10.1-1.6-15.1
			c-0.1-1.4,0.8-2.7,2.2-3C404,305.8,404.2,306.1,403.9,306.8z"/>
		<path class="st0" d="M400,358c-0.8-5.8,1-11.4,1-17.1l0.3-0.3l0.4,0.2c0.1,0.1,0.3,0.2,0.5,0.3l-0.4,11.7
			C400.7,354.4,402,356.8,400,358z"/>
		<path class="st0" d="M403.9,306.8c0-0.3-0.1-0.6-0.1-0.9c-1.1-5.4-2.2-10.9,1.1-16l0.5,0.4C405,295.8,405.9,301.4,403.9,306.8z"/>
		<path class="st0" d="M342.1,368.9L341,369c-3.6-2-5.7-5.2-7.2-8.9h2.1c0.8,0.7,1,1.8,1.9,2.5c1.1,1.6,2.4,2.9,4,4
			C342.4,367.3,342.8,368,342.1,368.9z"/>
		<path class="st0" d="M509.9,300h1.1l-0.1,0.1c0.5,3.3,1.5,6.8-3.1,8.1c-6-0.7-12-1-17.8,0.9c-0.3-0.4-0.3-0.9-0.2-1.4
			c3.2-3.1,7.1-3.9,11.4-4c1.9,0,4,0.9,5.6-1C507.6,301.5,508.4,300.3,509.9,300z"/>
		<path class="st0" d="M507.8,308.1c3.5-1.8,2.6-5.2,3.1-8.1c2.4,2.8,0.5,5.4-0.3,8C510.1,309.6,508.8,308.9,507.8,308.1z"/>
		<path class="st0" d="M490,308c0,0.3,0,0.7,0,1l-2.1,2.9l-2.9,1.2C485,309.7,486.7,308.1,490,308z"/>
		<path class="st0" d="M410.9,228.1c0.5,3.6,2.3,7.4-1.8,10.2c-1.1-1.2-0.4-2.7-0.4-4c-0.2-1,1-2.4-0.8-3c-2.5,1.6,0.2,5.9-3.5,6.9
			l-0.6-0.4c0-0.3-0.1-0.6-0.1-0.9c1-3.2-0.5-6.8,1.2-10C407.7,223.3,409,227.1,410.9,228.1z"/>
		<path class="st0" d="M410.9,228.1c-2.1,0.6-3.4-3.6-5.9-1.1c-0.3-1.2,0.5-2.1,1-3C409.5,223.1,409.8,226.1,410.9,228.1z"/>
		<path class="st0" d="M202,280.2l17.3,9c0.4,2-4.6,0.7-2.3,3.8c-0.9,0.8-1.9,0.5-2.9,0.3c-2.9-3.1-6.7-3.7-10.6-4
			c-3.4-0.3-6.8-0.6-10.2-1.2c-0.5-0.1-1-0.2-1.4-0.4c-2-1.5-5-0.7-6.8-2.7l-2-1c-1.3-1.6-3.2-1.6-5-2c-4.1-0.1-7.2-2.3-10-5
			c-0.3-1,0.1-1.3,1-1c4.2,1.5,2.7-2.7,4-4c6.7,4.2,14.9,3.9,21.7,7.9C196.6,281,199.6,280.2,202,280.2z"/>
		<path class="st0" d="M185,285c2.3,0.9,4.9,0.4,7,2c-1.1,0.9-2.2,0.6-3.3,0.2c-1.3-0.1-2.8,0.3-3.8-0.9L185,285z"/>
		<path class="st0" d="M178.1,282c2.2-0.8,4.2-1,5,2C181.3,283.6,179.4,283.3,178.1,282z"/>
		<path class="st0" d="M169,276l-1,1c-0.8,0.1-1.6-0.3-2-1C167.1,275.3,168,273.4,169,276z"/>
		<path class="st0" d="M188.8,287.1l3.3-0.2c0.3,0,0.6,0,0.9,0c2.7,1.6,5.6,1.3,8.5,1.5c3.8,0.1,7.4,1.4,10.4,3.7
			c0.3,0.4,0.5,1,0.4,1.5l-0.5,0.5c-1.8,0.3-3-1-4.5-1.4c-3-2.7-6.6-1.9-10.1-2l-4-1C192.1,288.3,189.6,289,188.8,287.1z"/>
		<path class="st0" d="M348.9,366c0-0.4,0-0.7,0.1-1.1c3,1.1,4.7,2.9,3.2,6.2l-0.7-0.1C349.8,369.9,348.4,368.4,348.9,366z"/>
		<path class="st0" d="M351.1,373c-1.7-0.4-3.5-0.8-5.2-1.3c-0.1,0-0.2-0.3-0.1-0.4s0.2-0.2,0.3-0.4c1.8-1.7,3.6-1.1,5.5-0.3
			l0.6,0.5C351.9,371.8,351.5,372.4,351.1,373z"/>
		<path class="st0" d="M401.7,289.8c-0.1-10.5,1.3-21,1.5-31.5c0.1-6.7-1.5-13.7,0.7-20.4c0,0.2,0.1,0.3,0.2,0.4
			c2,5.5,2.5,11.5,1.4,17.3c-1.1,3.6-0.3,7.1,0.3,10.6c0.4,2.1,0.3,4.3-0.4,6.3c-0.9,2.5-0.3,5-0.6,7.5c-0.5,2.4-0.8,4.7-0.9,7.1
			c-0.1,1.3-0.1,2.6-1.8,2.9C402,290,401.8,289.9,401.7,289.8z"/>
		<path class="st0" d="M471.9,370c-2.7-2.4-6.7-3-8.9-6.1c-2.6-3.3-4.9-6.7-8.9-8.6c-3.7-1.7-0.6-4.9-1.1-7.3l0.6-0.2
			c1.8,1,0.6,3.6,2.2,4.2c-1.4-1.8-1.4-4.3,0.1-6.1c0.4-0.3,0.9-0.3,1.3,0c0.9,2.3,1.9,4.7,2.9,7c1.9,5.7,6.3,10.1,12,11.9
			c0.8,0.8,1.9,1.2,3,1c0.3,0,0.7,0,1,0.1c1.5,1.2,3.5-0.2,5,1c1.8,0.3,3.7,0.5,4.1,3c-1.6,4.9-5.3,1.9-8.2,2.2
			C475,372.1,473.2,371.3,471.9,370z"/>
		<path class="st0" d="M476.9,372.1c2.7-1,6.1,1.1,8.2-2.2c1,3.5-1.7,3.6-3.7,3.5C479.9,373.4,478.1,373.4,476.9,372.1z"/>
		<path class="st0" d="M481,367c-1.7-0.2-3.6,0.6-5-1C477.7,366.1,479.5,365.5,481,367z"/>
		<path class="st0" d="M475,365.9c-1.8,1.9-2.3,0.2-3-1L475,365.9z"/>
		<path class="st0" d="M333.9,325.9l0.1-9.9c-0.7-1.5-2.3-1.9-3.5-2.8c-1.4-1.7-2.6-3.6-3.5-5.6c-0.6-1-1-2.6-2.4-0.7
			c-0.3,0.5-0.7,1-1.1,1.4s-0.9,0.8-1.4,1.2c-0.8,0.6-1.5,1.3-2.1,2.1c-0.6,0.7-1.5,0.9-2.3,0.5c-1-1.3-0.8-2.9-1.2-4.3
			c-0.1-0.4-0.1-0.9,0-1.4c0.3-1.1,1-2.1,2.1-2.7c0.4-0.3,0.8-0.6,1.1-0.9c3.9-3.2,8-3.3,12.2-0.8l0,0c-0.2,4.2,4.8,6,4.9,10.1
			c1.2,1.4,0.2,3.8,2,4.9c-0.1,0.6-0.1,1.3-0.2,1.9c0.6,4.1-0.5,8-0.9,12c-1.4,0.2-2.8,0.6-4.2-0.1
			C333.3,329.2,333.3,327.5,333.9,325.9z"/>
		<path class="st0" d="M331.1,348c0-4.2,0.1-8.4,0.2-12.5l2.7-1.5c0.6-0.4,1.1-0.1,1.5,0.4s0.6,1.1,0.6,1.7l-0.2,5.1
			c-0.4,1.6-0.4,3.3,0,4.9c0,2.4,0,4.7,0,7.1c-0.7,2.5-1.6,3.8-3.7,1C332,351.9,332.1,349.8,331.1,348z"/>
		<path class="st0" d="M332.1,354c1.7,1.3,2.7,0.4,3.7-1c0,8.7,7.2,10.2,13.2,13l2.7,4.6l-5.5,0.3c-0.5-2.3-2.9-0.9-4-2l-0.9-2.1
			c-1.5-1.2-2.3-3-4.1-3.8c-1.1-0.7-0.9-1.9-1.1-2.9C335.2,357.7,332,356.8,332.1,354z"/>
		<path class="st0" d="M336,336l-0.9-1c0.6-1.1,0.4-2.7,1.8-3.3c0.4-0.1,0.9,0,1.1,0.3C337.9,333.6,338.7,335.7,336,336z"/>
		<path class="st0" d="M338,332c-0.3,0-0.7,0-1,0c-1.1,0.5-1.6-0.1-2-1c0.9-3.9,2-0.2,3-0.1C338,331.3,338,331.6,338,332z"/>
		<path class="st0" d="M335.8,346c-1.1-1.5-1.1-3.5,0-4.9C335.7,342.7,335.7,344.3,335.8,346z"/>
		<path class="st0" d="M276,161c0.1,1.4-0.3,2.8-1,4c-2.7,1.4-1.7-0.3-2-1.9C272.1,159.2,275.1,161.9,276,161z"/>
		<path class="st0" d="M481.9,303.9l1.2-1.9c6.9-1.4,13.9-2.2,21-2.5c1.9-0.1,4-0.3,2.6,2.8c-1,0.6-2.1,1-3.2,1
			c-2.3,0.1-4.6-0.2-6.9,0.3c-0.5,0.1-0.9,0.2-1.4,0.2c-4.4-0.4-8.5-0.4-11,4.2c-0.2,0.4-0.4,0.8-0.6,1.2c-1.1,1.6-0.4,3.5-1,5.1
			c-1.2,1.4-2,3.1-2.4,4.9c-0.4,3.3-0.4,6.6-0.2,9.9c0.1,0.4,0.2,0.9,0.3,1.4c-0.3,0.6-0.6,1.2-1,1.7c-0.8,1.9-0.1,3.9-0.6,5.9
			c-0.2,0.4-0.4,0.8-0.7,1.1c-1.8,1.4-2.2,4.7-5.5,4.2c-0.5-0.1-0.9-0.4-1-0.8c0-0.5-0.1-1-0.1-1.4c-1.5-4.1,2.4-6.8,2.6-10.5
			c0.9-2.9,0.5-5.9,0.5-8.9c-0.4-3.3,0.3-6.6,2.1-9.3C478.1,309.5,480.3,306.8,481.9,303.9z"/>
		<path class="st0" d="M481.9,303.9c0.7,4-3.4,5.8-4,9.2c-1.3,0.6-2.4,1.6-4,1.2c-0.5-0.7-0.9-1.5-1.2-2.3c-0.5,2.5-0.4,4.6-0.8,6.7
			c-0.2,1.1,0,2.9-2.1,2.3c-0.6-2.3-0.6-4.7,0.1-7c0-0.8,0-1.6,0-2.5c0.1-5.4,1.5-6.2,6-3.5l-0.1,0.1c3.9,1.5,3.3-3,5.3-4
			C481.4,304.1,481.6,304,481.9,303.9z"/>
		<path class="st0" d="M505.9,302c-0.3-4.5-3.5-1.8-5-1.7c-5.9,0.3-11.8,1.1-17.7,1.7c-0.1-0.3-0.1-0.6,0-0.9
			c7.2-1,14.4-2.2,21.8-2.3c1.7,0,3.7-0.6,5,1.2c-0.6,1-1.3,2-1.9,3C506.8,303.7,506,303.6,505.9,302z"/>
		<path class="st0" d="M481.1,304.1c-0.4,2-1.4,3.7-2.9,5.1c-1.3,1.2-2.4,1.2-2.4-1C478.8,308.5,478.6,304.4,481.1,304.1z"/>
		<path class="st0" d="M402.1,290.1c2.2-3.1-0.4-7.1,1.8-10.2c2.3,2-0.4,4.8,1,7c0,1-0.1,1.9-0.2,2.9c-2,5.2-0.2,10.7-1.1,16
			c-3.1,2-1.6,5.2-1.3,7.6c0.4,3.4,0.5,6.9,0.3,10.4c-2,5.5-0.1,11.4-1.1,17c-0.2,0.1-0.5,0.1-0.7,0.1l-1-1
			c0.1-10.9,0.1-21.9,0.2-32.8C402.4,301.6,401.7,295.8,402.1,290.1z"/>
		<path class="st0" d="M405,256c0.7-5.9-1.6-11.7-0.9-17.7c1.9-2.3,1.3-5.2,1.9-7.8c0.2-0.8-0.2-2.3,1.4-1.7
			c0.4,0.1,0.4,1.4,0.6,2.2c1.1,0.7,0.9,2.3,2,3c-0.3,1.4-0.5,2.9-0.8,4.3c-0.1,0.9-0.1,1.8-0.2,2.7c-2.2,3.9-1.2,8.2-1.6,12.3
			c-0.1,1.3,0,2.2-1.3,2.7l-0.5,0.4L405,256z"/>
		<path class="st0" d="M405,273c0-4,0.2-7.9-0.8-11.8c-0.4-1.6-0.8-3.6,0.8-5.1l0,0c1.2,1.5,0,3.4,0.8,4.9
			c1.8,8.1,0.2,16.1-0.9,24.1C404.2,281.1,404.2,277,405,273z"/>
		<path class="st0" d="M405,273v12c0,0.7,0,1.3,0,2c-1.9-2.1-0.6-4.7-1-7C404.4,277.6,403,275.1,405,273z"/>
		<path class="st0" d="M405.9,261c-1.5-1.4-0.7-3.2-0.8-4.9c0.3,0,0.6,0,1,0C406.4,257.7,406.4,259.4,405.9,261z"/>
		<path class="st0" d="M472,341.7c0.1,0.3,0.1,0.6,0.1,0.9c1.6,1.3,2.3,6.1,5.6,1.5c0.4-0.3,0.9-0.3,1.2-0.1
			c0.5,2.7-1.1,5.1-1.3,7.8c-2.2,0.9-3.3-0.8-4.6-1.9c-0.4-0.6-0.7-1.2-1.1-1.9c-0.3-2-0.6-4-0.9-6
			C471.4,341.5,471.7,341.5,472,341.7z"/>
		<path class="st0" d="M469.9,313.9c0.5,2.4-0.8,4.9,1,7.1c1.2,1,1.3,2.4,1.4,3.8c0,1.9,0.1,3.8,0.4,5.7c-0.2,3.6-0.8,7.2-1.8,10.6
			c-0.7-8.6-1.4-17.2-2-25.9C468.8,314.9,469.6,314.4,469.9,313.9z"/>
		<path class="st0" d="M470.9,341.2c0.7-3.7-0.8-7.6,1.1-11.2c0.3-0.3,0.7-0.4,1.1-0.3c0.8,0.2,1.5,0.7,1.9,1.4
			c0.5,4-4.1,6.6-3,10.7c-0.3,0-0.6,0.1-0.9,0.2C470.9,341.8,470.7,341.5,470.9,341.2C470.8,341.3,470.8,341.2,470.9,341.2z"/>
		<path class="st0" d="M399.8,364.9c-1.4-1.5-0.7-3.4-0.8-5.1C400.3,361.4,399.7,363.2,399.8,364.9z"/>
		<path class="st0" d="M457.1,345.9l-1.2,0.1c-0.2-0.2-0.4-0.4-0.5-0.6c-1.1-2.1-0.5-4.6-1.4-6.8c-0.4-2-0.5-4.1-0.3-6.1
			c0.8-4.2,1.1-8.2-2.2-11.6c-2.5-2.2-5.6-3.8-5.5-7.8l1-0.2c2.8,1.8,4.3,5.1,7.8,6.1c3.3,6.5,1.4,13.6,2,20.4
			C457,341.6,457,343.8,457.1,345.9z"/>
		<path class="st0" d="M219,296c4.5-1.3,5.7,2,7,5.1C223.1,300.1,221.1,298,219,296z"/>
		<path class="st0" d="M227.1,304c2.1-0.7,3.4,0,3.9,2.2C229.5,305.7,228,305.4,227.1,304z"/>
		<path class="st0" d="M212.3,293.7c-0.1-0.2-0.3-0.5-0.3-0.7c0.6-0.5,1.4-0.5,2,0h3c0,0.4,0,0.7,0,1.1L212.3,293.7z"/>
		<path class="st0" d="M442,307.9l3.1,3c-1.4,1.3-2.9,0.5-4.3,0.2c-5.3-1.8-9.3,0.3-12.6,4.4c-1.4,2-2.8,4.1-4,6.2
			c-0.8,1.3-1.4,3.3-3.6,2.1l1.6-4.7c1.7-2.6,4.3-4.7,5-8C431.5,308,436.8,306.9,442,307.9z"/>
		<path class="st0" d="M505.9,302l2.1,1c-0.2,1.7-0.8,2.6-2.9,2.2c-5.4-1.1-10.4,0.3-15.1,2.8c-2.1,1.2-3.8,2.9-5,5.1
			c-0.1,0.2-0.1,0.5-0.2,0.7c-3,2.1-3.6,5-3.8,8.5c-0.2,3.3,1.5,6.9-1,9.9c-0.4-0.3-0.5-0.9-0.2-1.3l0.1-0.1c0-0.3-0.1-0.5-0.1-0.8
			c-0.6-3.6-0.6-7.3,0-10.9c-0.1-2,1.1-3.5,2.2-5c1.6-1.4-0.5-3.6,0.9-5c0-0.3,0.1-0.6,0.1-1c3.6-2.6,7.1-5.4,12-5h1
			c2.2-1.2,4.8,0.3,7.1-0.9L505.9,302z"/>
		<path class="st0" d="M479.9,330.7c0,0.5,0.1,1,0.1,1.4c-0.5,3.9,0.5,8-1,11.8c-0.3,0-0.7,0-1,0l-0.6-0.6c-0.9-1.4-0.6-3.3,0.6-4.4
			l0,0c1.2-2.2-0.2-4.7,0.9-7L479.9,330.7z"/>
		<path class="st0" d="M247,321c2.4,1.9,4.3,3.9,1.6,6.9c-1,1.1-1.3,1.9,0.7,2.1s1.7,1.7,1.6,3c-1,0.4-1.8-0.2-2.8-0.2L247,333h-1
			l0,0c-0.8-1.3-1.6-2.6-1.2-4.2v-1.5c0-0.8,0.1-1.5,0.1-2.2C247.3,324.4,246,322.1,247,321z"/>
		<path class="st0" d="M247,333v-1c2.3-0.3,2.1,1.8,2.9,3l1.1,2c-0.9,0.4-1.6,1.1-2,2C247.7,337.2,247,335.2,247,333z"/>
		<path class="st0" d="M423.9,356v-2c0.4-0.3,0.9-0.3,1.3,0c0.3,0.4,0.5,0.8,0.7,1.2c-0.2,2.5,2.2,4.5,1.6,7.1
			c-0.2,0.5-1.5,1.3,0.4,1.4c1.6,0.1,3.4-0.1,4.4,1.6c0.1,1.5,1,3.1-0.4,4.5c-2.2-0.6-3.6-3-6.2-2.8c-0.8,0-1.6,0.1-1.9-0.9
			c0.5-2.9-3-3.9-3-6.5c-0.2-0.2-0.1-0.6,0.1-0.7C423.4,359.5,423.4,357.5,423.9,356z"/>
		<path class="st0" d="M431.9,369.9c0.5-1.3-1.7-2.7,0.1-3.9c1.3-0.7,2.2,0.1,3,1c2.2-0.2,3.2,0.8,3,3L431.9,369.9z"/>
		<path class="st0" d="M310,305c2.7-1.5,1.6-5.3,4.1-7c-0.8,4,1.1,5.3,4.8,4.8c0.3,0.2,0.5,0.5,0.4,0.8s-0.2,0.4-0.3,0.4l0,0
			c-0.9,0.9-3,0.9-2,3l0,0c1.3,1.7-0.5,4.2,1.4,5.8c0.9,1.6,1.2,3.5,0.7,5.3c-0.8,3.8-0.4,8.1-5.1,9.9c-0.5-0.5-0.7-1.3-0.6-2
			c0.1-0.8,0.3-1.6,0.8-2.3c2.2-3.2,0.9-5.1-2.2-6.5c-0.3-0.9,0-2-1.4-2.3c-1.9-0.4-2.1-1.8-2-3.4C309.2,309.4,308.4,306.9,310,305z
			"/>
		<path class="st0" d="M319,304c0-0.4,0-0.8-0.1-1.1c0.1-0.3,0.1-0.5,0.1-0.8l6-2.9c2,1.6,5.9-1.1,6.9,2.9
			C327.3,300.3,322.9,300.5,319,304z"/>
		<path class="st0" d="M257.1,215.1L253,214c-0.3-0.2-0.4-0.4-0.3-0.7c0.1-0.2,0.2-0.3,0.3-0.3c2-0.3,3.9,0.6,5.8,1L257.1,215.1z"/>
		<path class="st0" d="M423.9,356c0.2,2.2,0.1,4.1-3,3l0.1-1C422.6,358.1,422.9,356.6,423.9,356z"/>
		<path class="st0" d="M420.5,323.8c3.6-1.8,4.1-6,6.4-8.9c3.9-4.9,8.6-6.8,14.1-5c0.4,2.4-2.1,2.6-3,4l0,0c-1.2,0.8-2.8,0.8-4,0
			c-2.9-0.3-3.6,1.7-4,3.9c-1.1,0.6-0.1,1.3,0,1.9c-3.1,0.3-3.4,3.3-4.9,5.1s-1.2,4.1-2,6l0,0c-1.4,1.3-2.8,1.7-4.2,0
			c-2-2.2,0.9-3.5,0.9-5.4L420.5,323.8z"/>
		<path class="st0" d="M418.8,331.1c1.4,0.8,2.8,0,4.2,0l-0.3,1.7C421.1,333,419.4,333.4,418.8,331.1z"/>
		<path class="st0" d="M244.9,328.7c0.8,1.3,1.2,2.7,1.2,4.2C244.8,331.8,243.1,330.7,244.9,328.7z"/>
		<path class="st0" d="M438,314c-0.2-2.2,2-2.7,3-4l4.2,0.9c0.3,0.8,0.6,1.5,0.8,2.2c1.8,2.5,3.3,5.1,6,6.8
			c-0.5,0.5-1.1,0.9-1.8,0.9c-0.5,0-0.9,0-1.4,0c-1.9-0.5-3,0.2-3.3,2.1c-0.2,0.6-0.6,1.2-1.4,1H443c0-0.7-0.1-1.4-0.1-2.1
			c0-1.6,0-3.2,0.1-4.9c1-0.9,1.6-1.8-0.1-2.3C441.2,314.3,439.6,314.1,438,314z"/>
		<path class="st0" d="M253,213v1c-0.3,0-0.6,0-0.9,0c-0.9,0.4-1.8,0.7-2.8,0.9c-1.6,0.1-3.3-0.4-4.5-1.6c-0.4-0.4,0.2-1.7,1-2
			c1.7-0.6,3.7-2.1,5.1,0.5C251.4,212.5,252.1,213,253,213z"/>
		<path class="st0" d="M234.1,204.5c2.4,0.6,4.4,1.3,4.4,3.5c0,1.1-2.2,2.9-3.1,0.9C234.5,207.6,234.1,206.1,234.1,204.5z"/>
		<path class="st0" d="M216.4,187.6c-0.6-2.6,0.2-3.6,1.9-3.9c0.6-0.1,1.2,0.2,1.3,0.9c0,0.1,0,0.1,0,0.2
			C219.4,186.5,217.3,186,216.4,187.6z"/>
		<path class="st0" d="M249,202v2c0.1,0.8-0.3,1.6-1,2c-0.5,0.6-1.3,0.6-1.9,0.1L246,206v-2C247.6,204.2,248,202.6,249,202z"/>
		<path class="st0" d="M241.6,212.1l2.5-4.1C244.6,210.5,244.1,211.6,241.6,212.1z"/>
		<path class="st0" d="M246,206h2c-0.8,1.5-1.8,2.6-3.4,0.9c-0.2-0.2,0-0.8,0-1.2L246,206z"/>
		<path class="st0" d="M203.6,205.5c0.5,1.7-0.1,3.8-2,3.2s-1-3.2-1.2-5c-0.1-0.9-0.6-2.4,0.7-2.3
			C203.2,201.7,204.1,203.2,203.6,205.5z"/>
		<path class="st0" d="M235,199c-0.2-1.1-0.4-2.2-0.7-3.7c2.3,0.4,3.8,1.4,3.5,3.5S236,199.2,235,199z"/>
		<path class="st0" d="M370.8,316c3.8,1.9,7,4.8,11.4,5.3c1.2,0.2,1.6,1.5,1.8,2.7c2.1,3.3,4.1,6.5,6.2,9.8c0.8,1.2,1.2,2.7,0.6,3.7
			c-2.4,3.8-1.4,8.7-3.8,12.4l-0.9,1c-2,0-3.4,1.3-5.1,2c-1,0.7-1.8,0.5-2.3-0.6c0-1.3,1-2.1,1.6-3.1c2.4-2.7,4.6-5.5,2.3-9.4
			c0.2-3.2-0.5-6.4-2.1-9.3c-1.7-3.3-5.4-2.1-7.2-4.4c0-1.9-1.3-3.5-3.2-3.8c-3.9-2.3-6.5-1.6-9.2,2.2c-0.4,1-1.1,1.9-1.9,2.6
			c-0.3,0.3-0.7,0.5-1.1,0.6c-2.9,4.3,0.7,8,1,12c-0.3,0.4-0.4,0.9-1,1c-5.4-7.2-1.5-22.5,6.6-25.7
			C366.8,314.4,368.7,316.3,370.8,316z"/>
		<path class="st0" d="M383,340c4.5,2,1,4.8,0.6,7.2c-0.1,1-1.7,1.9-2.7,2.8s-2.4,0.9-3.4,1.8l-0.6,0.2c-5.3,2.2-8.9-2.1-13.3-3.5
			c-0.5-0.2-1.1-1.4-1-2c0.1-1.1,1.1-1,1.9-0.9c1,0.1,1.9,0.2,2.9,0.5c6.4,2,11.3,0.1,14.6-5.8C382.3,339.7,382.6,339.6,383,340z"/>
		<path class="st0" d="M383,340c-0.3,0-0.7,0.1-1,0.2l-1-0.2c2.4-5,1.3-7.9-3.8-9.1c-1.4-0.4-2.7-1.1-3.9-2
			c-5.1-3.1-7.2-2.5-9.8,2.8c-0.4,0.9-1,1.7-1.5,2.5c-1.6-2.8,0-6.1-1.4-8.9c-0.1-0.4-0.1-0.9,0-1.3c2-2,4,1.3,6.1,0
			c0.7,0,1.3,0,1.9,0.2c1.8,0.5,3.9,0,5.3,1.8C382.3,327.4,385.5,332.3,383,340z"/>
		<path class="st0" d="M360.9,325c3.7,2.7,0.8,6.2,1.2,9.3c-0.1,1,0.5,2.3-1.1,2.6c-0.4-1.5,1.4-4.5-2.5-3.5
			c-0.2-0.8-0.3-1.6-0.5-2.4c1.5-1.3,0.8-2.6,0.1-4l1.9-2C360.3,324.5,360.6,324.5,360.9,325z"/>
		<path class="st0" d="M358.1,327c1.9,0.7,1.4,2.5,1.8,3.8L358,331l-0.1-3C358,327.7,358,327.3,358.1,327z"/>
		<path class="st0" d="M358,341l1-1c0,0.8,2.2,1,0.7,2.2c-0.4,0.3-0.8,1.3-1.4,0.7C357.9,342.5,358.1,341.6,358,341z"/>
		<path class="st0" d="M379,352c0.4,0.7,1.2,1.1,2,1c-1.9,1.9-3,0.6-4-1l0,0C377.6,351.5,378.4,351.5,379,352z"/>
		<path class="st0" d="M339,317c-5,0.2-1.1-3.4-2-4.9c0.3,0,0.5,0,0.8,0.2C338.3,313.8,339.2,315.2,339,317z"/>
		<path class="st0" d="M250,347c0-2.1,0-4.1,0-6.2c0-1.6,1.1-1.1,2-0.9c0.6,1-0.2,2,0,3s0,2,0,3C251.5,346.5,251.2,347.6,250,347z"
			/>
		<path class="st0" d="M249.9,335c-2.1,0.2-1.6-2.3-2.9-3c2-2.1,2.6,0.8,3.9,1.1C251,333.9,250.6,334.7,249.9,335z"/>
		<path class="st0" d="M250,347l2-1.1c0,0.4,0.1,0.7,0.1,1.1c-0.4,1.6,0.6,3.5-1.1,4.9c0-1.1,0.2-2.2-1-3
			C250,348.3,250,347.7,250,347z"/>
		<path class="st0" d="M252,343c-1.5-1-0.2-2,0-3c0-0.4,0.1-0.7,0.1-1.1C253.3,340.3,253.5,341.7,252,343z"/>
		<path class="st0" d="M228,386c0.4-0.4,0.7-1.2,1.2-1.3c0.9-0.2,0.7,0.7,0.8,1.3C229.4,387,228.7,387,228,386z"/>
		<path class="st0" d="M312.9,331l-0.9,3c-1.2,1.1-0.9,2.9-1.9,4l0,0c-0.6,0.7-0.4,1.6-0.6,2.3c-0.3,0.9-0.9,1.9-2.1,1.6
			c-1-0.3-0.8-1.3-0.8-2.1c0.1-2-0.1-3.9-0.5-5.9c0-0.5,0.1-1,0.3-1.4c3-2.1,3-5.8,4.6-8.7c0.9-0.4,2,0,2.4,0.9
			C313.6,326.9,311.7,328.8,312.9,331z"/>
		<path class="st0" d="M319,318c-1.7-1.4-0.8-3.3-1-5c-0.3-0.2-0.4-0.5-0.3-0.7s0.2-0.3,0.3-0.3l2-1c0.6,1.9,2.1,1.7,3.5,1.5
			c1.6,1,0.6,2.3,0.5,3.5C322.8,317.9,321.4,319.1,319,318z"/>
		<path class="st0" d="M307.1,333.2v8c2.4-0.3,1.5-2.7,2.9-3.2c0,1.3,0,2.6,0,4c-1.7,0.8-2.5,2.4-4.5,4.6c0.2-4.1,0.3-7.3,0.5-10.5
			c-1-0.5-1.5-1.3-0.8-2.4C305.6,333,306.2,332.4,307.1,333.2z"/>
		<path class="st0" d="M324,316c-1.6-1-0.3-2,0-3c0.1-0.5,0.3-0.9,0.6-1.2c0.4-0.3,0.8-0.5,1.3-0.6c1.7-0.2,3.4-0.5,4.4,1.4
			c0,0.8-0.6,1.2-1.3,1.5l-3,1.9L324,316z"/>
		<path class="st0" d="M312.9,331c-1.7-2-0.7-4,0.1-6c-0.7-1.3-0.6-2.1,1.1-2.1c0.6,1,0.5,2.1-0.1,3.1c0,0.6,0,1.3-0.1,2
			C312.8,328.7,313,329.9,312.9,331z"/>
		<path class="st0" d="M310,338c0.2-1.6-0.6-3.6,1.9-4C312.1,335.7,311.8,337.2,310,338z"/>
		<path class="st0" d="M335,331l2,1l-2,3l-1.1-1c-1.1-2.7-1.6-5.3,0-8C334.3,327.6,333.3,329.6,335,331z"/>
		<path class="st0" d="M329,314c0.3-0.3,0.7-0.7,1-1c0.3-0.5,0.7-0.5,1,0c1.6-0.1,2.9,1.1,3,2.6c0,0.1,0,0.2,0,0.4L329,314z"/>
		<path class="st0" d="M435,367l-3-1c-1.6-2-4.3-0.1-6-1.6c-0.5-0.4-1.1-0.9-0.4-1.5c0.2-0.2,0.9,0.1,1.4,0.2c1.8-1.8,4.2-1,6.3-1.7
			c3.6-1,6.5-2.7,7.6-6.5c0.2-0.9,0.7-1.7,1.2-2.3c2-1.4,1.6-3.8,2.2-5.8c0.2-0.4,0.5-0.8,0.9-1c0.5-0.1,0.9-0.1,1.4,0.1
			c0.4,0.3,0.7,0.7,0.8,1.1c0,0.2,0,0.5,0,0.7c-0.3,1.9,0.1,4-1.4,5.5c-1.3,1.8-1,3.9-1,5.9c-0.2,0.3-0.5,0.4-0.8,0.2l-0.1-0.1
			C442.3,363.2,438.3,364.7,435,367z"/>
		<path class="st0" d="M444,359.1c0.3-0.1,0.6-0.1,0.9-0.1h1c-0.1,1.2,0.4,3.2-1.4,3.1C443.5,362,444.1,360.1,444,359.1z"/>
		<path class="st0" d="M447,347l-1.1-1.1c-2-3.2-0.5-6.5-0.3-9.8c0.5-2.4-0.7-5.9,3.5-6.3c1.3,1.3,1.2,2.9,1.2,4.5s-0.1,3.4,0.6,5
			c1.1,2.1,1.1,4.6,2.4,6.6c0.3,0.7,0.2,1.5-0.3,2l-0.1,0.1l-4-1C448.4,347.5,447.5,347.5,447,347z"/>
		<path class="st0" d="M447,347h1.9c0.4,2,1.5,4,1,6.2c-0.2,0.9-0.3,2.1-1.6,2s-1.2-1.3-1.4-2.3c0-0.2,0-0.4,0-0.6
			c0.1-1.4,0-2.9-0.3-4.3C446.6,347.7,446.7,347.3,447,347z"/>
		<path class="st0" d="M447,347c0,0.3,0,0.7,0,1c0.7,1.6,0.7,3.4-0.1,5l0,0c-0.3,0-0.6,0-1,0C446.3,351,445.1,348.7,447,347z"/>
		<path class="st0" d="M288,323v-1c0.6-0.1,1.3-0.4,1.6-0.1c0.4,0.4,0.4,1,0,1.4c-0.1,0.1-0.1,0.1-0.2,0.2
			C288.9,323.9,288.4,323.5,288,323z"/>
		<path class="st0" d="M302,350c1.2,3.2-2.3,1.7-3,3c-0.8-1.2-2-1-3.2-1.1c2.6-2,3.2-4.5,2.8-7.7c-0.5-3.6-0.1-7.2,2.3-10.2h1.1
			c0.9,4.1,0,8.2-0.4,12.3C301.5,347.5,300.5,348.9,302,350z"/>
		<path class="st0" d="M274,353.2l1.1-0.3c4.8,3,9.6,2.2,14.6,0.3c2-0.6,4.1-1.1,6.2-1.5c-5.3,3.9-12,5.5-18.5,4.3
			C275.6,355.7,274.2,355.3,274,353.2z"/>
		<path class="st0" d="M273,326c0.3,0,0.6,0,0.9-0.1c-0.1,0.9,0.3,1.7,1.1,2.1c0.5,0.6,0.6,1.5,0.1,2.2L274,331h-2
			C273,329.5,271.6,327.5,273,326z"/>
		<path class="st0" d="M275.2,330.2l-0.1-2.2l0,0c0.7-1.2,1.7-2.3,2.9-3.1l0,0l1.2,0.2C278.6,327.4,276.8,328.7,275.2,330.2z"/>
		<path class="st0" d="M309,312c0.5,3.4,3.5,1.2,5.1,2.3c0.5,1.7-1.8,1.5-2,2.8c0.7,0.8,1,1.8,0.8,2.9c-0.2,1.3-0.8,2.5-1.8,3.3
			c-0.4,0.2-1,0.1-1.4-0.1c-1.2-2.2,0.5-5.6-2.7-7c0-0.3,0-0.6,0.1-0.9c1-0.8,0.9-2,0.9-3.1C308.4,311.5,308.7,311.5,309,312z"/>
		<path class="st0" d="M309,312c-0.3,0-0.6,0-0.9,0c0.4-4.7-1.2-9.5,0.9-14c1,2.2-0.6,4.9,1,7C310.3,307.4,309.6,309.7,309,312z"/>
		<path class="st0" d="M307.1,316c7.1-0.3,2.2,4.5,2.9,6.9c-0.1,3.2-1,6.4-2.5,9.3c-0.1,0.4-0.2,0.7-0.4,1c-2,0.3-1.6,1.5-1.1,2.8
			c-3.2,1.4-1.2,4.9-2.9,6.9L302,350c-0.6,0.7-2,0.8-1.7-0.1c1.6-5.2-0.6-10.8,1.7-15.9c3.7-2.5,2.6-6.8,3.8-10.3
			C306.6,321.3,306.7,318.6,307.1,316z"/>
		<path class="st0" d="M289,362c-0.3,0.3-0.7,0.7-1,1c-1.1-0.7-1.3-2.1-0.6-3.2c0-0.1,0.1-0.1,0.2-0.2c0.3-0.5,1-0.7,1.6-0.3
			c0.1,0,0.1,0.1,0.1,0.1C290.3,360.3,289.2,361.1,289,362z"/>
		<path class="st0" d="M285.7,362.4c-0.3,0.6-0.7,1.2-1.4,1c-0.3-0.1-0.7-0.8-0.6-1c0.3-0.3,0.7-0.6,1.2-0.7
			C285.6,361.4,285.8,361.8,285.7,362.4z"/>
		<path class="st0" d="M272,331c-0.1,0.9-0.1,2-1.3,2.2c-0.1,0-0.5-0.4-0.5-0.6C270.1,331.4,271,331.1,272,331L272,331z"/>
		<path class="st0" d="M282,313c1.2-0.1,1.6-2.3,3.2-1.1c0.8,0.6,0,1.4-0.2,2.1l-4,3C281.3,315.6,281.7,314.3,282,313z"/>
		<path class="st0" d="M277.9,325c-0.7,1.3-1.7,2.3-2.9,3c-0.1-1.5,1.1-2.9,2.6-3C277.7,325,277.8,325,277.9,325z"/>
		<path class="st0" d="M436,331c3.3-1.1,5.1-4.2,7.9-6.1c0.9,0.8,1.3,2.1,0.9,3.3c-0.9,1.4-1.1,3.2-0.6,4.7
			c-0.9,1.2-1.9,2.3-3.1,3.4c-0.4,0.2-0.8,0.4-1.2,0.5c-1.6-0.3-3.3-0.1-5-0.5C433.3,334.1,436.1,332.9,436,331z"/>
		<path class="st0" d="M443.9,328.9c0-1.3,0-2.7,0-4l0.2-0.9l0.8-1c3.9-2.6,3.9,0.6,4.5,2.9c-0.2,2.1-1.4,3.9-3.2,4.9
			C444.4,331.5,443.1,331.5,443.9,328.9z"/>
		<path class="st0" d="M426.9,346.9c-0.2-3.5,2.8-5.2,4.1-7.9c0.3-0.4,0.9-0.4,1.3-0.1c1.2,1.4,1.9,2.9,0.6,4.6
			c-1.4,1.1-2.8,2.3-4.1,3.6l-0.6,0.3C427.6,347.4,427.2,347.2,426.9,346.9z"/>
		<path class="st0" d="M432,339h-1c1.4-2.8,2.6-5.8,5.1-8c1.4,2-1.4,3.2-1.1,5C434.8,337.8,434.3,339.2,432,339z"/>
		<path class="st0" d="M426.9,346.9l1.1,0.1c1.4,3.4-0.2,5.5-3,7h-1l0,0c-1.1-1.9,0.2-3.4,0.9-5L426.9,346.9z"/>
		<path class="st0" d="M424.8,349l-0.9,5C422.1,351.9,422.9,350.3,424.8,349z"/>
		<path class="st0" d="M442.9,317.1L438,317C439.6,315.6,441.3,315.4,442.9,317.1z"/>
		<path class="st0" d="M434,314h4C436.6,315.4,435.3,316.5,434,314z"/>
		<path class="st0" d="M423,331c0.2-2.2-0.8-4.7,2-6c-0.3,1.7-0.6,3.4-0.9,5.1L423,331z"/>
		<path class="st0" d="M303.5,352.9c2.9,1.6,2.7,3.4,2,5.3c-0.1,0.2-1,0.4-1.2,0.2C302.8,356.8,304.5,355,303.5,352.9z"/>
		<path class="st0" d="M337,363c2.4,0.2,3.6,1.7,4.1,3.9C338.6,366.8,338.3,364.4,337,363z"/>
		<path class="st0" d="M410,234c-2-0.1-2-1.6-2-3C411.6,230.1,409.4,233,410,234z"/>
		<path class="st0" d="M214.1,293h-2c-4.8-2.3-9.4-4.9-15.1-4.2c-1.6,0.2-3.1-0.5-4-1.8c5.4,0.7,10.9,1.4,16.3,1.9
			C212,289.2,213.6,290.3,214.1,293z"/>
		<path class="st0" d="M453,348c0-0.7,0-1.3,0-2c0-0.2-0.1-0.5-0.1-0.7c-0.5-3.4,0.3-6.8-0.7-10.1c-0.3-1-0.3-2,0-3
			c0.8-1.6,1.7-2,2.6-0.1l0.2,6.9c1.3,2.2-0.3,4.8,0.9,7l0,0c-1.2,3.3,1,5.7,2.5,8.4C453.9,354.3,454.4,350.3,453,348z"/>
		<path class="st0" d="M331,313h-1c-1.4-1.7-3.3-0.8-5-1c-0.5-1.4-1.1-2.8-2-4l1-1c1.1-1,2.9-1,4,0.1C329,309,330,311,331,313z"/>
		<path class="st0" d="M323,308c3.6-0.1,3.3,1.7,2,4l0,0c-3,1-4.2,0.2-3-3L323,308z"/>
		<path class="st0" d="M322,309c-0.2,2.2,0.8,3.2,3,3l-1,1c-1.8,0.3-4.8,2.8-4-2c-0.1-1,0.7-1.9,1.7-2C321.8,309,321.9,309,322,309z
			"/>
		<path class="st0" d="M328,307l-4-0.1c0.1-1.1-0.2-2.6,1.4-2.7C327.2,304,327.9,305.4,328,307z"/>
		<path class="st0" d="M317,307c-0.8-0.4-1.7-0.9-1.4-1.7c0.6-1.5,2.1-1.2,3.4-1.3L317,307z"/>
		<path class="st0" d="M318,312v1c-1.8-1.8-0.6-4-1-6C318.7,308.4,317.8,310.3,318,312z"/>
		<path class="st0" d="M473.9,313.9c1.2-0.7,2.6-1,4-0.8c-1.8,2.4-2.8,4.9-2.1,7.9c-0.5,1-1.1,1.7-2.3,1.5c-1.4-0.5-1.7-1.8-2-3.1
			C471.9,317.4,470.1,314.4,473.9,313.9z"/>
		<path class="st0" d="M495,303l-11.6,4.8L483,308C486,302.8,489.4,301.3,495,303z"/>
		<path class="st0" d="M473.9,322l1.9-1c-0.3,3.4,1,6.8-0.8,10.1c-0.8,0.1-1.6-0.4-2.1-1.1C471.2,327,471.8,324.4,473.9,322z"/>
		<path class="st0" d="M478,344c-0.3,1.4,0.8,3.7-2.1,3.4s-3.8-2.2-3.7-4.9c0.2,0.2,0.5,0.3,0.8,0.4
			C474.5,343.8,476.5,342.4,478,344L478,344z"/>
		<path class="st0" d="M477.9,343.9c-1.7-0.2-3.6,0.8-5-1c1.6-0.4,2.7-1.7,2.9-3.2c0.3-1.6,1.2-1,2.1-0.7
			C478,340.7,478,342.3,477.9,343.9z"/>
		<path class="st0" d="M479.8,319c0,3.6,0,7.3,0,10.9C478.4,326.4,478.4,322.5,479.8,319z"/>
		<path class="st0" d="M478.8,332c-0.4,2.3,0.7,4.8-0.9,7C478.3,336.7,477.1,334.2,478.8,332z"/>
		<path class="st0" d="M482.9,309c-0.5,1.6,1.8,3.8-0.9,5C482.5,312.4,480.1,310.2,482.9,309z"/>
		<path class="st0" d="M503,302c-2.1,1.8-4.7,0.6-7.1,0.9C498.1,301.1,500.7,302.3,503,302z"/>
		<path class="st0" d="M473.9,313.9c-2.5,1.4-1.8,3.9-1.9,6c0.1,1.8,2.4,3.9-1,5c0-1.3-0.1-2.6-0.1-3.9c0.2-2.6,0.5-5.2,0.4-7.7
			c0-1.6-0.8-4,1.5-3.8C475.4,309.8,474,312.2,473.9,313.9z"/>
		<path class="st0" d="M471,324.9c1.6-1.4,0.6-3.4,1-5l1.9,2.1c-0.3,2.7-0.7,5.3-1,8h-1C470.4,328.5,471.2,326.6,471,324.9z"/>
		<path class="st0" d="M454.8,332c-0.6-0.2-1.2-1.2-1.9,0c-0.9,0.3-1.3-0.2-1.6-0.9c-0.2-1.1-0.2-2.3,0.1-3.4
			c-0.4-2.6-3.2-4.7-1.5-7.7h2C456.3,323.2,455.9,327.5,454.8,332z"/>
		<path class="st0" d="M455.9,346c-1.8-2.1-0.6-4.7-0.9-7C456.7,341.1,455.5,343.7,455.9,346z"/>
		<path class="st0" d="M424.9,354c1-2.4,2.9-4.3,3-7l0,0c0.4-0.3,1.1-0.2,1.4,0.2l0,0c1.1,3.8,0,7.5-0.9,11.1
			c-3.7,1.5-1.9-2.7-3.5-3.4C425,354.6,424.9,354.3,424.9,354z"/>
		<path class="st0" d="M425,354.9c2,0.5,1.3,3.2,3,4l0.6,0.3c1.2,2.1,4.2,0.9,5.5,2.9c-2.2,1.5-4.7,0.7-7.1,0.8
			C427,360.1,423.8,358.1,425,354.9z"/>
		<path class="st0" d="M312,320c0-1,0.1-2,0.1-2.9c4.9,0.5,5.6,1.8,3.5,6c-0.5,1-1,2-1.6,2.9v-3C313.1,322.1,313.2,320.6,312,320z"
			/>
		<path class="st0" d="M313.9,307.3c0.2,1-0.5,2-1.5,2.2c-1.1,0.2-1.3-0.7-1.3-1.5c0-1,0.2-2.1,1.3-2.3
			C313.3,305.5,313.8,306.4,313.9,307.3z"/>
		<path class="st0" d="M436.5,311.8c-0.1,1.1-0.8,1.2-1.4,1.2c-0.4-0.1-0.9-0.2-1.2-0.4c0.5-0.4,1-0.8,1.5-1
			C435.7,311.3,436.1,311.6,436.5,311.8z"/>
		<path class="st0" d="M448.8,325.9c-0.9-1.5-0.7-4.4-3.9-2.9c0.1-4.3,0.1-4.3,4-3c0.6,1.9,1.7,3.7,1.3,5.9
			C449.8,326.3,449.2,326.3,448.8,325.9z"/>
		<path class="st0" d="M450,326c-0.3-2-1.4-3.9-1-6h1l3,8C450.9,329,449.9,328.2,450,326z"/>
		<path class="st0" d="M360.9,325H360c-0.5-3.8,2.5-4.1,4.9-4.8s4.8-1.5,6.1,1.8c-0.9,0.8,0.7,3.2-1.9,3H367c-1.9-0.8-3.7-2.5-6-0.9
			C361,324.3,361,324.6,360.9,325z"/>
		<path class="st0" d="M369.1,324.9l1.9-3c3.5-0.6,3,1.9,3,4C372.4,325.3,370.5,326.2,369.1,324.9z"/>
		<path class="st0" d="M379,352h-2c0.3-2.7,2.4-1.8,4-2L379,352z"/>
		<path class="st0" d="M361,324c2.5-2.7,4.3-1.3,6,0.9C364.7,326.9,363.1,323.7,361,324z"/>
		<path class="st0" d="M307.5,332.2c0.5-3.2,0.2-6.6,2.5-9.3c0.3,0,0.6,0,0.9,0c0.2,0.1,0.4,0.4,0.3,0.7c0,0.2-0.1,0.4-0.1,0.4
			C310.9,327.1,311,330.5,307.5,332.2z"/>
		<path class="st0" d="M311.1,323.9c0-0.4-0.1-0.7-0.2-1l1-2.9c0.8-0.2,1.9-0.8,2.2-0.5c1.4,1.1-0.5,2.3-0.2,3.5c-0.7,0.4-1,1.2-1,2
			L311.1,323.9z"/>
		<path class="st0" d="M444.8,345.8c0.7-3.5,0.7-7.1,0.1-10.7c-0.4-0.7-0.8-1.4-1-2.2c-0.9-1.3-4-2.6,0-3.9c0,1.8,1,1.5,2.1,1.1
			c1.1,2.2-0.3,4.8,0.9,7c-1.1,2.9-0.5,5.9-1,8.9L444.8,345.8z"/>
		<path class="st0" d="M428.1,358.9c4.1,3.2,6.6,3.1,10.2-0.5c1.2-1.2,2.3-2.4,3.4-3.5c-0.8,4.4-3.8,6.3-7.7,7.3
			C431.8,361.5,427.9,364,428.1,358.9z"/>
		<path class="st0" d="M442.9,352.9c0.7-2.4-0.5-5.2,2-7.1C444.6,348.3,446.2,351.3,442.9,352.9z"/>
		<path class="st0" d="M452,331l1,1c0,1,0.1,2,0.1,3c0.6,3.6,0.6,7.4-0.1,11l0,0c-3.6-0.8-1.2-4.4-3-6c0.2-1.7,1.9-3.7-0.9-4.9
			l-0.1-5C451.1,327,451.1,330.2,452,331z"/>
		<path class="st0" d="M452,331c-0.9-0.6-1.5-2.1-3-1c-3.2,1.6-1.6,4.7-2.1,7.1c-1.5-2.2-0.9-4.7-0.9-7c2-0.6,1.5-3,2.8-4.1h1.1
			c0.4,1.3,1.7,2.1,3,2L452,331z"/>
		<path class="st0" d="M449.1,335.1c0.8-0.2,1.4-2.8,2.4-0.6c0.8,1.9,1.8,4.4-1.5,5.5C448.4,338.6,449.2,336.7,449.1,335.1z"/>
		<path class="st0" d="M447,353l0.1-5C448.4,349.6,448.5,351.3,447,353z"/>
		<path class="st0" d="M440.1,336c-1.6,3.6-4.5,6.5-8.1,8.1c-0.3-0.2-0.4-0.5-0.3-0.7s0.2-0.4,0.3-0.4c1.8-1.3-0.4-2.7,0-4l2.9-3
			C436.6,335.5,438.4,335.5,440.1,336z"/>
		<path class="st0" d="M443.9,332.9c0.8,0.4,1.2,1.3,1,2.2c-1.7-1.8-2.6,1.1-4,0.7C441,333.9,442.2,333.1,443.9,332.9z"/>
		<path class="st0" d="M432,343v1.1l-2.8,3L428,347C428.6,345.1,430.1,343.6,432,343z"/>
		<path class="st0" d="M453,346l0.1-11C454.6,338.5,454.6,342.5,453,346z"/>
	</g>
</g>
</svg>
