<?xml version="1.0" encoding="utf-8"?>
<!-- Generator: Adobe Illustrator 26.0.1, SVG Export Plug-In . SVG Version: 6.00 Build 0)  -->
<svg version="1.1" id="Layer_1" xmlns="http://www.w3.org/2000/svg" xmlns:xlink="http://www.w3.org/1999/xlink" x="0px" y="0px"
	 viewBox="0 0 645 567" style="enable-background:new 0 0 645 567;" xml:space="preserve">
<style type="text/css">
	.st0{fill:#020202;}
	.st1{fill:#050505;}
	.st2{fill:#090909;}
	.st3{fill:#F9F9F9;}
	.st4{fill:#070707;}
	.st5{fill:#0A0A0A;}
	.st6{fill:#0D0D0D;}
	.st7{fill:#111111;}
	.st8{fill:#4B4B4B;}
	.st9{fill:#FAFAFA;}
	.st10{fill:#292929;}
	.st11{fill:#393939;}
	.st12{fill:#2D2D2D;}
	.st13{fill:#2A2A2A;}
	.st14{fill:#151515;}
	.st15{fill:#181818;}
	.st16{fill:#616161;}
	.st17{fill:#727272;}
	.st18{fill:#191919;}
	.st19{fill:#262626;}
	.st20{fill:#858585;}
	.st21{fill:#686868;}
	.st22{fill:#202020;}
	.st23{fill:#242424;}
	.st24{fill:#606060;}
	.st25{fill:#878787;}
	.st26{fill:#0E0E0E;}
	.st27{fill:#131313;}
	.st28{fill:#454545;}
	.st29{fill:#595959;}
	.st30{fill:#373737;}
	.st31{fill:#5D5D5D;}
	.st32{fill:#0C0C0C;}
	.st33{fill:#1C1C1C;}
	.st34{fill:#575757;}
	.st35{fill:#2C2C2C;}
	.st36{fill:#8B8B8B;}
	.st37{fill:#343434;}
	.st38{fill:#F4F4F4;}
	.st39{fill:#979797;}
	.st40{fill:#BFBFBF;}
	.st41{fill:#3C3C3C;}
	.st42{fill:#5A5A5A;}
	.st43{fill:#101010;}
	.st44{fill:#464646;}
	.st45{fill:#424242;}
	.st46{fill:#5F5F5F;}
	.st47{fill:#5B5B5B;}
	.st48{fill:#F5F5F5;}
	.st49{fill:#636363;}
	.st50{fill:#3A3A3A;}
	.st51{fill:#919191;}
	.st52{fill:#8A8A8A;}
	.st53{fill:#585858;}
	.st54{fill:#F6F6F6;}
	.st55{fill:#B1B1B1;}
	.st56{fill:#969696;}
	.st57{fill:#4C4C4C;}
	.st58{fill:#D0D0D0;}
	.st59{fill:#BABABA;}
	.st60{fill:#565656;}
	.st61{fill:#F1F1F1;}
	.st62{fill:#323232;}
	.st63{fill:#282828;}
	.st64{fill:#3D3D3D;}
	.st65{fill:#EEEEEE;}
	.st66{fill:#4E4E4E;}
	.st67{fill:#DEDEDE;}
	.st68{fill:#2F2F2F;}
	.st69{fill:#737373;}
	.st70{fill:#4F4F4F;}
	.st71{fill:#B8B8B8;}
	.st72{fill:#525252;}
	.st73{fill:#383838;}
	.st74{fill:#A2A2A2;}
	.st75{fill:#808080;}
	.st76{fill:#2E2E2E;}
	.st77{fill:#ECECEC;}
	.st78{fill:#141414;}
	.st79{fill:#080808;}
	.st80{fill:#333333;}
	.st81{fill:#060606;}
	.st82{fill:#1B1B1B;}
	.st83{fill:#1A1A1A;}
	.st84{fill:#1D1D1D;}
	.st85{fill:#0F0F0F;}
	.st86{fill:#161616;}
	.st87{fill:#252525;}
	.st88{fill:#0B0B0B;}
	.st89{fill:#2B2B2B;}
	.st90{fill:#313131;}
	.st91{fill:#121212;}
	.st92{fill:#555555;}
	.st93{fill:#414141;}
	.st94{fill:#505050;}
	.st95{fill:#484848;}
	.st96{fill:#5C5C5C;}
	.st97{fill:#4A4A4A;}
	.st98{fill:#030303;}
	.st99{fill:#232323;}
	.st100{fill:#1F1F1F;}
	.st101{fill:#444444;}
	.st102{fill:#F8F8F8;}
	.st103{fill:#434343;}
	.st104{fill:#535353;}
	.st105{fill:#474747;}
	.st106{fill:#363636;}
	.st107{fill:#353535;}
	.st108{fill:#494949;}
	.st109{fill:#272727;}
	.st110{fill:#3F3F3F;}
	.st111{fill:#3B3B3B;}
	.st112{fill:#545454;}
	.st113{fill:#848484;}
	.st114{fill:#222222;}
	.st115{fill:#171717;}
	.st116{fill:#3E3E3E;}
	.st117{fill:#1E1E1E;}
	.st118{fill:#6E6E6E;}
	.st119{fill:#6F6F6F;}
	.st120{fill:#666666;}
	.st121{fill:#7D7D7D;}
</style>
<g id="Layer_2_00000095334997524351176130000001188837139131297962_">
	<g id="Layer_1-2">
		<path class="st0" d="M196.9,182.4c1.2,14.1,0.1,28.4,2.2,42.5c2.4,5.4,0.7,11.1,1.5,16.6c0.8,5.7,0.8,11.5,0,17.2
			c-1.1,8.4,1.7,16.4,3.5,24.4c0.4,1.9,1.1,3.8,0.8,5.9c-0.2,0.5-0.5,0.9-1,1.2c-1.7-0.1-1.8-1.6-2.4-2.7c-0.5-2.8-1.9-4.8-4.7-5.6
			c-0.3-0.6-0.5-1.3-0.4-2c0.3-1.8,0.5-3.7,0.6-5.5c0.1-0.4,0.1-0.9,0.3-1.3c0.7-1.8,0.8-3.8,0.1-5.6c-0.7-1.2-1.1-2.7-2.7-3
			c-0.8,0.3-1.1,1-1.5,1.6c-1.1,1.4-2.1,2.9-2.9,4.5c1,1.4,3.1,1.1,4.1,2.6c0.3,1.2-0.2,2.5-1.1,3.4c-1,0.7-2.3,1.2-3.5,1.2
			c-0.8-0.5-1.6-0.2-1.6,0.6c0,1-0.1,2.1-1.1,2.6c-1.3,0.6-2.1-0.5-3-1.2c-1.4-1.2-1.4-2.9-1.3-4.6c0.1-1.8,0.1-3.6-0.1-5.4
			c-0.1-1,0.9-2-0.1-2.9c-0.6-1.9,0.5-3.5,0.9-5.2c-1.5-0.9-3.5-0.3-4.4-2c-0.2-0.4-0.3-0.9-0.2-1.3c0.8-1.4,1.3-2.9,1.7-4.4
			c0.5-4.7,3.4-8.3,6-11.9c2.1-1.7,0-3.9,0.6-5.7c0.1-0.5,0.1-0.9,0.3-1.4c0.1-1.7,1.5-3.1-1.1-4.8c-3-1.9,0-4.5,0.7-6.8
			c0.8-3,1.3-6.1,1.3-9.2c0.1-0.3,0.3-0.6,0.3-0.9c0.1-0.5,0.9-0.5,0.8-1.1c-0.3,0.4-0.7,0.7-1,1.1c-1.1,2,0.9,5-2,6.4
			c-1-0.2-1.8-0.9-2.1-1.8c-0.4-2.6-2.3-4.4-3.8-6.4c-2-2.4-5.2-4.3-3.5-8.3c0.1-1.1,0.9-2.1,2-2.5c2.2-0.3,1.1-2.1,1.4-3.2
			c-0.9-1.5-1.5-0.2-2.1,0.3c-1.1,1-2.2,1.9-3.7,0.7c-0.8-1.6,0-3.2,0.1-4.8c0.6-2.8,2.1-5.1,5.2-4.5c4.3,0.7,2.7-1.6,2.1-3.5
			c-0.3-1.6-0.1-3.3,0.6-4.8c0.7-2,0.2-3.3-2.2-3.1c-0.6,0.1-1.2,0.3-1.8,0.5c-1.1,0.9-2,2.6-3.9,1.6c-0.5-0.5-0.7-1.2-0.8-1.9
			c-0.2-1.9,0.2-3.8,1-5.5c0.6-0.4,1.2-0.7,1.9-0.8c1.7-0.4,4.1,0.6,4.7-1.7c0.9-3.3-2.7-3.2-4.1-4.7c-0.3-0.3-0.7-0.5-0.9-0.8
			c-0.9-0.9-1.8-1.5-3.2-1.1c-1.8,1.2-3.4,2.7-5.5,3.4c-1.2,0.4-2.7,1.3-3.7,0s0.4-2.4,1.2-3.4c3-3.5,3-3.5-3.2-7
			c-0.8,0.5-1.7,0.9-2,2c0.8-0.3,1.6-0.3,2.4,0c2.3,2-0.1,3.4-0.6,5c-2.7,2.7-2.6,5.9-1.6,9.3c-0.3,3.2,1.4,6.7-1.7,9.3
			c-0.9-0.2-1.3-0.9-1.6-1.7c-0.6-2.4,0.2-5.1-1.5-7.3c-0.4-1.1-0.6-2.4-0.4-3.6c0-0.8-0.1-1.5-0.3-2.2c-0.2,1,0.4,1.8,0.2,2.7
			c0,0.9-0.5,1.8-1.3,2.2c-0.7,0.3-2.6-0.2-1.2,1.6c0.2,0.6,0.3,1.2,0.2,1.9c-0.6,1.3,0,2.9,1.3,3.5c0.1,0,0.1,0.1,0.2,0.1
			c2.9,2.1,3.9,5.1,3.9,8.5c-0.1,0.8-0.3,1.5-0.8,2.1c-2.1,1.4-3.8,0.3-5.2-1.2c-1.1-1.2-2.1-2.6-3.7-3.1c-8.7-9.4-7.7-23,3.3-32.7
			c9.3-8.1,27.4-6.2,33.4,6.8C188.7,166.9,194.1,174,196.9,182.4z"/>
		<path class="st0" d="M179.1,258c0,0.3,0,0.7,0,1c2.6,1.7,4.3,3.6,2.7,6.9c-0.2,1.5-1.4,2.8-0.8,4.4c0.3,1.3,0.8,2.5,1.1,3.9
			c-0.3,4.1,2.4,7,4.2,10.8c1.8-2.8,2.3-5.7,3.8-8c0.7-1.2,1.9-1,3-1c4.9-0.5,0.3,3.1,1.7,4.1c0,0.4,0,0.9,0,1.3
			c-0.1,1.7-1.1,3.3,0.5,5.1s0.6,4.5-0.2,6.6c-1.5,4.2-2.2,8.2,1.1,12c1.6,1.8,1,4.5,1.2,6.8c0.2,2.4,0.2,4.8,0,7.1
			c-0.1,1.4,0,2.8-0.2,4.2c0,0.5-0.1,0.9-0.1,1.4c2.2,3.9,0.2,7.5-0.4,11.2c0.8,1.8,1.1-0.4,1.7-0.2c1.6-0.5,3.1-1.1,4,1
			c-0.3,2.4-0.2,5-1.8,7.1c-0.2,0.2-0.8,0.4-0.7,0.5c3.8,2,2.8,6.4,4.7,9.4c0.2,0.4,0.3,0.8,0.4,1.3c0.3,1.6-2.7,3.4,0.4,4.7
			c0.2,0.4,0.3,0.8,0.3,1.2c0.6,1.9,1.6,0.5,1.9,0c1.2-1.7,3-2.8,3.9-4.7c-1.5-1.3-2.6,0.2-3.8,0.1c-1.6-0.7-1.9-2.2-2.4-3.5
			c-0.4-2.2-0.7-4.4,1.1-6.3c0.7-0.5,1.3-1.2,1.6-2.1c0.2-0.6,0.5-1.2,1-1.7c3.9-1.6,2.8-5.6,4.2-8.4c0.6-1.9,2.5-1.5,3.9-2.1
			c1.4-0.8,3.7-0.6,3.4-3.2c0.1-1.4,1.1-2.5,1.7-3.7c1.3-4.8,3.3-9.4,5.9-13.5c2.8-5.3,2.3-11.6,5.4-16.8c0.7-1.3,0-2.9-0.7-4.3
			c-0.1-0.4-0.2-0.9-0.1-1.3c0.5-0.7,1-1.4,1.6-2.1c0.9-1.4,0.5-2.9,0.6-4.4c0-1.2,0.2-2.4,0.5-3.5c0.6-1.4,1.5-2.7,2.5-3.8
			c0.9-0.5,1.9-1.3,2.6,0.2c-0.5,6-2.7,11.6-3.4,17.6c0,6.4-2,12.3-3.8,18.4c-2.8,9-5.4,18.1-6.3,27.6c-0.2,2-0.7,3.9-1.1,5.8
			c-2.5,10-2.3,20.5-6.7,30.1c-0.3,1-0.4,2-0.3,3c-0.4,9.1-6.4,12.3-14.6,7.7c-2.1-2.5-4.4-4.9-6.9-7.1c-4.2-3.6-3.6-9-4.5-13.9
			c-2.2-11.9-1-24.2-4.2-35.9c-0.8-2.8,0.4-5.9-0.8-8.8c-2.1-5.3-2.2-11.1-2.9-16.6c-1.3-11-6.3-20.9-8.3-31.7
			c-0.4-2.1-1.2-4.1-0.9-6.3c0.2-3.4-2.2-6.2-1.7-9.7c0.3-1.1,1.2-1.8,2.3-2C178.4,254.6,179.5,255.9,179.1,258z"/>
		<path class="st1" d="M234,252c-0.6-8.8,3-16.4,6.8-23.8c3.3-6.3,2.6-13.7,6.2-19.8c3.3-5.5,3.7-12.3,7.8-17.5
			c0.4-0.3,0.8-0.4,1.3-0.4c2.4,0.3,5.3,1.8,5.1-2.7c-0.9-0.9-1.3,0.1-1.8,0.6c-0.4,0.5-1.1,0.9-1.8,0.9c-2.9-4.2,1.1-5.8,3-8.3
			c0.5-0.6,1.1-1,1.8-1.2c2,0.6,1.8,2.7,2.7,4c1.3,4.9,0.5,10-2.1,14.3c-1.1,1.3-3,1.4-4.2,0.4c0,0,0,0-0.1-0.1
			c-0.4-0.2-0.7-0.4-1.1-0.6c-1.1-0.4-1.2,0.4-1.3,1.2c0,1.8-0.3,3.7-0.9,5.4c-0.9,2.9-3,5.4-3.6,8.4c-0.8,1.7-2,3.1-2.8,4.9
			c-0.9,2.2-0.7,4.6-1.4,6.9c-0.1,1.2-0.2,2.4-0.5,3.6c-1.6,2.6-1.5,5.7-2.2,8.6c-0.3,0.7-0.7,1.4-1.1,2c-1.2,1.4-2,3.1-2.1,4.9
			c-0.8,8.4-5.1,15.9-5.4,24.4c-0.2,1.5-0.8,2.9-1.6,4.1c-0.2,0.7-0.4,1.4-0.7,2.1c-3.5,4.8-3.3,10.4-3.6,15.9
			c-0.6,2.7-0.9,5.4-1.8,8c-0.4,1.5-1,2.9-1.8,4.3c-0.6,0.6-1.3,1-2.1,0.2c-1.6-1.9-1.2-4.1-0.7-6.2c-0.6-9.4,1.2-18.9,5.2-27.5
			C230.6,263.4,233.6,258.1,234,252z"/>
		<path class="st2" d="M291,316c-1-8,2.6-14.8,7-20.7c2.9-3.9,4.8-9.1,9.8-11.4c3.8-1.9,4.9-5,4-8.9c-0.5-2.2,0.4-3.9,2.4-4
			s1.6,2,1.7,3.5c0.2,1.9-0.4,4,0.6,5.8c0.7,2.7,1,5.5,0.9,8.2c-0.2,2.2-3.2,2.9-2.9,5.4c-0.4,2.4,1.6,3.8,2.3,5.8
			c0.1,1.2,0.2,2.4,0.1,3.6c0.1,2.3,0.4,4.6,0.9,6.8c0.1,1.6,0.4,3.2,0.4,4.8s0,3.3-1.6,4.3c-0.5,0.1-1.1-0.1-1.4-0.5
			c-2-2.7-1.4-6.4-3.2-9.1c-0.7-1.3-1.1-2.7-1.3-4.1c0.5-3.4-1.5-5.4-4.1-7.1c-0.4-0.6-0.5-1.4-0.3-2c0.4-0.9,1-1.6,1.8-2.2
			c1.5-1.3,2.1-3.4,1.5-5.3c-0.1,0-0.3,0.1-0.4,0.1c-0.1,0.1-0.3,0.2-0.4,0.3c-1.7,2.7-3.8,5.1-5.2,8c-1.1,1.3-2.2,2.7-3.1,4.2
			c-0.8,1.1-1.4,2.2-2,3.3c-1.1,2.3-2,4.6-2.7,6.9c-0.9,2.2-0.1,4.8-1.2,7c-0.3,0.4-0.7,0.7-1.1,0.9c-0.7,0.2-1.5-0.1-1.9-0.7
			C291.1,317.8,291.6,316.8,291,316z"/>
		<path class="st3" d="M196.9,182.4c-4.2-7.5-8.6-14.8-12.4-22.5c-7.2-14.6-26.3-16-36.3-2.5c-6.3,8.5-5.9,19.8,0.7,26.6
			c3.1,2.6,5.5,6,9.4,7.6c2.5,3,4,6.3,1.9,10.2c-1.3-0.5-1.1-1.7-1.3-2.8c-2-0.6-3.1-1.9-2.8-4.1l-6-6c-1.2-0.4-1.6-1.9-3-2
			c-2.5-2.7-4-6.2-4.2-9.9c-0.1-2.7-3.5-3.2-2.6-5.8c-6.2-0.4-0.6-3.6-1.2-5.3l0,0c4.1-2.3,4.2-2.3,2.6-6.6
			c-0.4-1.1,0.1-2.4,1.3-2.8c0.1-0.1,0.3-0.1,0.4-0.1c5.5,0.9,7-4.5,8.6-7.1s5.9-1.9,5.7-5.6c0.3,0,0.8-0.1,0.9,0.1
			c4.6,4.9,11.6,0.5,16.6,4.4c1.6,1.3,1.8-3.2,4.1-1.8c-0.5,4.3,1.9,6.4,8.4,6.6c-5.3,2.4-2.3,5.2-0.7,7.4c4.4,6,6.6,13.1,10.3,19.5
			C197.6,180.6,197,181.6,196.9,182.4z"/>
		<path class="st4" d="M160.2,201.9c-0.4-3.5-0.3-7.2-3.1-9.9c-1.4-2.9,1.8-2.4,2.7-3.6c0.5-0.4,1.2-0.7,1.8-0.7
			c1.4,2.2,2.3,4.6,2.6,7.1c-0.4,2.6,1.5,4.4,2.4,6.6c0.1,0.4,0.1,0.8,0.1,1.2c-0.3,1.8,2.6,2.2,1.8,4.2c-0.5,1.2-1.1,2.4-1.9,3.5
			c-0.5,2-0.5,3.7,1.8,5.1c-1.4-1.6-3-3-1.1-5c0.9-0.4,2-0.3,2.8,0.3c2.2,2.4,0.3,6,2.6,8.4c1.9,2.5,0.1,5.2,0.5,7.7
			c0.5,3.9,1.7,7.7,3.5,11.2c-0.1,0.7-0.3,1.4-0.7,2c-0.5,0.8-1,1.5-1.6,2.2c-1.8,2.1-0.2,4.1,0.1,6.1s1,3.8,0.7,5.9
			c0,0.2,0,0.5,0,0.7c-0.5,3.5,1.8,6.8,0.9,10.4c-3.2-9.3-4.7-18.9-6.7-28.4c-3.7-8.4-6.4-17.2-8.1-26.2c0.2-0.2,0.2-0.5,0-0.7
			c0,0,0,0-0.1-0.1C159.6,207.5,161.5,204.5,160.2,201.9L160.2,201.9z"/>
		<path class="st5" d="M266,361c-2.7-1.4-4.1-4.4-3.5-7.4c1.5-11.4,0.2-22.8-0.2-34.2c-0.4-9.8,1.2-19.5,0.6-29.3
			c-0.7-4.1-0.2-8.2-0.3-12.3c-0.1-1.6-0.1-3.9,2.1-3.7c2,0.2,4.4,1.3,4.1,4.1s-0.2,5.6-0.2,8.4c-0.9,2.7-0.7,5.5-0.7,8.2
			c-0.3,1.2-0.6,2.4-0.8,3.7c-0.5,2-0.7,4-0.6,6c0,2.7,0.1,5.3,0,8c0,0.8,0,1.6,0,2.4c-0.2,2.1,0,4.1,0.5,6.1c0.2,1,0.2,2.1,0,3.1
			c-1.2,3.4,0.2,6.6,0.5,10c0.2,6.9-0.1,13.8,0.7,20.7c0.3,2.5,3.7,4.3,1.5,7.2C267.9,362.9,266.9,362.3,266,361z"/>
		<path class="st3" d="M205,385c7.6,4.1,11.8,1.9,12.7-6.7c0-0.5,0.1-1,0.3-1.5c4.5-10.1,4.3-21.5,8-31.8c-1,9-1.3,18.2-4.4,27.2
			c1.2,0.4,1.6-1.6,2.9-1.5c0.2,2.2,1,4.5-2.8,4.1c-1.2-0.1-1.9,1.3-1.6,2.6c0.5,1.9,1.6-0.1,2.2,0.2c1.2,0.6,3.3,0.4,3.6,1.9
			c0.4,2.7-2.3,3.2-3.9,4.5c-0.7,0.3-0.6,0.6,0,1c-2.3,4.4-6,5.7-12.2,4.4c-2.1-0.4-3.9-1.8-6.2-0.8c-1.1,0.5-1.9-1-2-1.7
			c-0.8-3.7-2.5-5.6-6.5-6.1c-1-0.1-3.1-4.5-2.9-6.3c0.6-5.8,0.2-11.7-1.3-17.3c-1.3-4.7-0.5-9.6-0.5-14.4c0.5,0.1,1.1,0.2,1.1,0.7
			c0,6,1.5,11.7,2.1,17.6c0.4,3.8,1.1,7.5,1.5,11.2c0.2,3,1.9,5.8,4.6,7.2C201.9,380.8,202.6,383.8,205,385z"/>
		<path class="st6" d="M397,301c0.6-1,1.2-2,1.8-3.1c1.4-1.4,2.6-1.5,2.9,0.8c0.2,1.6-0.3,3.2,0.3,4.8c0.1,0.8,0.2,1.7,0.1,2.5
			c-1.5,8.8-0.3,17.6-0.8,26.4c-0.5,1.9-0.2,4.8-3.6,2.6c-6-7.6-4.4-16.5-3.8-25.1C394.1,307,394.1,303.3,397,301z"/>
		<path class="st2" d="M315.1,233.6L315,237c-1.7,1.7-1,3.7-0.9,5.6c0.4,7.9,0.5,15.9,0.4,23.9c0,1.2,0.1,2.5-1.5,2.7
			c-1.3,0.2-1.7-0.8-1.6-1.9c0.2-6-1.2-11.9-0.6-17.8V248c1.6-5.4-0.2-11.1,1-16.6c-1.1-1.8-1.6-3.6,0-5.4
			c1.3-5.7,0.3-11.4,0.6-17.1c0.3-5.1-0.4-10.2,0.4-15.3l0.2-2.6c0.9-0.9,1.8-1.8,3.2-1c0.6,0.9,0.8,2,0.4,3c-0.2,0.5-0.5,1-0.8,1.4
			c-0.4,7.5-0.3,15,0.2,22.5C316.5,222.4,315.5,228,315.1,233.6z"/>
		<path class="st7" d="M310.9,249.5c1.8,6.2,0.7,12.7,2.1,19c0-9.3-0.1-18.7,0.1-28c0-1.1-2.1-4.3,1.9-3.4c0.3,7.6,0.7,15.3,1,23
			c-0.4,7,1.1,13.9,0.3,20.9c-2.8-2.5-0.4-6-1.7-9c-1.6,0.2-2.4,0.9-1.9,2.8c1.2,4.6-0.4,7.6-4.9,9.3c4.8-3.2,3.5-8.2,3.4-12.6
			C310.9,264,309.8,256.8,310.9,249.5z"/>
		<path class="st7" d="M401,303c-1.7-1.2-0.5-2.5-0.2-3.9c0.5-2.2-1-1.4-2-1.2c1.4-4.4,4.1-8.3,7.7-11.1c2.9-2.1,5.2-0.9,7.4,1.3
			c0.3,0.4,0.5,0.8,0.7,1.2c0.4,1.1,1,2.1,1.9,2.9c1.1,1.3,0.3,2.6-0.9,2.5c-6.5-0.6-9.9,3.6-13.2,8.1
			C402,303.2,401.4,303.2,401,303z"/>
		<path class="st8" d="M465.6,348.9h-0.4L465,349c-3.3,2.1-6.5,4.4-10.6,4.5c-1.9-1-3-3.1-5.1-3.9c-0.8-0.6-1.1-1.6-0.8-2.5
			c1.8-1.1,4-1.5,5.7-2.9c5.8,0.5,8.1-4.2,11.4-7.5c0.4-0.2,0.9-0.4,1.4-0.4c1.2,0.3,2.2,1.3,2.4,2.6c-0.1,2.5-1.3,4.6-1.6,7
			C467.2,347,466.8,348.2,465.6,348.9z"/>
		<path class="st9" d="M436.8,335.6c-0.2,1.2-0.3,2.2,1,2.9s1.3,2.6,0.3,2.9c-3.5,1.2-4.2,5.8-9.3,5.8c-3.1,0-6.5,4.2-10.3,5.6
			c-0.8,0.3,1,4.3-2.7,3.7c1.3-5.1-1.1-7-6.7-6.4c-2.9,0.3-3-3.1-3.1-5.4c0.5-0.4,1.3-0.5,1.9-0.3c0.6,0.3,1.2,0.6,1.7,1
			c1.3,0.8,2.7,1.4,4.1,1.9c0.6,0.3,1.2,0.6,1.8,0.9c2,0.9,4.3,0.8,6.2-0.3c0.4-0.2,0.7-0.5,1.1-0.7c1.5-0.9,2.8-1.9,4-3.2
			c2.5-2.2,5.3-4.2,7-7.2C434.3,335.7,435.6,335.2,436.8,335.6C436.7,335.6,436.8,335.6,436.8,335.6z"/>
		<path class="st9" d="M147.1,187c2.6-1.6,2.1,1.2,3,2c-2.1,2.4,4.2,3,0.9,5.5c-1.2-2.3-3.6-1.9-6.7-2.2c2.9,3.5,4.4,6.8,0.5,9.5
			c-1.3,0.9-0.5,3.8-3,3.2c-2.3-0.6-3.7-3.6-3.7-4.6c-0.2-5.1-2.7-10.7,1.7-15.3c1.4,1.8-0.8,3.7,0.2,5.7c2-1.2,0.6-3.2,1.5-4.7
			c1.5,1.5,0.3,5.5,4.1,4.7C147.6,190.2,148.3,189,147.1,187z"/>
		<path class="st10" d="M204.1,290c0.4-6.7-2.7-12.9-3.5-19.4c-0.4-2.6-0.6-5.2-0.6-7.9c0.8-12.6,0-25.2-0.9-37.8
			c1.4,2.1,2.1,4.6,1.9,7.1c-0.6,9.9,1.5,19.7,0.2,29.7c-1.3,9.6,3.9,18.6,5,28.1c0.8,7,4.2,13.2,4.8,20.2c-2.8-0.1-2.7-2.6-3.6-4.4
			C204.7,300.8,205.2,295.2,204.1,290z"/>
		<path class="st11" d="M331.9,347l1.4,3.9c0.3,0.4,0.4,0.9,0.3,1.3c-0.2,0.7-0.9,1.1-1.6,1c-1.1-0.5-2-1.2-2.6-2.2
			c-1.5-2.8-2.3-6.3-6.5-6.5c-0.5,0-0.9-0.2-1.3-0.4c-1.1-1-2.2-2-1.8-3.7c1.4-4.1,1.3-8.6,2.5-12.7c1-1.4,1.8-1.2,2.1,0.4
			c0.2,1.2,0.7,2.4,1.5,3.4c0.3,0.3,0.6,0.6,0.8,1c0.6,1.4,1.5,2.6,2.8,3.4C331.1,339.4,330.2,343.5,331.9,347z"/>
		<path class="st12" d="M475.9,313c0.3-1.8-1.9-2.3-2.1-3.9c-0.9-1.5-1.8-3-3.5-3.7c-2.1-1.9-4.8-3-7-4.8c-0.7-1.4-1.3-2.8-1.7-4.3
			c0.1-0.4,0.5-0.8,0.9-1c0.9-0.3,1.9-0.2,2.7,0.4c2.6,2.9,7,3.6,9,7.2c1.2,1.3,2.2,2.8,3.1,4.3c0.2,0.4,0.5,0.8,0.6,1.2
			c0.7,1.7,1.7,3.3,1.5,5.2c-0.4,3.1-0.3,6.2,0.1,9.2c0.2,3.2,0.8,6.5-1.4,9.5c-4.6,0.9-5.6-0.7-4.5-6.8
			C476.1,321.7,477.4,317.6,475.9,313z"/>
		<path class="st13" d="M262.1,180.1l-1.1,1.1c-0.3,0.2-0.8,0.2-1-0.1c0,0,0-0.1-0.1-0.1c2-2.9,4.3-8.1,7.3-6.9
			c3.5,1.4,0.1,6.1-0.2,9.4c-0.9,11.1-4.2,21.6-8.9,31.8c-0.8-0.6-1.3-1.6-1-2.6c1.8-4.8,1.8-10.2,4.9-14.6c2.4-4.4,4.5-8.9,1.9-14
			c-0.8-1.2-0.2-2.6-0.5-3.9S262.6,180.1,262.1,180.1z"/>
		<path class="st8" d="M205,385c-8.7-3.9-11.6-11.5-12-20.2c-0.4-7.4-2.4-14.6-2.8-22c0.2-7.7-2.6-15-2.2-22.7
			c2.4,6.7,3,13.8,3.7,20.7c1,10.2,2.6,20.3,3.7,30.5c0.4,3.5,1.7,6.3,5,8C202.7,380.5,203.6,383,205,385z"/>
		<path class="st3" d="M466.5,336.8c-0.2-0.1-0.5,0.1-0.5,0.3c0,0,0,0,0,0c-1.8,2.2-3.7,4.3-5.9,6.1c-1.4,1.3-3.4,1.7-5.1,0.9
			c-2-0.8-2.4-2.8-2.2-4.6c0.2-2.9-0.1-6,3.1-7.8c1.3,3.1,2.8,6.1,2.5,9.9c3-1.8,3-4.9,3.3-7.1c0.5-4.1,2.8-4.1,4.7-2.2
			s2.5-0.3,3.7-0.3c0.5,0.5,0.6,1.2,0.4,1.8c-0.2,0.6-0.6,1.2-1.1,1.6C468.7,336.2,467.6,336.7,466.5,336.8z"/>
		<path class="st14" d="M223.9,296.5l1.2,6.4c1.7,3.3,0.2,6.2-1,9.1c-0.3,0.8-0.7,1.6-1.2,2.4c-0.9,1.7-1,3.8-2.1,5.5
			c-0.6,0.9-1.3,1.8-2.1,2.5c-0.5,0.5-1,1-1.5,1.4c-0.8,0.6-1.8,0.8-2.7,0.5c-1.3-1.1-1-2.1,0-3.2c1.1-0.9,1.9-2.1,2.5-3.4
			C219.2,310.7,221.6,303.6,223.9,296.5z"/>
		<path class="st15" d="M292,318l1.1,1.1c2,2.3,0.8,5.3,1.5,7.8c0.2,0.4,0.3,0.9,0.4,1.3c0.6,1.5,1.8,0.4,2.7,0.5
			c0.4,0.2,0.8,0.5,1,0.9c0.9,4-0.3,8.7,4.2,11.4c0.5,1.4,1.4,2.6,2.7,3.4c0.6,0.4,0.9,1.1,0.9,1.7c-0.1,0.5-0.3,0.9-0.7,1.1
			c-2.5-0.5-4.9-1.2-6-3.9c-1.8-1.2-3.6-2.6-5.1-4.2c-3.1-2.2-2.8-5.6-2.9-8.8c-1-2.4,0.4-5-0.9-7.3l0,0
			C290.7,321.2,289.3,319.2,292,318z"/>
		<path class="st16" d="M473.9,304.1c-2.5-1.9-4-5.1-7.6-5.4c-1.5-0.1-1.1-1.7-1.3-2.7c-1.2-1.2-2.8-1.4-4.4-1.7
			c-2.1-1.3-5-0.8-6.7-3c-0.5-1.4,0.6-2.1,1.4-2.8c0.5-0.4,1.1-0.7,1.8-0.9c1.3-0.2,1.4,2.1,3,1.4c0.1,0.2,0.3,0.2,0.5,0.1
			c0,0,0.1,0,0.1-0.1c1.3,1.9,3.6,2,5.3,3.3c0.2,1.6,0.9,3.3,2.4,3.4c4.2,0.4,5.7,4.3,8.7,6.1c0.5,0.9,0.6,1.9,0.3,2.9
			C475.8,305.9,475,304.4,473.9,304.1z"/>
		<path class="st17" d="M455.8,331.7c-0.3,0.4-0.8,0.8-0.9,1.2c-0.4,3.6-2.8,8.4,0.8,10.5c3.3,1.9,5.8-2.7,8.4-4.8l1.9-1.5
			c-2.5,5.1-5.8,9-12.2,8c-1.2,0.6-1.9,0.1-2.5-0.9c-0.5-1.7,0.3-3.4,0.3-5.1c0.1-2.5-0.1-4.9,0-7.4s-0.5-5.4-4-5.8
			c-0.4-0.6-0.3-1.4,0.2-1.9c1-1.3,1.7-3.4,4-2c1.4,0.9,2.6,1.9,3.8,3.1C455.8,327.3,455.8,329.5,455.8,331.7z"/>
		<path class="st11" d="M338,320c-3.8-7.3-2.1-14.7,0-21.9c0.8-2.8,0.1-6.6,3.8-8.1c0.4-0.3,1-0.3,1.5,0c2.2,3.5,0,6.5-1.1,9.7
			c-1.1,2.3-1.1,5,0.2,7.3c0,1.8-1.4,2.2-2.7,2.6c-2.4,1.4-1.1,3.5-1,5.3S339.6,318.4,338,320z"/>
		<path class="st18" d="M247.2,247.3c-0.1,0.9-0.2,1.8-0.4,2.7c-0.2,3.9-1.2,7.6-1.4,11.5c-1.3,3.5-3.3,6.8-4.2,10.5
			c-0.5,0.7-1.5,0.8-2.2,0.3c-0.4-0.3-0.6-0.8-0.6-1.3c0.2-2,0.2-4,0.4-6c0.5-3,1.9-5.6,3.1-8.3c0.9-1.5,0.8-3.2,0.8-4.8
			c0-1.2,0-2.4,0.1-3.5c0.9-3.1,2.7-5.9,2.3-9.2c0-0.5,0.1-1,0.3-1.4c0.3-0.7,1.1-1.1,1.9-0.8c0.7,0.4,1.1,1.1,1.2,1.9
			C248.8,241.7,247.4,244.4,247.2,247.3z"/>
		<path class="st19" d="M349.9,277.7l0.8-0.8c1.9-0.4,2.9-2.2,4.5-3c0.4-0.3,0.8-0.6,1.2-0.8c1.5-0.9,3.2-1.1,4.9-0.7
			c3.8,1.6,4,4,1.5,6.9c-1,1-2.2,1.8-3.5,2.5c-2.2,1.2-3.8,3-5.8,4.4c-1.4,0.9-3.2,2.4-3.9-0.8c0.2-1.2,0.8-2.2,1.7-3
			c1-0.9,1.9-1.9,2.7-3c0.7-0.7,1.7-0.7,2.5-1.3c-1.1,0.3-2.2,0.9-3.1,1.6c-0.8,0.7-1.8,0.9-2.8,0.6
			C349.3,279.7,349.5,278.7,349.9,277.7z"/>
		<path class="st20" d="M436.4,307.7l2.1,0.4c1.8,3.4,2.5,7.4,1.9,11.2c-0.5,3.7-0.5,7.5-1.4,11.2c-0.4,1.2-1.8,1.8-2.9,1.3
			c-0.2-0.1-0.4-0.2-0.6-0.3c-0.1,2-0.7,3.1-2.9,2c-0.4-1.1-0.3-2.3,0.2-3.4c3.5-6.8,2.9-14,2.7-21.3
			C435.5,308.3,435.9,307.9,436.4,307.7z"/>
		<path class="st8" d="M265.1,313l0.1-9c3-1.8,2.1-5.1,2.8-7.8c0.9-1.4-0.4-1-1-1.2c0.7-2.3-2.9-5.3,1.2-7c0.3-0.5,0.6-0.5,0.9,0
			l2,4c1.3,4.8,0,9.3-1.3,13.9c-0.4,2.1-0.1,4.2-0.2,6.3C268.5,314.6,266.8,313.6,265.1,313z"/>
		<path class="st21" d="M316.3,280.9c0.3-7-2.6-13.9-0.3-20.9c1.4,1.7,1.1,3.8,1.1,5.7c0.3,10.8,0.6,21.5,0.7,32.3
			c0.1,3.3,0.5,6.6,1.3,9.8l-0.6,0.4c-0.9,0-1.7-0.6-2-1.5c-0.3-1.2,0.4-2.6-0.6-3.7v-4c-0.3-1.8-0.4-3.6-0.3-5.4
			c0-1.6,0.4-3.2,1.1-4.6C317.7,286.2,315,283.7,316.3,280.9z"/>
		<path class="st22" d="M300,342.9c1.3,2.4,3.7,3.2,6,4c1.2-1.3,2.8,0.2,4.1-0.4c0.4-0.1,0.8,0,1.2,0.1c1.3,0.4,2.2,1.8,3.7,1.8
			c1,0.2,2,0,2.8-0.6c0.7-0.5,1.7-0.5,2.5-0.2c0.8,2.1,4.7,0.1,4.5,3.5c-3.9,0.7-7.5,2.5-11.6,1.8c-6.3-1.1-10.3-5.6-14.4-9.9
			C299.1,342.5,299.5,342.5,300,342.9z"/>
		<path class="st23" d="M246,228c0-1.3,0-2.6,0-3.9c1.9-0.9,3.8-1.8,5.8-2.5c1.2-0.4,1.9,2.9,3.4,0.5c0.4,5.1-3,8.8-5,13
			c-0.3,0.3-0.8,0.4-1.2,0.2c-0.7-0.2,0-3.2-2-1c-1.2-1.1-1.6-2.4-0.7-3.8c0.6-0.6,0.7-1.6,0.1-2.2C246.2,228.2,246.1,228.1,246,228
			z"/>
		<path class="st24" d="M407.8,345.3l-1.8-0.6c-3.4-2.3-6.5-4.8-8.3-8.7c-0.2-0.3-0.2-0.7,0.1-1c0,0,0.1-0.1,0.1-0.1
			c2.7,1.3,1.4-1.5,2.1-2.1c3.8,4.2,9.3,4.5,14.3,5.8c0.5,0,0.9,0,1.4,0.1c2,0.3,4-0.4,5.5-1.9c0.4-0.2,0.9-0.4,1.4-0.5
			c0.8,0,1.5,0.2,1.7,1.2c-0.8,3-3,4.2-5.8,4.7c-5.1,0.4-10.1,0.1-13.8-1.1C406.2,341.2,408.5,341.7,407.8,345.3z"/>
		<path class="st9" d="M447.9,324c0,0.7,0.1,1.4,0.1,2c1.4,1.4,1,3.1,0.6,4.6c-1.6,5.4-1.6,11.1,0,16.5l1.1,1.9
			c0.8,0.5,0.7,1.2,0.3,1.9c-4.7-2-7-7.4-5.8-13.5c0.4-2.1,2.6-4.7-1.1-6.1c-0.9-0.3-0.5-0.8,0.3-1.3
			C445.5,328.5,445.5,325.3,447.9,324z"/>
		<path class="st25" d="M476.7,305l0.3-3c0.8,3.6,2.9,6.5,4.8,9.6c4.8,7.8,3.2,17.2-3.8,23.5c-0.2,0.3-0.7,0.4-1,0.2
			c-0.1,0-0.1-0.1-0.2-0.2c-0.2-1.1,0.5-1.7,1.2-2.4c3.7-5.4,3.3-11.4,2.5-17.5c-0.2-0.4-0.3-0.8-0.4-1.3c-0.3-2.3-1.9-4-3-5.9l0,0
			C476.3,307.1,476.2,306,476.7,305z"/>
		<path class="st26" d="M315.1,233.6c0-12.5-0.1-24.9-0.1-37.4c0-1.1-0.2-2.4,1.1-3.1c0.5,0.6,0.6,1.3,0.3,2
			c0.2,7.3,0.4,14.7,0.8,22C317.4,222.6,316.7,228.2,315.1,233.6z"/>
		<path class="st27" d="M360.8,350.2l-0.9-1c0-1.5-2.7-1.5-1.9-3.5c1-0.7,2.3-1,3.5-0.7c0.9,0.2,1.8,0.5,2.6,1
			c2,1.2,3.8,0.5,5.6-0.5c0.9-0.4,1.9-0.4,2.8,0c0.4,0.2,0.8,0.6,1,1.1c0.6,1.7,0.6,3.6-0.1,5.2c-0.3,0.4-0.7,0.8-1.1,1
			c-1.8,0.3-3.6,0.4-5.4,0.1C364.8,352.1,362.8,351.2,360.8,350.2z"/>
		<path class="st28" d="M355,317.1c-0.4,0.3-0.8,0.6-1.2,0.8c-7.2,1.6-7.3,1.7-6.7,8.9c0.3,0.6,0.4,1.3,0.3,2
			c-0.5,0.8-2.8,0.7-1.3,2.7c0.9,1.2,1.5,3-1,3.5c-3.6-3.9-3.8-9.4-6.3-13.9c1.5-0.9,2.2,0.2,3,1.1c0.5,0.6,0.9,2.1,1.3,1.9
			c1.3-0.6,0.6-2.3,1.2-3.4c0.5-1.4,1.4-2.7,2.5-3.8c2.4-1.5,5.3-1.6,7.8-0.4L355,317.1z"/>
		<path class="st29" d="M373.1,345.8l-3.1,0.5c-1.9,0.9-3.8,1.9-5.9,0.8l-2-1c-4.2-1.5-8.4-2.9-11.7-6.1c-0.8-1.2-1.2-2.6-1.1-4
			c0.1-0.4,0.4-0.8,0.8-1.1c0.7-0.1,1.4,0.2,1.7,0.8c0.9,1.6,1.8,2.9,3.9,3c1,0.8,2.6,0.5,3.3,1.8l1.9,1.7c3.9,2.6,8.3,1.7,12.5,2.3
			C373.4,344.9,373.3,345.4,373.1,345.8z"/>
		<path class="st9" d="M161.1,210.8c2.5,8.8,6.3,17.2,8.1,26.2c-3.2-1.6-4.1-4.4-4.8-7.9C163.2,223,161.3,217.1,161.1,210.8z"/>
		<path class="st30" d="M350,285c0.6,2.6,1.8,0.9,2.6,0.3c2.1-1.5,3.5-3.8,6.2-4.3c-0.4,3.5-3.9,4.7-5.7,7.1
			c-0.3,0.3-0.7,0.5-1.1,0.8c-2.5,1.1-3.9,3.3-5.3,5.5c-1.4,1.2-2.3,0.7-2.7-0.9c-0.3-1.2,0-2.6-1.2-3.5l-1.2-0.1
			c-1-1.5-0.5-2.4,1.1-3c1-0.6,2.1-1,3.3-1.2C347.5,285.9,348.6,284.4,350,285z"/>
		<path class="st31" d="M345.1,305.9c3.5,2.9,6.9,0.1,10.2-0.6c2.7-0.6,4.9-1.2,7.5,0.2c3.8,2,8.4,0.5,12.2,2.6
			c0.3,0.2,0.4,0.5,0.4,0.8c-0.1,0.3-0.1,0.4-0.2,0.4c-0.4,0.3-0.8,0.4-1.3,0.5c-0.9,0-1.8-0.3-2.8-0.3c-1.4-0.1-2.8,0-4.2-0.1
			c-0.7,0-1.4-0.1-2.2-0.2c-4.5-2.1-9-0.3-13.4,0.3c-1,0-2,0.1-3,0.2c-1.9,0.2-3.8,0.5-4-2.3C344.4,306.6,344.7,306.2,345.1,305.9z"
			/>
		<path class="st32" d="M262,198c-0.4,5.9-3.6,11.2-3.9,17.2c0.3,1.7-0.5,3.3-2,4.1c-1.6-1.4-0.1-2.5,0.4-3.7
			c-0.8,1.1-1.6,2.4-3.4,1.6c-0.8-0.9-0.2-1.8,0.2-2.6c2.9-2.6,1.8-6.4,3-9.4c1.4-2.6,0.7-5.8,2.6-8.2
			C259.9,197.6,260.5,199.1,262,198z"/>
		<path class="st33" d="M324.8,351.2c-0.6-2.6-5.2,1-4.7-3.1c0.7-1.1,1.9-1.4,3-1.9c2.4-1,4.4-1.2,5.2,2c0.4,1.1,1,2,1.9,2.8l1.9,2
			c1,1.4,2.4,2.7,1.4,4.7c-0.5,0.5-1,1-1.7,0.5L328,354C326.7,353.3,325.9,351.9,324.8,351.2L324.8,351.2z"/>
		<path class="st34" d="M459.4,257.9c2.7,0.5,4.4,2.8,6.7,4.1c0.2,0.2,0.3,0.5,0.3,0.8c0,0.3,0,0.4-0.1,0.4c-1.4,1.3,0.8,3-0.5,4.3
			c-3.1-0.1-5.9-3.2-9.2-0.9c-0.5-0.1-0.8-0.4-0.9-0.9c0-0.7,0.3-1.3,0.7-1.8c0.5-0.5,1.2-0.9,1.2-1.8c-0.9-1-3.3-1.1-2.5-3.1
			S457.7,257.4,459.4,257.9z"/>
		<path class="st35" d="M374,309.1c0.3,0,0.6,0,0.8,0c0.4,0.2,0.7,0.5,0.9,0.9c0.5,1.5,0.7,3,0.7,4.6c-1.2,1.1,0.6,2.9-1,3.9
			c-0.9,0.3-1.9,0.1-2.5-0.6c-5.8-2.8-11.8-2.6-17.9-0.9c0.1-0.2,0.1-0.3,0-0.5c1-2.7,3.4-3.4,5.8-4.1c1.1,0.1,2.2,0.4,3.3,0.7
			c1.5,0.4,3,0.6,4.5,0.7c2.4,0.5,2.4-1.8,3.4-3C372.6,310.2,373.3,309.6,374,309.1z"/>
		<path class="st36" d="M433,334c1.9-0.5,1.9-4.4,5-3c0.5,0.7,0.6,1.4-0.2,1.9c-1.1,0.6-0.9,1.7-1,2.7c-3.3,3.1-5.2,7.6-9.8,9.4
			c-0.3-0.3-0.5-0.7-0.5-1.2c0.1-1.1,2.5-1.6,0.7-3.1c-0.1-0.7,0.1-1.4,0.5-1.9c1.6-0.7,2.7-2.2,2.9-3.9
			C431.2,334.1,431.9,333.5,433,334z"/>
		<path class="st37" d="M216.9,317.8c1.2,2.6-4,3.3-1.9,6.2c0.3,0.4,0.3,0.9,0,1.3c-0.8,0.6-1.8,0.8-2.8,0.6c-2-0.4-3.2-1.9-4.5-3.1
			c-0.8-0.8-1.5-1.7-2-2.7c-0.1-0.4,0.1-0.9,0.3-1.3c0.9-0.6,2.4,0.4,3-1c2.5-0.6,0.6-2.4,1-3.5c-0.1-1,0.3-1.9,1.1-2.5
			c0.9,1.4,1.4,3,1.5,4.7c0.1,1.2-0.4,3,0.9,3.6C215.3,320.9,215.6,318.3,216.9,317.8z"/>
		<path class="st2" d="M253,217l3.6-1.3c-0.2,1.2-0.3,2.4-0.5,3.6c0.2,1-0.2,2.1-1,2.7c-2.9,1.3-5.9,2.4-9.2,2c1.8-2,0-5.1,2-7
			C249.7,221.9,251.4,215.8,253,217z"/>
		<path class="st38" d="M352.9,288c1.3-3,4.9-3.9,6.1-7l3-2.1c3.8-2.6,2.5-4.6-0.7-6.4c-0.4-0.2-0.7-0.6-0.6-1.1l0.4-0.5
			c1.6,1,4.6-1.7,5,1s1.4,6-2.2,8.2s-6.6,5.2-9.9,7.9c-0.3,0.3-0.7,0.3-1,0.1C352.9,288.1,352.9,288,352.9,288z"/>
		<path class="st39" d="M269.1,288h-0.5h-0.5c-0.5-2.8-0.6-5.6-0.1-8.4c0.5-2.7-1-4.5-3-4.8c-3-0.4-1.8,2.4-1.9,4
			c-0.2,3.8-0.2,7.5-0.2,11.3c-2.3-4.8-0.6-9.8-0.8-14.6c0-1.1,0.7-3.6,2.5-2.9c2.2,1,5.8,2,5.2,5.1
			C269.1,281.1,269.7,284.6,269.1,288z"/>
		<path class="st3" d="M475.9,313c2.8,4.5,0.2,8.5-1.1,12.6c-0.6,1.6-1.6,3.1-2.2,4.8c-0.4,0.5-0.9,1-1.7,0.6
			c0.2-2.6-2.3-5.4,0.4-7.9c0.2-0.2,0.1-0.9,0.2-0.9C478.4,321.7,474.8,316.2,475.9,313z"/>
		<path class="st40" d="M398,335l-0.2,1.1c-3-2.7-4.3-6.3-4.7-10.1c-0.7-7.1-0.4-14.3,1-21.3c0.2-1.7,1.4-3.1,3-3.7
			C393.4,312.4,391.7,323.8,398,335z"/>
		<path class="st41" d="M240.9,271.9c-0.4-4.1,2.8-6.8,4-10.2c0.5,0.2,0.6,0.8,0.4,1.3c0,0.1-0.1,0.2-0.2,0.2
			c-3.7,9.7-4.7,20.2-7.9,30c-0.8-6.3,2.6-12,2.8-18.2C239.8,273.9,240.1,272.8,240.9,271.9z"/>
		<path class="st42" d="M457,287.9l-1.1,1.1c-6.4,1.7-9.7-0.9-11.3-8.9c0-2-0.3-4,0.8-5.8c0.3-0.5,1-0.7,1.5-0.5
			c0.7,0.9,0.7,2.2,0.1,3.2c-0.4,1.5-0.7,2.9,0.6,4.2C449.8,284.7,454.5,284.8,457,287.9z"/>
		<path class="st43" d="M341.1,322.9c-0.6-0.8-1.1-1.8-2.3-1.8L338,320c0-3.6-1.5-7.2-0.7-10.9c0.3-1.6,0.9-2.3,1.8-0.2
			c0.8,0.6,1.4,1.4,1.7,2.3c0.7,2,0.2,4.3,1,6.3c0.2,0.7,0.4,1.4,0.6,2.1C342.2,320.8,343.7,322.6,341.1,322.9z"/>
		<path class="st9" d="M160.1,201.9c2,2.5,0.9,5.4,0.9,8.1c-1.6,0.1-1.7,0.9-1.6,2.3c0.1,1.9-1.3,3.5-3.1,2.9s-1.4-2.8-1-4.3
			c0.2-1,0.9-1.8,1.8-2.3C161,207.6,159.9,204.4,160.1,201.9z"/>
		<path class="st44" d="M343,290c2,0.1,2,1.5,2,3s0.7,1.5,1.7,0.9c0.7,0.2,0.8,0.7,0.4,1.2c0,1.9-1.1,3.4-2,5
			c-0.8-0.1-1.4,0.5-2.1,0.5c-0.4,0-0.8,0-1.1-0.1c-0.4-0.1-0.7-0.4-0.9-0.7C341.2,296.6,344,293.7,343,290z"/>
		<path class="st45" d="M414,287c5.4,3.1,11,5.9,15.1,10.7c0.3,0.4,0.3,0.9,0.1,1.4c-3.5-0.5-6-3.5-9.4-4.2c-1.9-2-3.9-3.8-5.7-5.9
			l0,0c-0.6-0.4-0.7-1.3-0.2-1.8C413.9,287.1,413.9,287,414,287z"/>
		<path class="st46" d="M459.4,257.9c-1.4,0.2-3-0.1-3.9,1.5c0.7,2,2.9,0.6,3.7,1.9c0.1,0.1,0.1,0.3,0,0.5c0,0.1-0.2,0.2-0.3,0.4
			c-0.8,0.8-1.8,1.4-2.9,1.8c-0.6,0.2-1.3,0.3-2,0.3c-1.5,0-3-0.5-4.6-0.4c-0.4,0-0.9,0-1.3,0c-0.4-0.1-0.8-0.3-1.1-0.6
			C451.1,261.1,453.8,256.1,459.4,257.9z"/>
		<path class="st10" d="M350.9,339.1L362,346h-4c-0.7,0.6-1.6,0.6-2.3,0.1l-0.4,0.1L355,346c-1.5-0.9-2.5-2.3-4.2-2.9l-0.9-0.9
			c-0.3-0.7-0.5-1.4-0.5-2.1C349.6,339.4,350,338.8,350.9,339.1z"/>
		<path class="st9" d="M437.7,332.9l0.3-1.9c1.6-7.6,2.7-15.2,0.5-22.9c2.3,1.6,2.1,4.3,2.4,6.6c0.6,5.4-0.7,10.8-1,16.2
			c0.1,1-0.7,2-1.7,2C438,332.9,437.9,332.9,437.7,332.9z"/>
		<path class="st26" d="M312.9,193.6c0,9.6,0.1,19.2,0.1,28.8c0,1.3,0.2,2.7-1.1,3.6C312,215.2,311.8,204.4,312.9,193.6z"/>
		<path class="st29" d="M372.9,318h3.1c0.2-0.3,0.6-0.5,1-0.5c0.4-0.3,1.3,0.7,1.2-0.6c-0.5-0.6-0.7-1.3-0.5-2.1
			c0.3-0.6,0.8-1,1.4-1.3c0.7-0.2,1.4,0,1.8,0.5l2,1c0.7,4.7-0.5,5.9-5.5,5.9c-1.8,0-3.1-1.1-4.4-2
			C372.8,318.6,372.8,318.3,372.9,318z"/>
		<path class="st47" d="M268.9,313c0-2.3,0.1-4.7,0.2-7c0.2-0.3,0.6-0.4,0.9-0.2c0.1,0.1,0.2,0.1,0.2,0.2c-0.5,6.9-0.1,13.9,1,20.8
			c0.5,1,0.5,2.2,0.1,3.2c-2.9,0.1-2.2-2.5-3.1-4c-0.6-3.4-0.4-6.9-0.9-10.3C267.5,314.6,268.1,313.7,268.9,313z"/>
		<path class="st9" d="M156.1,195l2.8,4.1c-0.8,0.7-1.1,1.8-0.7,2.7c0.2,1,0.6,2.1-1.1,2.1c-1.2,0-1.9-0.4-1.6-1.8
			C156.1,199.8,151,197,156.1,195z"/>
		<path class="st46" d="M360.8,350.2c2.2,0,4.2,1,6.2,1.8c1.9,0.8,4.1,0.8,6,0.1l0,0c0.9-0.8,1.1-2.5,2.8-2.4c1.5,0.6,2.6,1.6,2,3.4
			s-2,1.4-3.4,1.3c-1,0.1-2-0.1-2.9-0.4C367.4,354.5,363.6,353.7,360.8,350.2z"/>
		<path class="st48" d="M456.1,266.2c3.5-2.5,6.6,0.1,9.8,0.8c1.6,0.2,3,1.2,3.9,2.5c0.9,1.7,2.7,2.1,4,3.2c-2.6,2.6-4.5,0.7-6-1.2
			c-3.1-4-6.9-5.9-12-4.6l-0.1-0.5L456.1,266.2z"/>
		<path class="st49" d="M371.6,354.1l2.4-0.1c1.3-0.1,2.9,0.2,3.2-1.3s-1.2-2.1-2.3-2.7c-2.1-0.6-0.9-2.9-2-3.9l0.1-0.2
			c0-0.4,0-0.7,0-1c2.3-1,2.1,1.2,2.9,2.2c0.1,0.3,0.2,0.6,0.4,0.9c1.8,1.9,3.6,4.3,1.9,6.6S373.8,355.1,371.6,354.1z"/>
		<path class="st12" d="M454.2,290.9c1.8,2,5.4,0.1,6.8,3.1c0.8,0.4,1.5,0.8,1,1.9l-0.1,0.1c-0.6,0.8-1,1.9-2.1,2.3
			c-1.1-0.2-2-0.7-2.8-1.5c-0.1-0.2-0.1-0.5-0.1-0.7c-0.8-2.2-5.2-1.6-4.1-5.3C453.2,290.5,453.8,290.5,454.2,290.9z"/>
		<path class="st50" d="M326.1,331.9c-1.4,0.7-2.2,0.5-2.1-1.3c0-1.3,0.3-2.7-1-3.6c-1.4,1-2.5,0.3-3.5-0.6
			c-1.1-1.2-1.7-2.7-1.6-4.4c-0.1-1,0.2-2.1,0.8-2.9c3.4-0.1,2.5,3.6,4.4,4.9c1.1,1.4,1.8,3.1,2.1,4.9
			C325.4,329.9,326.5,330.6,326.1,331.9z"/>
		<path class="st17" d="M270.9,330l0.3-3.2c0.2,8.1,4.1,16,2,24.3c-0.6-0.4-0.9-1-1.1-1.6c-0.7-2.1,0-4.4-0.9-6.5
			c-0.2-0.4-0.4-0.9-0.6-1.3c-0.5-1.4-0.8-3-0.9-4.5C269.9,334.7,269,332.1,270.9,330z"/>
		<path class="st51" d="M473.8,272.8c-2.3,0.3-4.4,0.2-5-2.7c2.3-1.3,3.1-2.8,0.4-4.5c-1.2-0.8-2.7-1.2-3.2-2.7
			c-0.1-0.3-0.1-0.6-0.1-0.9C473.7,263.9,474.1,264.5,473.8,272.8z"/>
		<path class="st52" d="M326.1,331.9c-0.5-1-1.4-1.7-1-3c6.4,4.5,6.1,11.5,6.8,18.1c-3-3.1-0.4-8.1-3.7-11.1
			C326.8,334.9,326.7,333.3,326.1,331.9L326.1,331.9z"/>
		<path class="st53" d="M272.8,349l0.3,2.1c0.4,2.1,0.7,4.2,0.9,6.4c0.1,2.2-0.5,4.6-2.8,5.4c-1.8,0.6-4.4,1.3-5.1-1.9l2.8,0.9
			c3.1-1.4,2.2-4,2-6.4S269.9,350.4,272.8,349z"/>
		<path class="st21" d="M323,324c-2.4-0.8-2.1-3.8-4-5c-2.4-0.9-0.5-3.2-1.5-4.6c0.2-2.1-0.6-4.4,1.2-6.2l0.5-0.3
			C319.5,313.4,320.8,318.9,323,324z"/>
		<path class="st54" d="M376,347c-1.2-0.4-1.3-2.3-2.9-2.2c-4.2-0.2-8.9,1.2-12.3-2.7l4.2-0.1c1.3,2.8,3.4,1.2,5.4,1.2
			C372.9,343.1,377.3,341.1,376,347z"/>
		<path class="st55" d="M454,353.1c4-0.5,7.2-3,11-4.1c-3.2,3.6-6.6,6.5-11.9,4.8C453.2,353.4,453.6,353.2,454,353.1z"/>
		<path class="st48" d="M457,287.9c-3-2.5-8.2-1.8-9.3-6.8c0.3-0.1,0.6-0.3,0.9-0.3c2.7,4.3,9,3.6,11.5,8.2
			C458.4,290.2,458.1,288.1,457,287.9z"/>
		<path class="st56" d="M337.9,355.3c1.7,2.7,4.6,5.3,1.2,8.7c-1.7-1.5-1.3-4.7-4.2-5.2c-0.6-0.3-1.1-0.9-1.3-1.5
			c0-0.7,0.2-1.4,0.8-1.9c0.5-0.5,1.2-0.8,1.9-1C337,354.4,337.7,354.4,337.9,355.3z"/>
		<path class="st57" d="M471,331l1.1-1c2.7,1.1,4.4,2.7,3.1,5.9c-0.5,0.6-1.3,1-2,1.1c-2-0.1-4.2-0.2-3.2-3.3l0.1-1.7L471,331z"/>
		<path class="st58" d="M373,319c1.4,0.5,2.8,0.9,4.2,1.1c3.6,0.3,6.2-0.7,5.7-5.1c1.9,2.3,1.7,4.7-0.9,5.7
			C379,321.8,375.2,323.7,373,319z"/>
		<path class="st59" d="M234,252c0.2,6.2-2.2,11.7-4.9,17.1C229.5,263,232.6,257.8,234,252z"/>
		<path class="st60" d="M335,358c4.5-0.1,3.7,3.4,4,6.1c-3.6,2.2-5.1,0.1-6-3.1C335.8,361.4,334.8,359.3,335,358z"/>
		<path class="st32" d="M211.2,311.8L211,315c-0.6,0.6-1.6,0.7-2.4,0.2c-2.1-1.6-1.9-4-2-6.2c0.4-1.5-0.4-3.6,2.1-3.9
			c0.3,1.8,0.4,3.7,2.2,4.9L211.2,311.8z"/>
		<path class="st40" d="M316.3,195.1l-0.3-2l0.1,0.1c0.7-2.4,0.3-4.4-2.1-5.6c-0.4,0-0.8-0.2-1.1-0.5c-0.3-1.6,0-3.3,1.7-3.6
			c1.9-0.4,2.2,1.5,2.6,2.9C318.3,189.4,319.1,192.5,316.3,195.1z"/>
		<path class="st45" d="M452.9,291c0.3,2.5,4.1,2.3,4,5.1l-9.8-5.2c-0.6-0.4-0.8-1.2-0.5-1.9c0-0.1,0.1-0.1,0.1-0.1
			C449.2,288.5,451,289.8,452.9,291z"/>
		<path class="st61" d="M446.7,289.1l0.4,1.9c-5.5-3.3-5.5-8.6-5.1-14.1c0.5-0.2,1,0,1.3,0.3c1.1,1.7,0.6,3.7,1.4,5.5
			C445,284.9,447.1,286.6,446.7,289.1z"/>
		<path class="st62" d="M335,358c0.1,0.3,0.3,0.5,0.5,0.8c0.6,1.3,3.4,2,1.6,3.7c-1.5,1.4-2.6-1.1-4.1-1.6c-0.4-1-0.9-1.9-1.3-2.8
			l1.5-1.3c0.4-0.4,0.6-0.3,0.8,0.2L335,358z"/>
		<path class="st32" d="M259.9,181l1.1,0.2c-1.3,2.5-5.2,4-3,7.8c0.4,1.7-0.8,1.8-2,2l-1.2-0.1C256.1,187.4,255.7,183,259.9,181z"/>
		<path class="st45" d="M350.9,339.1L350,340c-2.2,0.3-2.7-2.2-4.3-2.9c-0.4-0.1-0.7-0.6-0.6-1c0-0.1,0-0.1,0.1-0.2
			c2.3-1.1,0.7-3.5,1.8-5.1c2.7,0.3,1.5,3.2,2.9,4.3L350.9,339.1z"/>
		<path class="st41" d="M428.9,299.2c0.1-0.5,0.1-1,0.2-1.5c3.5,2.5,6.4,5.6,7.3,10l-0.4,1.2c-0.7,0.4-1.2,0-1.6-0.5
			c-0.9-1.7-1.5-3.5-3-4.8c-0.9-1-2-1.5-2.8-2.6C428.3,300.4,428.4,299.7,428.9,299.2z"/>
		<path class="st63" d="M414,287v2c-2.2-1.6-4.6-2.9-7.5-2.1C409.1,283.2,411.6,283.6,414,287z"/>
		<path class="st64" d="M347,287h-4.1c1.2-3.3,3.2-6.1,6-8.2c2.3,2.7-2.3,4.1-1.3,6.5C347.7,285.9,347.5,286.6,347,287z"/>
		<path class="st65" d="M474.9,337.8c-0.9,3.5-3.3,5.9-5.8,8.4l-0.5-0.5c-0.9-1.7,0-3.2,0.8-4.6c1-0.9,2-1.8,3.1-2.6
			C473.1,337.9,474,337.6,474.9,337.8z"/>
		<path class="st66" d="M270.1,306H269c1.6-4.5,2.3-9.2,2-14C273.6,296.8,271.3,301.4,270.1,306z"/>
		<path class="st45" d="M249.1,235.1h1.1c-1.2,4-0.8,8.4-2.9,12.3c-1.2-3.2,1.2-6.2,0.6-9.4C247.2,236.5,247.6,235.6,249.1,235.1z"
			/>
		<path class="st63" d="M347,331c-0.5,1.7,1.2,4.3-1.9,5l-0.1-1c2.6-2.9-1.4-3.7-1.8-6c1.1-0.7,2.5-0.6,3.5,0.2
			c0.5,0.3,0.7,1,0.4,1.5C347.2,330.8,347.1,330.9,347,331z"/>
		<path class="st26" d="M311.9,231.5c-0.4,5.5,1.3,11.2-1,16.6C310.4,242.5,310.2,236.9,311.9,231.5z"/>
		<path class="st67" d="M463.9,300.3l7,4.7c0.3,0.2,0.5,0.4,0.3,0.6s-0.2,0.3-0.3,0.3c-3.2-1.7-6.6-3.1-9.2-5.7
			c0.1-0.4,0.4-0.8,0.8-0.9C463.1,299.3,463.7,299.7,463.9,300.3z"/>
		<path class="st48" d="M447.1,277c0-1,0-1.9,0-2.9c-0.1-2.8,1.8-4.2,3.9-5.5c0.7-0.2,1.5-0.1,2,0.4C451,271.7,449,274.3,447.1,277z
			"/>
		<path class="st68" d="M245.1,263.2l-0.2-1.5c0.4-3.9,0.5-7.9,2-11.7C247,254.5,247,259,245.1,263.2z"/>
		<path class="st3" d="M139.1,166c-0.4-0.3-0.9-0.4-1.2-0.8c-0.8-1.1-2-2.3-0.6-3.8c0.6-0.6,1.2-1.2,2-0.4c1.5,1.4,1.2,2.8,0,4.1
			C139.1,165.3,139.1,165.7,139.1,166L139.1,166z"/>
		<path class="st38" d="M352.1,275.2c2.6-2.2,4.1-6.8,9-4.4L361,271c-1.5,1.4-3.5,1.9-5.2,2.9l0.1-0.1
			C354.9,274.9,353.8,275.8,352.1,275.2z"/>
		<path class="st30" d="M343,300c0.7-0.2,1.5-0.9,2.1,0.2v5.7l-0.4,1.2c-1.1,0.2-2.2-0.5-2.5-1.6C341.6,303.5,341.6,301.6,343,300z"
			/>
		<path class="st69" d="M380.9,314H379c-3.2,0.5-3.3-2.1-4-4c0-0.3-0.1-0.6-0.1-0.8c0-0.4,0.1-0.8,0.2-1.2
			C377,310,379.5,311.5,380.9,314z"/>
		<path class="st10" d="M347,285c-1.5-0.1-1.6-0.7-0.7-1.8c1.1-1.3,2.9-2.3,2.6-4.5c0.3-0.4,0.7-0.7,1-1.1c0,0.9,0.4,1.8,1.1,2.3
			c0.3,0.4,0.4,0.9,0.2,1.3C350.1,282.9,349,284.5,347,285z"/>
		<path class="st24" d="M347.1,295.1c-0.1-0.4-0.2-0.8-0.4-1.2c1.1-2.6,1.8-5.4,5.2-6c0.6,2.7-2.3,3.2-3.1,5L347.1,295.1z"/>
		<path class="st29" d="M347,331c0-0.6-0.1-1.2-0.2-1.9c0.1-0.8,0.2-1.5,0.3-2.3c1.9,1.6,0.9,4.5,2.6,6.3c0.9,0.4,0.8,1.1,0.4,1.8
			l-0.4,0.4C347.4,334.8,348.5,332,347,331z"/>
		<path class="st48" d="M337.9,355.3l-1.8-0.4c-1-0.3-1.9-1-2.3-2c-0.2-0.4-0.4-0.7-0.6-1.1c0-0.3,0-0.6,0.1-0.9
			C336.5,350.5,337.2,352.9,337.9,355.3z"/>
		<path class="st42" d="M442.9,277.2l-0.8-0.3c0.4-3-0.3-6.2,1.9-8.9l0.6,0.5c0.4,0.9,0.6,2,0.4,3
			C444.1,273.4,444.7,275.7,442.9,277.2z"/>
		<path class="st70" d="M447,263l1.1,0.2c0.3,1.4,0,2.8-0.8,3.9c-0.8,0.9-2,1.3-3.1,0.9l-0.3-0.1C444.4,266,444.9,264,447,263z"/>
		<path class="st38" d="M348.8,292.9c0.1-2.2,2.3-3.2,3.1-5c0.3-0.1,0.6-0.1,1,0l1.2,0.1C353,290.3,351.1,292,348.8,292.9z"/>
		<path class="st29" d="M345.6,337.1c2,0.1,3.1,1.6,4.3,2.9c0,0.7-0.1,1.5-0.1,2.2C348.2,340.7,346.5,339.2,345.6,337.1z"/>
		<path class="st26" d="M313,187.1c0.3-0.1,0.5-0.2,0.7-0.3c2.2,0.1,2.3,1.5,2.1,3.2l-2.8,1L313,187.1z"/>
		<path class="st11" d="M453,269l-2,0.1c0.2-3.2,2.2-4.1,5.1-4l0.1,1.2c-0.1,0.2-0.2,0.5-0.3,0.7C454.4,267,454,268.4,453,269z"/>
		<path class="st15" d="M300,342.9l-1.2,0.1c-2.3-0.4-3.2-2.2-4.1-4C297.1,339.5,298.4,341.4,300,342.9z"/>
		<path class="st71" d="M221.9,385c-0.8,0.3-1.6,1.4-2.4,0.2c-0.3-0.5-0.2-1.2,0.1-1.7c0.9-0.9,1.7-0.4,2.3,0.4
			C221.9,384.3,221.9,384.7,221.9,385z"/>
		<path class="st72" d="M474.9,337.8l-1.8,1.4c-0.5-0.4-0.8-1.1-0.6-1.8c0.2-0.7,0.9-0.9,1.4-1.4l1.1-1c0.4-0.5,1-0.5,1.5-0.2
			c0.1,0.1,0.1,0.1,0.2,0.2h1.3C477.2,336.2,475.1,336,474.9,337.8z"/>
		<path class="st66" d="M454,353.1l-0.9,0.8c-1-1-2-1.9-3-2.9c-0.1-0.6-0.2-1.3-0.3-1.9C451.6,349.9,453.1,351.3,454,353.1z"/>
		<path class="st73" d="M292,318c-1.4,1.5-0.4,3.4-1,5.1c-1.1-2.2-1.1-4.8,0.1-7C292,316.3,292,317.2,292,318z"/>
		<path class="st67" d="M457,296.9l3,1c1.5-0.1,2.3,0.5,2,2.1l-0.3,0.4C460,299.4,457.7,299.1,457,296.9z"/>
		<path class="st48" d="M465.9,292.4c-1.7-1.2-4.9,0-5.3-3.3C462.4,290.1,464.6,290.5,465.9,292.4z"/>
		<path class="st54" d="M364.9,342c0.5-2,1.7-2.4,3.7-2.9C367.7,341,366.7,341.9,364.9,342z"/>
		<path class="st54" d="M376.6,340.4c0.1,0.9-0.3,1.3-0.8,1.2c-0.6-0.2-1.1-0.6-1.4-1.1c-0.2-0.4-0.1-0.8,0.3-1
			c0.2-0.1,0.5-0.1,0.7-0.1C375.9,339.5,376.3,340.1,376.6,340.4z"/>
		<path class="st10" d="M352.1,275.2l3.8-1.5c-0.9,2.5-3,3-5.3,3.1L352.1,275.2z"/>
		<path class="st73" d="M291,323c2,2.2,0.9,4.8,0.9,7.3C290.9,328,290.6,325.5,291,323z"/>
		<path class="st74" d="M455.7,325.1c-1.7-0.3-3.1-1.5-3.7-3.1C453.8,322,455.4,323.3,455.7,325.1z"/>
		<path class="st45" d="M350.8,343.1c2.2-0.2,3.3,1.3,4.2,2.9C353.1,346,351.4,344.8,350.8,343.1z"/>
		<path class="st75" d="M354.9,339c-1.9-0.1-3.4-1.4-3.8-3.2c0.7-0.3,1.4-0.4,1.7,0.6c0.6,0.6,1.3,1.1,2,1.7
			C355.5,338.3,355.5,338.6,354.9,339z"/>
		<path class="st76" d="M355.7,346.1l2.3-0.1c0.6,1.1,2.4,1.5,1.9,3.2L355.7,346.1z"/>
		<path class="st3" d="M148.7,148.1c0-1.3,1-2.5,2.2-2.8C151.6,147.1,150.2,147.2,148.7,148.1z"/>
		<path class="st16" d="M470.9,306c0.1-0.3,0.1-0.7,0-1c1.7,0.8,3.2,1.8,3,4.1L470.9,306z"/>
		<path class="st65" d="M465.6,348.9l1.4-2.5c0.4-1,1.1-0.9,1.8-0.4l0.2,0.3C468.1,347.3,467.3,348.6,465.6,348.9z"/>
		<path class="st77" d="M354.9,339c0-0.3,0-0.6-0.1-0.9c1.7,0.1,3.4,0.3,4,2.3L354.9,339z"/>
		<path class="st22" d="M324.7,351.1c1.5,0.3,2.8,1.4,3.3,2.9C326.4,353.8,325.1,352.7,324.7,351.1z"/>
		<path class="st77" d="M352.8,336.4l-1.7-0.6l-1-0.9c-0.1-0.6-0.3-1.2-0.4-1.8C351.3,333.4,352.6,334.7,352.8,336.4z"/>
		<path class="st9" d="M442.9,323.8c0.8-0.1,1,0.3,0.9,0.8c-0.1,0.4-0.3,0.8-0.7,1c-0.3,0.1-0.6,0-0.8-0.3c-0.1-0.1-0.1-0.3,0-0.4
			C442.5,324.4,442.7,324.1,442.9,323.8z"/>
		<path class="st78" d="M158.1,181c2-3.2,0.5-6.7,1-10c1.8-3.2,2.5-6.8,4.1-10.1c2-0.6,3.7-1,2.9,2.2l-1.4,2.6
			c4.1,0.1,6.1-3.5,9.4-4.6c0.8,1,2.1,1.2,3,2l0,0c-2.3,3-0.1,6,0,9h-2c-0.8,0.2-1.3,1-2.1,1.3c-0.4,0.1-0.8,0-1.2-0.1
			c-1-0.7-2.3-0.9-3.5-0.6c-0.6,0.1-1.3,0.1-1.9-0.1c-0.4-0.2-0.7-0.4-1-0.8c-3.6,1.4-4.1,2.1-4,5.7c0,0.7,0.2,1.1,0.1,0.4
			c0.3,0,0.7-0.2,0.9-0.4c0.6-0.2,1.3-0.1,1.9,0.2c1,0.6,1.7,1.6,2.1,2.7c-1.7,2.5-4.5,2.6-7.1,2.9
			C158.2,182.9,157.6,182.2,158.1,181z"/>
		<path class="st10" d="M208,309c0,2-0.2,4.1,1.1,5.9c0.5,0.6,0.6,1.4,0.3,2.1c-0.6,0.5-1.3,0.7-2,0.5c-0.5-0.1-0.9-0.4-1.4-0.5
			c-1.6-0.4-3.2,2.5-4.7,0c-1.3-2,0.7-3.3,1-5c-0.1-1.4-1.4-2.8-0.3-4.3c0.4-0.4,1.3-0.4,1.2-1.2c-0.1-0.5-0.6-0.7-1.1-0.8
			c-0.9-0.1-1.8,0.6-2.8,0.3c-2.2-2.2-1.4-5-1.6-7.6c0.5-1.6,1.8-0.8,2.8-0.8c-1-1.1-2.7-1.3-3.6-2.5c-0.2-0.4-0.3-0.9-0.3-1.3
			c0.5-2.1,3.8-1.5,3.8-4.1c0.3-1.1,0.9-2.1,1.7-2.9c1.1,0.8,0.9,1.9,1,3c0.9,0.7,2.3,1.3,2.1,2.5C204.2,298.4,207.1,303.5,208,309z
			"/>
		<path class="st26" d="M190,277c1.1,4.3-2.7,6.9-3.8,10.6c-1.6-4.7-5.9-8.2-5.2-13.7c0.8-1.3,0.1-2.9,0.5-4.2
			c0.3-0.6,0.7-1,1.5-0.7c1.8,1.8,1.2,4.2,0.8,6.1c-0.6,2.8,0.6,3.9,3,5c0.1-2,0.2-3.9,0.3-5.8C188.6,274.7,187.9,277.4,190,277z"/>
		<path class="st79" d="M177,172c-1.9-2.1-1.9-5.4-4.6-6.7c1.1-2.5,4.4,1.4,4.7-2.2c1.6,1.1,3.5,1.6,5.1,2.6
			c1.3,1.2,1.7,3.2,0.9,4.8C181.6,173.3,179,171.5,177,172z"/>
		<path class="st63" d="M172,173c0.3,0,0.7,0,1,0c3.1,0.1,0.1,3.3,2,4v1.9c2,0.8,4.5,0.5,6,2.6c0.3,1,0.7,1.9,1.4,2.7
			c0.1,0.4,0.1,0.9,0,1.4c-1.7,2-4,3.2-6.6,3.4c-1.1-1.5-0.4-3.1-0.4-4.7c0-1.7-1-3.2-2.5-3.9c-1.3-0.7-1.1,1.7-2.4,1.7
			C167.1,177.3,167.5,174.6,172,173z"/>
		<path class="st80" d="M176,193.1l-0.9,5c1,0.8,3,0.7,2.4,2.8c-0.4,0.9-1.2,1.5-2.2,1.6c-2.2-0.7-5.4-0.1-5.2-4
			c0.1-0.2,0.2-0.4,0.3-0.6c0.2-0.4,0.5-0.7,0.8-1c1.1-1.9-0.9-2.6-1.6-3.8c-0.4-0.8-0.5-1.8-0.1-2.6c0.6-1.1,1.9-1.1,2.8-1.6
			c0.4-0.1,0.9-0.2,1.3-0.1c0.6,0.3,1,0.8,1.3,1.4C175.2,191.2,175.1,192.3,176,193.1z"/>
		<path class="st81" d="M166,163c-0.4-2.1-1.3-2.6-3-1c-0.5,0.6-1.4,0.6-2,0c0,0,0,0,0,0c-0.9-1.6,3.1-2.1,1-4.1
			c-1.3-1.3-0.1-2.6,0-4c3,0.2,5.1,2.5,6.8,4.2C170.2,159.8,168.5,162.3,166,163z"/>
		<path class="st33" d="M181.1,211c2.2,1.4,4.7,2.7,4,6c-3.9,4.6-5,4.5-8.4-0.8c-0.4-1.1-0.1-2.4,0.8-3.1c1-0.7,2.2-1,3.1-1.9
			L181.1,211z"/>
		<path class="st82" d="M178,203c0.2,2.1-1.5,5.2,2.8,5.2c0.1,0.9,0.2,1.8,0.3,2.8L181,211c-1.2,0.2-2.4,0.8-3.3,1.6
			c-1.4,1.3-1.2,2.8-0.7,4.5s1.4,3.4,0,5.1c-2.5-0.1-2.8-1.9-3.2-3.8c0-2-0.2-4.1-0.5-6.1c-0.1-0.7-0.1-1.5,0-2.2
			c0.4-2.7,1.6-5.2,3.4-7.2C177.1,202.7,177.6,202.7,178,203z"/>
		<path class="st82" d="M182,185v-1c-1-0.3,0.1-1.7-1-2c-2.2-0.6-4.2-1.7-6-3c2.2,0.2,1.7-2.3,3-2.9c0.3,0.6,1,0.7,1.6,0.4
			c0.2-0.1,0.3-0.3,0.4-0.4c1.3,0.4,2.8-1.9,3.8,0.2c0.7,1.4,1.5,3,0,4.5c-1.1,1.2-0.8,2.8-0.9,4.2C182.7,185.4,182.4,185.4,182,185
			z"/>
		<path class="st81" d="M182,185h1c0.6,1.6,2.9,2.7,1.5,4.8c-1.5,2.3-2.8-0.1-4.2-0.3c-2.6-0.2-4,1-4.3,3.5c-1.9-0.1-2.1-1.5-1.9-3
			c0.4-0.8,0.8-1.6,1.9-1.1L182,185z"/>
		<path class="st0" d="M194,273c-2.1,0-5.7-0.9-5.4-2c0.5-2.6,2.1-4.8,4.5-6c2.1-0.2,2,1.7,2.7,2.9c0.3,0.9,0.3,2,0,2.9
			C195.5,271.7,194.8,272.5,194,273z"/>
		<path class="st43" d="M208,309c-2.1-5.3-5.3-10.4-3.6-16.5c0.2-0.7-0.9-1.7-1.3-2.5h1c3.4,2.7,1.5,7,2.8,10.4
			c0.6,1.6,0.9,3.3,2,4.7C207.6,306.2,208.2,307.7,208,309z"/>
		<path class="st14" d="M187.1,242c-1.9,4.1-5,7.5-6.1,12l-0.7-0.2c-2.5-2.6-2.1-5.2-0.2-7.9c1-1.7,2.1-3.3,3.4-4.8
			c0.4-0.3,0.8-0.4,1.3-0.5C185.8,240.7,186.6,241.2,187.1,242z"/>
		<path class="st83" d="M158.1,181l1,2c0.8,0.7,1,1.9,0.6,2.8c-0.6,0.9-1.3,1.6-2.5,1.2c-0.4-3.1-0.8-6.3-4-8c-1.6-1-2-2.3-1-4v-2
			c0.4-0.3,0.8-0.3,1.2-0.1c0.3,1.1,1.1,2,2.2,2.2c1,1.2,1.3,2.8,2.5,3.8C158,179.7,158.1,180.3,158.1,181z"/>
		<path class="st22" d="M161.1,162.1h2c-0.5,3.4,0,7.2-4,9C157.1,167.4,158.1,164.5,161.1,162.1z"/>
		<path class="st27" d="M188,224c-2,2.6-1.6,2.4,0.6,5.1c1.2,1.9,1,4.3-0.5,5.9c-1.1-0.6-1.2-2.4-2.7-2.7c-1.1-0.1-2.2-0.4-3.2-0.9
			c-0.7-0.6-1.1-1.6-0.9-2.5c0.1-0.5,0.2-0.9,0.4-1.3c0.6-1,1.2-1.9,1.8-2.8c0.6-0.9,1.5-1.7,2.5-2.1C187,222.5,187.5,223.3,188,224
			z"/>
		<path class="st84" d="M188,224l-2-1c-0.6,0.3-1.4,0.2-1.9-0.3c-0.3-0.3-0.6-0.7-0.7-1.2c0-1.7,1-2.4,2.6-2.6c2.3-1.9-0.3-5.1,2-7
			c1.1-0.3,1.3,0.1,1.1,1.1C189.2,216.7,188.9,220.4,188,224z"/>
		<path class="st85" d="M194,273c0-0.8,0.3-1.6,1-2c1.3,0.6,2.4,1.7,3,3c-0.3,2,0.9,4.3-1,6.1c-1,0.7-2,0.1-3,0
			c-1-0.7-0.8-1.5-0.1-2.4c0.9-1.1,0.4-1.6-0.8-1.7C193.4,275,193.7,274,194,273z"/>
		<path class="st68" d="M202.1,287c-0.1,1.1,0.2,2.3-1,3c-0.3,0.3-0.8,0.5-1.3,0.4c-2.1-0.9-1.8-3.1-2.6-4.6c-0.3-0.6-0.5-1.3-0.7-2
			c-0.1-0.7,0.1-1.4,0.6-1.9C201.6,280.8,201.8,283.9,202.1,287z"/>
		<path class="st7" d="M181.1,266c-1.6-1.3,2.1-5.5-2.8-5c-0.2,0,0-1.5,0.8-2c1.7,1.3,3.7,1,5.7,0.7c0.4,2.9-2.2,4.7-1.7,7.3
			C182,267.5,181.5,266.8,181.1,266z"/>
		<path class="st19" d="M198,273.9c-1.3-0.7-2.9-1.1-3-3c0-1,0-2,0.1-3c0.2-1.8-1.1-3.2-1-5c2.7,0,3.5,1.9,4,4c1,2-0.2,4,0,6
			C198,273.3,198,273.6,198,273.9z"/>
		<path class="st26" d="M186,219c-0.6,1-2.2,1.4-2,3c-5.5,0.4-6.9-0.8-7-6c2.2,3.9,5,3.3,8,1C185.4,217.7,185.7,218.4,186,219z"/>
		<path class="st81" d="M178,203h-1c-0.6-0.4-0.6-1.2-0.2-1.8c0.1-0.1,0.1-0.1,0.2-0.2c0.2-1.6-1.5-1.9-2-3c1.2,0,2.2-0.6,2.7-1.7
			c2.1-3.9,3.3-2.5,4.2,0.7c-2.9,0.2-1.4,2.6-2,4c-1,0-1.9,0.7-1.9,1.8C178,202.9,178,202.9,178,203z"/>
		<path class="st86" d="M160.1,189c0.4,2.4-3.6,0.4-3,3c-3.5-1.7-6.3-4.5-8.3-7.8c1.8-0.3,2.6,0.8,3.4,2.2c1.1,1.8,2.5,2.9,4.8,2.7
			c0.5-0.5,1.2-0.8,1.9-0.7C159.3,188.4,159.7,188.7,160.1,189z"/>
		<path class="st7" d="M188,194.4c0.7,4.5,3.2,7.5-0.2,12.2C188.3,202.1,186.2,199.1,188,194.4z"/>
		<path class="st79" d="M186.5,192.1c1.8-2.8,1.6-5.6,4.4-5.8c1.1-0.1,0.7,1.1,0.8,1.9C192.3,191.7,189.6,191.1,186.5,192.1z"/>
		<path class="st86" d="M187.1,242c-0.8,0.1-1.6-0.3-2-1c-1.2-1.5-0.8-2.8,0.3-4.1c0.8-0.7,1.6-1.4,2.7-0.8c0.1,1.3-0.2,2.6,0.8,3.8
			C191,242.5,188.2,241.7,187.1,242z"/>
		<path class="st27" d="M158,179c-2.6-0.2-3.1-1.9-3-4c-0.6-1.4,0-2.3,1-3C159.7,173.5,157.4,176.7,158,179z"/>
		<path class="st87" d="M156.1,172l-1,3c-2.5,1.1-1.9-0.8-2-2c-0.5-0.5-0.6-1.3-0.1-1.8c0.1-0.1,0.1-0.1,0.2-0.2c0.7-0.4,1-1.2,1-2
			c0.5-0.6,0.8-1.6,1.9-1V172z"/>
		<path class="st5" d="M193.7,233c3,2.4,2,4.3,0.6,6.5C192.5,237.5,192.9,235.6,193.7,233z"/>
		<path class="st88" d="M196.9,244.9c0.1,1.4-0.4,2-1.3,2c-1.4,0-1.8-1.3-2.1-2.3c-0.3-0.8,0.1-1.8,1-1.8
			C196,242.7,196.4,244.1,196.9,244.9z"/>
		<path class="st15" d="M179.1,258c-0.6-1.4-2.1-2.3-2-4c1.3-2.8,2.7-0.3,4,0l0,0C180.8,255.6,181.8,257.7,179.1,258z"/>
		<path class="st7" d="M162.1,154.1c1.8,1.3-0.4,2.6,0,4l-3.8,1.4C158.8,156.9,159.9,155.1,162.1,154.1z"/>
		<path class="st86" d="M156,168.1l-1.9,1l-0.1-1c-0.2-1.2-1.6-2.2-0.9-3.6c0.1-0.3,1.3-0.4,1.8-0.2
			C156.6,165,155.9,166.7,156,168.1z"/>
		<path class="st22" d="M180.1,201c-0.8-1.7-1.8-3.4-0.4-5.1c0.1-0.1,1.5,0.8,2.4,1.2C180.5,197.9,182.7,200.7,180.1,201z"/>
		<path class="st89" d="M188,236l-2,1c-0.4-0.4-0.7-0.8-0.9-1.3c-0.5-1.6-0.2-3.4,0.9-4.7c2.7,0.3,1.8,2.5,2.1,4
			C188.1,235.4,188,235.7,188,236z"/>
		<path class="st18" d="M181.1,266l2,1c1.1,0.6,0.1,1.3,0,2l-1,1c-0.7,0.6-1.4,0-2,0C178,268.1,180.9,267.4,181.1,266z"/>
		<path class="st78" d="M189.1,213.1L188,212c0.5-0.4,1-0.8,1.5-1.2c1-0.5,2.1-2.5,3-0.3c0.7,1.7-1.4,1.3-2.2,1.9
			C189.9,212.6,189.5,212.9,189.1,213.1z"/>
		<path class="st79" d="M175,177.1c-2.5-0.4-0.2-3.2-2-4c0.2-1.3,0.4-2.5,2-1C176.1,173.7,174.7,175.4,175,177.1z"/>
		<path class="st90" d="M197.1,282c0,0.7,0,1.3,0,2c-4.5,1.3-1.5-3-3-4l0,0c1-1.6,2-0.4,3,0V282z"/>
		<path class="st91" d="M190,252.1c0,0.9-0.4,1.6-1.4,1.7c-0.5,0.1-1.1-0.3-1.2-0.8c0-0.1,0-0.3,0-0.4c0.2-0.9,0.4-2.1,1.7-2.1
			C190,250.6,190,251.4,190,252.1z"/>
		<path class="st88" d="M153.1,171.1L153,173c-0.3,0-0.6,0-1,0c-1.7-0.1-2.5-1.4-1.8-2.5C151.3,168.6,152.1,171.1,153.1,171.1z"/>
		<path class="st85" d="M194.1,263c0.9,1.6,2.6,3,1,5l-2-3C193,264.2,193.4,263.4,194.1,263z"/>
		<path class="st85" d="M198,273c-1.6-2,0.3-4,0-6C199.5,268.7,199.5,271.3,198,273z"/>
		<path class="st79" d="M193.4,194.1c0.8,1.1,0.8,2.6,0,3.6C191.2,196.3,193.7,195.2,193.4,194.1z"/>
		<path class="st10" d="M180,176.1c-0.2,0.9,0.4,2.4-1,2.4s-0.8-1.5-1-2.4L180,176.1z"/>
		<path class="st89" d="M159.1,189H157c0-0.7,0.1-1.3,0.1-2l1.9-1C159.9,186.8,159.9,188.1,159.1,189z"/>
		<path class="st43" d="M185.7,266.6c-0.2-0.6-0.5-1-0.5-1.3s0.5-0.6,0.8-0.9c0.2,0.3,0.6,0.7,0.6,1S186.1,266,185.7,266.6z"/>
		<path class="st88" d="M152.1,175c-0.1,1.4,0.3,2.8,1,4C150.2,178.3,150.7,176.8,152.1,175z"/>
		<path class="st79" d="M177,163c-1.4,0-2.9,0-3-2C175.3,160.9,176.6,161.7,177,163z"/>
		<path class="st33" d="M194,280c1.7,0.8,0.1,4,3,4l1,1c0,1.9-0.9,4.2,1.9,5.1h1c1.1,3.8-2.1,3.3-4,4c0.1,4.4,0.3,8.8,3.1,12.6
			c0.9-0.1,1.7,0.5,1.9,1.4c-0.1,1.7,1.4,2.6,2,3.9c-2.7,1.5-5.3,3.2-8,0c-0.6-2.9,1.6-6.9-3.4-7.8c1.3-3.1-1.3-6.3,0.5-9.4
			c1.2-2.1,3-6,1.8-6.8C190.3,285.3,194.4,282.6,194,280z"/>
		<path class="st26" d="M196.1,312c2.7,1.7,5.3-0.2,8,0c0,1-0.6,1.9-1.5,2.3c-0.8,0.3-1.2,1.1-0.9,1.9c0.1,0.2,0.2,0.4,0.4,0.6
			c1.2,1.5,1.5-0.1,2.1-0.7c1.5-1.5,2.5-1.3,2.9,0.9c0.1,0.8-0.2,1.5-0.8,2c0,0.3-0.1,0.6-0.1,1c0.4,0.7,0.7,1.4,0.9,2.1
			c0.1,0.4-0.4,1.2,0.5,1c0.2,0,0.3-0.8,0.7-1.2l4,3c0.7,0.6,1.5,1,1.2,2.2c-0.7,1.3-1.9,1.8-3.1,2.6s-2.1,1.9-3.7,1.3
			c-2.8-1.6-5-3.5-4.2-7.2c0.4-0.8,0.4-0.8-0.1-0.8c-0.9-0.6-0.8-1.6-1.2-2.4s-0.4,0.4-0.8,0.4c-2.4,1.6,1.4,3.4-0.2,5
			c-1.6,0.8-3.3,1.7-3.9-1.1v-1c0.8-1.6,0.8-3.4,0-5L196.1,312z"/>
		<path class="st1" d="M200,321c0.3-1.2-1.4-2.3-0.1-3.6c2.8,0.9,1.3,4.2,3.1,5.6c-1.1,3.9,2.5,5.4,4,8c0.5,0.5,0.8,1.3,0.6,2
			c-0.6,2.7-2,4.4-5,4.3L202,337c-1.3-1.8-2.7-0.5-4,0c-0.7-0.7-1.3-0.5-2,0c-0.3-0.4-0.9-0.8-0.8-1.1c0.9-3.6,2.6-7.1,0.8-10.9
			c1.3,1.4,2.7,1.4,4,0C199.2,323.6,198.9,322.3,200,321z"/>
		<path class="st4" d="M204,354c-0.8-0.9-3.4-0.5-2.1-3c-2.5-1.3,1-6.3-3.9-6.3c-0.8,0-0.9-1.9-0.8-1.8c5.9,1.5,1.8-4.6,4.3-5.6
			c0.1-0.1,0.3-0.2,0.4-0.3l0,0c2.3,1.4,3.8,3.7,6.1,5c0.4,0.3,0.7,0.6,0.9,1v2c-1.5,0.3-1.8,1-1,2c-3.6,1-1.4,4-2,6
			C205.6,353.7,204.8,354.1,204,354z"/>
		<path class="st63" d="M220,320c0.7-2,0.5-4.3,2-6c0.6,0.5,0.8,1.4,0.4,2.2c1-1.7,1.6-3.5,1.8-5.4c0.3-0.9,1.2-1.5,2.2-1.4
			c1.3,0.4,3.8-0.3,2.5,2.6c-2.3,4.5-4.7,9-6,14c-4.6,3.2-5.2,2.9-5.9-3l1-1C219,321.7,219.8,321,220,320z"/>
		<path class="st87" d="M217.1,323c1.3,2.4,2,5.9,5.9,3l-2,3c-0.5,2.1-2.7,2.6-4,4c-0.6,1.7-2.3-0.2-3,1c-1.1,1.4-1.5,3.8-4.1,3.1
			c-1.4-2.7,2-5.4,0.1-8.1l3-2c2.1,0.8,1.1-1.5,2-2c0-0.3,0-0.6,0-1L217.1,323z"/>
		<path class="st1" d="M181.1,254c-1.3,0.5-2.7-1-4,0l-2,1l0,0c-1-1.2,0-2.3,0.2-3.5c1.4-3.4,1.8-7.1,2.6-10.6
			c2.5-4.2,3-4.2,6.2,0.1c0.1,1.8-1.2,3-2.2,4.2C179.4,248.1,179.1,250.9,181.1,254z"/>
		<path class="st78" d="M229,312c0.5-1.8-1.6-1.1-2-2c-1-2.5,0.3-4.7,0.9-7c1.3-3.1,4-5.7,3-9.5c0.2-1.6,0.5-3.1,2.4-3.5
			c1.6,1.1,2.4,2.9,1.6,4.3C231.7,299.8,232.5,306.6,229,312z"/>
		<path class="st4" d="M208,356c0.7-3.1,3.2-2.5,4.6-1.4c2.1,1.6,0,2.9-1.3,3.7c-2.1,1.4-2.6,4.4-5.2,5.1c-0.9,0.2-2,0.9-2.6-0.3
			s0.7-1.7,1.5-2.2C206.7,359.7,206.4,357.3,208,356z"/>
		<path class="st27" d="M210,336.9l4-3c-1.3,3.2,1.9,8.9-5,9h-1c-0.3-0.4-0.6-0.8-0.6-1.3C207.9,339.8,207.2,337.4,210,336.9z"/>
		<path class="st92" d="M233.3,290c-0.9,1.1-1.4,2.6-1.3,4.1c-1.2,1.2-0.6,3.4-2.2,4.5c-0.9,0.5-2,0.3-2.7-0.5
			c0.6-2.7,1.2-5.3,1.8-8c0.8-0.9,1-2.1,1.9-2.9s2-2.1,3.2-0.7c1.1,1.2-0.6,1.9-1.1,2.8C233.1,289.5,233.2,289.8,233.3,290z"/>
		<path class="st14" d="M208,356c0,2.2,0.3,4.7-3,5c0-0.3,0-0.7,0-1c-1.6-1.4,0.1-3.5-1-5v-1c0.4-0.7,1.2-1.1,2-1L208,356z"/>
		<path class="st8" d="M233.1,289.2c0-0.9,1.3-1.8,0.3-2.5c-0.4-0.2-1.5,0.8-2.3,1.3c-1.6-3.6,1.9-5.3,2.9-7.9
			c0.3-0.6,0.9-1.1,1.6-1.3l0.7,0.2l-0.2,4c-1.1,1.5,0.2,3.5-1,5L233.1,289.2z"/>
		<path class="st88" d="M217,333c0.3-2.4,2.6-2.8,4-4c0.3,1,3.8,2.3-0.2,3.1C219.5,332.3,218.3,332.7,217,333z"/>
		<path class="st6" d="M212.9,369.1c0,1.1-0.5,1.7-1.4,1.7c-1,0.1-1.9-0.6-2-1.6c-0.2-0.8,0.4-1.6,1.2-1.8c0.2,0,0.3,0,0.5,0
			C212.1,367.4,212.8,368.2,212.9,369.1z"/>
		<path class="st4" d="M204,355c1.6,1.4,0.8,3.3,1,5l-3.8-1.1C200.9,356.6,204.4,357.2,204,355z"/>
		<path class="st90" d="M238,276c0.1,1.3-0.6,2.5-1.9,3l-0.3,0.1c-2-2.3-3.2-4.5,0.9-5.8C238.7,273.5,238.4,274.8,238,276z"/>
		<path class="st10" d="M180,270c0.7-1.1,1.4-0.2,2,0c0.9,1.6,1.2,3.1-1,3.9C180.2,272.8,179.9,271.4,180,270z"/>
		<path class="st87" d="M238,276c-1.1-0.7-0.1-1.4-0.1-2.1c-0.3-0.2-0.4-0.6-0.3-1c0.3-0.5,0.8-0.9,1.4-0.9l1.8,0
			c0.1,1.1,0.3,2.3-0.9,3.1L238,276z"/>
		<path class="st26" d="M207.3,376.3c1.2,0.6,1.8,1.3,1.5,2.4c-0.1,0.3-0.8,0.9-1,0.8c-0.9-0.4-1.5-1.4-1.4-2.4
			C206.4,376.8,207,376.5,207.3,376.3z"/>
		<path class="st2" d="M220.6,342.7c-0.3-0.3-1-0.8-0.9-1.2s0.8-0.9,1.3-1.1c0.1-0.1,0.8,0.5,0.9,0.9
			C222,341.9,221.8,342.6,220.6,342.7z"/>
		<path class="st6" d="M204.8,369.2c-0.8-0.2-0.7-0.9-0.7-1.5s0.4-1.4,1.2-1.1c0.3,0.1,0.5,0.8,0.6,1.2
			C205.9,368.4,205.5,369.1,204.8,369.2z"/>
		<path class="st86" d="M196,337c0.2-0.9-0.5-2.6,1.2-2.4c1,0.1,0.7,1.5,0.8,2.4C197.3,337.1,196.7,338.1,196,337z"/>
		<path class="st15" d="M208.1,347l-2.5-1.8l3.4-0.2C209.1,345.8,208.7,346.6,208.1,347z"/>
		<path class="st1" d="M196,319c1.4,1.3,1.5,3.4,0.2,4.8c-0.1,0.1-0.1,0.2-0.2,0.2V319z"/>
		<path class="st4" d="M212.4,362.4c0.7-0.1,1.2,0.1,1.1,0.6c-0.1,0.3-0.6,0.6-1,0.8c-0.2,0.1-0.5-0.2-0.8-0.4L212.4,362.4z"/>
		<path class="st35" d="M235,288c0.2-1.7-0.6-3.6,1-5C235.9,284.7,236.6,286.6,235,288z"/>
		<path class="st41" d="M239.1,272l-1,1c-1.3-2-3.5,0.7-4.9-1c1.2-1.8,1.9-3.8,2-5.9c0.6-8.5,4.5-16.2,5.6-24.5
			c0.1-1.5,0.9-2.9,2.2-3.7c1.6,2.9-0.2,6,0.3,9c0.2,0.4,0.4,0.8,0.7,1.1c0,1.3,0,2.6-0.1,4c-1.1,1.5,0.2,3.5-0.9,5
			c-1,2.7-2,5.3-3,8c-1.2,1.9,0.2,4.1-0.9,6C239.1,271.3,239.1,271.7,239.1,272z"/>
		<path class="st35" d="M235.1,279.9c-0.3,3.2-4.2,4.6-4,8.1l-2,2c0.1-5.6-0.3-11.4,4-16C235.1,275.5,233.7,278.2,235.1,279.9z"/>
		<path class="st76" d="M257,206c-0.9,3,1,7-3,9c-0.2,0.3-0.7,0.4-1,0.2c0,0-0.1,0-0.1-0.1c-0.8-0.4,0.7-2.6-1.5-1.9l-0.5-0.3
			c-0.6-3.6,2.9-5.7,3.2-8.9C256.2,203,257.1,203.8,257,206z"/>
		<path class="st93" d="M246,228c2.6-0.9,3.8,0,1.9,2.3c-0.9,1-1.3,2.5-0.9,3.8c0.8,0.7,0.8,2,0,2.7c-0.1,0.1-0.1,0.1-0.2,0.2
			L246,238c-1.1,0.4-1.7-0.1-2.1-1.1C244,233.8,243.6,230.6,246,228z"/>
		<path class="st57" d="M235.1,279.9c-3.9-0.9-0.5-4.2-2-5.9l0.1-2c2.2,0.6,2.7-1.6,3.9-2.6c1.6,1,0.8,2.5,1,3.6
			c0,0.3-0.1,0.6-0.1,0.9c-4.8,0-1.7,3.3-2.1,5.1L235.1,279.9z"/>
		<path class="st76" d="M229,303c-0.7,2.3-1.3,4.7-2,7c-0.8-0.1-1.6,0.3-2,1c-0.6,0.5-0.8,1.6-2,1c1.1-2.9,1.8-6,2-9.1l1.1-0.9
			c0.8-0.4,1.3,0.4,2,0.5C228.4,302.5,228.8,302.7,229,303z"/>
		<path class="st89" d="M253,215h1l-1,2c-0.4,0.3-1,0.5-1.1,0.9c-0.4,1.6-0.3,4.1-2.6,3.6s-0.8-3-1.3-4.5c0.8-1.5,1.3-3.2,2.9-4.1
			l0.2,0.1C252,213.4,250.9,215.8,253,215z"/>
		<path class="st22" d="M256,191l2-2l1-1c0.8-1.1,1-3.8,3-1c0.5,1.3,2.7,2.8,0.3,4C260.4,192,258.1,193.9,256,191z"/>
		<path class="st82" d="M257,206c-0.4-1.2-1.6-2-2.9-1.9c0.9-1.9,1.2-3.9,1-6c0.9-0.8,2.1-0.4,3-1h1
			C259.1,200.2,259.2,203.4,257,206z"/>
		<path class="st94" d="M243.9,236.9l2.1,1.1c0,0.3,0,0.7,0,1c-0.6,3.1-1.9,6-3,9c-2.3-3.4-0.5-6.7-0.1-10.1L243.9,236.9z"/>
		<path class="st95" d="M228,303c-1.4,1-1.1-1.1-1.9-1c0.4-1.3,0.7-2.7,1.1-4h2.8C230.7,300.2,228.9,301.4,228,303z"/>
		<path class="st32" d="M262.1,180.1l2.4-2.9c-0.2,2.4-0.7,4.6-0.5,6.9C263.3,182.7,262.7,181.4,262.1,180.1z"/>
		<path class="st32" d="M258,197c-0.6,1.6-1.6,1.8-3,1C255.2,195.3,256.3,195.1,258,197z"/>
		<path class="st32" d="M262,187.1c-1.5-1.2-2.1,0.4-3,1c0.1-1.1-0.3-2.5,1.3-2.8C261.6,185,261.9,186,262,187.1z"/>
		<path class="st94" d="M304.1,305.2c0.3,3.7-2.5,6-4,9c-0.8-0.5-1.9-0.6-2.7-0.1c-3.4,1.2-3.2-0.8-2.4-3c0.9-2.4,1.1-5.1,3-7.1
			c0.5,0.4,0.8,1,0.9,1.6c0.2,0.6,0.4,1.3,1.1,0.5s1.2-2.2,2.6-2.5C303.6,303.6,304.7,303.7,304.1,305.2z"/>
		<path class="st93" d="M295,311c0.1,0.9-0.3,2.3,0.9,2.5c2.2,0.5,1.5-2.7,3.2-3c1.4,1,0.6,2.5,1,3.6V314c-1.7,1.7-0.5,5.1-3.6,5.8
			c-0.8,0.1-1.5,0-2.2-0.4l-0.5-0.6C294.6,316.3,293.2,313.4,295,311z"/>
		<path class="st70" d="M308.8,294.9l-1.8,1.2c-0.9,0.8-1.8,1.6-3.1,1.5c-0.5-0.1-0.9-0.4-1.2-0.8c0.7-3.6,4-5.5,5.3-8.7
			c1.3-1.1,2.2-0.5,2.4,0.9C310.7,291.2,310.7,293.3,308.8,294.9z"/>
		<path class="st96" d="M302.7,296.8l1.4,0.2c0.8,0.7,1.8,1.1,2.9,1c4.1,0.6,5.5,3.1,4.9,7.1c-0.2-0.4-0.4-0.9-0.6-1.3
			c-0.6-1.6-0.9-3.7-3-3.9c-1.9-0.2-2.2,2.1-3.4,3.1c-1.2,0.6-1.6-0.6-2.3-0.9c-1.1-0.2-1.6,2-3,0.7c-0.3-0.6-0.1-1.4,0.3-1.9
			C300.2,299.1,301.6,298,302.7,296.8z"/>
		<path class="st86" d="M318.9,330.3l-4.1-12.2c0.2-0.4,0.6-0.5,1-0.3c0.1,0.1,0.2,0.1,0.3,0.2l0.1,0.9c1.9,0.2,0.6,3.3,2.9,3.1
			c-0.1,1.4,0.3,2.8,1.1,3.9C320.1,327.5,320.5,329.1,318.9,330.3z"/>
		<path class="st97" d="M316.7,293.7c0.1,1.8,1,3.7-0.7,5.3c-1.8-1.2-2.9-2.7-1.9-5c-0.4-0.8-0.1-1.2,0.7-1.4
			C315.7,292.4,316.2,293,316.7,293.7z"/>
		<path class="st14" d="M308.8,294.9c0.4-2.3,3.5-4.9-0.7-6.7c0.7-1.2,1.9-2.2,3.2-1.6s0.4,2,0,3
			C310.7,291.5,311.7,294.1,308.8,294.9z"/>
		<path class="st43" d="M319,322c-3.3,1.2-1.8-2.2-2.9-3.1c1.4-1.1,0.7-2.7,1-4.1c0.2-0.2,0.6-0.2,0.8,0c0,0,0.1,0.1,0.1,0.1l1,4
			C319,320,319,321,319,322z"/>
		<path class="st14" d="M316.7,293.7c-0.9-0.1-1.9-1.2-2.6,0.3c-2.7-3.7,2-3.2,2.8-5C316.8,290.6,316.7,292.1,316.7,293.7z"/>
		<path class="st43" d="M316,318l-1.2,0.1c-1.2-2.9-1.9-6-1.8-9.1C315.5,311.5,314.4,315.2,316,318z"/>
		<path class="st14" d="M307,298c-0.6,0.7-1.1,1.9-2.2,1.5s-0.6-1.6-0.7-2.5l2.9-0.9C307,296.8,307,297.4,307,298z"/>
		<path class="st97" d="M317,310c-0.7-0.9-0.6-2.1,0.1-3l1.6,1.3c-0.2,2.2-0.5,4.5-0.7,6.7"/>
		<path class="st73" d="M294,328c-1.8-2.9-0.8-6-0.9-9c0.3,0,0.5-0.1,0.8-0.2l0.3,0.2c1.6,2,1.1,4.4,1,6.7
			C295.1,326.7,294.7,327.5,294,328z"/>
		<path class="st43" d="M317.1,307c0,1,0,2-0.1,3c-1.9-2.1-0.6-4.6-1-7C317.4,304,316.7,305.7,317.1,307z"/>
		<path class="st94" d="M299.9,300.9c0,0.7,0,1.4,0,2.1c0,1.5,0.2,3-2,3.1c0-0.7-0.1-1.5-0.1-2.2C298,302.6,298.8,301.5,299.9,300.9
			z"/>
		<path class="st63" d="M175,218c0,1.7,0.2,3.2,2,4.1c0.8,0.6,1,1.7,0.5,2.6c-2.7,1.4-2.1,3.6-1.2,5.7c0.7,1.6,1.9,3,2.5,4.8
			s0.2,3.2-0.2,4.9c0,0.5-0.1,0.9-0.4,1.3c-1.6,0.1-1.9-1-2.1-2.2c-2.9-3.1-2.6-7.4-4.3-10.9c-1.3-2.7,2.4-5.2,0.3-8
			c-0.2-0.2-0.4-0.5-0.4-0.8c0-0.3,0.1-0.4,0.2-0.4C172.8,218,173.7,217.4,175,218z"/>
		<path class="st98" d="M159.1,189l-0.1-3c0-1,0-2,0.1-3l7-3c-0.1-1.9,1.2-1.8,2.3-1.4c1.9,0.7,0.9,2.6,1.2,4
			c0.4,1.3-0.3,2.7-1.6,3.1c-0.1,0-0.1,0-0.2,0c-1.5,0.5-3-0.1-4.4,0.2c-0.8,0.6-1.6,1.3-2.4,2.1l-1,1L159.1,189L159.1,189z"/>
		<path class="st63" d="M161.1,188c0-1.1-0.2-2.3,1-3c0.3-0.2,0.7-0.5,0.9-0.4c1.6,1.8,3.7,1.1,5.6,1.5c1,1.8,0.9,4-0.5,5.6
			c-1.5,0.9-3,1.7-3.8,3.4c-0.4,0.3-0.9,0.2-1.2-0.1L161.1,188z"/>
		<path class="st99" d="M177.1,201v2c0,2.8-2.2,4.6-3,7c-0.9-0.6-2.1-0.5-3,0.2c-0.4,0.2-0.8,0.1-1.2-0.1c-0.6-0.8-1.2-1.7-1.6-2.6
			c-0.1-0.2-0.1-0.4-0.2-0.6c-0.1-1.4-1-1.7-2.2-2c-2.1-0.6-0.7-1.4,0.1-2c1.3-0.3,2.7-0.1,3.9,0.5c0.3,0.2,0.5,0.8,0.9,0.7
			s-0.1-0.6,0.1-1c1.1-1.4,2.6-1.4,4.2-1.2L177.1,201z"/>
		<path class="st86" d="M179.1,241c-0.9,3.7-0.6,7.7-3,11c-2.5-3-2.8-6.4-2-10c0-0.8,0.3-1.6,1-2c1,0.3,1.4,2.4,3,1h0.1
			C178.4,240.6,178.7,240.6,179.1,241z"/>
		<path class="st0" d="M174,242c0.7,3.3,1.3,6.7,2,10c-0.3,1-0.7,2-1,3c-1-3.7-2-7.4-2.9-11.1C171.8,242.6,171.8,241.1,174,242z"/>
		<path class="st100" d="M163.1,195h1c0.4,0.2,0.7,0.4,1,0.7c1.8,1.9,3.1-0.9,4.8-0.4c1.4,0.4,2.2,1.1,1.2,2.7l0,0
			c-0.8,0.5-1.3,1.4-1.3,2.3c-0.3,2.4-1.6,2.9-3.7,1.7C164.6,199.9,162.3,198.1,163.1,195z"/>
		<path class="st13" d="M166,202c3.6,1.1,2.2-4.1,5-4c-1.1,3.8,3.2,2.1,4,4l-4,2c-0.2,0.3-0.6,0.4-0.8,0.2c-0.1,0-0.1-0.1-0.2-0.2
			c-1.4-0.1-3,0.4-4.1-1.1C166,202.7,166,202.3,166,202z"/>
		<path class="st14" d="M167.1,211c-0.6,2.6,3.3,4,1.7,6.9c-2-2.3-4.1-4.5-2.7-8C166.6,210,167,210.5,167.1,211z"/>
		<path class="st99" d="M172.1,219c0,0.4,0,0.7,0,1.1c-3.6-2.4-1.2-6-2-9l0.6-0.2c0.8,0.4,1.4,1.3,1.5,2.2
			C172.4,215,173,217,172.1,219z"/>
		<path class="st89" d="M178,241c-0.1,1.1-0.4,2.1-1.7,1.8c-1.6-0.3-1.1-1.7-1.3-2.8c0.3-0.3,0.7-0.7,1-1L178,241z"/>
		<path class="st99" d="M167.1,211l-1-1c0-1.3,0.8-2.5,2-3l0.1,0.1c1,0.8,0.9,2.2,2,3l0,0c0.3,0.2,0.4,0.4,0.3,0.6s-0.2,0.3-0.3,0.3
			l-0.1,0.1L167.1,211z"/>
		<path class="st101" d="M272.8,349c-1.2,2.3-1.4,5-0.5,7.5c1,3,0.1,5.1-3.4,5.4c-3.8-9-2.6-18.5-2.7-27.9c0.5-0.3,1.1-0.1,1.4,0.4
			c0,0,0,0,0,0c0.5,1,0.8,2,0.8,3.1c0.1,2.4,0,4.7,0.1,7.1c0,1,0,2,0,3c0,1.6,0.2,3.1,0.6,4.6c0.2-0.8-0.1-1.9,0.3-2.8
			c1.1-2.1-0.8-5.5,2.8-6.5C273.9,344.7,271.7,347,272.8,349z"/>
		<path class="st66" d="M270.9,330c0,2.6,0,5.2,0,7.9c-2.1,0.1-2-1.8-2.7-3c-0.5-2.6-0.5-5.2-1.9-7.6c-0.2-1.2-0.9-2.3-0.4-3.5v-2.6
			c-0.4-1.4-1.1-3.2,1.1-3.5c1.9-0.2,1.4,1.7,1.5,3c0.2,1.8-0.5,3.6,0.5,5.3C270.6,326.9,269.5,329,270.9,330z"/>
		<path class="st31" d="M269,296c0.5,2.8-0.6,5.4-1.1,8c-0.7,3.4-1.8,0.3-2.7-0.1c-0.4-2-0.1-4.1,0.8-6
			C266.9,297.2,266.5,294.4,269,296z"/>
		<path class="st8" d="M269,326c-1.7-1.5-0.8-3.4-1-5.1c-0.1-0.9,0.2-2.4-1.2-2.2c-1.1,0.1-0.7,1.6-0.9,2.6
			c-1.4-1.9-0.6-4.1-0.7-6.2c0.8-0.6,2-0.6,2.8,0C269.3,318.6,269,322.3,269,326z"/>
		<path class="st8" d="M265.9,323.8l1.1,3.2c0.8,2.4,1.8,4.7-0.1,7c-0.3,0-0.5,0-0.8,0C265.8,330.6,264,327.3,265.9,323.8z"/>
		<path class="st66" d="M268,315c-0.8,0.6-2,0.6-2.8,0c0-0.7,0-1.4-0.1-2.1c1.2-1,2.5,0,3.7,0C269,313.7,268.7,314.6,268,315z"/>
		<path class="st66" d="M269,296c-1.6-0.2-1.9,1.4-3,2c0-1.1,0-2.2,1-3c1.3-0.2,0.6-2.7,1.9-2.1C270.7,293.5,269.4,294.9,269,296z"
			/>
		<path class="st102" d="M415,340c-3.7-0.2-6.9-2.4-10.9-2.1c-2.6,0.2-2.7-3.2-4-5c-0.6-9.2-1.2-18.5,1-27.6c2.2-2.8,2.4-7.4,7-8.1
			c2.7,4.9-1.9,7.5-3.6,10.8c-4.2,8.3-2.5,16.7-0.8,25.1c0.6,3.1,4.2,2.1,6.4,2.6C412.8,336.2,414.9,336.8,415,340z"/>
		<path class="st63" d="M408,297.1c-3.4,1.8-4.1,5.9-6.9,8.2c0-0.8-0.1-1.5-0.1-2.2c0.4-0.5,0.8-1,1.2-1.5c3.2-5.2,6.8-9.5,14.2-7.6
			c-1.4-1.7-4.2-2.3-2.4-5c3,0.5,4.5,2.8,5.9,5c0.7,0.6,1.7,1,1,2.2c-0.4,0.3-0.8,0.5-1.2,0.6c-3.7,0.1-7.4-1.5-11.1,0.2L408,297.1z
			"/>
		<path class="st103" d="M315.9,190.1c-0.3-1.3-1-2.4-2.1-3.2c0.4-1.7,1.2-2.7,2.2-0.6s2,4.5,0.2,6.9
			C316.1,192.1,316,191.1,315.9,190.1z"/>
		<path class="st87" d="M448.7,347.1c-2.8-2.6-3.3-5.9-2.7-9.5c0.7-3.9,1.4-7.8,2-11.7c1.9-1.4,3-2.4,4.2,1.2
			c1.3,4,0.1,7.8,0.6,11.6c-2.2,1.4-2.6,3.1-0.9,5.2l2,1C452.9,347.9,450.7,347.2,448.7,347.1z"/>
		<path class="st13" d="M468.9,345.9l-1.8,0.4c-0.5-2.8,0.7-5,1.9-7.3c-0.7-1.3-0.8-2.9-0.1-4.2l1.1-1c0.2,2.8,2.3,2.2,4,2.3l-0.9,1
			c-0.6,1.6-1.6,3.1-2.9,4.3L468.9,345.9z"/>
		<path class="st34" d="M463.1,346.2c-0.5-2,0.5-2.7,2.4-2.9C465.6,345.2,464,345.5,463.1,346.2z"/>
		<path class="st57" d="M468.8,334.7l0.1,4.2l-2.4-2.2C467,335.8,467.8,335.1,468.8,334.7z"/>
		<path class="st97" d="M407.8,345.3c-0.5-2.7-3.1-3.2-5.9-5.4c6.5,0.5,11.8,1.5,17.2,1.2c-0.2,2.8-2.4,2.8-4.3,3.1
			c-1.9,0-4-0.7-4.7,2c-0.4,0.2-0.9,0.1-1.2-0.2L407.8,345.3z"/>
		<path class="st72" d="M414.4,349.1l-0.8-0.8c0.1-0.5,0.5-0.9,0.9-1.1c3,0,5-4.7,8.7-2c0.5,0.9,0.4,2.1-0.3,2.9v0
			C420.4,349.5,417.3,349.9,414.4,349.1z"/>
		<path class="st104" d="M423,348.1l-0.1-3.2l0.4-0.5c1.1-0.7,2.2-1.5,3.5-0.4l0.3,1C425.8,346.2,425.1,348.1,423,348.1z"/>
		<path class="st104" d="M414.4,349.1l8.7-1C420.5,350.9,417.5,350.5,414.4,349.1z"/>
		<path class="st104" d="M408.9,346l1.3-0.2c0.5-0.4,1.2-0.5,1.9-0.3c1,0.5,2,0.9,2.1,2.2l-0.5,0.6L408.9,346z"/>
		<path class="st64" d="M142.8,201.1c-2.2-0.1-3.5-0.8-3.6-2.9c-0.2-2.4,1.6-2.7,3.2-2.9s3.2,0.4,3.4,2.1
			C145.9,199.2,144.6,200.8,142.8,201.1z"/>
		<path class="st43" d="M318.9,330.3c0.4-1.5-0.4-3.3,1.3-4.4l2.9,1.1c-0.1,4.9,0,9.9-3.1,14.2c-0.4,1-0.7,2-1.1,2.9
			c-0.4,0.8-1.1,1.4-2,1.7c-1.9,0.1-3.5-0.2-2.8-2.8c0.5-0.8,1.2-1.5,2-2.1C318.4,337.8,318.4,334,318.9,330.3z"/>
		<path class="st23" d="M330.1,350.9c-0.9-0.7-2.3-1.4-2.5-2.2c-0.7-3.2-2.6-2.2-4.5-1.7c-0.8-0.8-0.9-2.1-0.1-2.9
			c0,0,0-0.1,0.1-0.1c3.3-1.8,4.2,1.4,5.7,2.9C329.6,347.8,329.6,349.5,330.1,350.9z"/>
		<path class="st105" d="M323,344c0,1,0,2,0.1,3c-0.7,1.2-2,0.9-3.1,1c-0.8-0.1-1.6,0.3-2,0.9c-1.5,0.6-2-0.4-2.5-1.5
			c-0.1-0.4,0-0.9,0.1-1.3c0.4-0.5,1-0.9,1.6-1.1c0.4-0.7,0.8-1.4,1.2-2c1.3-0.1,2.3,1.2,3.7,0.9L323,344z"/>
		<path class="st47" d="M322.1,343.9c-1.4,2.5-1.5,2.4-3.7-0.9c0.1-0.9,0.7-1.6,1.5-1.8C320.8,342,322.2,342.4,322.1,343.9z"/>
		<path class="st60" d="M333.1,351.8c0.3,0.1,0.6,0.2,0.8,0.4c0.6,1.2,1.5,2.2,0.9,3.7l-0.9,1.1c-0.3,0-0.5-0.1-0.8-0.2
			c0.6-1.6-2.3-2.1-1.2-3.9L333.1,351.8z"/>
		<path class="st50" d="M326,331.9c1.4,1,1.5,2.6,2.1,4C326.1,335.3,325.9,333.7,326,331.9z"/>
		<path class="st8" d="M481,313.9c2.1,6.9,2.1,13.4-2.9,19.2c-0.5-0.3-0.6-0.7-0.2-1.2l1.1-9C480.2,320.1,478.6,316.6,481,313.9z"/>
		<path class="st87" d="M481,313.9c-1,3,1.8,6.8-2,9.1c-1.7-3.2-1.7-6.9,0-10.1C480.1,312.4,480.4,313.5,481,313.9L481,313.9z"/>
		<path class="st37" d="M477.9,332l0.1,1.2l-1.5,1.8H475c-0.3-2-1.3-3.8-2.9-5l2.8-4.3C474.9,328.2,472.2,332.1,477.9,332z"/>
		<path class="st1" d="M462,300l-2-2.1c0.1-1.2,0.7-1.9,1.9-1.8c1.3,1.1,2.5,2.3,2,4.2L462,300z"/>
		<path class="st8" d="M481,314l-2-1c-0.8-1.6-2.1-3-2-5C479.1,309.3,480.6,311.5,481,314z"/>
		<path class="st64" d="M462,296c-0.3-0.6-0.7-1.3-1-1.9c2.5-1.6,3.2,0.2,4,2L462,296z"/>
		<path class="st8" d="M476.7,305c0.1,1,0.2,1.9,0.3,2.9l-3.1-3.9L476.7,305z"/>
		<path class="st106" d="M223.1,312l2-1c0,1.6,0.4,3.5-1.2,4.6c-2.7,2-1.4-0.8-1.8-1.6L223.1,312z"/>
		<path class="st87" d="M220,320c0.2,0.9,1.4,1.8,0.2,2.5c-0.4,0.3-1.5-0.3-2.2-0.5L220,320z"/>
		<path class="st105" d="M294,328l0.1-2.2c1.1-2.2,0.3-4.8,1.9-6.9c3-0.3,1.8-4.1,4.2-5c-0.9,4.9-1.7,9.9-1,14.9
			c-0.3,0.3-0.8,0.4-1.1,0.1c0,0,0,0,0,0l0,0c-1.2-1.5-2.6,1.6-3.9-0.1C294,328.6,294,328.4,294,328z"/>
		<path class="st107" d="M298,329.1l1.1-0.1c1.2,3.4,1.5,7.1,3.9,10.1c0.6,1,1.8,1.8,1,3.2c-0.6,0.4-1.5,0.3-2-0.3
			C296.7,338.9,298.2,333.7,298,329.1z"/>
		<path class="st68" d="M311,347l-1,0c-1.3-0.4-2.8-0.2-4-1l-1-1c-0.3-0.3-0.4-0.9,0-1.3c0,0,0.1-0.1,0.1-0.1
			c2.3-1.1,4.6-0.5,6.9-0.4c1.5,0.6,1.3,2,1.2,3.2C312.8,347.4,312,347.8,311,347z"/>
		<path class="st107" d="M294.1,329c0.6-0.2,1.1-0.5,1.7-0.8c0.5-0.5,0.3-1.9,1.4-1.6s0.7,1.6,0.8,2.5
			C296.7,328.3,295.2,334.9,294.1,329z"/>
		<path class="st23" d="M306,346c1.2,0.9,3.3-1.9,4,1c-1.3,3.5-2.7-1.3-4,0C306,346.6,306,346.3,306,346z"/>
		<path class="st15" d="M305.1,343.8v1.1c-2.1,0-2.4-1.7-3.1-3h2c0.8,0.2,1.3,0.9,1.1,1.7C305.1,343.7,305.1,343.8,305.1,343.8z"/>
		<path class="st106" d="M446.7,289.1c-0.5-2-3.6-2.8-2.8-5.5c-0.4-2.2-1-4.5,0.2-6.6c2.4,0.1,0.7,2.3,1.7,3.1
			c1.7,7,3.6,8.8,10.1,8.9l-1.8,1.9l-1.3,0.1C450.5,291.5,448.7,290,446.7,289.1z"/>
		<path class="st108" d="M451.8,344.1c-2.4-0.7-3-2.5-2.5-4.6s2.3-0.4,3.4-0.7C453.5,340.8,452,342.3,451.8,344.1z"/>
		<path class="st23" d="M343,306l1.7,1c0.5,2.2,1.8,1.9,3.3,1.2c1.4,1,4,0.4,4.4,3c0,0.3,0,0.6,0,0.9c0.2-0.3,0.2-0.6,0-0.9
			c0.4-1.5-2.1-1.6-1.5-3.1c4.6-0.3,9.3-2.9,14-0.1c0.7,0.6,1.7,1.1,0.9,2.3c-1,0.7-2.2,0.9-3.3,0.5c-0.4,0-0.9-0.7-1.3,0.1
			c0.3,0.7,0.1,1.6-0.4,2.1l-5.8,3.6c-2.6,1-5.7-0.6-8.2,1.2c-2.5-0.1-1.1-1.9-1.4-3.1c0.4-4.5-3.8-2.4-5.5-3.8
			c-0.7-0.4-1.1-1.2-1-2c1-0.6,2.3-0.8,2.9-2c-0.2-0.2-0.3-0.5-0.2-0.7c0.1-0.2,0.1-0.4,0.2-0.4C342.2,305.6,342.7,305.6,343,306
			C343,306,343,306,343,306z"/>
		<path class="st34" d="M342,306c0,0.3,0,0.6-0.1,0.9c-3.4-1.9-2.1-4.4-1-7c0.3,0,0.7,0,1,0C342.7,301.9,342.7,304.1,342,306z"/>
		<path class="st93" d="M243,248c-0.5-3.5,0.8-6.4,3-9c1.1,3.4-0.5,6.2-2,9H243z"/>
		<path class="st32" d="M246.9,236.9c0.1-1,0.1-1.9,0.1-2.9l1.5-1.2c0.2,0.7,0.3,1.5,0.5,2.2l-1.2,2.9
			C247.6,237.6,247.2,237.2,246.9,236.9z"/>
		<path class="st87" d="M239.1,271c0.2-2-0.8-4.2,0.9-6C239.7,267,240.8,269.2,239.1,271z"/>
		<path class="st87" d="M243,257c0.2-1.7-0.6-3.6,0.9-5C243.8,253.7,244.7,255.6,243,257z"/>
		<path class="st103" d="M347,285c1-1.7,2.3-3,4-4c1.7,0,1.7,0.8,1,2l-2,2c-1.1,0.5-1.5,2.1-3,2C347,286.3,347,285.6,347,285z"/>
		<path class="st28" d="M361.1,271.8c2.6,0.2,3.6,2.1,3.9,4.2s-1.1,2.8-3,2.9c1.7-2.3,1.9-4.4-1-5.9
			C360.7,272.7,360.7,272.2,361.1,271.8C361,271.9,361.1,271.8,361.1,271.8z"/>
		<path class="st10" d="M353,279c1.9-1.3,3.9-2.5,7-0.8l-6,1.8C353.5,279.9,353.1,279.5,353,279z"/>
		<path class="st10" d="M361.1,271.8L361,273l-5.2,0.8c1.2-1.7,3.1-2.8,5.2-2.8C361,271.3,361,271.6,361.1,271.8z"/>
		<path class="st30" d="M353,279l1,1c0.1,1.3-0.7,2.6-2,3c0.1-0.8-0.3-1.6-1-2c0-0.3,0-0.6,0.1-0.9L353,279z"/>
		<path class="st5" d="M414.2,347.7L412,346c-0.8-2,1.2-2.1,2-3c1.9,0,3.9,0.1,5.2-1.9c2.2-0.6,4-2.1,4.8-4.2
			c-0.4-2.9,2.7-4,3.3-6.4c0.4-0.6,0.9-1.1,1.4-1.5l1.2-0.8c2.5-4.1,2.9-8.7,2.9-13.4c-0.2-1.8,0-3.6,0.4-5.4
			c0.3-0.7,0.7-1.4,1.7-1.2l1.3,0.7c1.9,6.6,1.8,13.1-1.1,19.5c-0.7,1.8-1.4,3.7-1.9,5.6l-1.8,1.1c-0.8,1.5-1.8,2.9-3,4.1l-0.3,1.7
			c-1,2.1-3.4,2.6-5,4l0,0C419.6,344.5,418,349.7,414.2,347.7z"/>
		<path class="st23" d="M311,347c0.8,0.1,1.6-0.3,2-1c0.9-0.7,2.1-0.7,3,0c0,0.3-0.1,0.6-0.1,0.9c-0.5,0.6-0.1,1.6-1,2
			C312.8,350,312.2,347.9,311,347z"/>
		<path class="st64" d="M315,349c-0.1-0.8,0.3-1.6,1-2l2,2C317,350.3,316,350.2,315,349z"/>
		<path class="st88" d="M317.2,351.4c-1.1,0.7-2.8,0.7-2.9,0.2c-0.3-1.3,1-0.5,1.5-0.6C316.2,350.9,316.7,351.2,317.2,351.4z"/>
		<path class="st54" d="M422.1,337.1c-0.4-3.5,4-4.2,4.3-7.3l1.5,1.2c0.1,2.9-2.6,4-3.9,6L422.1,337.1z"/>
		<path class="st54" d="M416,340c2-1.1,3.7-2.8,6.1-2.9C420.7,339.3,418.8,340.6,416,340z"/>
		<path class="st83" d="M373,346c1.4,0.9,1.1,2.7,2,3.9c0.1,1.1-0.7,2-1.8,2.1c0,0-0.1,0-0.1,0C373,350.1,373,348.1,373,346z"/>
		<path class="st83" d="M364,347l5.9-0.8C368.2,348.4,366.2,348.7,364,347z"/>
		<path class="st83" d="M373,352c-1.8,1.4-4.3,1.3-6-0.1L373,352z"/>
		<path class="st22" d="M341.1,322.9c1.5-1,0-2,0-3c1.7-1.1,3-0.7,3.8,1.2c0,0.5,0,1,0,1.5c0,1.5,0.3,3.4-1.7,3.6
			S342,323.9,341.1,322.9z"/>
		<path class="st106" d="M344.9,321c-1.1-0.8-2.4-1.2-3.8-1.2c0-0.6-0.1-1.3-0.1-1.9c0.9-0.7,2.3-0.7,2.9-1.9
			c0.4-0.8,1.1-1.3,1.9-1.6c0.5,0,0.9,0.2,1.2,0.6c-0.2,1-1.6,1.9,0,2.9L344.9,321z"/>
		<path class="st63" d="M366,310c-0.3-0.7-0.7-1.4-1-2l2.1,0.2c1.6,0.6,3.3,0.7,5,0.1l2,0.9c0.1,0.8-0.3,1.5-1,1.9
			C370,314.5,368,312,366,310z"/>
		<path class="st63" d="M351,308c1.1,1.1,2.4,2.1,2,3.9c-0.2,0.3-0.7,0.3-0.9,0.1c0,0,0,0-0.1-0.1c0-2.6-3.4-1.7-3.9-3.7L351,308z"
			/>
		<path class="st13" d="M372,308.2c-1.7,1.9-3.3,0.8-5-0.1L372,308.2z"/>
		<path class="st76" d="M456,265c-1.7,1.3-4,1.9-5.1,4l-3.9,5l-1.1,0c-1.9-2.6-0.6-4.8,0.9-7c0-1.4,0.4-2.7,1.2-3.8
			c0.3-0.1,0.6-0.2,0.8-0.2c1.7-0.5,3.4,1.4,5.1,0.1l1.9-0.1c0.4,0.3,1,0.4,1.1,1L456,265z"/>
		<path class="st109" d="M466.1,262.8c1.9,0.9,3.8,1.9,5.5,3c1.3,0.9,1.6,2.6,0.9,4c-1,2.1-2.4,0.7-3.6,0.3l-3-3
			C467.2,265.7,459.4,263.9,466.1,262.8z"/>
		<path class="st11" d="M457,264l-1-1l2.9-1c0.2,0.9-0.4,1.8-1.3,2C457.4,264,457.2,264,457,264z"/>
		<path class="st1" d="M366,310c2.4,0,4.4,2.3,6.9,1c-2,0.6,0.9,6.1-3.9,3.9c-1.6-0.7-3.4-0.7-5.1-1c-1.1,0-2.3,0.2-3.1-1
			c-0.3-1-0.6-2-0.9-3c0.5-0.5,1.3-0.6,1.8-0.1c0.1,0,0.1,0.1,0.2,0.2H366z"/>
		<path class="st31" d="M375,310c0.9,1.7,2.3,3.1,4,4l-1,1c-0.5,0.5-1.3,0.6-1.8,0.1c0,0-0.1-0.1-0.1-0.1
			C375.1,313.5,374.7,311.7,375,310z"/>
		<path class="st100" d="M376,315l1.9,0.1l1.1,2c-0.5,0.7-0.9,1.6-2.1,1h-0.5H376C375.2,317,373.5,315.9,376,315z"/>
		<path class="st100" d="M364,314c2.1-1.6,3.5,0.2,5.1,1C367.3,314.8,365.4,315.6,364,314z"/>
		<path class="st73" d="M428.2,339.2c-0.1-2.2,1.5-3.1,3-4.1C432.2,337.9,431.3,339.4,428.2,339.2z"/>
		<path class="st72" d="M422.9,344.9c1-2.1,3.1-2.9,5-4c1.3,1.6-0.4,2.1-1.1,3L422.9,344.9z"/>
		<path class="st81" d="M208.1,321.9c-0.5,1.2,1.6,2.4,0.1,3.4c-0.7,0.4-1.6,0.4-2.3,0.1c-1.3-0.9,0.3-2,0.1-3.1
			c0-0.8,0-1.6,0.1-2.5C207,320.3,207.7,321,208.1,321.9z"/>
		<path class="st18" d="M209,317c0-0.7,0-1.4,0.1-2h2c0.2,0.8,0.3,1.5,0.4,2.3c0,0.7,0.7,1.8-0.2,2.2s-1.3-1.2-2.1-1.5
			c-0.3-0.2-0.4-0.4-0.3-0.6S209,317,209,317z"/>
		<path class="st110" d="M209,317c0,0.3,0,0.6,0,1c-0.2,2.6-1.9,0.8-2.9,1c-0.1-0.8,0.2-1.6,0.8-2L209,317z"/>
		<path class="st30" d="M215,325c0,1.4,0.4,3.1-2,2l-0.9-2H215z"/>
		<path class="st97" d="M446.9,267c-0.3,2.3-0.6,4.7-0.9,7l-0.1,6c-1-0.8-0.8-2-0.9-3c-1.7-1.8-0.4-4-1-6c0.1-1,0.1-2,0.2-3
			L446.9,267z"/>
		<path class="st111" d="M347,315h-1c-0.6-0.3-1.4-0.6-1.8,0c-0.7,0.9,0.4,1.4,0.8,2c-0.7,1.3-2.4,1.9-3.7,1.2
			c-0.1-0.1-0.2-0.1-0.3-0.2c-1.8-2.1-0.7-4.7-1-7C343.8,309.7,346.9,309.7,347,315z"/>
		<path class="st8" d="M342,306c0-2,0-4,0-6h1c0,2,0,4,0,6C342.7,306,342.4,306,342,306z"/>
		<path class="st83" d="M421,295.9c-0.4-0.6-0.7-1.3-1.1-1.9c3.6,0.5,6.8,2.3,8.9,5.2c0.1,0.6,0.1,1.1,0.2,1.7
			c0.3,0.9-0.1,1.2-0.9,1.5c-0.9-0.3-1.6-0.8-2.2-1.6C424.8,298.7,421.4,298.8,421,295.9z"/>
		<path class="st70" d="M454.1,263.1c-1.8,1.7-3.4,0.6-5.1-0.1C450.7,261.2,452.4,263.7,454.1,263.1z"/>
		<path class="st35" d="M376.9,318l2.1-1l1.2,0.6C379.2,318.4,378.3,319.4,376.9,318z"/>
		<path class="st112" d="M272.1,342.9c-2.3,1.9,0.2,5.2-2,7.1c-0.4-0.3-0.7-0.8-0.9-1.3c-0.4-1.6-0.5-3.2-0.3-4.8
			c0.1-0.8,0.4-1.6,0.9-2.2c0.7-0.4,1.6-0.4,2.2,0.2C272,342.3,272.1,342.6,272.1,342.9z"/>
		<path class="st47" d="M272,342h-2c-0.9-0.8-1.5-1.8-1.8-3c-0.2-0.7-0.2-1.4-0.2-2.1c0-0.7,0.4-1.4,1-1.9l1.9,2.9L272,342z"/>
		<path class="st113" d="M334.8,355.9c-0.5-1.2-1.2-2.3-0.9-3.7c1.4,0.4,1.3,1.9,2.1,2.7L334.8,355.9z"/>
		<path class="st11" d="M444,271c1.8,1.8,0.6,4,1,6c-1.8,1.9-0.6,4.4-1.1,6.5c-1-2-1.4-4.2-1-6.4C443.4,275.1,442.8,272.9,444,271z"
			/>
		<path class="st10" d="M429,304.9c-0.6-0.5-1-1.2-0.8-2c1.3-1.1,2.6,0,3.8,0c1.9,1.1,2.9,3.2,2.7,5.3c-0.3,0.2-0.5,0.5-0.8,0.7
			c-0.3,0.3-0.8,0.5-1.2,0.5C430.7,308.6,431,305.8,429,304.9z"/>
		<path class="st114" d="M432,303c-1.3,1.9-2.6-0.3-3.8,0l-0.4,0.1c-0.3-0.3-0.2-0.8,0.1-1.1c0,0,0.1,0,0.1-0.1l1.1-1.1
			C430.4,301,431.5,301.8,432,303z"/>
		<path class="st57" d="M470.1,341.3c0.4-1.8,1.7-3,2.9-4.3c0,0.7,0,1.5,0.1,2.2C472.6,340.4,471.4,341.3,470.1,341.3z"/>
		<path class="st115" d="M168,186c-2.5,2.8-4-0.6-6-1c1.4-1.9,2.9-0.1,4.4-0.1c0.8,0,2.1,0.1,2.1-0.7c0-1.6,1.1-3.2,0-4.6
			c-0.8-1-1.7-0.4-2.4,0.4c-1,0.1-1.9-0.6-2-1.6c0-0.1,0-0.3,0-0.4c-0.9-1.1-2-2-2.3-3.4c0.9-1.8,1.7-3.8,4.3-2.6l0,0
			c0.7,0.7,1.3,0.9,2,0c1.8-1.4,3.3-1.8,4,1c-4.6,2.5-2,5.9-1,9c0.5,0.6,0.7,1.4,0.5,2.2C170.8,185.6,170.1,187.2,168,186z"/>
		<path class="st84" d="M166,172c-2,0.1-3.1,1.4-4,3c0.8,0.8,0.8,2.2,0,3c-0.2,0.7-0.4,2-1.2,0.5c-2.8-5.3,2.1-6.9,4.4-10
			C166.4,169.8,165.9,170.9,166,172z"/>
		<path class="st26" d="M162.1,178v-3c2,0.1,2,1.5,2,3H162.1z"/>
		<path class="st5" d="M168,172.1c0.3,0.9,1.1,2.1-0.3,2.3s-1.5-1.2-1.7-2.3L168,172.1z"/>
		<path class="st4" d="M200.1,306.9c-0.2,0.7-1.2,1.8-1.2,1c0-4.7-4.8-8.9-1.8-13.9c0,0.3,0.1,0.7,0.1,1c0.8,0.8,1.1,1.9,0.9,3
			c2.1,2.3,0,5.7,2,8c0.2,0.1,0.3,0.4,0.3,0.6C200.2,306.8,200.1,306.9,200.1,306.9z"/>
		<path class="st37" d="M198,298c-1.1-0.7-0.9-1.9-0.9-3c0.5,0,1,0.1,1.4,0.3c1.9,1.1,4.9,2.5,3.5,4.6
			C200.1,302.7,200.2,296.9,198,298z"/>
		<path class="st116" d="M200.1,306.9c0-0.3-0.1-0.6-0.1-0.9c0.3-2,1.6-2.4,3.1-1.7c1.2,0.6,1.9,1.9,1.7,3.2
			c-0.4,1.8-1.9,0.1-2.8,0.5L200.1,306.9z"/>
		<path class="st63" d="M171,184v-2c0.5-1.5-0.3-5.1,1.2-4.2c1.9,1.1,5.1,3,4.7,6.4c-0.2,1.6-0.5,3.2-0.9,4.8l-1.9,1.1L173,189
			C172.5,187.3,169.7,186.5,171,184z"/>
		<path class="st76" d="M181,182l0.6-1.1c0.8,0.9,0.2,2.1,0.4,3.1c-0.8,0.2-1.8,1.4-2.4,0.2C179.4,183.9,180.5,182.8,181,182z"/>
		<path class="st63" d="M171,184c-0.4,2.1,4.5,2.1,2,5l0,0c-0.8,0.9-2.9-2.1-3,1v3c1.7,1.2,3.4,2.5,2,5h-1c0.1-1-0.6-1.9-1.6-2
			c-0.1,0-0.3,0-0.4,0c-1.3-0.6-2.4-1.3-2.6-2.8c0-0.4,0.2-0.9,0.6-1.2c1.2-1.9,1-3.9,1-6C169.6,186.2,170,184.7,171,184z"/>
		<path class="st63" d="M170.1,190.1c-0.3-4.1,1.7-1.6,3-1C172.5,190.6,171.4,190.8,170.1,190.1z"/>
		<path class="st63" d="M172,198c0.4-2.1-1.1-3.4-2-5C173.2,193.7,173.9,195.4,172,198z"/>
		<path class="st98" d="M177,225c0-1,0-2,0-3c-0.1-3.4-3.2-7,1-10c0.2,0.1,0.3,0.4,0.3,0.6c-0.1,0.2-0.1,0.3-0.2,0.3
			c-0.3,1-0.7,2-1,3c0.1,4.6,3.9,4.9,7,6l0,0c-0.6,2.7-4.6,3.2-4.4,6.5c-0.2,0.4-0.6,0.8-1.1,0.9c-0.5,0.1-1,0-1.5-0.2
			c-1.2-1-1.3-2.8-0.3-4C176.9,225.1,176.9,225.1,177,225z"/>
		<path class="st13" d="M178.1,213c0-0.3,0-0.6-0.1-0.9c0.2-0.9-0.3-2.1,0.8-2.5s1.3,1.2,2.2,1.5C180.9,213,180.2,214.1,178.1,213z"
			/>
		<path class="st50" d="M172.1,219c-1.3-1.8-0.2-4-1-5.9c0.7-1.2,1-3.6,3-1.1c1.7,1.8,0.6,4,0.9,6L172.1,219z"/>
		<path class="st76" d="M174.1,212c-1.5-1-2.1,0.3-3,1.1c0-0.8-0.3-1.6-1-2c0-0.3,0-0.7,0-1c1.3-0.4,0.6-2.8,2.3-2.6
			c1.3,0.2,1.6,1.4,1.7,2.6C174.1,210.7,174.1,211.3,174.1,212z"/>
		<path class="st98" d="M179.1,241h-0.9l-0.1-6c0.1-0.2,0.1-0.4,0.1-0.6c1.2-1.6-0.7-3.8,0.9-5.3l0,0c0.7-1.1,1.5-2.1,3-1v3
			c0.4,0.4,1.1,0.6,1.4,1.1c0.6,1,1,2.1,1.7,3.1c0.2,0.3,0.5,0.6,0.8,0.9c0,0.3,0,0.6,0.1,0.9c-0.7,1.2-1.1,2.6-1,4h-1
			C182.4,242.7,180.8,234.5,179.1,241z"/>
		<path class="st26" d="M182,228l-3,1c-1.2-4.4,2.1-5.6,5-7l2,1c-0.3,0.9-1.1,1.7-2,2C182.6,225.5,182.5,226.9,182,228z"/>
		<path class="st1" d="M182,228c-0.5-1.8-1.4-3.8,2-3C184.1,226.3,183.2,227.5,182,228z"/>
		<path class="st117" d="M186,236.1l-0.9-0.1c-1.1-1.1-0.7-3-2-4l-1-1h4L186,236.1z"/>
		<path class="st81" d="M200,290c-0.2,0.9-0.7,2.5-1.6,1c-1-1.7-2.7-3.9-0.4-6.1L200,290z"/>
		<path class="st107" d="M210,336.9c-1.5,1.3-0.7,3.6-2,5c-3.2-0.1-2.6-2.7-2.3-4.3c0.2-1.6,0.7-3.1,1.3-4.6c0-0.6,0-1.3,0.1-2
			c1-0.7,1.4-2.2,2.9-2.1C215.2,331.6,209.8,334.3,210,336.9z"/>
		<path class="st33" d="M200,321v4c-1.5-0.5-2.3-2.1-1.9-3.6C198.4,320.1,199.3,320.8,200,321z"/>
		<path class="st33" d="M204.1,320.4c0.2,0.3,0.6,0.5,0.7,0.9c0.2,0.6-0.1,1.2-0.7,1.4c0,0-0.1,0-0.1,0c-0.2,0.1-0.9,0.8-0.9-0.2
			C203.1,321.7,202.9,320.9,204.1,320.4z"/>
		<path class="st100" d="M207,333c0.7,3-2.1,6.3,1,9c0,0.3,0,0.7,0,1c-2.9-0.9-5.1-3.1-6-6C204.2,336.3,206.1,335.2,207,333z"/>
		<path class="st27" d="M202,330.1c2.1,0,2.1,1.9,2.5,3.2s-0.6,1.6-1.7,1.7c-1.8,0.1-2.8-0.6-2.7-2.6
			C200.1,331.1,200.5,330.1,202,330.1z"/>
		<path class="st73" d="M228,303c0.7-1.7,1.3-3.3,1.9-5c0-1.7,0.2-3.3,2.1-4c1.5,3.9-1.6,6.1-3,9L228,303z"/>
		<path class="st72" d="M240.5,260.6c-2.1-3.3-1.8-5.5-0.7-7.5c0.3-0.4,0.8-0.5,1.3-0.3c0.2,0.1,0.3,0.2,0.3,0.4
			C242.7,255.6,240.7,257.4,240.5,260.6z"/>
		<path class="st44" d="M253,215c-2.5,1.1-1.9-0.7-1.9-1.9c1.2-0.3,0.5-2.8,1.9-2.1C255,211.9,253.6,213.6,253,215z"/>
		<path class="st118" d="M305.1,343.8L304,342c-0.3-1-1.4-1.7-1.1-2.9c3.9,3.5,8.3,4,13,1.9l-1.1,1.7c-0.4,0.7-1.1,1.2-2,1.2
			L305.1,343.8z"/>
		<path class="st24" d="M303,301l2,2l-0.8,2.2c-0.4-0.8-1.3-1.3-2.2-1.2C301.4,302.7,302,301.8,303,301z"/>
		<path class="st119" d="M303,301c-0.3,1-0.6,2-1,3c-0.3,1.8-1,3.4-2.8,4.3c-0.6,0.3-1.5,0.7-1.7,0s0.3-1.5,0.5-2.2l2-3.1
			c1-0.5,0.8-1.7,1.4-2.5C302.3,299.1,302.8,299.6,303,301z"/>
		<path class="st24" d="M294.1,325.9c0-2.3,0.1-4.5,0.1-6.8l1.8-0.1"/>
		<path class="st50" d="M177,225c0.3,1.4-0.4,2.9,0.9,4.1c0.9,2,1.3,3.9,0.2,5.9l-0.1,0c-3.4-3-3.8-7-3.7-11.5L177,225z"/>
		<path class="st93" d="M167,192.1c0,0.3,0,0.6,0,0.9c-0.7,1.3-0.4,3.6-2.9,2.9c0-0.3,0-0.6-0.1-0.9
			C164.4,193.4,163.1,190.1,167,192.1z"/>
		<path class="st82" d="M170.1,204h1c0.9,0.1,2-0.3,2.4,0.9c0.1,0.2-0.4,0.8-0.8,0.9C171.2,206.2,170.2,205.7,170.1,204z"/>
		<path class="st76" d="M170.1,210c-2-0.1-2-1.5-2-3C170.1,207.1,170,208.6,170.1,210z"/>
		<path class="st63" d="M164.1,196c1.6-0.4,1.8-2.2,2.9-2.9c0.7,1,1.3,2,2,3C167.4,198,165.7,200.7,164.1,196z"/>
		<path class="st120" d="M269,335l0,2c-0.2,0.3-0.6,0.5-1,0.5c-0.4,0-0.8-0.2-1-0.5l-0.1-3c0-2.3,0-4.7,0.1-7
			C269.7,329.1,268.8,332.2,269,335z"/>
		<path class="st53" d="M270,348.9c0,0.4,0,0.8,0.1,1.1c-0.4,1.7,0.8,3.9-1.7,5.5l-1.3-7.6C268.4,347.3,269.1,348.2,270,348.9z"/>
		<path class="st17" d="M267.1,337c0.3,0,0.7,0,1,0c0.4,0.5,0.5,1.1,0.5,1.6c0,0.3,0,0.6-0.1,0.9c0.5,0.2,0.2-0.6,0.6-0.6
			c1.2,0.7,0.9,1.9,1,3c0,0.7,0,1.3,0,2c-0.7,0.9-1.4,2.1-2.8,1C267.2,342.3,267.1,339.7,267.1,337z"/>
		<path class="st121" d="M267.2,345l2.8-1c0,1.6,0,3.3,0,4.9l-2.9-1L267.2,345z"/>
		<path class="st102" d="M428,302l-0.2,1.1c-1,0-2.5,0.5-2.8,0.1c-4.4-5.8-10.5-6.5-17-6.1c3.6-4,7.8-0.9,11.7-0.9
			c2.2,1.7,4.9,2.4,7,4.2L428,302z"/>
		<path class="st45" d="M426.8,300.4c-2.8-0.4-5.3-1.9-7-4.2l1.3-0.2C422.3,298.2,426.2,297.1,426.8,300.4z"/>
		<path class="st100" d="M414,343c-0.7,1-1.3,2-2,3l-1.8-0.2C409,342.5,409,342.5,414,343z"/>
		<path class="st86" d="M312.9,343.9l2-1.2c-0.9,2.3,0.6,2.4,2.3,2.5L316,346h-3C311.9,345.3,313,344.6,312.9,343.9z"/>
		<path class="st64" d="M352,312h1c1,0.8,0.9,1.6,0,2.3c-0.3,0.2-1,0.4-1.2,0.2C350.7,313.6,351.8,312.8,352,312z"/>
		<path class="st63" d="M362,310h-2c-0.5-0.4-1.1-1-0.5-1.4C361,307.7,361.4,309.1,362,310z"/>
		<path class="st41" d="M432.8,309h1.1c0.3,5.4,0.5,10.9-1.2,16.1c-0.5,1.8-0.5,4.1-2.9,4.8c-0.7-1.9,0-3.5,1.3-4.8l-0.1,0.1
			C432.7,319.9,432.3,314.4,432.8,309z"/>
		<path class="st54" d="M431.2,325.1l-1.3,4.8l-0.5,0.1l-0.4-0.2c0.4-2-0.7-2.5-2.4-2.4c-1.4,0.1-1.8-0.6-1.5-1.8
			c0.4-1.8,1.3-0.7,2-0.2C428.6,326.5,429.8,325.4,431.2,325.1z"/>
		<path class="st54" d="M432.8,309c0.2,5.5,0.6,10.9-1.7,16.1c0-1.3-0.4-2.7,0-3.9c2-5.9,0.6-11.2-2.2-16.3
			C431.7,305,431.5,307.7,432.8,309z"/>
		<path class="st102" d="M410,300c0.3,1.1,1.7,2.1,0.3,3.4C408.8,302.4,408.5,301.3,410,300L410,300z"/>
		<path class="st102" d="M410,300c0.9-1,1.8-1.9,3.3-1.5C412.7,300.4,411.2,299.9,410,300L410,300z"/>
		<path class="st60" d="M345,317c-1.3,0-2.7,0.1-2.9-1.7c-0.1-0.8,0-1.7,0.9-2c1.6-0.5,2.3,0.5,3,1.7L345,317z"/>
		<path class="st113" d="M269,339c-0.2,0.7,0.3,1.6-1,2.3V337h1C269,337.6,269,338.3,269,339z"/>
		<path class="st26" d="M178.1,235c-0.1-2-0.1-4-0.2-5.9l1.1-0.1C178.6,231,182,233.6,178.1,235z"/>
		<path class="st7" d="M183,232c2.7,0.3,1.8,2.4,2,4C183.2,235.3,183,233.7,183,232z"/>
	</g>
</g>
</svg>
